%TF.GenerationSoftware,KiCad,Pcbnew,5.1.10-88a1d61d58~90~ubuntu20.04.1*%
%TF.CreationDate,2021-08-18T11:13:03+02:00*%
%TF.ProjectId,s1-ecg-demo,73312d65-6367-42d6-9465-6d6f2e6b6963,1*%
%TF.SameCoordinates,Original*%
%TF.FileFunction,Copper,L2,Inr*%
%TF.FilePolarity,Positive*%
%FSLAX46Y46*%
G04 Gerber Fmt 4.6, Leading zero omitted, Abs format (unit mm)*
G04 Created by KiCad (PCBNEW 5.1.10-88a1d61d58~90~ubuntu20.04.1) date 2021-08-18 11:13:03*
%MOMM*%
%LPD*%
G01*
G04 APERTURE LIST*
%TA.AperFunction,ComponentPad*%
%ADD10O,1.158000X2.458000*%
%TD*%
%TA.AperFunction,ComponentPad*%
%ADD11O,1.158000X2.158000*%
%TD*%
%TA.AperFunction,ViaPad*%
%ADD12C,0.650000*%
%TD*%
%TA.AperFunction,ViaPad*%
%ADD13C,0.200000*%
%TD*%
%TA.AperFunction,Conductor*%
%ADD14C,0.200000*%
%TD*%
%TA.AperFunction,Conductor*%
%ADD15C,0.350000*%
%TD*%
%TA.AperFunction,Conductor*%
%ADD16C,0.300000*%
%TD*%
%TA.AperFunction,Conductor*%
%ADD17C,0.100000*%
%TD*%
G04 APERTURE END LIST*
D10*
%TO.N,*%
%TO.C,J4*%
X134779998Y-116996000D03*
D11*
X134779998Y-113170999D03*
D10*
X143420001Y-116996000D03*
D11*
X143419601Y-113170999D03*
%TD*%
D12*
%TO.N,GND*%
X144300000Y-102800000D03*
X145400000Y-102800000D03*
%TO.N,+1V8*%
X144300000Y-103800000D03*
D13*
%TO.N,Net-(C1-Pad2)*%
X148100000Y-102700000D03*
X147400036Y-104900000D03*
%TO.N,Net-(C2-Pad2)*%
X147500000Y-101800000D03*
X146099982Y-107600000D03*
D12*
%TO.N,/ECG_OUT*%
X150700000Y-112100000D03*
D13*
%TO.N,Net-(C3-Pad2)*%
X149400000Y-107500006D03*
X147600000Y-105500000D03*
%TO.N,Net-(C3-Pad1)*%
X148800000Y-106200000D03*
X150400000Y-105700000D03*
%TO.N,Net-(C4-Pad1)*%
X149300000Y-103700000D03*
X147200000Y-105499996D03*
X147900000Y-107399992D03*
X147000000Y-107400010D03*
D12*
%TO.N,GND*%
X122300000Y-89300000D03*
X129300000Y-89300000D03*
X135300000Y-89300000D03*
X143200000Y-97500000D03*
X136000000Y-111300000D03*
X145700000Y-104700000D03*
X135000000Y-92700000D03*
X143200000Y-92700000D03*
X143200000Y-89300000D03*
X149400000Y-90000000D03*
X147300000Y-100800000D03*
X125400000Y-94700000D03*
X126500000Y-96500000D03*
X124300000Y-96500000D03*
X125500000Y-98500000D03*
X141300000Y-109500000D03*
X141300000Y-106500000D03*
X141300000Y-103500000D03*
X120300000Y-91700000D03*
X120300000Y-107700000D03*
X122300000Y-117700000D03*
X120300000Y-115700000D03*
X120300000Y-99700000D03*
X129300000Y-117700000D03*
X155300000Y-117700000D03*
X147300000Y-117700000D03*
X155100000Y-89200000D03*
X157900000Y-92000000D03*
X157900000Y-99700000D03*
X157800000Y-107300000D03*
X157800000Y-115500000D03*
X142200000Y-111300000D03*
%TO.N,+1V8*%
X143200000Y-95399994D03*
X153399981Y-90000019D03*
X145399994Y-103800000D03*
%TO.N,/VBUS*%
X138800000Y-113600000D03*
X134500000Y-99800000D03*
%TO.N,Net-(J3-Pad1)*%
X151400000Y-107900000D03*
%TO.N,/VBAT*%
X141200000Y-101100008D03*
D13*
%TO.N,/LED2*%
X134600000Y-93900000D03*
D12*
X129100000Y-108600000D03*
D13*
%TO.N,/LED3*%
X134600000Y-94600000D03*
D12*
X129700000Y-110700000D03*
D13*
%TO.N,/LED4*%
X134600000Y-95300000D03*
D12*
X130300000Y-112800000D03*
D13*
%TO.N,/LED1*%
X134600000Y-96000000D03*
D12*
X130900000Y-106500000D03*
D13*
%TO.N,/~SDN*%
X135300000Y-97499998D03*
X146399988Y-105100000D03*
%TO.N,/LOD*%
X142300000Y-96700000D03*
X144699999Y-105000005D03*
D12*
%TO.N,Net-(J1-Pad1)*%
X118400000Y-104900000D03*
X151400000Y-104900000D03*
%TD*%
D14*
%TO.N,Net-(C1-Pad2)*%
X148100000Y-102700000D02*
X147400036Y-103399964D01*
X147400036Y-103399964D02*
X147400036Y-104900000D01*
%TO.N,Net-(C2-Pad2)*%
X146700000Y-102600000D02*
X147500000Y-101800000D01*
X146700000Y-106200000D02*
X146700000Y-102600000D01*
X146099982Y-106800018D02*
X146700000Y-106200000D01*
X146099982Y-107600000D02*
X146099982Y-106800018D01*
%TO.N,Net-(C3-Pad2)*%
X149000006Y-107500006D02*
X149400000Y-107500006D01*
X147600000Y-106100000D02*
X149000006Y-107500006D01*
X147600000Y-105500000D02*
X147600000Y-106100000D01*
%TO.N,Net-(C3-Pad1)*%
X148800000Y-106200000D02*
X149900000Y-106200000D01*
X149900000Y-106200000D02*
X150400000Y-105700000D01*
%TO.N,Net-(C4-Pad1)*%
X147899982Y-107400010D02*
X147900000Y-107399992D01*
X147000000Y-107400010D02*
X147899982Y-107400010D01*
X147000000Y-105699996D02*
X147000000Y-107400010D01*
X147200000Y-105499996D02*
X147000000Y-105699996D01*
X149000000Y-103700000D02*
X149300000Y-103700000D01*
X147200000Y-105500000D02*
X149000000Y-103700000D01*
X147200000Y-105499996D02*
X147200000Y-105500000D01*
D15*
%TO.N,/VBUS*%
X134500000Y-101000000D02*
X134500000Y-99800000D01*
X138800000Y-105300000D02*
X134500000Y-101000000D01*
X138800000Y-113600000D02*
X138800000Y-105300000D01*
D14*
%TO.N,/LED2*%
X129100000Y-99400000D02*
X129100000Y-108600000D01*
X134600000Y-93900000D02*
X129100000Y-99400000D01*
%TO.N,/LED3*%
X134600000Y-94600000D02*
X129700000Y-99500000D01*
X129700000Y-99500000D02*
X129700000Y-110700000D01*
%TO.N,/LED4*%
X134600000Y-95300000D02*
X130300000Y-99600000D01*
X130300000Y-99600000D02*
X130300000Y-112800000D01*
%TO.N,/LED1*%
X130900000Y-99700000D02*
X130900000Y-106500000D01*
X134600000Y-96000000D02*
X130900000Y-99700000D01*
%TO.N,/~SDN*%
X145599988Y-105900000D02*
X146399988Y-105100000D01*
X142700000Y-105900000D02*
X145599988Y-105900000D01*
X141900000Y-105100000D02*
X142700000Y-105900000D01*
X139800000Y-105100000D02*
X141900000Y-105100000D01*
X135300000Y-100600000D02*
X139800000Y-105100000D01*
X135300000Y-97499998D02*
X135300000Y-100600000D01*
%TO.N,/LOD*%
X142900005Y-105000005D02*
X144699999Y-105000005D01*
X142300000Y-104400000D02*
X142900005Y-105000005D01*
X142300000Y-96700000D02*
X142300000Y-104400000D01*
%TD*%
D16*
%TO.N,+1V8*%
X121325000Y-89203971D02*
X121325000Y-89396029D01*
X121362468Y-89584397D01*
X121435966Y-89761836D01*
X121542668Y-89921527D01*
X121678473Y-90057332D01*
X121838164Y-90164034D01*
X122015603Y-90237532D01*
X122203971Y-90275000D01*
X122396029Y-90275000D01*
X122584397Y-90237532D01*
X122761836Y-90164034D01*
X122921527Y-90057332D01*
X123057332Y-89921527D01*
X123164034Y-89761836D01*
X123237532Y-89584397D01*
X123275000Y-89396029D01*
X123275000Y-89203971D01*
X123269237Y-89175000D01*
X128330763Y-89175000D01*
X128325000Y-89203971D01*
X128325000Y-89396029D01*
X128362468Y-89584397D01*
X128435966Y-89761836D01*
X128542668Y-89921527D01*
X128678473Y-90057332D01*
X128838164Y-90164034D01*
X129015603Y-90237532D01*
X129203971Y-90275000D01*
X129396029Y-90275000D01*
X129584397Y-90237532D01*
X129761836Y-90164034D01*
X129921527Y-90057332D01*
X130057332Y-89921527D01*
X130164034Y-89761836D01*
X130237532Y-89584397D01*
X130275000Y-89396029D01*
X130275000Y-89203971D01*
X130269237Y-89175000D01*
X134330763Y-89175000D01*
X134325000Y-89203971D01*
X134325000Y-89396029D01*
X134362468Y-89584397D01*
X134435966Y-89761836D01*
X134542668Y-89921527D01*
X134678473Y-90057332D01*
X134838164Y-90164034D01*
X135015603Y-90237532D01*
X135203971Y-90275000D01*
X135396029Y-90275000D01*
X135584397Y-90237532D01*
X135761836Y-90164034D01*
X135921527Y-90057332D01*
X136057332Y-89921527D01*
X136164034Y-89761836D01*
X136237532Y-89584397D01*
X136275000Y-89396029D01*
X136275000Y-89203971D01*
X136269237Y-89175000D01*
X136425001Y-89175000D01*
X136425000Y-99866841D01*
X136421734Y-99900000D01*
X136434767Y-100032323D01*
X136473364Y-100159561D01*
X136536042Y-100276824D01*
X136620394Y-100379606D01*
X136692944Y-100439147D01*
X136723176Y-100463958D01*
X136840439Y-100526636D01*
X136967677Y-100565233D01*
X137100000Y-100578266D01*
X137133159Y-100575000D01*
X140378176Y-100575000D01*
X140335966Y-100638172D01*
X140262468Y-100815611D01*
X140225000Y-101003979D01*
X140225000Y-101196037D01*
X140262468Y-101384405D01*
X140335966Y-101561844D01*
X140442668Y-101721535D01*
X140578473Y-101857340D01*
X140738164Y-101964042D01*
X140915603Y-102037540D01*
X141103971Y-102075008D01*
X141296029Y-102075008D01*
X141484397Y-102037540D01*
X141550001Y-102010366D01*
X141550001Y-102555626D01*
X141396029Y-102525000D01*
X141203971Y-102525000D01*
X141015603Y-102562468D01*
X140838164Y-102635966D01*
X140678473Y-102742668D01*
X140542668Y-102878473D01*
X140435966Y-103038164D01*
X140362468Y-103215603D01*
X140325000Y-103403971D01*
X140325000Y-103596029D01*
X140362468Y-103784397D01*
X140435966Y-103961836D01*
X140542668Y-104121527D01*
X140678473Y-104257332D01*
X140817161Y-104350000D01*
X140110660Y-104350000D01*
X136050000Y-100289341D01*
X136050000Y-97426129D01*
X136042775Y-97389806D01*
X136039147Y-97352972D01*
X136028403Y-97317555D01*
X136021178Y-97281231D01*
X136007005Y-97247014D01*
X135996261Y-97211597D01*
X135978813Y-97178954D01*
X135964641Y-97144740D01*
X135944068Y-97113951D01*
X135926619Y-97081305D01*
X135903137Y-97052693D01*
X135882563Y-97021901D01*
X135856374Y-96995712D01*
X135832895Y-96967103D01*
X135804287Y-96943625D01*
X135778097Y-96917435D01*
X135747301Y-96896858D01*
X135718692Y-96873379D01*
X135686051Y-96855932D01*
X135655258Y-96835357D01*
X135621040Y-96821183D01*
X135588400Y-96803737D01*
X135552987Y-96792994D01*
X135518767Y-96778820D01*
X135482440Y-96771594D01*
X135447025Y-96760851D01*
X135410193Y-96757223D01*
X135373869Y-96749998D01*
X135336835Y-96749998D01*
X135300000Y-96746370D01*
X135263165Y-96749998D01*
X135226131Y-96749998D01*
X135189808Y-96757223D01*
X135152974Y-96760851D01*
X135117557Y-96771595D01*
X135081233Y-96778820D01*
X135047016Y-96792993D01*
X135011599Y-96803737D01*
X134978956Y-96821185D01*
X134944742Y-96835357D01*
X134913953Y-96855930D01*
X134881307Y-96873379D01*
X134852695Y-96896861D01*
X134821903Y-96917435D01*
X134795714Y-96943624D01*
X134767105Y-96967103D01*
X134743627Y-96995711D01*
X134717437Y-97021901D01*
X134696860Y-97052697D01*
X134673381Y-97081306D01*
X134655934Y-97113947D01*
X134635359Y-97144740D01*
X134621185Y-97178958D01*
X134603739Y-97211598D01*
X134592996Y-97247011D01*
X134578822Y-97281231D01*
X134571596Y-97317558D01*
X134560853Y-97352973D01*
X134557225Y-97389805D01*
X134550000Y-97426129D01*
X134550000Y-98825000D01*
X134403971Y-98825000D01*
X134215603Y-98862468D01*
X134038164Y-98935966D01*
X133878473Y-99042668D01*
X133742668Y-99178473D01*
X133635966Y-99338164D01*
X133562468Y-99515603D01*
X133525000Y-99703971D01*
X133525000Y-99896029D01*
X133562468Y-100084397D01*
X133635966Y-100261836D01*
X133675001Y-100320255D01*
X133675000Y-100959486D01*
X133671010Y-101000000D01*
X133675000Y-101040513D01*
X133675000Y-101040520D01*
X133686938Y-101161727D01*
X133734112Y-101317240D01*
X133810719Y-101460562D01*
X133913815Y-101586185D01*
X133945296Y-101612021D01*
X137975001Y-105641727D01*
X137975000Y-113079745D01*
X137935966Y-113138164D01*
X137862468Y-113315603D01*
X137825000Y-113503971D01*
X137825000Y-113696029D01*
X137862468Y-113884397D01*
X137935966Y-114061836D01*
X138042668Y-114221527D01*
X138178473Y-114357332D01*
X138338164Y-114464034D01*
X138515603Y-114537532D01*
X138703971Y-114575000D01*
X138896029Y-114575000D01*
X139084397Y-114537532D01*
X139261836Y-114464034D01*
X139421527Y-114357332D01*
X139557332Y-114221527D01*
X139664034Y-114061836D01*
X139737532Y-113884397D01*
X139775000Y-113696029D01*
X139775000Y-113554001D01*
X141020282Y-113554001D01*
X141039107Y-113745134D01*
X141094859Y-113928922D01*
X141185394Y-114098303D01*
X141307234Y-114246766D01*
X141455697Y-114368606D01*
X141625078Y-114459141D01*
X141808866Y-114514893D01*
X141952107Y-114529001D01*
X142247891Y-114529001D01*
X142391132Y-114514893D01*
X142496139Y-114483039D01*
X142546363Y-114544238D01*
X142733503Y-114697819D01*
X142947009Y-114811940D01*
X143178676Y-114882216D01*
X143419601Y-114905945D01*
X143660527Y-114882216D01*
X143892194Y-114811940D01*
X144105700Y-114697819D01*
X144292840Y-114544238D01*
X144446421Y-114357098D01*
X144560542Y-114143592D01*
X144630818Y-113911925D01*
X144648601Y-113731370D01*
X144648601Y-112610628D01*
X144630818Y-112430073D01*
X144560542Y-112198406D01*
X144456615Y-112003971D01*
X149725000Y-112003971D01*
X149725000Y-112196029D01*
X149762468Y-112384397D01*
X149835966Y-112561836D01*
X149942668Y-112721527D01*
X150078473Y-112857332D01*
X150238164Y-112964034D01*
X150415603Y-113037532D01*
X150603971Y-113075000D01*
X150796029Y-113075000D01*
X150984397Y-113037532D01*
X151161836Y-112964034D01*
X151321527Y-112857332D01*
X151457332Y-112721527D01*
X151564034Y-112561836D01*
X151637532Y-112384397D01*
X151675000Y-112196029D01*
X151675000Y-112003971D01*
X151637532Y-111815603D01*
X151564034Y-111638164D01*
X151457332Y-111478473D01*
X151321527Y-111342668D01*
X151161836Y-111235966D01*
X150984397Y-111162468D01*
X150796029Y-111125000D01*
X150603971Y-111125000D01*
X150415603Y-111162468D01*
X150238164Y-111235966D01*
X150078473Y-111342668D01*
X149942668Y-111478473D01*
X149835966Y-111638164D01*
X149762468Y-111815603D01*
X149725000Y-112003971D01*
X144456615Y-112003971D01*
X144446421Y-111984900D01*
X144292840Y-111797760D01*
X144105699Y-111644179D01*
X143892193Y-111530058D01*
X143660526Y-111459782D01*
X143419601Y-111436053D01*
X143178675Y-111459782D01*
X143161269Y-111465062D01*
X143175000Y-111396029D01*
X143175000Y-111203971D01*
X143137532Y-111015603D01*
X143064034Y-110838164D01*
X142957332Y-110678473D01*
X142821527Y-110542668D01*
X142661836Y-110435966D01*
X142484397Y-110362468D01*
X142296029Y-110325000D01*
X142103971Y-110325000D01*
X141915603Y-110362468D01*
X141738164Y-110435966D01*
X141578473Y-110542668D01*
X141442668Y-110678473D01*
X141335966Y-110838164D01*
X141262468Y-111015603D01*
X141225000Y-111203971D01*
X141225000Y-111396029D01*
X141262468Y-111584397D01*
X141335966Y-111761836D01*
X141442668Y-111921527D01*
X141578473Y-112057332D01*
X141738164Y-112164034D01*
X141915603Y-112237532D01*
X142103971Y-112275000D01*
X142255426Y-112275000D01*
X142208384Y-112430074D01*
X142193716Y-112579001D01*
X141952107Y-112579001D01*
X141808866Y-112593109D01*
X141625078Y-112648861D01*
X141455697Y-112739396D01*
X141307234Y-112861236D01*
X141185394Y-113009699D01*
X141094859Y-113179080D01*
X141039107Y-113362868D01*
X141020282Y-113554001D01*
X139775000Y-113554001D01*
X139775000Y-113503971D01*
X139737532Y-113315603D01*
X139664034Y-113138164D01*
X139625000Y-113079745D01*
X139625000Y-109403971D01*
X140325000Y-109403971D01*
X140325000Y-109596029D01*
X140362468Y-109784397D01*
X140435966Y-109961836D01*
X140542668Y-110121527D01*
X140678473Y-110257332D01*
X140838164Y-110364034D01*
X141015603Y-110437532D01*
X141203971Y-110475000D01*
X141396029Y-110475000D01*
X141584397Y-110437532D01*
X141761836Y-110364034D01*
X141921527Y-110257332D01*
X142057332Y-110121527D01*
X142164034Y-109961836D01*
X142237532Y-109784397D01*
X142275000Y-109596029D01*
X142275000Y-109403971D01*
X142237532Y-109215603D01*
X142164034Y-109038164D01*
X142057332Y-108878473D01*
X141921527Y-108742668D01*
X141761836Y-108635966D01*
X141584397Y-108562468D01*
X141396029Y-108525000D01*
X141203971Y-108525000D01*
X141015603Y-108562468D01*
X140838164Y-108635966D01*
X140678473Y-108742668D01*
X140542668Y-108878473D01*
X140435966Y-109038164D01*
X140362468Y-109215603D01*
X140325000Y-109403971D01*
X139625000Y-109403971D01*
X139625000Y-105830661D01*
X139652974Y-105839147D01*
X139763165Y-105850000D01*
X139763172Y-105850000D01*
X139799999Y-105853627D01*
X139836827Y-105850000D01*
X140571141Y-105850000D01*
X140542668Y-105878473D01*
X140435966Y-106038164D01*
X140362468Y-106215603D01*
X140325000Y-106403971D01*
X140325000Y-106596029D01*
X140362468Y-106784397D01*
X140435966Y-106961836D01*
X140542668Y-107121527D01*
X140678473Y-107257332D01*
X140838164Y-107364034D01*
X141015603Y-107437532D01*
X141203971Y-107475000D01*
X141396029Y-107475000D01*
X141584397Y-107437532D01*
X141761836Y-107364034D01*
X141921527Y-107257332D01*
X142057332Y-107121527D01*
X142164034Y-106961836D01*
X142237532Y-106784397D01*
X142275000Y-106596029D01*
X142275000Y-106521443D01*
X142281307Y-106526619D01*
X142411599Y-106596261D01*
X142552974Y-106639147D01*
X142663165Y-106650000D01*
X142663172Y-106650000D01*
X142700000Y-106653627D01*
X142736827Y-106650000D01*
X145361743Y-106650000D01*
X145360835Y-106652992D01*
X145349982Y-106763183D01*
X145349982Y-106763191D01*
X145346355Y-106800018D01*
X145349982Y-106836845D01*
X145349982Y-107673869D01*
X145357207Y-107710193D01*
X145360835Y-107747025D01*
X145371578Y-107782440D01*
X145378804Y-107818767D01*
X145392978Y-107852987D01*
X145403721Y-107888400D01*
X145421167Y-107921040D01*
X145435341Y-107955258D01*
X145455916Y-107986051D01*
X145473363Y-108018692D01*
X145496842Y-108047301D01*
X145517419Y-108078097D01*
X145543609Y-108104287D01*
X145567087Y-108132895D01*
X145595696Y-108156374D01*
X145621885Y-108182563D01*
X145652677Y-108203137D01*
X145681289Y-108226619D01*
X145713935Y-108244068D01*
X145744724Y-108264641D01*
X145778938Y-108278813D01*
X145811581Y-108296261D01*
X145846998Y-108307005D01*
X145881215Y-108321178D01*
X145917539Y-108328403D01*
X145952956Y-108339147D01*
X145989790Y-108342775D01*
X146026113Y-108350000D01*
X146063147Y-108350000D01*
X146099982Y-108353628D01*
X146136817Y-108350000D01*
X146173851Y-108350000D01*
X146210175Y-108342775D01*
X146247007Y-108339147D01*
X146282422Y-108328404D01*
X146318749Y-108321178D01*
X146352969Y-108307004D01*
X146388382Y-108296261D01*
X146421022Y-108278815D01*
X146455240Y-108264641D01*
X146486033Y-108244066D01*
X146518674Y-108226619D01*
X146547283Y-108203140D01*
X146578079Y-108182563D01*
X146604269Y-108156373D01*
X146632877Y-108132895D01*
X146656356Y-108104286D01*
X146680822Y-108079820D01*
X146711599Y-108096271D01*
X146747016Y-108107015D01*
X146781233Y-108121188D01*
X146817557Y-108128413D01*
X146852974Y-108139157D01*
X146889808Y-108142785D01*
X146926131Y-108150010D01*
X146963165Y-108150010D01*
X147000000Y-108153638D01*
X147036835Y-108150010D01*
X147863155Y-108150010D01*
X147899982Y-108153637D01*
X147936809Y-108150010D01*
X147936817Y-108150010D01*
X147937000Y-108149992D01*
X147973869Y-108149992D01*
X148010031Y-108142799D01*
X148047008Y-108139157D01*
X148082563Y-108128371D01*
X148118767Y-108121170D01*
X148152871Y-108107044D01*
X148188383Y-108096271D01*
X148221114Y-108078776D01*
X148255258Y-108064633D01*
X148285985Y-108044102D01*
X148318675Y-108026629D01*
X148347327Y-108003115D01*
X148378097Y-107982555D01*
X148399996Y-107960656D01*
X148443636Y-108004297D01*
X148467111Y-108032901D01*
X148495714Y-108056375D01*
X148495721Y-108056382D01*
X148569931Y-108117284D01*
X148581313Y-108126625D01*
X148711605Y-108196267D01*
X148852980Y-108239153D01*
X148963171Y-108250006D01*
X148963180Y-108250006D01*
X149000005Y-108253633D01*
X149036830Y-108250006D01*
X149473869Y-108250006D01*
X149510192Y-108242781D01*
X149547026Y-108239153D01*
X149582443Y-108228409D01*
X149618767Y-108221184D01*
X149652984Y-108207011D01*
X149688401Y-108196267D01*
X149721044Y-108178819D01*
X149755258Y-108164647D01*
X149786047Y-108144074D01*
X149818693Y-108126625D01*
X149847305Y-108103143D01*
X149878097Y-108082569D01*
X149904286Y-108056380D01*
X149932895Y-108032901D01*
X149956374Y-108004292D01*
X149982563Y-107978103D01*
X150003137Y-107947311D01*
X150026619Y-107918699D01*
X150044068Y-107886053D01*
X150064641Y-107855264D01*
X150078813Y-107821050D01*
X150087941Y-107803971D01*
X150425000Y-107803971D01*
X150425000Y-107996029D01*
X150462468Y-108184397D01*
X150535966Y-108361836D01*
X150642668Y-108521527D01*
X150778473Y-108657332D01*
X150938164Y-108764034D01*
X151115603Y-108837532D01*
X151303971Y-108875000D01*
X151496029Y-108875000D01*
X151684397Y-108837532D01*
X151861836Y-108764034D01*
X152021527Y-108657332D01*
X152157332Y-108521527D01*
X152264034Y-108361836D01*
X152337532Y-108184397D01*
X152375000Y-107996029D01*
X152375000Y-107803971D01*
X152337532Y-107615603D01*
X152264034Y-107438164D01*
X152157332Y-107278473D01*
X152082830Y-107203971D01*
X156825000Y-107203971D01*
X156825000Y-107396029D01*
X156862468Y-107584397D01*
X156935966Y-107761836D01*
X157042668Y-107921527D01*
X157178473Y-108057332D01*
X157338164Y-108164034D01*
X157515603Y-108237532D01*
X157703971Y-108275000D01*
X157896029Y-108275000D01*
X158084397Y-108237532D01*
X158261836Y-108164034D01*
X158421527Y-108057332D01*
X158557332Y-107921527D01*
X158664034Y-107761836D01*
X158737532Y-107584397D01*
X158775000Y-107396029D01*
X158775000Y-107203971D01*
X158737532Y-107015603D01*
X158664034Y-106838164D01*
X158557332Y-106678473D01*
X158421527Y-106542668D01*
X158261836Y-106435966D01*
X158084397Y-106362468D01*
X157896029Y-106325000D01*
X157703971Y-106325000D01*
X157515603Y-106362468D01*
X157338164Y-106435966D01*
X157178473Y-106542668D01*
X157042668Y-106678473D01*
X156935966Y-106838164D01*
X156862468Y-107015603D01*
X156825000Y-107203971D01*
X152082830Y-107203971D01*
X152021527Y-107142668D01*
X151861836Y-107035966D01*
X151684397Y-106962468D01*
X151496029Y-106925000D01*
X151303971Y-106925000D01*
X151115603Y-106962468D01*
X150938164Y-107035966D01*
X150778473Y-107142668D01*
X150642668Y-107278473D01*
X150535966Y-107438164D01*
X150462468Y-107615603D01*
X150425000Y-107803971D01*
X150087941Y-107803971D01*
X150096261Y-107788407D01*
X150107005Y-107752990D01*
X150121178Y-107718773D01*
X150128403Y-107682449D01*
X150139147Y-107647032D01*
X150142775Y-107610198D01*
X150150000Y-107573875D01*
X150150000Y-107536841D01*
X150153628Y-107500006D01*
X150150000Y-107463171D01*
X150150000Y-107426137D01*
X150142775Y-107389814D01*
X150139147Y-107352980D01*
X150128403Y-107317563D01*
X150121178Y-107281239D01*
X150107005Y-107247022D01*
X150096261Y-107211605D01*
X150078813Y-107178962D01*
X150064641Y-107144748D01*
X150044068Y-107113959D01*
X150026619Y-107081313D01*
X150003137Y-107052701D01*
X149982563Y-107021909D01*
X149956374Y-106995720D01*
X149932895Y-106967111D01*
X149914701Y-106952179D01*
X149936827Y-106950000D01*
X149936835Y-106950000D01*
X150047026Y-106939147D01*
X150188401Y-106896261D01*
X150318693Y-106826619D01*
X150432895Y-106732895D01*
X150456379Y-106704280D01*
X150878094Y-106282565D01*
X150878097Y-106282563D01*
X150982563Y-106178097D01*
X151003138Y-106147304D01*
X151026619Y-106118693D01*
X151044068Y-106086047D01*
X151064641Y-106055258D01*
X151078813Y-106021044D01*
X151096261Y-105988401D01*
X151107005Y-105952984D01*
X151121178Y-105918767D01*
X151128403Y-105882443D01*
X151139147Y-105847026D01*
X151139612Y-105842308D01*
X151303971Y-105875000D01*
X151496029Y-105875000D01*
X151684397Y-105837532D01*
X151861836Y-105764034D01*
X152021527Y-105657332D01*
X152157332Y-105521527D01*
X152264034Y-105361836D01*
X152337532Y-105184397D01*
X152375000Y-104996029D01*
X152375000Y-104803971D01*
X152337532Y-104615603D01*
X152264034Y-104438164D01*
X152157332Y-104278473D01*
X152021527Y-104142668D01*
X151861836Y-104035966D01*
X151684397Y-103962468D01*
X151496029Y-103925000D01*
X151303971Y-103925000D01*
X151115603Y-103962468D01*
X150938164Y-104035966D01*
X150778473Y-104142668D01*
X150642668Y-104278473D01*
X150535966Y-104438164D01*
X150462468Y-104615603D01*
X150425000Y-104803971D01*
X150425000Y-104948835D01*
X150400000Y-104946373D01*
X150363172Y-104950000D01*
X150326131Y-104950000D01*
X150289805Y-104957226D01*
X150252974Y-104960853D01*
X150217557Y-104971597D01*
X150181233Y-104978822D01*
X150147016Y-104992995D01*
X150111599Y-105003739D01*
X150078956Y-105021187D01*
X150044742Y-105035359D01*
X150013953Y-105055932D01*
X149981307Y-105073381D01*
X149952696Y-105096862D01*
X149921903Y-105117437D01*
X149817437Y-105221903D01*
X149817435Y-105221906D01*
X149589341Y-105450000D01*
X148726131Y-105450000D01*
X148689808Y-105457225D01*
X148652974Y-105460853D01*
X148617557Y-105471597D01*
X148581233Y-105478822D01*
X148547016Y-105492995D01*
X148511599Y-105503739D01*
X148478956Y-105521187D01*
X148444742Y-105535359D01*
X148413953Y-105555932D01*
X148381307Y-105573381D01*
X148352695Y-105596863D01*
X148350000Y-105598663D01*
X148350000Y-105426131D01*
X148347433Y-105413227D01*
X149310661Y-104450000D01*
X149373869Y-104450000D01*
X149410192Y-104442775D01*
X149447026Y-104439147D01*
X149482443Y-104428403D01*
X149518767Y-104421178D01*
X149552984Y-104407005D01*
X149588401Y-104396261D01*
X149621044Y-104378813D01*
X149655258Y-104364641D01*
X149686047Y-104344068D01*
X149718693Y-104326619D01*
X149747305Y-104303137D01*
X149778097Y-104282563D01*
X149804286Y-104256374D01*
X149832895Y-104232895D01*
X149856375Y-104204285D01*
X149882563Y-104178097D01*
X149903137Y-104147305D01*
X149926619Y-104118693D01*
X149944068Y-104086047D01*
X149964641Y-104055258D01*
X149978813Y-104021044D01*
X149996261Y-103988401D01*
X150007005Y-103952984D01*
X150021178Y-103918767D01*
X150028403Y-103882443D01*
X150039147Y-103847026D01*
X150042775Y-103810192D01*
X150050000Y-103773869D01*
X150050000Y-103736835D01*
X150053628Y-103700000D01*
X150050000Y-103663165D01*
X150050000Y-103626131D01*
X150042775Y-103589808D01*
X150039147Y-103552974D01*
X150028403Y-103517557D01*
X150021178Y-103481233D01*
X150007005Y-103447016D01*
X149996261Y-103411599D01*
X149978813Y-103378956D01*
X149964641Y-103344742D01*
X149944068Y-103313953D01*
X149926619Y-103281307D01*
X149903137Y-103252695D01*
X149882563Y-103221903D01*
X149856374Y-103195714D01*
X149832895Y-103167105D01*
X149804284Y-103143624D01*
X149778097Y-103117437D01*
X149747305Y-103096863D01*
X149718693Y-103073381D01*
X149686047Y-103055932D01*
X149655258Y-103035359D01*
X149621044Y-103021187D01*
X149588401Y-103003739D01*
X149552984Y-102992995D01*
X149518767Y-102978822D01*
X149482443Y-102971597D01*
X149447026Y-102960853D01*
X149410192Y-102957225D01*
X149373869Y-102950000D01*
X149036824Y-102950000D01*
X148999999Y-102946373D01*
X148963174Y-102950000D01*
X148963165Y-102950000D01*
X148852974Y-102960853D01*
X148799717Y-102977008D01*
X148807005Y-102952984D01*
X148821178Y-102918767D01*
X148828403Y-102882443D01*
X148839147Y-102847026D01*
X148842774Y-102810195D01*
X148850000Y-102773869D01*
X148850000Y-102736828D01*
X148853627Y-102700000D01*
X148850000Y-102663172D01*
X148850000Y-102626131D01*
X148842774Y-102589805D01*
X148839147Y-102552974D01*
X148828403Y-102517558D01*
X148821178Y-102481233D01*
X148807004Y-102447014D01*
X148796261Y-102411600D01*
X148778814Y-102378959D01*
X148764641Y-102344742D01*
X148744068Y-102313952D01*
X148726619Y-102281307D01*
X148703137Y-102252695D01*
X148682563Y-102221903D01*
X148656374Y-102195714D01*
X148632895Y-102167105D01*
X148604284Y-102143624D01*
X148578097Y-102117437D01*
X148547305Y-102096863D01*
X148518693Y-102073381D01*
X148486048Y-102055932D01*
X148455258Y-102035359D01*
X148421041Y-102021186D01*
X148388400Y-102003739D01*
X148352986Y-101992996D01*
X148318767Y-101978822D01*
X148282442Y-101971597D01*
X148247026Y-101960853D01*
X148235303Y-101959698D01*
X148239147Y-101947026D01*
X148242774Y-101910195D01*
X148250000Y-101873869D01*
X148250000Y-101836828D01*
X148253627Y-101800000D01*
X148250000Y-101763173D01*
X148250000Y-101726131D01*
X148242774Y-101689805D01*
X148239147Y-101652975D01*
X148228404Y-101617560D01*
X148221178Y-101581233D01*
X148207004Y-101547013D01*
X148196261Y-101511600D01*
X148178815Y-101478960D01*
X148164641Y-101444742D01*
X148144066Y-101413949D01*
X148126619Y-101381308D01*
X148103240Y-101352821D01*
X148164034Y-101261836D01*
X148237532Y-101084397D01*
X148275000Y-100896029D01*
X148275000Y-100703971D01*
X148237532Y-100515603D01*
X148164034Y-100338164D01*
X148057332Y-100178473D01*
X147921527Y-100042668D01*
X147761836Y-99935966D01*
X147584397Y-99862468D01*
X147396029Y-99825000D01*
X147203971Y-99825000D01*
X147015603Y-99862468D01*
X146838164Y-99935966D01*
X146678473Y-100042668D01*
X146542668Y-100178473D01*
X146435966Y-100338164D01*
X146362468Y-100515603D01*
X146325000Y-100703971D01*
X146325000Y-100896029D01*
X146362468Y-101084397D01*
X146435966Y-101261836D01*
X146542668Y-101421527D01*
X146678473Y-101557332D01*
X146680592Y-101558748D01*
X146195715Y-102043626D01*
X146167106Y-102067105D01*
X146143627Y-102095714D01*
X146143624Y-102095717D01*
X146125799Y-102117437D01*
X146112500Y-102133641D01*
X146021527Y-102042668D01*
X145861836Y-101935966D01*
X145684397Y-101862468D01*
X145496029Y-101825000D01*
X145303971Y-101825000D01*
X145115603Y-101862468D01*
X144938164Y-101935966D01*
X144850000Y-101994875D01*
X144761836Y-101935966D01*
X144584397Y-101862468D01*
X144396029Y-101825000D01*
X144203971Y-101825000D01*
X144015603Y-101862468D01*
X143838164Y-101935966D01*
X143678473Y-102042668D01*
X143542668Y-102178473D01*
X143435966Y-102338164D01*
X143362468Y-102515603D01*
X143325000Y-102703971D01*
X143325000Y-102896029D01*
X143362468Y-103084397D01*
X143435966Y-103261836D01*
X143542668Y-103421527D01*
X143678473Y-103557332D01*
X143838164Y-103664034D01*
X144015603Y-103737532D01*
X144203971Y-103775000D01*
X144396029Y-103775000D01*
X144584397Y-103737532D01*
X144761836Y-103664034D01*
X144850000Y-103605125D01*
X144938164Y-103664034D01*
X145115603Y-103737532D01*
X145303971Y-103775000D01*
X145385348Y-103775000D01*
X145238164Y-103835966D01*
X145078473Y-103942668D01*
X144942668Y-104078473D01*
X144835966Y-104238164D01*
X144827368Y-104258922D01*
X144810191Y-104257230D01*
X144773868Y-104250005D01*
X143210665Y-104250005D01*
X143050000Y-104089341D01*
X143050000Y-98464265D01*
X143103971Y-98475000D01*
X143296029Y-98475000D01*
X143484397Y-98437532D01*
X143661836Y-98364034D01*
X143821527Y-98257332D01*
X143957332Y-98121527D01*
X144064034Y-97961836D01*
X144137532Y-97784397D01*
X144175000Y-97596029D01*
X144175000Y-97403971D01*
X144137532Y-97215603D01*
X144064034Y-97038164D01*
X143957332Y-96878473D01*
X143821527Y-96742668D01*
X143661836Y-96635966D01*
X143484397Y-96562468D01*
X143296029Y-96525000D01*
X143103971Y-96525000D01*
X143034833Y-96538752D01*
X143028403Y-96517557D01*
X143021178Y-96481233D01*
X143007005Y-96447016D01*
X142996261Y-96411599D01*
X142978813Y-96378956D01*
X142964641Y-96344742D01*
X142944068Y-96313953D01*
X142926619Y-96281307D01*
X142903137Y-96252695D01*
X142882563Y-96221903D01*
X142856374Y-96195714D01*
X142832895Y-96167105D01*
X142804287Y-96143627D01*
X142778097Y-96117437D01*
X142747301Y-96096860D01*
X142718692Y-96073381D01*
X142686051Y-96055934D01*
X142655258Y-96035359D01*
X142621040Y-96021185D01*
X142588400Y-96003739D01*
X142552987Y-95992996D01*
X142518767Y-95978822D01*
X142482440Y-95971596D01*
X142447025Y-95960853D01*
X142410193Y-95957225D01*
X142373869Y-95950000D01*
X142336835Y-95950000D01*
X142300000Y-95946372D01*
X142263165Y-95950000D01*
X142226131Y-95950000D01*
X142189808Y-95957225D01*
X142152974Y-95960853D01*
X142117557Y-95971597D01*
X142081233Y-95978822D01*
X142047016Y-95992995D01*
X142011599Y-96003739D01*
X141978956Y-96021187D01*
X141944742Y-96035359D01*
X141913953Y-96055932D01*
X141881307Y-96073381D01*
X141875000Y-96078557D01*
X141875000Y-92603971D01*
X142225000Y-92603971D01*
X142225000Y-92796029D01*
X142262468Y-92984397D01*
X142335966Y-93161836D01*
X142442668Y-93321527D01*
X142578473Y-93457332D01*
X142738164Y-93564034D01*
X142915603Y-93637532D01*
X143103971Y-93675000D01*
X143296029Y-93675000D01*
X143484397Y-93637532D01*
X143661836Y-93564034D01*
X143821527Y-93457332D01*
X143957332Y-93321527D01*
X144064034Y-93161836D01*
X144137532Y-92984397D01*
X144175000Y-92796029D01*
X144175000Y-92603971D01*
X144137532Y-92415603D01*
X144064034Y-92238164D01*
X143957332Y-92078473D01*
X143821527Y-91942668D01*
X143661836Y-91835966D01*
X143484397Y-91762468D01*
X143296029Y-91725000D01*
X143103971Y-91725000D01*
X142915603Y-91762468D01*
X142738164Y-91835966D01*
X142578473Y-91942668D01*
X142442668Y-92078473D01*
X142335966Y-92238164D01*
X142262468Y-92415603D01*
X142225000Y-92603971D01*
X141875000Y-92603971D01*
X141875000Y-89175000D01*
X142230763Y-89175000D01*
X142225000Y-89203971D01*
X142225000Y-89396029D01*
X142262468Y-89584397D01*
X142335966Y-89761836D01*
X142442668Y-89921527D01*
X142578473Y-90057332D01*
X142738164Y-90164034D01*
X142915603Y-90237532D01*
X143103971Y-90275000D01*
X143296029Y-90275000D01*
X143484397Y-90237532D01*
X143661836Y-90164034D01*
X143821527Y-90057332D01*
X143957332Y-89921527D01*
X144064034Y-89761836D01*
X144137532Y-89584397D01*
X144175000Y-89396029D01*
X144175000Y-89203971D01*
X144169237Y-89175000D01*
X148879745Y-89175000D01*
X148778473Y-89242668D01*
X148642668Y-89378473D01*
X148535966Y-89538164D01*
X148462468Y-89715603D01*
X148431696Y-89870306D01*
X148272802Y-89838700D01*
X148047198Y-89838700D01*
X147825928Y-89882713D01*
X147617497Y-89969048D01*
X147429914Y-90094387D01*
X147270387Y-90253914D01*
X147145048Y-90441497D01*
X147058713Y-90649928D01*
X147014700Y-90871198D01*
X147014700Y-91096802D01*
X147058713Y-91318072D01*
X147145048Y-91526503D01*
X147270387Y-91714086D01*
X147429914Y-91873613D01*
X147617497Y-91998952D01*
X147620027Y-92000000D01*
X147617497Y-92001048D01*
X147429914Y-92126387D01*
X147270387Y-92285914D01*
X147145048Y-92473497D01*
X147058713Y-92681928D01*
X147014700Y-92903198D01*
X147014700Y-93128802D01*
X147058713Y-93350072D01*
X147145048Y-93558503D01*
X147270387Y-93746086D01*
X147429914Y-93905613D01*
X147617497Y-94030952D01*
X147825928Y-94117287D01*
X148047198Y-94161300D01*
X148272802Y-94161300D01*
X148494072Y-94117287D01*
X148702503Y-94030952D01*
X148890086Y-93905613D01*
X149049613Y-93746086D01*
X149174952Y-93558503D01*
X149261287Y-93350072D01*
X149305300Y-93128802D01*
X149305300Y-92903198D01*
X149261287Y-92681928D01*
X149174952Y-92473497D01*
X149049613Y-92285914D01*
X148890086Y-92126387D01*
X148702503Y-92001048D01*
X148699973Y-92000000D01*
X148702503Y-91998952D01*
X148869754Y-91887198D01*
X152094700Y-91887198D01*
X152094700Y-92112802D01*
X152138713Y-92334072D01*
X152225048Y-92542503D01*
X152350387Y-92730086D01*
X152509914Y-92889613D01*
X152697497Y-93014952D01*
X152905928Y-93101287D01*
X153127198Y-93145300D01*
X153352802Y-93145300D01*
X153574072Y-93101287D01*
X153782503Y-93014952D01*
X153970086Y-92889613D01*
X154129613Y-92730086D01*
X154254952Y-92542503D01*
X154341287Y-92334072D01*
X154385300Y-92112802D01*
X154385300Y-91887198D01*
X154341287Y-91665928D01*
X154254952Y-91457497D01*
X154129613Y-91269914D01*
X153970086Y-91110387D01*
X153782503Y-90985048D01*
X153574072Y-90898713D01*
X153352802Y-90854700D01*
X153127198Y-90854700D01*
X152905928Y-90898713D01*
X152697497Y-90985048D01*
X152509914Y-91110387D01*
X152350387Y-91269914D01*
X152225048Y-91457497D01*
X152138713Y-91665928D01*
X152094700Y-91887198D01*
X148869754Y-91887198D01*
X148890086Y-91873613D01*
X149049613Y-91714086D01*
X149174952Y-91526503D01*
X149261287Y-91318072D01*
X149305300Y-91096802D01*
X149305300Y-90975000D01*
X149496029Y-90975000D01*
X149684397Y-90937532D01*
X149861836Y-90864034D01*
X150021527Y-90757332D01*
X150157332Y-90621527D01*
X150264034Y-90461836D01*
X150337532Y-90284397D01*
X150375000Y-90096029D01*
X150375000Y-89903971D01*
X150337532Y-89715603D01*
X150264034Y-89538164D01*
X150157332Y-89378473D01*
X150021527Y-89242668D01*
X149920255Y-89175000D01*
X154125000Y-89175000D01*
X154125000Y-89296029D01*
X154162468Y-89484397D01*
X154235966Y-89661836D01*
X154342668Y-89821527D01*
X154478473Y-89957332D01*
X154638164Y-90064034D01*
X154815603Y-90137532D01*
X155003971Y-90175000D01*
X155196029Y-90175000D01*
X155384397Y-90137532D01*
X155561836Y-90064034D01*
X155721527Y-89957332D01*
X155857332Y-89821527D01*
X155964034Y-89661836D01*
X156037532Y-89484397D01*
X156075000Y-89296029D01*
X156075000Y-89175000D01*
X158850000Y-89175000D01*
X158850000Y-91778285D01*
X158837532Y-91715603D01*
X158764034Y-91538164D01*
X158657332Y-91378473D01*
X158521527Y-91242668D01*
X158361836Y-91135966D01*
X158184397Y-91062468D01*
X157996029Y-91025000D01*
X157803971Y-91025000D01*
X157615603Y-91062468D01*
X157438164Y-91135966D01*
X157278473Y-91242668D01*
X157142668Y-91378473D01*
X157035966Y-91538164D01*
X156962468Y-91715603D01*
X156925000Y-91903971D01*
X156925000Y-92096029D01*
X156962468Y-92284397D01*
X157035966Y-92461836D01*
X157142668Y-92621527D01*
X157278473Y-92757332D01*
X157438164Y-92864034D01*
X157615603Y-92937532D01*
X157803971Y-92975000D01*
X157996029Y-92975000D01*
X158184397Y-92937532D01*
X158361836Y-92864034D01*
X158521527Y-92757332D01*
X158657332Y-92621527D01*
X158764034Y-92461836D01*
X158837532Y-92284397D01*
X158850000Y-92221715D01*
X158850000Y-99478285D01*
X158837532Y-99415603D01*
X158764034Y-99238164D01*
X158657332Y-99078473D01*
X158521527Y-98942668D01*
X158361836Y-98835966D01*
X158184397Y-98762468D01*
X157996029Y-98725000D01*
X157803971Y-98725000D01*
X157615603Y-98762468D01*
X157438164Y-98835966D01*
X157278473Y-98942668D01*
X157142668Y-99078473D01*
X157035966Y-99238164D01*
X156962468Y-99415603D01*
X156925000Y-99603971D01*
X156925000Y-99796029D01*
X156962468Y-99984397D01*
X157035966Y-100161836D01*
X157142668Y-100321527D01*
X157278473Y-100457332D01*
X157438164Y-100564034D01*
X157615603Y-100637532D01*
X157803971Y-100675000D01*
X157996029Y-100675000D01*
X158184397Y-100637532D01*
X158361836Y-100564034D01*
X158521527Y-100457332D01*
X158657332Y-100321527D01*
X158764034Y-100161836D01*
X158837532Y-99984397D01*
X158850000Y-99921715D01*
X158850000Y-118025000D01*
X156220714Y-118025000D01*
X156237532Y-117984397D01*
X156275000Y-117796029D01*
X156275000Y-117603971D01*
X156237532Y-117415603D01*
X156164034Y-117238164D01*
X156057332Y-117078473D01*
X155921527Y-116942668D01*
X155761836Y-116835966D01*
X155584397Y-116762468D01*
X155396029Y-116725000D01*
X155203971Y-116725000D01*
X155015603Y-116762468D01*
X154838164Y-116835966D01*
X154678473Y-116942668D01*
X154542668Y-117078473D01*
X154435966Y-117238164D01*
X154362468Y-117415603D01*
X154325000Y-117603971D01*
X154325000Y-117796029D01*
X154362468Y-117984397D01*
X154379286Y-118025000D01*
X148220714Y-118025000D01*
X148237532Y-117984397D01*
X148275000Y-117796029D01*
X148275000Y-117603971D01*
X148237532Y-117415603D01*
X148164034Y-117238164D01*
X148057332Y-117078473D01*
X147921527Y-116942668D01*
X147761836Y-116835966D01*
X147584397Y-116762468D01*
X147396029Y-116725000D01*
X147203971Y-116725000D01*
X147015603Y-116762468D01*
X146838164Y-116835966D01*
X146678473Y-116942668D01*
X146542668Y-117078473D01*
X146435966Y-117238164D01*
X146362468Y-117415603D01*
X146325000Y-117603971D01*
X146325000Y-117796029D01*
X146362468Y-117984397D01*
X146379286Y-118025000D01*
X144589333Y-118025000D01*
X144631218Y-117886926D01*
X144649001Y-117706371D01*
X144649001Y-116285629D01*
X144631218Y-116105074D01*
X144560942Y-115873407D01*
X144446821Y-115659901D01*
X144293240Y-115472761D01*
X144209419Y-115403971D01*
X156825000Y-115403971D01*
X156825000Y-115596029D01*
X156862468Y-115784397D01*
X156935966Y-115961836D01*
X157042668Y-116121527D01*
X157178473Y-116257332D01*
X157338164Y-116364034D01*
X157515603Y-116437532D01*
X157703971Y-116475000D01*
X157896029Y-116475000D01*
X158084397Y-116437532D01*
X158261836Y-116364034D01*
X158421527Y-116257332D01*
X158557332Y-116121527D01*
X158664034Y-115961836D01*
X158737532Y-115784397D01*
X158775000Y-115596029D01*
X158775000Y-115403971D01*
X158737532Y-115215603D01*
X158664034Y-115038164D01*
X158557332Y-114878473D01*
X158421527Y-114742668D01*
X158261836Y-114635966D01*
X158084397Y-114562468D01*
X157896029Y-114525000D01*
X157703971Y-114525000D01*
X157515603Y-114562468D01*
X157338164Y-114635966D01*
X157178473Y-114742668D01*
X157042668Y-114878473D01*
X156935966Y-115038164D01*
X156862468Y-115215603D01*
X156825000Y-115403971D01*
X144209419Y-115403971D01*
X144106099Y-115319180D01*
X143892593Y-115205059D01*
X143660926Y-115134783D01*
X143420001Y-115111054D01*
X143179075Y-115134783D01*
X142947408Y-115205059D01*
X142733902Y-115319180D01*
X142546762Y-115472761D01*
X142393181Y-115659902D01*
X142279060Y-115873408D01*
X142208784Y-116105075D01*
X142191001Y-116285630D01*
X142191001Y-117706371D01*
X142208784Y-117886926D01*
X142250669Y-118025000D01*
X135949330Y-118025000D01*
X135991215Y-117886926D01*
X136008998Y-117706371D01*
X136008998Y-116285629D01*
X135991215Y-116105074D01*
X135920939Y-115873407D01*
X135806818Y-115659901D01*
X135653237Y-115472761D01*
X135466096Y-115319180D01*
X135252590Y-115205059D01*
X135020923Y-115134783D01*
X134779998Y-115111054D01*
X134539072Y-115134783D01*
X134307405Y-115205059D01*
X134093899Y-115319180D01*
X133906759Y-115472761D01*
X133753178Y-115659902D01*
X133639057Y-115873408D01*
X133568781Y-116105075D01*
X133550998Y-116285630D01*
X133550998Y-117706371D01*
X133568781Y-117886926D01*
X133610666Y-118025000D01*
X130220714Y-118025000D01*
X130237532Y-117984397D01*
X130275000Y-117796029D01*
X130275000Y-117603971D01*
X130237532Y-117415603D01*
X130164034Y-117238164D01*
X130057332Y-117078473D01*
X129921527Y-116942668D01*
X129761836Y-116835966D01*
X129584397Y-116762468D01*
X129396029Y-116725000D01*
X129203971Y-116725000D01*
X129015603Y-116762468D01*
X128838164Y-116835966D01*
X128678473Y-116942668D01*
X128542668Y-117078473D01*
X128435966Y-117238164D01*
X128362468Y-117415603D01*
X128325000Y-117603971D01*
X128325000Y-117796029D01*
X128362468Y-117984397D01*
X128379286Y-118025000D01*
X123220714Y-118025000D01*
X123237532Y-117984397D01*
X123275000Y-117796029D01*
X123275000Y-117603971D01*
X123237532Y-117415603D01*
X123164034Y-117238164D01*
X123057332Y-117078473D01*
X122921527Y-116942668D01*
X122761836Y-116835966D01*
X122584397Y-116762468D01*
X122396029Y-116725000D01*
X122203971Y-116725000D01*
X122015603Y-116762468D01*
X121838164Y-116835966D01*
X121678473Y-116942668D01*
X121542668Y-117078473D01*
X121435966Y-117238164D01*
X121362468Y-117415603D01*
X121325000Y-117603971D01*
X121325000Y-117796029D01*
X121362468Y-117984397D01*
X121379286Y-118025000D01*
X119450000Y-118025000D01*
X119450000Y-116182839D01*
X119542668Y-116321527D01*
X119678473Y-116457332D01*
X119838164Y-116564034D01*
X120015603Y-116637532D01*
X120203971Y-116675000D01*
X120396029Y-116675000D01*
X120584397Y-116637532D01*
X120761836Y-116564034D01*
X120921527Y-116457332D01*
X121057332Y-116321527D01*
X121164034Y-116161836D01*
X121237532Y-115984397D01*
X121275000Y-115796029D01*
X121275000Y-115603971D01*
X121237532Y-115415603D01*
X121164034Y-115238164D01*
X121057332Y-115078473D01*
X120921527Y-114942668D01*
X120761836Y-114835966D01*
X120584397Y-114762468D01*
X120396029Y-114725000D01*
X120203971Y-114725000D01*
X120015603Y-114762468D01*
X119838164Y-114835966D01*
X119678473Y-114942668D01*
X119542668Y-115078473D01*
X119450000Y-115217161D01*
X119450000Y-108182839D01*
X119542668Y-108321527D01*
X119678473Y-108457332D01*
X119838164Y-108564034D01*
X120015603Y-108637532D01*
X120203971Y-108675000D01*
X120396029Y-108675000D01*
X120584397Y-108637532D01*
X120761836Y-108564034D01*
X120851726Y-108503971D01*
X128125000Y-108503971D01*
X128125000Y-108696029D01*
X128162468Y-108884397D01*
X128235966Y-109061836D01*
X128342668Y-109221527D01*
X128478473Y-109357332D01*
X128638164Y-109464034D01*
X128815603Y-109537532D01*
X128950001Y-109564265D01*
X128950001Y-110071140D01*
X128942668Y-110078473D01*
X128835966Y-110238164D01*
X128762468Y-110415603D01*
X128725000Y-110603971D01*
X128725000Y-110796029D01*
X128762468Y-110984397D01*
X128835966Y-111161836D01*
X128942668Y-111321527D01*
X129078473Y-111457332D01*
X129238164Y-111564034D01*
X129415603Y-111637532D01*
X129550001Y-111664265D01*
X129550001Y-112171140D01*
X129542668Y-112178473D01*
X129435966Y-112338164D01*
X129362468Y-112515603D01*
X129325000Y-112703971D01*
X129325000Y-112896029D01*
X129362468Y-113084397D01*
X129435966Y-113261836D01*
X129542668Y-113421527D01*
X129678473Y-113557332D01*
X129838164Y-113664034D01*
X130015603Y-113737532D01*
X130203971Y-113775000D01*
X130396029Y-113775000D01*
X130584397Y-113737532D01*
X130761836Y-113664034D01*
X130921527Y-113557332D01*
X131057332Y-113421527D01*
X131164034Y-113261836D01*
X131237532Y-113084397D01*
X131275000Y-112896029D01*
X131275000Y-112703971D01*
X131256434Y-112610629D01*
X133550998Y-112610629D01*
X133550998Y-113731370D01*
X133568781Y-113911925D01*
X133639057Y-114143592D01*
X133753179Y-114357098D01*
X133906760Y-114544238D01*
X134093900Y-114697819D01*
X134307406Y-114811940D01*
X134539073Y-114882216D01*
X134779998Y-114905945D01*
X135020924Y-114882216D01*
X135252591Y-114811940D01*
X135466097Y-114697819D01*
X135653237Y-114544238D01*
X135726710Y-114454711D01*
X135815603Y-114491532D01*
X136003971Y-114529000D01*
X136196029Y-114529000D01*
X136384397Y-114491532D01*
X136561836Y-114418034D01*
X136721527Y-114311332D01*
X136857332Y-114175527D01*
X136964034Y-114015836D01*
X137037532Y-113838397D01*
X137075000Y-113650029D01*
X137075000Y-113457971D01*
X137037532Y-113269603D01*
X136964034Y-113092164D01*
X136857332Y-112932473D01*
X136721527Y-112796668D01*
X136561836Y-112689966D01*
X136384397Y-112616468D01*
X136196029Y-112579000D01*
X136005883Y-112579000D01*
X135991215Y-112430073D01*
X135944174Y-112275000D01*
X136096029Y-112275000D01*
X136284397Y-112237532D01*
X136461836Y-112164034D01*
X136621527Y-112057332D01*
X136757332Y-111921527D01*
X136864034Y-111761836D01*
X136937532Y-111584397D01*
X136975000Y-111396029D01*
X136975000Y-111203971D01*
X136937532Y-111015603D01*
X136864034Y-110838164D01*
X136757332Y-110678473D01*
X136621527Y-110542668D01*
X136461836Y-110435966D01*
X136284397Y-110362468D01*
X136096029Y-110325000D01*
X135903971Y-110325000D01*
X135715603Y-110362468D01*
X135538164Y-110435966D01*
X135378473Y-110542668D01*
X135242668Y-110678473D01*
X135135966Y-110838164D01*
X135062468Y-111015603D01*
X135025000Y-111203971D01*
X135025000Y-111396029D01*
X135038757Y-111465192D01*
X135020923Y-111459782D01*
X134779998Y-111436053D01*
X134539072Y-111459782D01*
X134307405Y-111530058D01*
X134093899Y-111644179D01*
X133906759Y-111797760D01*
X133753178Y-111984901D01*
X133639057Y-112198407D01*
X133568781Y-112430074D01*
X133550998Y-112610629D01*
X131256434Y-112610629D01*
X131237532Y-112515603D01*
X131164034Y-112338164D01*
X131057332Y-112178473D01*
X131050000Y-112171141D01*
X131050000Y-107464265D01*
X131184397Y-107437532D01*
X131361836Y-107364034D01*
X131521527Y-107257332D01*
X131657332Y-107121527D01*
X131764034Y-106961836D01*
X131837532Y-106784397D01*
X131875000Y-106596029D01*
X131875000Y-106403971D01*
X131837532Y-106215603D01*
X131764034Y-106038164D01*
X131657332Y-105878473D01*
X131650000Y-105871141D01*
X131650000Y-100010659D01*
X135156376Y-96504284D01*
X135182563Y-96478097D01*
X135203140Y-96447302D01*
X135226618Y-96418693D01*
X135244065Y-96386053D01*
X135264641Y-96355258D01*
X135278814Y-96321042D01*
X135296261Y-96288401D01*
X135307005Y-96252983D01*
X135321178Y-96218767D01*
X135328403Y-96182445D01*
X135339147Y-96147027D01*
X135342775Y-96110194D01*
X135350000Y-96073869D01*
X135350000Y-96036829D01*
X135353627Y-96000001D01*
X135350000Y-95963173D01*
X135350000Y-95926131D01*
X135342774Y-95889804D01*
X135339147Y-95852975D01*
X135328404Y-95817560D01*
X135321178Y-95781233D01*
X135307004Y-95747013D01*
X135296261Y-95711600D01*
X135278816Y-95678962D01*
X135266819Y-95650000D01*
X135278816Y-95621036D01*
X135296260Y-95588401D01*
X135307001Y-95552992D01*
X135321178Y-95518767D01*
X135328405Y-95482435D01*
X135339146Y-95447027D01*
X135342773Y-95410201D01*
X135350000Y-95373869D01*
X135350000Y-95336826D01*
X135353627Y-95300001D01*
X135350000Y-95263176D01*
X135350000Y-95226131D01*
X135342773Y-95189797D01*
X135339146Y-95152975D01*
X135328406Y-95117570D01*
X135321178Y-95081233D01*
X135307000Y-95047004D01*
X135296260Y-95011600D01*
X135278818Y-94978968D01*
X135266819Y-94950000D01*
X135278816Y-94921037D01*
X135296260Y-94888401D01*
X135307001Y-94852992D01*
X135321178Y-94818767D01*
X135328405Y-94782435D01*
X135339146Y-94747027D01*
X135342773Y-94710201D01*
X135350000Y-94673869D01*
X135350000Y-94636826D01*
X135353627Y-94600001D01*
X135350000Y-94563176D01*
X135350000Y-94526131D01*
X135342773Y-94489797D01*
X135339146Y-94452975D01*
X135328406Y-94417570D01*
X135321178Y-94381233D01*
X135307000Y-94347004D01*
X135296260Y-94311600D01*
X135278818Y-94278968D01*
X135266819Y-94250000D01*
X135278813Y-94221044D01*
X135296261Y-94188401D01*
X135307005Y-94152984D01*
X135321178Y-94118767D01*
X135328403Y-94082443D01*
X135339147Y-94047026D01*
X135342774Y-94010195D01*
X135350000Y-93973869D01*
X135350000Y-93936828D01*
X135353627Y-93900000D01*
X135350000Y-93863172D01*
X135350000Y-93826131D01*
X135342774Y-93789805D01*
X135339147Y-93752974D01*
X135328403Y-93717558D01*
X135321178Y-93681233D01*
X135307004Y-93647014D01*
X135301925Y-93630272D01*
X135461836Y-93564034D01*
X135621527Y-93457332D01*
X135757332Y-93321527D01*
X135864034Y-93161836D01*
X135937532Y-92984397D01*
X135975000Y-92796029D01*
X135975000Y-92603971D01*
X135937532Y-92415603D01*
X135864034Y-92238164D01*
X135757332Y-92078473D01*
X135621527Y-91942668D01*
X135461836Y-91835966D01*
X135284397Y-91762468D01*
X135096029Y-91725000D01*
X134903971Y-91725000D01*
X134715603Y-91762468D01*
X134538164Y-91835966D01*
X134378473Y-91942668D01*
X134242668Y-92078473D01*
X134135966Y-92238164D01*
X134062468Y-92415603D01*
X134025000Y-92603971D01*
X134025000Y-92796029D01*
X134062468Y-92984397D01*
X134135966Y-93161836D01*
X134202816Y-93261884D01*
X134181307Y-93273381D01*
X134152694Y-93296863D01*
X134121903Y-93317437D01*
X134095716Y-93343624D01*
X128595720Y-98843621D01*
X128567105Y-98867105D01*
X128473381Y-98981308D01*
X128403739Y-99111600D01*
X128360853Y-99252975D01*
X128350000Y-99363166D01*
X128350000Y-99363173D01*
X128346373Y-99400000D01*
X128350000Y-99436827D01*
X128350001Y-107971140D01*
X128342668Y-107978473D01*
X128235966Y-108138164D01*
X128162468Y-108315603D01*
X128125000Y-108503971D01*
X120851726Y-108503971D01*
X120921527Y-108457332D01*
X121057332Y-108321527D01*
X121164034Y-108161836D01*
X121237532Y-107984397D01*
X121275000Y-107796029D01*
X121275000Y-107603971D01*
X121237532Y-107415603D01*
X121164034Y-107238164D01*
X121057332Y-107078473D01*
X120921527Y-106942668D01*
X120761836Y-106835966D01*
X120584397Y-106762468D01*
X120396029Y-106725000D01*
X120203971Y-106725000D01*
X120015603Y-106762468D01*
X119838164Y-106835966D01*
X119678473Y-106942668D01*
X119542668Y-107078473D01*
X119450000Y-107217161D01*
X119450000Y-100182839D01*
X119542668Y-100321527D01*
X119678473Y-100457332D01*
X119838164Y-100564034D01*
X120015603Y-100637532D01*
X120203971Y-100675000D01*
X120396029Y-100675000D01*
X120584397Y-100637532D01*
X120761836Y-100564034D01*
X120921527Y-100457332D01*
X121057332Y-100321527D01*
X121164034Y-100161836D01*
X121237532Y-99984397D01*
X121275000Y-99796029D01*
X121275000Y-99603971D01*
X121237532Y-99415603D01*
X121164034Y-99238164D01*
X121057332Y-99078473D01*
X120921527Y-98942668D01*
X120761836Y-98835966D01*
X120584397Y-98762468D01*
X120396029Y-98725000D01*
X120203971Y-98725000D01*
X120015603Y-98762468D01*
X119838164Y-98835966D01*
X119678473Y-98942668D01*
X119542668Y-99078473D01*
X119450000Y-99217161D01*
X119450000Y-98403971D01*
X124525000Y-98403971D01*
X124525000Y-98596029D01*
X124562468Y-98784397D01*
X124635966Y-98961836D01*
X124742668Y-99121527D01*
X124878473Y-99257332D01*
X125038164Y-99364034D01*
X125215603Y-99437532D01*
X125403971Y-99475000D01*
X125596029Y-99475000D01*
X125784397Y-99437532D01*
X125961836Y-99364034D01*
X126121527Y-99257332D01*
X126257332Y-99121527D01*
X126364034Y-98961836D01*
X126437532Y-98784397D01*
X126475000Y-98596029D01*
X126475000Y-98403971D01*
X126437532Y-98215603D01*
X126364034Y-98038164D01*
X126257332Y-97878473D01*
X126121527Y-97742668D01*
X125961836Y-97635966D01*
X125784397Y-97562468D01*
X125596029Y-97525000D01*
X125403971Y-97525000D01*
X125215603Y-97562468D01*
X125038164Y-97635966D01*
X124878473Y-97742668D01*
X124742668Y-97878473D01*
X124635966Y-98038164D01*
X124562468Y-98215603D01*
X124525000Y-98403971D01*
X119450000Y-98403971D01*
X119450000Y-96403971D01*
X123325000Y-96403971D01*
X123325000Y-96596029D01*
X123362468Y-96784397D01*
X123435966Y-96961836D01*
X123542668Y-97121527D01*
X123678473Y-97257332D01*
X123838164Y-97364034D01*
X124015603Y-97437532D01*
X124203971Y-97475000D01*
X124396029Y-97475000D01*
X124584397Y-97437532D01*
X124761836Y-97364034D01*
X124921527Y-97257332D01*
X125057332Y-97121527D01*
X125164034Y-96961836D01*
X125237532Y-96784397D01*
X125275000Y-96596029D01*
X125275000Y-96403971D01*
X125525000Y-96403971D01*
X125525000Y-96596029D01*
X125562468Y-96784397D01*
X125635966Y-96961836D01*
X125742668Y-97121527D01*
X125878473Y-97257332D01*
X126038164Y-97364034D01*
X126215603Y-97437532D01*
X126403971Y-97475000D01*
X126596029Y-97475000D01*
X126784397Y-97437532D01*
X126961836Y-97364034D01*
X127121527Y-97257332D01*
X127257332Y-97121527D01*
X127364034Y-96961836D01*
X127437532Y-96784397D01*
X127475000Y-96596029D01*
X127475000Y-96403971D01*
X127437532Y-96215603D01*
X127364034Y-96038164D01*
X127257332Y-95878473D01*
X127121527Y-95742668D01*
X126961836Y-95635966D01*
X126784397Y-95562468D01*
X126596029Y-95525000D01*
X126403971Y-95525000D01*
X126215603Y-95562468D01*
X126038164Y-95635966D01*
X125878473Y-95742668D01*
X125742668Y-95878473D01*
X125635966Y-96038164D01*
X125562468Y-96215603D01*
X125525000Y-96403971D01*
X125275000Y-96403971D01*
X125237532Y-96215603D01*
X125164034Y-96038164D01*
X125057332Y-95878473D01*
X124921527Y-95742668D01*
X124761836Y-95635966D01*
X124584397Y-95562468D01*
X124396029Y-95525000D01*
X124203971Y-95525000D01*
X124015603Y-95562468D01*
X123838164Y-95635966D01*
X123678473Y-95742668D01*
X123542668Y-95878473D01*
X123435966Y-96038164D01*
X123362468Y-96215603D01*
X123325000Y-96403971D01*
X119450000Y-96403971D01*
X119450000Y-94603971D01*
X124425000Y-94603971D01*
X124425000Y-94796029D01*
X124462468Y-94984397D01*
X124535966Y-95161836D01*
X124642668Y-95321527D01*
X124778473Y-95457332D01*
X124938164Y-95564034D01*
X125115603Y-95637532D01*
X125303971Y-95675000D01*
X125496029Y-95675000D01*
X125684397Y-95637532D01*
X125861836Y-95564034D01*
X126021527Y-95457332D01*
X126157332Y-95321527D01*
X126264034Y-95161836D01*
X126337532Y-94984397D01*
X126375000Y-94796029D01*
X126375000Y-94603971D01*
X126337532Y-94415603D01*
X126264034Y-94238164D01*
X126157332Y-94078473D01*
X126021527Y-93942668D01*
X125861836Y-93835966D01*
X125684397Y-93762468D01*
X125496029Y-93725000D01*
X125303971Y-93725000D01*
X125115603Y-93762468D01*
X124938164Y-93835966D01*
X124778473Y-93942668D01*
X124642668Y-94078473D01*
X124535966Y-94238164D01*
X124462468Y-94415603D01*
X124425000Y-94603971D01*
X119450000Y-94603971D01*
X119450000Y-92182839D01*
X119542668Y-92321527D01*
X119678473Y-92457332D01*
X119838164Y-92564034D01*
X120015603Y-92637532D01*
X120203971Y-92675000D01*
X120396029Y-92675000D01*
X120584397Y-92637532D01*
X120761836Y-92564034D01*
X120921527Y-92457332D01*
X121057332Y-92321527D01*
X121164034Y-92161836D01*
X121237532Y-91984397D01*
X121275000Y-91796029D01*
X121275000Y-91603971D01*
X121237532Y-91415603D01*
X121164034Y-91238164D01*
X121057332Y-91078473D01*
X120921527Y-90942668D01*
X120761836Y-90835966D01*
X120584397Y-90762468D01*
X120396029Y-90725000D01*
X120203971Y-90725000D01*
X120015603Y-90762468D01*
X119838164Y-90835966D01*
X119678473Y-90942668D01*
X119542668Y-91078473D01*
X119450000Y-91217161D01*
X119450000Y-89175000D01*
X121330763Y-89175000D01*
X121325000Y-89203971D01*
%TA.AperFunction,Conductor*%
D17*
G36*
X121325000Y-89203971D02*
G01*
X121325000Y-89396029D01*
X121362468Y-89584397D01*
X121435966Y-89761836D01*
X121542668Y-89921527D01*
X121678473Y-90057332D01*
X121838164Y-90164034D01*
X122015603Y-90237532D01*
X122203971Y-90275000D01*
X122396029Y-90275000D01*
X122584397Y-90237532D01*
X122761836Y-90164034D01*
X122921527Y-90057332D01*
X123057332Y-89921527D01*
X123164034Y-89761836D01*
X123237532Y-89584397D01*
X123275000Y-89396029D01*
X123275000Y-89203971D01*
X123269237Y-89175000D01*
X128330763Y-89175000D01*
X128325000Y-89203971D01*
X128325000Y-89396029D01*
X128362468Y-89584397D01*
X128435966Y-89761836D01*
X128542668Y-89921527D01*
X128678473Y-90057332D01*
X128838164Y-90164034D01*
X129015603Y-90237532D01*
X129203971Y-90275000D01*
X129396029Y-90275000D01*
X129584397Y-90237532D01*
X129761836Y-90164034D01*
X129921527Y-90057332D01*
X130057332Y-89921527D01*
X130164034Y-89761836D01*
X130237532Y-89584397D01*
X130275000Y-89396029D01*
X130275000Y-89203971D01*
X130269237Y-89175000D01*
X134330763Y-89175000D01*
X134325000Y-89203971D01*
X134325000Y-89396029D01*
X134362468Y-89584397D01*
X134435966Y-89761836D01*
X134542668Y-89921527D01*
X134678473Y-90057332D01*
X134838164Y-90164034D01*
X135015603Y-90237532D01*
X135203971Y-90275000D01*
X135396029Y-90275000D01*
X135584397Y-90237532D01*
X135761836Y-90164034D01*
X135921527Y-90057332D01*
X136057332Y-89921527D01*
X136164034Y-89761836D01*
X136237532Y-89584397D01*
X136275000Y-89396029D01*
X136275000Y-89203971D01*
X136269237Y-89175000D01*
X136425001Y-89175000D01*
X136425000Y-99866841D01*
X136421734Y-99900000D01*
X136434767Y-100032323D01*
X136473364Y-100159561D01*
X136536042Y-100276824D01*
X136620394Y-100379606D01*
X136692944Y-100439147D01*
X136723176Y-100463958D01*
X136840439Y-100526636D01*
X136967677Y-100565233D01*
X137100000Y-100578266D01*
X137133159Y-100575000D01*
X140378176Y-100575000D01*
X140335966Y-100638172D01*
X140262468Y-100815611D01*
X140225000Y-101003979D01*
X140225000Y-101196037D01*
X140262468Y-101384405D01*
X140335966Y-101561844D01*
X140442668Y-101721535D01*
X140578473Y-101857340D01*
X140738164Y-101964042D01*
X140915603Y-102037540D01*
X141103971Y-102075008D01*
X141296029Y-102075008D01*
X141484397Y-102037540D01*
X141550001Y-102010366D01*
X141550001Y-102555626D01*
X141396029Y-102525000D01*
X141203971Y-102525000D01*
X141015603Y-102562468D01*
X140838164Y-102635966D01*
X140678473Y-102742668D01*
X140542668Y-102878473D01*
X140435966Y-103038164D01*
X140362468Y-103215603D01*
X140325000Y-103403971D01*
X140325000Y-103596029D01*
X140362468Y-103784397D01*
X140435966Y-103961836D01*
X140542668Y-104121527D01*
X140678473Y-104257332D01*
X140817161Y-104350000D01*
X140110660Y-104350000D01*
X136050000Y-100289341D01*
X136050000Y-97426129D01*
X136042775Y-97389806D01*
X136039147Y-97352972D01*
X136028403Y-97317555D01*
X136021178Y-97281231D01*
X136007005Y-97247014D01*
X135996261Y-97211597D01*
X135978813Y-97178954D01*
X135964641Y-97144740D01*
X135944068Y-97113951D01*
X135926619Y-97081305D01*
X135903137Y-97052693D01*
X135882563Y-97021901D01*
X135856374Y-96995712D01*
X135832895Y-96967103D01*
X135804287Y-96943625D01*
X135778097Y-96917435D01*
X135747301Y-96896858D01*
X135718692Y-96873379D01*
X135686051Y-96855932D01*
X135655258Y-96835357D01*
X135621040Y-96821183D01*
X135588400Y-96803737D01*
X135552987Y-96792994D01*
X135518767Y-96778820D01*
X135482440Y-96771594D01*
X135447025Y-96760851D01*
X135410193Y-96757223D01*
X135373869Y-96749998D01*
X135336835Y-96749998D01*
X135300000Y-96746370D01*
X135263165Y-96749998D01*
X135226131Y-96749998D01*
X135189808Y-96757223D01*
X135152974Y-96760851D01*
X135117557Y-96771595D01*
X135081233Y-96778820D01*
X135047016Y-96792993D01*
X135011599Y-96803737D01*
X134978956Y-96821185D01*
X134944742Y-96835357D01*
X134913953Y-96855930D01*
X134881307Y-96873379D01*
X134852695Y-96896861D01*
X134821903Y-96917435D01*
X134795714Y-96943624D01*
X134767105Y-96967103D01*
X134743627Y-96995711D01*
X134717437Y-97021901D01*
X134696860Y-97052697D01*
X134673381Y-97081306D01*
X134655934Y-97113947D01*
X134635359Y-97144740D01*
X134621185Y-97178958D01*
X134603739Y-97211598D01*
X134592996Y-97247011D01*
X134578822Y-97281231D01*
X134571596Y-97317558D01*
X134560853Y-97352973D01*
X134557225Y-97389805D01*
X134550000Y-97426129D01*
X134550000Y-98825000D01*
X134403971Y-98825000D01*
X134215603Y-98862468D01*
X134038164Y-98935966D01*
X133878473Y-99042668D01*
X133742668Y-99178473D01*
X133635966Y-99338164D01*
X133562468Y-99515603D01*
X133525000Y-99703971D01*
X133525000Y-99896029D01*
X133562468Y-100084397D01*
X133635966Y-100261836D01*
X133675001Y-100320255D01*
X133675000Y-100959486D01*
X133671010Y-101000000D01*
X133675000Y-101040513D01*
X133675000Y-101040520D01*
X133686938Y-101161727D01*
X133734112Y-101317240D01*
X133810719Y-101460562D01*
X133913815Y-101586185D01*
X133945296Y-101612021D01*
X137975001Y-105641727D01*
X137975000Y-113079745D01*
X137935966Y-113138164D01*
X137862468Y-113315603D01*
X137825000Y-113503971D01*
X137825000Y-113696029D01*
X137862468Y-113884397D01*
X137935966Y-114061836D01*
X138042668Y-114221527D01*
X138178473Y-114357332D01*
X138338164Y-114464034D01*
X138515603Y-114537532D01*
X138703971Y-114575000D01*
X138896029Y-114575000D01*
X139084397Y-114537532D01*
X139261836Y-114464034D01*
X139421527Y-114357332D01*
X139557332Y-114221527D01*
X139664034Y-114061836D01*
X139737532Y-113884397D01*
X139775000Y-113696029D01*
X139775000Y-113554001D01*
X141020282Y-113554001D01*
X141039107Y-113745134D01*
X141094859Y-113928922D01*
X141185394Y-114098303D01*
X141307234Y-114246766D01*
X141455697Y-114368606D01*
X141625078Y-114459141D01*
X141808866Y-114514893D01*
X141952107Y-114529001D01*
X142247891Y-114529001D01*
X142391132Y-114514893D01*
X142496139Y-114483039D01*
X142546363Y-114544238D01*
X142733503Y-114697819D01*
X142947009Y-114811940D01*
X143178676Y-114882216D01*
X143419601Y-114905945D01*
X143660527Y-114882216D01*
X143892194Y-114811940D01*
X144105700Y-114697819D01*
X144292840Y-114544238D01*
X144446421Y-114357098D01*
X144560542Y-114143592D01*
X144630818Y-113911925D01*
X144648601Y-113731370D01*
X144648601Y-112610628D01*
X144630818Y-112430073D01*
X144560542Y-112198406D01*
X144456615Y-112003971D01*
X149725000Y-112003971D01*
X149725000Y-112196029D01*
X149762468Y-112384397D01*
X149835966Y-112561836D01*
X149942668Y-112721527D01*
X150078473Y-112857332D01*
X150238164Y-112964034D01*
X150415603Y-113037532D01*
X150603971Y-113075000D01*
X150796029Y-113075000D01*
X150984397Y-113037532D01*
X151161836Y-112964034D01*
X151321527Y-112857332D01*
X151457332Y-112721527D01*
X151564034Y-112561836D01*
X151637532Y-112384397D01*
X151675000Y-112196029D01*
X151675000Y-112003971D01*
X151637532Y-111815603D01*
X151564034Y-111638164D01*
X151457332Y-111478473D01*
X151321527Y-111342668D01*
X151161836Y-111235966D01*
X150984397Y-111162468D01*
X150796029Y-111125000D01*
X150603971Y-111125000D01*
X150415603Y-111162468D01*
X150238164Y-111235966D01*
X150078473Y-111342668D01*
X149942668Y-111478473D01*
X149835966Y-111638164D01*
X149762468Y-111815603D01*
X149725000Y-112003971D01*
X144456615Y-112003971D01*
X144446421Y-111984900D01*
X144292840Y-111797760D01*
X144105699Y-111644179D01*
X143892193Y-111530058D01*
X143660526Y-111459782D01*
X143419601Y-111436053D01*
X143178675Y-111459782D01*
X143161269Y-111465062D01*
X143175000Y-111396029D01*
X143175000Y-111203971D01*
X143137532Y-111015603D01*
X143064034Y-110838164D01*
X142957332Y-110678473D01*
X142821527Y-110542668D01*
X142661836Y-110435966D01*
X142484397Y-110362468D01*
X142296029Y-110325000D01*
X142103971Y-110325000D01*
X141915603Y-110362468D01*
X141738164Y-110435966D01*
X141578473Y-110542668D01*
X141442668Y-110678473D01*
X141335966Y-110838164D01*
X141262468Y-111015603D01*
X141225000Y-111203971D01*
X141225000Y-111396029D01*
X141262468Y-111584397D01*
X141335966Y-111761836D01*
X141442668Y-111921527D01*
X141578473Y-112057332D01*
X141738164Y-112164034D01*
X141915603Y-112237532D01*
X142103971Y-112275000D01*
X142255426Y-112275000D01*
X142208384Y-112430074D01*
X142193716Y-112579001D01*
X141952107Y-112579001D01*
X141808866Y-112593109D01*
X141625078Y-112648861D01*
X141455697Y-112739396D01*
X141307234Y-112861236D01*
X141185394Y-113009699D01*
X141094859Y-113179080D01*
X141039107Y-113362868D01*
X141020282Y-113554001D01*
X139775000Y-113554001D01*
X139775000Y-113503971D01*
X139737532Y-113315603D01*
X139664034Y-113138164D01*
X139625000Y-113079745D01*
X139625000Y-109403971D01*
X140325000Y-109403971D01*
X140325000Y-109596029D01*
X140362468Y-109784397D01*
X140435966Y-109961836D01*
X140542668Y-110121527D01*
X140678473Y-110257332D01*
X140838164Y-110364034D01*
X141015603Y-110437532D01*
X141203971Y-110475000D01*
X141396029Y-110475000D01*
X141584397Y-110437532D01*
X141761836Y-110364034D01*
X141921527Y-110257332D01*
X142057332Y-110121527D01*
X142164034Y-109961836D01*
X142237532Y-109784397D01*
X142275000Y-109596029D01*
X142275000Y-109403971D01*
X142237532Y-109215603D01*
X142164034Y-109038164D01*
X142057332Y-108878473D01*
X141921527Y-108742668D01*
X141761836Y-108635966D01*
X141584397Y-108562468D01*
X141396029Y-108525000D01*
X141203971Y-108525000D01*
X141015603Y-108562468D01*
X140838164Y-108635966D01*
X140678473Y-108742668D01*
X140542668Y-108878473D01*
X140435966Y-109038164D01*
X140362468Y-109215603D01*
X140325000Y-109403971D01*
X139625000Y-109403971D01*
X139625000Y-105830661D01*
X139652974Y-105839147D01*
X139763165Y-105850000D01*
X139763172Y-105850000D01*
X139799999Y-105853627D01*
X139836827Y-105850000D01*
X140571141Y-105850000D01*
X140542668Y-105878473D01*
X140435966Y-106038164D01*
X140362468Y-106215603D01*
X140325000Y-106403971D01*
X140325000Y-106596029D01*
X140362468Y-106784397D01*
X140435966Y-106961836D01*
X140542668Y-107121527D01*
X140678473Y-107257332D01*
X140838164Y-107364034D01*
X141015603Y-107437532D01*
X141203971Y-107475000D01*
X141396029Y-107475000D01*
X141584397Y-107437532D01*
X141761836Y-107364034D01*
X141921527Y-107257332D01*
X142057332Y-107121527D01*
X142164034Y-106961836D01*
X142237532Y-106784397D01*
X142275000Y-106596029D01*
X142275000Y-106521443D01*
X142281307Y-106526619D01*
X142411599Y-106596261D01*
X142552974Y-106639147D01*
X142663165Y-106650000D01*
X142663172Y-106650000D01*
X142700000Y-106653627D01*
X142736827Y-106650000D01*
X145361743Y-106650000D01*
X145360835Y-106652992D01*
X145349982Y-106763183D01*
X145349982Y-106763191D01*
X145346355Y-106800018D01*
X145349982Y-106836845D01*
X145349982Y-107673869D01*
X145357207Y-107710193D01*
X145360835Y-107747025D01*
X145371578Y-107782440D01*
X145378804Y-107818767D01*
X145392978Y-107852987D01*
X145403721Y-107888400D01*
X145421167Y-107921040D01*
X145435341Y-107955258D01*
X145455916Y-107986051D01*
X145473363Y-108018692D01*
X145496842Y-108047301D01*
X145517419Y-108078097D01*
X145543609Y-108104287D01*
X145567087Y-108132895D01*
X145595696Y-108156374D01*
X145621885Y-108182563D01*
X145652677Y-108203137D01*
X145681289Y-108226619D01*
X145713935Y-108244068D01*
X145744724Y-108264641D01*
X145778938Y-108278813D01*
X145811581Y-108296261D01*
X145846998Y-108307005D01*
X145881215Y-108321178D01*
X145917539Y-108328403D01*
X145952956Y-108339147D01*
X145989790Y-108342775D01*
X146026113Y-108350000D01*
X146063147Y-108350000D01*
X146099982Y-108353628D01*
X146136817Y-108350000D01*
X146173851Y-108350000D01*
X146210175Y-108342775D01*
X146247007Y-108339147D01*
X146282422Y-108328404D01*
X146318749Y-108321178D01*
X146352969Y-108307004D01*
X146388382Y-108296261D01*
X146421022Y-108278815D01*
X146455240Y-108264641D01*
X146486033Y-108244066D01*
X146518674Y-108226619D01*
X146547283Y-108203140D01*
X146578079Y-108182563D01*
X146604269Y-108156373D01*
X146632877Y-108132895D01*
X146656356Y-108104286D01*
X146680822Y-108079820D01*
X146711599Y-108096271D01*
X146747016Y-108107015D01*
X146781233Y-108121188D01*
X146817557Y-108128413D01*
X146852974Y-108139157D01*
X146889808Y-108142785D01*
X146926131Y-108150010D01*
X146963165Y-108150010D01*
X147000000Y-108153638D01*
X147036835Y-108150010D01*
X147863155Y-108150010D01*
X147899982Y-108153637D01*
X147936809Y-108150010D01*
X147936817Y-108150010D01*
X147937000Y-108149992D01*
X147973869Y-108149992D01*
X148010031Y-108142799D01*
X148047008Y-108139157D01*
X148082563Y-108128371D01*
X148118767Y-108121170D01*
X148152871Y-108107044D01*
X148188383Y-108096271D01*
X148221114Y-108078776D01*
X148255258Y-108064633D01*
X148285985Y-108044102D01*
X148318675Y-108026629D01*
X148347327Y-108003115D01*
X148378097Y-107982555D01*
X148399996Y-107960656D01*
X148443636Y-108004297D01*
X148467111Y-108032901D01*
X148495714Y-108056375D01*
X148495721Y-108056382D01*
X148569931Y-108117284D01*
X148581313Y-108126625D01*
X148711605Y-108196267D01*
X148852980Y-108239153D01*
X148963171Y-108250006D01*
X148963180Y-108250006D01*
X149000005Y-108253633D01*
X149036830Y-108250006D01*
X149473869Y-108250006D01*
X149510192Y-108242781D01*
X149547026Y-108239153D01*
X149582443Y-108228409D01*
X149618767Y-108221184D01*
X149652984Y-108207011D01*
X149688401Y-108196267D01*
X149721044Y-108178819D01*
X149755258Y-108164647D01*
X149786047Y-108144074D01*
X149818693Y-108126625D01*
X149847305Y-108103143D01*
X149878097Y-108082569D01*
X149904286Y-108056380D01*
X149932895Y-108032901D01*
X149956374Y-108004292D01*
X149982563Y-107978103D01*
X150003137Y-107947311D01*
X150026619Y-107918699D01*
X150044068Y-107886053D01*
X150064641Y-107855264D01*
X150078813Y-107821050D01*
X150087941Y-107803971D01*
X150425000Y-107803971D01*
X150425000Y-107996029D01*
X150462468Y-108184397D01*
X150535966Y-108361836D01*
X150642668Y-108521527D01*
X150778473Y-108657332D01*
X150938164Y-108764034D01*
X151115603Y-108837532D01*
X151303971Y-108875000D01*
X151496029Y-108875000D01*
X151684397Y-108837532D01*
X151861836Y-108764034D01*
X152021527Y-108657332D01*
X152157332Y-108521527D01*
X152264034Y-108361836D01*
X152337532Y-108184397D01*
X152375000Y-107996029D01*
X152375000Y-107803971D01*
X152337532Y-107615603D01*
X152264034Y-107438164D01*
X152157332Y-107278473D01*
X152082830Y-107203971D01*
X156825000Y-107203971D01*
X156825000Y-107396029D01*
X156862468Y-107584397D01*
X156935966Y-107761836D01*
X157042668Y-107921527D01*
X157178473Y-108057332D01*
X157338164Y-108164034D01*
X157515603Y-108237532D01*
X157703971Y-108275000D01*
X157896029Y-108275000D01*
X158084397Y-108237532D01*
X158261836Y-108164034D01*
X158421527Y-108057332D01*
X158557332Y-107921527D01*
X158664034Y-107761836D01*
X158737532Y-107584397D01*
X158775000Y-107396029D01*
X158775000Y-107203971D01*
X158737532Y-107015603D01*
X158664034Y-106838164D01*
X158557332Y-106678473D01*
X158421527Y-106542668D01*
X158261836Y-106435966D01*
X158084397Y-106362468D01*
X157896029Y-106325000D01*
X157703971Y-106325000D01*
X157515603Y-106362468D01*
X157338164Y-106435966D01*
X157178473Y-106542668D01*
X157042668Y-106678473D01*
X156935966Y-106838164D01*
X156862468Y-107015603D01*
X156825000Y-107203971D01*
X152082830Y-107203971D01*
X152021527Y-107142668D01*
X151861836Y-107035966D01*
X151684397Y-106962468D01*
X151496029Y-106925000D01*
X151303971Y-106925000D01*
X151115603Y-106962468D01*
X150938164Y-107035966D01*
X150778473Y-107142668D01*
X150642668Y-107278473D01*
X150535966Y-107438164D01*
X150462468Y-107615603D01*
X150425000Y-107803971D01*
X150087941Y-107803971D01*
X150096261Y-107788407D01*
X150107005Y-107752990D01*
X150121178Y-107718773D01*
X150128403Y-107682449D01*
X150139147Y-107647032D01*
X150142775Y-107610198D01*
X150150000Y-107573875D01*
X150150000Y-107536841D01*
X150153628Y-107500006D01*
X150150000Y-107463171D01*
X150150000Y-107426137D01*
X150142775Y-107389814D01*
X150139147Y-107352980D01*
X150128403Y-107317563D01*
X150121178Y-107281239D01*
X150107005Y-107247022D01*
X150096261Y-107211605D01*
X150078813Y-107178962D01*
X150064641Y-107144748D01*
X150044068Y-107113959D01*
X150026619Y-107081313D01*
X150003137Y-107052701D01*
X149982563Y-107021909D01*
X149956374Y-106995720D01*
X149932895Y-106967111D01*
X149914701Y-106952179D01*
X149936827Y-106950000D01*
X149936835Y-106950000D01*
X150047026Y-106939147D01*
X150188401Y-106896261D01*
X150318693Y-106826619D01*
X150432895Y-106732895D01*
X150456379Y-106704280D01*
X150878094Y-106282565D01*
X150878097Y-106282563D01*
X150982563Y-106178097D01*
X151003138Y-106147304D01*
X151026619Y-106118693D01*
X151044068Y-106086047D01*
X151064641Y-106055258D01*
X151078813Y-106021044D01*
X151096261Y-105988401D01*
X151107005Y-105952984D01*
X151121178Y-105918767D01*
X151128403Y-105882443D01*
X151139147Y-105847026D01*
X151139612Y-105842308D01*
X151303971Y-105875000D01*
X151496029Y-105875000D01*
X151684397Y-105837532D01*
X151861836Y-105764034D01*
X152021527Y-105657332D01*
X152157332Y-105521527D01*
X152264034Y-105361836D01*
X152337532Y-105184397D01*
X152375000Y-104996029D01*
X152375000Y-104803971D01*
X152337532Y-104615603D01*
X152264034Y-104438164D01*
X152157332Y-104278473D01*
X152021527Y-104142668D01*
X151861836Y-104035966D01*
X151684397Y-103962468D01*
X151496029Y-103925000D01*
X151303971Y-103925000D01*
X151115603Y-103962468D01*
X150938164Y-104035966D01*
X150778473Y-104142668D01*
X150642668Y-104278473D01*
X150535966Y-104438164D01*
X150462468Y-104615603D01*
X150425000Y-104803971D01*
X150425000Y-104948835D01*
X150400000Y-104946373D01*
X150363172Y-104950000D01*
X150326131Y-104950000D01*
X150289805Y-104957226D01*
X150252974Y-104960853D01*
X150217557Y-104971597D01*
X150181233Y-104978822D01*
X150147016Y-104992995D01*
X150111599Y-105003739D01*
X150078956Y-105021187D01*
X150044742Y-105035359D01*
X150013953Y-105055932D01*
X149981307Y-105073381D01*
X149952696Y-105096862D01*
X149921903Y-105117437D01*
X149817437Y-105221903D01*
X149817435Y-105221906D01*
X149589341Y-105450000D01*
X148726131Y-105450000D01*
X148689808Y-105457225D01*
X148652974Y-105460853D01*
X148617557Y-105471597D01*
X148581233Y-105478822D01*
X148547016Y-105492995D01*
X148511599Y-105503739D01*
X148478956Y-105521187D01*
X148444742Y-105535359D01*
X148413953Y-105555932D01*
X148381307Y-105573381D01*
X148352695Y-105596863D01*
X148350000Y-105598663D01*
X148350000Y-105426131D01*
X148347433Y-105413227D01*
X149310661Y-104450000D01*
X149373869Y-104450000D01*
X149410192Y-104442775D01*
X149447026Y-104439147D01*
X149482443Y-104428403D01*
X149518767Y-104421178D01*
X149552984Y-104407005D01*
X149588401Y-104396261D01*
X149621044Y-104378813D01*
X149655258Y-104364641D01*
X149686047Y-104344068D01*
X149718693Y-104326619D01*
X149747305Y-104303137D01*
X149778097Y-104282563D01*
X149804286Y-104256374D01*
X149832895Y-104232895D01*
X149856375Y-104204285D01*
X149882563Y-104178097D01*
X149903137Y-104147305D01*
X149926619Y-104118693D01*
X149944068Y-104086047D01*
X149964641Y-104055258D01*
X149978813Y-104021044D01*
X149996261Y-103988401D01*
X150007005Y-103952984D01*
X150021178Y-103918767D01*
X150028403Y-103882443D01*
X150039147Y-103847026D01*
X150042775Y-103810192D01*
X150050000Y-103773869D01*
X150050000Y-103736835D01*
X150053628Y-103700000D01*
X150050000Y-103663165D01*
X150050000Y-103626131D01*
X150042775Y-103589808D01*
X150039147Y-103552974D01*
X150028403Y-103517557D01*
X150021178Y-103481233D01*
X150007005Y-103447016D01*
X149996261Y-103411599D01*
X149978813Y-103378956D01*
X149964641Y-103344742D01*
X149944068Y-103313953D01*
X149926619Y-103281307D01*
X149903137Y-103252695D01*
X149882563Y-103221903D01*
X149856374Y-103195714D01*
X149832895Y-103167105D01*
X149804284Y-103143624D01*
X149778097Y-103117437D01*
X149747305Y-103096863D01*
X149718693Y-103073381D01*
X149686047Y-103055932D01*
X149655258Y-103035359D01*
X149621044Y-103021187D01*
X149588401Y-103003739D01*
X149552984Y-102992995D01*
X149518767Y-102978822D01*
X149482443Y-102971597D01*
X149447026Y-102960853D01*
X149410192Y-102957225D01*
X149373869Y-102950000D01*
X149036824Y-102950000D01*
X148999999Y-102946373D01*
X148963174Y-102950000D01*
X148963165Y-102950000D01*
X148852974Y-102960853D01*
X148799717Y-102977008D01*
X148807005Y-102952984D01*
X148821178Y-102918767D01*
X148828403Y-102882443D01*
X148839147Y-102847026D01*
X148842774Y-102810195D01*
X148850000Y-102773869D01*
X148850000Y-102736828D01*
X148853627Y-102700000D01*
X148850000Y-102663172D01*
X148850000Y-102626131D01*
X148842774Y-102589805D01*
X148839147Y-102552974D01*
X148828403Y-102517558D01*
X148821178Y-102481233D01*
X148807004Y-102447014D01*
X148796261Y-102411600D01*
X148778814Y-102378959D01*
X148764641Y-102344742D01*
X148744068Y-102313952D01*
X148726619Y-102281307D01*
X148703137Y-102252695D01*
X148682563Y-102221903D01*
X148656374Y-102195714D01*
X148632895Y-102167105D01*
X148604284Y-102143624D01*
X148578097Y-102117437D01*
X148547305Y-102096863D01*
X148518693Y-102073381D01*
X148486048Y-102055932D01*
X148455258Y-102035359D01*
X148421041Y-102021186D01*
X148388400Y-102003739D01*
X148352986Y-101992996D01*
X148318767Y-101978822D01*
X148282442Y-101971597D01*
X148247026Y-101960853D01*
X148235303Y-101959698D01*
X148239147Y-101947026D01*
X148242774Y-101910195D01*
X148250000Y-101873869D01*
X148250000Y-101836828D01*
X148253627Y-101800000D01*
X148250000Y-101763173D01*
X148250000Y-101726131D01*
X148242774Y-101689805D01*
X148239147Y-101652975D01*
X148228404Y-101617560D01*
X148221178Y-101581233D01*
X148207004Y-101547013D01*
X148196261Y-101511600D01*
X148178815Y-101478960D01*
X148164641Y-101444742D01*
X148144066Y-101413949D01*
X148126619Y-101381308D01*
X148103240Y-101352821D01*
X148164034Y-101261836D01*
X148237532Y-101084397D01*
X148275000Y-100896029D01*
X148275000Y-100703971D01*
X148237532Y-100515603D01*
X148164034Y-100338164D01*
X148057332Y-100178473D01*
X147921527Y-100042668D01*
X147761836Y-99935966D01*
X147584397Y-99862468D01*
X147396029Y-99825000D01*
X147203971Y-99825000D01*
X147015603Y-99862468D01*
X146838164Y-99935966D01*
X146678473Y-100042668D01*
X146542668Y-100178473D01*
X146435966Y-100338164D01*
X146362468Y-100515603D01*
X146325000Y-100703971D01*
X146325000Y-100896029D01*
X146362468Y-101084397D01*
X146435966Y-101261836D01*
X146542668Y-101421527D01*
X146678473Y-101557332D01*
X146680592Y-101558748D01*
X146195715Y-102043626D01*
X146167106Y-102067105D01*
X146143627Y-102095714D01*
X146143624Y-102095717D01*
X146125799Y-102117437D01*
X146112500Y-102133641D01*
X146021527Y-102042668D01*
X145861836Y-101935966D01*
X145684397Y-101862468D01*
X145496029Y-101825000D01*
X145303971Y-101825000D01*
X145115603Y-101862468D01*
X144938164Y-101935966D01*
X144850000Y-101994875D01*
X144761836Y-101935966D01*
X144584397Y-101862468D01*
X144396029Y-101825000D01*
X144203971Y-101825000D01*
X144015603Y-101862468D01*
X143838164Y-101935966D01*
X143678473Y-102042668D01*
X143542668Y-102178473D01*
X143435966Y-102338164D01*
X143362468Y-102515603D01*
X143325000Y-102703971D01*
X143325000Y-102896029D01*
X143362468Y-103084397D01*
X143435966Y-103261836D01*
X143542668Y-103421527D01*
X143678473Y-103557332D01*
X143838164Y-103664034D01*
X144015603Y-103737532D01*
X144203971Y-103775000D01*
X144396029Y-103775000D01*
X144584397Y-103737532D01*
X144761836Y-103664034D01*
X144850000Y-103605125D01*
X144938164Y-103664034D01*
X145115603Y-103737532D01*
X145303971Y-103775000D01*
X145385348Y-103775000D01*
X145238164Y-103835966D01*
X145078473Y-103942668D01*
X144942668Y-104078473D01*
X144835966Y-104238164D01*
X144827368Y-104258922D01*
X144810191Y-104257230D01*
X144773868Y-104250005D01*
X143210665Y-104250005D01*
X143050000Y-104089341D01*
X143050000Y-98464265D01*
X143103971Y-98475000D01*
X143296029Y-98475000D01*
X143484397Y-98437532D01*
X143661836Y-98364034D01*
X143821527Y-98257332D01*
X143957332Y-98121527D01*
X144064034Y-97961836D01*
X144137532Y-97784397D01*
X144175000Y-97596029D01*
X144175000Y-97403971D01*
X144137532Y-97215603D01*
X144064034Y-97038164D01*
X143957332Y-96878473D01*
X143821527Y-96742668D01*
X143661836Y-96635966D01*
X143484397Y-96562468D01*
X143296029Y-96525000D01*
X143103971Y-96525000D01*
X143034833Y-96538752D01*
X143028403Y-96517557D01*
X143021178Y-96481233D01*
X143007005Y-96447016D01*
X142996261Y-96411599D01*
X142978813Y-96378956D01*
X142964641Y-96344742D01*
X142944068Y-96313953D01*
X142926619Y-96281307D01*
X142903137Y-96252695D01*
X142882563Y-96221903D01*
X142856374Y-96195714D01*
X142832895Y-96167105D01*
X142804287Y-96143627D01*
X142778097Y-96117437D01*
X142747301Y-96096860D01*
X142718692Y-96073381D01*
X142686051Y-96055934D01*
X142655258Y-96035359D01*
X142621040Y-96021185D01*
X142588400Y-96003739D01*
X142552987Y-95992996D01*
X142518767Y-95978822D01*
X142482440Y-95971596D01*
X142447025Y-95960853D01*
X142410193Y-95957225D01*
X142373869Y-95950000D01*
X142336835Y-95950000D01*
X142300000Y-95946372D01*
X142263165Y-95950000D01*
X142226131Y-95950000D01*
X142189808Y-95957225D01*
X142152974Y-95960853D01*
X142117557Y-95971597D01*
X142081233Y-95978822D01*
X142047016Y-95992995D01*
X142011599Y-96003739D01*
X141978956Y-96021187D01*
X141944742Y-96035359D01*
X141913953Y-96055932D01*
X141881307Y-96073381D01*
X141875000Y-96078557D01*
X141875000Y-92603971D01*
X142225000Y-92603971D01*
X142225000Y-92796029D01*
X142262468Y-92984397D01*
X142335966Y-93161836D01*
X142442668Y-93321527D01*
X142578473Y-93457332D01*
X142738164Y-93564034D01*
X142915603Y-93637532D01*
X143103971Y-93675000D01*
X143296029Y-93675000D01*
X143484397Y-93637532D01*
X143661836Y-93564034D01*
X143821527Y-93457332D01*
X143957332Y-93321527D01*
X144064034Y-93161836D01*
X144137532Y-92984397D01*
X144175000Y-92796029D01*
X144175000Y-92603971D01*
X144137532Y-92415603D01*
X144064034Y-92238164D01*
X143957332Y-92078473D01*
X143821527Y-91942668D01*
X143661836Y-91835966D01*
X143484397Y-91762468D01*
X143296029Y-91725000D01*
X143103971Y-91725000D01*
X142915603Y-91762468D01*
X142738164Y-91835966D01*
X142578473Y-91942668D01*
X142442668Y-92078473D01*
X142335966Y-92238164D01*
X142262468Y-92415603D01*
X142225000Y-92603971D01*
X141875000Y-92603971D01*
X141875000Y-89175000D01*
X142230763Y-89175000D01*
X142225000Y-89203971D01*
X142225000Y-89396029D01*
X142262468Y-89584397D01*
X142335966Y-89761836D01*
X142442668Y-89921527D01*
X142578473Y-90057332D01*
X142738164Y-90164034D01*
X142915603Y-90237532D01*
X143103971Y-90275000D01*
X143296029Y-90275000D01*
X143484397Y-90237532D01*
X143661836Y-90164034D01*
X143821527Y-90057332D01*
X143957332Y-89921527D01*
X144064034Y-89761836D01*
X144137532Y-89584397D01*
X144175000Y-89396029D01*
X144175000Y-89203971D01*
X144169237Y-89175000D01*
X148879745Y-89175000D01*
X148778473Y-89242668D01*
X148642668Y-89378473D01*
X148535966Y-89538164D01*
X148462468Y-89715603D01*
X148431696Y-89870306D01*
X148272802Y-89838700D01*
X148047198Y-89838700D01*
X147825928Y-89882713D01*
X147617497Y-89969048D01*
X147429914Y-90094387D01*
X147270387Y-90253914D01*
X147145048Y-90441497D01*
X147058713Y-90649928D01*
X147014700Y-90871198D01*
X147014700Y-91096802D01*
X147058713Y-91318072D01*
X147145048Y-91526503D01*
X147270387Y-91714086D01*
X147429914Y-91873613D01*
X147617497Y-91998952D01*
X147620027Y-92000000D01*
X147617497Y-92001048D01*
X147429914Y-92126387D01*
X147270387Y-92285914D01*
X147145048Y-92473497D01*
X147058713Y-92681928D01*
X147014700Y-92903198D01*
X147014700Y-93128802D01*
X147058713Y-93350072D01*
X147145048Y-93558503D01*
X147270387Y-93746086D01*
X147429914Y-93905613D01*
X147617497Y-94030952D01*
X147825928Y-94117287D01*
X148047198Y-94161300D01*
X148272802Y-94161300D01*
X148494072Y-94117287D01*
X148702503Y-94030952D01*
X148890086Y-93905613D01*
X149049613Y-93746086D01*
X149174952Y-93558503D01*
X149261287Y-93350072D01*
X149305300Y-93128802D01*
X149305300Y-92903198D01*
X149261287Y-92681928D01*
X149174952Y-92473497D01*
X149049613Y-92285914D01*
X148890086Y-92126387D01*
X148702503Y-92001048D01*
X148699973Y-92000000D01*
X148702503Y-91998952D01*
X148869754Y-91887198D01*
X152094700Y-91887198D01*
X152094700Y-92112802D01*
X152138713Y-92334072D01*
X152225048Y-92542503D01*
X152350387Y-92730086D01*
X152509914Y-92889613D01*
X152697497Y-93014952D01*
X152905928Y-93101287D01*
X153127198Y-93145300D01*
X153352802Y-93145300D01*
X153574072Y-93101287D01*
X153782503Y-93014952D01*
X153970086Y-92889613D01*
X154129613Y-92730086D01*
X154254952Y-92542503D01*
X154341287Y-92334072D01*
X154385300Y-92112802D01*
X154385300Y-91887198D01*
X154341287Y-91665928D01*
X154254952Y-91457497D01*
X154129613Y-91269914D01*
X153970086Y-91110387D01*
X153782503Y-90985048D01*
X153574072Y-90898713D01*
X153352802Y-90854700D01*
X153127198Y-90854700D01*
X152905928Y-90898713D01*
X152697497Y-90985048D01*
X152509914Y-91110387D01*
X152350387Y-91269914D01*
X152225048Y-91457497D01*
X152138713Y-91665928D01*
X152094700Y-91887198D01*
X148869754Y-91887198D01*
X148890086Y-91873613D01*
X149049613Y-91714086D01*
X149174952Y-91526503D01*
X149261287Y-91318072D01*
X149305300Y-91096802D01*
X149305300Y-90975000D01*
X149496029Y-90975000D01*
X149684397Y-90937532D01*
X149861836Y-90864034D01*
X150021527Y-90757332D01*
X150157332Y-90621527D01*
X150264034Y-90461836D01*
X150337532Y-90284397D01*
X150375000Y-90096029D01*
X150375000Y-89903971D01*
X150337532Y-89715603D01*
X150264034Y-89538164D01*
X150157332Y-89378473D01*
X150021527Y-89242668D01*
X149920255Y-89175000D01*
X154125000Y-89175000D01*
X154125000Y-89296029D01*
X154162468Y-89484397D01*
X154235966Y-89661836D01*
X154342668Y-89821527D01*
X154478473Y-89957332D01*
X154638164Y-90064034D01*
X154815603Y-90137532D01*
X155003971Y-90175000D01*
X155196029Y-90175000D01*
X155384397Y-90137532D01*
X155561836Y-90064034D01*
X155721527Y-89957332D01*
X155857332Y-89821527D01*
X155964034Y-89661836D01*
X156037532Y-89484397D01*
X156075000Y-89296029D01*
X156075000Y-89175000D01*
X158850000Y-89175000D01*
X158850000Y-91778285D01*
X158837532Y-91715603D01*
X158764034Y-91538164D01*
X158657332Y-91378473D01*
X158521527Y-91242668D01*
X158361836Y-91135966D01*
X158184397Y-91062468D01*
X157996029Y-91025000D01*
X157803971Y-91025000D01*
X157615603Y-91062468D01*
X157438164Y-91135966D01*
X157278473Y-91242668D01*
X157142668Y-91378473D01*
X157035966Y-91538164D01*
X156962468Y-91715603D01*
X156925000Y-91903971D01*
X156925000Y-92096029D01*
X156962468Y-92284397D01*
X157035966Y-92461836D01*
X157142668Y-92621527D01*
X157278473Y-92757332D01*
X157438164Y-92864034D01*
X157615603Y-92937532D01*
X157803971Y-92975000D01*
X157996029Y-92975000D01*
X158184397Y-92937532D01*
X158361836Y-92864034D01*
X158521527Y-92757332D01*
X158657332Y-92621527D01*
X158764034Y-92461836D01*
X158837532Y-92284397D01*
X158850000Y-92221715D01*
X158850000Y-99478285D01*
X158837532Y-99415603D01*
X158764034Y-99238164D01*
X158657332Y-99078473D01*
X158521527Y-98942668D01*
X158361836Y-98835966D01*
X158184397Y-98762468D01*
X157996029Y-98725000D01*
X157803971Y-98725000D01*
X157615603Y-98762468D01*
X157438164Y-98835966D01*
X157278473Y-98942668D01*
X157142668Y-99078473D01*
X157035966Y-99238164D01*
X156962468Y-99415603D01*
X156925000Y-99603971D01*
X156925000Y-99796029D01*
X156962468Y-99984397D01*
X157035966Y-100161836D01*
X157142668Y-100321527D01*
X157278473Y-100457332D01*
X157438164Y-100564034D01*
X157615603Y-100637532D01*
X157803971Y-100675000D01*
X157996029Y-100675000D01*
X158184397Y-100637532D01*
X158361836Y-100564034D01*
X158521527Y-100457332D01*
X158657332Y-100321527D01*
X158764034Y-100161836D01*
X158837532Y-99984397D01*
X158850000Y-99921715D01*
X158850000Y-118025000D01*
X156220714Y-118025000D01*
X156237532Y-117984397D01*
X156275000Y-117796029D01*
X156275000Y-117603971D01*
X156237532Y-117415603D01*
X156164034Y-117238164D01*
X156057332Y-117078473D01*
X155921527Y-116942668D01*
X155761836Y-116835966D01*
X155584397Y-116762468D01*
X155396029Y-116725000D01*
X155203971Y-116725000D01*
X155015603Y-116762468D01*
X154838164Y-116835966D01*
X154678473Y-116942668D01*
X154542668Y-117078473D01*
X154435966Y-117238164D01*
X154362468Y-117415603D01*
X154325000Y-117603971D01*
X154325000Y-117796029D01*
X154362468Y-117984397D01*
X154379286Y-118025000D01*
X148220714Y-118025000D01*
X148237532Y-117984397D01*
X148275000Y-117796029D01*
X148275000Y-117603971D01*
X148237532Y-117415603D01*
X148164034Y-117238164D01*
X148057332Y-117078473D01*
X147921527Y-116942668D01*
X147761836Y-116835966D01*
X147584397Y-116762468D01*
X147396029Y-116725000D01*
X147203971Y-116725000D01*
X147015603Y-116762468D01*
X146838164Y-116835966D01*
X146678473Y-116942668D01*
X146542668Y-117078473D01*
X146435966Y-117238164D01*
X146362468Y-117415603D01*
X146325000Y-117603971D01*
X146325000Y-117796029D01*
X146362468Y-117984397D01*
X146379286Y-118025000D01*
X144589333Y-118025000D01*
X144631218Y-117886926D01*
X144649001Y-117706371D01*
X144649001Y-116285629D01*
X144631218Y-116105074D01*
X144560942Y-115873407D01*
X144446821Y-115659901D01*
X144293240Y-115472761D01*
X144209419Y-115403971D01*
X156825000Y-115403971D01*
X156825000Y-115596029D01*
X156862468Y-115784397D01*
X156935966Y-115961836D01*
X157042668Y-116121527D01*
X157178473Y-116257332D01*
X157338164Y-116364034D01*
X157515603Y-116437532D01*
X157703971Y-116475000D01*
X157896029Y-116475000D01*
X158084397Y-116437532D01*
X158261836Y-116364034D01*
X158421527Y-116257332D01*
X158557332Y-116121527D01*
X158664034Y-115961836D01*
X158737532Y-115784397D01*
X158775000Y-115596029D01*
X158775000Y-115403971D01*
X158737532Y-115215603D01*
X158664034Y-115038164D01*
X158557332Y-114878473D01*
X158421527Y-114742668D01*
X158261836Y-114635966D01*
X158084397Y-114562468D01*
X157896029Y-114525000D01*
X157703971Y-114525000D01*
X157515603Y-114562468D01*
X157338164Y-114635966D01*
X157178473Y-114742668D01*
X157042668Y-114878473D01*
X156935966Y-115038164D01*
X156862468Y-115215603D01*
X156825000Y-115403971D01*
X144209419Y-115403971D01*
X144106099Y-115319180D01*
X143892593Y-115205059D01*
X143660926Y-115134783D01*
X143420001Y-115111054D01*
X143179075Y-115134783D01*
X142947408Y-115205059D01*
X142733902Y-115319180D01*
X142546762Y-115472761D01*
X142393181Y-115659902D01*
X142279060Y-115873408D01*
X142208784Y-116105075D01*
X142191001Y-116285630D01*
X142191001Y-117706371D01*
X142208784Y-117886926D01*
X142250669Y-118025000D01*
X135949330Y-118025000D01*
X135991215Y-117886926D01*
X136008998Y-117706371D01*
X136008998Y-116285629D01*
X135991215Y-116105074D01*
X135920939Y-115873407D01*
X135806818Y-115659901D01*
X135653237Y-115472761D01*
X135466096Y-115319180D01*
X135252590Y-115205059D01*
X135020923Y-115134783D01*
X134779998Y-115111054D01*
X134539072Y-115134783D01*
X134307405Y-115205059D01*
X134093899Y-115319180D01*
X133906759Y-115472761D01*
X133753178Y-115659902D01*
X133639057Y-115873408D01*
X133568781Y-116105075D01*
X133550998Y-116285630D01*
X133550998Y-117706371D01*
X133568781Y-117886926D01*
X133610666Y-118025000D01*
X130220714Y-118025000D01*
X130237532Y-117984397D01*
X130275000Y-117796029D01*
X130275000Y-117603971D01*
X130237532Y-117415603D01*
X130164034Y-117238164D01*
X130057332Y-117078473D01*
X129921527Y-116942668D01*
X129761836Y-116835966D01*
X129584397Y-116762468D01*
X129396029Y-116725000D01*
X129203971Y-116725000D01*
X129015603Y-116762468D01*
X128838164Y-116835966D01*
X128678473Y-116942668D01*
X128542668Y-117078473D01*
X128435966Y-117238164D01*
X128362468Y-117415603D01*
X128325000Y-117603971D01*
X128325000Y-117796029D01*
X128362468Y-117984397D01*
X128379286Y-118025000D01*
X123220714Y-118025000D01*
X123237532Y-117984397D01*
X123275000Y-117796029D01*
X123275000Y-117603971D01*
X123237532Y-117415603D01*
X123164034Y-117238164D01*
X123057332Y-117078473D01*
X122921527Y-116942668D01*
X122761836Y-116835966D01*
X122584397Y-116762468D01*
X122396029Y-116725000D01*
X122203971Y-116725000D01*
X122015603Y-116762468D01*
X121838164Y-116835966D01*
X121678473Y-116942668D01*
X121542668Y-117078473D01*
X121435966Y-117238164D01*
X121362468Y-117415603D01*
X121325000Y-117603971D01*
X121325000Y-117796029D01*
X121362468Y-117984397D01*
X121379286Y-118025000D01*
X119450000Y-118025000D01*
X119450000Y-116182839D01*
X119542668Y-116321527D01*
X119678473Y-116457332D01*
X119838164Y-116564034D01*
X120015603Y-116637532D01*
X120203971Y-116675000D01*
X120396029Y-116675000D01*
X120584397Y-116637532D01*
X120761836Y-116564034D01*
X120921527Y-116457332D01*
X121057332Y-116321527D01*
X121164034Y-116161836D01*
X121237532Y-115984397D01*
X121275000Y-115796029D01*
X121275000Y-115603971D01*
X121237532Y-115415603D01*
X121164034Y-115238164D01*
X121057332Y-115078473D01*
X120921527Y-114942668D01*
X120761836Y-114835966D01*
X120584397Y-114762468D01*
X120396029Y-114725000D01*
X120203971Y-114725000D01*
X120015603Y-114762468D01*
X119838164Y-114835966D01*
X119678473Y-114942668D01*
X119542668Y-115078473D01*
X119450000Y-115217161D01*
X119450000Y-108182839D01*
X119542668Y-108321527D01*
X119678473Y-108457332D01*
X119838164Y-108564034D01*
X120015603Y-108637532D01*
X120203971Y-108675000D01*
X120396029Y-108675000D01*
X120584397Y-108637532D01*
X120761836Y-108564034D01*
X120851726Y-108503971D01*
X128125000Y-108503971D01*
X128125000Y-108696029D01*
X128162468Y-108884397D01*
X128235966Y-109061836D01*
X128342668Y-109221527D01*
X128478473Y-109357332D01*
X128638164Y-109464034D01*
X128815603Y-109537532D01*
X128950001Y-109564265D01*
X128950001Y-110071140D01*
X128942668Y-110078473D01*
X128835966Y-110238164D01*
X128762468Y-110415603D01*
X128725000Y-110603971D01*
X128725000Y-110796029D01*
X128762468Y-110984397D01*
X128835966Y-111161836D01*
X128942668Y-111321527D01*
X129078473Y-111457332D01*
X129238164Y-111564034D01*
X129415603Y-111637532D01*
X129550001Y-111664265D01*
X129550001Y-112171140D01*
X129542668Y-112178473D01*
X129435966Y-112338164D01*
X129362468Y-112515603D01*
X129325000Y-112703971D01*
X129325000Y-112896029D01*
X129362468Y-113084397D01*
X129435966Y-113261836D01*
X129542668Y-113421527D01*
X129678473Y-113557332D01*
X129838164Y-113664034D01*
X130015603Y-113737532D01*
X130203971Y-113775000D01*
X130396029Y-113775000D01*
X130584397Y-113737532D01*
X130761836Y-113664034D01*
X130921527Y-113557332D01*
X131057332Y-113421527D01*
X131164034Y-113261836D01*
X131237532Y-113084397D01*
X131275000Y-112896029D01*
X131275000Y-112703971D01*
X131256434Y-112610629D01*
X133550998Y-112610629D01*
X133550998Y-113731370D01*
X133568781Y-113911925D01*
X133639057Y-114143592D01*
X133753179Y-114357098D01*
X133906760Y-114544238D01*
X134093900Y-114697819D01*
X134307406Y-114811940D01*
X134539073Y-114882216D01*
X134779998Y-114905945D01*
X135020924Y-114882216D01*
X135252591Y-114811940D01*
X135466097Y-114697819D01*
X135653237Y-114544238D01*
X135726710Y-114454711D01*
X135815603Y-114491532D01*
X136003971Y-114529000D01*
X136196029Y-114529000D01*
X136384397Y-114491532D01*
X136561836Y-114418034D01*
X136721527Y-114311332D01*
X136857332Y-114175527D01*
X136964034Y-114015836D01*
X137037532Y-113838397D01*
X137075000Y-113650029D01*
X137075000Y-113457971D01*
X137037532Y-113269603D01*
X136964034Y-113092164D01*
X136857332Y-112932473D01*
X136721527Y-112796668D01*
X136561836Y-112689966D01*
X136384397Y-112616468D01*
X136196029Y-112579000D01*
X136005883Y-112579000D01*
X135991215Y-112430073D01*
X135944174Y-112275000D01*
X136096029Y-112275000D01*
X136284397Y-112237532D01*
X136461836Y-112164034D01*
X136621527Y-112057332D01*
X136757332Y-111921527D01*
X136864034Y-111761836D01*
X136937532Y-111584397D01*
X136975000Y-111396029D01*
X136975000Y-111203971D01*
X136937532Y-111015603D01*
X136864034Y-110838164D01*
X136757332Y-110678473D01*
X136621527Y-110542668D01*
X136461836Y-110435966D01*
X136284397Y-110362468D01*
X136096029Y-110325000D01*
X135903971Y-110325000D01*
X135715603Y-110362468D01*
X135538164Y-110435966D01*
X135378473Y-110542668D01*
X135242668Y-110678473D01*
X135135966Y-110838164D01*
X135062468Y-111015603D01*
X135025000Y-111203971D01*
X135025000Y-111396029D01*
X135038757Y-111465192D01*
X135020923Y-111459782D01*
X134779998Y-111436053D01*
X134539072Y-111459782D01*
X134307405Y-111530058D01*
X134093899Y-111644179D01*
X133906759Y-111797760D01*
X133753178Y-111984901D01*
X133639057Y-112198407D01*
X133568781Y-112430074D01*
X133550998Y-112610629D01*
X131256434Y-112610629D01*
X131237532Y-112515603D01*
X131164034Y-112338164D01*
X131057332Y-112178473D01*
X131050000Y-112171141D01*
X131050000Y-107464265D01*
X131184397Y-107437532D01*
X131361836Y-107364034D01*
X131521527Y-107257332D01*
X131657332Y-107121527D01*
X131764034Y-106961836D01*
X131837532Y-106784397D01*
X131875000Y-106596029D01*
X131875000Y-106403971D01*
X131837532Y-106215603D01*
X131764034Y-106038164D01*
X131657332Y-105878473D01*
X131650000Y-105871141D01*
X131650000Y-100010659D01*
X135156376Y-96504284D01*
X135182563Y-96478097D01*
X135203140Y-96447302D01*
X135226618Y-96418693D01*
X135244065Y-96386053D01*
X135264641Y-96355258D01*
X135278814Y-96321042D01*
X135296261Y-96288401D01*
X135307005Y-96252983D01*
X135321178Y-96218767D01*
X135328403Y-96182445D01*
X135339147Y-96147027D01*
X135342775Y-96110194D01*
X135350000Y-96073869D01*
X135350000Y-96036829D01*
X135353627Y-96000001D01*
X135350000Y-95963173D01*
X135350000Y-95926131D01*
X135342774Y-95889804D01*
X135339147Y-95852975D01*
X135328404Y-95817560D01*
X135321178Y-95781233D01*
X135307004Y-95747013D01*
X135296261Y-95711600D01*
X135278816Y-95678962D01*
X135266819Y-95650000D01*
X135278816Y-95621036D01*
X135296260Y-95588401D01*
X135307001Y-95552992D01*
X135321178Y-95518767D01*
X135328405Y-95482435D01*
X135339146Y-95447027D01*
X135342773Y-95410201D01*
X135350000Y-95373869D01*
X135350000Y-95336826D01*
X135353627Y-95300001D01*
X135350000Y-95263176D01*
X135350000Y-95226131D01*
X135342773Y-95189797D01*
X135339146Y-95152975D01*
X135328406Y-95117570D01*
X135321178Y-95081233D01*
X135307000Y-95047004D01*
X135296260Y-95011600D01*
X135278818Y-94978968D01*
X135266819Y-94950000D01*
X135278816Y-94921037D01*
X135296260Y-94888401D01*
X135307001Y-94852992D01*
X135321178Y-94818767D01*
X135328405Y-94782435D01*
X135339146Y-94747027D01*
X135342773Y-94710201D01*
X135350000Y-94673869D01*
X135350000Y-94636826D01*
X135353627Y-94600001D01*
X135350000Y-94563176D01*
X135350000Y-94526131D01*
X135342773Y-94489797D01*
X135339146Y-94452975D01*
X135328406Y-94417570D01*
X135321178Y-94381233D01*
X135307000Y-94347004D01*
X135296260Y-94311600D01*
X135278818Y-94278968D01*
X135266819Y-94250000D01*
X135278813Y-94221044D01*
X135296261Y-94188401D01*
X135307005Y-94152984D01*
X135321178Y-94118767D01*
X135328403Y-94082443D01*
X135339147Y-94047026D01*
X135342774Y-94010195D01*
X135350000Y-93973869D01*
X135350000Y-93936828D01*
X135353627Y-93900000D01*
X135350000Y-93863172D01*
X135350000Y-93826131D01*
X135342774Y-93789805D01*
X135339147Y-93752974D01*
X135328403Y-93717558D01*
X135321178Y-93681233D01*
X135307004Y-93647014D01*
X135301925Y-93630272D01*
X135461836Y-93564034D01*
X135621527Y-93457332D01*
X135757332Y-93321527D01*
X135864034Y-93161836D01*
X135937532Y-92984397D01*
X135975000Y-92796029D01*
X135975000Y-92603971D01*
X135937532Y-92415603D01*
X135864034Y-92238164D01*
X135757332Y-92078473D01*
X135621527Y-91942668D01*
X135461836Y-91835966D01*
X135284397Y-91762468D01*
X135096029Y-91725000D01*
X134903971Y-91725000D01*
X134715603Y-91762468D01*
X134538164Y-91835966D01*
X134378473Y-91942668D01*
X134242668Y-92078473D01*
X134135966Y-92238164D01*
X134062468Y-92415603D01*
X134025000Y-92603971D01*
X134025000Y-92796029D01*
X134062468Y-92984397D01*
X134135966Y-93161836D01*
X134202816Y-93261884D01*
X134181307Y-93273381D01*
X134152694Y-93296863D01*
X134121903Y-93317437D01*
X134095716Y-93343624D01*
X128595720Y-98843621D01*
X128567105Y-98867105D01*
X128473381Y-98981308D01*
X128403739Y-99111600D01*
X128360853Y-99252975D01*
X128350000Y-99363166D01*
X128350000Y-99363173D01*
X128346373Y-99400000D01*
X128350000Y-99436827D01*
X128350001Y-107971140D01*
X128342668Y-107978473D01*
X128235966Y-108138164D01*
X128162468Y-108315603D01*
X128125000Y-108503971D01*
X120851726Y-108503971D01*
X120921527Y-108457332D01*
X121057332Y-108321527D01*
X121164034Y-108161836D01*
X121237532Y-107984397D01*
X121275000Y-107796029D01*
X121275000Y-107603971D01*
X121237532Y-107415603D01*
X121164034Y-107238164D01*
X121057332Y-107078473D01*
X120921527Y-106942668D01*
X120761836Y-106835966D01*
X120584397Y-106762468D01*
X120396029Y-106725000D01*
X120203971Y-106725000D01*
X120015603Y-106762468D01*
X119838164Y-106835966D01*
X119678473Y-106942668D01*
X119542668Y-107078473D01*
X119450000Y-107217161D01*
X119450000Y-100182839D01*
X119542668Y-100321527D01*
X119678473Y-100457332D01*
X119838164Y-100564034D01*
X120015603Y-100637532D01*
X120203971Y-100675000D01*
X120396029Y-100675000D01*
X120584397Y-100637532D01*
X120761836Y-100564034D01*
X120921527Y-100457332D01*
X121057332Y-100321527D01*
X121164034Y-100161836D01*
X121237532Y-99984397D01*
X121275000Y-99796029D01*
X121275000Y-99603971D01*
X121237532Y-99415603D01*
X121164034Y-99238164D01*
X121057332Y-99078473D01*
X120921527Y-98942668D01*
X120761836Y-98835966D01*
X120584397Y-98762468D01*
X120396029Y-98725000D01*
X120203971Y-98725000D01*
X120015603Y-98762468D01*
X119838164Y-98835966D01*
X119678473Y-98942668D01*
X119542668Y-99078473D01*
X119450000Y-99217161D01*
X119450000Y-98403971D01*
X124525000Y-98403971D01*
X124525000Y-98596029D01*
X124562468Y-98784397D01*
X124635966Y-98961836D01*
X124742668Y-99121527D01*
X124878473Y-99257332D01*
X125038164Y-99364034D01*
X125215603Y-99437532D01*
X125403971Y-99475000D01*
X125596029Y-99475000D01*
X125784397Y-99437532D01*
X125961836Y-99364034D01*
X126121527Y-99257332D01*
X126257332Y-99121527D01*
X126364034Y-98961836D01*
X126437532Y-98784397D01*
X126475000Y-98596029D01*
X126475000Y-98403971D01*
X126437532Y-98215603D01*
X126364034Y-98038164D01*
X126257332Y-97878473D01*
X126121527Y-97742668D01*
X125961836Y-97635966D01*
X125784397Y-97562468D01*
X125596029Y-97525000D01*
X125403971Y-97525000D01*
X125215603Y-97562468D01*
X125038164Y-97635966D01*
X124878473Y-97742668D01*
X124742668Y-97878473D01*
X124635966Y-98038164D01*
X124562468Y-98215603D01*
X124525000Y-98403971D01*
X119450000Y-98403971D01*
X119450000Y-96403971D01*
X123325000Y-96403971D01*
X123325000Y-96596029D01*
X123362468Y-96784397D01*
X123435966Y-96961836D01*
X123542668Y-97121527D01*
X123678473Y-97257332D01*
X123838164Y-97364034D01*
X124015603Y-97437532D01*
X124203971Y-97475000D01*
X124396029Y-97475000D01*
X124584397Y-97437532D01*
X124761836Y-97364034D01*
X124921527Y-97257332D01*
X125057332Y-97121527D01*
X125164034Y-96961836D01*
X125237532Y-96784397D01*
X125275000Y-96596029D01*
X125275000Y-96403971D01*
X125525000Y-96403971D01*
X125525000Y-96596029D01*
X125562468Y-96784397D01*
X125635966Y-96961836D01*
X125742668Y-97121527D01*
X125878473Y-97257332D01*
X126038164Y-97364034D01*
X126215603Y-97437532D01*
X126403971Y-97475000D01*
X126596029Y-97475000D01*
X126784397Y-97437532D01*
X126961836Y-97364034D01*
X127121527Y-97257332D01*
X127257332Y-97121527D01*
X127364034Y-96961836D01*
X127437532Y-96784397D01*
X127475000Y-96596029D01*
X127475000Y-96403971D01*
X127437532Y-96215603D01*
X127364034Y-96038164D01*
X127257332Y-95878473D01*
X127121527Y-95742668D01*
X126961836Y-95635966D01*
X126784397Y-95562468D01*
X126596029Y-95525000D01*
X126403971Y-95525000D01*
X126215603Y-95562468D01*
X126038164Y-95635966D01*
X125878473Y-95742668D01*
X125742668Y-95878473D01*
X125635966Y-96038164D01*
X125562468Y-96215603D01*
X125525000Y-96403971D01*
X125275000Y-96403971D01*
X125237532Y-96215603D01*
X125164034Y-96038164D01*
X125057332Y-95878473D01*
X124921527Y-95742668D01*
X124761836Y-95635966D01*
X124584397Y-95562468D01*
X124396029Y-95525000D01*
X124203971Y-95525000D01*
X124015603Y-95562468D01*
X123838164Y-95635966D01*
X123678473Y-95742668D01*
X123542668Y-95878473D01*
X123435966Y-96038164D01*
X123362468Y-96215603D01*
X123325000Y-96403971D01*
X119450000Y-96403971D01*
X119450000Y-94603971D01*
X124425000Y-94603971D01*
X124425000Y-94796029D01*
X124462468Y-94984397D01*
X124535966Y-95161836D01*
X124642668Y-95321527D01*
X124778473Y-95457332D01*
X124938164Y-95564034D01*
X125115603Y-95637532D01*
X125303971Y-95675000D01*
X125496029Y-95675000D01*
X125684397Y-95637532D01*
X125861836Y-95564034D01*
X126021527Y-95457332D01*
X126157332Y-95321527D01*
X126264034Y-95161836D01*
X126337532Y-94984397D01*
X126375000Y-94796029D01*
X126375000Y-94603971D01*
X126337532Y-94415603D01*
X126264034Y-94238164D01*
X126157332Y-94078473D01*
X126021527Y-93942668D01*
X125861836Y-93835966D01*
X125684397Y-93762468D01*
X125496029Y-93725000D01*
X125303971Y-93725000D01*
X125115603Y-93762468D01*
X124938164Y-93835966D01*
X124778473Y-93942668D01*
X124642668Y-94078473D01*
X124535966Y-94238164D01*
X124462468Y-94415603D01*
X124425000Y-94603971D01*
X119450000Y-94603971D01*
X119450000Y-92182839D01*
X119542668Y-92321527D01*
X119678473Y-92457332D01*
X119838164Y-92564034D01*
X120015603Y-92637532D01*
X120203971Y-92675000D01*
X120396029Y-92675000D01*
X120584397Y-92637532D01*
X120761836Y-92564034D01*
X120921527Y-92457332D01*
X121057332Y-92321527D01*
X121164034Y-92161836D01*
X121237532Y-91984397D01*
X121275000Y-91796029D01*
X121275000Y-91603971D01*
X121237532Y-91415603D01*
X121164034Y-91238164D01*
X121057332Y-91078473D01*
X120921527Y-90942668D01*
X120761836Y-90835966D01*
X120584397Y-90762468D01*
X120396029Y-90725000D01*
X120203971Y-90725000D01*
X120015603Y-90762468D01*
X119838164Y-90835966D01*
X119678473Y-90942668D01*
X119542668Y-91078473D01*
X119450000Y-91217161D01*
X119450000Y-89175000D01*
X121330763Y-89175000D01*
X121325000Y-89203971D01*
G37*
%TD.AperFunction*%
%TD*%
M02*
