%TF.GenerationSoftware,KiCad,Pcbnew,(6.0.0-0)*%
%TF.CreationDate,2022-01-28T12:00:06+01:00*%
%TF.ProjectId,s1-ecg-demo,73312d65-6367-42d6-9465-6d6f2e6b6963,2*%
%TF.SameCoordinates,Original*%
%TF.FileFunction,Copper,L1,Top*%
%TF.FilePolarity,Positive*%
%FSLAX46Y46*%
G04 Gerber Fmt 4.6, Leading zero omitted, Abs format (unit mm)*
G04 Created by KiCad (PCBNEW (6.0.0-0)) date 2022-01-28 12:00:06*
%MOMM*%
%LPD*%
G01*
G04 APERTURE LIST*
G04 Aperture macros list*
%AMRoundRect*
0 Rectangle with rounded corners*
0 $1 Rounding radius*
0 $2 $3 $4 $5 $6 $7 $8 $9 X,Y pos of 4 corners*
0 Add a 4 corners polygon primitive as box body*
4,1,4,$2,$3,$4,$5,$6,$7,$8,$9,$2,$3,0*
0 Add four circle primitives for the rounded corners*
1,1,$1+$1,$2,$3*
1,1,$1+$1,$4,$5*
1,1,$1+$1,$6,$7*
1,1,$1+$1,$8,$9*
0 Add four rect primitives between the rounded corners*
20,1,$1+$1,$2,$3,$4,$5,0*
20,1,$1+$1,$4,$5,$6,$7,0*
20,1,$1+$1,$6,$7,$8,$9,0*
20,1,$1+$1,$8,$9,$2,$3,0*%
G04 Aperture macros list end*
%TA.AperFunction,SMDPad,CuDef*%
%ADD10C,0.220000*%
%TD*%
%TA.AperFunction,ConnectorPad*%
%ADD11C,0.787400*%
%TD*%
%TA.AperFunction,SMDPad,CuDef*%
%ADD12RoundRect,0.100000X-0.130000X-0.100000X0.130000X-0.100000X0.130000X0.100000X-0.130000X0.100000X0*%
%TD*%
%TA.AperFunction,SMDPad,CuDef*%
%ADD13RoundRect,0.140000X0.170000X-0.140000X0.170000X0.140000X-0.170000X0.140000X-0.170000X-0.140000X0*%
%TD*%
%TA.AperFunction,ComponentPad*%
%ADD14O,1.158000X2.158000*%
%TD*%
%TA.AperFunction,ComponentPad*%
%ADD15O,1.158000X2.458000*%
%TD*%
%TA.AperFunction,SMDPad,CuDef*%
%ADD16R,0.990600X2.006600*%
%TD*%
%TA.AperFunction,SMDPad,CuDef*%
%ADD17R,0.558800X1.092200*%
%TD*%
%TA.AperFunction,SMDPad,CuDef*%
%ADD18R,0.304800X1.041400*%
%TD*%
%TA.AperFunction,SMDPad,CuDef*%
%ADD19RoundRect,0.218750X0.218750X0.256250X-0.218750X0.256250X-0.218750X-0.256250X0.218750X-0.256250X0*%
%TD*%
%TA.AperFunction,SMDPad,CuDef*%
%ADD20RoundRect,0.100000X0.100000X-0.130000X0.100000X0.130000X-0.100000X0.130000X-0.100000X-0.130000X0*%
%TD*%
%TA.AperFunction,SMDPad,CuDef*%
%ADD21RoundRect,0.100000X-0.100000X0.130000X-0.100000X-0.130000X0.100000X-0.130000X0.100000X0.130000X0*%
%TD*%
%TA.AperFunction,SMDPad,CuDef*%
%ADD22RoundRect,0.100000X0.130000X0.100000X-0.130000X0.100000X-0.130000X-0.100000X0.130000X-0.100000X0*%
%TD*%
%TA.AperFunction,SMDPad,CuDef*%
%ADD23RoundRect,0.140000X0.140000X0.170000X-0.140000X0.170000X-0.140000X-0.170000X0.140000X-0.170000X0*%
%TD*%
%TA.AperFunction,SMDPad,CuDef*%
%ADD24RoundRect,0.140000X-0.140000X-0.170000X0.140000X-0.170000X0.140000X0.170000X-0.140000X0.170000X0*%
%TD*%
%TA.AperFunction,SMDPad,CuDef*%
%ADD25RoundRect,0.140000X-0.170000X0.140000X-0.170000X-0.140000X0.170000X-0.140000X0.170000X0.140000X0*%
%TD*%
%TA.AperFunction,SMDPad,CuDef*%
%ADD26RoundRect,0.381000X0.381000X-0.381000X0.381000X0.381000X-0.381000X0.381000X-0.381000X-0.381000X0*%
%TD*%
%TA.AperFunction,SMDPad,CuDef*%
%ADD27RoundRect,0.381000X-0.381000X-0.381000X0.381000X-0.381000X0.381000X0.381000X-0.381000X0.381000X0*%
%TD*%
%TA.AperFunction,SMDPad,CuDef*%
%ADD28R,1.000000X0.480000*%
%TD*%
%TA.AperFunction,SMDPad,CuDef*%
%ADD29C,0.500000*%
%TD*%
%TA.AperFunction,ViaPad*%
%ADD30C,0.200000*%
%TD*%
%TA.AperFunction,ViaPad*%
%ADD31C,0.650000*%
%TD*%
%TA.AperFunction,Conductor*%
%ADD32C,0.200000*%
%TD*%
%TA.AperFunction,Conductor*%
%ADD33C,0.350000*%
%TD*%
G04 APERTURE END LIST*
D10*
%TO.P,U1,A1,GND*%
%TO.N,GND*%
X146400000Y-104700000D03*
%TO.P,U1,A2,V+*%
%TO.N,+1V8*%
X146800000Y-104700000D03*
%TO.P,U1,A3,REFIN*%
%TO.N,Net-(C3-Pad1)*%
X147200000Y-104700000D03*
%TO.P,U1,A4,HPSENSE*%
%TO.N,Net-(C1-Pad2)*%
X147600000Y-104700000D03*
%TO.P,U1,A5,HPDRIVE*%
%TO.N,Net-(C1-Pad1)*%
X148000000Y-104700000D03*
%TO.P,U1,B1,~{SDN}*%
%TO.N,/~{shutdown}*%
X146400000Y-105100000D03*
%TO.P,U1,B2,AC/~{DC}*%
%TO.N,+1V8*%
X146800000Y-105100000D03*
%TO.P,U1,B3,FR*%
X147200000Y-105100000D03*
%TO.P,U1,B4,IAOUT*%
%TO.N,Net-(C2-Pad2)*%
X147600000Y-105100000D03*
%TO.P,U1,B5,IN+*%
%TO.N,Net-(R2-Pad1)*%
X148000000Y-105100000D03*
%TO.P,U1,C1,LOD*%
%TO.N,/lead-detect*%
X146400000Y-105500000D03*
%TO.P,U1,C2,RLD_~{SDN}*%
%TO.N,+1V8*%
X146800000Y-105500000D03*
%TO.P,U1,C3,REFOUT*%
%TO.N,Net-(C7-Pad1)*%
X147200000Y-105500000D03*
%TO.P,U1,C4,RLDFB*%
%TO.N,Net-(C4-Pad2)*%
X147600000Y-105500000D03*
%TO.P,U1,C5,IN-*%
%TO.N,Net-(R4-Pad1)*%
X148000000Y-105500000D03*
%TO.P,U1,D1,OUT*%
%TO.N,/ecg-out*%
X146400000Y-105900000D03*
%TO.P,U1,D2,OPAMP-*%
%TO.N,Net-(R13-Pad2)*%
X146800000Y-105900000D03*
%TO.P,U1,D3,OPMAMP+*%
%TO.N,Net-(C7-Pad2)*%
X147200000Y-105900000D03*
%TO.P,U1,D4,SW*%
%TO.N,Net-(C2-Pad1)*%
X147600000Y-105900000D03*
%TO.P,U1,D5,RLD*%
%TO.N,Net-(C4-Pad1)*%
X148000000Y-105900000D03*
%TD*%
D11*
%TO.P,J2,6,SWO*%
%TO.N,unconnected-(J2-Pad6)*%
X152020000Y-93865000D03*
%TO.P,J2,5,GND*%
%TO.N,GND*%
X152020000Y-95135000D03*
%TO.P,J2,4,SWCLK*%
%TO.N,Net-(J2-Pad4)*%
X150750000Y-93865000D03*
%TO.P,J2,3,~{RST}*%
%TO.N,unconnected-(J2-Pad3)*%
X150750000Y-95135000D03*
%TO.P,J2,2,SWDIO*%
%TO.N,Net-(J2-Pad2)*%
X149480000Y-93865000D03*
%TO.P,J2,1,VCC*%
%TO.N,+1V8*%
X149480000Y-95135000D03*
%TD*%
D12*
%TO.P,R3,1*%
%TO.N,+1V8*%
X133980000Y-97400000D03*
%TO.P,R3,2*%
%TO.N,/~{shutdown}*%
X134620000Y-97400000D03*
%TD*%
D13*
%TO.P,C6,2*%
%TO.N,GND*%
X144300000Y-102840000D03*
%TO.P,C6,1*%
%TO.N,+1V8*%
X144300000Y-103800000D03*
%TD*%
D14*
%TO.P,J6,*%
%TO.N,*%
X143419601Y-113170999D03*
D15*
X143420001Y-116996000D03*
D14*
X134779998Y-113170999D03*
D15*
X134779998Y-116996000D03*
D16*
X140499999Y-116996000D03*
X137700000Y-116996000D03*
D17*
%TO.P,J6,A12/B1,GND*%
%TO.N,GND*%
X142199999Y-112500000D03*
%TO.P,J6,A9/B4,VBUS*%
%TO.N,VBUS*%
X141450000Y-112500000D03*
D18*
%TO.P,J6,A8*%
%TO.N,N/C*%
X140849999Y-112500000D03*
%TO.P,J6,B5,CC2*%
%TO.N,Net-(J6-PadB5)*%
X140350000Y-112500000D03*
%TO.P,J6,A7,D-*%
%TO.N,unconnected-(J6-PadA7)*%
X139850001Y-112500000D03*
%TO.P,J6,B6,D+*%
%TO.N,unconnected-(J6-PadA6)*%
X139349999Y-112500000D03*
%TO.P,J6,A6,D+*%
X138850000Y-112500000D03*
%TO.P,J6,B7,D-*%
%TO.N,unconnected-(J6-PadA7)*%
X138349999Y-112500000D03*
%TO.P,J6,B8*%
%TO.N,N/C*%
X137850000Y-112500000D03*
%TO.P,J6,A5,CC1*%
%TO.N,Net-(J6-PadA5)*%
X137350001Y-112500000D03*
D17*
%TO.P,J6,A4/B9,VBUS*%
%TO.N,VBUS*%
X136749999Y-112500000D03*
%TO.P,J6,A1/B12,GND*%
%TO.N,GND*%
X136000000Y-112500000D03*
%TD*%
D12*
%TO.P,R15,1*%
%TO.N,GND*%
X135360000Y-110300000D03*
%TO.P,R15,2*%
%TO.N,Net-(J6-PadA5)*%
X136000000Y-110300000D03*
%TD*%
D19*
%TO.P,LED4,2,A*%
%TO.N,Net-(LED4-Pad2)*%
X138408299Y-107300000D03*
%TO.P,LED4,1,K*%
%TO.N,GND*%
X139983299Y-107300000D03*
%TD*%
D12*
%TO.P,R23,1*%
%TO.N,Net-(LED7-Pad2)*%
X133980000Y-96700000D03*
%TO.P,R23,2*%
%TO.N,/led7*%
X134620000Y-96700000D03*
%TD*%
%TO.P,R22,1*%
%TO.N,Net-(LED6-Pad2)*%
X133980000Y-98100000D03*
%TO.P,R22,2*%
%TO.N,/led6*%
X134620000Y-98100000D03*
%TD*%
%TO.P,R21,1*%
%TO.N,Net-(LED5-Pad2)*%
X133980000Y-98800000D03*
%TO.P,R21,2*%
%TO.N,/led5*%
X134620000Y-98800000D03*
%TD*%
%TO.P,R20,1*%
%TO.N,Net-(LED4-Pad2)*%
X133980000Y-95300000D03*
%TO.P,R20,2*%
%TO.N,/led4*%
X134620000Y-95300000D03*
%TD*%
%TO.P,R19,1*%
%TO.N,Net-(LED3-Pad2)*%
X133980000Y-94600000D03*
%TO.P,R19,2*%
%TO.N,/led3*%
X134620000Y-94600000D03*
%TD*%
%TO.P,R18,1*%
%TO.N,Net-(LED2-Pad2)*%
X133980000Y-93900000D03*
%TO.P,R18,2*%
%TO.N,/led2*%
X134620000Y-93900000D03*
%TD*%
D20*
%TO.P,R8,1*%
%TO.N,Net-(C3-Pad1)*%
X146400000Y-101920000D03*
%TO.P,R8,2*%
%TO.N,GND*%
X146400000Y-101280000D03*
%TD*%
D21*
%TO.P,R5,1*%
%TO.N,Net-(C3-Pad1)*%
X146400000Y-103180000D03*
%TO.P,R5,2*%
%TO.N,+1V8*%
X146400000Y-103820000D03*
%TD*%
D12*
%TO.P,R1,1*%
%TO.N,Net-(C2-Pad2)*%
X147480000Y-102700000D03*
%TO.P,R1,2*%
%TO.N,Net-(C1-Pad2)*%
X148120000Y-102700000D03*
%TD*%
%TO.P,R4,1*%
%TO.N,Net-(R4-Pad1)*%
X148880000Y-105700000D03*
%TO.P,R4,2*%
%TO.N,Net-(J3-Pad1)*%
X149520000Y-105700000D03*
%TD*%
%TO.P,R2,1*%
%TO.N,Net-(R2-Pad1)*%
X148880000Y-104800000D03*
%TO.P,R2,2*%
%TO.N,Net-(J1-Pad1)*%
X149520000Y-104800000D03*
%TD*%
D22*
%TO.P,R11,1*%
%TO.N,Net-(C7-Pad2)*%
X146420000Y-108600000D03*
%TO.P,R11,2*%
%TO.N,Net-(C8-Pad2)*%
X145780000Y-108600000D03*
%TD*%
D20*
%TO.P,R9,1*%
%TO.N,Net-(C4-Pad1)*%
X150400000Y-108520000D03*
%TO.P,R9,2*%
%TO.N,Net-(J4-Pad1)*%
X150400000Y-107880000D03*
%TD*%
D22*
%TO.P,R14,1*%
%TO.N,Net-(R13-Pad2)*%
X146120000Y-106700000D03*
%TO.P,R14,2*%
%TO.N,/ecg-out*%
X145480000Y-106700000D03*
%TD*%
D20*
%TO.P,R13,1*%
%TO.N,Net-(C7-Pad1)*%
X147000000Y-107420000D03*
%TO.P,R13,2*%
%TO.N,Net-(R13-Pad2)*%
X147000000Y-106780000D03*
%TD*%
D21*
%TO.P,R7,1*%
%TO.N,Net-(J1-Pad1)*%
X150400000Y-104980000D03*
%TO.P,R7,2*%
%TO.N,Net-(C4-Pad1)*%
X150400000Y-105620000D03*
%TD*%
D22*
%TO.P,R6,1*%
%TO.N,Net-(J3-Pad1)*%
X149520000Y-106600000D03*
%TO.P,R6,2*%
%TO.N,Net-(C4-Pad1)*%
X148880000Y-106600000D03*
%TD*%
%TO.P,R10,1*%
%TO.N,Net-(C2-Pad1)*%
X148120000Y-101800000D03*
%TO.P,R10,2*%
%TO.N,Net-(C8-Pad2)*%
X147480000Y-101800000D03*
%TD*%
D20*
%TO.P,R12,1*%
%TO.N,Net-(C7-Pad1)*%
X148000000Y-107420000D03*
%TO.P,R12,2*%
%TO.N,Net-(C2-Pad1)*%
X148000000Y-106780000D03*
%TD*%
D12*
%TO.P,R17,1*%
%TO.N,Net-(LED1-Pad2)*%
X133980000Y-96000000D03*
%TO.P,R17,2*%
%TO.N,/led1*%
X134620000Y-96000000D03*
%TD*%
D22*
%TO.P,R16,1*%
%TO.N,GND*%
X142840000Y-110300000D03*
%TO.P,R16,2*%
%TO.N,Net-(J6-PadB5)*%
X142200000Y-110300000D03*
%TD*%
D19*
%TO.P,LED7,2,A*%
%TO.N,Net-(LED7-Pad2)*%
X138408299Y-104300000D03*
%TO.P,LED7,1,K*%
%TO.N,GND*%
X139983299Y-104300000D03*
%TD*%
%TO.P,LED6,2,A*%
%TO.N,Net-(LED6-Pad2)*%
X138408299Y-102800000D03*
%TO.P,LED6,1,K*%
%TO.N,GND*%
X139983299Y-102800000D03*
%TD*%
%TO.P,LED5,2,A*%
%TO.N,Net-(LED5-Pad2)*%
X138408299Y-101300000D03*
%TO.P,LED5,1,K*%
%TO.N,GND*%
X139983299Y-101300000D03*
%TD*%
%TO.P,LED3,2,A*%
%TO.N,Net-(LED3-Pad2)*%
X138408299Y-108800000D03*
%TO.P,LED3,1,K*%
%TO.N,GND*%
X139983299Y-108800000D03*
%TD*%
%TO.P,LED2,2,A*%
%TO.N,Net-(LED2-Pad2)*%
X138408299Y-110300000D03*
%TO.P,LED2,1,K*%
%TO.N,GND*%
X139983299Y-110300000D03*
%TD*%
%TO.P,LED1,2,A*%
%TO.N,Net-(LED1-Pad2)*%
X138408299Y-105800000D03*
%TO.P,LED1,1,K*%
%TO.N,GND*%
X139983299Y-105800000D03*
%TD*%
D13*
%TO.P,C3,2*%
%TO.N,GND*%
X145400000Y-100920000D03*
%TO.P,C3,1*%
%TO.N,Net-(C3-Pad1)*%
X145400000Y-101880000D03*
%TD*%
%TO.P,C5,2*%
%TO.N,GND*%
X145400000Y-102820000D03*
%TO.P,C5,1*%
%TO.N,+1V8*%
X145400000Y-103780000D03*
%TD*%
D23*
%TO.P,C1,2*%
%TO.N,Net-(C1-Pad2)*%
X147320000Y-103700000D03*
%TO.P,C1,1*%
%TO.N,Net-(C1-Pad1)*%
X148280000Y-103700000D03*
%TD*%
%TO.P,C7,2*%
%TO.N,Net-(C7-Pad2)*%
X147420000Y-108500000D03*
%TO.P,C7,1*%
%TO.N,Net-(C7-Pad1)*%
X148380000Y-108500000D03*
%TD*%
D13*
%TO.P,C4,2*%
%TO.N,Net-(C4-Pad2)*%
X149400000Y-107540000D03*
%TO.P,C4,1*%
%TO.N,Net-(C4-Pad1)*%
X149400000Y-108500000D03*
%TD*%
D24*
%TO.P,C8,2*%
%TO.N,Net-(C8-Pad2)*%
X146100000Y-107600000D03*
%TO.P,C8,1*%
%TO.N,/ecg-out*%
X145140000Y-107600000D03*
%TD*%
D25*
%TO.P,C2,2*%
%TO.N,Net-(C2-Pad2)*%
X149200000Y-102780000D03*
%TO.P,C2,1*%
%TO.N,Net-(C2-Pad1)*%
X149200000Y-101820000D03*
%TD*%
D26*
%TO.P,J1,1,Pin_1*%
%TO.N,Net-(J1-Pad1)*%
X117700000Y-103600000D03*
%TD*%
D27*
%TO.P,J3,1,Pin_1*%
%TO.N,Net-(J3-Pad1)*%
X160400000Y-103600000D03*
%TD*%
D28*
%TO.P,MOD1,19,SWDCLK*%
%TO.N,Net-(J2-Pad4)*%
X142024201Y-93950000D03*
%TO.P,MOD1,18,SWDIO*%
%TO.N,Net-(J2-Pad2)*%
X142024201Y-94650000D03*
%TO.P,MOD1,17,Vadc*%
%TO.N,+1V8*%
X142024201Y-95350000D03*
%TO.P,MOD1,16,A1*%
%TO.N,/ecg-out*%
X142024201Y-96050000D03*
%TO.P,MOD1,15,A2*%
%TO.N,/lead-detect*%
X142024201Y-96750000D03*
%TO.P,MOD1,14,GND*%
%TO.N,GND*%
X142024201Y-97450000D03*
%TO.P,MOD1,13,Vio*%
%TO.N,unconnected-(MOD1-Pad13)*%
X142024201Y-98150000D03*
%TO.P,MOD1,12,Vaux*%
%TO.N,unconnected-(MOD1-Pad12)*%
X142024201Y-98850000D03*
%TO.P,MOD1,11,Vbattery*%
%TO.N,/Vbatt*%
X142024201Y-99550000D03*
%TO.P,MOD1,10,Vcharge*%
%TO.N,VBUS*%
X136224201Y-99550000D03*
%TO.P,MOD1,9,D5*%
%TO.N,/led5*%
X136224201Y-98850000D03*
%TO.P,MOD1,8,D6*%
%TO.N,/led6*%
X136224201Y-98150000D03*
%TO.P,MOD1,7,D8*%
%TO.N,/~{shutdown}*%
X136224201Y-97450000D03*
%TO.P,MOD1,6,D7*%
%TO.N,/led7*%
X136224201Y-96750000D03*
%TO.P,MOD1,5,D1*%
%TO.N,/led1*%
X136224201Y-96050000D03*
%TO.P,MOD1,4,D4*%
%TO.N,/led4*%
X136224201Y-95350000D03*
%TO.P,MOD1,3,D3*%
%TO.N,/led3*%
X136224201Y-94650000D03*
%TO.P,MOD1,1,GND*%
%TO.N,GND*%
X136224201Y-93250000D03*
%TO.P,MOD1,2,D2*%
%TO.N,/led2*%
X136224201Y-93950000D03*
%TO.P,MOD1,20,GND*%
%TO.N,GND*%
X142024201Y-93250000D03*
%TD*%
D29*
%TO.P,FID5,*%
%TO.N,*%
X120100000Y-89300000D03*
%TD*%
%TO.P,FID4,*%
%TO.N,*%
X158200000Y-117900000D03*
%TD*%
D30*
%TO.N,Net-(C2-Pad2)*%
X147600000Y-105100000D03*
X147480000Y-102700000D03*
%TO.N,Net-(C4-Pad2)*%
X149400000Y-107500006D03*
X147600000Y-105500000D03*
%TO.N,Net-(C4-Pad1)*%
X150400000Y-105700000D03*
X148880000Y-106599940D03*
D31*
%TO.N,GND*%
X122300000Y-89400000D03*
X129300000Y-89400000D03*
X143200000Y-97500000D03*
X135375000Y-111225000D03*
X145700000Y-104700000D03*
X135100000Y-93100000D03*
X143200000Y-93200000D03*
X148800000Y-89400000D03*
X147300000Y-100800000D03*
X123750000Y-100400000D03*
X141300000Y-109500000D03*
X141300000Y-106600000D03*
X141500000Y-102600000D03*
X120300000Y-91700000D03*
X120300000Y-107700000D03*
X122300000Y-117700000D03*
X120300000Y-115700000D03*
X120300000Y-99700000D03*
X129300000Y-117700000D03*
X155300000Y-117700000D03*
X147300000Y-117700000D03*
X155100000Y-89400000D03*
X157900000Y-92000000D03*
X157900000Y-99700000D03*
X157900000Y-107500000D03*
X157900000Y-115500000D03*
X142200000Y-111300000D03*
X139975000Y-111350000D03*
X139100000Y-117700000D03*
X151200000Y-103500000D03*
X150850000Y-107050000D03*
X146400000Y-109500000D03*
X150500000Y-109500000D03*
X144300000Y-106600000D03*
X144250000Y-101650000D03*
X150400000Y-101500000D03*
X148900000Y-113400000D03*
X154800000Y-102000000D03*
X154800000Y-112600000D03*
X125200000Y-111600000D03*
X130300000Y-93600000D03*
X142700000Y-115000000D03*
X135500000Y-115000000D03*
X151400000Y-92700000D03*
X134150000Y-110300000D03*
X143200000Y-98675000D03*
X142100000Y-92200000D03*
X142100000Y-90800000D03*
X142100000Y-89400000D03*
X136200000Y-90800000D03*
X136200000Y-92200000D03*
X136200000Y-89400000D03*
X157900000Y-105000000D03*
X125000000Y-98000000D03*
X122400000Y-98000000D03*
X139150000Y-102050000D03*
X139150000Y-103550000D03*
X141500000Y-103600000D03*
X125000000Y-103400000D03*
X127600000Y-101400000D03*
X146500000Y-94500000D03*
X151400000Y-96300000D03*
X154400000Y-94500000D03*
X148700000Y-98500000D03*
X125700000Y-92900000D03*
X128200000Y-103400000D03*
D30*
%TO.N,+1V8*%
X145000000Y-103800000D03*
X145250000Y-103900000D03*
X145550000Y-103650000D03*
X145250000Y-103650000D03*
X144150000Y-103950000D03*
X144450000Y-103950000D03*
X144450000Y-103650000D03*
X144150000Y-103650000D03*
D31*
X143200000Y-95399994D03*
D30*
X144700000Y-103800000D03*
D31*
X144200000Y-95400000D03*
X145200000Y-95400000D03*
D30*
X134000000Y-97400000D03*
%TO.N,Net-(C7-Pad1)*%
X147200000Y-105500000D03*
X147000000Y-107420000D03*
X148000000Y-107420000D03*
D31*
%TO.N,Net-(J1-Pad1)*%
X118400000Y-104900000D03*
X151400000Y-104900000D03*
D30*
%TO.N,Net-(C2-Pad1)*%
X148000000Y-106500000D03*
X148120000Y-101800000D03*
%TO.N,Net-(C8-Pad2)*%
X147500000Y-101800000D03*
X146099982Y-107600000D03*
D31*
%TO.N,/ecg-out*%
X150700000Y-112100000D03*
%TO.N,Net-(J4-Pad1)*%
X151700000Y-107900000D03*
%TO.N,/Vbatt*%
X141400000Y-100700000D03*
X141400000Y-101300000D03*
%TO.N,VBUS*%
X139000000Y-113600000D03*
X137400000Y-113600000D03*
X138200000Y-113600000D03*
X134600000Y-99600000D03*
X135200000Y-99600000D03*
D30*
%TO.N,/led2*%
X134600000Y-93900000D03*
D31*
X129100000Y-108600000D03*
D30*
%TO.N,/led3*%
X134600000Y-94600000D03*
D31*
X129850000Y-110700000D03*
D30*
%TO.N,/led4*%
X134600000Y-95300000D03*
D31*
X130600000Y-112800000D03*
D30*
%TO.N,/led1*%
X134600000Y-96000000D03*
D31*
X131350000Y-106500000D03*
D30*
%TO.N,/~{shutdown}*%
X146399988Y-105100000D03*
X135900000Y-97450000D03*
%TO.N,/lead-detect*%
X142300000Y-96700000D03*
X144300000Y-105000000D03*
%TD*%
D32*
%TO.N,Net-(C1-Pad2)*%
X147600000Y-103980000D02*
X147320000Y-103700000D01*
X147600000Y-104700000D02*
X147600000Y-103980000D01*
X148100000Y-102825000D02*
X147320000Y-103605000D01*
X147320000Y-103605000D02*
X147320000Y-103700000D01*
X148100000Y-102700000D02*
X148100000Y-102825000D01*
%TO.N,Net-(C1-Pad1)*%
X148000000Y-104700000D02*
X148300000Y-104400000D01*
X148300000Y-104400000D02*
X148300000Y-103800000D01*
%TO.N,Net-(C2-Pad2)*%
X147650000Y-102250000D02*
X148670000Y-102250000D01*
X147480000Y-102420000D02*
X147650000Y-102250000D01*
X148670000Y-102250000D02*
X149200000Y-102780000D01*
X147480000Y-102700000D02*
X147480000Y-102420000D01*
%TO.N,Net-(C3-Pad1)*%
X145400000Y-101880000D02*
X146380000Y-101880000D01*
X146400000Y-103180000D02*
X146400000Y-101900000D01*
X146825000Y-103525000D02*
X146500000Y-103200000D01*
X146825000Y-104025000D02*
X146825000Y-103525000D01*
X147200000Y-104700000D02*
X147200000Y-104400000D01*
X147200000Y-104400000D02*
X146825000Y-104025000D01*
%TO.N,Net-(C4-Pad2)*%
X147600000Y-105500000D02*
X147600000Y-105499974D01*
X149400000Y-107500000D02*
X149400000Y-107500006D01*
%TO.N,Net-(C4-Pad1)*%
X149400000Y-108500000D02*
X150400000Y-108500000D01*
X148800000Y-107900000D02*
X149400000Y-108500000D01*
X148800000Y-106680000D02*
X148800000Y-107900000D01*
X148880000Y-106600000D02*
X148800000Y-106680000D01*
X148900000Y-106600000D02*
X148880060Y-106600000D01*
X148880060Y-106600000D02*
X148880000Y-106599940D01*
X148880000Y-106580000D02*
X148880000Y-106599940D01*
X148200000Y-105900000D02*
X148880000Y-106580000D01*
X148000000Y-105900000D02*
X148200000Y-105900000D01*
%TO.N,GND*%
X146400000Y-104700000D02*
X145700000Y-104700000D01*
D33*
X144300000Y-102800000D02*
X145400000Y-102800000D01*
D32*
%TO.N,+1V8*%
X146800000Y-104700000D02*
X146800000Y-105100000D01*
X147200000Y-105100000D02*
X146800000Y-105100000D01*
X146800000Y-105100000D02*
X146800000Y-105500000D01*
D33*
X146400000Y-103820000D02*
X145420000Y-103820000D01*
X142124201Y-95350000D02*
X142174195Y-95399994D01*
X142174195Y-95399994D02*
X143200000Y-95399994D01*
D32*
X146400000Y-104100000D02*
X146400000Y-104000000D01*
X146800000Y-104500000D02*
X146400000Y-104100000D01*
X146800000Y-104700000D02*
X146800000Y-104500000D01*
D33*
X144300000Y-103800000D02*
X144700000Y-103800000D01*
D32*
X145000000Y-103800000D02*
X145100000Y-103800000D01*
D33*
X144700000Y-103800000D02*
X145000000Y-103800000D01*
X145000000Y-103800000D02*
X145399994Y-103800000D01*
D32*
X145400000Y-103799994D02*
X145399994Y-103800000D01*
X145400000Y-103780000D02*
X145400000Y-103799994D01*
D33*
X145200000Y-95400000D02*
X145300000Y-95400000D01*
X145199994Y-95399994D02*
X145200000Y-95400000D01*
X143200000Y-95399994D02*
X145199994Y-95399994D01*
D32*
X133980000Y-97400000D02*
X134000000Y-97400000D01*
X149015000Y-95600000D02*
X149480000Y-95135000D01*
X145200000Y-95400000D02*
X145400000Y-95600000D01*
X145400000Y-95600000D02*
X149015000Y-95600000D01*
%TO.N,Net-(C7-Pad1)*%
X148380000Y-107780000D02*
X148380000Y-108500000D01*
X148020000Y-107420000D02*
X148380000Y-107780000D01*
X148000000Y-107420000D02*
X148020000Y-107420000D01*
%TO.N,Net-(J3-Pad1)*%
X149520000Y-106600000D02*
X149520000Y-106580000D01*
D33*
X159820000Y-106180000D02*
X160400000Y-105600000D01*
X149940000Y-106180000D02*
X159820000Y-106180000D01*
X160400000Y-105600000D02*
X160400000Y-103600000D01*
X149520000Y-106600000D02*
X149940000Y-106180000D01*
X149520000Y-105760000D02*
X149940000Y-106180000D01*
X149520000Y-105700000D02*
X149520000Y-105760000D01*
D32*
%TO.N,Net-(LED1-Pad2)*%
X132600000Y-101000000D02*
X137400000Y-105800000D01*
X137400000Y-105800000D02*
X138400000Y-105800000D01*
X132600000Y-97300000D02*
X132600000Y-101000000D01*
X133900000Y-96000000D02*
X132600000Y-97300000D01*
X133980000Y-96000000D02*
X133900000Y-96000000D01*
%TO.N,Net-(LED2-Pad2)*%
X131400000Y-103300000D02*
X138400000Y-110300000D01*
X133800000Y-93900000D02*
X131400000Y-96300000D01*
X131400000Y-96300000D02*
X131400000Y-103300000D01*
X133980000Y-93900000D02*
X133800000Y-93900000D01*
%TO.N,Net-(LED3-Pad2)*%
X131800000Y-102300000D02*
X138300000Y-108800000D01*
X133800000Y-94600000D02*
X131800000Y-96600000D01*
X138300000Y-108800000D02*
X138400000Y-108800000D01*
X131800000Y-96600000D02*
X131800000Y-102300000D01*
X133980000Y-94600000D02*
X133800000Y-94600000D01*
%TO.N,Net-(LED4-Pad2)*%
X138000000Y-107300000D02*
X138332291Y-107300000D01*
X132200000Y-101500000D02*
X138000000Y-107300000D01*
X132200000Y-96990000D02*
X132200000Y-101500000D01*
X133890000Y-95300000D02*
X132200000Y-96990000D01*
X133980000Y-95300000D02*
X133890000Y-95300000D01*
%TO.N,Net-(LED5-Pad2)*%
X133900000Y-99917804D02*
X135282196Y-101300000D01*
X133900000Y-98880000D02*
X133900000Y-99917804D01*
X135282196Y-101300000D02*
X138400000Y-101300000D01*
X133980000Y-98800000D02*
X133900000Y-98880000D01*
%TO.N,Net-(LED6-Pad2)*%
X135900000Y-102700000D02*
X138300000Y-102700000D01*
X133400000Y-98500000D02*
X133400000Y-100200000D01*
X133400000Y-100200000D02*
X135900000Y-102700000D01*
X133800000Y-98100000D02*
X133400000Y-98500000D01*
X133980000Y-98100000D02*
X133800000Y-98100000D01*
%TO.N,Net-(LED7-Pad2)*%
X138400000Y-104300000D02*
X138500000Y-104400000D01*
X136700000Y-104300000D02*
X138400000Y-104300000D01*
X133000000Y-100600000D02*
X136700000Y-104300000D01*
X133000000Y-97680000D02*
X133000000Y-100600000D01*
X133980000Y-96700000D02*
X133000000Y-97680000D01*
%TO.N,Net-(J1-Pad1)*%
X118400000Y-103700000D02*
X118400000Y-103900000D01*
X151320000Y-104980000D02*
X151400000Y-104900000D01*
X150400000Y-104980000D02*
X151320000Y-104980000D01*
X149520000Y-104800000D02*
X149620000Y-104900000D01*
X149620000Y-104900000D02*
X150400000Y-104900000D01*
%TO.N,Net-(C2-Pad1)*%
X149180000Y-101800000D02*
X149200000Y-101820000D01*
X148120000Y-101800000D02*
X149180000Y-101800000D01*
X148000000Y-106500000D02*
X148000000Y-106780000D01*
X147600000Y-106100000D02*
X148000000Y-106500000D01*
X147600000Y-105900000D02*
X147600000Y-106100000D01*
%TO.N,Net-(C7-Pad2)*%
X147320000Y-108600000D02*
X146400000Y-108600000D01*
X147420000Y-108500000D02*
X147320000Y-108600000D01*
X147450000Y-106450000D02*
X147450000Y-108500000D01*
X147450000Y-108500000D02*
X147420000Y-108500000D01*
X147200000Y-106200000D02*
X147450000Y-106450000D01*
X147200000Y-105900000D02*
X147200000Y-106200000D01*
%TO.N,Net-(C8-Pad2)*%
X145780000Y-108600000D02*
X145780000Y-108519972D01*
X146199986Y-107700004D02*
X146099982Y-107600000D01*
X145780000Y-107919982D02*
X146099982Y-107600000D01*
X145780000Y-108600000D02*
X145780000Y-107919982D01*
%TO.N,/ecg-out*%
X145140000Y-107060000D02*
X145140000Y-107600000D01*
X145500000Y-106700000D02*
X145140000Y-107060000D01*
X145500000Y-106400000D02*
X145500000Y-106700000D01*
X146400000Y-105900000D02*
X146000000Y-105900000D01*
X145500000Y-106400000D02*
X146000000Y-105900000D01*
X147800000Y-112100000D02*
X150700000Y-112100000D01*
X145140000Y-109440000D02*
X147800000Y-112100000D01*
X145140000Y-107600000D02*
X145140000Y-109440000D01*
X144500000Y-105900000D02*
X146000000Y-105900000D01*
X143000000Y-104400000D02*
X144500000Y-105900000D01*
X144050000Y-97300000D02*
X144050000Y-100450000D01*
X142800000Y-96050000D02*
X144050000Y-97300000D01*
X143000000Y-101500000D02*
X143000000Y-104400000D01*
X144050000Y-100450000D02*
X143000000Y-101500000D01*
X142124201Y-96050000D02*
X142800000Y-96050000D01*
%TO.N,Net-(J2-Pad4)*%
X142124201Y-93950000D02*
X144150000Y-93950000D01*
X149685000Y-92800000D02*
X150750000Y-93865000D01*
X145300000Y-92800000D02*
X149685000Y-92800000D01*
X144150000Y-93950000D02*
X145300000Y-92800000D01*
%TO.N,Net-(J2-Pad2)*%
X142124201Y-94650000D02*
X144450000Y-94650000D01*
X144450000Y-94650000D02*
X145700000Y-93400000D01*
X149015000Y-93400000D02*
X149480000Y-93865000D01*
X145700000Y-93400000D02*
X149015000Y-93400000D01*
%TO.N,Net-(J4-Pad1)*%
X150400000Y-107900000D02*
X151700000Y-107900000D01*
D33*
X151680000Y-107880000D02*
X151700000Y-107900000D01*
X150400000Y-107880000D02*
X151680000Y-107880000D01*
%TO.N,/Vbatt*%
X142000000Y-99600000D02*
X142000000Y-100100000D01*
X141400000Y-101300000D02*
X141400000Y-100700000D01*
X141400000Y-100700000D02*
X142000000Y-100100000D01*
%TO.N,VBUS*%
X140850000Y-113600000D02*
X136953899Y-113600000D01*
X141450000Y-112550000D02*
X141450000Y-113000000D01*
X141450000Y-113000000D02*
X140850000Y-113600000D01*
X136749999Y-112500000D02*
X136749999Y-113396100D01*
X136749999Y-113396100D02*
X136953899Y-113600000D01*
X134650000Y-99550000D02*
X134600000Y-99600000D01*
X136124201Y-99550000D02*
X134650000Y-99550000D01*
D32*
%TO.N,Net-(J6-PadA5)*%
X137350001Y-111650001D02*
X136000000Y-110300000D01*
X137350001Y-112500000D02*
X137350001Y-111650001D01*
%TO.N,Net-(J6-PadB5)*%
X142050000Y-110300000D02*
X142200000Y-110300000D01*
X140350000Y-112000000D02*
X142050000Y-110300000D01*
X140350000Y-112500000D02*
X140350000Y-112000000D01*
%TO.N,/led2*%
X134620000Y-93900000D02*
X136200000Y-93900000D01*
X134650000Y-93950000D02*
X134600000Y-93900000D01*
X136124201Y-93950000D02*
X134650000Y-93950000D01*
%TO.N,/led3*%
X134620000Y-94600000D02*
X136100000Y-94600000D01*
X136124201Y-94650000D02*
X134650000Y-94650000D01*
X134650000Y-94650000D02*
X134600000Y-94600000D01*
%TO.N,/led4*%
X134620000Y-95300000D02*
X136100000Y-95300000D01*
X134650000Y-95350000D02*
X134600000Y-95300000D01*
X136124201Y-95350000D02*
X134650000Y-95350000D01*
%TO.N,/led1*%
X134620000Y-96000000D02*
X136100000Y-96000000D01*
%TO.N,/led7*%
X134620000Y-96700000D02*
X136200000Y-96700000D01*
%TO.N,/~{shutdown}*%
X136074201Y-97400000D02*
X136124201Y-97450000D01*
X134620000Y-97400000D02*
X136074201Y-97400000D01*
X136200000Y-97500000D02*
X135950000Y-97500000D01*
X135950000Y-97500000D02*
X135900000Y-97450000D01*
%TO.N,/led6*%
X134620000Y-98100000D02*
X136200000Y-98100000D01*
%TO.N,/led5*%
X134620000Y-98800000D02*
X136200000Y-98800000D01*
%TO.N,/lead-detect*%
X146400000Y-105500000D02*
X144800000Y-105500000D01*
X144800000Y-105500000D02*
X144300000Y-105000000D01*
%TO.N,Net-(R2-Pad1)*%
X148500000Y-104800000D02*
X148900000Y-104800000D01*
X148000000Y-105100000D02*
X148200000Y-105100000D01*
X148200000Y-105100000D02*
X148500000Y-104800000D01*
%TO.N,Net-(R4-Pad1)*%
X148000000Y-105500000D02*
X148300000Y-105500000D01*
X148300000Y-105500000D02*
X148500000Y-105700000D01*
X148500000Y-105700000D02*
X148900000Y-105700000D01*
%TO.N,Net-(R13-Pad2)*%
X147000000Y-106800000D02*
X146900000Y-106700000D01*
X146900000Y-106700000D02*
X146120000Y-106700000D01*
X146600000Y-106400000D02*
X146600000Y-106700000D01*
X146800000Y-106200000D02*
X146600000Y-106400000D01*
X146800000Y-105900000D02*
X146800000Y-106200000D01*
%TD*%
%TA.AperFunction,Conductor*%
%TO.N,Net-(J1-Pad1)*%
G36*
X119259191Y-88818907D02*
G01*
X119295155Y-88868407D01*
X119300000Y-88899000D01*
X119300000Y-118301000D01*
X119281093Y-118359191D01*
X119231593Y-118395155D01*
X119201000Y-118400000D01*
X114136238Y-118400000D01*
X114118402Y-118398380D01*
X114102017Y-118395379D01*
X114093481Y-118396826D01*
X114093474Y-118396826D01*
X114088899Y-118397602D01*
X114069149Y-118398943D01*
X113342769Y-118375419D01*
X113337707Y-118375125D01*
X112767443Y-118327182D01*
X112583290Y-118311700D01*
X112578223Y-118311142D01*
X112306804Y-118274172D01*
X111828089Y-118208967D01*
X111823073Y-118208151D01*
X111079187Y-118067495D01*
X111074215Y-118066421D01*
X110338580Y-117887661D01*
X110333657Y-117886331D01*
X109608162Y-117669928D01*
X109603316Y-117668345D01*
X109474374Y-117622533D01*
X108889954Y-117414894D01*
X108885201Y-117413066D01*
X108185804Y-117123214D01*
X108181201Y-117121167D01*
X107497624Y-116795682D01*
X107493086Y-116793375D01*
X106827234Y-116433167D01*
X106822814Y-116430627D01*
X106560200Y-116270559D01*
X106176349Y-116036595D01*
X106172104Y-116033855D01*
X105546787Y-115607072D01*
X105542652Y-115604091D01*
X105189193Y-115335171D01*
X104940149Y-115145692D01*
X104936194Y-115142520D01*
X104358058Y-114653690D01*
X104354271Y-114650317D01*
X103802079Y-114132383D01*
X103798466Y-114128815D01*
X103273652Y-113583126D01*
X103270256Y-113579408D01*
X102774253Y-113007452D01*
X102771013Y-113003516D01*
X102507820Y-112666417D01*
X102305108Y-112406782D01*
X102302081Y-112402692D01*
X101867528Y-111782785D01*
X101864710Y-111778537D01*
X101462631Y-111137063D01*
X101460036Y-111132675D01*
X101091518Y-110471359D01*
X101089157Y-110466853D01*
X100755178Y-109787458D01*
X100753047Y-109782826D01*
X100454479Y-109087122D01*
X100452590Y-109082387D01*
X100190236Y-108372249D01*
X100188593Y-108367423D01*
X99963145Y-107644728D01*
X99961752Y-107639824D01*
X99773802Y-106906457D01*
X99772664Y-106901488D01*
X99622714Y-106159415D01*
X99621834Y-106154393D01*
X99601492Y-106017844D01*
X99510289Y-105405619D01*
X99509669Y-105400574D01*
X99436814Y-104646999D01*
X99436455Y-104641913D01*
X99402492Y-103885645D01*
X99402394Y-103880548D01*
X99407407Y-103123500D01*
X99407572Y-103118405D01*
X99451550Y-102362629D01*
X99451977Y-102357549D01*
X99534804Y-101605039D01*
X99535492Y-101599987D01*
X99656950Y-100852718D01*
X99657898Y-100847709D01*
X99817652Y-100107735D01*
X99818855Y-100102781D01*
X100016508Y-99371948D01*
X100017966Y-99367063D01*
X100252959Y-98647436D01*
X100254665Y-98642632D01*
X100526409Y-97936013D01*
X100528361Y-97931303D01*
X100640475Y-97679323D01*
X100836123Y-97239601D01*
X100838299Y-97235032D01*
X101181260Y-96560095D01*
X101183685Y-96555612D01*
X101560923Y-95899249D01*
X101563576Y-95894896D01*
X101974107Y-95258813D01*
X101976981Y-95254602D01*
X102419715Y-94640494D01*
X102422802Y-94636437D01*
X102512429Y-94524724D01*
X102896561Y-94045936D01*
X102899828Y-94042071D01*
X103403387Y-93476709D01*
X103406868Y-93472999D01*
X103938836Y-92934335D01*
X103942491Y-92930821D01*
X104501479Y-92420261D01*
X104505318Y-92416932D01*
X105089862Y-91935814D01*
X105093881Y-91932676D01*
X105702408Y-91482295D01*
X105706582Y-91479369D01*
X106337466Y-91060925D01*
X106341786Y-91058217D01*
X106993397Y-90672791D01*
X106997850Y-90670310D01*
X107668442Y-90318937D01*
X107672946Y-90316722D01*
X108360787Y-90000314D01*
X108365453Y-89998312D01*
X108834918Y-89810998D01*
X109068613Y-89717755D01*
X109073381Y-89715994D01*
X109790065Y-89472002D01*
X109794927Y-89470485D01*
X110523190Y-89263720D01*
X110528129Y-89262454D01*
X111266094Y-89093448D01*
X111271090Y-89092439D01*
X112016738Y-88961652D01*
X112021781Y-88960900D01*
X112773234Y-88868666D01*
X112778284Y-88868178D01*
X113533461Y-88814750D01*
X113538530Y-88814523D01*
X114265170Y-88800622D01*
X114284894Y-88802224D01*
X114297983Y-88804621D01*
X114306520Y-88803174D01*
X114306521Y-88803174D01*
X114312125Y-88802224D01*
X114317035Y-88801392D01*
X114333577Y-88800000D01*
X119201000Y-88800000D01*
X119259191Y-88818907D01*
G37*
%TD.AperFunction*%
%TD*%
%TA.AperFunction,Conductor*%
%TO.N,Net-(J3-Pad1)*%
G36*
X164277132Y-88800802D02*
G01*
X164297983Y-88804621D01*
X164316061Y-88801556D01*
X164325826Y-88800894D01*
X164806468Y-88816460D01*
X165058496Y-88824622D01*
X165061015Y-88824768D01*
X165446397Y-88857167D01*
X165817996Y-88888408D01*
X165820485Y-88888682D01*
X166573179Y-88991206D01*
X166575670Y-88991611D01*
X167322084Y-89132746D01*
X167324550Y-89133279D01*
X167681376Y-89219988D01*
X168062691Y-89312647D01*
X168065095Y-89313297D01*
X168793086Y-89530444D01*
X168795460Y-89531220D01*
X169153359Y-89658379D01*
X169511246Y-89785533D01*
X169513601Y-89786438D01*
X170215373Y-90077274D01*
X170217678Y-90078300D01*
X170305214Y-90119980D01*
X170903528Y-90404867D01*
X170905759Y-90406000D01*
X171573920Y-90767457D01*
X171576090Y-90768705D01*
X171839800Y-90929441D01*
X172224727Y-91164061D01*
X172226847Y-91165429D01*
X172854290Y-91593663D01*
X172856336Y-91595139D01*
X173460865Y-92055079D01*
X173462834Y-92056658D01*
X174042913Y-92547131D01*
X174044797Y-92548809D01*
X174598853Y-93068491D01*
X174600648Y-93070264D01*
X175127207Y-93617767D01*
X175128909Y-93619630D01*
X175626615Y-94193548D01*
X175628186Y-94195458D01*
X176095668Y-94794212D01*
X176097170Y-94796240D01*
X176533224Y-95418287D01*
X176534618Y-95420390D01*
X176938046Y-96064018D01*
X176939331Y-96066190D01*
X177309102Y-96729754D01*
X177310273Y-96731989D01*
X177645390Y-97413699D01*
X177646444Y-97415992D01*
X177946025Y-98114055D01*
X177946961Y-98116398D01*
X178210213Y-98828965D01*
X178211023Y-98831346D01*
X178437249Y-99556535D01*
X178437926Y-99558921D01*
X178553250Y-100008904D01*
X178626519Y-100294797D01*
X178627082Y-100297257D01*
X178777538Y-101041830D01*
X178777974Y-101044315D01*
X178889899Y-101795647D01*
X178890207Y-101798152D01*
X178962948Y-102550532D01*
X178963309Y-102554269D01*
X178963487Y-102556786D01*
X178997567Y-103315656D01*
X178997615Y-103318179D01*
X178992584Y-104077795D01*
X178992502Y-104080316D01*
X178948376Y-104838649D01*
X178948165Y-104841158D01*
X178880964Y-105451707D01*
X178865054Y-105596253D01*
X178864713Y-105598753D01*
X178742849Y-106348523D01*
X178742381Y-106351002D01*
X178582073Y-107093542D01*
X178581479Y-107095986D01*
X178383157Y-107829292D01*
X178382435Y-107831710D01*
X178146642Y-108553787D01*
X178145798Y-108556165D01*
X177873129Y-109265188D01*
X177872163Y-109267519D01*
X177563361Y-109961559D01*
X177562276Y-109963837D01*
X177218160Y-110641048D01*
X177216964Y-110643258D01*
X176974232Y-111065593D01*
X176838433Y-111301872D01*
X176837120Y-111304026D01*
X176425189Y-111942278D01*
X176423766Y-111944362D01*
X175979549Y-112560527D01*
X175978022Y-112562536D01*
X175502633Y-113155069D01*
X175501003Y-113156996D01*
X174995768Y-113724239D01*
X174994042Y-113726079D01*
X174460278Y-114266562D01*
X174458459Y-114268311D01*
X173897558Y-114780617D01*
X173895652Y-114782270D01*
X173309145Y-115265003D01*
X173307156Y-115266556D01*
X172696563Y-115718468D01*
X172694497Y-115719916D01*
X172061470Y-116139781D01*
X172059332Y-116141122D01*
X171405499Y-116527862D01*
X171403299Y-116529088D01*
X170730430Y-116881654D01*
X170728165Y-116882767D01*
X170038059Y-117200217D01*
X170035740Y-117201212D01*
X169330194Y-117482721D01*
X169327842Y-117483590D01*
X169210637Y-117523492D01*
X168608717Y-117728413D01*
X168606308Y-117729164D01*
X167875560Y-117936635D01*
X167873116Y-117937261D01*
X167380933Y-118049979D01*
X167132658Y-118106838D01*
X167130195Y-118107336D01*
X166381985Y-118238572D01*
X166379492Y-118238944D01*
X165625508Y-118331489D01*
X165623007Y-118331730D01*
X165320673Y-118353120D01*
X164865258Y-118385340D01*
X164862737Y-118385453D01*
X164412478Y-118394067D01*
X164129808Y-118399474D01*
X164120046Y-118398681D01*
X164102017Y-118395379D01*
X164097793Y-118396095D01*
X164097790Y-118396095D01*
X164078819Y-118399311D01*
X164070630Y-118400000D01*
X159049000Y-118400000D01*
X159014352Y-118385648D01*
X159000000Y-118351000D01*
X159000000Y-88849000D01*
X159014352Y-88814352D01*
X159049000Y-88800000D01*
X164268304Y-88800000D01*
X164277132Y-88800802D01*
G37*
%TD.AperFunction*%
%TD*%
%TA.AperFunction,Conductor*%
%TO.N,GND*%
G36*
X136759191Y-88818907D02*
G01*
X136795155Y-88868407D01*
X136800000Y-88899000D01*
X136800000Y-92611000D01*
X136781093Y-92669191D01*
X136731593Y-92705155D01*
X136701000Y-92710000D01*
X136389881Y-92710000D01*
X136377196Y-92714122D01*
X136374201Y-92718243D01*
X136374201Y-93301000D01*
X136355294Y-93359191D01*
X136305794Y-93395155D01*
X136275201Y-93400000D01*
X135439881Y-93400000D01*
X135427196Y-93404122D01*
X135424109Y-93408370D01*
X135422982Y-93415486D01*
X135419510Y-93414936D01*
X135405294Y-93458691D01*
X135355794Y-93494655D01*
X135325201Y-93499500D01*
X135056356Y-93499500D01*
X134998167Y-93480594D01*
X134993848Y-93477456D01*
X134988342Y-93471950D01*
X134875304Y-93414354D01*
X134867610Y-93413135D01*
X134867609Y-93413135D01*
X134785365Y-93400109D01*
X134785363Y-93400109D01*
X134781519Y-93399500D01*
X134620021Y-93399500D01*
X134458482Y-93399501D01*
X134454639Y-93400110D01*
X134454634Y-93400110D01*
X134417783Y-93405947D01*
X134364696Y-93414354D01*
X134357758Y-93417889D01*
X134357755Y-93417890D01*
X134344946Y-93424417D01*
X134284514Y-93433989D01*
X134255054Y-93424417D01*
X134242246Y-93417891D01*
X134242245Y-93417891D01*
X134235304Y-93414354D01*
X134227610Y-93413135D01*
X134227609Y-93413135D01*
X134145365Y-93400109D01*
X134145363Y-93400109D01*
X134141519Y-93399500D01*
X133980021Y-93399500D01*
X133818482Y-93399501D01*
X133814639Y-93400110D01*
X133814634Y-93400110D01*
X133777783Y-93405947D01*
X133724696Y-93414354D01*
X133668177Y-93443152D01*
X133618597Y-93468414D01*
X133618595Y-93468415D01*
X133611658Y-93471950D01*
X133521950Y-93561658D01*
X133477128Y-93649626D01*
X133458923Y-93674684D01*
X131094516Y-96039091D01*
X131094513Y-96039095D01*
X131071950Y-96061658D01*
X131060998Y-96083154D01*
X131052884Y-96096393D01*
X131038704Y-96115910D01*
X131036296Y-96123321D01*
X131031248Y-96138857D01*
X131025305Y-96153203D01*
X131014354Y-96174696D01*
X131013136Y-96182389D01*
X131013135Y-96182391D01*
X131010581Y-96198519D01*
X131006956Y-96213620D01*
X130999500Y-96236567D01*
X130999500Y-103363433D01*
X131006955Y-103386375D01*
X131010581Y-103401481D01*
X131011571Y-103407729D01*
X131014354Y-103425304D01*
X131025305Y-103446797D01*
X131031248Y-103461143D01*
X131038704Y-103484090D01*
X131043285Y-103490395D01*
X131052883Y-103503605D01*
X131060998Y-103516846D01*
X131071950Y-103538342D01*
X131094513Y-103560905D01*
X131094516Y-103560909D01*
X137641303Y-110107696D01*
X137669080Y-110162213D01*
X137670299Y-110177700D01*
X137670299Y-110596594D01*
X137670658Y-110599560D01*
X137670658Y-110599561D01*
X137679768Y-110674841D01*
X137680546Y-110681273D01*
X137699067Y-110728050D01*
X137730434Y-110807273D01*
X137732918Y-110813548D01*
X137736998Y-110818923D01*
X137736999Y-110818925D01*
X137766027Y-110857168D01*
X137818932Y-110926867D01*
X137824315Y-110930953D01*
X137926295Y-111008360D01*
X137932251Y-111012881D01*
X137938522Y-111015364D01*
X137938524Y-111015365D01*
X137988972Y-111035339D01*
X138064526Y-111065253D01*
X138070835Y-111066016D01*
X138070837Y-111066017D01*
X138142098Y-111074640D01*
X138149205Y-111075500D01*
X138667393Y-111075500D01*
X138674500Y-111074640D01*
X138745761Y-111066017D01*
X138745763Y-111066016D01*
X138752072Y-111065253D01*
X138827626Y-111035339D01*
X138878074Y-111015365D01*
X138878076Y-111015364D01*
X138884347Y-111012881D01*
X138890304Y-111008360D01*
X138992283Y-110930953D01*
X138997666Y-110926867D01*
X139050571Y-110857168D01*
X139079599Y-110818925D01*
X139079600Y-110818923D01*
X139083680Y-110813548D01*
X139086164Y-110807275D01*
X139086165Y-110807273D01*
X139104020Y-110762176D01*
X139143021Y-110715032D01*
X139202284Y-110699815D01*
X139259173Y-110722339D01*
X139288116Y-110762175D01*
X139305874Y-110807027D01*
X139312439Y-110818677D01*
X139390203Y-110921127D01*
X139399672Y-110930596D01*
X139502122Y-111008360D01*
X139513772Y-111014925D01*
X139633735Y-111062422D01*
X139645958Y-111065526D01*
X139721282Y-111074641D01*
X139727236Y-111075000D01*
X139817619Y-111075000D01*
X139830304Y-111070878D01*
X139833299Y-111066757D01*
X139833299Y-111059319D01*
X140133299Y-111059319D01*
X140137421Y-111072004D01*
X140141542Y-111074999D01*
X140239360Y-111074999D01*
X140245318Y-111074640D01*
X140320642Y-111065526D01*
X140332860Y-111062423D01*
X140452826Y-111014925D01*
X140464476Y-111008360D01*
X140566926Y-110930596D01*
X140576395Y-110921127D01*
X140654159Y-110818677D01*
X140660724Y-110807027D01*
X140708221Y-110687064D01*
X140711325Y-110674841D01*
X140720440Y-110599517D01*
X140720799Y-110593563D01*
X140720799Y-110465680D01*
X140716677Y-110452995D01*
X140712556Y-110450000D01*
X140148979Y-110450000D01*
X140136294Y-110454122D01*
X140133299Y-110458243D01*
X140133299Y-111059319D01*
X139833299Y-111059319D01*
X139833299Y-110134320D01*
X140133299Y-110134320D01*
X140137421Y-110147005D01*
X140141542Y-110150000D01*
X140705118Y-110150000D01*
X140717803Y-110145878D01*
X140720798Y-110141757D01*
X140720798Y-110006439D01*
X140720439Y-110000481D01*
X140711325Y-109925157D01*
X140708222Y-109912939D01*
X140660724Y-109792973D01*
X140654159Y-109781323D01*
X140576395Y-109678873D01*
X140566926Y-109669404D01*
X140513506Y-109628856D01*
X140478586Y-109578614D01*
X140479868Y-109517442D01*
X140513506Y-109471144D01*
X140566926Y-109430596D01*
X140576395Y-109421127D01*
X140654159Y-109318677D01*
X140660724Y-109307027D01*
X140708221Y-109187064D01*
X140711325Y-109174841D01*
X140720440Y-109099517D01*
X140720799Y-109093563D01*
X140720799Y-108965680D01*
X140716677Y-108952995D01*
X140712556Y-108950000D01*
X140148979Y-108950000D01*
X140136294Y-108954122D01*
X140133299Y-108958243D01*
X140133299Y-110134320D01*
X139833299Y-110134320D01*
X139833299Y-108634320D01*
X140133299Y-108634320D01*
X140137421Y-108647005D01*
X140141542Y-108650000D01*
X140705118Y-108650000D01*
X140717803Y-108645878D01*
X140720798Y-108641757D01*
X140720798Y-108506439D01*
X140720439Y-108500481D01*
X140711325Y-108425157D01*
X140708222Y-108412939D01*
X140660724Y-108292973D01*
X140654159Y-108281323D01*
X140576395Y-108178873D01*
X140566926Y-108169404D01*
X140513506Y-108128856D01*
X140478586Y-108078614D01*
X140479868Y-108017442D01*
X140513506Y-107971144D01*
X140566926Y-107930596D01*
X140576395Y-107921127D01*
X140654159Y-107818677D01*
X140660724Y-107807027D01*
X140708221Y-107687064D01*
X140711325Y-107674841D01*
X140720440Y-107599517D01*
X140720799Y-107593563D01*
X140720799Y-107465680D01*
X140716677Y-107452995D01*
X140712556Y-107450000D01*
X140148979Y-107450000D01*
X140136294Y-107454122D01*
X140133299Y-107458243D01*
X140133299Y-108634320D01*
X139833299Y-108634320D01*
X139833299Y-107134320D01*
X140133299Y-107134320D01*
X140137421Y-107147005D01*
X140141542Y-107150000D01*
X140705118Y-107150000D01*
X140717803Y-107145878D01*
X140720798Y-107141757D01*
X140720798Y-107006439D01*
X140720439Y-107000481D01*
X140711325Y-106925157D01*
X140708222Y-106912939D01*
X140660724Y-106792973D01*
X140654159Y-106781323D01*
X140576395Y-106678873D01*
X140566926Y-106669404D01*
X140513506Y-106628856D01*
X140478586Y-106578614D01*
X140479868Y-106517442D01*
X140513506Y-106471144D01*
X140566926Y-106430596D01*
X140576395Y-106421127D01*
X140654159Y-106318677D01*
X140660724Y-106307027D01*
X140708221Y-106187064D01*
X140711325Y-106174841D01*
X140720440Y-106099517D01*
X140720799Y-106093563D01*
X140720799Y-105965680D01*
X140716677Y-105952995D01*
X140712556Y-105950000D01*
X140148979Y-105950000D01*
X140136294Y-105954122D01*
X140133299Y-105958243D01*
X140133299Y-107134320D01*
X139833299Y-107134320D01*
X139833299Y-105634320D01*
X140133299Y-105634320D01*
X140137421Y-105647005D01*
X140141542Y-105650000D01*
X140705118Y-105650000D01*
X140717803Y-105645878D01*
X140720798Y-105641757D01*
X140720798Y-105506439D01*
X140720439Y-105500481D01*
X140711325Y-105425157D01*
X140708222Y-105412939D01*
X140660724Y-105292973D01*
X140654159Y-105281323D01*
X140576395Y-105178873D01*
X140566926Y-105169404D01*
X140513506Y-105128856D01*
X140478586Y-105078614D01*
X140479868Y-105017442D01*
X140513506Y-104971144D01*
X140566926Y-104930596D01*
X140576395Y-104921127D01*
X140654159Y-104818677D01*
X140660724Y-104807027D01*
X140708221Y-104687064D01*
X140711325Y-104674841D01*
X140720440Y-104599517D01*
X140720799Y-104593563D01*
X140720799Y-104465680D01*
X140716677Y-104452995D01*
X140712556Y-104450000D01*
X140148979Y-104450000D01*
X140136294Y-104454122D01*
X140133299Y-104458243D01*
X140133299Y-105634320D01*
X139833299Y-105634320D01*
X139833299Y-104134320D01*
X140133299Y-104134320D01*
X140137421Y-104147005D01*
X140141542Y-104150000D01*
X140705118Y-104150000D01*
X140717803Y-104145878D01*
X140720798Y-104141757D01*
X140720798Y-104006439D01*
X140720439Y-104000481D01*
X140711325Y-103925157D01*
X140708222Y-103912939D01*
X140660724Y-103792973D01*
X140654159Y-103781323D01*
X140576395Y-103678873D01*
X140566926Y-103669404D01*
X140513506Y-103628856D01*
X140478586Y-103578614D01*
X140479868Y-103517442D01*
X140513506Y-103471144D01*
X140566926Y-103430596D01*
X140576395Y-103421127D01*
X140654159Y-103318677D01*
X140660724Y-103307027D01*
X140708221Y-103187064D01*
X140711325Y-103174841D01*
X140720440Y-103099517D01*
X140720799Y-103093563D01*
X140720799Y-102965680D01*
X140716677Y-102952995D01*
X140712556Y-102950000D01*
X140148979Y-102950000D01*
X140136294Y-102954122D01*
X140133299Y-102958243D01*
X140133299Y-104134320D01*
X139833299Y-104134320D01*
X139833299Y-100540681D01*
X139829177Y-100527996D01*
X139825056Y-100525001D01*
X139727238Y-100525001D01*
X139721280Y-100525360D01*
X139645956Y-100534474D01*
X139633738Y-100537577D01*
X139513772Y-100585075D01*
X139502122Y-100591640D01*
X139399672Y-100669404D01*
X139390203Y-100678873D01*
X139312439Y-100781323D01*
X139305874Y-100792973D01*
X139288116Y-100837825D01*
X139249115Y-100884969D01*
X139189851Y-100900185D01*
X139132963Y-100877661D01*
X139104020Y-100837824D01*
X139086165Y-100792727D01*
X139086163Y-100792724D01*
X139083680Y-100786452D01*
X139071193Y-100770000D01*
X139001752Y-100678516D01*
X138997666Y-100673133D01*
X138946229Y-100634090D01*
X138889724Y-100591200D01*
X138889722Y-100591199D01*
X138884347Y-100587119D01*
X138878076Y-100584636D01*
X138878074Y-100584635D01*
X138774886Y-100543780D01*
X138752072Y-100534747D01*
X138745763Y-100533984D01*
X138745761Y-100533983D01*
X138670360Y-100524859D01*
X138670359Y-100524859D01*
X138667393Y-100524500D01*
X138149205Y-100524500D01*
X138146239Y-100524859D01*
X138146238Y-100524859D01*
X138070837Y-100533983D01*
X138070835Y-100533984D01*
X138064526Y-100534747D01*
X138041712Y-100543780D01*
X137938524Y-100584635D01*
X137938522Y-100584636D01*
X137932251Y-100587119D01*
X137926876Y-100591199D01*
X137926874Y-100591200D01*
X137870369Y-100634090D01*
X137818932Y-100673133D01*
X137814846Y-100678516D01*
X137745406Y-100770000D01*
X137732918Y-100786452D01*
X137716522Y-100827865D01*
X137712927Y-100836944D01*
X137673926Y-100884088D01*
X137620879Y-100899500D01*
X135489096Y-100899500D01*
X135430905Y-100880593D01*
X135419092Y-100870504D01*
X134909901Y-100361312D01*
X134882124Y-100306795D01*
X134891695Y-100246363D01*
X134934960Y-100203098D01*
X134995392Y-100193527D01*
X135005020Y-100195546D01*
X135045862Y-100206261D01*
X135108717Y-100222751D01*
X135108721Y-100222751D01*
X135114486Y-100224264D01*
X135120447Y-100224358D01*
X135120450Y-100224358D01*
X135190175Y-100225453D01*
X135265863Y-100226642D01*
X135271679Y-100225310D01*
X135407614Y-100194177D01*
X135407617Y-100194176D01*
X135413437Y-100192843D01*
X135427228Y-100185907D01*
X135543355Y-100127502D01*
X135543357Y-100127501D01*
X135548689Y-100124819D01*
X135568464Y-100107930D01*
X135624991Y-100084514D01*
X135653085Y-100087157D01*
X135653874Y-100087506D01*
X135675492Y-100090026D01*
X135676579Y-100090153D01*
X135679555Y-100090500D01*
X136768847Y-100090500D01*
X136795047Y-100087382D01*
X136795193Y-100088607D01*
X136848788Y-100091071D01*
X136872353Y-100107054D01*
X136873909Y-100105007D01*
X136902855Y-100127018D01*
X136910259Y-100133242D01*
X136936917Y-100157971D01*
X136945406Y-100161358D01*
X136950357Y-100164488D01*
X136955592Y-100167121D01*
X136962869Y-100172654D01*
X136995593Y-100182130D01*
X136997789Y-100182766D01*
X137006938Y-100185907D01*
X137031103Y-100195548D01*
X137040720Y-100199385D01*
X137046993Y-100200000D01*
X137047931Y-100200000D01*
X137052300Y-100200732D01*
X137052342Y-100200306D01*
X137061441Y-100201198D01*
X137070218Y-100203740D01*
X137079319Y-100202952D01*
X137079321Y-100202952D01*
X137109141Y-100200369D01*
X137117683Y-100200000D01*
X140796256Y-100200000D01*
X140854447Y-100218907D01*
X140890411Y-100268407D01*
X140890411Y-100329593D01*
X140877253Y-100355925D01*
X140844696Y-100402249D01*
X140842529Y-100407807D01*
X140842528Y-100407809D01*
X140793624Y-100533243D01*
X140789702Y-100543302D01*
X140788923Y-100549217D01*
X140788923Y-100549218D01*
X140774392Y-100659591D01*
X140748051Y-100714816D01*
X140694280Y-100744011D01*
X140633618Y-100736025D01*
X140597382Y-100706524D01*
X140576390Y-100678868D01*
X140566926Y-100669404D01*
X140464476Y-100591640D01*
X140452826Y-100585075D01*
X140332863Y-100537578D01*
X140320640Y-100534474D01*
X140245316Y-100525359D01*
X140239362Y-100525000D01*
X140148979Y-100525000D01*
X140136294Y-100529122D01*
X140133299Y-100533243D01*
X140133299Y-102634320D01*
X140137421Y-102647005D01*
X140141542Y-102650000D01*
X140705118Y-102650000D01*
X140717803Y-102645878D01*
X140720798Y-102641757D01*
X140720798Y-102506439D01*
X140720439Y-102500481D01*
X140711325Y-102425157D01*
X140708222Y-102412939D01*
X140660724Y-102292973D01*
X140654159Y-102281323D01*
X140576395Y-102178873D01*
X140566926Y-102169404D01*
X140513506Y-102128856D01*
X140478586Y-102078614D01*
X140479868Y-102017442D01*
X140513506Y-101971144D01*
X140566926Y-101930596D01*
X140576395Y-101921127D01*
X140654159Y-101818677D01*
X140660724Y-101807027D01*
X140710561Y-101681153D01*
X140711874Y-101681673D01*
X140740700Y-101635986D01*
X140797529Y-101613313D01*
X140856832Y-101628373D01*
X140886176Y-101656884D01*
X140923022Y-101711716D01*
X140927434Y-101715731D01*
X140927437Y-101715734D01*
X141028037Y-101807273D01*
X141034998Y-101813607D01*
X141093137Y-101845174D01*
X141162801Y-101882999D01*
X141162803Y-101883000D01*
X141168047Y-101885847D01*
X141244798Y-101905982D01*
X141308717Y-101922751D01*
X141308721Y-101922751D01*
X141314486Y-101924264D01*
X141320447Y-101924358D01*
X141320450Y-101924358D01*
X141390175Y-101925453D01*
X141465863Y-101926642D01*
X141471679Y-101925310D01*
X141607614Y-101894177D01*
X141607617Y-101894176D01*
X141613437Y-101892843D01*
X141624337Y-101887361D01*
X141743355Y-101827502D01*
X141743357Y-101827501D01*
X141748689Y-101824819D01*
X141863810Y-101726495D01*
X141919705Y-101648710D01*
X141948672Y-101608399D01*
X141948673Y-101608397D01*
X141952156Y-101603550D01*
X142008624Y-101463080D01*
X142029956Y-101313196D01*
X142030094Y-101300000D01*
X142011906Y-101149701D01*
X142009799Y-101144125D01*
X142009798Y-101144121D01*
X141968132Y-101033855D01*
X141965250Y-100972737D01*
X141968885Y-100961936D01*
X142006399Y-100868617D01*
X142006401Y-100868611D01*
X142008624Y-100863080D01*
X142020439Y-100780065D01*
X142048447Y-100724011D01*
X142290722Y-100481736D01*
X142300087Y-100474254D01*
X142300015Y-100474169D01*
X142305385Y-100469599D01*
X142311350Y-100465835D01*
X142345051Y-100427676D01*
X142349250Y-100423208D01*
X142360373Y-100412085D01*
X142362483Y-100409269D01*
X142362487Y-100409265D01*
X142366689Y-100403658D01*
X142371703Y-100397500D01*
X142396846Y-100369031D01*
X142396850Y-100369025D01*
X142401513Y-100363745D01*
X142404507Y-100357367D01*
X142404510Y-100357363D01*
X142405438Y-100355386D01*
X142415834Y-100338085D01*
X142417140Y-100336343D01*
X142417143Y-100336337D01*
X142421372Y-100330695D01*
X142437182Y-100288522D01*
X142440260Y-100281216D01*
X142459399Y-100240452D01*
X142460820Y-100231327D01*
X142465940Y-100211810D01*
X142469184Y-100203157D01*
X142470746Y-100182129D01*
X142493912Y-100125499D01*
X142545940Y-100093301D01*
X142563610Y-100090637D01*
X142565917Y-100090500D01*
X142568847Y-100090500D01*
X142586762Y-100088368D01*
X142587670Y-100088260D01*
X142587671Y-100088260D01*
X142595047Y-100087382D01*
X142697354Y-100041939D01*
X142776442Y-99962713D01*
X142821707Y-99860327D01*
X142824701Y-99834646D01*
X142824701Y-99265354D01*
X142821583Y-99239154D01*
X142818569Y-99232369D01*
X142816887Y-99226249D01*
X142816833Y-99173974D01*
X142818698Y-99167132D01*
X142821707Y-99160327D01*
X142824701Y-99134646D01*
X142824701Y-98565354D01*
X142821583Y-98539154D01*
X142818569Y-98532369D01*
X142816887Y-98526249D01*
X142816833Y-98473974D01*
X142818698Y-98467132D01*
X142821707Y-98460327D01*
X142824701Y-98434646D01*
X142824701Y-97865354D01*
X142821583Y-97839154D01*
X142818570Y-97832371D01*
X142816622Y-97825282D01*
X142816569Y-97773009D01*
X142822074Y-97752817D01*
X142823869Y-97737420D01*
X142824201Y-97731708D01*
X142824201Y-97615680D01*
X142820079Y-97602995D01*
X142815958Y-97600000D01*
X141973201Y-97600000D01*
X141915010Y-97581093D01*
X141879046Y-97531593D01*
X141874201Y-97501000D01*
X141874201Y-97399000D01*
X141893108Y-97340809D01*
X141942608Y-97304845D01*
X141973201Y-97300000D01*
X142808521Y-97300000D01*
X142821206Y-97295878D01*
X142824201Y-97291757D01*
X142824201Y-97168361D01*
X142823855Y-97162515D01*
X142821967Y-97146647D01*
X142816585Y-97127067D01*
X142820412Y-97075320D01*
X142816739Y-97074319D01*
X142818698Y-97067132D01*
X142821707Y-97060327D01*
X142824701Y-97034646D01*
X142824701Y-96880102D01*
X142843608Y-96821911D01*
X142893108Y-96785947D01*
X142954294Y-96785947D01*
X142993705Y-96810098D01*
X143620504Y-97436897D01*
X143648281Y-97491414D01*
X143649500Y-97506901D01*
X143649500Y-100243100D01*
X143630593Y-100301291D01*
X143620504Y-100313104D01*
X142694516Y-101239091D01*
X142694513Y-101239095D01*
X142671950Y-101261658D01*
X142660998Y-101283154D01*
X142652884Y-101296393D01*
X142638704Y-101315910D01*
X142636296Y-101323321D01*
X142631248Y-101338857D01*
X142625305Y-101353203D01*
X142614354Y-101374696D01*
X142613136Y-101382389D01*
X142613135Y-101382391D01*
X142610581Y-101398519D01*
X142606956Y-101413620D01*
X142599500Y-101436567D01*
X142599500Y-104463433D01*
X142606955Y-104486375D01*
X142610581Y-104501481D01*
X142614354Y-104525304D01*
X142625305Y-104546797D01*
X142631248Y-104561143D01*
X142638704Y-104584090D01*
X142652560Y-104603160D01*
X142652883Y-104603605D01*
X142660998Y-104616846D01*
X142671950Y-104638342D01*
X142694513Y-104660905D01*
X142694516Y-104660909D01*
X144171950Y-106138342D01*
X144261658Y-106228050D01*
X144283156Y-106239004D01*
X144296386Y-106247111D01*
X144315910Y-106261296D01*
X144323320Y-106263704D01*
X144323321Y-106263704D01*
X144338855Y-106268751D01*
X144353204Y-106274695D01*
X144374696Y-106285646D01*
X144382392Y-106286865D01*
X144398524Y-106289420D01*
X144413627Y-106293046D01*
X144429157Y-106298092D01*
X144429160Y-106298093D01*
X144436567Y-106300499D01*
X144468477Y-106300499D01*
X144468481Y-106300500D01*
X144891558Y-106300500D01*
X144949749Y-106319407D01*
X144985713Y-106368907D01*
X144985713Y-106430093D01*
X144979767Y-106444446D01*
X144967891Y-106467753D01*
X144967890Y-106467757D01*
X144964354Y-106474696D01*
X144963135Y-106482390D01*
X144963135Y-106482391D01*
X144957584Y-106517442D01*
X144949500Y-106568481D01*
X144949500Y-106643099D01*
X144930593Y-106701290D01*
X144920504Y-106713103D01*
X144834516Y-106799091D01*
X144834513Y-106799095D01*
X144811950Y-106821658D01*
X144800998Y-106843154D01*
X144792884Y-106856393D01*
X144778704Y-106875910D01*
X144776296Y-106883321D01*
X144771248Y-106898857D01*
X144765305Y-106913203D01*
X144754354Y-106934696D01*
X144753136Y-106942389D01*
X144753135Y-106942391D01*
X144750581Y-106958519D01*
X144746956Y-106973620D01*
X144739500Y-106996567D01*
X144739500Y-107024793D01*
X144720593Y-107082984D01*
X144699319Y-107104425D01*
X144696135Y-107106777D01*
X144685001Y-107115001D01*
X144680601Y-107120958D01*
X144632856Y-107185600D01*
X144606304Y-107221548D01*
X144562415Y-107346526D01*
X144561847Y-107352534D01*
X144560730Y-107364354D01*
X144559500Y-107377362D01*
X144559500Y-107822638D01*
X144562415Y-107853474D01*
X144606304Y-107978452D01*
X144610699Y-107984403D01*
X144610700Y-107984404D01*
X144678444Y-108076122D01*
X144685001Y-108084999D01*
X144690958Y-108089399D01*
X144690959Y-108089400D01*
X144699319Y-108095575D01*
X144734892Y-108145356D01*
X144739500Y-108175207D01*
X144739500Y-109503433D01*
X144746955Y-109526375D01*
X144750581Y-109541481D01*
X144754354Y-109565304D01*
X144765305Y-109586797D01*
X144771248Y-109601143D01*
X144778704Y-109624090D01*
X144783285Y-109630395D01*
X144792883Y-109643605D01*
X144800998Y-109656846D01*
X144811950Y-109678342D01*
X144834513Y-109700905D01*
X144834516Y-109700909D01*
X147539091Y-112405484D01*
X147539095Y-112405487D01*
X147561658Y-112428050D01*
X147583154Y-112439002D01*
X147596393Y-112447116D01*
X147615910Y-112461296D01*
X147623321Y-112463704D01*
X147638857Y-112468752D01*
X147653203Y-112474695D01*
X147674696Y-112485646D01*
X147682389Y-112486864D01*
X147682391Y-112486865D01*
X147698519Y-112489419D01*
X147713620Y-112493044D01*
X147736567Y-112500500D01*
X150172396Y-112500500D01*
X150230587Y-112519407D01*
X150239024Y-112526277D01*
X150297655Y-112579627D01*
X150334998Y-112613607D01*
X150367203Y-112631093D01*
X150462801Y-112682999D01*
X150462803Y-112683000D01*
X150468047Y-112685847D01*
X150544798Y-112705982D01*
X150608717Y-112722751D01*
X150608721Y-112722751D01*
X150614486Y-112724264D01*
X150620447Y-112724358D01*
X150620450Y-112724358D01*
X150690175Y-112725453D01*
X150765863Y-112726642D01*
X150771679Y-112725310D01*
X150907614Y-112694177D01*
X150907617Y-112694176D01*
X150913437Y-112692843D01*
X150924337Y-112687361D01*
X151043355Y-112627502D01*
X151043357Y-112627501D01*
X151048689Y-112624819D01*
X151163810Y-112526495D01*
X151224141Y-112442537D01*
X151248672Y-112408399D01*
X151248673Y-112408397D01*
X151252156Y-112403550D01*
X151308624Y-112263080D01*
X151329956Y-112113196D01*
X151330094Y-112100000D01*
X151311906Y-111949701D01*
X151307419Y-111937825D01*
X151260502Y-111813664D01*
X151258392Y-111808080D01*
X151172640Y-111683311D01*
X151117848Y-111634493D01*
X151064057Y-111586567D01*
X151064055Y-111586566D01*
X151059603Y-111582599D01*
X150925805Y-111511757D01*
X150920017Y-111510303D01*
X150920014Y-111510302D01*
X150784760Y-111476328D01*
X150784761Y-111476328D01*
X150778972Y-111474874D01*
X150703276Y-111474478D01*
X150633545Y-111474113D01*
X150633543Y-111474113D01*
X150627579Y-111474082D01*
X150621776Y-111475475D01*
X150621777Y-111475475D01*
X150506251Y-111503210D01*
X150480367Y-111509424D01*
X150423233Y-111538913D01*
X150351141Y-111576122D01*
X150351139Y-111576124D01*
X150345835Y-111578861D01*
X150322354Y-111599345D01*
X150235511Y-111675103D01*
X150179232Y-111699108D01*
X150170431Y-111699500D01*
X148006901Y-111699500D01*
X147948710Y-111680593D01*
X147936897Y-111670504D01*
X145569496Y-109303103D01*
X145541719Y-109248586D01*
X145540500Y-109233099D01*
X145540500Y-109199500D01*
X145559407Y-109141309D01*
X145608907Y-109105345D01*
X145639500Y-109100500D01*
X145891026Y-109100499D01*
X145941518Y-109100499D01*
X145945361Y-109099890D01*
X145945366Y-109099890D01*
X145985314Y-109093563D01*
X146035304Y-109085646D01*
X146042242Y-109082111D01*
X146042245Y-109082110D01*
X146055054Y-109075583D01*
X146115486Y-109066011D01*
X146144946Y-109075583D01*
X146164696Y-109085646D01*
X146172390Y-109086865D01*
X146172391Y-109086865D01*
X146254635Y-109099891D01*
X146254637Y-109099891D01*
X146258481Y-109100500D01*
X146419979Y-109100500D01*
X146581518Y-109100499D01*
X146585361Y-109099890D01*
X146585366Y-109099890D01*
X146625314Y-109093563D01*
X146675304Y-109085646D01*
X146788342Y-109028050D01*
X146793849Y-109022543D01*
X146798167Y-109019406D01*
X146856356Y-109000500D01*
X146953391Y-109000500D01*
X147012208Y-109019867D01*
X147024980Y-109029300D01*
X147052858Y-109049891D01*
X147071548Y-109063696D01*
X147196526Y-109107585D01*
X147202534Y-109108153D01*
X147225051Y-109110282D01*
X147225061Y-109110282D01*
X147227362Y-109110500D01*
X147612638Y-109110500D01*
X147614939Y-109110282D01*
X147614949Y-109110282D01*
X147637466Y-109108153D01*
X147643474Y-109107585D01*
X147768452Y-109063696D01*
X147786318Y-109050500D01*
X147841182Y-109009977D01*
X147899223Y-108990613D01*
X147958818Y-109009977D01*
X148013682Y-109050500D01*
X148031548Y-109063696D01*
X148156526Y-109107585D01*
X148162534Y-109108153D01*
X148185051Y-109110282D01*
X148185061Y-109110282D01*
X148187362Y-109110500D01*
X148572638Y-109110500D01*
X148574939Y-109110282D01*
X148574949Y-109110282D01*
X148597466Y-109108153D01*
X148603474Y-109107585D01*
X148728452Y-109063696D01*
X148746320Y-109050499D01*
X148834999Y-108984999D01*
X148836774Y-108987403D01*
X148879597Y-108965584D01*
X148940029Y-108975155D01*
X148953902Y-108983732D01*
X149011799Y-109026495D01*
X149021548Y-109033696D01*
X149146526Y-109077585D01*
X149152534Y-109078153D01*
X149175051Y-109080282D01*
X149175061Y-109080282D01*
X149177362Y-109080500D01*
X149622638Y-109080500D01*
X149624939Y-109080282D01*
X149624949Y-109080282D01*
X149647466Y-109078153D01*
X149653474Y-109077585D01*
X149778452Y-109033696D01*
X149788202Y-109026495D01*
X149849003Y-108981586D01*
X149884999Y-108954999D01*
X149889396Y-108949045D01*
X149891023Y-108947419D01*
X149945541Y-108919643D01*
X150005973Y-108929217D01*
X150031029Y-108947421D01*
X150061658Y-108978050D01*
X150068595Y-108981585D01*
X150068597Y-108981586D01*
X150142823Y-109019406D01*
X150174696Y-109035646D01*
X150182390Y-109036865D01*
X150182391Y-109036865D01*
X150264635Y-109049891D01*
X150264637Y-109049891D01*
X150268481Y-109050500D01*
X150399966Y-109050500D01*
X150531518Y-109050499D01*
X150535361Y-109049890D01*
X150535366Y-109049890D01*
X150572217Y-109044053D01*
X150625304Y-109035646D01*
X150719986Y-108987403D01*
X150731403Y-108981586D01*
X150731405Y-108981585D01*
X150738342Y-108978050D01*
X150828050Y-108888342D01*
X150885646Y-108775304D01*
X150888519Y-108757168D01*
X150899891Y-108685365D01*
X150899891Y-108685363D01*
X150900500Y-108681519D01*
X150900499Y-108454499D01*
X150919406Y-108396310D01*
X150968906Y-108360346D01*
X150999499Y-108355500D01*
X151232839Y-108355500D01*
X151291030Y-108374407D01*
X151299467Y-108381277D01*
X151330579Y-108409587D01*
X151330584Y-108409591D01*
X151334998Y-108413607D01*
X151340242Y-108416454D01*
X151340243Y-108416455D01*
X151462801Y-108482999D01*
X151462803Y-108483000D01*
X151468047Y-108485847D01*
X151534979Y-108503406D01*
X151608717Y-108522751D01*
X151608721Y-108522751D01*
X151614486Y-108524264D01*
X151620447Y-108524358D01*
X151620450Y-108524358D01*
X151690175Y-108525453D01*
X151765863Y-108526642D01*
X151771679Y-108525310D01*
X151907614Y-108494177D01*
X151907617Y-108494176D01*
X151913437Y-108492843D01*
X151924337Y-108487361D01*
X152043355Y-108427502D01*
X152043357Y-108427501D01*
X152048689Y-108424819D01*
X152163810Y-108326495D01*
X152252156Y-108203550D01*
X152308624Y-108063080D01*
X152327392Y-107931210D01*
X152329500Y-107916401D01*
X152329500Y-107916399D01*
X152329956Y-107913196D01*
X152330094Y-107900000D01*
X152311906Y-107749701D01*
X152258392Y-107608080D01*
X152172640Y-107483311D01*
X152103770Y-107421950D01*
X152064057Y-107386567D01*
X152064055Y-107386566D01*
X152059603Y-107382599D01*
X151925805Y-107311757D01*
X151920017Y-107310303D01*
X151920014Y-107310302D01*
X151784760Y-107276328D01*
X151784761Y-107276328D01*
X151778972Y-107274874D01*
X151703275Y-107274478D01*
X151633545Y-107274113D01*
X151633543Y-107274113D01*
X151627579Y-107274082D01*
X151480367Y-107309424D01*
X151419515Y-107340832D01*
X151351139Y-107376123D01*
X151351137Y-107376125D01*
X151345835Y-107378861D01*
X151341338Y-107382784D01*
X151336400Y-107386140D01*
X151335021Y-107384111D01*
X151288117Y-107404109D01*
X151279331Y-107404500D01*
X150727863Y-107404500D01*
X150682918Y-107393710D01*
X150632244Y-107367890D01*
X150632243Y-107367890D01*
X150625304Y-107364354D01*
X150617610Y-107363135D01*
X150617609Y-107363135D01*
X150535365Y-107350109D01*
X150535363Y-107350109D01*
X150531519Y-107349500D01*
X150400034Y-107349500D01*
X150268482Y-107349501D01*
X150264639Y-107350110D01*
X150264634Y-107350110D01*
X150227783Y-107355947D01*
X150174696Y-107364354D01*
X150167758Y-107367889D01*
X150167755Y-107367890D01*
X150147335Y-107378295D01*
X150086903Y-107387867D01*
X150032386Y-107360090D01*
X150008392Y-107316243D01*
X150007585Y-107316526D01*
X150005862Y-107311619D01*
X150005861Y-107311618D01*
X150005400Y-107310302D01*
X149987176Y-107258409D01*
X149963696Y-107191548D01*
X149912860Y-107122721D01*
X149893497Y-107064684D01*
X149911946Y-107006347D01*
X149922490Y-106993902D01*
X149978050Y-106938342D01*
X149982113Y-106930369D01*
X150023016Y-106850091D01*
X150035646Y-106825304D01*
X150037096Y-106816153D01*
X150043503Y-106775695D01*
X150071280Y-106721179D01*
X150107964Y-106684494D01*
X150162480Y-106656719D01*
X150177966Y-106655500D01*
X158601000Y-106655500D01*
X158659191Y-106674407D01*
X158695155Y-106723907D01*
X158700000Y-106754500D01*
X158700000Y-117448758D01*
X158681093Y-117506949D01*
X158631593Y-117542913D01*
X158570407Y-117542913D01*
X158536446Y-117523659D01*
X158532400Y-117518963D01*
X158412095Y-117440985D01*
X158274739Y-117399907D01*
X158191497Y-117399398D01*
X158138427Y-117399074D01*
X158138426Y-117399074D01*
X158131376Y-117399031D01*
X158124599Y-117400968D01*
X158124598Y-117400968D01*
X158000309Y-117436490D01*
X158000307Y-117436491D01*
X157993529Y-117438428D01*
X157872280Y-117514930D01*
X157867613Y-117520214D01*
X157867611Y-117520216D01*
X157782044Y-117617103D01*
X157782042Y-117617105D01*
X157777377Y-117622388D01*
X157716447Y-117752163D01*
X157715362Y-117759132D01*
X157715361Y-117759135D01*
X157704227Y-117830648D01*
X157694391Y-117893823D01*
X157712980Y-118035979D01*
X157715821Y-118042435D01*
X157715821Y-118042436D01*
X157740900Y-118099431D01*
X157770720Y-118167203D01*
X157829641Y-118237298D01*
X157852611Y-118294008D01*
X157837861Y-118353389D01*
X157791024Y-118392759D01*
X157753858Y-118400000D01*
X144150955Y-118400000D01*
X144092764Y-118381093D01*
X144056800Y-118331593D01*
X144056800Y-118270407D01*
X144072308Y-118240870D01*
X144173472Y-118108553D01*
X144173474Y-118108550D01*
X144176730Y-118104291D01*
X144257488Y-117931104D01*
X144264258Y-117900821D01*
X144298290Y-117748571D01*
X144298290Y-117748568D01*
X144299174Y-117744615D01*
X144299501Y-117738766D01*
X144299501Y-116298263D01*
X144294459Y-116251848D01*
X144284628Y-116161352D01*
X144284627Y-116161347D01*
X144284049Y-116156027D01*
X144223099Y-115974917D01*
X144130008Y-115819987D01*
X144127440Y-115815713D01*
X144127439Y-115815711D01*
X144124680Y-115811120D01*
X143993384Y-115672278D01*
X143835336Y-115564869D01*
X143676810Y-115501463D01*
X143662887Y-115495894D01*
X143662885Y-115495893D01*
X143657911Y-115493904D01*
X143652629Y-115493030D01*
X143652627Y-115493029D01*
X143589134Y-115482518D01*
X143469386Y-115462693D01*
X143389533Y-115466878D01*
X143283911Y-115472413D01*
X143283908Y-115472414D01*
X143278556Y-115472694D01*
X143094326Y-115523440D01*
X142925291Y-115612562D01*
X142779336Y-115735903D01*
X142770676Y-115747230D01*
X142666530Y-115883447D01*
X142666528Y-115883450D01*
X142663272Y-115887709D01*
X142582514Y-116060896D01*
X142540828Y-116247385D01*
X142540501Y-116253234D01*
X142540501Y-117693737D01*
X142540790Y-117696396D01*
X142555374Y-117830648D01*
X142555375Y-117830653D01*
X142555953Y-117835973D01*
X142616903Y-118017083D01*
X142652566Y-118076436D01*
X142712359Y-118175948D01*
X142715322Y-118180880D01*
X142719004Y-118184773D01*
X142719008Y-118184779D01*
X142764588Y-118232979D01*
X142790833Y-118288250D01*
X142779577Y-118348391D01*
X142735121Y-118390430D01*
X142692657Y-118400000D01*
X141258664Y-118400000D01*
X141200473Y-118381093D01*
X141164509Y-118331593D01*
X141164509Y-118270407D01*
X141188599Y-118231058D01*
X141241083Y-118178482D01*
X141241085Y-118178480D01*
X141247540Y-118172013D01*
X141292805Y-118069627D01*
X141295799Y-118043946D01*
X141295799Y-115948054D01*
X141292681Y-115921854D01*
X141247238Y-115819547D01*
X141238797Y-115811120D01*
X141174478Y-115746914D01*
X141168012Y-115740459D01*
X141138890Y-115727584D01*
X141072435Y-115698204D01*
X141072433Y-115698204D01*
X141065626Y-115695194D01*
X141051621Y-115693561D01*
X141042793Y-115692532D01*
X141042792Y-115692532D01*
X141039945Y-115692200D01*
X139960053Y-115692200D01*
X139943650Y-115694152D01*
X139941230Y-115694440D01*
X139941229Y-115694440D01*
X139933853Y-115695318D01*
X139831546Y-115740761D01*
X139752458Y-115819987D01*
X139707193Y-115922373D01*
X139704199Y-115948054D01*
X139704199Y-118043946D01*
X139707317Y-118070146D01*
X139752760Y-118172453D01*
X139759228Y-118178910D01*
X139759229Y-118178911D01*
X139811344Y-118230935D01*
X139839169Y-118285428D01*
X139829650Y-118345868D01*
X139786423Y-118389170D01*
X139741401Y-118400000D01*
X138458665Y-118400000D01*
X138400474Y-118381093D01*
X138364510Y-118331593D01*
X138364510Y-118270407D01*
X138388600Y-118231058D01*
X138441084Y-118178482D01*
X138441086Y-118178480D01*
X138447541Y-118172013D01*
X138492806Y-118069627D01*
X138495800Y-118043946D01*
X138495800Y-115948054D01*
X138492682Y-115921854D01*
X138447239Y-115819547D01*
X138438798Y-115811120D01*
X138374479Y-115746914D01*
X138368013Y-115740459D01*
X138338891Y-115727584D01*
X138272436Y-115698204D01*
X138272434Y-115698204D01*
X138265627Y-115695194D01*
X138251622Y-115693561D01*
X138242794Y-115692532D01*
X138242793Y-115692532D01*
X138239946Y-115692200D01*
X137160054Y-115692200D01*
X137143651Y-115694152D01*
X137141231Y-115694440D01*
X137141230Y-115694440D01*
X137133854Y-115695318D01*
X137031547Y-115740761D01*
X136952459Y-115819987D01*
X136907194Y-115922373D01*
X136904200Y-115948054D01*
X136904200Y-118043946D01*
X136907318Y-118070146D01*
X136952761Y-118172453D01*
X136959229Y-118178910D01*
X136959230Y-118178911D01*
X137011345Y-118230935D01*
X137039170Y-118285428D01*
X137029651Y-118345868D01*
X136986424Y-118389170D01*
X136941402Y-118400000D01*
X135510952Y-118400000D01*
X135452761Y-118381093D01*
X135416797Y-118331593D01*
X135416797Y-118270407D01*
X135432305Y-118240870D01*
X135533469Y-118108553D01*
X135533471Y-118108550D01*
X135536727Y-118104291D01*
X135617485Y-117931104D01*
X135624255Y-117900821D01*
X135658287Y-117748571D01*
X135658287Y-117748568D01*
X135659171Y-117744615D01*
X135659498Y-117738766D01*
X135659498Y-116298263D01*
X135654456Y-116251848D01*
X135644625Y-116161352D01*
X135644624Y-116161347D01*
X135644046Y-116156027D01*
X135583096Y-115974917D01*
X135490005Y-115819987D01*
X135487437Y-115815713D01*
X135487436Y-115815711D01*
X135484677Y-115811120D01*
X135353381Y-115672278D01*
X135195333Y-115564869D01*
X135036807Y-115501463D01*
X135022884Y-115495894D01*
X135022882Y-115495893D01*
X135017908Y-115493904D01*
X135012626Y-115493030D01*
X135012624Y-115493029D01*
X134949131Y-115482518D01*
X134829383Y-115462693D01*
X134749530Y-115466878D01*
X134643908Y-115472413D01*
X134643905Y-115472414D01*
X134638553Y-115472694D01*
X134454323Y-115523440D01*
X134285288Y-115612562D01*
X134139333Y-115735903D01*
X134130673Y-115747230D01*
X134026527Y-115883447D01*
X134026525Y-115883450D01*
X134023269Y-115887709D01*
X133942511Y-116060896D01*
X133900825Y-116247385D01*
X133900498Y-116253234D01*
X133900498Y-117693737D01*
X133900787Y-117696396D01*
X133915371Y-117830648D01*
X133915372Y-117830653D01*
X133915950Y-117835973D01*
X133976900Y-118017083D01*
X134012563Y-118076436D01*
X134072356Y-118175948D01*
X134075319Y-118180880D01*
X134079001Y-118184773D01*
X134079005Y-118184779D01*
X134124585Y-118232979D01*
X134150830Y-118288250D01*
X134139574Y-118348391D01*
X134095118Y-118390430D01*
X134052654Y-118400000D01*
X119699000Y-118400000D01*
X119640809Y-118381093D01*
X119604845Y-118331593D01*
X119600000Y-118301000D01*
X119600000Y-113718736D01*
X133900498Y-113718736D01*
X133900787Y-113721395D01*
X133915371Y-113855647D01*
X133915372Y-113855652D01*
X133915950Y-113860972D01*
X133976900Y-114042082D01*
X134029300Y-114129290D01*
X134063283Y-114185847D01*
X134075319Y-114205879D01*
X134079000Y-114209771D01*
X134079001Y-114209773D01*
X134142420Y-114276837D01*
X134206615Y-114344721D01*
X134364663Y-114452130D01*
X134458897Y-114489821D01*
X134537112Y-114521105D01*
X134537114Y-114521106D01*
X134542088Y-114523095D01*
X134547370Y-114523969D01*
X134547372Y-114523970D01*
X134610865Y-114534481D01*
X134730613Y-114554306D01*
X134810466Y-114550121D01*
X134916088Y-114544586D01*
X134916091Y-114544585D01*
X134921443Y-114544305D01*
X135105673Y-114493559D01*
X135122736Y-114484563D01*
X135136391Y-114477363D01*
X135274708Y-114404437D01*
X135420663Y-114281096D01*
X135481682Y-114201286D01*
X135533469Y-114133552D01*
X135533471Y-114133549D01*
X135536727Y-114129290D01*
X135538991Y-114124434D01*
X135538998Y-114124423D01*
X135558764Y-114082034D01*
X135600492Y-114037286D01*
X135660553Y-114025611D01*
X135716258Y-114051705D01*
X135724872Y-114059794D01*
X135724877Y-114059798D01*
X135729418Y-114064062D01*
X135734881Y-114067065D01*
X135734882Y-114067066D01*
X135862450Y-114137197D01*
X135862454Y-114137198D01*
X135867908Y-114140197D01*
X135873934Y-114141744D01*
X135873936Y-114141745D01*
X136014946Y-114177951D01*
X136014950Y-114177952D01*
X136020981Y-114179500D01*
X136139350Y-114179500D01*
X136256792Y-114164664D01*
X136403732Y-114106486D01*
X136531587Y-114013594D01*
X136539130Y-114004476D01*
X136590791Y-113971693D01*
X136651856Y-113975536D01*
X136680944Y-113993379D01*
X136690154Y-114001513D01*
X136696532Y-114004507D01*
X136696536Y-114004510D01*
X136698513Y-114005438D01*
X136715814Y-114015834D01*
X136717556Y-114017140D01*
X136717562Y-114017143D01*
X136723204Y-114021372D01*
X136729806Y-114023847D01*
X136729808Y-114023848D01*
X136765375Y-114037181D01*
X136772683Y-114040260D01*
X136813447Y-114059399D01*
X136822572Y-114060820D01*
X136842089Y-114065940D01*
X136850742Y-114069184D01*
X136895655Y-114072521D01*
X136903532Y-114073425D01*
X136916855Y-114075500D01*
X136932067Y-114075500D01*
X136939403Y-114075772D01*
X136964178Y-114077613D01*
X137023471Y-114103118D01*
X137034998Y-114113607D01*
X137040242Y-114116454D01*
X137040243Y-114116455D01*
X137162801Y-114182999D01*
X137162803Y-114183000D01*
X137168047Y-114185847D01*
X137226898Y-114201286D01*
X137308717Y-114222751D01*
X137308721Y-114222751D01*
X137314486Y-114224264D01*
X137320447Y-114224358D01*
X137320450Y-114224358D01*
X137390175Y-114225453D01*
X137465863Y-114226642D01*
X137471679Y-114225310D01*
X137607614Y-114194177D01*
X137607617Y-114194176D01*
X137613437Y-114192843D01*
X137640741Y-114179111D01*
X137743354Y-114127502D01*
X137748689Y-114124819D01*
X137748693Y-114124827D01*
X137805361Y-114109004D01*
X137848456Y-114120914D01*
X137855648Y-114124819D01*
X137962801Y-114182999D01*
X137962803Y-114183000D01*
X137968047Y-114185847D01*
X138026898Y-114201286D01*
X138108717Y-114222751D01*
X138108721Y-114222751D01*
X138114486Y-114224264D01*
X138120447Y-114224358D01*
X138120450Y-114224358D01*
X138190175Y-114225453D01*
X138265863Y-114226642D01*
X138271679Y-114225310D01*
X138407614Y-114194177D01*
X138407617Y-114194176D01*
X138413437Y-114192843D01*
X138440741Y-114179111D01*
X138543354Y-114127502D01*
X138548689Y-114124819D01*
X138548693Y-114124827D01*
X138605361Y-114109004D01*
X138648456Y-114120914D01*
X138655648Y-114124819D01*
X138762801Y-114182999D01*
X138762803Y-114183000D01*
X138768047Y-114185847D01*
X138826898Y-114201286D01*
X138908717Y-114222751D01*
X138908721Y-114222751D01*
X138914486Y-114224264D01*
X138920447Y-114224358D01*
X138920450Y-114224358D01*
X138990175Y-114225453D01*
X139065863Y-114226642D01*
X139071679Y-114225310D01*
X139207614Y-114194177D01*
X139207617Y-114194176D01*
X139213437Y-114192843D01*
X139224337Y-114187361D01*
X139343355Y-114127502D01*
X139343357Y-114127501D01*
X139348689Y-114124819D01*
X139378661Y-114099220D01*
X139435189Y-114075805D01*
X139442957Y-114075500D01*
X140785643Y-114075500D01*
X140797555Y-114076831D01*
X140797564Y-114076720D01*
X140804594Y-114077286D01*
X140811473Y-114078842D01*
X140862279Y-114075690D01*
X140868408Y-114075500D01*
X140884145Y-114075500D01*
X140894587Y-114074005D01*
X140902477Y-114073196D01*
X140919546Y-114072137D01*
X140940376Y-114070845D01*
X140940377Y-114070845D01*
X140947417Y-114070408D01*
X140954055Y-114068012D01*
X140954059Y-114068011D01*
X140956108Y-114067272D01*
X140975682Y-114062391D01*
X140977849Y-114062081D01*
X140977851Y-114062080D01*
X140984829Y-114061081D01*
X141025833Y-114042438D01*
X141033172Y-114039451D01*
X141075530Y-114024159D01*
X141082987Y-114018711D01*
X141100410Y-114008530D01*
X141102401Y-114007625D01*
X141102404Y-114007623D01*
X141108820Y-114004706D01*
X141142945Y-113975302D01*
X141149139Y-113970384D01*
X141160035Y-113962423D01*
X141170791Y-113951667D01*
X141176171Y-113946672D01*
X141206664Y-113920398D01*
X141206667Y-113920395D01*
X141212004Y-113915796D01*
X141215841Y-113909877D01*
X141216162Y-113909382D01*
X141229233Y-113893225D01*
X141291871Y-113830587D01*
X141346388Y-113802810D01*
X141406820Y-113812381D01*
X141445461Y-113847542D01*
X141514213Y-113955878D01*
X141629417Y-114064063D01*
X141634880Y-114067066D01*
X141634881Y-114067067D01*
X141762449Y-114137198D01*
X141762453Y-114137199D01*
X141767907Y-114140198D01*
X141773933Y-114141745D01*
X141773935Y-114141746D01*
X141914945Y-114177952D01*
X141914949Y-114177953D01*
X141920980Y-114179501D01*
X142239349Y-114179501D01*
X142356791Y-114164665D01*
X142503731Y-114106487D01*
X142521765Y-114093385D01*
X142579954Y-114074477D01*
X142638145Y-114093383D01*
X142664816Y-114122489D01*
X142707891Y-114194177D01*
X142714922Y-114205879D01*
X142718603Y-114209771D01*
X142718604Y-114209773D01*
X142782023Y-114276837D01*
X142846218Y-114344721D01*
X143004266Y-114452130D01*
X143098500Y-114489821D01*
X143176715Y-114521105D01*
X143176717Y-114521106D01*
X143181691Y-114523095D01*
X143186973Y-114523969D01*
X143186975Y-114523970D01*
X143250468Y-114534481D01*
X143370216Y-114554306D01*
X143450069Y-114550121D01*
X143555691Y-114544586D01*
X143555694Y-114544585D01*
X143561046Y-114544305D01*
X143745276Y-114493559D01*
X143762339Y-114484563D01*
X143775994Y-114477363D01*
X143914311Y-114404437D01*
X144060266Y-114281096D01*
X144121285Y-114201286D01*
X144173072Y-114133552D01*
X144173074Y-114133549D01*
X144176330Y-114129290D01*
X144257088Y-113956103D01*
X144258314Y-113950622D01*
X144297890Y-113773570D01*
X144297890Y-113773567D01*
X144298774Y-113769614D01*
X144299101Y-113763765D01*
X144299101Y-112623262D01*
X144294059Y-112576847D01*
X144284228Y-112486351D01*
X144284227Y-112486346D01*
X144283649Y-112481026D01*
X144222699Y-112299916D01*
X144148440Y-112176328D01*
X144127040Y-112140712D01*
X144127039Y-112140710D01*
X144124280Y-112136119D01*
X144099548Y-112109965D01*
X143996667Y-112001172D01*
X143992984Y-111997277D01*
X143834936Y-111889868D01*
X143722955Y-111845079D01*
X143662487Y-111820893D01*
X143662485Y-111820892D01*
X143657511Y-111818903D01*
X143652229Y-111818029D01*
X143652227Y-111818028D01*
X143588734Y-111807517D01*
X143468986Y-111787692D01*
X143389133Y-111791877D01*
X143283511Y-111797412D01*
X143283508Y-111797413D01*
X143278156Y-111797693D01*
X143093926Y-111848439D01*
X143089187Y-111850938D01*
X143089186Y-111850938D01*
X142929630Y-111935062D01*
X142929627Y-111935064D01*
X142924891Y-111937561D01*
X142924146Y-111938190D01*
X142866804Y-111954635D01*
X142809308Y-111933710D01*
X142774797Y-111881933D01*
X142773271Y-111876381D01*
X142734629Y-111789386D01*
X142724453Y-111774579D01*
X142658291Y-111708533D01*
X142643468Y-111698383D01*
X142556419Y-111659900D01*
X142542214Y-111656027D01*
X142526819Y-111654232D01*
X142521107Y-111653900D01*
X142365679Y-111653900D01*
X142352994Y-111658022D01*
X142349999Y-111662143D01*
X142349999Y-112551000D01*
X142331092Y-112609191D01*
X142281592Y-112645155D01*
X142250999Y-112650000D01*
X142148999Y-112650000D01*
X142090808Y-112631093D01*
X142054844Y-112581593D01*
X142049999Y-112551000D01*
X142049999Y-111669580D01*
X142045877Y-111656895D01*
X142041756Y-111653900D01*
X141878960Y-111653900D01*
X141873114Y-111654246D01*
X141857242Y-111656135D01*
X141852151Y-111657534D01*
X141802422Y-111657585D01*
X141799727Y-111656394D01*
X141792336Y-111655532D01*
X141792335Y-111655532D01*
X141776894Y-111653732D01*
X141776893Y-111653732D01*
X141774046Y-111653400D01*
X141502001Y-111653400D01*
X141443810Y-111634493D01*
X141407846Y-111584993D01*
X141407846Y-111523807D01*
X141431997Y-111484396D01*
X142086897Y-110829496D01*
X142141414Y-110801719D01*
X142156901Y-110800500D01*
X142340212Y-110800499D01*
X142361518Y-110800499D01*
X142365361Y-110799890D01*
X142365366Y-110799890D01*
X142416717Y-110791757D01*
X142455304Y-110785646D01*
X142475606Y-110775302D01*
X142536035Y-110765729D01*
X142565497Y-110775303D01*
X142577909Y-110781628D01*
X142592546Y-110786384D01*
X142674673Y-110799391D01*
X142675898Y-110799487D01*
X142687005Y-110795878D01*
X142690000Y-110791757D01*
X142690000Y-110784319D01*
X142990000Y-110784319D01*
X142994122Y-110797004D01*
X142998179Y-110799952D01*
X143005329Y-110799389D01*
X143087449Y-110786384D01*
X143102091Y-110781627D01*
X143201106Y-110731177D01*
X143213551Y-110722135D01*
X143292135Y-110643551D01*
X143301177Y-110631106D01*
X143351629Y-110532088D01*
X143356384Y-110517453D01*
X143364614Y-110465486D01*
X143362527Y-110452313D01*
X143361751Y-110451537D01*
X143355349Y-110450000D01*
X143005680Y-110450000D01*
X142992995Y-110454122D01*
X142990000Y-110458243D01*
X142990000Y-110784319D01*
X142690000Y-110784319D01*
X142690000Y-110599405D01*
X142700791Y-110554459D01*
X142712109Y-110532247D01*
X142712110Y-110532243D01*
X142715646Y-110525304D01*
X142716890Y-110517453D01*
X142729891Y-110435365D01*
X142729891Y-110435363D01*
X142730500Y-110431519D01*
X142730499Y-110168482D01*
X142729507Y-110162213D01*
X142725089Y-110134320D01*
X142990000Y-110134320D01*
X142994122Y-110147005D01*
X142998243Y-110150000D01*
X143351386Y-110150000D01*
X143364071Y-110145878D01*
X143364716Y-110144990D01*
X143365233Y-110138426D01*
X143356384Y-110082551D01*
X143351627Y-110067909D01*
X143301177Y-109968894D01*
X143292135Y-109956449D01*
X143213551Y-109877865D01*
X143201106Y-109868823D01*
X143102088Y-109818371D01*
X143087453Y-109813616D01*
X143005327Y-109800609D01*
X143004102Y-109800513D01*
X142992995Y-109804122D01*
X142990000Y-109808243D01*
X142990000Y-110134320D01*
X142725089Y-110134320D01*
X142721958Y-110114551D01*
X142715646Y-110074696D01*
X142712111Y-110067758D01*
X142712110Y-110067755D01*
X142700791Y-110045541D01*
X142690000Y-110000595D01*
X142690000Y-109815681D01*
X142685878Y-109802996D01*
X142681821Y-109800048D01*
X142674671Y-109800611D01*
X142592550Y-109813616D01*
X142577907Y-109818374D01*
X142565497Y-109824697D01*
X142505065Y-109834271D01*
X142475609Y-109824700D01*
X142455304Y-109814354D01*
X142447612Y-109813136D01*
X142447610Y-109813135D01*
X142365365Y-109800109D01*
X142365363Y-109800109D01*
X142361519Y-109799500D01*
X142200021Y-109799500D01*
X142038482Y-109799501D01*
X142034639Y-109800110D01*
X142034634Y-109800110D01*
X141997783Y-109805947D01*
X141944696Y-109814354D01*
X141924397Y-109824697D01*
X141838597Y-109868414D01*
X141838595Y-109868415D01*
X141831658Y-109871950D01*
X141741950Y-109961658D01*
X141738415Y-109968595D01*
X141738414Y-109968597D01*
X141720678Y-110003406D01*
X141684354Y-110074696D01*
X141683135Y-110082390D01*
X141681779Y-110086565D01*
X141657628Y-110125979D01*
X140132654Y-111650953D01*
X140078137Y-111678730D01*
X140052772Y-111679249D01*
X140052769Y-111679299D01*
X140052137Y-111679262D01*
X140051180Y-111679282D01*
X140047047Y-111678800D01*
X139652955Y-111678800D01*
X139626755Y-111681918D01*
X139623818Y-111683222D01*
X139576069Y-111683272D01*
X139572726Y-111681794D01*
X139565335Y-111680932D01*
X139565334Y-111680932D01*
X139549893Y-111679132D01*
X139549892Y-111679132D01*
X139547045Y-111678800D01*
X139152953Y-111678800D01*
X139126753Y-111681918D01*
X139123816Y-111683222D01*
X139076068Y-111683271D01*
X139072727Y-111681794D01*
X139065336Y-111680932D01*
X139065335Y-111680932D01*
X139049894Y-111679132D01*
X139049893Y-111679132D01*
X139047046Y-111678800D01*
X138652954Y-111678800D01*
X138626754Y-111681918D01*
X138623817Y-111683222D01*
X138576069Y-111683272D01*
X138572726Y-111681794D01*
X138565335Y-111680932D01*
X138565334Y-111680932D01*
X138549893Y-111679132D01*
X138549892Y-111679132D01*
X138547045Y-111678800D01*
X138152953Y-111678800D01*
X138126753Y-111681918D01*
X138123816Y-111683222D01*
X138076068Y-111683271D01*
X138072727Y-111681794D01*
X138065336Y-111680932D01*
X138065335Y-111680932D01*
X138049894Y-111679132D01*
X138049893Y-111679132D01*
X138047046Y-111678800D01*
X137848429Y-111678800D01*
X137790238Y-111659893D01*
X137754274Y-111610393D01*
X137750648Y-111595288D01*
X137750501Y-111594360D01*
X137750501Y-111586568D01*
X137743045Y-111563621D01*
X137739420Y-111548520D01*
X137736866Y-111532392D01*
X137736865Y-111532390D01*
X137735647Y-111524697D01*
X137724695Y-111503202D01*
X137718752Y-111488856D01*
X137713705Y-111473321D01*
X137713703Y-111473317D01*
X137711297Y-111465912D01*
X137697114Y-111446391D01*
X137689002Y-111433152D01*
X137681587Y-111418598D01*
X137681585Y-111418596D01*
X137678051Y-111411659D01*
X137655488Y-111389096D01*
X137655485Y-111389092D01*
X136559495Y-110293102D01*
X136531718Y-110238585D01*
X136530499Y-110223098D01*
X136530499Y-110168482D01*
X136529507Y-110162213D01*
X136521958Y-110114551D01*
X136515646Y-110074696D01*
X136479322Y-110003406D01*
X136461586Y-109968597D01*
X136461585Y-109968595D01*
X136458050Y-109961658D01*
X136368342Y-109871950D01*
X136361405Y-109868415D01*
X136361403Y-109868414D01*
X136262244Y-109817890D01*
X136262243Y-109817890D01*
X136255304Y-109814354D01*
X136247610Y-109813135D01*
X136247609Y-109813135D01*
X136165365Y-109800109D01*
X136165363Y-109800109D01*
X136161519Y-109799500D01*
X136000021Y-109799500D01*
X135838482Y-109799501D01*
X135834639Y-109800110D01*
X135834634Y-109800110D01*
X135787014Y-109807652D01*
X135744696Y-109814354D01*
X135724394Y-109824698D01*
X135663965Y-109834271D01*
X135634503Y-109824697D01*
X135622091Y-109818372D01*
X135607454Y-109813616D01*
X135525327Y-109800609D01*
X135524102Y-109800513D01*
X135512995Y-109804122D01*
X135510000Y-109808243D01*
X135510000Y-110000595D01*
X135499209Y-110045541D01*
X135487891Y-110067753D01*
X135487890Y-110067757D01*
X135484354Y-110074696D01*
X135483135Y-110082390D01*
X135483135Y-110082391D01*
X135472427Y-110150000D01*
X135469500Y-110168481D01*
X135469501Y-110431518D01*
X135470110Y-110435361D01*
X135470110Y-110435366D01*
X135474911Y-110465680D01*
X135484354Y-110525304D01*
X135487889Y-110532242D01*
X135487890Y-110532245D01*
X135499209Y-110554459D01*
X135510000Y-110599405D01*
X135510000Y-110784319D01*
X135514122Y-110797004D01*
X135518179Y-110799952D01*
X135525329Y-110799389D01*
X135607450Y-110786384D01*
X135622093Y-110781626D01*
X135634503Y-110775303D01*
X135694935Y-110765729D01*
X135724391Y-110775300D01*
X135744696Y-110785646D01*
X135752388Y-110786864D01*
X135752390Y-110786865D01*
X135834635Y-110799891D01*
X135834637Y-110799891D01*
X135838481Y-110800500D01*
X135893099Y-110800500D01*
X135951290Y-110819407D01*
X135963103Y-110829496D01*
X136618003Y-111484396D01*
X136645780Y-111538913D01*
X136636209Y-111599345D01*
X136592944Y-111642610D01*
X136547999Y-111653400D01*
X136425953Y-111653400D01*
X136399753Y-111656518D01*
X136397453Y-111657540D01*
X136347949Y-111657590D01*
X136342217Y-111656027D01*
X136326820Y-111654232D01*
X136321108Y-111653900D01*
X136165680Y-111653900D01*
X136152995Y-111658022D01*
X136150000Y-111662143D01*
X136150000Y-112551000D01*
X136131093Y-112609191D01*
X136081593Y-112645155D01*
X136051000Y-112650000D01*
X135949000Y-112650000D01*
X135890809Y-112631093D01*
X135854845Y-112581593D01*
X135850000Y-112551000D01*
X135850000Y-111669580D01*
X135845878Y-111656895D01*
X135841757Y-111653900D01*
X135678961Y-111653900D01*
X135673115Y-111654246D01*
X135657247Y-111656134D01*
X135643081Y-111660028D01*
X135556086Y-111698670D01*
X135541279Y-111708846D01*
X135475233Y-111775008D01*
X135465083Y-111789831D01*
X135426600Y-111876880D01*
X135423934Y-111886657D01*
X135390385Y-111937825D01*
X135333168Y-111959502D01*
X135272774Y-111942497D01*
X135195333Y-111889868D01*
X135083352Y-111845079D01*
X135022884Y-111820893D01*
X135022882Y-111820892D01*
X135017908Y-111818903D01*
X135012626Y-111818029D01*
X135012624Y-111818028D01*
X134949131Y-111807517D01*
X134829383Y-111787692D01*
X134749530Y-111791877D01*
X134643908Y-111797412D01*
X134643905Y-111797413D01*
X134638553Y-111797693D01*
X134454323Y-111848439D01*
X134285288Y-111937561D01*
X134139333Y-112060902D01*
X134136077Y-112065161D01*
X134026527Y-112208446D01*
X134026525Y-112208449D01*
X134023269Y-112212708D01*
X133942511Y-112385895D01*
X133941343Y-112391120D01*
X133941342Y-112391123D01*
X133905605Y-112551000D01*
X133900825Y-112572384D01*
X133900498Y-112578233D01*
X133900498Y-113718736D01*
X119600000Y-113718736D01*
X119600000Y-112793402D01*
X129969941Y-112793402D01*
X129970596Y-112799335D01*
X129970596Y-112799339D01*
X129972126Y-112813196D01*
X129986554Y-112943883D01*
X129988606Y-112949490D01*
X130036530Y-113080451D01*
X130036532Y-113080455D01*
X130038582Y-113086057D01*
X130123022Y-113211716D01*
X130127434Y-113215731D01*
X130127437Y-113215734D01*
X130143521Y-113230369D01*
X130234998Y-113313607D01*
X130288774Y-113342805D01*
X130362801Y-113382999D01*
X130362803Y-113383000D01*
X130368047Y-113385847D01*
X130444798Y-113405982D01*
X130508717Y-113422751D01*
X130508721Y-113422751D01*
X130514486Y-113424264D01*
X130520447Y-113424358D01*
X130520450Y-113424358D01*
X130590175Y-113425453D01*
X130665863Y-113426642D01*
X130671679Y-113425310D01*
X130807614Y-113394177D01*
X130807617Y-113394176D01*
X130813437Y-113392843D01*
X130824337Y-113387361D01*
X130943355Y-113327502D01*
X130943357Y-113327501D01*
X130948689Y-113324819D01*
X131063810Y-113226495D01*
X131152156Y-113103550D01*
X131208624Y-112963080D01*
X131229956Y-112813196D01*
X131230094Y-112800000D01*
X131223083Y-112742064D01*
X131212623Y-112655623D01*
X131212622Y-112655620D01*
X131211906Y-112649701D01*
X131158392Y-112508080D01*
X131072640Y-112383311D01*
X130984740Y-112304995D01*
X130964057Y-112286567D01*
X130964055Y-112286566D01*
X130959603Y-112282599D01*
X130825805Y-112211757D01*
X130820017Y-112210303D01*
X130820014Y-112210302D01*
X130684760Y-112176328D01*
X130684761Y-112176328D01*
X130678972Y-112174874D01*
X130603275Y-112174478D01*
X130533545Y-112174113D01*
X130533543Y-112174113D01*
X130527579Y-112174082D01*
X130380367Y-112209424D01*
X130310544Y-112245462D01*
X130251141Y-112276122D01*
X130251139Y-112276124D01*
X130245835Y-112278861D01*
X130131749Y-112378385D01*
X130128318Y-112383267D01*
X130128317Y-112383268D01*
X130056365Y-112485646D01*
X130044696Y-112502249D01*
X130042529Y-112507807D01*
X130042528Y-112507809D01*
X129998552Y-112620603D01*
X129989702Y-112643302D01*
X129988923Y-112649217D01*
X129988923Y-112649218D01*
X129988820Y-112650000D01*
X129969941Y-112793402D01*
X119600000Y-112793402D01*
X119600000Y-110693402D01*
X129219941Y-110693402D01*
X129220596Y-110699335D01*
X129220596Y-110699339D01*
X129233205Y-110813548D01*
X129236554Y-110843883D01*
X129238606Y-110849490D01*
X129286530Y-110980451D01*
X129286532Y-110980455D01*
X129288582Y-110986057D01*
X129373022Y-111111716D01*
X129377434Y-111115731D01*
X129377437Y-111115734D01*
X129393521Y-111130369D01*
X129484998Y-111213607D01*
X129543137Y-111245174D01*
X129612801Y-111282999D01*
X129612803Y-111283000D01*
X129618047Y-111285847D01*
X129694798Y-111305982D01*
X129758717Y-111322751D01*
X129758721Y-111322751D01*
X129764486Y-111324264D01*
X129770447Y-111324358D01*
X129770450Y-111324358D01*
X129840174Y-111325453D01*
X129915863Y-111326642D01*
X129921679Y-111325310D01*
X130057614Y-111294177D01*
X130057617Y-111294176D01*
X130063437Y-111292843D01*
X130074337Y-111287361D01*
X130193355Y-111227502D01*
X130193357Y-111227501D01*
X130198689Y-111224819D01*
X130313810Y-111126495D01*
X130395451Y-111012881D01*
X130398672Y-111008399D01*
X130398673Y-111008397D01*
X130402156Y-111003550D01*
X130458624Y-110863080D01*
X130479956Y-110713196D01*
X130480094Y-110700000D01*
X130467940Y-110599561D01*
X130462623Y-110555623D01*
X130462622Y-110555620D01*
X130461906Y-110549701D01*
X130449780Y-110517609D01*
X130428606Y-110461574D01*
X134834767Y-110461574D01*
X134843616Y-110517449D01*
X134848373Y-110532091D01*
X134898823Y-110631106D01*
X134907865Y-110643551D01*
X134986449Y-110722135D01*
X134998894Y-110731177D01*
X135097912Y-110781629D01*
X135112547Y-110786384D01*
X135194673Y-110799391D01*
X135195898Y-110799487D01*
X135207005Y-110795878D01*
X135210000Y-110791757D01*
X135210000Y-110465680D01*
X135205878Y-110452995D01*
X135201757Y-110450000D01*
X134848614Y-110450000D01*
X134835929Y-110454122D01*
X134835284Y-110455010D01*
X134834767Y-110461574D01*
X130428606Y-110461574D01*
X130410502Y-110413664D01*
X130408392Y-110408080D01*
X130322640Y-110283311D01*
X130288950Y-110253295D01*
X130214057Y-110186567D01*
X130214055Y-110186566D01*
X130209603Y-110182599D01*
X130200351Y-110177700D01*
X130142377Y-110147005D01*
X130118782Y-110134512D01*
X134835386Y-110134512D01*
X134837473Y-110147687D01*
X134838249Y-110148463D01*
X134844651Y-110150000D01*
X135194320Y-110150000D01*
X135207005Y-110145878D01*
X135210000Y-110141757D01*
X135210000Y-109815681D01*
X135205878Y-109802996D01*
X135201821Y-109800048D01*
X135194671Y-109800611D01*
X135112551Y-109813616D01*
X135097909Y-109818373D01*
X134998894Y-109868823D01*
X134986449Y-109877865D01*
X134907865Y-109956449D01*
X134898823Y-109968894D01*
X134848371Y-110067912D01*
X134843616Y-110082547D01*
X134835386Y-110134512D01*
X130118782Y-110134512D01*
X130075805Y-110111757D01*
X130070017Y-110110303D01*
X130070014Y-110110302D01*
X129963364Y-110083513D01*
X129928972Y-110074874D01*
X129853275Y-110074478D01*
X129783545Y-110074113D01*
X129783543Y-110074113D01*
X129777579Y-110074082D01*
X129771776Y-110075475D01*
X129771777Y-110075475D01*
X129637565Y-110107696D01*
X129630367Y-110109424D01*
X129582132Y-110134320D01*
X129501141Y-110176122D01*
X129501139Y-110176124D01*
X129495835Y-110178861D01*
X129381749Y-110278385D01*
X129294696Y-110402249D01*
X129292529Y-110407807D01*
X129292528Y-110407809D01*
X129249780Y-110517453D01*
X129239702Y-110543302D01*
X129238923Y-110549217D01*
X129238923Y-110549218D01*
X129238233Y-110554459D01*
X129219941Y-110693402D01*
X119600000Y-110693402D01*
X119600000Y-108593402D01*
X128469941Y-108593402D01*
X128470596Y-108599335D01*
X128470596Y-108599339D01*
X128485760Y-108736691D01*
X128486554Y-108743883D01*
X128488606Y-108749490D01*
X128536530Y-108880451D01*
X128536532Y-108880455D01*
X128538582Y-108886057D01*
X128623022Y-109011716D01*
X128627434Y-109015731D01*
X128627437Y-109015734D01*
X128725918Y-109105345D01*
X128734998Y-109113607D01*
X128786019Y-109141309D01*
X128862801Y-109182999D01*
X128862803Y-109183000D01*
X128868047Y-109185847D01*
X128921291Y-109199815D01*
X129008717Y-109222751D01*
X129008721Y-109222751D01*
X129014486Y-109224264D01*
X129020447Y-109224358D01*
X129020450Y-109224358D01*
X129090175Y-109225453D01*
X129165863Y-109226642D01*
X129171679Y-109225310D01*
X129307614Y-109194177D01*
X129307617Y-109194176D01*
X129313437Y-109192843D01*
X129324337Y-109187361D01*
X129443355Y-109127502D01*
X129443357Y-109127501D01*
X129448689Y-109124819D01*
X129563810Y-109026495D01*
X129640592Y-108919643D01*
X129648672Y-108908399D01*
X129648673Y-108908397D01*
X129652156Y-108903550D01*
X129708624Y-108763080D01*
X129729956Y-108613196D01*
X129730094Y-108600000D01*
X129721217Y-108526642D01*
X129712623Y-108455623D01*
X129712622Y-108455620D01*
X129711906Y-108449701D01*
X129699344Y-108416455D01*
X129660502Y-108313664D01*
X129658392Y-108308080D01*
X129572640Y-108183311D01*
X129481428Y-108102044D01*
X129464057Y-108086567D01*
X129464055Y-108086566D01*
X129459603Y-108082599D01*
X129325805Y-108011757D01*
X129320017Y-108010303D01*
X129320014Y-108010302D01*
X129216892Y-107984399D01*
X129178972Y-107974874D01*
X129103275Y-107974478D01*
X129033545Y-107974113D01*
X129033543Y-107974113D01*
X129027579Y-107974082D01*
X128880367Y-108009424D01*
X128818186Y-108041518D01*
X128751141Y-108076122D01*
X128751139Y-108076124D01*
X128745835Y-108078861D01*
X128631749Y-108178385D01*
X128544696Y-108302249D01*
X128542529Y-108307807D01*
X128542528Y-108307809D01*
X128500169Y-108416455D01*
X128489702Y-108443302D01*
X128488923Y-108449217D01*
X128488923Y-108449218D01*
X128488228Y-108454500D01*
X128469941Y-108593402D01*
X119600000Y-108593402D01*
X119600000Y-106493402D01*
X130719941Y-106493402D01*
X130720596Y-106499335D01*
X130720596Y-106499339D01*
X130728659Y-106572374D01*
X130736554Y-106643883D01*
X130745893Y-106669404D01*
X130786530Y-106780451D01*
X130786532Y-106780455D01*
X130788582Y-106786057D01*
X130873022Y-106911716D01*
X130877434Y-106915731D01*
X130877437Y-106915734D01*
X130980582Y-107009589D01*
X130984998Y-107013607D01*
X131011599Y-107028050D01*
X131112801Y-107082999D01*
X131112803Y-107083000D01*
X131118047Y-107085847D01*
X131173902Y-107100500D01*
X131258717Y-107122751D01*
X131258721Y-107122751D01*
X131264486Y-107124264D01*
X131270447Y-107124358D01*
X131270450Y-107124358D01*
X131340174Y-107125453D01*
X131415863Y-107126642D01*
X131421679Y-107125310D01*
X131557614Y-107094177D01*
X131557617Y-107094176D01*
X131563437Y-107092843D01*
X131574337Y-107087361D01*
X131693355Y-107027502D01*
X131693357Y-107027501D01*
X131698689Y-107024819D01*
X131813810Y-106926495D01*
X131864183Y-106856395D01*
X131898672Y-106808399D01*
X131898673Y-106808397D01*
X131902156Y-106803550D01*
X131958624Y-106663080D01*
X131979956Y-106513196D01*
X131980094Y-106500000D01*
X131970593Y-106421484D01*
X131962623Y-106355623D01*
X131962622Y-106355620D01*
X131961906Y-106349701D01*
X131908392Y-106208080D01*
X131822640Y-106083311D01*
X131709603Y-105982599D01*
X131575805Y-105911757D01*
X131570017Y-105910303D01*
X131570014Y-105910302D01*
X131434760Y-105876328D01*
X131434761Y-105876328D01*
X131428972Y-105874874D01*
X131353276Y-105874478D01*
X131283545Y-105874113D01*
X131283543Y-105874113D01*
X131277579Y-105874082D01*
X131130367Y-105909424D01*
X131120434Y-105914551D01*
X131001141Y-105976122D01*
X131001139Y-105976124D01*
X130995835Y-105978861D01*
X130881749Y-106078385D01*
X130878318Y-106083267D01*
X130878317Y-106083268D01*
X130813959Y-106174841D01*
X130794696Y-106202249D01*
X130792529Y-106207807D01*
X130792528Y-106207809D01*
X130749303Y-106318677D01*
X130739702Y-106343302D01*
X130738923Y-106349217D01*
X130738923Y-106349218D01*
X130738080Y-106355623D01*
X130719941Y-106493402D01*
X119600000Y-106493402D01*
X119600000Y-93084320D01*
X135424201Y-93084320D01*
X135428323Y-93097005D01*
X135432444Y-93100000D01*
X136058521Y-93100000D01*
X136071206Y-93095878D01*
X136074201Y-93091757D01*
X136074201Y-92725680D01*
X136070079Y-92712995D01*
X136065958Y-92710000D01*
X135682562Y-92710000D01*
X135676716Y-92710346D01*
X135660848Y-92712234D01*
X135646682Y-92716128D01*
X135559687Y-92754770D01*
X135544880Y-92764946D01*
X135478834Y-92831108D01*
X135468684Y-92845931D01*
X135430201Y-92932980D01*
X135426328Y-92947185D01*
X135424533Y-92962580D01*
X135424201Y-92968292D01*
X135424201Y-93084320D01*
X119600000Y-93084320D01*
X119600000Y-89751212D01*
X119618907Y-89693021D01*
X119668407Y-89657057D01*
X119729593Y-89657057D01*
X119761835Y-89675598D01*
X119762970Y-89676948D01*
X119882313Y-89756390D01*
X119982920Y-89787821D01*
X120012425Y-89797039D01*
X120012426Y-89797039D01*
X120019157Y-89799142D01*
X120090828Y-89800456D01*
X120155445Y-89801641D01*
X120155447Y-89801641D01*
X120162499Y-89801770D01*
X120169302Y-89799915D01*
X120169304Y-89799915D01*
X120244503Y-89779413D01*
X120300817Y-89764060D01*
X120422991Y-89689045D01*
X120433523Y-89677410D01*
X120514468Y-89587982D01*
X120519200Y-89582754D01*
X120581710Y-89453733D01*
X120584170Y-89439115D01*
X120604862Y-89316124D01*
X120604862Y-89316120D01*
X120605496Y-89312354D01*
X120605647Y-89300000D01*
X120585323Y-89158082D01*
X120525984Y-89027572D01*
X120487456Y-88982858D01*
X120470882Y-88963623D01*
X120447221Y-88907198D01*
X120461245Y-88847641D01*
X120507597Y-88807702D01*
X120545881Y-88800000D01*
X136701000Y-88800000D01*
X136759191Y-88818907D01*
G37*
%TD.AperFunction*%
%TA.AperFunction,Conductor*%
G36*
X158659191Y-88818907D02*
G01*
X158695155Y-88868407D01*
X158700000Y-88899000D01*
X158700000Y-105605500D01*
X158681093Y-105663691D01*
X158631593Y-105699655D01*
X158601000Y-105704500D01*
X151564998Y-105704500D01*
X151506807Y-105685593D01*
X151470843Y-105636093D01*
X151470843Y-105574907D01*
X151506807Y-105525407D01*
X151542896Y-105508999D01*
X151607615Y-105494177D01*
X151607619Y-105494175D01*
X151613437Y-105492843D01*
X151624337Y-105487361D01*
X151743355Y-105427502D01*
X151743357Y-105427501D01*
X151748689Y-105424819D01*
X151863810Y-105326495D01*
X151952156Y-105203550D01*
X152008624Y-105063080D01*
X152025516Y-104944394D01*
X152029500Y-104916401D01*
X152029500Y-104916399D01*
X152029956Y-104913196D01*
X152030094Y-104900000D01*
X152020253Y-104818677D01*
X152012623Y-104755623D01*
X152012622Y-104755620D01*
X152011906Y-104749701D01*
X152004138Y-104729142D01*
X151960502Y-104613664D01*
X151958392Y-104608080D01*
X151872640Y-104483311D01*
X151759603Y-104382599D01*
X151739491Y-104371950D01*
X151713432Y-104358153D01*
X151625805Y-104311757D01*
X151620017Y-104310303D01*
X151620014Y-104310302D01*
X151516892Y-104284399D01*
X151478972Y-104274874D01*
X151403276Y-104274478D01*
X151333545Y-104274113D01*
X151333543Y-104274113D01*
X151327579Y-104274082D01*
X151321776Y-104275475D01*
X151321777Y-104275475D01*
X151190435Y-104307007D01*
X151180367Y-104309424D01*
X151124339Y-104338342D01*
X151051141Y-104376122D01*
X151051139Y-104376124D01*
X151045835Y-104378861D01*
X150931749Y-104478385D01*
X150928322Y-104483262D01*
X150928315Y-104483269D01*
X150901662Y-104521192D01*
X150852733Y-104557929D01*
X150791555Y-104558889D01*
X150750662Y-104534270D01*
X150738342Y-104521950D01*
X150731405Y-104518415D01*
X150731403Y-104518414D01*
X150632244Y-104467890D01*
X150632243Y-104467890D01*
X150625304Y-104464354D01*
X150617610Y-104463135D01*
X150617609Y-104463135D01*
X150535365Y-104450109D01*
X150535363Y-104450109D01*
X150531519Y-104449500D01*
X150400034Y-104449500D01*
X150268482Y-104449501D01*
X150264639Y-104450110D01*
X150264634Y-104450110D01*
X150229712Y-104455641D01*
X150174696Y-104464354D01*
X150127837Y-104488230D01*
X150126895Y-104488710D01*
X150081950Y-104499500D01*
X150054481Y-104499500D01*
X149996290Y-104480593D01*
X149978772Y-104463075D01*
X149978050Y-104461658D01*
X149888342Y-104371950D01*
X149881405Y-104368415D01*
X149881403Y-104368414D01*
X149782244Y-104317890D01*
X149782243Y-104317890D01*
X149775304Y-104314354D01*
X149767610Y-104313135D01*
X149767609Y-104313135D01*
X149685365Y-104300109D01*
X149685363Y-104300109D01*
X149681519Y-104299500D01*
X149520021Y-104299500D01*
X149358482Y-104299501D01*
X149354639Y-104300110D01*
X149354634Y-104300110D01*
X149317783Y-104305947D01*
X149264696Y-104314354D01*
X149257758Y-104317889D01*
X149257755Y-104317890D01*
X149244946Y-104324417D01*
X149184514Y-104333989D01*
X149155054Y-104324417D01*
X149142246Y-104317891D01*
X149142245Y-104317891D01*
X149135304Y-104314354D01*
X149127610Y-104313135D01*
X149127609Y-104313135D01*
X149045365Y-104300109D01*
X149045363Y-104300109D01*
X149041519Y-104299500D01*
X149031995Y-104299500D01*
X148846626Y-104299501D01*
X148788436Y-104280594D01*
X148752472Y-104231094D01*
X148752471Y-104169909D01*
X148766993Y-104141683D01*
X148809300Y-104084404D01*
X148809301Y-104084403D01*
X148813696Y-104078452D01*
X148857585Y-103953474D01*
X148860500Y-103922638D01*
X148860500Y-103477362D01*
X148859562Y-103467441D01*
X148872909Y-103407729D01*
X148918804Y-103367266D01*
X148967440Y-103359562D01*
X148970060Y-103359810D01*
X148975053Y-103360282D01*
X148975059Y-103360282D01*
X148977362Y-103360500D01*
X149422638Y-103360500D01*
X149424939Y-103360282D01*
X149424949Y-103360282D01*
X149447466Y-103358153D01*
X149453474Y-103357585D01*
X149578452Y-103313696D01*
X149587146Y-103307275D01*
X149679042Y-103239399D01*
X149684999Y-103234999D01*
X149720315Y-103187185D01*
X149759300Y-103134404D01*
X149759301Y-103134403D01*
X149763696Y-103128452D01*
X149807585Y-103003474D01*
X149810500Y-102972638D01*
X149810500Y-102587362D01*
X149807585Y-102556526D01*
X149763696Y-102431548D01*
X149754226Y-102418727D01*
X149709977Y-102358818D01*
X149690613Y-102300777D01*
X149709977Y-102241182D01*
X149759300Y-102174404D01*
X149759301Y-102174403D01*
X149763696Y-102168452D01*
X149807585Y-102043474D01*
X149810500Y-102012638D01*
X149810500Y-101627362D01*
X149808708Y-101608399D01*
X149808153Y-101602534D01*
X149807585Y-101596526D01*
X149763696Y-101471548D01*
X149757442Y-101463080D01*
X149689399Y-101370958D01*
X149684999Y-101365001D01*
X149659685Y-101346304D01*
X149584404Y-101290700D01*
X149584403Y-101290699D01*
X149578452Y-101286304D01*
X149453474Y-101242415D01*
X149447466Y-101241847D01*
X149424949Y-101239718D01*
X149424939Y-101239718D01*
X149422638Y-101239500D01*
X148977362Y-101239500D01*
X148975061Y-101239718D01*
X148975051Y-101239718D01*
X148952534Y-101241847D01*
X148946526Y-101242415D01*
X148821548Y-101286304D01*
X148815597Y-101290699D01*
X148815596Y-101290700D01*
X148740315Y-101346304D01*
X148715001Y-101365001D01*
X148710865Y-101370601D01*
X148656538Y-101398281D01*
X148641051Y-101399500D01*
X148556356Y-101399500D01*
X148498167Y-101380594D01*
X148493848Y-101377456D01*
X148488342Y-101371950D01*
X148375304Y-101314354D01*
X148367610Y-101313135D01*
X148367609Y-101313135D01*
X148285365Y-101300109D01*
X148285363Y-101300109D01*
X148281519Y-101299500D01*
X148120021Y-101299500D01*
X147958482Y-101299501D01*
X147954639Y-101300110D01*
X147954634Y-101300110D01*
X147917783Y-101305947D01*
X147864696Y-101314354D01*
X147857758Y-101317889D01*
X147857755Y-101317890D01*
X147844946Y-101324417D01*
X147784514Y-101333989D01*
X147755054Y-101324417D01*
X147742246Y-101317891D01*
X147742245Y-101317891D01*
X147735304Y-101314354D01*
X147727610Y-101313135D01*
X147727609Y-101313135D01*
X147645365Y-101300109D01*
X147645363Y-101300109D01*
X147641519Y-101299500D01*
X147480021Y-101299500D01*
X147318482Y-101299501D01*
X147314639Y-101300110D01*
X147314634Y-101300110D01*
X147277783Y-101305947D01*
X147224696Y-101314354D01*
X147172870Y-101340761D01*
X147118597Y-101368414D01*
X147118595Y-101368415D01*
X147111658Y-101371950D01*
X147045289Y-101438319D01*
X146990772Y-101466096D01*
X146930340Y-101456525D01*
X146917095Y-101448408D01*
X146891758Y-101430000D01*
X146699405Y-101430000D01*
X146654459Y-101419209D01*
X146632247Y-101407891D01*
X146632243Y-101407890D01*
X146625304Y-101404354D01*
X146617610Y-101403135D01*
X146617609Y-101403135D01*
X146535365Y-101390109D01*
X146535363Y-101390109D01*
X146531519Y-101389500D01*
X146519388Y-101389500D01*
X146349000Y-101389501D01*
X146290810Y-101370594D01*
X146254846Y-101321094D01*
X146250000Y-101290501D01*
X146250000Y-101114320D01*
X146550000Y-101114320D01*
X146554122Y-101127005D01*
X146558243Y-101130000D01*
X146884319Y-101130000D01*
X146897004Y-101125878D01*
X146899952Y-101121821D01*
X146899389Y-101114671D01*
X146886384Y-101032551D01*
X146881627Y-101017909D01*
X146831177Y-100918894D01*
X146822135Y-100906449D01*
X146743551Y-100827865D01*
X146731106Y-100818823D01*
X146632088Y-100768371D01*
X146617453Y-100763616D01*
X146565488Y-100755386D01*
X146552313Y-100757473D01*
X146551537Y-100758249D01*
X146550000Y-100764651D01*
X146550000Y-101114320D01*
X146250000Y-101114320D01*
X146250000Y-100768614D01*
X146245878Y-100755929D01*
X146244990Y-100755284D01*
X146238426Y-100754767D01*
X146182551Y-100763616D01*
X146167909Y-100768373D01*
X146150745Y-100777118D01*
X146090313Y-100786689D01*
X146035796Y-100758911D01*
X146010004Y-100708291D01*
X146008949Y-100708522D01*
X146008062Y-100704480D01*
X146008019Y-100704395D01*
X146007986Y-100704131D01*
X146005090Y-100690930D01*
X145965700Y-100578766D01*
X145958853Y-100565833D01*
X145889041Y-100471316D01*
X145878684Y-100460959D01*
X145784167Y-100391147D01*
X145771234Y-100384300D01*
X145659073Y-100344912D01*
X145647371Y-100342344D01*
X145624886Y-100340218D01*
X145620250Y-100340000D01*
X145565680Y-100340000D01*
X145552995Y-100344122D01*
X145550000Y-100348243D01*
X145550000Y-100971000D01*
X145531093Y-101029191D01*
X145481593Y-101065155D01*
X145451000Y-101070000D01*
X144805681Y-101070000D01*
X144792996Y-101074122D01*
X144790001Y-101078243D01*
X144790001Y-101110247D01*
X144790220Y-101114890D01*
X144792345Y-101137374D01*
X144794910Y-101149070D01*
X144834300Y-101261234D01*
X144841147Y-101274167D01*
X144890334Y-101340761D01*
X144909698Y-101398802D01*
X144890334Y-101458397D01*
X144874747Y-101479500D01*
X144836304Y-101531548D01*
X144792415Y-101656526D01*
X144791847Y-101662534D01*
X144790038Y-101681673D01*
X144789500Y-101687362D01*
X144789500Y-102072638D01*
X144789718Y-102074939D01*
X144789718Y-102074949D01*
X144790869Y-102087119D01*
X144792415Y-102103474D01*
X144794415Y-102109169D01*
X144822917Y-102190332D01*
X144824358Y-102251500D01*
X144789570Y-102301834D01*
X144731841Y-102322107D01*
X144683184Y-102310627D01*
X144671232Y-102304299D01*
X144559073Y-102264912D01*
X144547371Y-102262344D01*
X144524886Y-102260218D01*
X144520250Y-102260000D01*
X144465680Y-102260000D01*
X144452995Y-102264122D01*
X144450000Y-102268243D01*
X144450000Y-102674320D01*
X144454122Y-102687005D01*
X144458243Y-102690000D01*
X144734320Y-102690000D01*
X144776307Y-102676358D01*
X144778386Y-102674847D01*
X144808985Y-102670000D01*
X145451000Y-102670000D01*
X145509191Y-102688907D01*
X145545155Y-102738407D01*
X145550000Y-102769000D01*
X145550000Y-102871000D01*
X145531093Y-102929191D01*
X145481593Y-102965155D01*
X145451000Y-102970000D01*
X144965680Y-102970000D01*
X144923693Y-102983642D01*
X144921614Y-102985153D01*
X144891015Y-102990000D01*
X143705681Y-102990000D01*
X143692996Y-102994122D01*
X143690001Y-102998243D01*
X143690001Y-103030247D01*
X143690220Y-103034890D01*
X143692345Y-103057374D01*
X143694910Y-103069070D01*
X143734300Y-103181234D01*
X143741147Y-103194167D01*
X143790334Y-103260761D01*
X143809698Y-103318802D01*
X143790334Y-103378397D01*
X143751779Y-103430596D01*
X143736304Y-103451548D01*
X143692415Y-103576526D01*
X143691847Y-103582534D01*
X143691414Y-103587119D01*
X143689500Y-103607362D01*
X143689500Y-103992638D01*
X143689718Y-103994939D01*
X143689718Y-103994949D01*
X143691847Y-104017466D01*
X143692415Y-104023474D01*
X143736304Y-104148452D01*
X143815001Y-104254999D01*
X143820958Y-104259399D01*
X143897789Y-104316147D01*
X143921548Y-104333696D01*
X144046526Y-104377585D01*
X144052534Y-104378153D01*
X144075051Y-104380282D01*
X144075061Y-104380282D01*
X144077362Y-104380500D01*
X144522638Y-104380500D01*
X144524939Y-104380282D01*
X144524949Y-104380282D01*
X144547466Y-104378153D01*
X144553474Y-104377585D01*
X144678452Y-104333696D01*
X144702212Y-104316147D01*
X144724748Y-104299501D01*
X144731022Y-104294867D01*
X144789840Y-104275500D01*
X144937238Y-104275500D01*
X144996055Y-104294866D01*
X145021548Y-104313696D01*
X145146526Y-104357585D01*
X145152534Y-104358153D01*
X145175051Y-104360282D01*
X145175061Y-104360282D01*
X145177362Y-104360500D01*
X145622638Y-104360500D01*
X145624939Y-104360282D01*
X145624949Y-104360282D01*
X145647466Y-104358153D01*
X145653474Y-104357585D01*
X145778452Y-104313696D01*
X145784405Y-104309299D01*
X145788734Y-104307007D01*
X145835059Y-104295500D01*
X145991887Y-104295500D01*
X146050078Y-104314407D01*
X146069808Y-104334138D01*
X146071950Y-104338342D01*
X146077459Y-104343851D01*
X146082041Y-104350158D01*
X146079377Y-104352093D01*
X146100585Y-104393717D01*
X146091014Y-104454149D01*
X146066432Y-104478731D01*
X146067716Y-104480014D01*
X146035538Y-104512192D01*
X146008744Y-104564780D01*
X146003987Y-104579421D01*
X145986108Y-104692304D01*
X145986108Y-104707696D01*
X146003987Y-104820581D01*
X146008743Y-104835220D01*
X146018570Y-104854506D01*
X146028141Y-104914938D01*
X146018570Y-104944394D01*
X146004725Y-104971567D01*
X146003507Y-104979260D01*
X145997689Y-105015988D01*
X145969911Y-105070504D01*
X145915394Y-105098281D01*
X145899908Y-105099500D01*
X145006901Y-105099500D01*
X144948710Y-105080593D01*
X144936897Y-105070504D01*
X144560909Y-104694516D01*
X144560905Y-104694513D01*
X144538342Y-104671950D01*
X144516846Y-104660998D01*
X144503605Y-104652883D01*
X144491169Y-104643847D01*
X144484090Y-104638704D01*
X144461143Y-104631248D01*
X144446797Y-104625305D01*
X144425304Y-104614354D01*
X144417609Y-104613135D01*
X144417608Y-104613135D01*
X144401483Y-104610581D01*
X144386379Y-104606955D01*
X144370842Y-104601907D01*
X144370840Y-104601907D01*
X144363433Y-104599500D01*
X144339309Y-104599500D01*
X144323822Y-104598281D01*
X144307697Y-104595727D01*
X144300000Y-104594508D01*
X144292303Y-104595727D01*
X144276178Y-104598281D01*
X144260691Y-104599500D01*
X144236567Y-104599500D01*
X144229160Y-104601907D01*
X144229158Y-104601907D01*
X144213621Y-104606955D01*
X144198517Y-104610581D01*
X144182392Y-104613135D01*
X144182391Y-104613135D01*
X144174696Y-104614354D01*
X144153203Y-104625305D01*
X144138857Y-104631248D01*
X144123319Y-104636296D01*
X144123315Y-104636298D01*
X144115910Y-104638704D01*
X144096386Y-104652889D01*
X144083156Y-104660996D01*
X144061658Y-104671950D01*
X144044597Y-104689011D01*
X144032784Y-104699099D01*
X144014510Y-104712376D01*
X144014508Y-104712377D01*
X144013274Y-104713274D01*
X144013132Y-104713079D01*
X143962820Y-104738713D01*
X143902388Y-104729142D01*
X143877329Y-104710936D01*
X143429496Y-104263103D01*
X143401719Y-104208586D01*
X143400500Y-104193099D01*
X143400500Y-102674320D01*
X143690000Y-102674320D01*
X143694122Y-102687005D01*
X143698243Y-102690000D01*
X144134320Y-102690000D01*
X144147005Y-102685878D01*
X144150000Y-102681757D01*
X144150000Y-102275681D01*
X144145878Y-102262996D01*
X144141757Y-102260001D01*
X144079753Y-102260001D01*
X144075110Y-102260220D01*
X144052626Y-102262345D01*
X144040930Y-102264910D01*
X143928766Y-102304300D01*
X143915833Y-102311147D01*
X143821316Y-102380959D01*
X143810959Y-102391316D01*
X143741147Y-102485833D01*
X143734300Y-102498766D01*
X143694912Y-102610927D01*
X143692344Y-102622629D01*
X143690218Y-102645114D01*
X143690000Y-102649750D01*
X143690000Y-102674320D01*
X143400500Y-102674320D01*
X143400500Y-101706901D01*
X143419407Y-101648710D01*
X143429496Y-101636897D01*
X144312072Y-100754320D01*
X144790000Y-100754320D01*
X144794122Y-100767005D01*
X144798243Y-100770000D01*
X145234320Y-100770000D01*
X145247005Y-100765878D01*
X145250000Y-100761757D01*
X145250000Y-100355681D01*
X145245878Y-100342996D01*
X145241757Y-100340001D01*
X145179753Y-100340001D01*
X145175110Y-100340220D01*
X145152626Y-100342345D01*
X145140930Y-100344910D01*
X145028766Y-100384300D01*
X145015833Y-100391147D01*
X144921316Y-100460959D01*
X144910959Y-100471316D01*
X144841147Y-100565833D01*
X144834300Y-100578766D01*
X144794912Y-100690927D01*
X144792344Y-100702629D01*
X144790218Y-100725114D01*
X144790000Y-100729750D01*
X144790000Y-100754320D01*
X144312072Y-100754320D01*
X144355483Y-100710909D01*
X144378050Y-100688342D01*
X144389004Y-100666844D01*
X144397111Y-100653614D01*
X144411296Y-100634090D01*
X144418751Y-100611144D01*
X144424696Y-100596794D01*
X144427322Y-100591640D01*
X144435646Y-100575304D01*
X144439420Y-100551475D01*
X144443046Y-100536373D01*
X144448092Y-100520843D01*
X144448093Y-100520840D01*
X144450499Y-100513433D01*
X144450499Y-100481525D01*
X144450500Y-100481519D01*
X144450500Y-97236567D01*
X144443044Y-97213620D01*
X144439419Y-97198519D01*
X144436865Y-97182391D01*
X144436864Y-97182389D01*
X144435646Y-97174696D01*
X144424695Y-97153203D01*
X144418752Y-97138857D01*
X144413704Y-97123321D01*
X144411296Y-97115910D01*
X144397116Y-97096393D01*
X144389002Y-97083154D01*
X144378050Y-97061658D01*
X144355487Y-97039095D01*
X144355484Y-97039091D01*
X143440986Y-96124593D01*
X143413209Y-96070076D01*
X143422780Y-96009644D01*
X143466507Y-95966146D01*
X143506535Y-95946014D01*
X143543355Y-95927496D01*
X143543357Y-95927495D01*
X143548689Y-95924813D01*
X143578661Y-95899214D01*
X143635189Y-95875799D01*
X143642957Y-95875494D01*
X143754812Y-95875494D01*
X143813003Y-95894401D01*
X143821440Y-95901271D01*
X143830579Y-95909587D01*
X143830584Y-95909591D01*
X143834998Y-95913607D01*
X143840242Y-95916454D01*
X143840243Y-95916455D01*
X143962801Y-95982999D01*
X143962803Y-95983000D01*
X143968047Y-95985847D01*
X144044798Y-96005982D01*
X144108717Y-96022751D01*
X144108721Y-96022751D01*
X144114486Y-96024264D01*
X144120447Y-96024358D01*
X144120450Y-96024358D01*
X144190174Y-96025453D01*
X144265863Y-96026642D01*
X144271679Y-96025310D01*
X144407614Y-95994177D01*
X144407617Y-95994176D01*
X144413437Y-95992843D01*
X144425323Y-95986865D01*
X144543355Y-95927502D01*
X144543357Y-95927501D01*
X144548689Y-95924819D01*
X144578668Y-95899214D01*
X144635196Y-95875799D01*
X144642964Y-95875494D01*
X144754812Y-95875494D01*
X144813003Y-95894401D01*
X144821440Y-95901271D01*
X144830579Y-95909587D01*
X144830584Y-95909591D01*
X144834998Y-95913607D01*
X144840242Y-95916454D01*
X144840243Y-95916455D01*
X144962801Y-95982999D01*
X144962803Y-95983000D01*
X144968047Y-95985847D01*
X145044798Y-96005982D01*
X145108717Y-96022751D01*
X145108721Y-96022751D01*
X145114486Y-96024264D01*
X145120447Y-96024358D01*
X145120450Y-96024358D01*
X145190174Y-96025453D01*
X145265863Y-96026642D01*
X145271679Y-96025310D01*
X145369094Y-96002999D01*
X145391196Y-96000500D01*
X149078433Y-96000500D01*
X149101380Y-95993044D01*
X149116481Y-95989419D01*
X149132609Y-95986865D01*
X149132611Y-95986864D01*
X149140304Y-95985646D01*
X149161797Y-95974695D01*
X149176143Y-95968752D01*
X149191679Y-95963704D01*
X149199090Y-95961296D01*
X149218607Y-95947116D01*
X149231846Y-95939002D01*
X149253342Y-95928050D01*
X149275905Y-95905487D01*
X149275909Y-95905484D01*
X149324409Y-95856984D01*
X149378926Y-95829207D01*
X149395968Y-95828000D01*
X149452716Y-95828891D01*
X149553097Y-95830468D01*
X149558913Y-95829136D01*
X149711060Y-95794290D01*
X149711062Y-95794289D01*
X149716879Y-95792957D01*
X149729308Y-95786706D01*
X149861660Y-95720140D01*
X149861662Y-95720139D01*
X149866986Y-95717461D01*
X149994752Y-95608339D01*
X150034054Y-95553644D01*
X150083364Y-95517423D01*
X150144548Y-95517103D01*
X150196620Y-95556199D01*
X150220634Y-95591936D01*
X150225046Y-95595951D01*
X150225049Y-95595954D01*
X150340493Y-95701000D01*
X150344909Y-95705018D01*
X150373313Y-95720440D01*
X150487325Y-95782344D01*
X150487327Y-95782345D01*
X150492571Y-95785192D01*
X150577641Y-95807510D01*
X150649325Y-95826316D01*
X150649329Y-95826317D01*
X150655094Y-95827829D01*
X150661055Y-95827923D01*
X150661058Y-95827923D01*
X150738300Y-95829136D01*
X150823097Y-95830468D01*
X150828913Y-95829136D01*
X150981060Y-95794290D01*
X150981062Y-95794289D01*
X150986879Y-95792957D01*
X150999308Y-95786706D01*
X151130477Y-95720735D01*
X151651577Y-95720735D01*
X151659068Y-95728425D01*
X151757510Y-95781875D01*
X151768533Y-95786239D01*
X151919384Y-95825814D01*
X151931134Y-95827424D01*
X152087080Y-95829873D01*
X152098860Y-95828635D01*
X152250889Y-95793816D01*
X152262039Y-95789802D01*
X152399948Y-95720440D01*
X152460429Y-95711185D01*
X152514800Y-95739248D01*
X152538149Y-95776980D01*
X152555492Y-95827923D01*
X152565383Y-95856979D01*
X152576961Y-95875799D01*
X152655215Y-96002999D01*
X152658933Y-96009043D01*
X152662804Y-96012996D01*
X152673931Y-96024358D01*
X152783849Y-96136603D01*
X152933921Y-96233317D01*
X153101690Y-96294380D01*
X153239581Y-96311800D01*
X153334889Y-96311800D01*
X153337643Y-96311491D01*
X153337645Y-96311491D01*
X153364439Y-96308486D01*
X153467424Y-96296934D01*
X153636029Y-96238219D01*
X153687245Y-96206216D01*
X153782747Y-96146540D01*
X153782749Y-96146538D01*
X153787437Y-96143609D01*
X153791360Y-96139714D01*
X153791363Y-96139711D01*
X153910193Y-96021707D01*
X153910194Y-96021705D01*
X153914121Y-96017806D01*
X153922675Y-96004328D01*
X153973133Y-95924819D01*
X154009786Y-95867063D01*
X154069676Y-95698871D01*
X154082427Y-95591936D01*
X154090160Y-95527087D01*
X154090160Y-95527084D01*
X154090815Y-95521591D01*
X154072153Y-95344032D01*
X154062608Y-95315992D01*
X154016402Y-95180264D01*
X154016401Y-95180263D01*
X154014617Y-95175021D01*
X153955643Y-95079160D01*
X153923968Y-95027672D01*
X153923966Y-95027670D01*
X153921067Y-95022957D01*
X153796151Y-94895397D01*
X153646079Y-94798683D01*
X153478310Y-94737620D01*
X153340419Y-94720200D01*
X153245111Y-94720200D01*
X153242357Y-94720509D01*
X153242355Y-94720509D01*
X153215561Y-94723514D01*
X153112576Y-94735066D01*
X152943971Y-94793781D01*
X152794528Y-94887163D01*
X152735161Y-94901965D01*
X152678431Y-94879044D01*
X152649458Y-94838199D01*
X152641386Y-94816835D01*
X152635894Y-94806331D01*
X152614188Y-94774750D01*
X152603605Y-94766628D01*
X152603209Y-94766618D01*
X152596557Y-94770575D01*
X151656958Y-95710174D01*
X151651577Y-95720735D01*
X151130477Y-95720735D01*
X151131660Y-95720140D01*
X151131662Y-95720139D01*
X151136986Y-95717461D01*
X151264752Y-95608339D01*
X151314748Y-95538762D01*
X151364056Y-95502541D01*
X151404442Y-95502329D01*
X151404452Y-95502057D01*
X151410946Y-95502295D01*
X151425241Y-95502220D01*
X151426456Y-95502863D01*
X151436716Y-95503239D01*
X151443783Y-95499085D01*
X151796782Y-95146086D01*
X151802836Y-95134203D01*
X151802040Y-95129172D01*
X151445573Y-94772705D01*
X151433689Y-94766650D01*
X151410195Y-94770371D01*
X151349763Y-94760799D01*
X151313121Y-94728664D01*
X151277931Y-94677462D01*
X151274552Y-94672545D01*
X151212983Y-94617689D01*
X151162971Y-94573130D01*
X151132101Y-94520303D01*
X151138178Y-94459420D01*
X151164534Y-94423933D01*
X151235800Y-94363066D01*
X151264752Y-94338339D01*
X151304054Y-94283644D01*
X151353364Y-94247423D01*
X151414548Y-94247103D01*
X151466620Y-94286199D01*
X151490634Y-94321936D01*
X151495046Y-94325951D01*
X151495049Y-94325954D01*
X151606841Y-94427677D01*
X151614909Y-94435018D01*
X151614622Y-94435334D01*
X151648900Y-94481492D01*
X151652931Y-94528041D01*
X151650002Y-94547183D01*
X151655988Y-94558856D01*
X152008914Y-94911782D01*
X152020797Y-94917836D01*
X152025828Y-94917040D01*
X152383450Y-94559418D01*
X152389504Y-94547535D01*
X152386299Y-94527296D01*
X152395871Y-94466864D01*
X152419785Y-94436530D01*
X152505800Y-94363066D01*
X152534752Y-94338339D01*
X152632800Y-94201890D01*
X152635026Y-94196352D01*
X152635029Y-94196347D01*
X152650227Y-94158539D01*
X152689474Y-94111599D01*
X152748816Y-94096693D01*
X152795712Y-94112248D01*
X152933921Y-94201317D01*
X153101690Y-94262380D01*
X153239581Y-94279800D01*
X153334889Y-94279800D01*
X153337643Y-94279491D01*
X153337645Y-94279491D01*
X153364439Y-94276486D01*
X153467424Y-94264934D01*
X153636029Y-94206219D01*
X153727700Y-94148937D01*
X153782747Y-94114540D01*
X153782749Y-94114538D01*
X153787437Y-94111609D01*
X153791360Y-94107714D01*
X153791363Y-94107711D01*
X153910193Y-93989707D01*
X153910194Y-93989705D01*
X153914121Y-93985806D01*
X153924313Y-93969747D01*
X154006819Y-93839738D01*
X154009786Y-93835063D01*
X154069676Y-93666871D01*
X154082879Y-93556149D01*
X154090160Y-93495087D01*
X154090160Y-93495084D01*
X154090815Y-93489591D01*
X154072153Y-93312032D01*
X154068398Y-93301000D01*
X154016402Y-93148264D01*
X154016401Y-93148263D01*
X154014617Y-93143021D01*
X153921067Y-92990957D01*
X153908666Y-92978293D01*
X153800022Y-92867350D01*
X153796151Y-92863397D01*
X153646079Y-92766683D01*
X153478310Y-92705620D01*
X153340419Y-92688200D01*
X153245111Y-92688200D01*
X153242357Y-92688509D01*
X153242355Y-92688509D01*
X153219319Y-92691093D01*
X153112576Y-92703066D01*
X152943971Y-92761781D01*
X152938906Y-92764946D01*
X152797253Y-92853460D01*
X152797251Y-92853462D01*
X152792563Y-92856391D01*
X152788640Y-92860286D01*
X152788637Y-92860289D01*
X152685630Y-92962580D01*
X152665879Y-92982194D01*
X152662913Y-92986868D01*
X152662912Y-92986869D01*
X152618046Y-93057566D01*
X152570214Y-93132937D01*
X152541955Y-93212298D01*
X152537362Y-93225197D01*
X152500030Y-93273673D01*
X152441334Y-93290948D01*
X152397775Y-93279481D01*
X152330774Y-93244005D01*
X152275880Y-93214940D01*
X152275877Y-93214939D01*
X152270606Y-93212148D01*
X152189126Y-93191682D01*
X152113435Y-93172669D01*
X152113432Y-93172669D01*
X152107645Y-93171215D01*
X152022815Y-93170771D01*
X151945591Y-93170366D01*
X151945589Y-93170366D01*
X151939625Y-93170335D01*
X151776244Y-93209560D01*
X151626936Y-93286623D01*
X151500320Y-93397078D01*
X151496891Y-93401957D01*
X151466180Y-93445654D01*
X151417251Y-93482391D01*
X151356073Y-93483351D01*
X151303594Y-93444802D01*
X151274552Y-93402545D01*
X151194917Y-93331593D01*
X151153553Y-93294739D01*
X151153551Y-93294738D01*
X151149099Y-93290771D01*
X151116807Y-93273673D01*
X151112582Y-93271436D01*
X151000606Y-93212148D01*
X150919126Y-93191682D01*
X150843435Y-93172669D01*
X150843432Y-93172669D01*
X150837645Y-93171215D01*
X150748442Y-93170748D01*
X150675586Y-93170366D01*
X150675584Y-93170366D01*
X150674445Y-93170360D01*
X150674444Y-93170360D01*
X150669625Y-93170335D01*
X150669630Y-93169389D01*
X150614901Y-93158352D01*
X150593500Y-93142108D01*
X150282501Y-92831108D01*
X149945909Y-92494516D01*
X149945905Y-92494513D01*
X149923342Y-92471950D01*
X149901846Y-92460998D01*
X149888605Y-92452883D01*
X149875395Y-92443285D01*
X149869090Y-92438704D01*
X149846143Y-92431248D01*
X149831797Y-92425305D01*
X149810304Y-92414354D01*
X149802611Y-92413136D01*
X149802609Y-92413135D01*
X149786481Y-92410581D01*
X149771380Y-92406956D01*
X149748433Y-92399500D01*
X145236567Y-92399500D01*
X145213620Y-92406956D01*
X145198519Y-92410581D01*
X145182391Y-92413135D01*
X145182389Y-92413136D01*
X145174696Y-92414354D01*
X145153201Y-92425306D01*
X145138855Y-92431249D01*
X145123320Y-92436296D01*
X145123316Y-92436298D01*
X145115911Y-92438704D01*
X145096390Y-92452887D01*
X145083151Y-92460999D01*
X145068597Y-92468414D01*
X145068595Y-92468416D01*
X145061658Y-92471950D01*
X145039095Y-92494513D01*
X145039091Y-92494516D01*
X144013103Y-93520504D01*
X143958586Y-93548281D01*
X143943099Y-93549500D01*
X142923201Y-93549500D01*
X142865010Y-93530593D01*
X142829046Y-93481093D01*
X142824201Y-93450500D01*
X142824201Y-93415680D01*
X142820079Y-93402995D01*
X142815958Y-93400000D01*
X141973201Y-93400000D01*
X141915010Y-93381093D01*
X141879046Y-93331593D01*
X141874201Y-93301000D01*
X141874201Y-93084320D01*
X142174201Y-93084320D01*
X142178323Y-93097005D01*
X142182444Y-93100000D01*
X142808521Y-93100000D01*
X142821206Y-93095878D01*
X142824201Y-93091757D01*
X142824201Y-92968361D01*
X142823855Y-92962515D01*
X142821967Y-92946647D01*
X142818073Y-92932481D01*
X142779431Y-92845486D01*
X142769255Y-92830679D01*
X142703093Y-92764633D01*
X142688270Y-92754483D01*
X142601221Y-92716000D01*
X142587016Y-92712127D01*
X142571621Y-92710332D01*
X142565909Y-92710000D01*
X142189881Y-92710000D01*
X142177196Y-92714122D01*
X142174201Y-92718243D01*
X142174201Y-93084320D01*
X141874201Y-93084320D01*
X141874201Y-92725680D01*
X141870079Y-92712995D01*
X141865958Y-92710000D01*
X141599000Y-92710000D01*
X141540809Y-92691093D01*
X141504845Y-92641593D01*
X141500000Y-92611000D01*
X141500000Y-88899000D01*
X141518907Y-88840809D01*
X141568407Y-88804845D01*
X141599000Y-88800000D01*
X158601000Y-88800000D01*
X158659191Y-88818907D01*
G37*
%TD.AperFunction*%
%TA.AperFunction,Conductor*%
G36*
X139259173Y-103222339D02*
G01*
X139288116Y-103262175D01*
X139305874Y-103307027D01*
X139312439Y-103318677D01*
X139390203Y-103421127D01*
X139399672Y-103430596D01*
X139453092Y-103471144D01*
X139488012Y-103521386D01*
X139486730Y-103582558D01*
X139453092Y-103628856D01*
X139399672Y-103669404D01*
X139390203Y-103678873D01*
X139312439Y-103781323D01*
X139305874Y-103792973D01*
X139288116Y-103837825D01*
X139249115Y-103884969D01*
X139189851Y-103900185D01*
X139132963Y-103877661D01*
X139104020Y-103837824D01*
X139086165Y-103792727D01*
X139086163Y-103792724D01*
X139083680Y-103786452D01*
X138997666Y-103673133D01*
X138939331Y-103628854D01*
X138904413Y-103578614D01*
X138905695Y-103517442D01*
X138939331Y-103471146D01*
X138997666Y-103426867D01*
X139016935Y-103401481D01*
X139079599Y-103318925D01*
X139079600Y-103318923D01*
X139083680Y-103313548D01*
X139086164Y-103307275D01*
X139086165Y-103307273D01*
X139104020Y-103262176D01*
X139143021Y-103215032D01*
X139202284Y-103199815D01*
X139259173Y-103222339D01*
G37*
%TD.AperFunction*%
%TA.AperFunction,Conductor*%
G36*
X139259173Y-101722339D02*
G01*
X139288116Y-101762175D01*
X139305874Y-101807027D01*
X139312439Y-101818677D01*
X139390203Y-101921127D01*
X139399672Y-101930596D01*
X139453092Y-101971144D01*
X139488012Y-102021386D01*
X139486730Y-102082558D01*
X139453092Y-102128856D01*
X139399672Y-102169404D01*
X139390203Y-102178873D01*
X139312439Y-102281323D01*
X139305874Y-102292973D01*
X139288116Y-102337825D01*
X139249115Y-102384969D01*
X139189851Y-102400185D01*
X139132963Y-102377661D01*
X139104020Y-102337824D01*
X139086165Y-102292727D01*
X139086163Y-102292724D01*
X139083680Y-102286452D01*
X139079163Y-102280500D01*
X139001752Y-102178516D01*
X138997666Y-102173133D01*
X138939331Y-102128854D01*
X138904413Y-102078614D01*
X138905695Y-102017442D01*
X138939331Y-101971146D01*
X138997666Y-101926867D01*
X139041207Y-101869504D01*
X139079599Y-101818925D01*
X139079600Y-101818923D01*
X139083680Y-101813548D01*
X139086164Y-101807274D01*
X139086165Y-101807273D01*
X139104020Y-101762176D01*
X139143021Y-101715032D01*
X139202284Y-101699815D01*
X139259173Y-101722339D01*
G37*
%TD.AperFunction*%
%TA.AperFunction,Conductor*%
G36*
X147602957Y-93819407D02*
G01*
X147638921Y-93868907D01*
X147638921Y-93930093D01*
X147614525Y-93969747D01*
X147598354Y-93985806D01*
X147585879Y-93998194D01*
X147490214Y-94148937D01*
X147430324Y-94317129D01*
X147429669Y-94322622D01*
X147412686Y-94465052D01*
X147409185Y-94494409D01*
X147427847Y-94671968D01*
X147429631Y-94677208D01*
X147429631Y-94677209D01*
X147472980Y-94804546D01*
X147485383Y-94840979D01*
X147488285Y-94845696D01*
X147570504Y-94979341D01*
X147578933Y-94993043D01*
X147582800Y-94996992D01*
X147582808Y-94997002D01*
X147616331Y-95031234D01*
X147643536Y-95086038D01*
X147633332Y-95146367D01*
X147589616Y-95189176D01*
X147545598Y-95199500D01*
X145861360Y-95199500D01*
X145803169Y-95180593D01*
X145768751Y-95135494D01*
X145760502Y-95113665D01*
X145758392Y-95108080D01*
X145672640Y-94983311D01*
X145598259Y-94917040D01*
X145564057Y-94886567D01*
X145564055Y-94886566D01*
X145559603Y-94882599D01*
X145425805Y-94811757D01*
X145420017Y-94810303D01*
X145420014Y-94810302D01*
X145284760Y-94776328D01*
X145284761Y-94776328D01*
X145278972Y-94774874D01*
X145130782Y-94774099D01*
X145072692Y-94754887D01*
X145036988Y-94705200D01*
X145037308Y-94644015D01*
X145061297Y-94605096D01*
X145836897Y-93829496D01*
X145891414Y-93801719D01*
X145906901Y-93800500D01*
X147544766Y-93800500D01*
X147602957Y-93819407D01*
G37*
%TD.AperFunction*%
%TD*%
M02*
