%TF.GenerationSoftware,KiCad,Pcbnew,(5.1.9-0-10_14)*%
%TF.CreationDate,2021-08-19T00:24:07+02:00*%
%TF.ProjectId,s1-ecg-demo,73312d65-6367-42d6-9465-6d6f2e6b6963,1*%
%TF.SameCoordinates,Original*%
%TF.FileFunction,Soldermask,Bot*%
%TF.FilePolarity,Negative*%
%FSLAX46Y46*%
G04 Gerber Fmt 4.6, Leading zero omitted, Abs format (unit mm)*
G04 Created by KiCad (PCBNEW (5.1.9-0-10_14)) date 2021-08-19 00:24:07*
%MOMM*%
%LPD*%
G01*
G04 APERTURE LIST*
%ADD10C,1.900000*%
%ADD11C,0.100000*%
%ADD12C,0.750000*%
%ADD13O,0.950000X0.750000*%
%ADD14O,1.258000X2.558000*%
%ADD15O,1.258000X2.258000*%
%ADD16C,1.100000*%
%ADD17C,1.090600*%
G04 APERTURE END LIST*
D10*
X164100000Y-117100000D02*
G75*
G03*
X164100000Y-90100000I0J13500000D01*
G01*
D11*
G36*
X173300000Y-92700000D02*
G01*
X178200000Y-103600000D01*
X173300000Y-114600000D01*
X164250000Y-118000000D01*
X159150000Y-118000000D01*
X159100000Y-89200000D01*
X164100000Y-89200000D01*
X173300000Y-92700000D01*
G37*
X173300000Y-92700000D02*
X178200000Y-103600000D01*
X173300000Y-114600000D01*
X164250000Y-118000000D01*
X159150000Y-118000000D01*
X159100000Y-89200000D01*
X164100000Y-89200000D01*
X173300000Y-92700000D01*
D10*
X164100000Y-117100000D02*
G75*
G03*
X164100000Y-90100000I0J13500000D01*
G01*
D11*
G36*
X173300000Y-92700000D02*
G01*
X178200000Y-103600000D01*
X173300000Y-114600000D01*
X164250000Y-118000000D01*
X159150000Y-118000000D01*
X159100000Y-89200000D01*
X164100000Y-89200000D01*
X173300000Y-92700000D01*
G37*
X173300000Y-92700000D02*
X178200000Y-103600000D01*
X173300000Y-114600000D01*
X164250000Y-118000000D01*
X159150000Y-118000000D01*
X159100000Y-89200000D01*
X164100000Y-89200000D01*
X173300000Y-92700000D01*
D12*
%TO.C,J4*%
X136100000Y-113554000D03*
D13*
X142099999Y-113554001D03*
D14*
X134779998Y-116996000D03*
D15*
X134779998Y-113170999D03*
D14*
X143420001Y-116996000D03*
D15*
X143419601Y-113170999D03*
%TD*%
D16*
%TO.C,TP1*%
X152100000Y-112800000D03*
%TD*%
%TO.C,TP5*%
X127400000Y-112800000D03*
%TD*%
%TO.C,TP4*%
X127400000Y-110700000D03*
%TD*%
%TO.C,TP3*%
X127400000Y-108600000D03*
%TD*%
%TO.C,TP2*%
X127400000Y-106500000D03*
%TD*%
D17*
%TO.C,J5*%
X148210000Y-94500000D03*
X153290000Y-95516000D03*
X153290000Y-93484000D03*
%TD*%
%TO.C,J3*%
G36*
G01*
X159088000Y-104006000D02*
X159088000Y-103194000D01*
G75*
G02*
X159494000Y-102788000I406000J0D01*
G01*
X160306000Y-102788000D01*
G75*
G02*
X160712000Y-103194000I0J-406000D01*
G01*
X160712000Y-104006000D01*
G75*
G02*
X160306000Y-104412000I-406000J0D01*
G01*
X159494000Y-104412000D01*
G75*
G02*
X159088000Y-104006000I0J406000D01*
G01*
G37*
%TD*%
D11*
%TO.C,JP1*%
G36*
X123840245Y-101099039D02*
G01*
X123830866Y-101096194D01*
X123822221Y-101091573D01*
X123814645Y-101085355D01*
X123808427Y-101077779D01*
X123803806Y-101069134D01*
X123800961Y-101059755D01*
X123800000Y-101050000D01*
X123800000Y-99550000D01*
X123800961Y-99540245D01*
X123803806Y-99530866D01*
X123808427Y-99522221D01*
X123814645Y-99514645D01*
X123822221Y-99508427D01*
X123830866Y-99503806D01*
X123840245Y-99500961D01*
X123850000Y-99500000D01*
X124350000Y-99500000D01*
X124356111Y-99500602D01*
X124374534Y-99500602D01*
X124379435Y-99500843D01*
X124428266Y-99505653D01*
X124433119Y-99506373D01*
X124481244Y-99515945D01*
X124486005Y-99517137D01*
X124532960Y-99531381D01*
X124537579Y-99533034D01*
X124582912Y-99551811D01*
X124587349Y-99553909D01*
X124630622Y-99577040D01*
X124634829Y-99579562D01*
X124675628Y-99606822D01*
X124679570Y-99609746D01*
X124717499Y-99640874D01*
X124721134Y-99644169D01*
X124755831Y-99678866D01*
X124759126Y-99682501D01*
X124790254Y-99720430D01*
X124793178Y-99724372D01*
X124820438Y-99765171D01*
X124822960Y-99769378D01*
X124846091Y-99812651D01*
X124848189Y-99817088D01*
X124866966Y-99862421D01*
X124868619Y-99867040D01*
X124882863Y-99913995D01*
X124884055Y-99918756D01*
X124893627Y-99966881D01*
X124894347Y-99971734D01*
X124899157Y-100020565D01*
X124899398Y-100025466D01*
X124899398Y-100043889D01*
X124900000Y-100050000D01*
X124900000Y-100550000D01*
X124899398Y-100556111D01*
X124899398Y-100574534D01*
X124899157Y-100579435D01*
X124894347Y-100628266D01*
X124893627Y-100633119D01*
X124884055Y-100681244D01*
X124882863Y-100686005D01*
X124868619Y-100732960D01*
X124866966Y-100737579D01*
X124848189Y-100782912D01*
X124846091Y-100787349D01*
X124822960Y-100830622D01*
X124820438Y-100834829D01*
X124793178Y-100875628D01*
X124790254Y-100879570D01*
X124759126Y-100917499D01*
X124755831Y-100921134D01*
X124721134Y-100955831D01*
X124717499Y-100959126D01*
X124679570Y-100990254D01*
X124675628Y-100993178D01*
X124634829Y-101020438D01*
X124630622Y-101022960D01*
X124587349Y-101046091D01*
X124582912Y-101048189D01*
X124537579Y-101066966D01*
X124532960Y-101068619D01*
X124486005Y-101082863D01*
X124481244Y-101084055D01*
X124433119Y-101093627D01*
X124428266Y-101094347D01*
X124379435Y-101099157D01*
X124374534Y-101099398D01*
X124356111Y-101099398D01*
X124350000Y-101100000D01*
X123850000Y-101100000D01*
X123840245Y-101099039D01*
G37*
G36*
X123043889Y-101099398D02*
G01*
X123025466Y-101099398D01*
X123020565Y-101099157D01*
X122971734Y-101094347D01*
X122966881Y-101093627D01*
X122918756Y-101084055D01*
X122913995Y-101082863D01*
X122867040Y-101068619D01*
X122862421Y-101066966D01*
X122817088Y-101048189D01*
X122812651Y-101046091D01*
X122769378Y-101022960D01*
X122765171Y-101020438D01*
X122724372Y-100993178D01*
X122720430Y-100990254D01*
X122682501Y-100959126D01*
X122678866Y-100955831D01*
X122644169Y-100921134D01*
X122640874Y-100917499D01*
X122609746Y-100879570D01*
X122606822Y-100875628D01*
X122579562Y-100834829D01*
X122577040Y-100830622D01*
X122553909Y-100787349D01*
X122551811Y-100782912D01*
X122533034Y-100737579D01*
X122531381Y-100732960D01*
X122517137Y-100686005D01*
X122515945Y-100681244D01*
X122506373Y-100633119D01*
X122505653Y-100628266D01*
X122500843Y-100579435D01*
X122500602Y-100574534D01*
X122500602Y-100556111D01*
X122500000Y-100550000D01*
X122500000Y-100050000D01*
X122500602Y-100043889D01*
X122500602Y-100025466D01*
X122500843Y-100020565D01*
X122505653Y-99971734D01*
X122506373Y-99966881D01*
X122515945Y-99918756D01*
X122517137Y-99913995D01*
X122531381Y-99867040D01*
X122533034Y-99862421D01*
X122551811Y-99817088D01*
X122553909Y-99812651D01*
X122577040Y-99769378D01*
X122579562Y-99765171D01*
X122606822Y-99724372D01*
X122609746Y-99720430D01*
X122640874Y-99682501D01*
X122644169Y-99678866D01*
X122678866Y-99644169D01*
X122682501Y-99640874D01*
X122720430Y-99609746D01*
X122724372Y-99606822D01*
X122765171Y-99579562D01*
X122769378Y-99577040D01*
X122812651Y-99553909D01*
X122817088Y-99551811D01*
X122862421Y-99533034D01*
X122867040Y-99531381D01*
X122913995Y-99517137D01*
X122918756Y-99515945D01*
X122966881Y-99506373D01*
X122971734Y-99505653D01*
X123020565Y-99500843D01*
X123025466Y-99500602D01*
X123043889Y-99500602D01*
X123050000Y-99500000D01*
X123550000Y-99500000D01*
X123559755Y-99500961D01*
X123569134Y-99503806D01*
X123577779Y-99508427D01*
X123585355Y-99514645D01*
X123591573Y-99522221D01*
X123596194Y-99530866D01*
X123599039Y-99540245D01*
X123600000Y-99550000D01*
X123600000Y-101050000D01*
X123599039Y-101059755D01*
X123596194Y-101069134D01*
X123591573Y-101077779D01*
X123585355Y-101085355D01*
X123577779Y-101091573D01*
X123569134Y-101096194D01*
X123559755Y-101099039D01*
X123550000Y-101100000D01*
X123050000Y-101100000D01*
X123043889Y-101099398D01*
G37*
%TD*%
%TO.C,J6*%
G36*
G01*
X124440000Y-97750000D02*
X124440000Y-95250000D01*
G75*
G02*
X124490000Y-95200000I50000J0D01*
G01*
X125490000Y-95200000D01*
G75*
G02*
X125540000Y-95250000I0J-50000D01*
G01*
X125540000Y-97750000D01*
G75*
G02*
X125490000Y-97800000I-50000J0D01*
G01*
X124490000Y-97800000D01*
G75*
G02*
X124440000Y-97750000I0J50000D01*
G01*
G37*
G36*
G01*
X121900000Y-97750000D02*
X121900000Y-95250000D01*
G75*
G02*
X121950000Y-95200000I50000J0D01*
G01*
X122950000Y-95200000D01*
G75*
G02*
X123000000Y-95250000I0J-50000D01*
G01*
X123000000Y-97750000D01*
G75*
G02*
X122950000Y-97800000I-50000J0D01*
G01*
X121950000Y-97800000D01*
G75*
G02*
X121900000Y-97750000I0J50000D01*
G01*
G37*
%TD*%
%TO.C,J7*%
G36*
G01*
X138310000Y-101150000D02*
X138310000Y-103650000D01*
G75*
G02*
X138260000Y-103700000I-50000J0D01*
G01*
X137260000Y-103700000D01*
G75*
G02*
X137210000Y-103650000I0J50000D01*
G01*
X137210000Y-101150000D01*
G75*
G02*
X137260000Y-101100000I50000J0D01*
G01*
X138260000Y-101100000D01*
G75*
G02*
X138310000Y-101150000I0J-50000D01*
G01*
G37*
G36*
G01*
X140850000Y-101150000D02*
X140850000Y-103650000D01*
G75*
G02*
X140800000Y-103700000I-50000J0D01*
G01*
X139800000Y-103700000D01*
G75*
G02*
X139750000Y-103650000I0J50000D01*
G01*
X139750000Y-101150000D01*
G75*
G02*
X139800000Y-101100000I50000J0D01*
G01*
X140800000Y-101100000D01*
G75*
G02*
X140850000Y-101150000I0J-50000D01*
G01*
G37*
%TD*%
M02*
