M48
; DRILL file {KiCad (6.0.0-0)} date 2022 January 28, Friday 12:00:12
; FORMAT={-:-/ absolute / inch / decimal}
; #@! TF.CreationDate,2022-01-28T12:00:12+01:00
; #@! TF.GenerationSoftware,Kicad,Pcbnew,(6.0.0-0)
; #@! TF.FileFunction,Plated,1,2,Blind
FMAT,2
INCH
; #@! TA.AperFunction,Plated,Buried,ViaDrill
T1C0.0039
%
G90
G05
T1
X5.2756Y-3.8346
X5.2992Y-3.6969
X5.2992Y-3.7244
X5.2992Y-3.752
X5.2992Y-3.7795
X5.3504Y-3.8366
X5.6024Y-3.8071
X5.6752Y-4.0807
X5.6752Y-4.0925
X5.6811Y-4.1339
X5.687Y-4.0807
X5.687Y-4.0925
X5.6969Y-4.0866
X5.7087Y-4.0866
X5.7185Y-4.0807
X5.7185Y-4.0906
X5.7303Y-4.0807
X5.752Y-4.2362
X5.7638Y-4.1378
X5.7874Y-4.2291
X5.7953Y-4.1535
X5.8063Y-4.0433
X5.8071Y-4.0079
X5.811Y-4.1378
X5.811Y-4.1535
X5.8268Y-4.1929
X5.8268Y-4.2291
X5.8315Y-4.0079
X5.8614Y-4.1968
X5.8819Y-4.2323
X5.9213Y-4.1614
T0
M30
