M48
; DRILL file {KiCad (6.0.0-0)} date 2022 January 28, Friday 12:00:12
; FORMAT={-:-/ absolute / inch / decimal}
; #@! TF.CreationDate,2022-01-28T12:00:12+01:00
; #@! TF.GenerationSoftware,Kicad,Pcbnew,(6.0.0-0)
; #@! TF.FileFunction,MixedPlating,1,4
FMAT,2
INCH
; #@! TA.AperFunction,Plated,PTH,ViaDrill
T1C0.0118
; #@! TA.AperFunction,Plated,PTH,ComponentDrill
T2C0.0236
; #@! TA.AperFunction,NonPlated,NPTH,ComponentDrill
T3C0.0256
; #@! TA.AperFunction,NonPlated,NPTH,ComponentDrill
T4C0.0390
%
G90
G05
T1
X4.6614Y-4.1299
X4.7362Y-3.6102
X4.7362Y-3.9252
X4.7362Y-4.2402
X4.7362Y-4.5551
X4.815Y-3.5197
X4.815Y-4.6339
X4.8189Y-3.8583
X4.872Y-3.9528
X4.9213Y-3.8583
X4.9213Y-4.0709
X4.9291Y-4.3937
X4.9488Y-3.6575
X5.0236Y-3.9921
X5.0472Y-4.0709
X5.0827Y-4.2756
X5.0906Y-3.5197
X5.0906Y-4.6339
X5.1122Y-4.3583
X5.1299Y-3.685
X5.1417Y-4.4409
X5.1713Y-4.1929
X5.2815Y-4.3425
X5.2992Y-3.9213
X5.3189Y-3.6654
X5.3228Y-3.9213
X5.3297Y-4.3789
X5.3346Y-4.5276
X5.3622Y-3.5197
X5.3622Y-3.5748
X5.3622Y-3.6299
X5.4094Y-4.4724
X5.4409Y-4.4724
X5.4724Y-4.4724
X5.4764Y-4.6339
X5.4783Y-4.0177
X5.4783Y-4.0768
X5.5108Y-4.3839
X5.563Y-4.1969
X5.563Y-4.311
X5.5669Y-3.9646
X5.5669Y-3.9882
X5.5709Y-4.0394
X5.5709Y-4.0787
X5.5945Y-3.5197
X5.5945Y-3.5748
X5.5945Y-3.6299
X5.5984Y-4.3819
X5.6181Y-4.5276
X5.6378Y-3.6693
X5.6378Y-3.7559
X5.6378Y-3.8386
X5.6378Y-3.8848
X5.6772Y-3.7559
X5.6791Y-4.002
X5.6811Y-4.1969
X5.7165Y-3.7559
X5.7362Y-4.122
X5.7638Y-4.311
X5.7677Y-3.7205
X5.7992Y-3.9685
X5.7992Y-4.6339
X5.8543Y-3.878
X5.8583Y-3.5197
X5.8622Y-4.4646
X5.9213Y-3.9961
X5.9252Y-4.311
X5.9331Y-4.4134
X5.939Y-4.2146
X5.9528Y-4.0748
X5.9606Y-3.6496
X5.9606Y-3.7913
X5.9606Y-4.1299
X5.9724Y-4.248
X6.0787Y-3.7205
X6.0945Y-4.0157
X6.0945Y-4.4331
X6.1063Y-3.5197
X6.1142Y-4.6339
X6.2165Y-3.622
X6.2165Y-3.9252
X6.2165Y-4.1339
X6.2165Y-4.2323
X6.2165Y-4.5472
T3
X5.3583Y-4.4706
T4
X5.835Y-3.7205
X6.035Y-3.6805
X6.035Y-3.7605
T2
G00X5.3063Y-4.4752
M15
G01X5.3063Y-4.4359
M16
G05
G00X5.3063Y-4.6317
M15
G01X5.3063Y-4.5806
M16
G05
G00X5.6464Y-4.4752
M15
G01X5.6464Y-4.4359
M16
G05
G00X5.6465Y-4.6317
M15
G01X5.6465Y-4.5806
M16
G05
T3
G00X5.5906Y-4.4706
M15
G01X5.5984Y-4.4706
M16
G05
T0
M30
