%TF.GenerationSoftware,KiCad,Pcbnew,5.1.10-88a1d61d58~90~ubuntu20.04.1*%
%TF.CreationDate,2021-08-18T17:07:53+02:00*%
%TF.ProjectId,s1-ecg-demo,73312d65-6367-42d6-9465-6d6f2e6b6963,1*%
%TF.SameCoordinates,Original*%
%TF.FileFunction,Soldermask,Bot*%
%TF.FilePolarity,Negative*%
%FSLAX46Y46*%
G04 Gerber Fmt 4.6, Leading zero omitted, Abs format (unit mm)*
G04 Created by KiCad (PCBNEW 5.1.10-88a1d61d58~90~ubuntu20.04.1) date 2021-08-18 17:07:53*
%MOMM*%
%LPD*%
G01*
G04 APERTURE LIST*
%ADD10C,1.900000*%
%ADD11C,0.100000*%
%ADD12C,0.750000*%
%ADD13O,0.950000X0.750000*%
%ADD14O,1.258000X2.558000*%
%ADD15O,1.258000X2.258000*%
%ADD16C,1.100000*%
%ADD17C,1.090600*%
G04 APERTURE END LIST*
D10*
X164100000Y-117100000D02*
G75*
G03*
X164100000Y-90100000I0J13500000D01*
G01*
D11*
G36*
X173300000Y-92700000D02*
G01*
X178200000Y-103600000D01*
X173300000Y-114600000D01*
X164250000Y-118000000D01*
X159150000Y-118000000D01*
X159100000Y-89200000D01*
X164100000Y-89200000D01*
X173300000Y-92700000D01*
G37*
X173300000Y-92700000D02*
X178200000Y-103600000D01*
X173300000Y-114600000D01*
X164250000Y-118000000D01*
X159150000Y-118000000D01*
X159100000Y-89200000D01*
X164100000Y-89200000D01*
X173300000Y-92700000D01*
D10*
X164100000Y-117100000D02*
G75*
G03*
X164100000Y-90100000I0J13500000D01*
G01*
D11*
G36*
X173300000Y-92700000D02*
G01*
X178200000Y-103600000D01*
X173300000Y-114600000D01*
X164250000Y-118000000D01*
X159150000Y-118000000D01*
X159100000Y-89200000D01*
X164100000Y-89200000D01*
X173300000Y-92700000D01*
G37*
X173300000Y-92700000D02*
X178200000Y-103600000D01*
X173300000Y-114600000D01*
X164250000Y-118000000D01*
X159150000Y-118000000D01*
X159100000Y-89200000D01*
X164100000Y-89200000D01*
X173300000Y-92700000D01*
D12*
%TO.C,J4*%
X136100000Y-113554000D03*
D13*
X142099999Y-113554001D03*
D14*
X134779998Y-116996000D03*
D15*
X134779998Y-113170999D03*
D14*
X143420001Y-116996000D03*
D15*
X143419601Y-113170999D03*
%TD*%
D16*
%TO.C,TP1*%
X152100000Y-112800000D03*
%TD*%
%TO.C,TP5*%
X127400000Y-112800000D03*
%TD*%
%TO.C,TP4*%
X127400000Y-110700000D03*
%TD*%
%TO.C,TP3*%
X127400000Y-108600000D03*
%TD*%
%TO.C,TP2*%
X127400000Y-106500000D03*
%TD*%
D17*
%TO.C,J5*%
X153240000Y-92000000D03*
X148160000Y-90984000D03*
X148160000Y-93016000D03*
%TD*%
%TO.C,J3*%
G36*
G01*
X159088000Y-104006000D02*
X159088000Y-103194000D01*
G75*
G02*
X159494000Y-102788000I406000J0D01*
G01*
X160306000Y-102788000D01*
G75*
G02*
X160712000Y-103194000I0J-406000D01*
G01*
X160712000Y-104006000D01*
G75*
G02*
X160306000Y-104412000I-406000J0D01*
G01*
X159494000Y-104412000D01*
G75*
G02*
X159088000Y-104006000I0J406000D01*
G01*
G37*
%TD*%
D11*
%TO.C,JP1*%
G36*
X124009755Y-99500961D02*
G01*
X124019134Y-99503806D01*
X124027779Y-99508427D01*
X124035355Y-99514645D01*
X124041573Y-99522221D01*
X124046194Y-99530866D01*
X124049039Y-99540245D01*
X124050000Y-99550000D01*
X124050000Y-101050000D01*
X124049039Y-101059755D01*
X124046194Y-101069134D01*
X124041573Y-101077779D01*
X124035355Y-101085355D01*
X124027779Y-101091573D01*
X124019134Y-101096194D01*
X124009755Y-101099039D01*
X124000000Y-101100000D01*
X123500000Y-101100000D01*
X123493889Y-101099398D01*
X123475466Y-101099398D01*
X123470565Y-101099157D01*
X123421734Y-101094347D01*
X123416881Y-101093627D01*
X123368756Y-101084055D01*
X123363995Y-101082863D01*
X123317040Y-101068619D01*
X123312421Y-101066966D01*
X123267088Y-101048189D01*
X123262651Y-101046091D01*
X123219378Y-101022960D01*
X123215171Y-101020438D01*
X123174372Y-100993178D01*
X123170430Y-100990254D01*
X123132501Y-100959126D01*
X123128866Y-100955831D01*
X123094169Y-100921134D01*
X123090874Y-100917499D01*
X123059746Y-100879570D01*
X123056822Y-100875628D01*
X123029562Y-100834829D01*
X123027040Y-100830622D01*
X123003909Y-100787349D01*
X123001811Y-100782912D01*
X122983034Y-100737579D01*
X122981381Y-100732960D01*
X122967137Y-100686005D01*
X122965945Y-100681244D01*
X122956373Y-100633119D01*
X122955653Y-100628266D01*
X122950843Y-100579435D01*
X122950602Y-100574534D01*
X122950602Y-100556111D01*
X122950000Y-100550000D01*
X122950000Y-100050000D01*
X122950602Y-100043889D01*
X122950602Y-100025466D01*
X122950843Y-100020565D01*
X122955653Y-99971734D01*
X122956373Y-99966881D01*
X122965945Y-99918756D01*
X122967137Y-99913995D01*
X122981381Y-99867040D01*
X122983034Y-99862421D01*
X123001811Y-99817088D01*
X123003909Y-99812651D01*
X123027040Y-99769378D01*
X123029562Y-99765171D01*
X123056822Y-99724372D01*
X123059746Y-99720430D01*
X123090874Y-99682501D01*
X123094169Y-99678866D01*
X123128866Y-99644169D01*
X123132501Y-99640874D01*
X123170430Y-99609746D01*
X123174372Y-99606822D01*
X123215171Y-99579562D01*
X123219378Y-99577040D01*
X123262651Y-99553909D01*
X123267088Y-99551811D01*
X123312421Y-99533034D01*
X123317040Y-99531381D01*
X123363995Y-99517137D01*
X123368756Y-99515945D01*
X123416881Y-99506373D01*
X123421734Y-99505653D01*
X123470565Y-99500843D01*
X123475466Y-99500602D01*
X123493889Y-99500602D01*
X123500000Y-99500000D01*
X124000000Y-99500000D01*
X124009755Y-99500961D01*
G37*
G36*
X124806111Y-99500602D02*
G01*
X124824534Y-99500602D01*
X124829435Y-99500843D01*
X124878266Y-99505653D01*
X124883119Y-99506373D01*
X124931244Y-99515945D01*
X124936005Y-99517137D01*
X124982960Y-99531381D01*
X124987579Y-99533034D01*
X125032912Y-99551811D01*
X125037349Y-99553909D01*
X125080622Y-99577040D01*
X125084829Y-99579562D01*
X125125628Y-99606822D01*
X125129570Y-99609746D01*
X125167499Y-99640874D01*
X125171134Y-99644169D01*
X125205831Y-99678866D01*
X125209126Y-99682501D01*
X125240254Y-99720430D01*
X125243178Y-99724372D01*
X125270438Y-99765171D01*
X125272960Y-99769378D01*
X125296091Y-99812651D01*
X125298189Y-99817088D01*
X125316966Y-99862421D01*
X125318619Y-99867040D01*
X125332863Y-99913995D01*
X125334055Y-99918756D01*
X125343627Y-99966881D01*
X125344347Y-99971734D01*
X125349157Y-100020565D01*
X125349398Y-100025466D01*
X125349398Y-100043889D01*
X125350000Y-100050000D01*
X125350000Y-100550000D01*
X125349398Y-100556111D01*
X125349398Y-100574534D01*
X125349157Y-100579435D01*
X125344347Y-100628266D01*
X125343627Y-100633119D01*
X125334055Y-100681244D01*
X125332863Y-100686005D01*
X125318619Y-100732960D01*
X125316966Y-100737579D01*
X125298189Y-100782912D01*
X125296091Y-100787349D01*
X125272960Y-100830622D01*
X125270438Y-100834829D01*
X125243178Y-100875628D01*
X125240254Y-100879570D01*
X125209126Y-100917499D01*
X125205831Y-100921134D01*
X125171134Y-100955831D01*
X125167499Y-100959126D01*
X125129570Y-100990254D01*
X125125628Y-100993178D01*
X125084829Y-101020438D01*
X125080622Y-101022960D01*
X125037349Y-101046091D01*
X125032912Y-101048189D01*
X124987579Y-101066966D01*
X124982960Y-101068619D01*
X124936005Y-101082863D01*
X124931244Y-101084055D01*
X124883119Y-101093627D01*
X124878266Y-101094347D01*
X124829435Y-101099157D01*
X124824534Y-101099398D01*
X124806111Y-101099398D01*
X124800000Y-101100000D01*
X124300000Y-101100000D01*
X124290245Y-101099039D01*
X124280866Y-101096194D01*
X124272221Y-101091573D01*
X124264645Y-101085355D01*
X124258427Y-101077779D01*
X124253806Y-101069134D01*
X124250961Y-101059755D01*
X124250000Y-101050000D01*
X124250000Y-99550000D01*
X124250961Y-99540245D01*
X124253806Y-99530866D01*
X124258427Y-99522221D01*
X124264645Y-99514645D01*
X124272221Y-99508427D01*
X124280866Y-99503806D01*
X124290245Y-99500961D01*
X124300000Y-99500000D01*
X124800000Y-99500000D01*
X124806111Y-99500602D01*
G37*
%TD*%
%TO.C,J6*%
G36*
G01*
X138310000Y-101150000D02*
X138310000Y-103650000D01*
G75*
G02*
X138260000Y-103700000I-50000J0D01*
G01*
X137260000Y-103700000D01*
G75*
G02*
X137210000Y-103650000I0J50000D01*
G01*
X137210000Y-101150000D01*
G75*
G02*
X137260000Y-101100000I50000J0D01*
G01*
X138260000Y-101100000D01*
G75*
G02*
X138310000Y-101150000I0J-50000D01*
G01*
G37*
G36*
G01*
X140850000Y-101150000D02*
X140850000Y-103650000D01*
G75*
G02*
X140800000Y-103700000I-50000J0D01*
G01*
X139800000Y-103700000D01*
G75*
G02*
X139750000Y-103650000I0J50000D01*
G01*
X139750000Y-101150000D01*
G75*
G02*
X139800000Y-101100000I50000J0D01*
G01*
X140800000Y-101100000D01*
G75*
G02*
X140850000Y-101150000I0J-50000D01*
G01*
G37*
%TD*%
%TO.C,J7*%
G36*
G01*
X124890000Y-97750000D02*
X124890000Y-95250000D01*
G75*
G02*
X124940000Y-95200000I50000J0D01*
G01*
X125940000Y-95200000D01*
G75*
G02*
X125990000Y-95250000I0J-50000D01*
G01*
X125990000Y-97750000D01*
G75*
G02*
X125940000Y-97800000I-50000J0D01*
G01*
X124940000Y-97800000D01*
G75*
G02*
X124890000Y-97750000I0J50000D01*
G01*
G37*
G36*
G01*
X122350000Y-97750000D02*
X122350000Y-95250000D01*
G75*
G02*
X122400000Y-95200000I50000J0D01*
G01*
X123400000Y-95200000D01*
G75*
G02*
X123450000Y-95250000I0J-50000D01*
G01*
X123450000Y-97750000D01*
G75*
G02*
X123400000Y-97800000I-50000J0D01*
G01*
X122400000Y-97800000D01*
G75*
G02*
X122350000Y-97750000I0J50000D01*
G01*
G37*
%TD*%
M02*
