%TF.GenerationSoftware,KiCad,Pcbnew,(5.1.9-0-10_14)*%
%TF.CreationDate,2021-08-19T12:12:30+02:00*%
%TF.ProjectId,s1-ecg-demo,73312d65-6367-42d6-9465-6d6f2e6b6963,1*%
%TF.SameCoordinates,Original*%
%TF.FileFunction,Paste,Top*%
%TF.FilePolarity,Positive*%
%FSLAX46Y46*%
G04 Gerber Fmt 4.6, Leading zero omitted, Abs format (unit mm)*
G04 Created by KiCad (PCBNEW (5.1.9-0-10_14)) date 2021-08-19 12:12:30*
%MOMM*%
%LPD*%
G01*
G04 APERTURE LIST*
%ADD10R,0.558800X1.092200*%
%ADD11R,0.304800X1.041400*%
%ADD12R,0.990600X2.006600*%
%ADD13R,1.000000X0.480000*%
G04 APERTURE END LIST*
%TO.C,C6*%
G36*
G01*
X144470000Y-103120000D02*
X144130000Y-103120000D01*
G75*
G02*
X143990000Y-102980000I0J140000D01*
G01*
X143990000Y-102700000D01*
G75*
G02*
X144130000Y-102560000I140000J0D01*
G01*
X144470000Y-102560000D01*
G75*
G02*
X144610000Y-102700000I0J-140000D01*
G01*
X144610000Y-102980000D01*
G75*
G02*
X144470000Y-103120000I-140000J0D01*
G01*
G37*
G36*
G01*
X144470000Y-104080000D02*
X144130000Y-104080000D01*
G75*
G02*
X143990000Y-103940000I0J140000D01*
G01*
X143990000Y-103660000D01*
G75*
G02*
X144130000Y-103520000I140000J0D01*
G01*
X144470000Y-103520000D01*
G75*
G02*
X144610000Y-103660000I0J-140000D01*
G01*
X144610000Y-103940000D01*
G75*
G02*
X144470000Y-104080000I-140000J0D01*
G01*
G37*
%TD*%
D10*
%TO.C,J6*%
X136000000Y-112500000D03*
X136749999Y-112500000D03*
D11*
X137350001Y-112500000D03*
X137850000Y-112500000D03*
X138349999Y-112500000D03*
X138850000Y-112500000D03*
X139349999Y-112500000D03*
X139850001Y-112500000D03*
X140350000Y-112500000D03*
X140849999Y-112500000D03*
D10*
X141450000Y-112500000D03*
X142199999Y-112500000D03*
D12*
X137700000Y-116996000D03*
X140499999Y-116996000D03*
%TD*%
%TO.C,R14*%
G36*
G01*
X135866000Y-110400500D02*
X135866000Y-110199500D01*
G75*
G02*
X135945500Y-110120000I79500J0D01*
G01*
X136104500Y-110120000D01*
G75*
G02*
X136184000Y-110199500I0J-79500D01*
G01*
X136184000Y-110400500D01*
G75*
G02*
X136104500Y-110480000I-79500J0D01*
G01*
X135945500Y-110480000D01*
G75*
G02*
X135866000Y-110400500I0J79500D01*
G01*
G37*
G36*
G01*
X135176000Y-110400500D02*
X135176000Y-110199500D01*
G75*
G02*
X135255500Y-110120000I79500J0D01*
G01*
X135414500Y-110120000D01*
G75*
G02*
X135494000Y-110199500I0J-79500D01*
G01*
X135494000Y-110400500D01*
G75*
G02*
X135414500Y-110480000I-79500J0D01*
G01*
X135255500Y-110480000D01*
G75*
G02*
X135176000Y-110400500I0J79500D01*
G01*
G37*
%TD*%
%TO.C,LED4*%
G36*
G01*
X138845799Y-107043750D02*
X138845799Y-107556250D01*
G75*
G02*
X138627049Y-107775000I-218750J0D01*
G01*
X138189549Y-107775000D01*
G75*
G02*
X137970799Y-107556250I0J218750D01*
G01*
X137970799Y-107043750D01*
G75*
G02*
X138189549Y-106825000I218750J0D01*
G01*
X138627049Y-106825000D01*
G75*
G02*
X138845799Y-107043750I0J-218750D01*
G01*
G37*
G36*
G01*
X140420799Y-107043750D02*
X140420799Y-107556250D01*
G75*
G02*
X140202049Y-107775000I-218750J0D01*
G01*
X139764549Y-107775000D01*
G75*
G02*
X139545799Y-107556250I0J218750D01*
G01*
X139545799Y-107043750D01*
G75*
G02*
X139764549Y-106825000I218750J0D01*
G01*
X140202049Y-106825000D01*
G75*
G02*
X140420799Y-107043750I0J-218750D01*
G01*
G37*
%TD*%
%TO.C,R22*%
G36*
G01*
X134486000Y-96800500D02*
X134486000Y-96599500D01*
G75*
G02*
X134565500Y-96520000I79500J0D01*
G01*
X134724500Y-96520000D01*
G75*
G02*
X134804000Y-96599500I0J-79500D01*
G01*
X134804000Y-96800500D01*
G75*
G02*
X134724500Y-96880000I-79500J0D01*
G01*
X134565500Y-96880000D01*
G75*
G02*
X134486000Y-96800500I0J79500D01*
G01*
G37*
G36*
G01*
X133796000Y-96800500D02*
X133796000Y-96599500D01*
G75*
G02*
X133875500Y-96520000I79500J0D01*
G01*
X134034500Y-96520000D01*
G75*
G02*
X134114000Y-96599500I0J-79500D01*
G01*
X134114000Y-96800500D01*
G75*
G02*
X134034500Y-96880000I-79500J0D01*
G01*
X133875500Y-96880000D01*
G75*
G02*
X133796000Y-96800500I0J79500D01*
G01*
G37*
%TD*%
%TO.C,R21*%
G36*
G01*
X134486000Y-98200500D02*
X134486000Y-97999500D01*
G75*
G02*
X134565500Y-97920000I79500J0D01*
G01*
X134724500Y-97920000D01*
G75*
G02*
X134804000Y-97999500I0J-79500D01*
G01*
X134804000Y-98200500D01*
G75*
G02*
X134724500Y-98280000I-79500J0D01*
G01*
X134565500Y-98280000D01*
G75*
G02*
X134486000Y-98200500I0J79500D01*
G01*
G37*
G36*
G01*
X133796000Y-98200500D02*
X133796000Y-97999500D01*
G75*
G02*
X133875500Y-97920000I79500J0D01*
G01*
X134034500Y-97920000D01*
G75*
G02*
X134114000Y-97999500I0J-79500D01*
G01*
X134114000Y-98200500D01*
G75*
G02*
X134034500Y-98280000I-79500J0D01*
G01*
X133875500Y-98280000D01*
G75*
G02*
X133796000Y-98200500I0J79500D01*
G01*
G37*
%TD*%
%TO.C,R20*%
G36*
G01*
X134486000Y-98900500D02*
X134486000Y-98699500D01*
G75*
G02*
X134565500Y-98620000I79500J0D01*
G01*
X134724500Y-98620000D01*
G75*
G02*
X134804000Y-98699500I0J-79500D01*
G01*
X134804000Y-98900500D01*
G75*
G02*
X134724500Y-98980000I-79500J0D01*
G01*
X134565500Y-98980000D01*
G75*
G02*
X134486000Y-98900500I0J79500D01*
G01*
G37*
G36*
G01*
X133796000Y-98900500D02*
X133796000Y-98699500D01*
G75*
G02*
X133875500Y-98620000I79500J0D01*
G01*
X134034500Y-98620000D01*
G75*
G02*
X134114000Y-98699500I0J-79500D01*
G01*
X134114000Y-98900500D01*
G75*
G02*
X134034500Y-98980000I-79500J0D01*
G01*
X133875500Y-98980000D01*
G75*
G02*
X133796000Y-98900500I0J79500D01*
G01*
G37*
%TD*%
%TO.C,R19*%
G36*
G01*
X134486000Y-95400500D02*
X134486000Y-95199500D01*
G75*
G02*
X134565500Y-95120000I79500J0D01*
G01*
X134724500Y-95120000D01*
G75*
G02*
X134804000Y-95199500I0J-79500D01*
G01*
X134804000Y-95400500D01*
G75*
G02*
X134724500Y-95480000I-79500J0D01*
G01*
X134565500Y-95480000D01*
G75*
G02*
X134486000Y-95400500I0J79500D01*
G01*
G37*
G36*
G01*
X133796000Y-95400500D02*
X133796000Y-95199500D01*
G75*
G02*
X133875500Y-95120000I79500J0D01*
G01*
X134034500Y-95120000D01*
G75*
G02*
X134114000Y-95199500I0J-79500D01*
G01*
X134114000Y-95400500D01*
G75*
G02*
X134034500Y-95480000I-79500J0D01*
G01*
X133875500Y-95480000D01*
G75*
G02*
X133796000Y-95400500I0J79500D01*
G01*
G37*
%TD*%
%TO.C,R18*%
G36*
G01*
X134486000Y-94700500D02*
X134486000Y-94499500D01*
G75*
G02*
X134565500Y-94420000I79500J0D01*
G01*
X134724500Y-94420000D01*
G75*
G02*
X134804000Y-94499500I0J-79500D01*
G01*
X134804000Y-94700500D01*
G75*
G02*
X134724500Y-94780000I-79500J0D01*
G01*
X134565500Y-94780000D01*
G75*
G02*
X134486000Y-94700500I0J79500D01*
G01*
G37*
G36*
G01*
X133796000Y-94700500D02*
X133796000Y-94499500D01*
G75*
G02*
X133875500Y-94420000I79500J0D01*
G01*
X134034500Y-94420000D01*
G75*
G02*
X134114000Y-94499500I0J-79500D01*
G01*
X134114000Y-94700500D01*
G75*
G02*
X134034500Y-94780000I-79500J0D01*
G01*
X133875500Y-94780000D01*
G75*
G02*
X133796000Y-94700500I0J79500D01*
G01*
G37*
%TD*%
%TO.C,R17*%
G36*
G01*
X134486000Y-94000500D02*
X134486000Y-93799500D01*
G75*
G02*
X134565500Y-93720000I79500J0D01*
G01*
X134724500Y-93720000D01*
G75*
G02*
X134804000Y-93799500I0J-79500D01*
G01*
X134804000Y-94000500D01*
G75*
G02*
X134724500Y-94080000I-79500J0D01*
G01*
X134565500Y-94080000D01*
G75*
G02*
X134486000Y-94000500I0J79500D01*
G01*
G37*
G36*
G01*
X133796000Y-94000500D02*
X133796000Y-93799500D01*
G75*
G02*
X133875500Y-93720000I79500J0D01*
G01*
X134034500Y-93720000D01*
G75*
G02*
X134114000Y-93799500I0J-79500D01*
G01*
X134114000Y-94000500D01*
G75*
G02*
X134034500Y-94080000I-79500J0D01*
G01*
X133875500Y-94080000D01*
G75*
G02*
X133796000Y-94000500I0J79500D01*
G01*
G37*
%TD*%
%TO.C,R7*%
G36*
G01*
X146500500Y-101414000D02*
X146299500Y-101414000D01*
G75*
G02*
X146220000Y-101334500I0J79500D01*
G01*
X146220000Y-101175500D01*
G75*
G02*
X146299500Y-101096000I79500J0D01*
G01*
X146500500Y-101096000D01*
G75*
G02*
X146580000Y-101175500I0J-79500D01*
G01*
X146580000Y-101334500D01*
G75*
G02*
X146500500Y-101414000I-79500J0D01*
G01*
G37*
G36*
G01*
X146500500Y-102104000D02*
X146299500Y-102104000D01*
G75*
G02*
X146220000Y-102024500I0J79500D01*
G01*
X146220000Y-101865500D01*
G75*
G02*
X146299500Y-101786000I79500J0D01*
G01*
X146500500Y-101786000D01*
G75*
G02*
X146580000Y-101865500I0J-79500D01*
G01*
X146580000Y-102024500D01*
G75*
G02*
X146500500Y-102104000I-79500J0D01*
G01*
G37*
%TD*%
%TO.C,R4*%
G36*
G01*
X146299500Y-103686000D02*
X146500500Y-103686000D01*
G75*
G02*
X146580000Y-103765500I0J-79500D01*
G01*
X146580000Y-103924500D01*
G75*
G02*
X146500500Y-104004000I-79500J0D01*
G01*
X146299500Y-104004000D01*
G75*
G02*
X146220000Y-103924500I0J79500D01*
G01*
X146220000Y-103765500D01*
G75*
G02*
X146299500Y-103686000I79500J0D01*
G01*
G37*
G36*
G01*
X146299500Y-102996000D02*
X146500500Y-102996000D01*
G75*
G02*
X146580000Y-103075500I0J-79500D01*
G01*
X146580000Y-103234500D01*
G75*
G02*
X146500500Y-103314000I-79500J0D01*
G01*
X146299500Y-103314000D01*
G75*
G02*
X146220000Y-103234500I0J79500D01*
G01*
X146220000Y-103075500D01*
G75*
G02*
X146299500Y-102996000I79500J0D01*
G01*
G37*
%TD*%
%TO.C,R1*%
G36*
G01*
X147986000Y-102800500D02*
X147986000Y-102599500D01*
G75*
G02*
X148065500Y-102520000I79500J0D01*
G01*
X148224500Y-102520000D01*
G75*
G02*
X148304000Y-102599500I0J-79500D01*
G01*
X148304000Y-102800500D01*
G75*
G02*
X148224500Y-102880000I-79500J0D01*
G01*
X148065500Y-102880000D01*
G75*
G02*
X147986000Y-102800500I0J79500D01*
G01*
G37*
G36*
G01*
X147296000Y-102800500D02*
X147296000Y-102599500D01*
G75*
G02*
X147375500Y-102520000I79500J0D01*
G01*
X147534500Y-102520000D01*
G75*
G02*
X147614000Y-102599500I0J-79500D01*
G01*
X147614000Y-102800500D01*
G75*
G02*
X147534500Y-102880000I-79500J0D01*
G01*
X147375500Y-102880000D01*
G75*
G02*
X147296000Y-102800500I0J79500D01*
G01*
G37*
%TD*%
%TO.C,R3*%
G36*
G01*
X149386000Y-105800500D02*
X149386000Y-105599500D01*
G75*
G02*
X149465500Y-105520000I79500J0D01*
G01*
X149624500Y-105520000D01*
G75*
G02*
X149704000Y-105599500I0J-79500D01*
G01*
X149704000Y-105800500D01*
G75*
G02*
X149624500Y-105880000I-79500J0D01*
G01*
X149465500Y-105880000D01*
G75*
G02*
X149386000Y-105800500I0J79500D01*
G01*
G37*
G36*
G01*
X148696000Y-105800500D02*
X148696000Y-105599500D01*
G75*
G02*
X148775500Y-105520000I79500J0D01*
G01*
X148934500Y-105520000D01*
G75*
G02*
X149014000Y-105599500I0J-79500D01*
G01*
X149014000Y-105800500D01*
G75*
G02*
X148934500Y-105880000I-79500J0D01*
G01*
X148775500Y-105880000D01*
G75*
G02*
X148696000Y-105800500I0J79500D01*
G01*
G37*
%TD*%
%TO.C,R2*%
G36*
G01*
X149386000Y-104900500D02*
X149386000Y-104699500D01*
G75*
G02*
X149465500Y-104620000I79500J0D01*
G01*
X149624500Y-104620000D01*
G75*
G02*
X149704000Y-104699500I0J-79500D01*
G01*
X149704000Y-104900500D01*
G75*
G02*
X149624500Y-104980000I-79500J0D01*
G01*
X149465500Y-104980000D01*
G75*
G02*
X149386000Y-104900500I0J79500D01*
G01*
G37*
G36*
G01*
X148696000Y-104900500D02*
X148696000Y-104699500D01*
G75*
G02*
X148775500Y-104620000I79500J0D01*
G01*
X148934500Y-104620000D01*
G75*
G02*
X149014000Y-104699500I0J-79500D01*
G01*
X149014000Y-104900500D01*
G75*
G02*
X148934500Y-104980000I-79500J0D01*
G01*
X148775500Y-104980000D01*
G75*
G02*
X148696000Y-104900500I0J79500D01*
G01*
G37*
%TD*%
%TO.C,R10*%
G36*
G01*
X145914000Y-108499500D02*
X145914000Y-108700500D01*
G75*
G02*
X145834500Y-108780000I-79500J0D01*
G01*
X145675500Y-108780000D01*
G75*
G02*
X145596000Y-108700500I0J79500D01*
G01*
X145596000Y-108499500D01*
G75*
G02*
X145675500Y-108420000I79500J0D01*
G01*
X145834500Y-108420000D01*
G75*
G02*
X145914000Y-108499500I0J-79500D01*
G01*
G37*
G36*
G01*
X146604000Y-108499500D02*
X146604000Y-108700500D01*
G75*
G02*
X146524500Y-108780000I-79500J0D01*
G01*
X146365500Y-108780000D01*
G75*
G02*
X146286000Y-108700500I0J79500D01*
G01*
X146286000Y-108499500D01*
G75*
G02*
X146365500Y-108420000I79500J0D01*
G01*
X146524500Y-108420000D01*
G75*
G02*
X146604000Y-108499500I0J-79500D01*
G01*
G37*
%TD*%
%TO.C,R8*%
G36*
G01*
X150500500Y-108014000D02*
X150299500Y-108014000D01*
G75*
G02*
X150220000Y-107934500I0J79500D01*
G01*
X150220000Y-107775500D01*
G75*
G02*
X150299500Y-107696000I79500J0D01*
G01*
X150500500Y-107696000D01*
G75*
G02*
X150580000Y-107775500I0J-79500D01*
G01*
X150580000Y-107934500D01*
G75*
G02*
X150500500Y-108014000I-79500J0D01*
G01*
G37*
G36*
G01*
X150500500Y-108704000D02*
X150299500Y-108704000D01*
G75*
G02*
X150220000Y-108624500I0J79500D01*
G01*
X150220000Y-108465500D01*
G75*
G02*
X150299500Y-108386000I79500J0D01*
G01*
X150500500Y-108386000D01*
G75*
G02*
X150580000Y-108465500I0J-79500D01*
G01*
X150580000Y-108624500D01*
G75*
G02*
X150500500Y-108704000I-79500J0D01*
G01*
G37*
%TD*%
%TO.C,R13*%
G36*
G01*
X145614000Y-106599500D02*
X145614000Y-106800500D01*
G75*
G02*
X145534500Y-106880000I-79500J0D01*
G01*
X145375500Y-106880000D01*
G75*
G02*
X145296000Y-106800500I0J79500D01*
G01*
X145296000Y-106599500D01*
G75*
G02*
X145375500Y-106520000I79500J0D01*
G01*
X145534500Y-106520000D01*
G75*
G02*
X145614000Y-106599500I0J-79500D01*
G01*
G37*
G36*
G01*
X146304000Y-106599500D02*
X146304000Y-106800500D01*
G75*
G02*
X146224500Y-106880000I-79500J0D01*
G01*
X146065500Y-106880000D01*
G75*
G02*
X145986000Y-106800500I0J79500D01*
G01*
X145986000Y-106599500D01*
G75*
G02*
X146065500Y-106520000I79500J0D01*
G01*
X146224500Y-106520000D01*
G75*
G02*
X146304000Y-106599500I0J-79500D01*
G01*
G37*
%TD*%
%TO.C,R12*%
G36*
G01*
X147100500Y-106914000D02*
X146899500Y-106914000D01*
G75*
G02*
X146820000Y-106834500I0J79500D01*
G01*
X146820000Y-106675500D01*
G75*
G02*
X146899500Y-106596000I79500J0D01*
G01*
X147100500Y-106596000D01*
G75*
G02*
X147180000Y-106675500I0J-79500D01*
G01*
X147180000Y-106834500D01*
G75*
G02*
X147100500Y-106914000I-79500J0D01*
G01*
G37*
G36*
G01*
X147100500Y-107604000D02*
X146899500Y-107604000D01*
G75*
G02*
X146820000Y-107524500I0J79500D01*
G01*
X146820000Y-107365500D01*
G75*
G02*
X146899500Y-107286000I79500J0D01*
G01*
X147100500Y-107286000D01*
G75*
G02*
X147180000Y-107365500I0J-79500D01*
G01*
X147180000Y-107524500D01*
G75*
G02*
X147100500Y-107604000I-79500J0D01*
G01*
G37*
%TD*%
%TO.C,R6*%
G36*
G01*
X150299500Y-105486000D02*
X150500500Y-105486000D01*
G75*
G02*
X150580000Y-105565500I0J-79500D01*
G01*
X150580000Y-105724500D01*
G75*
G02*
X150500500Y-105804000I-79500J0D01*
G01*
X150299500Y-105804000D01*
G75*
G02*
X150220000Y-105724500I0J79500D01*
G01*
X150220000Y-105565500D01*
G75*
G02*
X150299500Y-105486000I79500J0D01*
G01*
G37*
G36*
G01*
X150299500Y-104796000D02*
X150500500Y-104796000D01*
G75*
G02*
X150580000Y-104875500I0J-79500D01*
G01*
X150580000Y-105034500D01*
G75*
G02*
X150500500Y-105114000I-79500J0D01*
G01*
X150299500Y-105114000D01*
G75*
G02*
X150220000Y-105034500I0J79500D01*
G01*
X150220000Y-104875500D01*
G75*
G02*
X150299500Y-104796000I79500J0D01*
G01*
G37*
%TD*%
%TO.C,R5*%
G36*
G01*
X149014000Y-106499500D02*
X149014000Y-106700500D01*
G75*
G02*
X148934500Y-106780000I-79500J0D01*
G01*
X148775500Y-106780000D01*
G75*
G02*
X148696000Y-106700500I0J79500D01*
G01*
X148696000Y-106499500D01*
G75*
G02*
X148775500Y-106420000I79500J0D01*
G01*
X148934500Y-106420000D01*
G75*
G02*
X149014000Y-106499500I0J-79500D01*
G01*
G37*
G36*
G01*
X149704000Y-106499500D02*
X149704000Y-106700500D01*
G75*
G02*
X149624500Y-106780000I-79500J0D01*
G01*
X149465500Y-106780000D01*
G75*
G02*
X149386000Y-106700500I0J79500D01*
G01*
X149386000Y-106499500D01*
G75*
G02*
X149465500Y-106420000I79500J0D01*
G01*
X149624500Y-106420000D01*
G75*
G02*
X149704000Y-106499500I0J-79500D01*
G01*
G37*
%TD*%
%TO.C,R9*%
G36*
G01*
X147614000Y-101699500D02*
X147614000Y-101900500D01*
G75*
G02*
X147534500Y-101980000I-79500J0D01*
G01*
X147375500Y-101980000D01*
G75*
G02*
X147296000Y-101900500I0J79500D01*
G01*
X147296000Y-101699500D01*
G75*
G02*
X147375500Y-101620000I79500J0D01*
G01*
X147534500Y-101620000D01*
G75*
G02*
X147614000Y-101699500I0J-79500D01*
G01*
G37*
G36*
G01*
X148304000Y-101699500D02*
X148304000Y-101900500D01*
G75*
G02*
X148224500Y-101980000I-79500J0D01*
G01*
X148065500Y-101980000D01*
G75*
G02*
X147986000Y-101900500I0J79500D01*
G01*
X147986000Y-101699500D01*
G75*
G02*
X148065500Y-101620000I79500J0D01*
G01*
X148224500Y-101620000D01*
G75*
G02*
X148304000Y-101699500I0J-79500D01*
G01*
G37*
%TD*%
%TO.C,R11*%
G36*
G01*
X148100500Y-106914000D02*
X147899500Y-106914000D01*
G75*
G02*
X147820000Y-106834500I0J79500D01*
G01*
X147820000Y-106675500D01*
G75*
G02*
X147899500Y-106596000I79500J0D01*
G01*
X148100500Y-106596000D01*
G75*
G02*
X148180000Y-106675500I0J-79500D01*
G01*
X148180000Y-106834500D01*
G75*
G02*
X148100500Y-106914000I-79500J0D01*
G01*
G37*
G36*
G01*
X148100500Y-107604000D02*
X147899500Y-107604000D01*
G75*
G02*
X147820000Y-107524500I0J79500D01*
G01*
X147820000Y-107365500D01*
G75*
G02*
X147899500Y-107286000I79500J0D01*
G01*
X148100500Y-107286000D01*
G75*
G02*
X148180000Y-107365500I0J-79500D01*
G01*
X148180000Y-107524500D01*
G75*
G02*
X148100500Y-107604000I-79500J0D01*
G01*
G37*
%TD*%
%TO.C,R16*%
G36*
G01*
X134486000Y-96100500D02*
X134486000Y-95899500D01*
G75*
G02*
X134565500Y-95820000I79500J0D01*
G01*
X134724500Y-95820000D01*
G75*
G02*
X134804000Y-95899500I0J-79500D01*
G01*
X134804000Y-96100500D01*
G75*
G02*
X134724500Y-96180000I-79500J0D01*
G01*
X134565500Y-96180000D01*
G75*
G02*
X134486000Y-96100500I0J79500D01*
G01*
G37*
G36*
G01*
X133796000Y-96100500D02*
X133796000Y-95899500D01*
G75*
G02*
X133875500Y-95820000I79500J0D01*
G01*
X134034500Y-95820000D01*
G75*
G02*
X134114000Y-95899500I0J-79500D01*
G01*
X134114000Y-96100500D01*
G75*
G02*
X134034500Y-96180000I-79500J0D01*
G01*
X133875500Y-96180000D01*
G75*
G02*
X133796000Y-96100500I0J79500D01*
G01*
G37*
%TD*%
%TO.C,R15*%
G36*
G01*
X142334000Y-110199500D02*
X142334000Y-110400500D01*
G75*
G02*
X142254500Y-110480000I-79500J0D01*
G01*
X142095500Y-110480000D01*
G75*
G02*
X142016000Y-110400500I0J79500D01*
G01*
X142016000Y-110199500D01*
G75*
G02*
X142095500Y-110120000I79500J0D01*
G01*
X142254500Y-110120000D01*
G75*
G02*
X142334000Y-110199500I0J-79500D01*
G01*
G37*
G36*
G01*
X143024000Y-110199500D02*
X143024000Y-110400500D01*
G75*
G02*
X142944500Y-110480000I-79500J0D01*
G01*
X142785500Y-110480000D01*
G75*
G02*
X142706000Y-110400500I0J79500D01*
G01*
X142706000Y-110199500D01*
G75*
G02*
X142785500Y-110120000I79500J0D01*
G01*
X142944500Y-110120000D01*
G75*
G02*
X143024000Y-110199500I0J-79500D01*
G01*
G37*
%TD*%
%TO.C,LED7*%
G36*
G01*
X138845799Y-104043750D02*
X138845799Y-104556250D01*
G75*
G02*
X138627049Y-104775000I-218750J0D01*
G01*
X138189549Y-104775000D01*
G75*
G02*
X137970799Y-104556250I0J218750D01*
G01*
X137970799Y-104043750D01*
G75*
G02*
X138189549Y-103825000I218750J0D01*
G01*
X138627049Y-103825000D01*
G75*
G02*
X138845799Y-104043750I0J-218750D01*
G01*
G37*
G36*
G01*
X140420799Y-104043750D02*
X140420799Y-104556250D01*
G75*
G02*
X140202049Y-104775000I-218750J0D01*
G01*
X139764549Y-104775000D01*
G75*
G02*
X139545799Y-104556250I0J218750D01*
G01*
X139545799Y-104043750D01*
G75*
G02*
X139764549Y-103825000I218750J0D01*
G01*
X140202049Y-103825000D01*
G75*
G02*
X140420799Y-104043750I0J-218750D01*
G01*
G37*
%TD*%
%TO.C,LED6*%
G36*
G01*
X138845799Y-102543750D02*
X138845799Y-103056250D01*
G75*
G02*
X138627049Y-103275000I-218750J0D01*
G01*
X138189549Y-103275000D01*
G75*
G02*
X137970799Y-103056250I0J218750D01*
G01*
X137970799Y-102543750D01*
G75*
G02*
X138189549Y-102325000I218750J0D01*
G01*
X138627049Y-102325000D01*
G75*
G02*
X138845799Y-102543750I0J-218750D01*
G01*
G37*
G36*
G01*
X140420799Y-102543750D02*
X140420799Y-103056250D01*
G75*
G02*
X140202049Y-103275000I-218750J0D01*
G01*
X139764549Y-103275000D01*
G75*
G02*
X139545799Y-103056250I0J218750D01*
G01*
X139545799Y-102543750D01*
G75*
G02*
X139764549Y-102325000I218750J0D01*
G01*
X140202049Y-102325000D01*
G75*
G02*
X140420799Y-102543750I0J-218750D01*
G01*
G37*
%TD*%
%TO.C,LED5*%
G36*
G01*
X138845799Y-101043750D02*
X138845799Y-101556250D01*
G75*
G02*
X138627049Y-101775000I-218750J0D01*
G01*
X138189549Y-101775000D01*
G75*
G02*
X137970799Y-101556250I0J218750D01*
G01*
X137970799Y-101043750D01*
G75*
G02*
X138189549Y-100825000I218750J0D01*
G01*
X138627049Y-100825000D01*
G75*
G02*
X138845799Y-101043750I0J-218750D01*
G01*
G37*
G36*
G01*
X140420799Y-101043750D02*
X140420799Y-101556250D01*
G75*
G02*
X140202049Y-101775000I-218750J0D01*
G01*
X139764549Y-101775000D01*
G75*
G02*
X139545799Y-101556250I0J218750D01*
G01*
X139545799Y-101043750D01*
G75*
G02*
X139764549Y-100825000I218750J0D01*
G01*
X140202049Y-100825000D01*
G75*
G02*
X140420799Y-101043750I0J-218750D01*
G01*
G37*
%TD*%
%TO.C,LED3*%
G36*
G01*
X138845799Y-108543750D02*
X138845799Y-109056250D01*
G75*
G02*
X138627049Y-109275000I-218750J0D01*
G01*
X138189549Y-109275000D01*
G75*
G02*
X137970799Y-109056250I0J218750D01*
G01*
X137970799Y-108543750D01*
G75*
G02*
X138189549Y-108325000I218750J0D01*
G01*
X138627049Y-108325000D01*
G75*
G02*
X138845799Y-108543750I0J-218750D01*
G01*
G37*
G36*
G01*
X140420799Y-108543750D02*
X140420799Y-109056250D01*
G75*
G02*
X140202049Y-109275000I-218750J0D01*
G01*
X139764549Y-109275000D01*
G75*
G02*
X139545799Y-109056250I0J218750D01*
G01*
X139545799Y-108543750D01*
G75*
G02*
X139764549Y-108325000I218750J0D01*
G01*
X140202049Y-108325000D01*
G75*
G02*
X140420799Y-108543750I0J-218750D01*
G01*
G37*
%TD*%
%TO.C,LED2*%
G36*
G01*
X138845799Y-110043750D02*
X138845799Y-110556250D01*
G75*
G02*
X138627049Y-110775000I-218750J0D01*
G01*
X138189549Y-110775000D01*
G75*
G02*
X137970799Y-110556250I0J218750D01*
G01*
X137970799Y-110043750D01*
G75*
G02*
X138189549Y-109825000I218750J0D01*
G01*
X138627049Y-109825000D01*
G75*
G02*
X138845799Y-110043750I0J-218750D01*
G01*
G37*
G36*
G01*
X140420799Y-110043750D02*
X140420799Y-110556250D01*
G75*
G02*
X140202049Y-110775000I-218750J0D01*
G01*
X139764549Y-110775000D01*
G75*
G02*
X139545799Y-110556250I0J218750D01*
G01*
X139545799Y-110043750D01*
G75*
G02*
X139764549Y-109825000I218750J0D01*
G01*
X140202049Y-109825000D01*
G75*
G02*
X140420799Y-110043750I0J-218750D01*
G01*
G37*
%TD*%
%TO.C,LED1*%
G36*
G01*
X138845799Y-105543750D02*
X138845799Y-106056250D01*
G75*
G02*
X138627049Y-106275000I-218750J0D01*
G01*
X138189549Y-106275000D01*
G75*
G02*
X137970799Y-106056250I0J218750D01*
G01*
X137970799Y-105543750D01*
G75*
G02*
X138189549Y-105325000I218750J0D01*
G01*
X138627049Y-105325000D01*
G75*
G02*
X138845799Y-105543750I0J-218750D01*
G01*
G37*
G36*
G01*
X140420799Y-105543750D02*
X140420799Y-106056250D01*
G75*
G02*
X140202049Y-106275000I-218750J0D01*
G01*
X139764549Y-106275000D01*
G75*
G02*
X139545799Y-106056250I0J218750D01*
G01*
X139545799Y-105543750D01*
G75*
G02*
X139764549Y-105325000I218750J0D01*
G01*
X140202049Y-105325000D01*
G75*
G02*
X140420799Y-105543750I0J-218750D01*
G01*
G37*
%TD*%
%TO.C,C3*%
G36*
G01*
X145570000Y-101200000D02*
X145230000Y-101200000D01*
G75*
G02*
X145090000Y-101060000I0J140000D01*
G01*
X145090000Y-100780000D01*
G75*
G02*
X145230000Y-100640000I140000J0D01*
G01*
X145570000Y-100640000D01*
G75*
G02*
X145710000Y-100780000I0J-140000D01*
G01*
X145710000Y-101060000D01*
G75*
G02*
X145570000Y-101200000I-140000J0D01*
G01*
G37*
G36*
G01*
X145570000Y-102160000D02*
X145230000Y-102160000D01*
G75*
G02*
X145090000Y-102020000I0J140000D01*
G01*
X145090000Y-101740000D01*
G75*
G02*
X145230000Y-101600000I140000J0D01*
G01*
X145570000Y-101600000D01*
G75*
G02*
X145710000Y-101740000I0J-140000D01*
G01*
X145710000Y-102020000D01*
G75*
G02*
X145570000Y-102160000I-140000J0D01*
G01*
G37*
%TD*%
%TO.C,C5*%
G36*
G01*
X145570000Y-103100000D02*
X145230000Y-103100000D01*
G75*
G02*
X145090000Y-102960000I0J140000D01*
G01*
X145090000Y-102680000D01*
G75*
G02*
X145230000Y-102540000I140000J0D01*
G01*
X145570000Y-102540000D01*
G75*
G02*
X145710000Y-102680000I0J-140000D01*
G01*
X145710000Y-102960000D01*
G75*
G02*
X145570000Y-103100000I-140000J0D01*
G01*
G37*
G36*
G01*
X145570000Y-104060000D02*
X145230000Y-104060000D01*
G75*
G02*
X145090000Y-103920000I0J140000D01*
G01*
X145090000Y-103640000D01*
G75*
G02*
X145230000Y-103500000I140000J0D01*
G01*
X145570000Y-103500000D01*
G75*
G02*
X145710000Y-103640000I0J-140000D01*
G01*
X145710000Y-103920000D01*
G75*
G02*
X145570000Y-104060000I-140000J0D01*
G01*
G37*
%TD*%
%TO.C,C1*%
G36*
G01*
X147600000Y-103530000D02*
X147600000Y-103870000D01*
G75*
G02*
X147460000Y-104010000I-140000J0D01*
G01*
X147180000Y-104010000D01*
G75*
G02*
X147040000Y-103870000I0J140000D01*
G01*
X147040000Y-103530000D01*
G75*
G02*
X147180000Y-103390000I140000J0D01*
G01*
X147460000Y-103390000D01*
G75*
G02*
X147600000Y-103530000I0J-140000D01*
G01*
G37*
G36*
G01*
X148560000Y-103530000D02*
X148560000Y-103870000D01*
G75*
G02*
X148420000Y-104010000I-140000J0D01*
G01*
X148140000Y-104010000D01*
G75*
G02*
X148000000Y-103870000I0J140000D01*
G01*
X148000000Y-103530000D01*
G75*
G02*
X148140000Y-103390000I140000J0D01*
G01*
X148420000Y-103390000D01*
G75*
G02*
X148560000Y-103530000I0J-140000D01*
G01*
G37*
%TD*%
%TO.C,C7*%
G36*
G01*
X147700000Y-108330000D02*
X147700000Y-108670000D01*
G75*
G02*
X147560000Y-108810000I-140000J0D01*
G01*
X147280000Y-108810000D01*
G75*
G02*
X147140000Y-108670000I0J140000D01*
G01*
X147140000Y-108330000D01*
G75*
G02*
X147280000Y-108190000I140000J0D01*
G01*
X147560000Y-108190000D01*
G75*
G02*
X147700000Y-108330000I0J-140000D01*
G01*
G37*
G36*
G01*
X148660000Y-108330000D02*
X148660000Y-108670000D01*
G75*
G02*
X148520000Y-108810000I-140000J0D01*
G01*
X148240000Y-108810000D01*
G75*
G02*
X148100000Y-108670000I0J140000D01*
G01*
X148100000Y-108330000D01*
G75*
G02*
X148240000Y-108190000I140000J0D01*
G01*
X148520000Y-108190000D01*
G75*
G02*
X148660000Y-108330000I0J-140000D01*
G01*
G37*
%TD*%
%TO.C,C4*%
G36*
G01*
X149570000Y-107820000D02*
X149230000Y-107820000D01*
G75*
G02*
X149090000Y-107680000I0J140000D01*
G01*
X149090000Y-107400000D01*
G75*
G02*
X149230000Y-107260000I140000J0D01*
G01*
X149570000Y-107260000D01*
G75*
G02*
X149710000Y-107400000I0J-140000D01*
G01*
X149710000Y-107680000D01*
G75*
G02*
X149570000Y-107820000I-140000J0D01*
G01*
G37*
G36*
G01*
X149570000Y-108780000D02*
X149230000Y-108780000D01*
G75*
G02*
X149090000Y-108640000I0J140000D01*
G01*
X149090000Y-108360000D01*
G75*
G02*
X149230000Y-108220000I140000J0D01*
G01*
X149570000Y-108220000D01*
G75*
G02*
X149710000Y-108360000I0J-140000D01*
G01*
X149710000Y-108640000D01*
G75*
G02*
X149570000Y-108780000I-140000J0D01*
G01*
G37*
%TD*%
%TO.C,C8*%
G36*
G01*
X145820000Y-107770000D02*
X145820000Y-107430000D01*
G75*
G02*
X145960000Y-107290000I140000J0D01*
G01*
X146240000Y-107290000D01*
G75*
G02*
X146380000Y-107430000I0J-140000D01*
G01*
X146380000Y-107770000D01*
G75*
G02*
X146240000Y-107910000I-140000J0D01*
G01*
X145960000Y-107910000D01*
G75*
G02*
X145820000Y-107770000I0J140000D01*
G01*
G37*
G36*
G01*
X144860000Y-107770000D02*
X144860000Y-107430000D01*
G75*
G02*
X145000000Y-107290000I140000J0D01*
G01*
X145280000Y-107290000D01*
G75*
G02*
X145420000Y-107430000I0J-140000D01*
G01*
X145420000Y-107770000D01*
G75*
G02*
X145280000Y-107910000I-140000J0D01*
G01*
X145000000Y-107910000D01*
G75*
G02*
X144860000Y-107770000I0J140000D01*
G01*
G37*
%TD*%
%TO.C,C2*%
G36*
G01*
X149030000Y-102500000D02*
X149370000Y-102500000D01*
G75*
G02*
X149510000Y-102640000I0J-140000D01*
G01*
X149510000Y-102920000D01*
G75*
G02*
X149370000Y-103060000I-140000J0D01*
G01*
X149030000Y-103060000D01*
G75*
G02*
X148890000Y-102920000I0J140000D01*
G01*
X148890000Y-102640000D01*
G75*
G02*
X149030000Y-102500000I140000J0D01*
G01*
G37*
G36*
G01*
X149030000Y-101540000D02*
X149370000Y-101540000D01*
G75*
G02*
X149510000Y-101680000I0J-140000D01*
G01*
X149510000Y-101960000D01*
G75*
G02*
X149370000Y-102100000I-140000J0D01*
G01*
X149030000Y-102100000D01*
G75*
G02*
X148890000Y-101960000I0J140000D01*
G01*
X148890000Y-101680000D01*
G75*
G02*
X149030000Y-101540000I140000J0D01*
G01*
G37*
%TD*%
D13*
%TO.C,MOD1*%
X142024201Y-93250000D03*
X136224201Y-93950000D03*
X136224201Y-93250000D03*
X136224201Y-94650000D03*
X136224201Y-95350000D03*
X136224201Y-96050000D03*
X136224201Y-96750000D03*
X136224201Y-97450000D03*
X136224201Y-98150000D03*
X136224201Y-98850000D03*
X136224201Y-99550000D03*
X142024201Y-99550000D03*
X142024201Y-98850000D03*
X142024201Y-98150000D03*
X142024201Y-97450000D03*
X142024201Y-96750000D03*
X142024201Y-96050000D03*
X142024201Y-95350000D03*
X142024201Y-94650000D03*
X142024201Y-93950000D03*
%TD*%
M02*
