%TF.GenerationSoftware,KiCad,Pcbnew,(6.0.0-0)*%
%TF.CreationDate,2022-01-28T12:00:06+01:00*%
%TF.ProjectId,s1-ecg-demo,73312d65-6367-42d6-9465-6d6f2e6b6963,2*%
%TF.SameCoordinates,Original*%
%TF.FileFunction,Copper,L2,Inr*%
%TF.FilePolarity,Positive*%
%FSLAX46Y46*%
G04 Gerber Fmt 4.6, Leading zero omitted, Abs format (unit mm)*
G04 Created by KiCad (PCBNEW (6.0.0-0)) date 2022-01-28 12:00:06*
%MOMM*%
%LPD*%
G01*
G04 APERTURE LIST*
%TA.AperFunction,ComponentPad*%
%ADD10O,1.158000X2.158000*%
%TD*%
%TA.AperFunction,ComponentPad*%
%ADD11O,1.158000X2.458000*%
%TD*%
%TA.AperFunction,ViaPad*%
%ADD12C,0.200000*%
%TD*%
%TA.AperFunction,ViaPad*%
%ADD13C,0.650000*%
%TD*%
%TA.AperFunction,Conductor*%
%ADD14C,0.200000*%
%TD*%
G04 APERTURE END LIST*
D10*
%TO.N,*%
%TO.C,J6*%
X143419601Y-113170999D03*
D11*
X143420001Y-116996000D03*
D10*
X134779998Y-113170999D03*
D11*
X134779998Y-116996000D03*
%TD*%
D12*
%TO.N,Net-(C2-Pad2)*%
X147600000Y-105100000D03*
X147480000Y-102700000D03*
%TO.N,Net-(C4-Pad2)*%
X149400000Y-107500006D03*
X147600000Y-105500000D03*
%TO.N,Net-(C4-Pad1)*%
X150400000Y-105700000D03*
X148880000Y-106599940D03*
D13*
%TO.N,GND*%
X122300000Y-89400000D03*
X129300000Y-89400000D03*
X143200000Y-97500000D03*
X135375000Y-111225000D03*
X145700000Y-104700000D03*
X135100000Y-93100000D03*
X143200000Y-93200000D03*
X148800000Y-89400000D03*
X147300000Y-100800000D03*
X123750000Y-100400000D03*
X141300000Y-109500000D03*
X141300000Y-106600000D03*
X141500000Y-102600000D03*
X120300000Y-91700000D03*
X120300000Y-107700000D03*
X122300000Y-117700000D03*
X120300000Y-115700000D03*
X120300000Y-99700000D03*
X129300000Y-117700000D03*
X155300000Y-117700000D03*
X147300000Y-117700000D03*
X155100000Y-89400000D03*
X157900000Y-92000000D03*
X157900000Y-99700000D03*
X157900000Y-107500000D03*
X157900000Y-115500000D03*
X142200000Y-111300000D03*
X139975000Y-111350000D03*
X139100000Y-117700000D03*
X151200000Y-103500000D03*
X150850000Y-107050000D03*
X146400000Y-109500000D03*
X150500000Y-109500000D03*
X144300000Y-106600000D03*
X144250000Y-101650000D03*
X150400000Y-101500000D03*
X148900000Y-113400000D03*
X154800000Y-102000000D03*
X154800000Y-112600000D03*
X125200000Y-111600000D03*
X130300000Y-93600000D03*
X142700000Y-115000000D03*
X135500000Y-115000000D03*
X151400000Y-92700000D03*
X134150000Y-110300000D03*
X143200000Y-98675000D03*
X142100000Y-92200000D03*
X142100000Y-90800000D03*
X142100000Y-89400000D03*
X136200000Y-90800000D03*
X136200000Y-92200000D03*
X136200000Y-89400000D03*
X157900000Y-105000000D03*
X125000000Y-98000000D03*
X122400000Y-98000000D03*
X139150000Y-102050000D03*
X139150000Y-103550000D03*
X141500000Y-103600000D03*
X125000000Y-103400000D03*
X127600000Y-101400000D03*
X146500000Y-94500000D03*
X151400000Y-96300000D03*
X154400000Y-94500000D03*
X148700000Y-98500000D03*
X125700000Y-92900000D03*
X128200000Y-103400000D03*
D12*
%TO.N,+1V8*%
X145000000Y-103800000D03*
X145250000Y-103900000D03*
X145550000Y-103650000D03*
X145250000Y-103650000D03*
X144150000Y-103950000D03*
X144450000Y-103950000D03*
X144450000Y-103650000D03*
X144150000Y-103650000D03*
D13*
X143200000Y-95399994D03*
D12*
X144700000Y-103800000D03*
D13*
X144200000Y-95400000D03*
X145200000Y-95400000D03*
D12*
X134000000Y-97400000D03*
%TO.N,Net-(C7-Pad1)*%
X147200000Y-105500000D03*
X147000000Y-107420000D03*
X148000000Y-107420000D03*
D13*
%TO.N,Net-(J1-Pad1)*%
X118400000Y-104900000D03*
X151400000Y-104900000D03*
D12*
%TO.N,Net-(C2-Pad1)*%
X148000000Y-106500000D03*
X148120000Y-101800000D03*
%TO.N,Net-(C8-Pad2)*%
X147500000Y-101800000D03*
X146099982Y-107600000D03*
D13*
%TO.N,/ecg-out*%
X150700000Y-112100000D03*
%TO.N,Net-(J4-Pad1)*%
X151700000Y-107900000D03*
%TO.N,/Vbatt*%
X141400000Y-100700000D03*
X141400000Y-101300000D03*
%TO.N,VBUS*%
X139000000Y-113600000D03*
X137400000Y-113600000D03*
X138200000Y-113600000D03*
X134600000Y-99600000D03*
X135200000Y-99600000D03*
D12*
%TO.N,/led2*%
X134600000Y-93900000D03*
D13*
X129100000Y-108600000D03*
D12*
%TO.N,/led3*%
X134600000Y-94600000D03*
D13*
X129850000Y-110700000D03*
D12*
%TO.N,/led4*%
X134600000Y-95300000D03*
D13*
X130600000Y-112800000D03*
D12*
%TO.N,/led1*%
X134600000Y-96000000D03*
D13*
X131350000Y-106500000D03*
D12*
%TO.N,/~{shutdown}*%
X146399988Y-105100000D03*
X135900000Y-97450000D03*
%TO.N,/lead-detect*%
X142300000Y-96700000D03*
X144300000Y-105000000D03*
%TD*%
D14*
%TO.N,Net-(C2-Pad2)*%
X147600000Y-102820000D02*
X147480000Y-102700000D01*
X147600000Y-105100000D02*
X147600000Y-102820000D01*
%TO.N,Net-(C4-Pad2)*%
X148899994Y-107000000D02*
X149400000Y-107500006D01*
X147900000Y-107000000D02*
X148899994Y-107000000D01*
X147600000Y-106700000D02*
X147900000Y-107000000D01*
X147600000Y-105500000D02*
X147600000Y-106700000D01*
%TO.N,Net-(C4-Pad1)*%
X149500060Y-106599940D02*
X148880000Y-106599940D01*
X150400000Y-105700000D02*
X149500060Y-106599940D01*
%TO.N,+1V8*%
X134500000Y-96900000D02*
X136100000Y-96900000D01*
X134000000Y-97400000D02*
X134500000Y-96900000D01*
X139500000Y-102800000D02*
X142100000Y-105400000D01*
X142100000Y-105400000D02*
X144600000Y-105400000D01*
X136500000Y-97300000D02*
X136500000Y-100800000D01*
X136100000Y-96900000D02*
X136500000Y-97300000D01*
X144600000Y-105400000D02*
X145000000Y-105000000D01*
X145000000Y-105000000D02*
X145000000Y-103800000D01*
X136500000Y-100800000D02*
X138500000Y-102800000D01*
X138500000Y-102800000D02*
X139500000Y-102800000D01*
%TO.N,Net-(C7-Pad1)*%
X147000000Y-107420000D02*
X148000000Y-107420000D01*
X147210000Y-107420000D02*
X147000000Y-107420000D01*
X147200000Y-107410000D02*
X147210000Y-107420000D01*
X147200000Y-105500000D02*
X147200000Y-107410000D01*
%TO.N,Net-(C2-Pad1)*%
X148120000Y-106380000D02*
X148120000Y-101800000D01*
X148000000Y-106500000D02*
X148120000Y-106380000D01*
%TO.N,Net-(C8-Pad2)*%
X146800000Y-105300000D02*
X146800000Y-102500000D01*
X146099982Y-106000018D02*
X146800000Y-105300000D01*
X146800000Y-102500000D02*
X147500000Y-101800000D01*
X146099982Y-107600000D02*
X146099982Y-106000018D01*
%TO.N,/led2*%
X129100000Y-98500000D02*
X129100000Y-108600000D01*
X133700000Y-93900000D02*
X129100000Y-98500000D01*
X134600000Y-93900000D02*
X133700000Y-93900000D01*
%TO.N,/led3*%
X129850000Y-98850000D02*
X129850000Y-110700000D01*
X134100000Y-94600000D02*
X129850000Y-98850000D01*
X134600000Y-94600000D02*
X134100000Y-94600000D01*
%TO.N,/led4*%
X130600000Y-99100000D02*
X130600000Y-112800000D01*
X134400000Y-95300000D02*
X130600000Y-99100000D01*
X134600000Y-95300000D02*
X134400000Y-95300000D01*
%TO.N,/led1*%
X131350000Y-99250000D02*
X131350000Y-106500000D01*
X134600000Y-96000000D02*
X131350000Y-99250000D01*
%TO.N,/~{shutdown}*%
X135900000Y-101200000D02*
X135900000Y-97450000D01*
X140600000Y-105900000D02*
X135900000Y-101200000D01*
X145599988Y-105900000D02*
X140600000Y-105900000D01*
X146399988Y-105100000D02*
X145599988Y-105900000D01*
%TO.N,/lead-detect*%
X142300000Y-103000000D02*
X144300000Y-105000000D01*
X142300000Y-96700000D02*
X142300000Y-103000000D01*
%TD*%
%TA.AperFunction,Conductor*%
%TO.N,+1V8*%
G36*
X145708475Y-94819962D02*
G01*
X145763011Y-94874498D01*
X145828478Y-94987889D01*
X145833702Y-94993691D01*
X145833705Y-94993695D01*
X145883131Y-95048588D01*
X145944590Y-95116845D01*
X146084976Y-95218842D01*
X146243501Y-95289422D01*
X146251140Y-95291046D01*
X146251141Y-95291046D01*
X146381978Y-95318856D01*
X146450700Y-95353871D01*
X146492707Y-95418556D01*
X146500000Y-95464600D01*
X146500000Y-100567175D01*
X146492708Y-100613217D01*
X146488092Y-100627424D01*
X146469953Y-100800000D01*
X146488092Y-100972576D01*
X146492560Y-100986328D01*
X146492708Y-100986783D01*
X146500000Y-101032825D01*
X146500000Y-101889047D01*
X146480038Y-101963547D01*
X146456359Y-101994406D01*
X146410122Y-102040643D01*
X146395468Y-102053494D01*
X146371718Y-102071718D01*
X146275750Y-102196786D01*
X146275464Y-102197159D01*
X146271732Y-102206168D01*
X146271730Y-102206172D01*
X146246599Y-102266845D01*
X146214956Y-102343238D01*
X146213681Y-102352919D01*
X146213681Y-102352921D01*
X146211585Y-102368842D01*
X146194318Y-102500000D01*
X146195593Y-102509683D01*
X146198225Y-102529675D01*
X146199500Y-102549124D01*
X146199500Y-103789329D01*
X146179538Y-103863829D01*
X146125000Y-103918367D01*
X146050500Y-103938329D01*
X145989898Y-103925448D01*
X145956499Y-103910578D01*
X145948863Y-103908955D01*
X145948860Y-103908954D01*
X145794405Y-103876124D01*
X145794404Y-103876124D01*
X145786764Y-103874500D01*
X145613236Y-103874500D01*
X145605596Y-103876124D01*
X145605595Y-103876124D01*
X145451140Y-103908954D01*
X145451137Y-103908955D01*
X145443501Y-103910578D01*
X145284977Y-103981158D01*
X145278661Y-103985747D01*
X145160571Y-104071544D01*
X145088566Y-104099184D01*
X145072991Y-104100000D01*
X144310953Y-104100000D01*
X144236453Y-104080038D01*
X144205594Y-104056359D01*
X142944141Y-102794906D01*
X142905577Y-102728111D01*
X142900500Y-102689547D01*
X142900500Y-101650000D01*
X143419953Y-101650000D01*
X143438092Y-101822576D01*
X143440502Y-101829994D01*
X143440503Y-101829998D01*
X143483895Y-101963547D01*
X143491714Y-101987611D01*
X143578478Y-102137889D01*
X143583702Y-102143691D01*
X143583705Y-102143695D01*
X143624893Y-102189438D01*
X143694590Y-102266845D01*
X143834976Y-102368842D01*
X143993501Y-102439422D01*
X144001137Y-102441045D01*
X144001140Y-102441046D01*
X144155595Y-102473876D01*
X144155596Y-102473876D01*
X144163236Y-102475500D01*
X144336764Y-102475500D01*
X144344404Y-102473876D01*
X144344405Y-102473876D01*
X144498860Y-102441046D01*
X144498863Y-102441045D01*
X144506499Y-102439422D01*
X144665024Y-102368842D01*
X144805410Y-102266845D01*
X144875107Y-102189438D01*
X144916295Y-102143695D01*
X144916298Y-102143691D01*
X144921522Y-102137889D01*
X145008286Y-101987611D01*
X145016105Y-101963547D01*
X145059497Y-101829998D01*
X145059498Y-101829994D01*
X145061908Y-101822576D01*
X145080047Y-101650000D01*
X145067782Y-101533305D01*
X145062724Y-101485185D01*
X145062723Y-101485183D01*
X145061908Y-101477424D01*
X145059498Y-101470006D01*
X145059497Y-101470002D01*
X145010698Y-101319811D01*
X145010696Y-101319807D01*
X145008286Y-101312389D01*
X144921522Y-101162111D01*
X144916298Y-101156309D01*
X144916295Y-101156305D01*
X144866869Y-101101412D01*
X144805410Y-101033155D01*
X144665024Y-100931158D01*
X144506499Y-100860578D01*
X144498863Y-100858955D01*
X144498860Y-100858954D01*
X144344405Y-100826124D01*
X144344404Y-100826124D01*
X144336764Y-100824500D01*
X144163236Y-100824500D01*
X144155596Y-100826124D01*
X144155595Y-100826124D01*
X144001140Y-100858954D01*
X144001137Y-100858955D01*
X143993501Y-100860578D01*
X143834977Y-100931158D01*
X143828661Y-100935747D01*
X143700904Y-101028567D01*
X143700900Y-101028570D01*
X143694590Y-101033155D01*
X143689366Y-101038957D01*
X143583705Y-101156305D01*
X143583702Y-101156309D01*
X143578478Y-101162111D01*
X143491714Y-101312389D01*
X143489304Y-101319807D01*
X143489302Y-101319811D01*
X143440503Y-101470002D01*
X143440502Y-101470006D01*
X143438092Y-101477424D01*
X143437277Y-101485183D01*
X143437276Y-101485185D01*
X143432218Y-101533305D01*
X143419953Y-101650000D01*
X142900500Y-101650000D01*
X142900500Y-99639281D01*
X142920462Y-99564781D01*
X142975000Y-99510243D01*
X143049500Y-99490281D01*
X143080475Y-99493536D01*
X143113236Y-99500500D01*
X143286764Y-99500500D01*
X143294404Y-99498876D01*
X143294405Y-99498876D01*
X143448860Y-99466046D01*
X143448863Y-99466045D01*
X143456499Y-99464422D01*
X143615024Y-99393842D01*
X143755410Y-99291845D01*
X143816869Y-99223588D01*
X143866295Y-99168695D01*
X143866298Y-99168691D01*
X143871522Y-99162889D01*
X143958286Y-99012611D01*
X143960698Y-99005189D01*
X144009497Y-98854998D01*
X144009498Y-98854994D01*
X144011908Y-98847576D01*
X144030047Y-98675000D01*
X144011908Y-98502424D01*
X144009498Y-98495006D01*
X144009497Y-98495002D01*
X143960698Y-98344811D01*
X143960696Y-98344807D01*
X143958286Y-98337389D01*
X143871522Y-98187111D01*
X143866297Y-98181308D01*
X143861771Y-98175078D01*
X143834132Y-98103073D01*
X143846198Y-98026895D01*
X143861771Y-97999922D01*
X143866297Y-97993692D01*
X143871522Y-97987889D01*
X143958286Y-97837611D01*
X143960698Y-97830189D01*
X144009497Y-97679998D01*
X144009498Y-97679994D01*
X144011908Y-97672576D01*
X144030047Y-97500000D01*
X144011908Y-97327424D01*
X144009498Y-97320006D01*
X144009497Y-97320002D01*
X143960698Y-97169811D01*
X143960696Y-97169807D01*
X143958286Y-97162389D01*
X143871522Y-97012111D01*
X143866298Y-97006309D01*
X143866295Y-97006305D01*
X143816869Y-96951412D01*
X143755410Y-96883155D01*
X143615024Y-96781158D01*
X143456499Y-96710578D01*
X143448863Y-96708955D01*
X143448860Y-96708954D01*
X143294405Y-96676124D01*
X143294404Y-96676124D01*
X143286764Y-96674500D01*
X143113236Y-96674500D01*
X143105591Y-96676125D01*
X143065729Y-96684597D01*
X142988707Y-96680560D01*
X142924022Y-96638552D01*
X142889008Y-96569830D01*
X142887027Y-96558301D01*
X142886319Y-96552921D01*
X142886319Y-96552919D01*
X142885044Y-96543238D01*
X142824536Y-96397159D01*
X142728282Y-96271718D01*
X142658293Y-96218014D01*
X142611342Y-96156825D01*
X142600000Y-96099805D01*
X142600000Y-94949000D01*
X142619962Y-94874500D01*
X142674500Y-94819962D01*
X142749000Y-94800000D01*
X145633975Y-94800000D01*
X145708475Y-94819962D01*
G37*
%TD.AperFunction*%
%TD*%
%TA.AperFunction,Conductor*%
%TO.N,VBUS*%
G36*
X135225000Y-99169962D02*
G01*
X135279538Y-99224500D01*
X135299500Y-99299000D01*
X135299500Y-101150876D01*
X135298225Y-101170322D01*
X135294318Y-101200000D01*
X135295593Y-101209685D01*
X135299500Y-101239361D01*
X135302712Y-101263755D01*
X135314956Y-101356762D01*
X135375464Y-101502841D01*
X135471718Y-101628282D01*
X135479467Y-101634228D01*
X135495468Y-101646506D01*
X135510122Y-101659357D01*
X139456359Y-105605594D01*
X139494923Y-105672389D01*
X139500000Y-105710953D01*
X139500000Y-110598814D01*
X139480038Y-110673314D01*
X139438580Y-110719358D01*
X139425904Y-110728567D01*
X139425900Y-110728570D01*
X139419590Y-110733155D01*
X139414366Y-110738957D01*
X139308705Y-110856305D01*
X139308702Y-110856309D01*
X139303478Y-110862111D01*
X139216714Y-111012389D01*
X139214304Y-111019807D01*
X139214302Y-111019811D01*
X139165503Y-111170002D01*
X139165502Y-111170006D01*
X139163092Y-111177424D01*
X139162277Y-111185183D01*
X139162276Y-111185185D01*
X139159377Y-111212770D01*
X139144953Y-111350000D01*
X139163092Y-111522576D01*
X139165502Y-111529994D01*
X139165503Y-111529998D01*
X139214302Y-111680189D01*
X139216714Y-111687611D01*
X139303478Y-111837889D01*
X139308702Y-111843691D01*
X139308705Y-111843695D01*
X139398878Y-111943842D01*
X139419590Y-111966845D01*
X139425908Y-111971435D01*
X139425911Y-111971438D01*
X139438581Y-111980643D01*
X139487119Y-112040583D01*
X139500000Y-112101186D01*
X139500000Y-114101000D01*
X139480038Y-114175500D01*
X139425500Y-114230038D01*
X139351000Y-114250000D01*
X136906513Y-114250000D01*
X136832013Y-114230038D01*
X136777475Y-114175500D01*
X136757513Y-114101000D01*
X136777475Y-114026500D01*
X136783278Y-114017250D01*
X136828635Y-113950508D01*
X136833171Y-113943834D01*
X136899779Y-113777302D01*
X136929073Y-113600352D01*
X136919686Y-113421240D01*
X136872057Y-113248321D01*
X136788406Y-113089664D01*
X136672638Y-112952671D01*
X136530153Y-112843733D01*
X136367599Y-112767933D01*
X136359733Y-112766175D01*
X136359731Y-112766174D01*
X136198525Y-112730140D01*
X136198521Y-112730139D01*
X136192560Y-112728807D01*
X136187069Y-112728500D01*
X136055190Y-112728500D01*
X136021872Y-112732120D01*
X135945654Y-112720320D01*
X135885545Y-112671991D01*
X135857457Y-112598143D01*
X135845518Y-112473007D01*
X135844844Y-112465942D01*
X135786857Y-112268284D01*
X135723434Y-112145140D01*
X135707070Y-112069768D01*
X135730583Y-111996312D01*
X135781398Y-111947879D01*
X135782885Y-111947020D01*
X135790024Y-111943842D01*
X135930410Y-111841845D01*
X136030281Y-111730927D01*
X136041295Y-111718695D01*
X136041298Y-111718691D01*
X136046522Y-111712889D01*
X136133286Y-111562611D01*
X136140579Y-111540166D01*
X136184497Y-111404998D01*
X136184498Y-111404994D01*
X136186908Y-111397576D01*
X136205047Y-111225000D01*
X136196538Y-111144048D01*
X136187724Y-111060185D01*
X136187723Y-111060183D01*
X136186908Y-111052424D01*
X136184498Y-111045006D01*
X136184497Y-111045002D01*
X136135698Y-110894811D01*
X136135696Y-110894807D01*
X136133286Y-110887389D01*
X136046522Y-110737111D01*
X136041298Y-110731309D01*
X136041295Y-110731305D01*
X135956932Y-110637611D01*
X135930410Y-110608155D01*
X135790024Y-110506158D01*
X135631499Y-110435578D01*
X135623863Y-110433955D01*
X135623860Y-110433954D01*
X135469405Y-110401124D01*
X135469404Y-110401124D01*
X135461764Y-110399500D01*
X135288236Y-110399500D01*
X135280596Y-110401124D01*
X135280595Y-110401124D01*
X135158876Y-110426996D01*
X135081853Y-110422959D01*
X135017168Y-110380952D01*
X134982153Y-110312231D01*
X134979713Y-110296827D01*
X134962724Y-110135185D01*
X134962723Y-110135183D01*
X134961908Y-110127424D01*
X134959498Y-110120006D01*
X134959497Y-110120002D01*
X134910698Y-109969811D01*
X134910696Y-109969807D01*
X134908286Y-109962389D01*
X134821522Y-109812111D01*
X134816298Y-109806309D01*
X134816295Y-109806305D01*
X134766869Y-109751412D01*
X134705410Y-109683155D01*
X134565024Y-109581158D01*
X134406499Y-109510578D01*
X134268022Y-109481144D01*
X134199300Y-109446129D01*
X134157293Y-109381444D01*
X134150000Y-109335400D01*
X134150000Y-99299000D01*
X134169962Y-99224500D01*
X134224500Y-99169962D01*
X134299000Y-99150000D01*
X135150500Y-99150000D01*
X135225000Y-99169962D01*
G37*
%TD.AperFunction*%
%TD*%
M02*
