%TF.GenerationSoftware,KiCad,Pcbnew,(6.0.0-0)*%
%TF.CreationDate,2022-01-28T12:00:06+01:00*%
%TF.ProjectId,s1-ecg-demo,73312d65-6367-42d6-9465-6d6f2e6b6963,2*%
%TF.SameCoordinates,Original*%
%TF.FileFunction,Copper,L4,Bot*%
%TF.FilePolarity,Positive*%
%FSLAX46Y46*%
G04 Gerber Fmt 4.6, Leading zero omitted, Abs format (unit mm)*
G04 Created by KiCad (PCBNEW (6.0.0-0)) date 2022-01-28 12:00:06*
%MOMM*%
%LPD*%
G01*
G04 APERTURE LIST*
G04 Aperture macros list*
%AMRoundRect*
0 Rectangle with rounded corners*
0 $1 Rounding radius*
0 $2 $3 $4 $5 $6 $7 $8 $9 X,Y pos of 4 corners*
0 Add a 4 corners polygon primitive as box body*
4,1,4,$2,$3,$4,$5,$6,$7,$8,$9,$2,$3,0*
0 Add four circle primitives for the rounded corners*
1,1,$1+$1,$2,$3*
1,1,$1+$1,$4,$5*
1,1,$1+$1,$6,$7*
1,1,$1+$1,$8,$9*
0 Add four rect primitives between the rounded corners*
20,1,$1+$1,$2,$3,$4,$5,0*
20,1,$1+$1,$4,$5,$6,$7,0*
20,1,$1+$1,$6,$7,$8,$9,0*
20,1,$1+$1,$8,$9,$2,$3,0*%
G04 Aperture macros list end*
%TA.AperFunction,ComponentPad*%
%ADD10O,1.158000X2.158000*%
%TD*%
%TA.AperFunction,ComponentPad*%
%ADD11O,1.158000X2.458000*%
%TD*%
%TA.AperFunction,SMDPad,CuDef*%
%ADD12C,1.000000*%
%TD*%
%TA.AperFunction,SMDPad,CuDef*%
%ADD13RoundRect,0.381000X-0.381000X-0.381000X0.381000X-0.381000X0.381000X0.381000X-0.381000X0.381000X0*%
%TD*%
%TA.AperFunction,SMDPad,CuDef*%
%ADD14R,1.000000X2.500000*%
%TD*%
%TA.AperFunction,ViaPad*%
%ADD15C,0.650000*%
%TD*%
%TA.AperFunction,Conductor*%
%ADD16C,0.350000*%
%TD*%
%TA.AperFunction,Conductor*%
%ADD17C,0.200000*%
%TD*%
G04 APERTURE END LIST*
D10*
%TO.P,J6,*%
%TO.N,*%
X143419601Y-113170999D03*
D11*
X143420001Y-116996000D03*
D10*
X134779998Y-113170999D03*
D11*
X134779998Y-116996000D03*
%TD*%
D12*
%TO.P,TP1,1,1*%
%TO.N,/ecg-out*%
X152100000Y-112800000D03*
%TD*%
%TO.P,TP5,1,1*%
%TO.N,/led4*%
X127400000Y-112800000D03*
%TD*%
%TO.P,TP4,1,1*%
%TO.N,/led3*%
X127400000Y-110700000D03*
%TD*%
%TO.P,TP3,1,1*%
%TO.N,/led2*%
X127400000Y-108600000D03*
%TD*%
%TO.P,TP2,1,1*%
%TO.N,/led1*%
X127400000Y-106500000D03*
%TD*%
D13*
%TO.P,J4,1,Pin_1*%
%TO.N,Net-(J4-Pad1)*%
X159900000Y-103600000D03*
%TD*%
D14*
%TO.P,J5,2,Pin_2*%
%TO.N,Net-(J5-Pad2)*%
X124990000Y-100200000D03*
%TO.P,J5,1,Pin_1*%
%TO.N,/Vbatt*%
X122450000Y-100200000D03*
%TD*%
%TO.P,J7,2,Pin_2*%
%TO.N,Net-(J5-Pad2)*%
X137760000Y-102400000D03*
%TO.P,J7,1,Pin_1*%
%TO.N,GND*%
X140300000Y-102400000D03*
%TD*%
D15*
%TO.N,GND*%
X122300000Y-89400000D03*
X129300000Y-89400000D03*
X143200000Y-97500000D03*
X135375000Y-111225000D03*
X145700000Y-104700000D03*
X135100000Y-93100000D03*
X143200000Y-93200000D03*
X148800000Y-89400000D03*
X147300000Y-100800000D03*
X123750000Y-100400000D03*
X141300000Y-109500000D03*
X141300000Y-106600000D03*
X141500000Y-102600000D03*
X120300000Y-91700000D03*
X120300000Y-107700000D03*
X122300000Y-117700000D03*
X120300000Y-115700000D03*
X120300000Y-99700000D03*
X129300000Y-117700000D03*
X155300000Y-117700000D03*
X147300000Y-117700000D03*
X155100000Y-89400000D03*
X157900000Y-92000000D03*
X157900000Y-99700000D03*
X157900000Y-107500000D03*
X157900000Y-115500000D03*
X142200000Y-111300000D03*
X139975000Y-111350000D03*
X139100000Y-117700000D03*
X151200000Y-103500000D03*
X150850000Y-107050000D03*
X146400000Y-109500000D03*
X150500000Y-109500000D03*
X144300000Y-106600000D03*
X144250000Y-101650000D03*
X150400000Y-101500000D03*
X148900000Y-113400000D03*
X154800000Y-102000000D03*
X154800000Y-112600000D03*
X125200000Y-111600000D03*
X130300000Y-93600000D03*
X142700000Y-115000000D03*
X135500000Y-115000000D03*
X151400000Y-92700000D03*
X134150000Y-110300000D03*
X143200000Y-98675000D03*
X142100000Y-92200000D03*
X142100000Y-90800000D03*
X142100000Y-89400000D03*
X136200000Y-90800000D03*
X136200000Y-92200000D03*
X136200000Y-89400000D03*
X157900000Y-105000000D03*
X125000000Y-98000000D03*
X122400000Y-98000000D03*
X139150000Y-102050000D03*
X139150000Y-103550000D03*
X141500000Y-103600000D03*
X125000000Y-103400000D03*
X127600000Y-101400000D03*
X146500000Y-94500000D03*
X151400000Y-96300000D03*
X154400000Y-94500000D03*
X148700000Y-98500000D03*
X125700000Y-92900000D03*
X128200000Y-103400000D03*
%TO.N,+1V8*%
X143200000Y-95399994D03*
X144200000Y-95400000D03*
X145200000Y-95400000D03*
%TO.N,Net-(J1-Pad1)*%
X118400000Y-104900000D03*
X151400000Y-104900000D03*
%TO.N,/ecg-out*%
X150700000Y-112100000D03*
%TO.N,Net-(J4-Pad1)*%
X151700000Y-107900000D03*
%TO.N,/Vbatt*%
X141400000Y-100700000D03*
X141400000Y-101300000D03*
%TO.N,VBUS*%
X139000000Y-113600000D03*
X137400000Y-113600000D03*
X138200000Y-113600000D03*
X134600000Y-99600000D03*
X135200000Y-99600000D03*
%TO.N,/led2*%
X129100000Y-108600000D03*
%TO.N,/led3*%
X129850000Y-110700000D03*
%TO.N,/led4*%
X130600000Y-112800000D03*
%TO.N,/led1*%
X131350000Y-106500000D03*
%TD*%
D16*
%TO.N,GND*%
X140400000Y-102000000D02*
X140400000Y-101550002D01*
X140300000Y-102400000D02*
X140300000Y-101650000D01*
%TO.N,Net-(J1-Pad1)*%
X150800000Y-105500000D02*
X151400000Y-104900000D01*
X119000000Y-105500000D02*
X150800000Y-105500000D01*
X118400000Y-104900000D02*
X119000000Y-105500000D01*
%TO.N,Net-(J5-Pad2)*%
X126400000Y-102400000D02*
X127950000Y-102400000D01*
X124990000Y-100990000D02*
X126400000Y-102400000D01*
X127950000Y-102400000D02*
X137760000Y-102400000D01*
X124990000Y-100200000D02*
X124990000Y-100990000D01*
%TO.N,/ecg-out*%
X151400000Y-112100000D02*
X152100000Y-112800000D01*
X150700000Y-112100000D02*
X151400000Y-112100000D01*
%TO.N,Net-(J4-Pad1)*%
X159900000Y-103600000D02*
X156000000Y-103600000D01*
X156000000Y-103600000D02*
X151700000Y-107900000D01*
%TO.N,/Vbatt*%
X122450000Y-102650000D02*
X122450000Y-100200000D01*
X141800000Y-104500000D02*
X124300000Y-104500000D01*
X142400000Y-103900000D02*
X141800000Y-104500000D01*
X142400000Y-102300000D02*
X142400000Y-103900000D01*
X124300000Y-104500000D02*
X122450000Y-102650000D01*
X141400000Y-101300000D02*
X142400000Y-102300000D01*
D17*
%TO.N,/led2*%
X129100000Y-108600000D02*
X127400000Y-108600000D01*
%TO.N,/led3*%
X127400000Y-110700000D02*
X129850000Y-110700000D01*
%TO.N,/led4*%
X127400000Y-112800000D02*
X130600000Y-112800000D01*
%TO.N,/led1*%
X127400000Y-106500000D02*
X131350000Y-106500000D01*
%TD*%
%TA.AperFunction,Conductor*%
%TO.N,Net-(J4-Pad1)*%
G36*
X164281598Y-88801620D02*
G01*
X164297983Y-88804621D01*
X164306519Y-88803174D01*
X164306526Y-88803174D01*
X164311101Y-88802398D01*
X164330851Y-88801057D01*
X165057231Y-88824581D01*
X165062293Y-88824875D01*
X165632557Y-88872818D01*
X165816710Y-88888300D01*
X165821777Y-88888858D01*
X165974645Y-88909680D01*
X166571911Y-88991033D01*
X166576927Y-88991849D01*
X167320813Y-89132505D01*
X167325785Y-89133579D01*
X167900431Y-89273218D01*
X168061422Y-89312339D01*
X168066343Y-89313669D01*
X168791838Y-89530072D01*
X168796685Y-89531655D01*
X169453557Y-89765036D01*
X169510040Y-89785104D01*
X169514794Y-89786932D01*
X170214196Y-90076786D01*
X170218799Y-90078833D01*
X170902370Y-90404315D01*
X170906914Y-90406625D01*
X171572766Y-90766833D01*
X171577186Y-90769373D01*
X172223651Y-91163405D01*
X172227896Y-91166145D01*
X172819614Y-91569996D01*
X172853213Y-91592928D01*
X172857348Y-91595909D01*
X173459851Y-92054308D01*
X173463806Y-92057480D01*
X174041942Y-92546310D01*
X174045729Y-92549683D01*
X174391481Y-92873984D01*
X174597921Y-93067617D01*
X174601534Y-93071185D01*
X175126348Y-93616874D01*
X175129744Y-93620592D01*
X175425746Y-93961921D01*
X175625747Y-94192548D01*
X175628987Y-94196484D01*
X176014608Y-94690389D01*
X176094886Y-94793210D01*
X176097919Y-94797308D01*
X176532472Y-95417215D01*
X176535290Y-95421463D01*
X176937369Y-96062937D01*
X176939962Y-96067322D01*
X177271881Y-96662958D01*
X177308477Y-96728631D01*
X177310843Y-96733147D01*
X177644822Y-97412542D01*
X177646953Y-97417174D01*
X177945521Y-98112878D01*
X177947410Y-98117613D01*
X178209764Y-98827751D01*
X178211407Y-98832577D01*
X178436855Y-99555272D01*
X178438248Y-99560176D01*
X178626198Y-100293543D01*
X178627336Y-100298512D01*
X178777286Y-101040585D01*
X178778166Y-101045607D01*
X178888424Y-101785739D01*
X178889709Y-101794366D01*
X178890331Y-101799426D01*
X178963186Y-102553001D01*
X178963545Y-102558087D01*
X178997508Y-103314355D01*
X178997606Y-103319452D01*
X178992593Y-104076500D01*
X178992428Y-104081595D01*
X178948450Y-104837371D01*
X178948023Y-104842451D01*
X178865196Y-105594961D01*
X178864508Y-105600013D01*
X178743050Y-106347282D01*
X178742102Y-106352291D01*
X178582348Y-107092265D01*
X178581145Y-107097219D01*
X178383492Y-107828052D01*
X178382034Y-107832937D01*
X178147041Y-108552564D01*
X178145335Y-108557368D01*
X177873591Y-109263987D01*
X177871639Y-109268697D01*
X177759525Y-109520677D01*
X177563877Y-109960399D01*
X177561701Y-109964968D01*
X177529277Y-110028778D01*
X177218741Y-110639904D01*
X177216315Y-110644388D01*
X176839077Y-111300751D01*
X176836424Y-111305104D01*
X176425893Y-111941187D01*
X176423019Y-111945398D01*
X175980285Y-112559506D01*
X175977198Y-112563563D01*
X175503439Y-113154064D01*
X175500172Y-113157929D01*
X174996620Y-113723283D01*
X174993139Y-113726994D01*
X174852289Y-113869617D01*
X174461174Y-114265655D01*
X174457509Y-114269179D01*
X173898521Y-114779739D01*
X173894682Y-114783068D01*
X173310138Y-115264186D01*
X173306119Y-115267324D01*
X172697592Y-115717705D01*
X172693418Y-115720631D01*
X172062534Y-116139075D01*
X172058214Y-116141783D01*
X171406603Y-116527209D01*
X171402156Y-116529687D01*
X170731558Y-116881063D01*
X170727054Y-116883278D01*
X170039213Y-117199686D01*
X170034547Y-117201688D01*
X169565082Y-117389002D01*
X169331387Y-117482245D01*
X169326619Y-117484006D01*
X168609940Y-117727997D01*
X168605073Y-117729515D01*
X167876810Y-117936280D01*
X167871871Y-117937546D01*
X167133906Y-118106552D01*
X167128910Y-118107561D01*
X166383262Y-118238348D01*
X166378221Y-118239100D01*
X165626766Y-118331334D01*
X165621716Y-118331822D01*
X164866539Y-118385250D01*
X164861470Y-118385477D01*
X164134830Y-118399378D01*
X164115106Y-118397776D01*
X164102017Y-118395379D01*
X164093480Y-118396826D01*
X164093479Y-118396826D01*
X164092807Y-118396940D01*
X164082965Y-118398608D01*
X164066423Y-118400000D01*
X159099000Y-118400000D01*
X159040809Y-118381093D01*
X159004845Y-118331593D01*
X159000000Y-118301000D01*
X159000000Y-88899000D01*
X159018907Y-88840809D01*
X159068407Y-88804845D01*
X159099000Y-88800000D01*
X164263762Y-88800000D01*
X164281598Y-88801620D01*
G37*
%TD.AperFunction*%
%TD*%
%TA.AperFunction,Conductor*%
%TO.N,GND*%
G36*
X158659191Y-88818907D02*
G01*
X158695155Y-88868407D01*
X158700000Y-88899000D01*
X158700000Y-103025500D01*
X158681093Y-103083691D01*
X158631593Y-103119655D01*
X158601000Y-103124500D01*
X156064356Y-103124500D01*
X156052444Y-103123169D01*
X156052435Y-103123280D01*
X156045405Y-103122714D01*
X156038526Y-103121158D01*
X155987721Y-103124310D01*
X155981591Y-103124500D01*
X155965855Y-103124500D01*
X155955413Y-103125995D01*
X155947523Y-103126804D01*
X155936011Y-103127518D01*
X155909622Y-103129155D01*
X155909620Y-103129155D01*
X155902583Y-103129592D01*
X155893899Y-103132727D01*
X155874318Y-103137609D01*
X155865171Y-103138919D01*
X155858748Y-103141840D01*
X155858746Y-103141840D01*
X155824170Y-103157560D01*
X155816812Y-103160556D01*
X155774470Y-103175842D01*
X155767011Y-103181291D01*
X155749596Y-103191467D01*
X155741180Y-103195294D01*
X155735842Y-103199893D01*
X155735835Y-103199898D01*
X155707057Y-103224695D01*
X155700837Y-103229634D01*
X155693051Y-103235322D01*
X155693047Y-103235326D01*
X155689965Y-103237577D01*
X155679209Y-103248333D01*
X155673829Y-103253328D01*
X155643336Y-103279602D01*
X155643333Y-103279605D01*
X155637996Y-103284204D01*
X155634161Y-103290121D01*
X155634159Y-103290123D01*
X155633838Y-103290618D01*
X155620767Y-103306775D01*
X151680408Y-107247134D01*
X151627276Y-107272820D01*
X151627579Y-107274082D01*
X151621777Y-107275475D01*
X151621776Y-107275475D01*
X151500227Y-107304656D01*
X151480367Y-107309424D01*
X151410544Y-107345462D01*
X151351141Y-107376122D01*
X151351139Y-107376124D01*
X151345835Y-107378861D01*
X151231749Y-107478385D01*
X151144696Y-107602249D01*
X151089702Y-107743302D01*
X151069941Y-107893402D01*
X151070596Y-107899335D01*
X151070596Y-107899339D01*
X151082596Y-108008031D01*
X151086554Y-108043883D01*
X151088606Y-108049490D01*
X151136530Y-108180451D01*
X151136532Y-108180455D01*
X151138582Y-108186057D01*
X151223022Y-108311716D01*
X151227434Y-108315731D01*
X151227437Y-108315734D01*
X151330582Y-108409589D01*
X151334998Y-108413607D01*
X151391199Y-108444122D01*
X151462801Y-108482999D01*
X151462803Y-108483000D01*
X151468047Y-108485847D01*
X151544798Y-108505982D01*
X151608717Y-108522751D01*
X151608721Y-108522751D01*
X151614486Y-108524264D01*
X151620447Y-108524358D01*
X151620450Y-108524358D01*
X151690175Y-108525453D01*
X151765863Y-108526642D01*
X151771679Y-108525310D01*
X151907614Y-108494177D01*
X151907617Y-108494176D01*
X151913437Y-108492843D01*
X151924337Y-108487361D01*
X152043355Y-108427502D01*
X152043357Y-108427501D01*
X152048689Y-108424819D01*
X152163810Y-108326495D01*
X152224658Y-108241817D01*
X152248672Y-108208399D01*
X152248673Y-108208397D01*
X152252156Y-108203550D01*
X152308624Y-108063080D01*
X152320439Y-107980065D01*
X152348447Y-107924011D01*
X156167962Y-104104496D01*
X156222479Y-104076719D01*
X156237966Y-104075500D01*
X158601000Y-104075500D01*
X158659191Y-104094407D01*
X158695155Y-104143907D01*
X158700000Y-104174500D01*
X158700000Y-118301000D01*
X158681093Y-118359191D01*
X158631593Y-118395155D01*
X158601000Y-118400000D01*
X144150955Y-118400000D01*
X144092764Y-118381093D01*
X144056800Y-118331593D01*
X144056800Y-118270407D01*
X144072308Y-118240870D01*
X144173472Y-118108553D01*
X144173474Y-118108550D01*
X144176730Y-118104291D01*
X144257488Y-117931104D01*
X144294523Y-117765425D01*
X144298290Y-117748571D01*
X144298290Y-117748568D01*
X144299174Y-117744615D01*
X144299501Y-117738766D01*
X144299501Y-116298263D01*
X144294459Y-116251848D01*
X144284628Y-116161352D01*
X144284627Y-116161347D01*
X144284049Y-116156027D01*
X144223099Y-115974917D01*
X144124680Y-115811120D01*
X143993384Y-115672278D01*
X143835336Y-115564869D01*
X143682613Y-115503784D01*
X143662887Y-115495894D01*
X143662885Y-115495893D01*
X143657911Y-115493904D01*
X143652629Y-115493030D01*
X143652627Y-115493029D01*
X143589134Y-115482518D01*
X143469386Y-115462693D01*
X143389533Y-115466878D01*
X143283911Y-115472413D01*
X143283908Y-115472414D01*
X143278556Y-115472694D01*
X143094326Y-115523440D01*
X142925291Y-115612562D01*
X142779336Y-115735903D01*
X142776080Y-115740162D01*
X142666530Y-115883447D01*
X142666528Y-115883450D01*
X142663272Y-115887709D01*
X142582514Y-116060896D01*
X142540828Y-116247385D01*
X142540501Y-116253234D01*
X142540501Y-117693737D01*
X142540790Y-117696396D01*
X142555374Y-117830648D01*
X142555375Y-117830653D01*
X142555953Y-117835973D01*
X142616903Y-118017083D01*
X142715322Y-118180880D01*
X142719004Y-118184773D01*
X142719008Y-118184779D01*
X142764588Y-118232979D01*
X142790833Y-118288250D01*
X142779577Y-118348391D01*
X142735121Y-118390430D01*
X142692657Y-118400000D01*
X135510952Y-118400000D01*
X135452761Y-118381093D01*
X135416797Y-118331593D01*
X135416797Y-118270407D01*
X135432305Y-118240870D01*
X135533469Y-118108553D01*
X135533471Y-118108550D01*
X135536727Y-118104291D01*
X135617485Y-117931104D01*
X135654520Y-117765425D01*
X135658287Y-117748571D01*
X135658287Y-117748568D01*
X135659171Y-117744615D01*
X135659498Y-117738766D01*
X135659498Y-116298263D01*
X135654456Y-116251848D01*
X135644625Y-116161352D01*
X135644624Y-116161347D01*
X135644046Y-116156027D01*
X135583096Y-115974917D01*
X135484677Y-115811120D01*
X135353381Y-115672278D01*
X135195333Y-115564869D01*
X135042610Y-115503784D01*
X135022884Y-115495894D01*
X135022882Y-115495893D01*
X135017908Y-115493904D01*
X135012626Y-115493030D01*
X135012624Y-115493029D01*
X134949131Y-115482518D01*
X134829383Y-115462693D01*
X134749530Y-115466878D01*
X134643908Y-115472413D01*
X134643905Y-115472414D01*
X134638553Y-115472694D01*
X134454323Y-115523440D01*
X134285288Y-115612562D01*
X134139333Y-115735903D01*
X134136077Y-115740162D01*
X134026527Y-115883447D01*
X134026525Y-115883450D01*
X134023269Y-115887709D01*
X133942511Y-116060896D01*
X133900825Y-116247385D01*
X133900498Y-116253234D01*
X133900498Y-117693737D01*
X133900787Y-117696396D01*
X133915371Y-117830648D01*
X133915372Y-117830653D01*
X133915950Y-117835973D01*
X133976900Y-118017083D01*
X134075319Y-118180880D01*
X134079001Y-118184773D01*
X134079005Y-118184779D01*
X134124585Y-118232979D01*
X134150830Y-118288250D01*
X134139574Y-118348391D01*
X134095118Y-118390430D01*
X134052654Y-118400000D01*
X119399000Y-118400000D01*
X119340809Y-118381093D01*
X119304845Y-118331593D01*
X119300000Y-118301000D01*
X119300000Y-113718736D01*
X133900498Y-113718736D01*
X133900787Y-113721395D01*
X133915371Y-113855647D01*
X133915372Y-113855652D01*
X133915950Y-113860972D01*
X133976900Y-114042082D01*
X134029300Y-114129290D01*
X134063283Y-114185847D01*
X134075319Y-114205879D01*
X134079000Y-114209771D01*
X134079001Y-114209773D01*
X134142420Y-114276837D01*
X134206615Y-114344721D01*
X134364663Y-114452130D01*
X134447919Y-114485430D01*
X134537112Y-114521105D01*
X134537114Y-114521106D01*
X134542088Y-114523095D01*
X134547370Y-114523969D01*
X134547372Y-114523970D01*
X134610865Y-114534481D01*
X134730613Y-114554306D01*
X134810466Y-114550121D01*
X134916088Y-114544586D01*
X134916091Y-114544585D01*
X134921443Y-114544305D01*
X135105673Y-114493559D01*
X135111117Y-114490689D01*
X135138112Y-114476456D01*
X135274708Y-114404437D01*
X135420663Y-114281096D01*
X135481682Y-114201286D01*
X135533469Y-114133552D01*
X135533471Y-114133549D01*
X135536727Y-114129290D01*
X135538991Y-114124434D01*
X135538998Y-114124423D01*
X135558764Y-114082034D01*
X135600492Y-114037286D01*
X135660553Y-114025611D01*
X135716258Y-114051705D01*
X135724872Y-114059794D01*
X135724877Y-114059798D01*
X135729418Y-114064062D01*
X135734881Y-114067065D01*
X135734882Y-114067066D01*
X135862450Y-114137197D01*
X135862454Y-114137198D01*
X135867908Y-114140197D01*
X135873934Y-114141744D01*
X135873936Y-114141745D01*
X136014946Y-114177951D01*
X136014950Y-114177952D01*
X136020981Y-114179500D01*
X136139350Y-114179500D01*
X136256792Y-114164664D01*
X136403732Y-114106486D01*
X136531587Y-114013594D01*
X136535553Y-114008800D01*
X136535556Y-114008797D01*
X136628354Y-113896622D01*
X136632324Y-113891823D01*
X136634974Y-113886191D01*
X136634978Y-113886185D01*
X136648524Y-113857399D01*
X136690409Y-113812798D01*
X136750511Y-113801334D01*
X136805872Y-113827386D01*
X136831070Y-113865528D01*
X136838582Y-113886057D01*
X136923022Y-114011716D01*
X136927434Y-114015731D01*
X136927437Y-114015734D01*
X137000300Y-114082034D01*
X137034998Y-114113607D01*
X137083972Y-114140198D01*
X137162801Y-114182999D01*
X137162803Y-114183000D01*
X137168047Y-114185847D01*
X137226898Y-114201286D01*
X137308717Y-114222751D01*
X137308721Y-114222751D01*
X137314486Y-114224264D01*
X137320447Y-114224358D01*
X137320450Y-114224358D01*
X137390175Y-114225453D01*
X137465863Y-114226642D01*
X137471679Y-114225310D01*
X137607614Y-114194177D01*
X137607617Y-114194176D01*
X137613437Y-114192843D01*
X137640741Y-114179111D01*
X137743354Y-114127502D01*
X137748689Y-114124819D01*
X137748693Y-114124827D01*
X137805361Y-114109004D01*
X137848456Y-114120914D01*
X137855648Y-114124819D01*
X137962801Y-114182999D01*
X137962803Y-114183000D01*
X137968047Y-114185847D01*
X138026898Y-114201286D01*
X138108717Y-114222751D01*
X138108721Y-114222751D01*
X138114486Y-114224264D01*
X138120447Y-114224358D01*
X138120450Y-114224358D01*
X138190175Y-114225453D01*
X138265863Y-114226642D01*
X138271679Y-114225310D01*
X138407614Y-114194177D01*
X138407617Y-114194176D01*
X138413437Y-114192843D01*
X138440741Y-114179111D01*
X138543354Y-114127502D01*
X138548689Y-114124819D01*
X138548693Y-114124827D01*
X138605361Y-114109004D01*
X138648456Y-114120914D01*
X138655648Y-114124819D01*
X138762801Y-114182999D01*
X138762803Y-114183000D01*
X138768047Y-114185847D01*
X138826898Y-114201286D01*
X138908717Y-114222751D01*
X138908721Y-114222751D01*
X138914486Y-114224264D01*
X138920447Y-114224358D01*
X138920450Y-114224358D01*
X138990175Y-114225453D01*
X139065863Y-114226642D01*
X139071679Y-114225310D01*
X139207614Y-114194177D01*
X139207617Y-114194176D01*
X139213437Y-114192843D01*
X139224337Y-114187361D01*
X139343355Y-114127502D01*
X139343357Y-114127501D01*
X139348689Y-114124819D01*
X139463810Y-114026495D01*
X139552156Y-113903550D01*
X139608624Y-113763080D01*
X139629956Y-113613196D01*
X139630094Y-113600000D01*
X139619737Y-113514413D01*
X141370772Y-113514413D01*
X141380695Y-113672139D01*
X141404006Y-113743883D01*
X141422674Y-113801334D01*
X141429532Y-113822442D01*
X141432870Y-113827702D01*
X141432871Y-113827704D01*
X141484082Y-113908399D01*
X141514213Y-113955878D01*
X141629417Y-114064063D01*
X141634880Y-114067066D01*
X141634881Y-114067067D01*
X141762449Y-114137198D01*
X141762453Y-114137199D01*
X141767907Y-114140198D01*
X141773933Y-114141745D01*
X141773935Y-114141746D01*
X141914945Y-114177952D01*
X141914949Y-114177953D01*
X141920980Y-114179501D01*
X142239349Y-114179501D01*
X142356791Y-114164665D01*
X142503731Y-114106487D01*
X142521765Y-114093385D01*
X142579954Y-114074477D01*
X142638145Y-114093383D01*
X142664816Y-114122489D01*
X142707891Y-114194177D01*
X142714922Y-114205879D01*
X142718603Y-114209771D01*
X142718604Y-114209773D01*
X142782023Y-114276837D01*
X142846218Y-114344721D01*
X143004266Y-114452130D01*
X143087522Y-114485430D01*
X143176715Y-114521105D01*
X143176717Y-114521106D01*
X143181691Y-114523095D01*
X143186973Y-114523969D01*
X143186975Y-114523970D01*
X143250468Y-114534481D01*
X143370216Y-114554306D01*
X143450069Y-114550121D01*
X143555691Y-114544586D01*
X143555694Y-114544585D01*
X143561046Y-114544305D01*
X143745276Y-114493559D01*
X143750720Y-114490689D01*
X143777715Y-114476456D01*
X143914311Y-114404437D01*
X144060266Y-114281096D01*
X144121285Y-114201286D01*
X144173072Y-114133552D01*
X144173074Y-114133549D01*
X144176330Y-114129290D01*
X144257088Y-113956103D01*
X144261181Y-113937795D01*
X144297890Y-113773570D01*
X144297890Y-113773567D01*
X144298774Y-113769614D01*
X144299101Y-113763765D01*
X144299101Y-112623262D01*
X144294059Y-112576847D01*
X144284228Y-112486351D01*
X144284227Y-112486346D01*
X144283649Y-112481026D01*
X144222699Y-112299916D01*
X144148316Y-112176121D01*
X144127040Y-112140712D01*
X144127039Y-112140710D01*
X144124280Y-112136119D01*
X144109832Y-112120840D01*
X144083885Y-112093402D01*
X150069941Y-112093402D01*
X150070596Y-112099335D01*
X150070596Y-112099339D01*
X150072970Y-112120840D01*
X150086554Y-112243883D01*
X150088606Y-112249490D01*
X150136530Y-112380451D01*
X150136532Y-112380455D01*
X150138582Y-112386057D01*
X150223022Y-112511716D01*
X150227434Y-112515731D01*
X150227437Y-112515734D01*
X150330582Y-112609589D01*
X150334998Y-112613607D01*
X150391199Y-112644122D01*
X150462801Y-112682999D01*
X150462803Y-112683000D01*
X150468047Y-112685847D01*
X150544798Y-112705982D01*
X150608717Y-112722751D01*
X150608721Y-112722751D01*
X150614486Y-112724264D01*
X150620447Y-112724358D01*
X150620450Y-112724358D01*
X150690175Y-112725453D01*
X150765863Y-112726642D01*
X150771679Y-112725310D01*
X150907614Y-112694177D01*
X150907617Y-112694176D01*
X150913437Y-112692843D01*
X150924337Y-112687361D01*
X151043355Y-112627502D01*
X151043357Y-112627501D01*
X151048689Y-112624819D01*
X151078661Y-112599220D01*
X151135189Y-112575805D01*
X151142957Y-112575500D01*
X151162034Y-112575500D01*
X151220225Y-112594407D01*
X151232038Y-112604496D01*
X151273879Y-112646337D01*
X151301656Y-112700854D01*
X151302094Y-112728749D01*
X151294514Y-112788753D01*
X151302275Y-112867906D01*
X151311499Y-112961984D01*
X151311500Y-112961989D01*
X151312039Y-112967486D01*
X151368726Y-113137896D01*
X151371591Y-113142627D01*
X151371593Y-113142631D01*
X151458154Y-113285559D01*
X151461759Y-113291512D01*
X151465607Y-113295497D01*
X151465608Y-113295498D01*
X151479216Y-113309589D01*
X151586514Y-113420699D01*
X151591139Y-113423725D01*
X151591142Y-113423728D01*
X151720378Y-113508297D01*
X151736789Y-113519036D01*
X151905116Y-113581636D01*
X151910602Y-113582368D01*
X151910606Y-113582369D01*
X152066971Y-113603232D01*
X152083130Y-113605388D01*
X152088636Y-113604887D01*
X152088638Y-113604887D01*
X152177643Y-113596787D01*
X152261981Y-113589112D01*
X152284990Y-113581636D01*
X152427517Y-113535326D01*
X152427519Y-113535325D01*
X152432782Y-113533615D01*
X152437538Y-113530780D01*
X152437540Y-113530779D01*
X152582293Y-113444489D01*
X152587044Y-113441657D01*
X152717099Y-113317807D01*
X152726831Y-113303160D01*
X152775193Y-113230369D01*
X152816483Y-113168222D01*
X152880257Y-113000336D01*
X152905251Y-112822493D01*
X152905295Y-112819375D01*
X152905522Y-112803116D01*
X152905522Y-112803108D01*
X152905565Y-112800000D01*
X152904921Y-112794256D01*
X152886163Y-112627025D01*
X152886162Y-112627021D01*
X152885546Y-112621528D01*
X152826485Y-112451927D01*
X152731316Y-112299625D01*
X152649830Y-112217568D01*
X152608671Y-112176121D01*
X152608669Y-112176120D01*
X152604770Y-112172193D01*
X152599855Y-112169074D01*
X152457810Y-112078929D01*
X152457809Y-112078928D01*
X152453136Y-112075963D01*
X152422801Y-112065161D01*
X152289160Y-112017574D01*
X152289161Y-112017574D01*
X152283951Y-112015719D01*
X152278464Y-112015065D01*
X152278461Y-112015064D01*
X152111120Y-111995110D01*
X152111117Y-111995110D01*
X152105624Y-111994455D01*
X152078774Y-111997277D01*
X152027066Y-112002711D01*
X151967218Y-111989989D01*
X151946716Y-111974257D01*
X151781739Y-111809281D01*
X151774254Y-111799913D01*
X151774169Y-111799985D01*
X151769599Y-111794615D01*
X151765835Y-111788650D01*
X151727676Y-111754949D01*
X151723208Y-111750750D01*
X151712085Y-111739627D01*
X151709269Y-111737517D01*
X151709265Y-111737513D01*
X151703658Y-111733311D01*
X151697500Y-111728297D01*
X151669031Y-111703154D01*
X151669025Y-111703150D01*
X151663745Y-111698487D01*
X151657367Y-111695493D01*
X151657363Y-111695490D01*
X151655386Y-111694562D01*
X151638085Y-111684166D01*
X151636343Y-111682860D01*
X151636337Y-111682857D01*
X151630695Y-111678628D01*
X151624093Y-111676153D01*
X151624091Y-111676152D01*
X151588524Y-111662819D01*
X151581216Y-111659740D01*
X151540452Y-111640601D01*
X151531327Y-111639180D01*
X151511810Y-111634060D01*
X151503157Y-111630816D01*
X151458244Y-111627479D01*
X151450367Y-111626575D01*
X151437044Y-111624500D01*
X151421832Y-111624500D01*
X151414496Y-111624228D01*
X151367326Y-111620723D01*
X151360432Y-111622195D01*
X151360427Y-111622195D01*
X151359848Y-111622319D01*
X151339182Y-111624500D01*
X151144337Y-111624500D01*
X151086146Y-111605593D01*
X151078479Y-111599417D01*
X151059603Y-111582599D01*
X150925805Y-111511757D01*
X150920017Y-111510303D01*
X150920014Y-111510302D01*
X150784760Y-111476328D01*
X150784761Y-111476328D01*
X150778972Y-111474874D01*
X150703276Y-111474478D01*
X150633545Y-111474113D01*
X150633543Y-111474113D01*
X150627579Y-111474082D01*
X150480367Y-111509424D01*
X150470434Y-111514551D01*
X150351141Y-111576122D01*
X150351139Y-111576124D01*
X150345835Y-111578861D01*
X150231749Y-111678385D01*
X150228318Y-111683267D01*
X150228317Y-111683268D01*
X150148127Y-111797367D01*
X150144696Y-111802249D01*
X150142529Y-111807807D01*
X150142528Y-111807809D01*
X150091940Y-111937561D01*
X150089702Y-111943302D01*
X150069941Y-112093402D01*
X144083885Y-112093402D01*
X144012178Y-112017574D01*
X143992984Y-111997277D01*
X143834936Y-111889868D01*
X143722955Y-111845079D01*
X143662487Y-111820893D01*
X143662485Y-111820892D01*
X143657511Y-111818903D01*
X143652229Y-111818029D01*
X143652227Y-111818028D01*
X143552143Y-111801459D01*
X143468986Y-111787692D01*
X143389133Y-111791877D01*
X143283511Y-111797412D01*
X143283508Y-111797413D01*
X143278156Y-111797693D01*
X143272987Y-111799117D01*
X143272986Y-111799117D01*
X143204331Y-111818028D01*
X143093926Y-111848439D01*
X142924891Y-111937561D01*
X142778936Y-112060902D01*
X142758615Y-112087481D01*
X142666130Y-112208446D01*
X142666128Y-112208449D01*
X142662872Y-112212708D01*
X142582114Y-112385895D01*
X142580946Y-112391120D01*
X142580945Y-112391123D01*
X142553091Y-112515734D01*
X142540428Y-112572384D01*
X142540101Y-112578233D01*
X142540101Y-112867906D01*
X142521194Y-112926097D01*
X142471694Y-112962061D01*
X142416481Y-112963796D01*
X142372125Y-112952407D01*
X142285053Y-112930050D01*
X142285049Y-112930049D01*
X142279018Y-112928501D01*
X141960649Y-112928501D01*
X141843207Y-112943337D01*
X141696267Y-113001515D01*
X141568412Y-113094407D01*
X141564446Y-113099201D01*
X141564443Y-113099204D01*
X141502185Y-113174462D01*
X141467675Y-113216178D01*
X141400385Y-113359175D01*
X141399219Y-113365289D01*
X141399218Y-113365291D01*
X141393708Y-113394177D01*
X141370772Y-113514413D01*
X139619737Y-113514413D01*
X139611906Y-113449701D01*
X139608867Y-113441657D01*
X139560502Y-113313664D01*
X139558392Y-113308080D01*
X139472640Y-113183311D01*
X139421667Y-113137896D01*
X139364057Y-113086567D01*
X139364055Y-113086566D01*
X139359603Y-113082599D01*
X139348128Y-113076523D01*
X139294640Y-113048203D01*
X139225805Y-113011757D01*
X139220017Y-113010303D01*
X139220014Y-113010302D01*
X139084760Y-112976328D01*
X139084761Y-112976328D01*
X139078972Y-112974874D01*
X139003276Y-112974478D01*
X138933545Y-112974113D01*
X138933543Y-112974113D01*
X138927579Y-112974082D01*
X138921776Y-112975475D01*
X138921777Y-112975475D01*
X138798070Y-113005174D01*
X138780367Y-113009424D01*
X138645835Y-113078861D01*
X138644628Y-113076523D01*
X138596198Y-113090572D01*
X138553023Y-113079115D01*
X138494640Y-113048203D01*
X138425805Y-113011757D01*
X138420017Y-113010303D01*
X138420014Y-113010302D01*
X138284760Y-112976328D01*
X138284761Y-112976328D01*
X138278972Y-112974874D01*
X138203276Y-112974478D01*
X138133545Y-112974113D01*
X138133543Y-112974113D01*
X138127579Y-112974082D01*
X138121776Y-112975475D01*
X138121777Y-112975475D01*
X137998070Y-113005174D01*
X137980367Y-113009424D01*
X137845835Y-113078861D01*
X137844628Y-113076523D01*
X137796198Y-113090572D01*
X137753023Y-113079115D01*
X137694640Y-113048203D01*
X137625805Y-113011757D01*
X137620017Y-113010303D01*
X137620014Y-113010302D01*
X137484760Y-112976328D01*
X137484761Y-112976328D01*
X137478972Y-112974874D01*
X137403276Y-112974478D01*
X137333545Y-112974113D01*
X137333543Y-112974113D01*
X137327579Y-112974082D01*
X137321776Y-112975475D01*
X137321777Y-112975475D01*
X137198070Y-113005174D01*
X137180367Y-113009424D01*
X137119317Y-113040934D01*
X137051141Y-113076122D01*
X137051139Y-113076124D01*
X137045835Y-113078861D01*
X136931749Y-113178385D01*
X136928318Y-113183267D01*
X136928317Y-113183268D01*
X136905188Y-113216178D01*
X136844696Y-113302249D01*
X136843249Y-113301232D01*
X136804871Y-113338042D01*
X136744253Y-113346352D01*
X136690327Y-113317445D01*
X136672311Y-113291235D01*
X136670467Y-113285559D01*
X136667131Y-113280302D01*
X136667129Y-113280298D01*
X136589123Y-113157381D01*
X136589122Y-113157380D01*
X136585786Y-113152123D01*
X136470582Y-113043938D01*
X136417127Y-113014551D01*
X136337550Y-112970803D01*
X136337546Y-112970802D01*
X136332092Y-112967803D01*
X136326066Y-112966256D01*
X136326064Y-112966255D01*
X136185054Y-112930049D01*
X136185050Y-112930048D01*
X136179019Y-112928500D01*
X136060650Y-112928500D01*
X135943208Y-112943336D01*
X135796268Y-113001514D01*
X135795286Y-112999033D01*
X135746066Y-113008410D01*
X135690710Y-112982345D01*
X135661247Y-112928721D01*
X135659498Y-112910194D01*
X135659498Y-112623262D01*
X135654456Y-112576847D01*
X135644625Y-112486351D01*
X135644624Y-112486346D01*
X135644046Y-112481026D01*
X135583096Y-112299916D01*
X135508713Y-112176121D01*
X135487437Y-112140712D01*
X135487436Y-112140710D01*
X135484677Y-112136119D01*
X135470229Y-112120840D01*
X135372575Y-112017574D01*
X135353381Y-111997277D01*
X135195333Y-111889868D01*
X135083352Y-111845079D01*
X135022884Y-111820893D01*
X135022882Y-111820892D01*
X135017908Y-111818903D01*
X135012626Y-111818029D01*
X135012624Y-111818028D01*
X134912540Y-111801459D01*
X134829383Y-111787692D01*
X134749530Y-111791877D01*
X134643908Y-111797412D01*
X134643905Y-111797413D01*
X134638553Y-111797693D01*
X134633384Y-111799117D01*
X134633383Y-111799117D01*
X134564728Y-111818028D01*
X134454323Y-111848439D01*
X134285288Y-111937561D01*
X134139333Y-112060902D01*
X134119012Y-112087481D01*
X134026527Y-112208446D01*
X134026525Y-112208449D01*
X134023269Y-112212708D01*
X133942511Y-112385895D01*
X133941343Y-112391120D01*
X133941342Y-112391123D01*
X133913488Y-112515734D01*
X133900825Y-112572384D01*
X133900498Y-112578233D01*
X133900498Y-113718736D01*
X119300000Y-113718736D01*
X119300000Y-112788753D01*
X126594514Y-112788753D01*
X126602275Y-112867906D01*
X126611499Y-112961984D01*
X126611500Y-112961989D01*
X126612039Y-112967486D01*
X126668726Y-113137896D01*
X126671591Y-113142627D01*
X126671593Y-113142631D01*
X126758154Y-113285559D01*
X126761759Y-113291512D01*
X126765607Y-113295497D01*
X126765608Y-113295498D01*
X126779216Y-113309589D01*
X126886514Y-113420699D01*
X126891139Y-113423725D01*
X126891142Y-113423728D01*
X127020378Y-113508297D01*
X127036789Y-113519036D01*
X127205116Y-113581636D01*
X127210602Y-113582368D01*
X127210606Y-113582369D01*
X127366971Y-113603232D01*
X127383130Y-113605388D01*
X127388636Y-113604887D01*
X127388638Y-113604887D01*
X127477643Y-113596787D01*
X127561981Y-113589112D01*
X127584990Y-113581636D01*
X127727517Y-113535326D01*
X127727519Y-113535325D01*
X127732782Y-113533615D01*
X127737538Y-113530780D01*
X127737540Y-113530779D01*
X127882293Y-113444489D01*
X127887044Y-113441657D01*
X128017099Y-113317807D01*
X128026831Y-113303160D01*
X128065662Y-113244714D01*
X128113612Y-113206709D01*
X128148121Y-113200500D01*
X130072396Y-113200500D01*
X130130587Y-113219407D01*
X130139024Y-113226277D01*
X130215097Y-113295498D01*
X130234998Y-113313607D01*
X130286925Y-113341801D01*
X130362801Y-113382999D01*
X130362803Y-113383000D01*
X130368047Y-113385847D01*
X130444798Y-113405982D01*
X130508717Y-113422751D01*
X130508721Y-113422751D01*
X130514486Y-113424264D01*
X130520447Y-113424358D01*
X130520450Y-113424358D01*
X130590175Y-113425453D01*
X130665863Y-113426642D01*
X130671679Y-113425310D01*
X130807614Y-113394177D01*
X130807617Y-113394176D01*
X130813437Y-113392843D01*
X130824337Y-113387361D01*
X130943355Y-113327502D01*
X130943357Y-113327501D01*
X130948689Y-113324819D01*
X131063810Y-113226495D01*
X131117252Y-113152123D01*
X131148672Y-113108399D01*
X131148673Y-113108397D01*
X131152156Y-113103550D01*
X131208624Y-112963080D01*
X131229956Y-112813196D01*
X131230094Y-112800000D01*
X131221217Y-112726642D01*
X131212623Y-112655623D01*
X131212622Y-112655620D01*
X131211906Y-112649701D01*
X131203338Y-112627025D01*
X131160502Y-112513664D01*
X131158392Y-112508080D01*
X131072640Y-112383311D01*
X130983977Y-112304315D01*
X130964057Y-112286567D01*
X130964055Y-112286566D01*
X130959603Y-112282599D01*
X130825805Y-112211757D01*
X130820017Y-112210303D01*
X130820014Y-112210302D01*
X130684760Y-112176328D01*
X130684761Y-112176328D01*
X130678972Y-112174874D01*
X130603275Y-112174478D01*
X130533545Y-112174113D01*
X130533543Y-112174113D01*
X130527579Y-112174082D01*
X130380367Y-112209424D01*
X130325099Y-112237950D01*
X130251141Y-112276122D01*
X130251139Y-112276124D01*
X130245835Y-112278861D01*
X130226962Y-112295325D01*
X130135511Y-112375103D01*
X130079232Y-112399108D01*
X130070431Y-112399500D01*
X128148602Y-112399500D01*
X128090411Y-112380593D01*
X128064645Y-112352962D01*
X128034247Y-112304315D01*
X128034245Y-112304313D01*
X128031316Y-112299625D01*
X127949830Y-112217568D01*
X127908671Y-112176121D01*
X127908669Y-112176120D01*
X127904770Y-112172193D01*
X127899855Y-112169074D01*
X127757810Y-112078929D01*
X127757809Y-112078928D01*
X127753136Y-112075963D01*
X127722801Y-112065161D01*
X127589160Y-112017574D01*
X127589161Y-112017574D01*
X127583951Y-112015719D01*
X127578464Y-112015065D01*
X127578461Y-112015064D01*
X127411120Y-111995110D01*
X127411117Y-111995110D01*
X127405624Y-111994455D01*
X127227017Y-112013227D01*
X127221777Y-112015011D01*
X127221776Y-112015011D01*
X127062249Y-112069318D01*
X127062245Y-112069320D01*
X127057007Y-112071103D01*
X127052297Y-112074001D01*
X127052292Y-112074003D01*
X126951325Y-112136119D01*
X126904045Y-112165206D01*
X126900096Y-112169074D01*
X126900095Y-112169074D01*
X126829761Y-112237950D01*
X126775732Y-112290859D01*
X126678446Y-112441817D01*
X126617022Y-112610578D01*
X126594514Y-112788753D01*
X119300000Y-112788753D01*
X119300000Y-110688753D01*
X126594514Y-110688753D01*
X126595054Y-110694256D01*
X126611499Y-110861984D01*
X126611500Y-110861989D01*
X126612039Y-110867486D01*
X126668726Y-111037896D01*
X126671591Y-111042627D01*
X126671593Y-111042631D01*
X126733417Y-111144714D01*
X126761759Y-111191512D01*
X126886514Y-111320699D01*
X126891139Y-111323725D01*
X126891142Y-111323728D01*
X127032163Y-111416009D01*
X127036789Y-111419036D01*
X127205116Y-111481636D01*
X127210602Y-111482368D01*
X127210606Y-111482369D01*
X127372408Y-111503957D01*
X127383130Y-111505388D01*
X127388636Y-111504887D01*
X127388638Y-111504887D01*
X127472556Y-111497250D01*
X127561981Y-111489112D01*
X127584990Y-111481636D01*
X127727517Y-111435326D01*
X127727519Y-111435325D01*
X127732782Y-111433615D01*
X127737538Y-111430780D01*
X127737540Y-111430779D01*
X127882293Y-111344489D01*
X127887044Y-111341657D01*
X128017099Y-111217807D01*
X128065662Y-111144714D01*
X128113612Y-111106709D01*
X128148121Y-111100500D01*
X129322396Y-111100500D01*
X129380587Y-111119407D01*
X129389024Y-111126277D01*
X129465097Y-111195498D01*
X129484998Y-111213607D01*
X129543137Y-111245174D01*
X129612801Y-111282999D01*
X129612803Y-111283000D01*
X129618047Y-111285847D01*
X129694798Y-111305982D01*
X129758717Y-111322751D01*
X129758721Y-111322751D01*
X129764486Y-111324264D01*
X129770447Y-111324358D01*
X129770450Y-111324358D01*
X129840174Y-111325453D01*
X129915863Y-111326642D01*
X129921679Y-111325310D01*
X130057614Y-111294177D01*
X130057617Y-111294176D01*
X130063437Y-111292843D01*
X130074337Y-111287361D01*
X130193355Y-111227502D01*
X130193357Y-111227501D01*
X130198689Y-111224819D01*
X130313810Y-111126495D01*
X130402156Y-111003550D01*
X130458624Y-110863080D01*
X130479956Y-110713196D01*
X130480094Y-110700000D01*
X130461906Y-110549701D01*
X130408392Y-110408080D01*
X130322640Y-110283311D01*
X130228713Y-110199625D01*
X130214057Y-110186567D01*
X130214055Y-110186566D01*
X130209603Y-110182599D01*
X130075805Y-110111757D01*
X130070017Y-110110303D01*
X130070014Y-110110302D01*
X129934760Y-110076328D01*
X129934761Y-110076328D01*
X129928972Y-110074874D01*
X129853275Y-110074478D01*
X129783545Y-110074113D01*
X129783543Y-110074113D01*
X129777579Y-110074082D01*
X129630367Y-110109424D01*
X129620434Y-110114551D01*
X129501141Y-110176122D01*
X129501139Y-110176124D01*
X129495835Y-110178861D01*
X129476749Y-110195511D01*
X129385511Y-110275103D01*
X129329232Y-110299108D01*
X129320431Y-110299500D01*
X128148602Y-110299500D01*
X128090411Y-110280593D01*
X128064645Y-110252962D01*
X128034247Y-110204315D01*
X128034245Y-110204313D01*
X128031316Y-110199625D01*
X127970109Y-110137990D01*
X127908671Y-110076121D01*
X127908669Y-110076120D01*
X127904770Y-110072193D01*
X127899855Y-110069074D01*
X127757810Y-109978929D01*
X127757809Y-109978928D01*
X127753136Y-109975963D01*
X127583951Y-109915719D01*
X127578464Y-109915065D01*
X127578461Y-109915064D01*
X127411120Y-109895110D01*
X127411117Y-109895110D01*
X127405624Y-109894455D01*
X127227017Y-109913227D01*
X127221777Y-109915011D01*
X127221776Y-109915011D01*
X127062249Y-109969318D01*
X127062245Y-109969320D01*
X127057007Y-109971103D01*
X127052297Y-109974001D01*
X127052292Y-109974003D01*
X126908907Y-110062215D01*
X126904045Y-110065206D01*
X126900096Y-110069074D01*
X126900095Y-110069074D01*
X126856095Y-110112162D01*
X126775732Y-110190859D01*
X126678446Y-110341817D01*
X126617022Y-110510578D01*
X126594514Y-110688753D01*
X119300000Y-110688753D01*
X119300000Y-108588753D01*
X126594514Y-108588753D01*
X126595054Y-108594256D01*
X126611499Y-108761984D01*
X126611500Y-108761989D01*
X126612039Y-108767486D01*
X126668726Y-108937896D01*
X126671591Y-108942627D01*
X126671593Y-108942631D01*
X126733417Y-109044714D01*
X126761759Y-109091512D01*
X126886514Y-109220699D01*
X126891139Y-109223725D01*
X126891142Y-109223728D01*
X127032163Y-109316009D01*
X127036789Y-109319036D01*
X127205116Y-109381636D01*
X127210602Y-109382368D01*
X127210606Y-109382369D01*
X127372408Y-109403957D01*
X127383130Y-109405388D01*
X127388636Y-109404887D01*
X127388638Y-109404887D01*
X127472555Y-109397250D01*
X127561981Y-109389112D01*
X127584990Y-109381636D01*
X127727517Y-109335326D01*
X127727519Y-109335325D01*
X127732782Y-109333615D01*
X127737538Y-109330780D01*
X127737540Y-109330779D01*
X127882293Y-109244489D01*
X127887044Y-109241657D01*
X128017099Y-109117807D01*
X128065662Y-109044714D01*
X128113612Y-109006709D01*
X128148121Y-109000500D01*
X128572396Y-109000500D01*
X128630587Y-109019407D01*
X128639024Y-109026277D01*
X128715097Y-109095498D01*
X128734998Y-109113607D01*
X128793137Y-109145174D01*
X128862801Y-109182999D01*
X128862803Y-109183000D01*
X128868047Y-109185847D01*
X128944798Y-109205982D01*
X129008717Y-109222751D01*
X129008721Y-109222751D01*
X129014486Y-109224264D01*
X129020447Y-109224358D01*
X129020450Y-109224358D01*
X129090175Y-109225453D01*
X129165863Y-109226642D01*
X129171679Y-109225310D01*
X129307614Y-109194177D01*
X129307617Y-109194176D01*
X129313437Y-109192843D01*
X129324337Y-109187361D01*
X129443355Y-109127502D01*
X129443357Y-109127501D01*
X129448689Y-109124819D01*
X129563810Y-109026495D01*
X129652156Y-108903550D01*
X129708624Y-108763080D01*
X129724297Y-108652958D01*
X129729500Y-108616401D01*
X129729500Y-108616399D01*
X129729956Y-108613196D01*
X129730094Y-108600000D01*
X129721217Y-108526642D01*
X129712623Y-108455623D01*
X129712622Y-108455620D01*
X129711906Y-108449701D01*
X129658392Y-108308080D01*
X129572640Y-108183311D01*
X129478713Y-108099625D01*
X129464057Y-108086567D01*
X129464055Y-108086566D01*
X129459603Y-108082599D01*
X129325805Y-108011757D01*
X129320017Y-108010303D01*
X129320014Y-108010302D01*
X129216892Y-107984399D01*
X129178972Y-107974874D01*
X129103275Y-107974478D01*
X129033545Y-107974113D01*
X129033543Y-107974113D01*
X129027579Y-107974082D01*
X128880367Y-108009424D01*
X128870434Y-108014551D01*
X128751141Y-108076122D01*
X128751139Y-108076124D01*
X128745835Y-108078861D01*
X128726749Y-108095511D01*
X128635511Y-108175103D01*
X128579232Y-108199108D01*
X128570431Y-108199500D01*
X128148602Y-108199500D01*
X128090411Y-108180593D01*
X128064645Y-108152962D01*
X128034247Y-108104315D01*
X128034245Y-108104313D01*
X128031316Y-108099625D01*
X127970070Y-108037950D01*
X127908671Y-107976121D01*
X127908669Y-107976120D01*
X127904770Y-107972193D01*
X127899855Y-107969074D01*
X127757810Y-107878929D01*
X127757809Y-107878928D01*
X127753136Y-107875963D01*
X127583951Y-107815719D01*
X127578464Y-107815065D01*
X127578461Y-107815064D01*
X127411120Y-107795110D01*
X127411117Y-107795110D01*
X127405624Y-107794455D01*
X127227017Y-107813227D01*
X127221777Y-107815011D01*
X127221776Y-107815011D01*
X127062249Y-107869318D01*
X127062245Y-107869320D01*
X127057007Y-107871103D01*
X127052297Y-107874001D01*
X127052292Y-107874003D01*
X126933045Y-107947365D01*
X126904045Y-107965206D01*
X126900096Y-107969074D01*
X126900095Y-107969074D01*
X126856095Y-108012162D01*
X126775732Y-108090859D01*
X126678446Y-108241817D01*
X126617022Y-108410578D01*
X126594514Y-108588753D01*
X119300000Y-108588753D01*
X119300000Y-106074500D01*
X119318907Y-106016309D01*
X119368407Y-105980345D01*
X119399000Y-105975500D01*
X126604051Y-105975500D01*
X126662242Y-105994407D01*
X126698206Y-106043907D01*
X126698206Y-106105093D01*
X126687268Y-106128128D01*
X126678446Y-106141817D01*
X126617022Y-106310578D01*
X126594514Y-106488753D01*
X126595054Y-106494256D01*
X126611499Y-106661984D01*
X126611500Y-106661989D01*
X126612039Y-106667486D01*
X126668726Y-106837896D01*
X126671591Y-106842627D01*
X126671593Y-106842631D01*
X126733417Y-106944714D01*
X126761759Y-106991512D01*
X126886514Y-107120699D01*
X126891139Y-107123725D01*
X126891142Y-107123728D01*
X126970320Y-107175540D01*
X127036789Y-107219036D01*
X127205116Y-107281636D01*
X127210602Y-107282368D01*
X127210606Y-107282369D01*
X127372408Y-107303957D01*
X127383130Y-107305388D01*
X127388636Y-107304887D01*
X127388638Y-107304887D01*
X127472556Y-107297250D01*
X127561981Y-107289112D01*
X127584990Y-107281636D01*
X127727517Y-107235326D01*
X127727519Y-107235325D01*
X127732782Y-107233615D01*
X127737538Y-107230780D01*
X127737540Y-107230779D01*
X127882293Y-107144489D01*
X127887044Y-107141657D01*
X128017099Y-107017807D01*
X128065662Y-106944714D01*
X128113612Y-106906709D01*
X128148121Y-106900500D01*
X130822396Y-106900500D01*
X130880587Y-106919407D01*
X130889024Y-106926277D01*
X130965097Y-106995498D01*
X130984998Y-107013607D01*
X131043137Y-107045174D01*
X131112801Y-107082999D01*
X131112803Y-107083000D01*
X131118047Y-107085847D01*
X131194798Y-107105982D01*
X131258717Y-107122751D01*
X131258721Y-107122751D01*
X131264486Y-107124264D01*
X131270447Y-107124358D01*
X131270450Y-107124358D01*
X131340174Y-107125453D01*
X131415863Y-107126642D01*
X131421679Y-107125310D01*
X131557614Y-107094177D01*
X131557617Y-107094176D01*
X131563437Y-107092843D01*
X131574337Y-107087361D01*
X131693355Y-107027502D01*
X131693357Y-107027501D01*
X131698689Y-107024819D01*
X131813810Y-106926495D01*
X131902156Y-106803550D01*
X131958624Y-106663080D01*
X131979956Y-106513196D01*
X131980094Y-106500000D01*
X131968364Y-106403069D01*
X131962623Y-106355623D01*
X131962622Y-106355620D01*
X131961906Y-106349701D01*
X131908392Y-106208080D01*
X131905008Y-106203156D01*
X131855124Y-106130574D01*
X131837746Y-106071909D01*
X131858170Y-106014233D01*
X131908594Y-105979577D01*
X131936712Y-105975500D01*
X150735643Y-105975500D01*
X150747555Y-105976831D01*
X150747564Y-105976720D01*
X150754594Y-105977286D01*
X150761473Y-105978842D01*
X150812279Y-105975690D01*
X150818408Y-105975500D01*
X150834145Y-105975500D01*
X150844587Y-105974005D01*
X150852477Y-105973196D01*
X150869546Y-105972137D01*
X150890376Y-105970845D01*
X150890377Y-105970845D01*
X150897417Y-105970408D01*
X150904055Y-105968012D01*
X150904059Y-105968011D01*
X150906108Y-105967272D01*
X150925682Y-105962391D01*
X150927849Y-105962081D01*
X150927851Y-105962080D01*
X150934829Y-105961081D01*
X150975833Y-105942438D01*
X150983172Y-105939451D01*
X151025530Y-105924159D01*
X151032987Y-105918711D01*
X151050410Y-105908530D01*
X151052401Y-105907625D01*
X151052404Y-105907623D01*
X151058820Y-105904706D01*
X151092945Y-105875302D01*
X151099139Y-105870384D01*
X151110035Y-105862423D01*
X151120791Y-105851667D01*
X151126171Y-105846672D01*
X151156664Y-105820398D01*
X151156667Y-105820395D01*
X151162004Y-105815796D01*
X151165841Y-105809877D01*
X151166162Y-105809382D01*
X151179233Y-105793225D01*
X151419722Y-105552736D01*
X151467624Y-105526239D01*
X151607614Y-105494177D01*
X151607617Y-105494176D01*
X151613437Y-105492843D01*
X151618772Y-105490160D01*
X151743355Y-105427502D01*
X151743357Y-105427501D01*
X151748689Y-105424819D01*
X151863810Y-105326495D01*
X151952156Y-105203550D01*
X152008624Y-105063080D01*
X152029956Y-104913196D01*
X152030094Y-104900000D01*
X152018067Y-104800612D01*
X152012623Y-104755623D01*
X152012622Y-104755620D01*
X152011906Y-104749701D01*
X151958392Y-104608080D01*
X151872640Y-104483311D01*
X151759603Y-104382599D01*
X151625805Y-104311757D01*
X151620017Y-104310303D01*
X151620014Y-104310302D01*
X151484760Y-104276328D01*
X151484761Y-104276328D01*
X151478972Y-104274874D01*
X151403276Y-104274478D01*
X151333545Y-104274113D01*
X151333543Y-104274113D01*
X151327579Y-104274082D01*
X151180367Y-104309424D01*
X151170434Y-104314551D01*
X151051141Y-104376122D01*
X151051139Y-104376124D01*
X151045835Y-104378861D01*
X150931749Y-104478385D01*
X150928318Y-104483267D01*
X150928317Y-104483268D01*
X150888707Y-104539627D01*
X150844696Y-104602249D01*
X150842529Y-104607807D01*
X150842528Y-104607809D01*
X150791870Y-104737741D01*
X150789702Y-104743302D01*
X150780744Y-104811350D01*
X150779756Y-104818852D01*
X150751607Y-104875935D01*
X150632038Y-104995504D01*
X150577521Y-105023281D01*
X150562034Y-105024500D01*
X142186966Y-105024500D01*
X142128775Y-105005593D01*
X142092811Y-104956093D01*
X142092811Y-104894907D01*
X142116962Y-104855496D01*
X142120791Y-104851667D01*
X142126171Y-104846672D01*
X142156664Y-104820398D01*
X142156667Y-104820395D01*
X142162004Y-104815796D01*
X142165841Y-104809877D01*
X142166162Y-104809382D01*
X142179233Y-104793225D01*
X142690722Y-104281736D01*
X142700087Y-104274254D01*
X142700015Y-104274169D01*
X142705385Y-104269599D01*
X142711350Y-104265835D01*
X142745051Y-104227676D01*
X142749250Y-104223208D01*
X142760373Y-104212085D01*
X142762483Y-104209269D01*
X142762487Y-104209265D01*
X142766689Y-104203658D01*
X142771703Y-104197500D01*
X142796846Y-104169031D01*
X142796850Y-104169025D01*
X142801513Y-104163745D01*
X142804507Y-104157367D01*
X142804510Y-104157363D01*
X142805438Y-104155386D01*
X142815834Y-104138085D01*
X142817140Y-104136343D01*
X142817143Y-104136337D01*
X142821372Y-104130695D01*
X142831194Y-104104496D01*
X142834976Y-104094407D01*
X142837182Y-104088522D01*
X142840260Y-104081216D01*
X142859399Y-104040452D01*
X142860820Y-104031327D01*
X142865940Y-104011810D01*
X142869184Y-104003157D01*
X142872521Y-103958244D01*
X142873425Y-103950367D01*
X142875500Y-103937044D01*
X142875500Y-103921832D01*
X142875772Y-103914496D01*
X142876111Y-103909928D01*
X142879277Y-103867326D01*
X142877805Y-103860432D01*
X142877805Y-103860427D01*
X142877681Y-103859848D01*
X142875500Y-103839182D01*
X142875500Y-102364357D01*
X142876831Y-102352445D01*
X142876720Y-102352436D01*
X142877285Y-102345406D01*
X142878842Y-102338527D01*
X142875690Y-102287716D01*
X142875500Y-102281586D01*
X142875500Y-102265855D01*
X142874007Y-102255425D01*
X142873197Y-102247526D01*
X142870846Y-102209625D01*
X142870846Y-102209624D01*
X142870409Y-102202584D01*
X142868014Y-102195950D01*
X142868013Y-102195946D01*
X142867272Y-102193894D01*
X142862390Y-102174315D01*
X142861081Y-102165171D01*
X142842441Y-102124175D01*
X142839450Y-102116827D01*
X142826553Y-102081103D01*
X142824159Y-102074471D01*
X142818709Y-102067011D01*
X142808528Y-102049587D01*
X142807625Y-102047601D01*
X142804706Y-102041180D01*
X142800100Y-102035834D01*
X142775312Y-102007066D01*
X142770369Y-102000841D01*
X142764677Y-101993049D01*
X142762424Y-101989965D01*
X142751661Y-101979202D01*
X142746666Y-101973822D01*
X142720399Y-101943338D01*
X142715796Y-101937996D01*
X142709383Y-101933839D01*
X142693229Y-101920770D01*
X142048434Y-101275975D01*
X142020155Y-101217865D01*
X142012623Y-101155623D01*
X142012622Y-101155620D01*
X142011906Y-101149701D01*
X141996259Y-101108292D01*
X141968132Y-101033855D01*
X141965250Y-100972737D01*
X141968885Y-100961936D01*
X142006399Y-100868617D01*
X142006401Y-100868611D01*
X142008624Y-100863080D01*
X142009614Y-100856128D01*
X142029500Y-100716401D01*
X142029500Y-100716399D01*
X142029956Y-100713196D01*
X142030094Y-100700000D01*
X142011906Y-100549701D01*
X141958392Y-100408080D01*
X141872640Y-100283311D01*
X141808956Y-100226571D01*
X141764057Y-100186567D01*
X141764055Y-100186566D01*
X141759603Y-100182599D01*
X141625805Y-100111757D01*
X141565385Y-100096580D01*
X141513553Y-100064066D01*
X141490732Y-100007296D01*
X141496149Y-99972805D01*
X141495144Y-99972560D01*
X141496797Y-99965767D01*
X141499385Y-99959280D01*
X141500000Y-99953007D01*
X141500000Y-99952069D01*
X141500732Y-99947700D01*
X141500306Y-99947658D01*
X141501198Y-99938559D01*
X141503740Y-99929782D01*
X141502322Y-99913402D01*
X141500369Y-99890859D01*
X141500000Y-99882317D01*
X141500000Y-95393396D01*
X142569941Y-95393396D01*
X142570596Y-95399329D01*
X142570596Y-95399333D01*
X142582252Y-95504913D01*
X142586554Y-95543877D01*
X142588606Y-95549484D01*
X142636530Y-95680445D01*
X142636532Y-95680449D01*
X142638582Y-95686051D01*
X142723022Y-95811710D01*
X142727434Y-95815725D01*
X142727437Y-95815728D01*
X142788991Y-95871738D01*
X142834998Y-95913601D01*
X142893137Y-95945168D01*
X142962801Y-95982993D01*
X142962803Y-95982994D01*
X142968047Y-95985841D01*
X143038516Y-96004328D01*
X143108717Y-96022745D01*
X143108721Y-96022745D01*
X143114486Y-96024258D01*
X143120447Y-96024352D01*
X143120450Y-96024352D01*
X143190175Y-96025447D01*
X143265863Y-96026636D01*
X143275809Y-96024358D01*
X143407614Y-95994171D01*
X143407617Y-95994170D01*
X143413437Y-95992837D01*
X143424337Y-95987355D01*
X143543355Y-95927496D01*
X143543357Y-95927495D01*
X143548689Y-95924813D01*
X143622411Y-95861848D01*
X143636360Y-95849934D01*
X143692888Y-95826519D01*
X143752383Y-95840802D01*
X143767276Y-95851984D01*
X143834998Y-95913607D01*
X143893137Y-95945174D01*
X143962801Y-95982999D01*
X143962803Y-95983000D01*
X143968047Y-95985847D01*
X144044798Y-96005982D01*
X144108717Y-96022751D01*
X144108721Y-96022751D01*
X144114486Y-96024264D01*
X144120447Y-96024358D01*
X144120450Y-96024358D01*
X144190174Y-96025453D01*
X144265863Y-96026642D01*
X144271705Y-96025304D01*
X144407614Y-95994177D01*
X144407617Y-95994176D01*
X144413437Y-95992843D01*
X144424349Y-95987355D01*
X144543355Y-95927502D01*
X144543357Y-95927501D01*
X144548689Y-95924819D01*
X144636364Y-95849937D01*
X144692891Y-95826522D01*
X144752386Y-95840805D01*
X144767280Y-95851988D01*
X144834998Y-95913607D01*
X144893137Y-95945174D01*
X144962801Y-95982999D01*
X144962803Y-95983000D01*
X144968047Y-95985847D01*
X145044798Y-96005982D01*
X145108717Y-96022751D01*
X145108721Y-96022751D01*
X145114486Y-96024264D01*
X145120447Y-96024358D01*
X145120450Y-96024358D01*
X145190174Y-96025453D01*
X145265863Y-96026642D01*
X145271705Y-96025304D01*
X145407614Y-95994177D01*
X145407617Y-95994176D01*
X145413437Y-95992843D01*
X145424349Y-95987355D01*
X145543355Y-95927502D01*
X145543357Y-95927501D01*
X145548689Y-95924819D01*
X145663810Y-95826495D01*
X145752156Y-95703550D01*
X145808624Y-95563080D01*
X145816120Y-95510409D01*
X152489185Y-95510409D01*
X152507847Y-95687968D01*
X152509631Y-95693208D01*
X152509631Y-95693209D01*
X152556324Y-95830369D01*
X152565383Y-95856979D01*
X152571587Y-95867063D01*
X152649784Y-95994171D01*
X152658933Y-96009043D01*
X152662804Y-96012996D01*
X152673925Y-96024352D01*
X152783849Y-96136603D01*
X152933921Y-96233317D01*
X153101690Y-96294380D01*
X153239581Y-96311800D01*
X153334889Y-96311800D01*
X153337643Y-96311491D01*
X153337645Y-96311491D01*
X153364439Y-96308486D01*
X153467424Y-96296934D01*
X153636029Y-96238219D01*
X153675489Y-96213561D01*
X153782747Y-96146540D01*
X153782749Y-96146538D01*
X153787437Y-96143609D01*
X153791360Y-96139714D01*
X153791363Y-96139711D01*
X153910193Y-96021707D01*
X153910194Y-96021705D01*
X153914121Y-96017806D01*
X153922675Y-96004328D01*
X153973133Y-95924819D01*
X154009786Y-95867063D01*
X154024232Y-95826495D01*
X154067820Y-95704083D01*
X154069676Y-95698871D01*
X154071873Y-95680445D01*
X154090160Y-95527087D01*
X154090160Y-95527084D01*
X154090815Y-95521591D01*
X154072153Y-95344032D01*
X154055734Y-95295800D01*
X154016402Y-95180264D01*
X154016401Y-95180263D01*
X154014617Y-95175021D01*
X153969844Y-95102243D01*
X153923968Y-95027672D01*
X153923966Y-95027670D01*
X153921067Y-95022957D01*
X153908666Y-95010293D01*
X153800022Y-94899350D01*
X153796151Y-94895397D01*
X153646079Y-94798683D01*
X153478310Y-94737620D01*
X153340419Y-94720200D01*
X153245111Y-94720200D01*
X153242357Y-94720509D01*
X153242355Y-94720509D01*
X153215561Y-94723514D01*
X153112576Y-94735066D01*
X152943971Y-94793781D01*
X152936126Y-94798683D01*
X152797253Y-94885460D01*
X152797251Y-94885462D01*
X152792563Y-94888391D01*
X152788640Y-94892286D01*
X152788637Y-94892289D01*
X152674425Y-95005707D01*
X152665879Y-95014194D01*
X152662913Y-95018868D01*
X152662912Y-95018869D01*
X152618047Y-95089565D01*
X152570214Y-95164937D01*
X152510324Y-95333129D01*
X152509669Y-95338622D01*
X152500395Y-95416401D01*
X152489185Y-95510409D01*
X145816120Y-95510409D01*
X145829956Y-95413196D01*
X145830094Y-95400000D01*
X145817447Y-95295491D01*
X145812623Y-95255623D01*
X145812622Y-95255620D01*
X145811906Y-95249701D01*
X145807385Y-95237735D01*
X145760502Y-95113664D01*
X145758392Y-95108080D01*
X145672640Y-94983311D01*
X145578404Y-94899350D01*
X145564057Y-94886567D01*
X145564055Y-94886566D01*
X145559603Y-94882599D01*
X145554321Y-94879802D01*
X145508871Y-94855738D01*
X145425805Y-94811757D01*
X145420017Y-94810303D01*
X145420014Y-94810302D01*
X145284760Y-94776328D01*
X145284761Y-94776328D01*
X145278972Y-94774874D01*
X145203275Y-94774478D01*
X145133545Y-94774113D01*
X145133543Y-94774113D01*
X145127579Y-94774082D01*
X145121776Y-94775475D01*
X145121777Y-94775475D01*
X145012624Y-94801680D01*
X144980367Y-94809424D01*
X144919230Y-94840979D01*
X144851141Y-94876122D01*
X144851139Y-94876124D01*
X144845835Y-94878861D01*
X144834911Y-94888391D01*
X144764860Y-94949500D01*
X144708581Y-94973505D01*
X144648939Y-94959845D01*
X144633923Y-94948815D01*
X144570602Y-94892399D01*
X144559603Y-94882599D01*
X144554321Y-94879802D01*
X144508871Y-94855738D01*
X144425805Y-94811757D01*
X144420017Y-94810303D01*
X144420014Y-94810302D01*
X144284760Y-94776328D01*
X144284761Y-94776328D01*
X144278972Y-94774874D01*
X144203275Y-94774478D01*
X144133545Y-94774113D01*
X144133543Y-94774113D01*
X144127579Y-94774082D01*
X144121776Y-94775475D01*
X144121777Y-94775475D01*
X144012624Y-94801680D01*
X143980367Y-94809424D01*
X143919230Y-94840979D01*
X143851141Y-94876122D01*
X143851139Y-94876124D01*
X143845835Y-94878861D01*
X143834911Y-94888391D01*
X143764863Y-94949497D01*
X143708583Y-94973502D01*
X143648942Y-94959842D01*
X143633925Y-94948811D01*
X143564057Y-94886561D01*
X143564055Y-94886560D01*
X143559603Y-94882593D01*
X143552555Y-94878861D01*
X143481007Y-94840979D01*
X143425805Y-94811751D01*
X143420017Y-94810297D01*
X143420014Y-94810296D01*
X143284760Y-94776322D01*
X143284761Y-94776322D01*
X143278972Y-94774868D01*
X143203275Y-94774472D01*
X143133545Y-94774107D01*
X143133543Y-94774107D01*
X143127579Y-94774076D01*
X143121776Y-94775469D01*
X143121777Y-94775469D01*
X143012599Y-94801680D01*
X142980367Y-94809418D01*
X142929377Y-94835736D01*
X142851141Y-94876116D01*
X142851139Y-94876118D01*
X142845835Y-94878855D01*
X142731749Y-94978379D01*
X142728318Y-94983261D01*
X142728317Y-94983262D01*
X142697105Y-95027672D01*
X142644696Y-95102243D01*
X142642529Y-95107801D01*
X142642528Y-95107803D01*
X142597210Y-95224039D01*
X142589702Y-95243296D01*
X142569941Y-95393396D01*
X141500000Y-95393396D01*
X141500000Y-94494409D01*
X147409185Y-94494409D01*
X147427847Y-94671968D01*
X147429631Y-94677208D01*
X147429631Y-94677209D01*
X147474639Y-94809418D01*
X147485383Y-94840979D01*
X147491587Y-94851063D01*
X147572916Y-94983262D01*
X147578933Y-94993043D01*
X147582804Y-94996996D01*
X147595825Y-95010293D01*
X147703849Y-95120603D01*
X147853921Y-95217317D01*
X148021690Y-95278380D01*
X148159581Y-95295800D01*
X148254889Y-95295800D01*
X148257643Y-95295491D01*
X148257645Y-95295491D01*
X148284439Y-95292486D01*
X148387424Y-95280934D01*
X148556029Y-95222219D01*
X148655181Y-95160262D01*
X148702747Y-95130540D01*
X148702749Y-95130538D01*
X148707437Y-95127609D01*
X148711360Y-95123714D01*
X148711363Y-95123711D01*
X148830193Y-95005707D01*
X148830194Y-95005705D01*
X148834121Y-95001806D01*
X148842675Y-94988328D01*
X148909658Y-94882779D01*
X148929786Y-94851063D01*
X148989676Y-94682871D01*
X148996564Y-94625105D01*
X149010160Y-94511087D01*
X149010160Y-94511084D01*
X149010815Y-94505591D01*
X148992153Y-94328032D01*
X148975734Y-94279800D01*
X148936402Y-94164264D01*
X148936401Y-94164263D01*
X148934617Y-94159021D01*
X148898707Y-94100650D01*
X148843968Y-94011672D01*
X148843966Y-94011670D01*
X148841067Y-94006957D01*
X148828666Y-93994293D01*
X148720022Y-93883350D01*
X148716151Y-93879397D01*
X148566079Y-93782683D01*
X148398310Y-93721620D01*
X148260419Y-93704200D01*
X148165111Y-93704200D01*
X148162357Y-93704509D01*
X148162355Y-93704509D01*
X148135561Y-93707514D01*
X148032576Y-93719066D01*
X147863971Y-93777781D01*
X147856126Y-93782683D01*
X147717253Y-93869460D01*
X147717251Y-93869462D01*
X147712563Y-93872391D01*
X147708640Y-93876286D01*
X147708637Y-93876289D01*
X147594425Y-93989707D01*
X147585879Y-93998194D01*
X147582913Y-94002868D01*
X147582912Y-94002869D01*
X147577204Y-94011863D01*
X147490214Y-94148937D01*
X147430324Y-94317129D01*
X147409185Y-94494409D01*
X141500000Y-94494409D01*
X141500000Y-93478409D01*
X152489185Y-93478409D01*
X152507847Y-93655968D01*
X152509631Y-93661208D01*
X152509631Y-93661209D01*
X152563598Y-93819736D01*
X152565383Y-93824979D01*
X152658933Y-93977043D01*
X152662804Y-93980996D01*
X152688227Y-94006957D01*
X152783849Y-94104603D01*
X152933921Y-94201317D01*
X153101690Y-94262380D01*
X153239581Y-94279800D01*
X153334889Y-94279800D01*
X153337643Y-94279491D01*
X153337645Y-94279491D01*
X153364439Y-94276486D01*
X153467424Y-94264934D01*
X153636029Y-94206219D01*
X153735181Y-94144262D01*
X153782747Y-94114540D01*
X153782749Y-94114538D01*
X153787437Y-94111609D01*
X153791360Y-94107714D01*
X153791363Y-94107711D01*
X153910193Y-93989707D01*
X153910194Y-93989705D01*
X153914121Y-93985806D01*
X153922675Y-93972328D01*
X154006819Y-93839738D01*
X154009786Y-93835063D01*
X154069676Y-93666871D01*
X154090815Y-93489591D01*
X154072153Y-93312032D01*
X154014617Y-93143021D01*
X153921067Y-92990957D01*
X153908666Y-92978293D01*
X153800022Y-92867350D01*
X153796151Y-92863397D01*
X153646079Y-92766683D01*
X153478310Y-92705620D01*
X153340419Y-92688200D01*
X153245111Y-92688200D01*
X153242357Y-92688509D01*
X153242355Y-92688509D01*
X153215561Y-92691514D01*
X153112576Y-92703066D01*
X152943971Y-92761781D01*
X152936126Y-92766683D01*
X152797253Y-92853460D01*
X152797251Y-92853462D01*
X152792563Y-92856391D01*
X152788640Y-92860286D01*
X152788637Y-92860289D01*
X152781527Y-92867350D01*
X152665879Y-92982194D01*
X152662913Y-92986868D01*
X152662912Y-92986869D01*
X152618046Y-93057566D01*
X152570214Y-93132937D01*
X152510324Y-93301129D01*
X152509669Y-93306622D01*
X152495668Y-93424043D01*
X152489185Y-93478409D01*
X141500000Y-93478409D01*
X141500000Y-88899000D01*
X141518907Y-88840809D01*
X141568407Y-88804845D01*
X141599000Y-88800000D01*
X158601000Y-88800000D01*
X158659191Y-88818907D01*
G37*
%TD.AperFunction*%
%TA.AperFunction,Conductor*%
G36*
X136759191Y-88818907D02*
G01*
X136795155Y-88868407D01*
X136800000Y-88899000D01*
X136800000Y-99844383D01*
X136799527Y-99854045D01*
X136798802Y-99861441D01*
X136796260Y-99870218D01*
X136797048Y-99879319D01*
X136797048Y-99879321D01*
X136799631Y-99909141D01*
X136800000Y-99917683D01*
X136800000Y-99927905D01*
X136800834Y-99932383D01*
X136800835Y-99932394D01*
X136801461Y-99935754D01*
X136802766Y-99945336D01*
X136805903Y-99981560D01*
X136809917Y-99989771D01*
X136811485Y-99995425D01*
X136813592Y-100000884D01*
X136815265Y-100009870D01*
X136820062Y-100017652D01*
X136834352Y-100040835D01*
X136839017Y-100049304D01*
X136854983Y-100081966D01*
X136861682Y-100088180D01*
X136865175Y-100092883D01*
X136869114Y-100097227D01*
X136873909Y-100105007D01*
X136881184Y-100110539D01*
X136902855Y-100127018D01*
X136910259Y-100133242D01*
X136936917Y-100157971D01*
X136945406Y-100161358D01*
X136950357Y-100164488D01*
X136955592Y-100167121D01*
X136962869Y-100172654D01*
X136987574Y-100179808D01*
X136997789Y-100182766D01*
X137006938Y-100185907D01*
X137017601Y-100190161D01*
X137040720Y-100199385D01*
X137046993Y-100200000D01*
X137047931Y-100200000D01*
X137052300Y-100200732D01*
X137052342Y-100200306D01*
X137061441Y-100201198D01*
X137070218Y-100203740D01*
X137079319Y-100202952D01*
X137079321Y-100202952D01*
X137109141Y-100200369D01*
X137117683Y-100200000D01*
X140796256Y-100200000D01*
X140854447Y-100218907D01*
X140890411Y-100268407D01*
X140890411Y-100329593D01*
X140877253Y-100355925D01*
X140844696Y-100402249D01*
X140842529Y-100407807D01*
X140842528Y-100407809D01*
X140840245Y-100413664D01*
X140789702Y-100543302D01*
X140788923Y-100549217D01*
X140788923Y-100549218D01*
X140788080Y-100555623D01*
X140769941Y-100693402D01*
X140770596Y-100699335D01*
X140770596Y-100699340D01*
X140775100Y-100740137D01*
X140762692Y-100800051D01*
X140717437Y-100841229D01*
X140676698Y-100850000D01*
X140465680Y-100850000D01*
X140452995Y-100854122D01*
X140450000Y-100858243D01*
X140450000Y-102234320D01*
X140454122Y-102247005D01*
X140458243Y-102250000D01*
X141084320Y-102250000D01*
X141097005Y-102245878D01*
X141100000Y-102241757D01*
X141100000Y-101996318D01*
X141118907Y-101938127D01*
X141168407Y-101902163D01*
X141224121Y-101900558D01*
X141308714Y-101922750D01*
X141308716Y-101922750D01*
X141314486Y-101924264D01*
X141320449Y-101924358D01*
X141323882Y-101924828D01*
X141380449Y-101952908D01*
X141895504Y-102467963D01*
X141923281Y-102522480D01*
X141924500Y-102537967D01*
X141924500Y-103662034D01*
X141905593Y-103720225D01*
X141895504Y-103732038D01*
X141632038Y-103995504D01*
X141577521Y-104023281D01*
X141562034Y-104024500D01*
X141088813Y-104024500D01*
X141030622Y-104005593D01*
X140994658Y-103956093D01*
X140994658Y-103894907D01*
X141018748Y-103855558D01*
X141045367Y-103828893D01*
X141055517Y-103814069D01*
X141094000Y-103727020D01*
X141097873Y-103712815D01*
X141099668Y-103697420D01*
X141100000Y-103691708D01*
X141100000Y-102565680D01*
X141095878Y-102552995D01*
X141091757Y-102550000D01*
X139515680Y-102550000D01*
X139502995Y-102554122D01*
X139500000Y-102558243D01*
X139500000Y-103691639D01*
X139500346Y-103697485D01*
X139502234Y-103713353D01*
X139506128Y-103727519D01*
X139544770Y-103814514D01*
X139554946Y-103829321D01*
X139581106Y-103855435D01*
X139608932Y-103909928D01*
X139599413Y-103970368D01*
X139556186Y-104013670D01*
X139511164Y-104024500D01*
X138899000Y-104024500D01*
X138840809Y-104005593D01*
X138804845Y-103956093D01*
X138800000Y-103925500D01*
X138800000Y-102234320D01*
X139500000Y-102234320D01*
X139504122Y-102247005D01*
X139508243Y-102250000D01*
X140134320Y-102250000D01*
X140147005Y-102245878D01*
X140150000Y-102241757D01*
X140150000Y-100865680D01*
X140145878Y-100852995D01*
X140141757Y-100850000D01*
X139758361Y-100850000D01*
X139752515Y-100850346D01*
X139736647Y-100852234D01*
X139722481Y-100856128D01*
X139635486Y-100894770D01*
X139620679Y-100904946D01*
X139554633Y-100971108D01*
X139544483Y-100985931D01*
X139506000Y-101072980D01*
X139502127Y-101087185D01*
X139500332Y-101102580D01*
X139500000Y-101108292D01*
X139500000Y-102234320D01*
X138800000Y-102234320D01*
X138800000Y-100712500D01*
X136700000Y-100712500D01*
X136700000Y-101825500D01*
X136681093Y-101883691D01*
X136631593Y-101919655D01*
X136601000Y-101924500D01*
X126637966Y-101924500D01*
X126579775Y-101905593D01*
X126567962Y-101895504D01*
X125819496Y-101147038D01*
X125791719Y-101092521D01*
X125790500Y-101077034D01*
X125790500Y-99593402D01*
X133969941Y-99593402D01*
X133970596Y-99599335D01*
X133970596Y-99599339D01*
X133972126Y-99613196D01*
X133986554Y-99743883D01*
X133988606Y-99749490D01*
X134036530Y-99880451D01*
X134036532Y-99880455D01*
X134038582Y-99886057D01*
X134123022Y-100011716D01*
X134127434Y-100015731D01*
X134127437Y-100015734D01*
X134230582Y-100109589D01*
X134234998Y-100113607D01*
X134271161Y-100133242D01*
X134362801Y-100182999D01*
X134362803Y-100183000D01*
X134368047Y-100185847D01*
X134436252Y-100203740D01*
X134508717Y-100222751D01*
X134508721Y-100222751D01*
X134514486Y-100224264D01*
X134520447Y-100224358D01*
X134520450Y-100224358D01*
X134590175Y-100225453D01*
X134665863Y-100226642D01*
X134671679Y-100225310D01*
X134807614Y-100194177D01*
X134807617Y-100194176D01*
X134813437Y-100192843D01*
X134854152Y-100172366D01*
X134914632Y-100163111D01*
X134945872Y-100173807D01*
X134962801Y-100182999D01*
X134962804Y-100183000D01*
X134968047Y-100185847D01*
X135036252Y-100203740D01*
X135108717Y-100222751D01*
X135108721Y-100222751D01*
X135114486Y-100224264D01*
X135120447Y-100224358D01*
X135120450Y-100224358D01*
X135190175Y-100225453D01*
X135265863Y-100226642D01*
X135271679Y-100225310D01*
X135407614Y-100194177D01*
X135407617Y-100194176D01*
X135413437Y-100192843D01*
X135427228Y-100185907D01*
X135543355Y-100127502D01*
X135543357Y-100127501D01*
X135548689Y-100124819D01*
X135663810Y-100026495D01*
X135737932Y-99923345D01*
X135748672Y-99908399D01*
X135748673Y-99908397D01*
X135752156Y-99903550D01*
X135808624Y-99763080D01*
X135829956Y-99613196D01*
X135830094Y-99600000D01*
X135811906Y-99449701D01*
X135758392Y-99308080D01*
X135672640Y-99183311D01*
X135559603Y-99082599D01*
X135425805Y-99011757D01*
X135420017Y-99010303D01*
X135420014Y-99010302D01*
X135284760Y-98976328D01*
X135284761Y-98976328D01*
X135278972Y-98974874D01*
X135203275Y-98974478D01*
X135133545Y-98974113D01*
X135133543Y-98974113D01*
X135127579Y-98974082D01*
X134980367Y-99009424D01*
X134945858Y-99027235D01*
X134885478Y-99037122D01*
X134854131Y-99026755D01*
X134825805Y-99011757D01*
X134820017Y-99010303D01*
X134820014Y-99010302D01*
X134684760Y-98976328D01*
X134684761Y-98976328D01*
X134678972Y-98974874D01*
X134603275Y-98974478D01*
X134533545Y-98974113D01*
X134533543Y-98974113D01*
X134527579Y-98974082D01*
X134380367Y-99009424D01*
X134370434Y-99014551D01*
X134251141Y-99076122D01*
X134251139Y-99076124D01*
X134245835Y-99078861D01*
X134131749Y-99178385D01*
X134044696Y-99302249D01*
X134042529Y-99307807D01*
X134042528Y-99307809D01*
X134040245Y-99313664D01*
X133989702Y-99443302D01*
X133988923Y-99449217D01*
X133988923Y-99449218D01*
X133988080Y-99455623D01*
X133969941Y-99593402D01*
X125790500Y-99593402D01*
X125790500Y-98905354D01*
X125787382Y-98879154D01*
X125741939Y-98776847D01*
X125662713Y-98697759D01*
X125633591Y-98684884D01*
X125567136Y-98655504D01*
X125567134Y-98655504D01*
X125560327Y-98652494D01*
X125546322Y-98650861D01*
X125537494Y-98649832D01*
X125537493Y-98649832D01*
X125534646Y-98649500D01*
X124445354Y-98649500D01*
X124428951Y-98651452D01*
X124426531Y-98651740D01*
X124426530Y-98651740D01*
X124419154Y-98652618D01*
X124316847Y-98698061D01*
X124237759Y-98777287D01*
X124192494Y-98879673D01*
X124189500Y-98905354D01*
X124189500Y-101494646D01*
X124192618Y-101520846D01*
X124238061Y-101623153D01*
X124317287Y-101702241D01*
X124325645Y-101705936D01*
X124412864Y-101744496D01*
X124412866Y-101744496D01*
X124419673Y-101747506D01*
X124445354Y-101750500D01*
X125037034Y-101750500D01*
X125095225Y-101769407D01*
X125107038Y-101779496D01*
X126018264Y-102690722D01*
X126025746Y-102700087D01*
X126025831Y-102700015D01*
X126030401Y-102705385D01*
X126034165Y-102711350D01*
X126067031Y-102740376D01*
X126072323Y-102745050D01*
X126076792Y-102749250D01*
X126087915Y-102760373D01*
X126090731Y-102762483D01*
X126090735Y-102762487D01*
X126096342Y-102766689D01*
X126102500Y-102771703D01*
X126130969Y-102796846D01*
X126130975Y-102796850D01*
X126136255Y-102801513D01*
X126142633Y-102804507D01*
X126142637Y-102804510D01*
X126144614Y-102805438D01*
X126161915Y-102815834D01*
X126163657Y-102817140D01*
X126163663Y-102817143D01*
X126169305Y-102821372D01*
X126175907Y-102823847D01*
X126175909Y-102823848D01*
X126211476Y-102837181D01*
X126218784Y-102840260D01*
X126259548Y-102859399D01*
X126268673Y-102860820D01*
X126288190Y-102865940D01*
X126296843Y-102869184D01*
X126341756Y-102872521D01*
X126349633Y-102873425D01*
X126362956Y-102875500D01*
X126378168Y-102875500D01*
X126385503Y-102875772D01*
X126432674Y-102879277D01*
X126439568Y-102877805D01*
X126439573Y-102877805D01*
X126440152Y-102877681D01*
X126460818Y-102875500D01*
X136601000Y-102875500D01*
X136659191Y-102894407D01*
X136695155Y-102943907D01*
X136700000Y-102974500D01*
X136700000Y-103925500D01*
X136681093Y-103983691D01*
X136631593Y-104019655D01*
X136601000Y-104024500D01*
X124537966Y-104024500D01*
X124479775Y-104005593D01*
X124467962Y-103995504D01*
X122954496Y-102482038D01*
X122926719Y-102427521D01*
X122925500Y-102412034D01*
X122925500Y-101846645D01*
X122944407Y-101788454D01*
X122993907Y-101752490D01*
X123012798Y-101748340D01*
X123020846Y-101747382D01*
X123123153Y-101701939D01*
X123202241Y-101622713D01*
X123247506Y-101520327D01*
X123250500Y-101494646D01*
X123250500Y-98905354D01*
X123247382Y-98879154D01*
X123201939Y-98776847D01*
X123122713Y-98697759D01*
X123093591Y-98684884D01*
X123027136Y-98655504D01*
X123027134Y-98655504D01*
X123020327Y-98652494D01*
X123006322Y-98650861D01*
X122997494Y-98649832D01*
X122997493Y-98649832D01*
X122994646Y-98649500D01*
X121905354Y-98649500D01*
X121888951Y-98651452D01*
X121886531Y-98651740D01*
X121886530Y-98651740D01*
X121879154Y-98652618D01*
X121776847Y-98698061D01*
X121697759Y-98777287D01*
X121652494Y-98879673D01*
X121649500Y-98905354D01*
X121649500Y-101494646D01*
X121652618Y-101520846D01*
X121698061Y-101623153D01*
X121777287Y-101702241D01*
X121785645Y-101705936D01*
X121872864Y-101744496D01*
X121872866Y-101744496D01*
X121879673Y-101747506D01*
X121887067Y-101748368D01*
X121894249Y-101750326D01*
X121893916Y-101751546D01*
X121942574Y-101773874D01*
X121972564Y-101827206D01*
X121974500Y-101846690D01*
X121974500Y-102585643D01*
X121973169Y-102597555D01*
X121973280Y-102597564D01*
X121972714Y-102604594D01*
X121971158Y-102611473D01*
X121971595Y-102618511D01*
X121974310Y-102662278D01*
X121974500Y-102668408D01*
X121974500Y-102684145D01*
X121975000Y-102687636D01*
X121975994Y-102694575D01*
X121976804Y-102702477D01*
X121979592Y-102747417D01*
X121981988Y-102754055D01*
X121981989Y-102754059D01*
X121982728Y-102756108D01*
X121987609Y-102775682D01*
X121988919Y-102784829D01*
X122007562Y-102825833D01*
X122010549Y-102833172D01*
X122025841Y-102875530D01*
X122031289Y-102882987D01*
X122041470Y-102900410D01*
X122042375Y-102902401D01*
X122042377Y-102902404D01*
X122045294Y-102908820D01*
X122074698Y-102942945D01*
X122079616Y-102949139D01*
X122087577Y-102960035D01*
X122098333Y-102970791D01*
X122103328Y-102976171D01*
X122129602Y-103006664D01*
X122129605Y-103006667D01*
X122134204Y-103012004D01*
X122140121Y-103015839D01*
X122140123Y-103015841D01*
X122140618Y-103016162D01*
X122156775Y-103029233D01*
X123918264Y-104790722D01*
X123925746Y-104800087D01*
X123925831Y-104800015D01*
X123930401Y-104805385D01*
X123934165Y-104811350D01*
X123944410Y-104820398D01*
X123972323Y-104845050D01*
X123976792Y-104849250D01*
X123983038Y-104855496D01*
X124010815Y-104910013D01*
X124001244Y-104970445D01*
X123957979Y-105013710D01*
X123913034Y-105024500D01*
X119399000Y-105024500D01*
X119340809Y-105005593D01*
X119304845Y-104956093D01*
X119300000Y-104925500D01*
X119300000Y-88899000D01*
X119318907Y-88840809D01*
X119368407Y-88804845D01*
X119399000Y-88800000D01*
X136701000Y-88800000D01*
X136759191Y-88818907D01*
G37*
%TD.AperFunction*%
%TD*%
M02*
