M48
; DRILL file {KiCad 5.1.10-88a1d61d58~90~ubuntu20.04.1} date Tue Aug 17 16:45:00 2021
; FORMAT={-:-/ absolute / inch / decimal}
; #@! TF.CreationDate,2021-08-17T16:45:00+02:00
; #@! TF.GenerationSoftware,Kicad,Pcbnew,5.1.10-88a1d61d58~90~ubuntu20.04.1
; #@! TF.FileFunction,Plated,1,2,Blind
FMAT,2
INCH
T1C0.0039
%
G90
G05
T1
X5.2992Y-3.6969
X5.2992Y-3.7244
X5.2992Y-3.752
X5.2992Y-3.7795
X5.3268Y-3.8386
X5.6024Y-3.8071
X5.6969Y-4.1339
X5.752Y-4.2362
X5.7638Y-4.1378
X5.7874Y-4.2283
X5.7953Y-4.1535
X5.8032Y-4.1299
X5.8071Y-4.0079
X5.811Y-4.1535
X5.8228Y-4.2283
X5.8307Y-4.0433
X5.8583Y-4.1811
X5.878Y-4.0827
X5.8819Y-4.2323
X5.9213Y-4.1614
T0
M30
