%TF.GenerationSoftware,KiCad,Pcbnew,5.1.10-88a1d61d58~90~ubuntu20.04.1*%
%TF.CreationDate,2021-08-17T16:43:52+02:00*%
%TF.ProjectId,s1-ecg-demo,73312d65-6367-42d6-9465-6d6f2e6b6963,1*%
%TF.SameCoordinates,Original*%
%TF.FileFunction,Copper,L4,Bot*%
%TF.FilePolarity,Positive*%
%FSLAX46Y46*%
G04 Gerber Fmt 4.6, Leading zero omitted, Abs format (unit mm)*
G04 Created by KiCad (PCBNEW 5.1.10-88a1d61d58~90~ubuntu20.04.1) date 2021-08-17 16:43:52*
%MOMM*%
%LPD*%
G01*
G04 APERTURE LIST*
%TA.AperFunction,EtchedComponent*%
%ADD10C,0.100000*%
%TD*%
%TA.AperFunction,ComponentPad*%
%ADD11O,1.158000X2.458000*%
%TD*%
%TA.AperFunction,ComponentPad*%
%ADD12O,1.158000X2.158000*%
%TD*%
%TA.AperFunction,SMDPad,CuDef*%
%ADD13C,1.000000*%
%TD*%
%TA.AperFunction,SMDPad,CuDef*%
%ADD14C,0.100000*%
%TD*%
%TA.AperFunction,SMDPad,CuDef*%
%ADD15R,1.000000X2.500000*%
%TD*%
%TA.AperFunction,ViaPad*%
%ADD16C,0.650000*%
%TD*%
%TA.AperFunction,Conductor*%
%ADD17C,0.200000*%
%TD*%
%TA.AperFunction,Conductor*%
%ADD18C,0.350000*%
%TD*%
%TA.AperFunction,Conductor*%
%ADD19C,0.100000*%
%TD*%
G04 APERTURE END LIST*
D10*
%TO.C,JP1*%
G36*
X124400000Y-100600000D02*
G01*
X123900000Y-100600000D01*
X123900000Y-100000000D01*
X124400000Y-100000000D01*
X124400000Y-100600000D01*
G37*
%TD*%
D11*
%TO.P,J4,*%
%TO.N,*%
X134779998Y-116996000D03*
D12*
X134779998Y-113170999D03*
D11*
X143420001Y-116996000D03*
D12*
X143419601Y-113170999D03*
%TD*%
D13*
%TO.P,TP1,1*%
%TO.N,/ECG_OUT*%
X152100000Y-112800000D03*
%TD*%
%TO.P,TP5,1*%
%TO.N,/LED4*%
X127400000Y-112800000D03*
%TD*%
%TO.P,TP4,1*%
%TO.N,/LED3*%
X127400000Y-110700000D03*
%TD*%
%TO.P,TP3,1*%
%TO.N,/LED2*%
X127400000Y-108600000D03*
%TD*%
%TO.P,TP2,1*%
%TO.N,/LED1*%
X127400000Y-106500000D03*
%TD*%
%TO.P,J3,1*%
%TO.N,Net-(J3-Pad1)*%
%TA.AperFunction,SMDPad,CuDef*%
G36*
G01*
X159138000Y-103981000D02*
X159138000Y-103219000D01*
G75*
G02*
X159519000Y-102838000I381000J0D01*
G01*
X160281000Y-102838000D01*
G75*
G02*
X160662000Y-103219000I0J-381000D01*
G01*
X160662000Y-103981000D01*
G75*
G02*
X160281000Y-104362000I-381000J0D01*
G01*
X159519000Y-104362000D01*
G75*
G02*
X159138000Y-103981000I0J381000D01*
G01*
G37*
%TD.AperFunction*%
%TD*%
%TA.AperFunction,SMDPad,CuDef*%
D14*
%TO.P,JP1,1*%
%TO.N,Net-(J6-Pad2)*%
G36*
X124000000Y-101050000D02*
G01*
X123500000Y-101050000D01*
X123500000Y-101049398D01*
X123475466Y-101049398D01*
X123426635Y-101044588D01*
X123378510Y-101035016D01*
X123331555Y-101020772D01*
X123286222Y-101001995D01*
X123242949Y-100978864D01*
X123202150Y-100951604D01*
X123164221Y-100920476D01*
X123129524Y-100885779D01*
X123098396Y-100847850D01*
X123071136Y-100807051D01*
X123048005Y-100763778D01*
X123029228Y-100718445D01*
X123014984Y-100671490D01*
X123005412Y-100623365D01*
X123000602Y-100574534D01*
X123000602Y-100550000D01*
X123000000Y-100550000D01*
X123000000Y-100050000D01*
X123000602Y-100050000D01*
X123000602Y-100025466D01*
X123005412Y-99976635D01*
X123014984Y-99928510D01*
X123029228Y-99881555D01*
X123048005Y-99836222D01*
X123071136Y-99792949D01*
X123098396Y-99752150D01*
X123129524Y-99714221D01*
X123164221Y-99679524D01*
X123202150Y-99648396D01*
X123242949Y-99621136D01*
X123286222Y-99598005D01*
X123331555Y-99579228D01*
X123378510Y-99564984D01*
X123426635Y-99555412D01*
X123475466Y-99550602D01*
X123500000Y-99550602D01*
X123500000Y-99550000D01*
X124000000Y-99550000D01*
X124000000Y-101050000D01*
G37*
%TD.AperFunction*%
%TA.AperFunction,SMDPad,CuDef*%
%TO.P,JP1,2*%
%TO.N,/VBAT*%
G36*
X124800000Y-99550602D02*
G01*
X124824534Y-99550602D01*
X124873365Y-99555412D01*
X124921490Y-99564984D01*
X124968445Y-99579228D01*
X125013778Y-99598005D01*
X125057051Y-99621136D01*
X125097850Y-99648396D01*
X125135779Y-99679524D01*
X125170476Y-99714221D01*
X125201604Y-99752150D01*
X125228864Y-99792949D01*
X125251995Y-99836222D01*
X125270772Y-99881555D01*
X125285016Y-99928510D01*
X125294588Y-99976635D01*
X125299398Y-100025466D01*
X125299398Y-100050000D01*
X125300000Y-100050000D01*
X125300000Y-100550000D01*
X125299398Y-100550000D01*
X125299398Y-100574534D01*
X125294588Y-100623365D01*
X125285016Y-100671490D01*
X125270772Y-100718445D01*
X125251995Y-100763778D01*
X125228864Y-100807051D01*
X125201604Y-100847850D01*
X125170476Y-100885779D01*
X125135779Y-100920476D01*
X125097850Y-100951604D01*
X125057051Y-100978864D01*
X125013778Y-101001995D01*
X124968445Y-101020772D01*
X124921490Y-101035016D01*
X124873365Y-101044588D01*
X124824534Y-101049398D01*
X124800000Y-101049398D01*
X124800000Y-101050000D01*
X124300000Y-101050000D01*
X124300000Y-99550000D01*
X124800000Y-99550000D01*
X124800000Y-99550602D01*
G37*
%TD.AperFunction*%
%TD*%
D15*
%TO.P,J6,2*%
%TO.N,Net-(J6-Pad2)*%
X137760000Y-102400000D03*
%TO.P,J6,1*%
%TO.N,/VBAT*%
X140300000Y-102400000D03*
%TD*%
%TO.P,J7,2*%
%TO.N,GND*%
X125440000Y-96500000D03*
%TO.P,J7,1*%
%TO.N,Net-(J6-Pad2)*%
X122900000Y-96500000D03*
%TD*%
D16*
%TO.N,/ECG_OUT*%
X150700000Y-112100000D03*
%TO.N,GND*%
X122300000Y-89300000D03*
X129300000Y-89300000D03*
X135300000Y-89300000D03*
X143200000Y-97500000D03*
X136000000Y-111300000D03*
X145700000Y-104700000D03*
X135000000Y-92700000D03*
X143200000Y-92700000D03*
X143200000Y-89300000D03*
X149400000Y-90000000D03*
X147300000Y-100800000D03*
X125400000Y-94700000D03*
X126500000Y-96500000D03*
X124300000Y-96500000D03*
X125500000Y-98500000D03*
X141300000Y-109500000D03*
X141300000Y-106500000D03*
X141300000Y-103500000D03*
X120300000Y-91700000D03*
X120300000Y-107700000D03*
X122300000Y-117700000D03*
X120300000Y-115700000D03*
X120300000Y-99700000D03*
X129300000Y-117700000D03*
X155300000Y-117700000D03*
X147300000Y-117700000D03*
X155100000Y-89200000D03*
X157900000Y-92000000D03*
X157900000Y-99700000D03*
X157800000Y-107300000D03*
X157800000Y-115500000D03*
X142200000Y-111300000D03*
%TO.N,+1V8*%
X143200000Y-95399994D03*
X153399981Y-90000019D03*
X145399994Y-103800000D03*
%TO.N,/VBUS*%
X138800000Y-113600000D03*
X134500000Y-99800000D03*
%TO.N,/VBAT*%
X141200000Y-101100008D03*
%TO.N,/LED2*%
X129100000Y-108600000D03*
%TO.N,/LED3*%
X129700000Y-110700000D03*
%TO.N,/LED4*%
X130300000Y-112800000D03*
%TO.N,/LED1*%
X130900000Y-106500000D03*
%TO.N,Net-(J1-Pad1)*%
X118400000Y-104900000D03*
X151400000Y-104900000D03*
%TO.N,Net-(J3-Pad1)*%
X151400000Y-107900000D03*
%TD*%
D17*
%TO.N,/ECG_OUT*%
X150700000Y-112100000D02*
X151400000Y-112100000D01*
X151400000Y-112100000D02*
X152100000Y-112800000D01*
D18*
%TO.N,Net-(J6-Pad2)*%
X124200000Y-102400000D02*
X137800000Y-102400000D01*
X123500000Y-101700000D02*
X124200000Y-102400000D01*
X123500000Y-100200000D02*
X123500000Y-101700000D01*
X123500000Y-100300000D02*
X123500000Y-99000000D01*
X123500000Y-99000000D02*
X122900000Y-98400000D01*
X122900000Y-98400000D02*
X122900000Y-96800000D01*
%TO.N,/VBAT*%
X124900000Y-100400000D02*
X124800000Y-100300000D01*
X138900000Y-100900000D02*
X138400000Y-100400000D01*
X138400000Y-100400000D02*
X124900000Y-100400000D01*
X138900000Y-101800000D02*
X138900000Y-100900000D01*
X139500000Y-102400000D02*
X138900000Y-101800000D01*
X140300000Y-102400000D02*
X139500000Y-102400000D01*
X141200000Y-101700000D02*
X141200000Y-101100008D01*
X140900000Y-102000000D02*
X141200000Y-101700000D01*
X140400000Y-102000000D02*
X140900000Y-102000000D01*
D17*
%TO.N,/LED2*%
X129100000Y-108600000D02*
X127400000Y-108600000D01*
%TO.N,/LED3*%
X129700000Y-110700000D02*
X127400000Y-110700000D01*
%TO.N,/LED4*%
X130300000Y-112800000D02*
X127400000Y-112800000D01*
%TO.N,/LED1*%
X130900000Y-106500000D02*
X127400000Y-106500000D01*
%TO.N,Net-(J1-Pad1)*%
X118800000Y-105300000D02*
X118400000Y-104900000D01*
X151000000Y-105300000D02*
X118800000Y-105300000D01*
X151400000Y-104900000D02*
X151000000Y-105300000D01*
%TO.N,Net-(J3-Pad1)*%
X151400000Y-107900000D02*
X159900000Y-107900000D01*
%TD*%
%TO.N,Net-(J3-Pad1)*%
X165805094Y-89013278D02*
X167295994Y-89255537D01*
X168754102Y-89649769D01*
X170163953Y-90191791D01*
X171510624Y-90875866D01*
X172779851Y-91694751D01*
X173958169Y-92639757D01*
X175033112Y-93700885D01*
X175993278Y-94866880D01*
X176828506Y-96125402D01*
X177529946Y-97463117D01*
X178090159Y-98865840D01*
X178503217Y-100318725D01*
X178764740Y-101806365D01*
X178871961Y-103313022D01*
X178823741Y-104822706D01*
X178620590Y-106319443D01*
X178264666Y-107787360D01*
X177759731Y-109210924D01*
X177111138Y-110575048D01*
X176325766Y-111865263D01*
X175411932Y-113067912D01*
X174379302Y-114170270D01*
X173238839Y-115160630D01*
X172002609Y-116028519D01*
X170683722Y-116764732D01*
X169296138Y-117361474D01*
X167854566Y-117812423D01*
X166374284Y-118112797D01*
X164865591Y-118259944D01*
X164095830Y-118275000D01*
X159100000Y-118275000D01*
X159100000Y-88925000D01*
X164287642Y-88925000D01*
X165805094Y-89013278D01*
%TA.AperFunction,Conductor*%
D19*
G36*
X165805094Y-89013278D02*
G01*
X167295994Y-89255537D01*
X168754102Y-89649769D01*
X170163953Y-90191791D01*
X171510624Y-90875866D01*
X172779851Y-91694751D01*
X173958169Y-92639757D01*
X175033112Y-93700885D01*
X175993278Y-94866880D01*
X176828506Y-96125402D01*
X177529946Y-97463117D01*
X178090159Y-98865840D01*
X178503217Y-100318725D01*
X178764740Y-101806365D01*
X178871961Y-103313022D01*
X178823741Y-104822706D01*
X178620590Y-106319443D01*
X178264666Y-107787360D01*
X177759731Y-109210924D01*
X177111138Y-110575048D01*
X176325766Y-111865263D01*
X175411932Y-113067912D01*
X174379302Y-114170270D01*
X173238839Y-115160630D01*
X172002609Y-116028519D01*
X170683722Y-116764732D01*
X169296138Y-117361474D01*
X167854566Y-117812423D01*
X166374284Y-118112797D01*
X164865591Y-118259944D01*
X164095830Y-118275000D01*
X159100000Y-118275000D01*
X159100000Y-88925000D01*
X164287642Y-88925000D01*
X165805094Y-89013278D01*
G37*
%TD.AperFunction*%
%TD*%
D17*
%TO.N,GND*%
X136675000Y-99825000D02*
X135225000Y-99825000D01*
X135225000Y-99728594D01*
X135197139Y-99588525D01*
X135142487Y-99456584D01*
X135063144Y-99337839D01*
X134962161Y-99236856D01*
X134843416Y-99157513D01*
X134711475Y-99102861D01*
X134571406Y-99075000D01*
X134428594Y-99075000D01*
X134288525Y-99102861D01*
X134156584Y-99157513D01*
X134037839Y-99236856D01*
X133936856Y-99337839D01*
X133857513Y-99456584D01*
X133802861Y-99588525D01*
X133775000Y-99728594D01*
X133775000Y-99825000D01*
X125672244Y-99825000D01*
X125649810Y-99751046D01*
X125612301Y-99660490D01*
X125575158Y-99590999D01*
X125520702Y-99509500D01*
X125470716Y-99448592D01*
X125401408Y-99379284D01*
X125340500Y-99329298D01*
X125259001Y-99274842D01*
X125189510Y-99237699D01*
X125098954Y-99200190D01*
X125023555Y-99177318D01*
X124927422Y-99158196D01*
X124849009Y-99150473D01*
X124824449Y-99150473D01*
X124800000Y-99148065D01*
X124300000Y-99148065D01*
X124221586Y-99155788D01*
X124150000Y-99177503D01*
X124078414Y-99155788D01*
X124075000Y-99155452D01*
X124075000Y-99028242D01*
X124077782Y-98999999D01*
X124074500Y-98966680D01*
X124066680Y-98887280D01*
X124033801Y-98778892D01*
X124002855Y-98720997D01*
X123980408Y-98679001D01*
X123942782Y-98633153D01*
X123908554Y-98591446D01*
X123886612Y-98573439D01*
X123475000Y-98161828D01*
X123475000Y-98144548D01*
X123478414Y-98144212D01*
X123553814Y-98121340D01*
X123623303Y-98084197D01*
X123684211Y-98034211D01*
X123734197Y-97973303D01*
X123771340Y-97903814D01*
X123794212Y-97828414D01*
X123801935Y-97750000D01*
X124538065Y-97750000D01*
X124545788Y-97828414D01*
X124568660Y-97903814D01*
X124605803Y-97973303D01*
X124655789Y-98034211D01*
X124716697Y-98084197D01*
X124786186Y-98121340D01*
X124861586Y-98144212D01*
X124940000Y-98151935D01*
X125290000Y-98150000D01*
X125390000Y-98050000D01*
X125390000Y-96550000D01*
X125490000Y-96550000D01*
X125490000Y-98050000D01*
X125590000Y-98150000D01*
X125940000Y-98151935D01*
X126018414Y-98144212D01*
X126093814Y-98121340D01*
X126163303Y-98084197D01*
X126224211Y-98034211D01*
X126274197Y-97973303D01*
X126311340Y-97903814D01*
X126334212Y-97828414D01*
X126341935Y-97750000D01*
X126340000Y-96650000D01*
X126240000Y-96550000D01*
X125490000Y-96550000D01*
X125390000Y-96550000D01*
X124640000Y-96550000D01*
X124540000Y-96650000D01*
X124538065Y-97750000D01*
X123801935Y-97750000D01*
X123801935Y-95250000D01*
X124538065Y-95250000D01*
X124540000Y-96350000D01*
X124640000Y-96450000D01*
X125390000Y-96450000D01*
X125390000Y-94950000D01*
X125490000Y-94950000D01*
X125490000Y-96450000D01*
X126240000Y-96450000D01*
X126340000Y-96350000D01*
X126341935Y-95250000D01*
X126334212Y-95171586D01*
X126311340Y-95096186D01*
X126274197Y-95026697D01*
X126224211Y-94965789D01*
X126163303Y-94915803D01*
X126093814Y-94878660D01*
X126018414Y-94855788D01*
X125940000Y-94848065D01*
X125590000Y-94850000D01*
X125490000Y-94950000D01*
X125390000Y-94950000D01*
X125290000Y-94850000D01*
X124940000Y-94848065D01*
X124861586Y-94855788D01*
X124786186Y-94878660D01*
X124716697Y-94915803D01*
X124655789Y-94965789D01*
X124605803Y-95026697D01*
X124568660Y-95096186D01*
X124545788Y-95171586D01*
X124538065Y-95250000D01*
X123801935Y-95250000D01*
X123794212Y-95171586D01*
X123771340Y-95096186D01*
X123734197Y-95026697D01*
X123684211Y-94965789D01*
X123623303Y-94915803D01*
X123553814Y-94878660D01*
X123478414Y-94855788D01*
X123400000Y-94848065D01*
X122400000Y-94848065D01*
X122321586Y-94855788D01*
X122246186Y-94878660D01*
X122176697Y-94915803D01*
X122115789Y-94965789D01*
X122065803Y-95026697D01*
X122028660Y-95096186D01*
X122005788Y-95171586D01*
X121998065Y-95250000D01*
X121998065Y-97750000D01*
X122005788Y-97828414D01*
X122028660Y-97903814D01*
X122065803Y-97973303D01*
X122115789Y-98034211D01*
X122176697Y-98084197D01*
X122246186Y-98121340D01*
X122321586Y-98144212D01*
X122325000Y-98144548D01*
X122325000Y-98371756D01*
X122322218Y-98400000D01*
X122325000Y-98428243D01*
X122325000Y-98428245D01*
X122333320Y-98512719D01*
X122363857Y-98613386D01*
X122366199Y-98621107D01*
X122419592Y-98720998D01*
X122444287Y-98751089D01*
X122491446Y-98808554D01*
X122513393Y-98826565D01*
X122925001Y-99238174D01*
X122925001Y-99357611D01*
X122898592Y-99379284D01*
X122829284Y-99448592D01*
X122779298Y-99509500D01*
X122724842Y-99590999D01*
X122687699Y-99660490D01*
X122650190Y-99751046D01*
X122627318Y-99826445D01*
X122608196Y-99922578D01*
X122600473Y-100000991D01*
X122600473Y-100025551D01*
X122598065Y-100050000D01*
X122598065Y-100550000D01*
X122600473Y-100574449D01*
X122600473Y-100599009D01*
X122608196Y-100677422D01*
X122627318Y-100773555D01*
X122650190Y-100848954D01*
X122687699Y-100939510D01*
X122724842Y-101009001D01*
X122779298Y-101090500D01*
X122829284Y-101151408D01*
X122898592Y-101220716D01*
X122925001Y-101242389D01*
X122925001Y-101671747D01*
X122922218Y-101700000D01*
X122926404Y-101742495D01*
X122933321Y-101812720D01*
X122938031Y-101828246D01*
X122966199Y-101921107D01*
X123019592Y-102020998D01*
X123065441Y-102076865D01*
X123091447Y-102108554D01*
X123113389Y-102126561D01*
X123773434Y-102786606D01*
X123791446Y-102808554D01*
X123879002Y-102880408D01*
X123978892Y-102933801D01*
X124087280Y-102966680D01*
X124171754Y-102975000D01*
X124171756Y-102975000D01*
X124199999Y-102977782D01*
X124228242Y-102975000D01*
X136858065Y-102975000D01*
X136858065Y-103650000D01*
X136865788Y-103728414D01*
X136888660Y-103803814D01*
X136925803Y-103873303D01*
X136975789Y-103934211D01*
X137036697Y-103984197D01*
X137106186Y-104021340D01*
X137181586Y-104044212D01*
X137260000Y-104051935D01*
X138260000Y-104051935D01*
X138338414Y-104044212D01*
X138413814Y-104021340D01*
X138483303Y-103984197D01*
X138544211Y-103934211D01*
X138594197Y-103873303D01*
X138631340Y-103803814D01*
X138654212Y-103728414D01*
X138661935Y-103650000D01*
X138661935Y-102375107D01*
X139073439Y-102786612D01*
X139091446Y-102808554D01*
X139113386Y-102826559D01*
X139179001Y-102880408D01*
X139251920Y-102919384D01*
X139278892Y-102933801D01*
X139387280Y-102966680D01*
X139398065Y-102967742D01*
X139398065Y-103650000D01*
X139405788Y-103728414D01*
X139428660Y-103803814D01*
X139465803Y-103873303D01*
X139515789Y-103934211D01*
X139576697Y-103984197D01*
X139646186Y-104021340D01*
X139721586Y-104044212D01*
X139800000Y-104051935D01*
X140800000Y-104051935D01*
X140878414Y-104044212D01*
X140953814Y-104021340D01*
X141023303Y-103984197D01*
X141084211Y-103934211D01*
X141134197Y-103873303D01*
X141171340Y-103803814D01*
X141194157Y-103728594D01*
X144674994Y-103728594D01*
X144674994Y-103871406D01*
X144702855Y-104011475D01*
X144757507Y-104143416D01*
X144836850Y-104262161D01*
X144937833Y-104363144D01*
X145056578Y-104442487D01*
X145188519Y-104497139D01*
X145328588Y-104525000D01*
X145471400Y-104525000D01*
X145611469Y-104497139D01*
X145743410Y-104442487D01*
X145862155Y-104363144D01*
X145963138Y-104262161D01*
X146042481Y-104143416D01*
X146097133Y-104011475D01*
X146124994Y-103871406D01*
X146124994Y-103728594D01*
X146097133Y-103588525D01*
X146042481Y-103456584D01*
X145963138Y-103337839D01*
X145862155Y-103236856D01*
X145743410Y-103157513D01*
X145611469Y-103102861D01*
X145471400Y-103075000D01*
X145328588Y-103075000D01*
X145188519Y-103102861D01*
X145056578Y-103157513D01*
X144937833Y-103236856D01*
X144836850Y-103337839D01*
X144757507Y-103456584D01*
X144702855Y-103588525D01*
X144674994Y-103728594D01*
X141194157Y-103728594D01*
X141194212Y-103728414D01*
X141201935Y-103650000D01*
X141201935Y-102490598D01*
X141220998Y-102480408D01*
X141308554Y-102408554D01*
X141326566Y-102386606D01*
X141586608Y-102126564D01*
X141608554Y-102108554D01*
X141680408Y-102020998D01*
X141733801Y-101921108D01*
X141766680Y-101812720D01*
X141775000Y-101728246D01*
X141775000Y-101728244D01*
X141777782Y-101700001D01*
X141775000Y-101671758D01*
X141775000Y-101544425D01*
X141842487Y-101443424D01*
X141897139Y-101311483D01*
X141925000Y-101171414D01*
X141925000Y-101028602D01*
X141897139Y-100888533D01*
X141842487Y-100756592D01*
X141763144Y-100637847D01*
X141662161Y-100536864D01*
X141543416Y-100457521D01*
X141411475Y-100402869D01*
X141271406Y-100375008D01*
X141128594Y-100375008D01*
X140988525Y-100402869D01*
X140856584Y-100457521D01*
X140737839Y-100536864D01*
X140636856Y-100637847D01*
X140563211Y-100748065D01*
X139800000Y-100748065D01*
X139721586Y-100755788D01*
X139646186Y-100778660D01*
X139576697Y-100815803D01*
X139515789Y-100865789D01*
X139476428Y-100913751D01*
X139477782Y-100900000D01*
X139472754Y-100848954D01*
X139466680Y-100787280D01*
X139433801Y-100678892D01*
X139411862Y-100637847D01*
X139380408Y-100579001D01*
X139336129Y-100525047D01*
X139308554Y-100491446D01*
X139286612Y-100473439D01*
X139138173Y-100325000D01*
X141179126Y-100325000D01*
X141200000Y-100327056D01*
X141220874Y-100325000D01*
X141283314Y-100318850D01*
X141363427Y-100294548D01*
X141437260Y-100255084D01*
X141501974Y-100201974D01*
X141555084Y-100137260D01*
X141594548Y-100063427D01*
X141618850Y-99983314D01*
X141627056Y-99900000D01*
X141625000Y-99879126D01*
X141625000Y-95328588D01*
X142475000Y-95328588D01*
X142475000Y-95471400D01*
X142502861Y-95611469D01*
X142557513Y-95743410D01*
X142636856Y-95862155D01*
X142737839Y-95963138D01*
X142856584Y-96042481D01*
X142988525Y-96097133D01*
X143128594Y-96124994D01*
X143271406Y-96124994D01*
X143411475Y-96097133D01*
X143543416Y-96042481D01*
X143662161Y-95963138D01*
X143763144Y-95862155D01*
X143842487Y-95743410D01*
X143897139Y-95611469D01*
X143925000Y-95471400D01*
X143925000Y-95328588D01*
X143897139Y-95188519D01*
X143842487Y-95056578D01*
X143763144Y-94937833D01*
X143662161Y-94836850D01*
X143543416Y-94757507D01*
X143411475Y-94702855D01*
X143271406Y-94674994D01*
X143128594Y-94674994D01*
X142988525Y-94702855D01*
X142856584Y-94757507D01*
X142737839Y-94836850D01*
X142636856Y-94937833D01*
X142557513Y-95056578D01*
X142502861Y-95188519D01*
X142475000Y-95328588D01*
X141625000Y-95328588D01*
X141625000Y-92927821D01*
X147264700Y-92927821D01*
X147264700Y-93104179D01*
X147299106Y-93277149D01*
X147366595Y-93440084D01*
X147464575Y-93586720D01*
X147589280Y-93711425D01*
X147735916Y-93809405D01*
X147898851Y-93876894D01*
X148071821Y-93911300D01*
X148248179Y-93911300D01*
X148421149Y-93876894D01*
X148584084Y-93809405D01*
X148730720Y-93711425D01*
X148855425Y-93586720D01*
X148953405Y-93440084D01*
X149020894Y-93277149D01*
X149055300Y-93104179D01*
X149055300Y-92927821D01*
X149020894Y-92754851D01*
X148953405Y-92591916D01*
X148855425Y-92445280D01*
X148730720Y-92320575D01*
X148584084Y-92222595D01*
X148421149Y-92155106D01*
X148248179Y-92120700D01*
X148071821Y-92120700D01*
X147898851Y-92155106D01*
X147735916Y-92222595D01*
X147589280Y-92320575D01*
X147464575Y-92445280D01*
X147366595Y-92591916D01*
X147299106Y-92754851D01*
X147264700Y-92927821D01*
X141625000Y-92927821D01*
X141625000Y-91911821D01*
X152344700Y-91911821D01*
X152344700Y-92088179D01*
X152379106Y-92261149D01*
X152446595Y-92424084D01*
X152544575Y-92570720D01*
X152669280Y-92695425D01*
X152815916Y-92793405D01*
X152978851Y-92860894D01*
X153151821Y-92895300D01*
X153328179Y-92895300D01*
X153501149Y-92860894D01*
X153664084Y-92793405D01*
X153810720Y-92695425D01*
X153935425Y-92570720D01*
X154033405Y-92424084D01*
X154100894Y-92261149D01*
X154135300Y-92088179D01*
X154135300Y-91911821D01*
X154100894Y-91738851D01*
X154033405Y-91575916D01*
X153935425Y-91429280D01*
X153810720Y-91304575D01*
X153664084Y-91206595D01*
X153501149Y-91139106D01*
X153328179Y-91104700D01*
X153151821Y-91104700D01*
X152978851Y-91139106D01*
X152815916Y-91206595D01*
X152669280Y-91304575D01*
X152544575Y-91429280D01*
X152446595Y-91575916D01*
X152379106Y-91738851D01*
X152344700Y-91911821D01*
X141625000Y-91911821D01*
X141625000Y-90895821D01*
X147264700Y-90895821D01*
X147264700Y-91072179D01*
X147299106Y-91245149D01*
X147366595Y-91408084D01*
X147464575Y-91554720D01*
X147589280Y-91679425D01*
X147735916Y-91777405D01*
X147898851Y-91844894D01*
X148071821Y-91879300D01*
X148248179Y-91879300D01*
X148421149Y-91844894D01*
X148584084Y-91777405D01*
X148730720Y-91679425D01*
X148855425Y-91554720D01*
X148953405Y-91408084D01*
X149020894Y-91245149D01*
X149055300Y-91072179D01*
X149055300Y-90895821D01*
X149020894Y-90722851D01*
X148953405Y-90559916D01*
X148855425Y-90413280D01*
X148730720Y-90288575D01*
X148584084Y-90190595D01*
X148421149Y-90123106D01*
X148248179Y-90088700D01*
X148071821Y-90088700D01*
X147898851Y-90123106D01*
X147735916Y-90190595D01*
X147589280Y-90288575D01*
X147464575Y-90413280D01*
X147366595Y-90559916D01*
X147299106Y-90722851D01*
X147264700Y-90895821D01*
X141625000Y-90895821D01*
X141625000Y-89928613D01*
X152674981Y-89928613D01*
X152674981Y-90071425D01*
X152702842Y-90211494D01*
X152757494Y-90343435D01*
X152836837Y-90462180D01*
X152937820Y-90563163D01*
X153056565Y-90642506D01*
X153188506Y-90697158D01*
X153328575Y-90725019D01*
X153471387Y-90725019D01*
X153611456Y-90697158D01*
X153743397Y-90642506D01*
X153862142Y-90563163D01*
X153963125Y-90462180D01*
X154042468Y-90343435D01*
X154097120Y-90211494D01*
X154124981Y-90071425D01*
X154124981Y-89928613D01*
X154097120Y-89788544D01*
X154042468Y-89656603D01*
X153963125Y-89537858D01*
X153862142Y-89436875D01*
X153743397Y-89357532D01*
X153611456Y-89302880D01*
X153471387Y-89275019D01*
X153328575Y-89275019D01*
X153188506Y-89302880D01*
X153056565Y-89357532D01*
X152937820Y-89436875D01*
X152836837Y-89537858D01*
X152757494Y-89656603D01*
X152702842Y-89788544D01*
X152674981Y-89928613D01*
X141625000Y-89928613D01*
X141625000Y-88925000D01*
X158600000Y-88925000D01*
X158600000Y-107400000D01*
X151925305Y-107400000D01*
X151862161Y-107336856D01*
X151743416Y-107257513D01*
X151611475Y-107202861D01*
X151471406Y-107175000D01*
X151328594Y-107175000D01*
X151188525Y-107202861D01*
X151056584Y-107257513D01*
X150937839Y-107336856D01*
X150836856Y-107437839D01*
X150757513Y-107556584D01*
X150702861Y-107688525D01*
X150675000Y-107828594D01*
X150675000Y-107971406D01*
X150702861Y-108111475D01*
X150757513Y-108243416D01*
X150836856Y-108362161D01*
X150937839Y-108463144D01*
X151056584Y-108542487D01*
X151188525Y-108597139D01*
X151328594Y-108625000D01*
X151471406Y-108625000D01*
X151611475Y-108597139D01*
X151743416Y-108542487D01*
X151862161Y-108463144D01*
X151925305Y-108400000D01*
X158600000Y-108400000D01*
X158600000Y-118275000D01*
X144170269Y-118275000D01*
X144237948Y-118192534D01*
X144328855Y-118022459D01*
X144384835Y-117837917D01*
X144399001Y-117694086D01*
X144399001Y-116297914D01*
X144384835Y-116154083D01*
X144328855Y-115969541D01*
X144237948Y-115799466D01*
X144115607Y-115650394D01*
X143966535Y-115528053D01*
X143796459Y-115437146D01*
X143611917Y-115381166D01*
X143420001Y-115362264D01*
X143228084Y-115381166D01*
X143043542Y-115437146D01*
X142873467Y-115528053D01*
X142724395Y-115650394D01*
X142602054Y-115799466D01*
X142511147Y-115969542D01*
X142455167Y-116154084D01*
X142441001Y-116297915D01*
X142441002Y-117694086D01*
X142455168Y-117837917D01*
X142511148Y-118022459D01*
X142602055Y-118192534D01*
X142669734Y-118275000D01*
X135530266Y-118275000D01*
X135597945Y-118192534D01*
X135688852Y-118022459D01*
X135744832Y-117837917D01*
X135758998Y-117694086D01*
X135758998Y-116297914D01*
X135744832Y-116154083D01*
X135688852Y-115969541D01*
X135597945Y-115799466D01*
X135475604Y-115650394D01*
X135326532Y-115528053D01*
X135156456Y-115437146D01*
X134971914Y-115381166D01*
X134779998Y-115362264D01*
X134588081Y-115381166D01*
X134403539Y-115437146D01*
X134233464Y-115528053D01*
X134084392Y-115650394D01*
X133962051Y-115799466D01*
X133871144Y-115969542D01*
X133815164Y-116154084D01*
X133800998Y-116297915D01*
X133800999Y-117694086D01*
X133815165Y-117837917D01*
X133871145Y-118022459D01*
X133962052Y-118192534D01*
X134029731Y-118275000D01*
X119400000Y-118275000D01*
X119400000Y-112711358D01*
X126500000Y-112711358D01*
X126500000Y-112888642D01*
X126534586Y-113062520D01*
X126602430Y-113226310D01*
X126700924Y-113373717D01*
X126826283Y-113499076D01*
X126973690Y-113597570D01*
X127137480Y-113665414D01*
X127311358Y-113700000D01*
X127488642Y-113700000D01*
X127662520Y-113665414D01*
X127826310Y-113597570D01*
X127973717Y-113499076D01*
X128099076Y-113373717D01*
X128148332Y-113300000D01*
X129774695Y-113300000D01*
X129837839Y-113363144D01*
X129956584Y-113442487D01*
X130088525Y-113497139D01*
X130228594Y-113525000D01*
X130371406Y-113525000D01*
X130511475Y-113497139D01*
X130643416Y-113442487D01*
X130762161Y-113363144D01*
X130863144Y-113262161D01*
X130942487Y-113143416D01*
X130997139Y-113011475D01*
X131025000Y-112871406D01*
X131025000Y-112728594D01*
X131003980Y-112622914D01*
X133800998Y-112622914D01*
X133800999Y-113719085D01*
X133815165Y-113862916D01*
X133871145Y-114047458D01*
X133962052Y-114217533D01*
X134084393Y-114366605D01*
X134233465Y-114488946D01*
X134403540Y-114579853D01*
X134588082Y-114635833D01*
X134779998Y-114654735D01*
X134971915Y-114635833D01*
X135156457Y-114579853D01*
X135326532Y-114488946D01*
X135475604Y-114366605D01*
X135597945Y-114217533D01*
X135647982Y-114123921D01*
X135756584Y-114196487D01*
X135888525Y-114251139D01*
X136028594Y-114279000D01*
X136171406Y-114279000D01*
X136311475Y-114251139D01*
X136443416Y-114196487D01*
X136562161Y-114117144D01*
X136663144Y-114016161D01*
X136742487Y-113897416D01*
X136797139Y-113765475D01*
X136825000Y-113625406D01*
X136825000Y-113528594D01*
X138075000Y-113528594D01*
X138075000Y-113671406D01*
X138102861Y-113811475D01*
X138157513Y-113943416D01*
X138236856Y-114062161D01*
X138337839Y-114163144D01*
X138456584Y-114242487D01*
X138588525Y-114297139D01*
X138728594Y-114325000D01*
X138871406Y-114325000D01*
X139011475Y-114297139D01*
X139143416Y-114242487D01*
X139262161Y-114163144D01*
X139363144Y-114062161D01*
X139442487Y-113943416D01*
X139497139Y-113811475D01*
X139525000Y-113671406D01*
X139525000Y-113554001D01*
X141271492Y-113554001D01*
X141285490Y-113696126D01*
X141326946Y-113832789D01*
X141394268Y-113958738D01*
X141484867Y-114069133D01*
X141595262Y-114159732D01*
X141721211Y-114227054D01*
X141857874Y-114268510D01*
X141964392Y-114279001D01*
X142235606Y-114279001D01*
X142342124Y-114268510D01*
X142478787Y-114227054D01*
X142578310Y-114173857D01*
X142601655Y-114217533D01*
X142723996Y-114366605D01*
X142873068Y-114488946D01*
X143043143Y-114579853D01*
X143227685Y-114635833D01*
X143419601Y-114654735D01*
X143611518Y-114635833D01*
X143796060Y-114579853D01*
X143966135Y-114488946D01*
X144115207Y-114366605D01*
X144237548Y-114217533D01*
X144328455Y-114047458D01*
X144384435Y-113862916D01*
X144398601Y-113719084D01*
X144398601Y-112622913D01*
X144384435Y-112479082D01*
X144328455Y-112294540D01*
X144237548Y-112124465D01*
X144158869Y-112028594D01*
X149975000Y-112028594D01*
X149975000Y-112171406D01*
X150002861Y-112311475D01*
X150057513Y-112443416D01*
X150136856Y-112562161D01*
X150237839Y-112663144D01*
X150356584Y-112742487D01*
X150488525Y-112797139D01*
X150628594Y-112825000D01*
X150771406Y-112825000D01*
X150911475Y-112797139D01*
X151043416Y-112742487D01*
X151162161Y-112663144D01*
X151209100Y-112616205D01*
X151217296Y-112624402D01*
X151200000Y-112711358D01*
X151200000Y-112888642D01*
X151234586Y-113062520D01*
X151302430Y-113226310D01*
X151400924Y-113373717D01*
X151526283Y-113499076D01*
X151673690Y-113597570D01*
X151837480Y-113665414D01*
X152011358Y-113700000D01*
X152188642Y-113700000D01*
X152362520Y-113665414D01*
X152526310Y-113597570D01*
X152673717Y-113499076D01*
X152799076Y-113373717D01*
X152897570Y-113226310D01*
X152965414Y-113062520D01*
X153000000Y-112888642D01*
X153000000Y-112711358D01*
X152965414Y-112537480D01*
X152897570Y-112373690D01*
X152799076Y-112226283D01*
X152673717Y-112100924D01*
X152526310Y-112002430D01*
X152362520Y-111934586D01*
X152188642Y-111900000D01*
X152011358Y-111900000D01*
X151924402Y-111917296D01*
X151770929Y-111763824D01*
X151755264Y-111744736D01*
X151679129Y-111682254D01*
X151592267Y-111635825D01*
X151498017Y-111607235D01*
X151424560Y-111600000D01*
X151400000Y-111597581D01*
X151375440Y-111600000D01*
X151225305Y-111600000D01*
X151162161Y-111536856D01*
X151043416Y-111457513D01*
X150911475Y-111402861D01*
X150771406Y-111375000D01*
X150628594Y-111375000D01*
X150488525Y-111402861D01*
X150356584Y-111457513D01*
X150237839Y-111536856D01*
X150136856Y-111637839D01*
X150057513Y-111756584D01*
X150002861Y-111888525D01*
X149975000Y-112028594D01*
X144158869Y-112028594D01*
X144115207Y-111975393D01*
X143966135Y-111853052D01*
X143796059Y-111762145D01*
X143611517Y-111706165D01*
X143419601Y-111687263D01*
X143227684Y-111706165D01*
X143043142Y-111762145D01*
X142873067Y-111853052D01*
X142723995Y-111975393D01*
X142601654Y-112124465D01*
X142510747Y-112294541D01*
X142454767Y-112479083D01*
X142440601Y-112622914D01*
X142440601Y-112869365D01*
X142342124Y-112839492D01*
X142235606Y-112829001D01*
X141964392Y-112829001D01*
X141857874Y-112839492D01*
X141721211Y-112880948D01*
X141595262Y-112948270D01*
X141484867Y-113038869D01*
X141394268Y-113149264D01*
X141326946Y-113275213D01*
X141285490Y-113411876D01*
X141271492Y-113554001D01*
X139525000Y-113554001D01*
X139525000Y-113528594D01*
X139497139Y-113388525D01*
X139442487Y-113256584D01*
X139363144Y-113137839D01*
X139262161Y-113036856D01*
X139143416Y-112957513D01*
X139011475Y-112902861D01*
X138871406Y-112875000D01*
X138728594Y-112875000D01*
X138588525Y-112902861D01*
X138456584Y-112957513D01*
X138337839Y-113036856D01*
X138236856Y-113137839D01*
X138157513Y-113256584D01*
X138102861Y-113388525D01*
X138075000Y-113528594D01*
X136825000Y-113528594D01*
X136825000Y-113482594D01*
X136797139Y-113342525D01*
X136742487Y-113210584D01*
X136663144Y-113091839D01*
X136562161Y-112990856D01*
X136443416Y-112911513D01*
X136311475Y-112856861D01*
X136171406Y-112829000D01*
X136028594Y-112829000D01*
X135888525Y-112856861D01*
X135758998Y-112910513D01*
X135758998Y-112622913D01*
X135744832Y-112479082D01*
X135688852Y-112294540D01*
X135597945Y-112124465D01*
X135475604Y-111975393D01*
X135326532Y-111853052D01*
X135156456Y-111762145D01*
X134971914Y-111706165D01*
X134779998Y-111687263D01*
X134588081Y-111706165D01*
X134403539Y-111762145D01*
X134233464Y-111853052D01*
X134084392Y-111975393D01*
X133962051Y-112124465D01*
X133871144Y-112294541D01*
X133815164Y-112479083D01*
X133800998Y-112622914D01*
X131003980Y-112622914D01*
X130997139Y-112588525D01*
X130942487Y-112456584D01*
X130863144Y-112337839D01*
X130762161Y-112236856D01*
X130643416Y-112157513D01*
X130511475Y-112102861D01*
X130371406Y-112075000D01*
X130228594Y-112075000D01*
X130088525Y-112102861D01*
X129956584Y-112157513D01*
X129837839Y-112236856D01*
X129774695Y-112300000D01*
X128148332Y-112300000D01*
X128099076Y-112226283D01*
X127973717Y-112100924D01*
X127826310Y-112002430D01*
X127662520Y-111934586D01*
X127488642Y-111900000D01*
X127311358Y-111900000D01*
X127137480Y-111934586D01*
X126973690Y-112002430D01*
X126826283Y-112100924D01*
X126700924Y-112226283D01*
X126602430Y-112373690D01*
X126534586Y-112537480D01*
X126500000Y-112711358D01*
X119400000Y-112711358D01*
X119400000Y-110611358D01*
X126500000Y-110611358D01*
X126500000Y-110788642D01*
X126534586Y-110962520D01*
X126602430Y-111126310D01*
X126700924Y-111273717D01*
X126826283Y-111399076D01*
X126973690Y-111497570D01*
X127137480Y-111565414D01*
X127311358Y-111600000D01*
X127488642Y-111600000D01*
X127662520Y-111565414D01*
X127826310Y-111497570D01*
X127973717Y-111399076D01*
X128099076Y-111273717D01*
X128148332Y-111200000D01*
X129174695Y-111200000D01*
X129237839Y-111263144D01*
X129356584Y-111342487D01*
X129488525Y-111397139D01*
X129628594Y-111425000D01*
X129771406Y-111425000D01*
X129911475Y-111397139D01*
X130043416Y-111342487D01*
X130162161Y-111263144D01*
X130263144Y-111162161D01*
X130342487Y-111043416D01*
X130397139Y-110911475D01*
X130425000Y-110771406D01*
X130425000Y-110628594D01*
X130397139Y-110488525D01*
X130342487Y-110356584D01*
X130263144Y-110237839D01*
X130162161Y-110136856D01*
X130043416Y-110057513D01*
X129911475Y-110002861D01*
X129771406Y-109975000D01*
X129628594Y-109975000D01*
X129488525Y-110002861D01*
X129356584Y-110057513D01*
X129237839Y-110136856D01*
X129174695Y-110200000D01*
X128148332Y-110200000D01*
X128099076Y-110126283D01*
X127973717Y-110000924D01*
X127826310Y-109902430D01*
X127662520Y-109834586D01*
X127488642Y-109800000D01*
X127311358Y-109800000D01*
X127137480Y-109834586D01*
X126973690Y-109902430D01*
X126826283Y-110000924D01*
X126700924Y-110126283D01*
X126602430Y-110273690D01*
X126534586Y-110437480D01*
X126500000Y-110611358D01*
X119400000Y-110611358D01*
X119400000Y-108511358D01*
X126500000Y-108511358D01*
X126500000Y-108688642D01*
X126534586Y-108862520D01*
X126602430Y-109026310D01*
X126700924Y-109173717D01*
X126826283Y-109299076D01*
X126973690Y-109397570D01*
X127137480Y-109465414D01*
X127311358Y-109500000D01*
X127488642Y-109500000D01*
X127662520Y-109465414D01*
X127826310Y-109397570D01*
X127973717Y-109299076D01*
X128099076Y-109173717D01*
X128148332Y-109100000D01*
X128574695Y-109100000D01*
X128637839Y-109163144D01*
X128756584Y-109242487D01*
X128888525Y-109297139D01*
X129028594Y-109325000D01*
X129171406Y-109325000D01*
X129311475Y-109297139D01*
X129443416Y-109242487D01*
X129562161Y-109163144D01*
X129663144Y-109062161D01*
X129742487Y-108943416D01*
X129797139Y-108811475D01*
X129825000Y-108671406D01*
X129825000Y-108528594D01*
X129797139Y-108388525D01*
X129742487Y-108256584D01*
X129663144Y-108137839D01*
X129562161Y-108036856D01*
X129443416Y-107957513D01*
X129311475Y-107902861D01*
X129171406Y-107875000D01*
X129028594Y-107875000D01*
X128888525Y-107902861D01*
X128756584Y-107957513D01*
X128637839Y-108036856D01*
X128574695Y-108100000D01*
X128148332Y-108100000D01*
X128099076Y-108026283D01*
X127973717Y-107900924D01*
X127826310Y-107802430D01*
X127662520Y-107734586D01*
X127488642Y-107700000D01*
X127311358Y-107700000D01*
X127137480Y-107734586D01*
X126973690Y-107802430D01*
X126826283Y-107900924D01*
X126700924Y-108026283D01*
X126602430Y-108173690D01*
X126534586Y-108337480D01*
X126500000Y-108511358D01*
X119400000Y-108511358D01*
X119400000Y-105800000D01*
X126827666Y-105800000D01*
X126826283Y-105800924D01*
X126700924Y-105926283D01*
X126602430Y-106073690D01*
X126534586Y-106237480D01*
X126500000Y-106411358D01*
X126500000Y-106588642D01*
X126534586Y-106762520D01*
X126602430Y-106926310D01*
X126700924Y-107073717D01*
X126826283Y-107199076D01*
X126973690Y-107297570D01*
X127137480Y-107365414D01*
X127311358Y-107400000D01*
X127488642Y-107400000D01*
X127662520Y-107365414D01*
X127826310Y-107297570D01*
X127973717Y-107199076D01*
X128099076Y-107073717D01*
X128148332Y-107000000D01*
X130374695Y-107000000D01*
X130437839Y-107063144D01*
X130556584Y-107142487D01*
X130688525Y-107197139D01*
X130828594Y-107225000D01*
X130971406Y-107225000D01*
X131111475Y-107197139D01*
X131243416Y-107142487D01*
X131362161Y-107063144D01*
X131463144Y-106962161D01*
X131542487Y-106843416D01*
X131597139Y-106711475D01*
X131625000Y-106571406D01*
X131625000Y-106428594D01*
X131597139Y-106288525D01*
X131542487Y-106156584D01*
X131463144Y-106037839D01*
X131362161Y-105936856D01*
X131243416Y-105857513D01*
X131111475Y-105802861D01*
X131097092Y-105800000D01*
X150975440Y-105800000D01*
X151000000Y-105802419D01*
X151024560Y-105800000D01*
X151098017Y-105792765D01*
X151192267Y-105764175D01*
X151279129Y-105717746D01*
X151355264Y-105655264D01*
X151370928Y-105636177D01*
X151382105Y-105625000D01*
X151471406Y-105625000D01*
X151611475Y-105597139D01*
X151743416Y-105542487D01*
X151862161Y-105463144D01*
X151963144Y-105362161D01*
X152042487Y-105243416D01*
X152097139Y-105111475D01*
X152125000Y-104971406D01*
X152125000Y-104828594D01*
X152097139Y-104688525D01*
X152042487Y-104556584D01*
X151963144Y-104437839D01*
X151862161Y-104336856D01*
X151743416Y-104257513D01*
X151611475Y-104202861D01*
X151471406Y-104175000D01*
X151328594Y-104175000D01*
X151188525Y-104202861D01*
X151056584Y-104257513D01*
X150937839Y-104336856D01*
X150836856Y-104437839D01*
X150757513Y-104556584D01*
X150702861Y-104688525D01*
X150680688Y-104800000D01*
X119400000Y-104800000D01*
X119400000Y-88925000D01*
X136675001Y-88925000D01*
X136675000Y-99825000D01*
%TA.AperFunction,Conductor*%
D19*
G36*
X136675000Y-99825000D02*
G01*
X135225000Y-99825000D01*
X135225000Y-99728594D01*
X135197139Y-99588525D01*
X135142487Y-99456584D01*
X135063144Y-99337839D01*
X134962161Y-99236856D01*
X134843416Y-99157513D01*
X134711475Y-99102861D01*
X134571406Y-99075000D01*
X134428594Y-99075000D01*
X134288525Y-99102861D01*
X134156584Y-99157513D01*
X134037839Y-99236856D01*
X133936856Y-99337839D01*
X133857513Y-99456584D01*
X133802861Y-99588525D01*
X133775000Y-99728594D01*
X133775000Y-99825000D01*
X125672244Y-99825000D01*
X125649810Y-99751046D01*
X125612301Y-99660490D01*
X125575158Y-99590999D01*
X125520702Y-99509500D01*
X125470716Y-99448592D01*
X125401408Y-99379284D01*
X125340500Y-99329298D01*
X125259001Y-99274842D01*
X125189510Y-99237699D01*
X125098954Y-99200190D01*
X125023555Y-99177318D01*
X124927422Y-99158196D01*
X124849009Y-99150473D01*
X124824449Y-99150473D01*
X124800000Y-99148065D01*
X124300000Y-99148065D01*
X124221586Y-99155788D01*
X124150000Y-99177503D01*
X124078414Y-99155788D01*
X124075000Y-99155452D01*
X124075000Y-99028242D01*
X124077782Y-98999999D01*
X124074500Y-98966680D01*
X124066680Y-98887280D01*
X124033801Y-98778892D01*
X124002855Y-98720997D01*
X123980408Y-98679001D01*
X123942782Y-98633153D01*
X123908554Y-98591446D01*
X123886612Y-98573439D01*
X123475000Y-98161828D01*
X123475000Y-98144548D01*
X123478414Y-98144212D01*
X123553814Y-98121340D01*
X123623303Y-98084197D01*
X123684211Y-98034211D01*
X123734197Y-97973303D01*
X123771340Y-97903814D01*
X123794212Y-97828414D01*
X123801935Y-97750000D01*
X124538065Y-97750000D01*
X124545788Y-97828414D01*
X124568660Y-97903814D01*
X124605803Y-97973303D01*
X124655789Y-98034211D01*
X124716697Y-98084197D01*
X124786186Y-98121340D01*
X124861586Y-98144212D01*
X124940000Y-98151935D01*
X125290000Y-98150000D01*
X125390000Y-98050000D01*
X125390000Y-96550000D01*
X125490000Y-96550000D01*
X125490000Y-98050000D01*
X125590000Y-98150000D01*
X125940000Y-98151935D01*
X126018414Y-98144212D01*
X126093814Y-98121340D01*
X126163303Y-98084197D01*
X126224211Y-98034211D01*
X126274197Y-97973303D01*
X126311340Y-97903814D01*
X126334212Y-97828414D01*
X126341935Y-97750000D01*
X126340000Y-96650000D01*
X126240000Y-96550000D01*
X125490000Y-96550000D01*
X125390000Y-96550000D01*
X124640000Y-96550000D01*
X124540000Y-96650000D01*
X124538065Y-97750000D01*
X123801935Y-97750000D01*
X123801935Y-95250000D01*
X124538065Y-95250000D01*
X124540000Y-96350000D01*
X124640000Y-96450000D01*
X125390000Y-96450000D01*
X125390000Y-94950000D01*
X125490000Y-94950000D01*
X125490000Y-96450000D01*
X126240000Y-96450000D01*
X126340000Y-96350000D01*
X126341935Y-95250000D01*
X126334212Y-95171586D01*
X126311340Y-95096186D01*
X126274197Y-95026697D01*
X126224211Y-94965789D01*
X126163303Y-94915803D01*
X126093814Y-94878660D01*
X126018414Y-94855788D01*
X125940000Y-94848065D01*
X125590000Y-94850000D01*
X125490000Y-94950000D01*
X125390000Y-94950000D01*
X125290000Y-94850000D01*
X124940000Y-94848065D01*
X124861586Y-94855788D01*
X124786186Y-94878660D01*
X124716697Y-94915803D01*
X124655789Y-94965789D01*
X124605803Y-95026697D01*
X124568660Y-95096186D01*
X124545788Y-95171586D01*
X124538065Y-95250000D01*
X123801935Y-95250000D01*
X123794212Y-95171586D01*
X123771340Y-95096186D01*
X123734197Y-95026697D01*
X123684211Y-94965789D01*
X123623303Y-94915803D01*
X123553814Y-94878660D01*
X123478414Y-94855788D01*
X123400000Y-94848065D01*
X122400000Y-94848065D01*
X122321586Y-94855788D01*
X122246186Y-94878660D01*
X122176697Y-94915803D01*
X122115789Y-94965789D01*
X122065803Y-95026697D01*
X122028660Y-95096186D01*
X122005788Y-95171586D01*
X121998065Y-95250000D01*
X121998065Y-97750000D01*
X122005788Y-97828414D01*
X122028660Y-97903814D01*
X122065803Y-97973303D01*
X122115789Y-98034211D01*
X122176697Y-98084197D01*
X122246186Y-98121340D01*
X122321586Y-98144212D01*
X122325000Y-98144548D01*
X122325000Y-98371756D01*
X122322218Y-98400000D01*
X122325000Y-98428243D01*
X122325000Y-98428245D01*
X122333320Y-98512719D01*
X122363857Y-98613386D01*
X122366199Y-98621107D01*
X122419592Y-98720998D01*
X122444287Y-98751089D01*
X122491446Y-98808554D01*
X122513393Y-98826565D01*
X122925001Y-99238174D01*
X122925001Y-99357611D01*
X122898592Y-99379284D01*
X122829284Y-99448592D01*
X122779298Y-99509500D01*
X122724842Y-99590999D01*
X122687699Y-99660490D01*
X122650190Y-99751046D01*
X122627318Y-99826445D01*
X122608196Y-99922578D01*
X122600473Y-100000991D01*
X122600473Y-100025551D01*
X122598065Y-100050000D01*
X122598065Y-100550000D01*
X122600473Y-100574449D01*
X122600473Y-100599009D01*
X122608196Y-100677422D01*
X122627318Y-100773555D01*
X122650190Y-100848954D01*
X122687699Y-100939510D01*
X122724842Y-101009001D01*
X122779298Y-101090500D01*
X122829284Y-101151408D01*
X122898592Y-101220716D01*
X122925001Y-101242389D01*
X122925001Y-101671747D01*
X122922218Y-101700000D01*
X122926404Y-101742495D01*
X122933321Y-101812720D01*
X122938031Y-101828246D01*
X122966199Y-101921107D01*
X123019592Y-102020998D01*
X123065441Y-102076865D01*
X123091447Y-102108554D01*
X123113389Y-102126561D01*
X123773434Y-102786606D01*
X123791446Y-102808554D01*
X123879002Y-102880408D01*
X123978892Y-102933801D01*
X124087280Y-102966680D01*
X124171754Y-102975000D01*
X124171756Y-102975000D01*
X124199999Y-102977782D01*
X124228242Y-102975000D01*
X136858065Y-102975000D01*
X136858065Y-103650000D01*
X136865788Y-103728414D01*
X136888660Y-103803814D01*
X136925803Y-103873303D01*
X136975789Y-103934211D01*
X137036697Y-103984197D01*
X137106186Y-104021340D01*
X137181586Y-104044212D01*
X137260000Y-104051935D01*
X138260000Y-104051935D01*
X138338414Y-104044212D01*
X138413814Y-104021340D01*
X138483303Y-103984197D01*
X138544211Y-103934211D01*
X138594197Y-103873303D01*
X138631340Y-103803814D01*
X138654212Y-103728414D01*
X138661935Y-103650000D01*
X138661935Y-102375107D01*
X139073439Y-102786612D01*
X139091446Y-102808554D01*
X139113386Y-102826559D01*
X139179001Y-102880408D01*
X139251920Y-102919384D01*
X139278892Y-102933801D01*
X139387280Y-102966680D01*
X139398065Y-102967742D01*
X139398065Y-103650000D01*
X139405788Y-103728414D01*
X139428660Y-103803814D01*
X139465803Y-103873303D01*
X139515789Y-103934211D01*
X139576697Y-103984197D01*
X139646186Y-104021340D01*
X139721586Y-104044212D01*
X139800000Y-104051935D01*
X140800000Y-104051935D01*
X140878414Y-104044212D01*
X140953814Y-104021340D01*
X141023303Y-103984197D01*
X141084211Y-103934211D01*
X141134197Y-103873303D01*
X141171340Y-103803814D01*
X141194157Y-103728594D01*
X144674994Y-103728594D01*
X144674994Y-103871406D01*
X144702855Y-104011475D01*
X144757507Y-104143416D01*
X144836850Y-104262161D01*
X144937833Y-104363144D01*
X145056578Y-104442487D01*
X145188519Y-104497139D01*
X145328588Y-104525000D01*
X145471400Y-104525000D01*
X145611469Y-104497139D01*
X145743410Y-104442487D01*
X145862155Y-104363144D01*
X145963138Y-104262161D01*
X146042481Y-104143416D01*
X146097133Y-104011475D01*
X146124994Y-103871406D01*
X146124994Y-103728594D01*
X146097133Y-103588525D01*
X146042481Y-103456584D01*
X145963138Y-103337839D01*
X145862155Y-103236856D01*
X145743410Y-103157513D01*
X145611469Y-103102861D01*
X145471400Y-103075000D01*
X145328588Y-103075000D01*
X145188519Y-103102861D01*
X145056578Y-103157513D01*
X144937833Y-103236856D01*
X144836850Y-103337839D01*
X144757507Y-103456584D01*
X144702855Y-103588525D01*
X144674994Y-103728594D01*
X141194157Y-103728594D01*
X141194212Y-103728414D01*
X141201935Y-103650000D01*
X141201935Y-102490598D01*
X141220998Y-102480408D01*
X141308554Y-102408554D01*
X141326566Y-102386606D01*
X141586608Y-102126564D01*
X141608554Y-102108554D01*
X141680408Y-102020998D01*
X141733801Y-101921108D01*
X141766680Y-101812720D01*
X141775000Y-101728246D01*
X141775000Y-101728244D01*
X141777782Y-101700001D01*
X141775000Y-101671758D01*
X141775000Y-101544425D01*
X141842487Y-101443424D01*
X141897139Y-101311483D01*
X141925000Y-101171414D01*
X141925000Y-101028602D01*
X141897139Y-100888533D01*
X141842487Y-100756592D01*
X141763144Y-100637847D01*
X141662161Y-100536864D01*
X141543416Y-100457521D01*
X141411475Y-100402869D01*
X141271406Y-100375008D01*
X141128594Y-100375008D01*
X140988525Y-100402869D01*
X140856584Y-100457521D01*
X140737839Y-100536864D01*
X140636856Y-100637847D01*
X140563211Y-100748065D01*
X139800000Y-100748065D01*
X139721586Y-100755788D01*
X139646186Y-100778660D01*
X139576697Y-100815803D01*
X139515789Y-100865789D01*
X139476428Y-100913751D01*
X139477782Y-100900000D01*
X139472754Y-100848954D01*
X139466680Y-100787280D01*
X139433801Y-100678892D01*
X139411862Y-100637847D01*
X139380408Y-100579001D01*
X139336129Y-100525047D01*
X139308554Y-100491446D01*
X139286612Y-100473439D01*
X139138173Y-100325000D01*
X141179126Y-100325000D01*
X141200000Y-100327056D01*
X141220874Y-100325000D01*
X141283314Y-100318850D01*
X141363427Y-100294548D01*
X141437260Y-100255084D01*
X141501974Y-100201974D01*
X141555084Y-100137260D01*
X141594548Y-100063427D01*
X141618850Y-99983314D01*
X141627056Y-99900000D01*
X141625000Y-99879126D01*
X141625000Y-95328588D01*
X142475000Y-95328588D01*
X142475000Y-95471400D01*
X142502861Y-95611469D01*
X142557513Y-95743410D01*
X142636856Y-95862155D01*
X142737839Y-95963138D01*
X142856584Y-96042481D01*
X142988525Y-96097133D01*
X143128594Y-96124994D01*
X143271406Y-96124994D01*
X143411475Y-96097133D01*
X143543416Y-96042481D01*
X143662161Y-95963138D01*
X143763144Y-95862155D01*
X143842487Y-95743410D01*
X143897139Y-95611469D01*
X143925000Y-95471400D01*
X143925000Y-95328588D01*
X143897139Y-95188519D01*
X143842487Y-95056578D01*
X143763144Y-94937833D01*
X143662161Y-94836850D01*
X143543416Y-94757507D01*
X143411475Y-94702855D01*
X143271406Y-94674994D01*
X143128594Y-94674994D01*
X142988525Y-94702855D01*
X142856584Y-94757507D01*
X142737839Y-94836850D01*
X142636856Y-94937833D01*
X142557513Y-95056578D01*
X142502861Y-95188519D01*
X142475000Y-95328588D01*
X141625000Y-95328588D01*
X141625000Y-92927821D01*
X147264700Y-92927821D01*
X147264700Y-93104179D01*
X147299106Y-93277149D01*
X147366595Y-93440084D01*
X147464575Y-93586720D01*
X147589280Y-93711425D01*
X147735916Y-93809405D01*
X147898851Y-93876894D01*
X148071821Y-93911300D01*
X148248179Y-93911300D01*
X148421149Y-93876894D01*
X148584084Y-93809405D01*
X148730720Y-93711425D01*
X148855425Y-93586720D01*
X148953405Y-93440084D01*
X149020894Y-93277149D01*
X149055300Y-93104179D01*
X149055300Y-92927821D01*
X149020894Y-92754851D01*
X148953405Y-92591916D01*
X148855425Y-92445280D01*
X148730720Y-92320575D01*
X148584084Y-92222595D01*
X148421149Y-92155106D01*
X148248179Y-92120700D01*
X148071821Y-92120700D01*
X147898851Y-92155106D01*
X147735916Y-92222595D01*
X147589280Y-92320575D01*
X147464575Y-92445280D01*
X147366595Y-92591916D01*
X147299106Y-92754851D01*
X147264700Y-92927821D01*
X141625000Y-92927821D01*
X141625000Y-91911821D01*
X152344700Y-91911821D01*
X152344700Y-92088179D01*
X152379106Y-92261149D01*
X152446595Y-92424084D01*
X152544575Y-92570720D01*
X152669280Y-92695425D01*
X152815916Y-92793405D01*
X152978851Y-92860894D01*
X153151821Y-92895300D01*
X153328179Y-92895300D01*
X153501149Y-92860894D01*
X153664084Y-92793405D01*
X153810720Y-92695425D01*
X153935425Y-92570720D01*
X154033405Y-92424084D01*
X154100894Y-92261149D01*
X154135300Y-92088179D01*
X154135300Y-91911821D01*
X154100894Y-91738851D01*
X154033405Y-91575916D01*
X153935425Y-91429280D01*
X153810720Y-91304575D01*
X153664084Y-91206595D01*
X153501149Y-91139106D01*
X153328179Y-91104700D01*
X153151821Y-91104700D01*
X152978851Y-91139106D01*
X152815916Y-91206595D01*
X152669280Y-91304575D01*
X152544575Y-91429280D01*
X152446595Y-91575916D01*
X152379106Y-91738851D01*
X152344700Y-91911821D01*
X141625000Y-91911821D01*
X141625000Y-90895821D01*
X147264700Y-90895821D01*
X147264700Y-91072179D01*
X147299106Y-91245149D01*
X147366595Y-91408084D01*
X147464575Y-91554720D01*
X147589280Y-91679425D01*
X147735916Y-91777405D01*
X147898851Y-91844894D01*
X148071821Y-91879300D01*
X148248179Y-91879300D01*
X148421149Y-91844894D01*
X148584084Y-91777405D01*
X148730720Y-91679425D01*
X148855425Y-91554720D01*
X148953405Y-91408084D01*
X149020894Y-91245149D01*
X149055300Y-91072179D01*
X149055300Y-90895821D01*
X149020894Y-90722851D01*
X148953405Y-90559916D01*
X148855425Y-90413280D01*
X148730720Y-90288575D01*
X148584084Y-90190595D01*
X148421149Y-90123106D01*
X148248179Y-90088700D01*
X148071821Y-90088700D01*
X147898851Y-90123106D01*
X147735916Y-90190595D01*
X147589280Y-90288575D01*
X147464575Y-90413280D01*
X147366595Y-90559916D01*
X147299106Y-90722851D01*
X147264700Y-90895821D01*
X141625000Y-90895821D01*
X141625000Y-89928613D01*
X152674981Y-89928613D01*
X152674981Y-90071425D01*
X152702842Y-90211494D01*
X152757494Y-90343435D01*
X152836837Y-90462180D01*
X152937820Y-90563163D01*
X153056565Y-90642506D01*
X153188506Y-90697158D01*
X153328575Y-90725019D01*
X153471387Y-90725019D01*
X153611456Y-90697158D01*
X153743397Y-90642506D01*
X153862142Y-90563163D01*
X153963125Y-90462180D01*
X154042468Y-90343435D01*
X154097120Y-90211494D01*
X154124981Y-90071425D01*
X154124981Y-89928613D01*
X154097120Y-89788544D01*
X154042468Y-89656603D01*
X153963125Y-89537858D01*
X153862142Y-89436875D01*
X153743397Y-89357532D01*
X153611456Y-89302880D01*
X153471387Y-89275019D01*
X153328575Y-89275019D01*
X153188506Y-89302880D01*
X153056565Y-89357532D01*
X152937820Y-89436875D01*
X152836837Y-89537858D01*
X152757494Y-89656603D01*
X152702842Y-89788544D01*
X152674981Y-89928613D01*
X141625000Y-89928613D01*
X141625000Y-88925000D01*
X158600000Y-88925000D01*
X158600000Y-107400000D01*
X151925305Y-107400000D01*
X151862161Y-107336856D01*
X151743416Y-107257513D01*
X151611475Y-107202861D01*
X151471406Y-107175000D01*
X151328594Y-107175000D01*
X151188525Y-107202861D01*
X151056584Y-107257513D01*
X150937839Y-107336856D01*
X150836856Y-107437839D01*
X150757513Y-107556584D01*
X150702861Y-107688525D01*
X150675000Y-107828594D01*
X150675000Y-107971406D01*
X150702861Y-108111475D01*
X150757513Y-108243416D01*
X150836856Y-108362161D01*
X150937839Y-108463144D01*
X151056584Y-108542487D01*
X151188525Y-108597139D01*
X151328594Y-108625000D01*
X151471406Y-108625000D01*
X151611475Y-108597139D01*
X151743416Y-108542487D01*
X151862161Y-108463144D01*
X151925305Y-108400000D01*
X158600000Y-108400000D01*
X158600000Y-118275000D01*
X144170269Y-118275000D01*
X144237948Y-118192534D01*
X144328855Y-118022459D01*
X144384835Y-117837917D01*
X144399001Y-117694086D01*
X144399001Y-116297914D01*
X144384835Y-116154083D01*
X144328855Y-115969541D01*
X144237948Y-115799466D01*
X144115607Y-115650394D01*
X143966535Y-115528053D01*
X143796459Y-115437146D01*
X143611917Y-115381166D01*
X143420001Y-115362264D01*
X143228084Y-115381166D01*
X143043542Y-115437146D01*
X142873467Y-115528053D01*
X142724395Y-115650394D01*
X142602054Y-115799466D01*
X142511147Y-115969542D01*
X142455167Y-116154084D01*
X142441001Y-116297915D01*
X142441002Y-117694086D01*
X142455168Y-117837917D01*
X142511148Y-118022459D01*
X142602055Y-118192534D01*
X142669734Y-118275000D01*
X135530266Y-118275000D01*
X135597945Y-118192534D01*
X135688852Y-118022459D01*
X135744832Y-117837917D01*
X135758998Y-117694086D01*
X135758998Y-116297914D01*
X135744832Y-116154083D01*
X135688852Y-115969541D01*
X135597945Y-115799466D01*
X135475604Y-115650394D01*
X135326532Y-115528053D01*
X135156456Y-115437146D01*
X134971914Y-115381166D01*
X134779998Y-115362264D01*
X134588081Y-115381166D01*
X134403539Y-115437146D01*
X134233464Y-115528053D01*
X134084392Y-115650394D01*
X133962051Y-115799466D01*
X133871144Y-115969542D01*
X133815164Y-116154084D01*
X133800998Y-116297915D01*
X133800999Y-117694086D01*
X133815165Y-117837917D01*
X133871145Y-118022459D01*
X133962052Y-118192534D01*
X134029731Y-118275000D01*
X119400000Y-118275000D01*
X119400000Y-112711358D01*
X126500000Y-112711358D01*
X126500000Y-112888642D01*
X126534586Y-113062520D01*
X126602430Y-113226310D01*
X126700924Y-113373717D01*
X126826283Y-113499076D01*
X126973690Y-113597570D01*
X127137480Y-113665414D01*
X127311358Y-113700000D01*
X127488642Y-113700000D01*
X127662520Y-113665414D01*
X127826310Y-113597570D01*
X127973717Y-113499076D01*
X128099076Y-113373717D01*
X128148332Y-113300000D01*
X129774695Y-113300000D01*
X129837839Y-113363144D01*
X129956584Y-113442487D01*
X130088525Y-113497139D01*
X130228594Y-113525000D01*
X130371406Y-113525000D01*
X130511475Y-113497139D01*
X130643416Y-113442487D01*
X130762161Y-113363144D01*
X130863144Y-113262161D01*
X130942487Y-113143416D01*
X130997139Y-113011475D01*
X131025000Y-112871406D01*
X131025000Y-112728594D01*
X131003980Y-112622914D01*
X133800998Y-112622914D01*
X133800999Y-113719085D01*
X133815165Y-113862916D01*
X133871145Y-114047458D01*
X133962052Y-114217533D01*
X134084393Y-114366605D01*
X134233465Y-114488946D01*
X134403540Y-114579853D01*
X134588082Y-114635833D01*
X134779998Y-114654735D01*
X134971915Y-114635833D01*
X135156457Y-114579853D01*
X135326532Y-114488946D01*
X135475604Y-114366605D01*
X135597945Y-114217533D01*
X135647982Y-114123921D01*
X135756584Y-114196487D01*
X135888525Y-114251139D01*
X136028594Y-114279000D01*
X136171406Y-114279000D01*
X136311475Y-114251139D01*
X136443416Y-114196487D01*
X136562161Y-114117144D01*
X136663144Y-114016161D01*
X136742487Y-113897416D01*
X136797139Y-113765475D01*
X136825000Y-113625406D01*
X136825000Y-113528594D01*
X138075000Y-113528594D01*
X138075000Y-113671406D01*
X138102861Y-113811475D01*
X138157513Y-113943416D01*
X138236856Y-114062161D01*
X138337839Y-114163144D01*
X138456584Y-114242487D01*
X138588525Y-114297139D01*
X138728594Y-114325000D01*
X138871406Y-114325000D01*
X139011475Y-114297139D01*
X139143416Y-114242487D01*
X139262161Y-114163144D01*
X139363144Y-114062161D01*
X139442487Y-113943416D01*
X139497139Y-113811475D01*
X139525000Y-113671406D01*
X139525000Y-113554001D01*
X141271492Y-113554001D01*
X141285490Y-113696126D01*
X141326946Y-113832789D01*
X141394268Y-113958738D01*
X141484867Y-114069133D01*
X141595262Y-114159732D01*
X141721211Y-114227054D01*
X141857874Y-114268510D01*
X141964392Y-114279001D01*
X142235606Y-114279001D01*
X142342124Y-114268510D01*
X142478787Y-114227054D01*
X142578310Y-114173857D01*
X142601655Y-114217533D01*
X142723996Y-114366605D01*
X142873068Y-114488946D01*
X143043143Y-114579853D01*
X143227685Y-114635833D01*
X143419601Y-114654735D01*
X143611518Y-114635833D01*
X143796060Y-114579853D01*
X143966135Y-114488946D01*
X144115207Y-114366605D01*
X144237548Y-114217533D01*
X144328455Y-114047458D01*
X144384435Y-113862916D01*
X144398601Y-113719084D01*
X144398601Y-112622913D01*
X144384435Y-112479082D01*
X144328455Y-112294540D01*
X144237548Y-112124465D01*
X144158869Y-112028594D01*
X149975000Y-112028594D01*
X149975000Y-112171406D01*
X150002861Y-112311475D01*
X150057513Y-112443416D01*
X150136856Y-112562161D01*
X150237839Y-112663144D01*
X150356584Y-112742487D01*
X150488525Y-112797139D01*
X150628594Y-112825000D01*
X150771406Y-112825000D01*
X150911475Y-112797139D01*
X151043416Y-112742487D01*
X151162161Y-112663144D01*
X151209100Y-112616205D01*
X151217296Y-112624402D01*
X151200000Y-112711358D01*
X151200000Y-112888642D01*
X151234586Y-113062520D01*
X151302430Y-113226310D01*
X151400924Y-113373717D01*
X151526283Y-113499076D01*
X151673690Y-113597570D01*
X151837480Y-113665414D01*
X152011358Y-113700000D01*
X152188642Y-113700000D01*
X152362520Y-113665414D01*
X152526310Y-113597570D01*
X152673717Y-113499076D01*
X152799076Y-113373717D01*
X152897570Y-113226310D01*
X152965414Y-113062520D01*
X153000000Y-112888642D01*
X153000000Y-112711358D01*
X152965414Y-112537480D01*
X152897570Y-112373690D01*
X152799076Y-112226283D01*
X152673717Y-112100924D01*
X152526310Y-112002430D01*
X152362520Y-111934586D01*
X152188642Y-111900000D01*
X152011358Y-111900000D01*
X151924402Y-111917296D01*
X151770929Y-111763824D01*
X151755264Y-111744736D01*
X151679129Y-111682254D01*
X151592267Y-111635825D01*
X151498017Y-111607235D01*
X151424560Y-111600000D01*
X151400000Y-111597581D01*
X151375440Y-111600000D01*
X151225305Y-111600000D01*
X151162161Y-111536856D01*
X151043416Y-111457513D01*
X150911475Y-111402861D01*
X150771406Y-111375000D01*
X150628594Y-111375000D01*
X150488525Y-111402861D01*
X150356584Y-111457513D01*
X150237839Y-111536856D01*
X150136856Y-111637839D01*
X150057513Y-111756584D01*
X150002861Y-111888525D01*
X149975000Y-112028594D01*
X144158869Y-112028594D01*
X144115207Y-111975393D01*
X143966135Y-111853052D01*
X143796059Y-111762145D01*
X143611517Y-111706165D01*
X143419601Y-111687263D01*
X143227684Y-111706165D01*
X143043142Y-111762145D01*
X142873067Y-111853052D01*
X142723995Y-111975393D01*
X142601654Y-112124465D01*
X142510747Y-112294541D01*
X142454767Y-112479083D01*
X142440601Y-112622914D01*
X142440601Y-112869365D01*
X142342124Y-112839492D01*
X142235606Y-112829001D01*
X141964392Y-112829001D01*
X141857874Y-112839492D01*
X141721211Y-112880948D01*
X141595262Y-112948270D01*
X141484867Y-113038869D01*
X141394268Y-113149264D01*
X141326946Y-113275213D01*
X141285490Y-113411876D01*
X141271492Y-113554001D01*
X139525000Y-113554001D01*
X139525000Y-113528594D01*
X139497139Y-113388525D01*
X139442487Y-113256584D01*
X139363144Y-113137839D01*
X139262161Y-113036856D01*
X139143416Y-112957513D01*
X139011475Y-112902861D01*
X138871406Y-112875000D01*
X138728594Y-112875000D01*
X138588525Y-112902861D01*
X138456584Y-112957513D01*
X138337839Y-113036856D01*
X138236856Y-113137839D01*
X138157513Y-113256584D01*
X138102861Y-113388525D01*
X138075000Y-113528594D01*
X136825000Y-113528594D01*
X136825000Y-113482594D01*
X136797139Y-113342525D01*
X136742487Y-113210584D01*
X136663144Y-113091839D01*
X136562161Y-112990856D01*
X136443416Y-112911513D01*
X136311475Y-112856861D01*
X136171406Y-112829000D01*
X136028594Y-112829000D01*
X135888525Y-112856861D01*
X135758998Y-112910513D01*
X135758998Y-112622913D01*
X135744832Y-112479082D01*
X135688852Y-112294540D01*
X135597945Y-112124465D01*
X135475604Y-111975393D01*
X135326532Y-111853052D01*
X135156456Y-111762145D01*
X134971914Y-111706165D01*
X134779998Y-111687263D01*
X134588081Y-111706165D01*
X134403539Y-111762145D01*
X134233464Y-111853052D01*
X134084392Y-111975393D01*
X133962051Y-112124465D01*
X133871144Y-112294541D01*
X133815164Y-112479083D01*
X133800998Y-112622914D01*
X131003980Y-112622914D01*
X130997139Y-112588525D01*
X130942487Y-112456584D01*
X130863144Y-112337839D01*
X130762161Y-112236856D01*
X130643416Y-112157513D01*
X130511475Y-112102861D01*
X130371406Y-112075000D01*
X130228594Y-112075000D01*
X130088525Y-112102861D01*
X129956584Y-112157513D01*
X129837839Y-112236856D01*
X129774695Y-112300000D01*
X128148332Y-112300000D01*
X128099076Y-112226283D01*
X127973717Y-112100924D01*
X127826310Y-112002430D01*
X127662520Y-111934586D01*
X127488642Y-111900000D01*
X127311358Y-111900000D01*
X127137480Y-111934586D01*
X126973690Y-112002430D01*
X126826283Y-112100924D01*
X126700924Y-112226283D01*
X126602430Y-112373690D01*
X126534586Y-112537480D01*
X126500000Y-112711358D01*
X119400000Y-112711358D01*
X119400000Y-110611358D01*
X126500000Y-110611358D01*
X126500000Y-110788642D01*
X126534586Y-110962520D01*
X126602430Y-111126310D01*
X126700924Y-111273717D01*
X126826283Y-111399076D01*
X126973690Y-111497570D01*
X127137480Y-111565414D01*
X127311358Y-111600000D01*
X127488642Y-111600000D01*
X127662520Y-111565414D01*
X127826310Y-111497570D01*
X127973717Y-111399076D01*
X128099076Y-111273717D01*
X128148332Y-111200000D01*
X129174695Y-111200000D01*
X129237839Y-111263144D01*
X129356584Y-111342487D01*
X129488525Y-111397139D01*
X129628594Y-111425000D01*
X129771406Y-111425000D01*
X129911475Y-111397139D01*
X130043416Y-111342487D01*
X130162161Y-111263144D01*
X130263144Y-111162161D01*
X130342487Y-111043416D01*
X130397139Y-110911475D01*
X130425000Y-110771406D01*
X130425000Y-110628594D01*
X130397139Y-110488525D01*
X130342487Y-110356584D01*
X130263144Y-110237839D01*
X130162161Y-110136856D01*
X130043416Y-110057513D01*
X129911475Y-110002861D01*
X129771406Y-109975000D01*
X129628594Y-109975000D01*
X129488525Y-110002861D01*
X129356584Y-110057513D01*
X129237839Y-110136856D01*
X129174695Y-110200000D01*
X128148332Y-110200000D01*
X128099076Y-110126283D01*
X127973717Y-110000924D01*
X127826310Y-109902430D01*
X127662520Y-109834586D01*
X127488642Y-109800000D01*
X127311358Y-109800000D01*
X127137480Y-109834586D01*
X126973690Y-109902430D01*
X126826283Y-110000924D01*
X126700924Y-110126283D01*
X126602430Y-110273690D01*
X126534586Y-110437480D01*
X126500000Y-110611358D01*
X119400000Y-110611358D01*
X119400000Y-108511358D01*
X126500000Y-108511358D01*
X126500000Y-108688642D01*
X126534586Y-108862520D01*
X126602430Y-109026310D01*
X126700924Y-109173717D01*
X126826283Y-109299076D01*
X126973690Y-109397570D01*
X127137480Y-109465414D01*
X127311358Y-109500000D01*
X127488642Y-109500000D01*
X127662520Y-109465414D01*
X127826310Y-109397570D01*
X127973717Y-109299076D01*
X128099076Y-109173717D01*
X128148332Y-109100000D01*
X128574695Y-109100000D01*
X128637839Y-109163144D01*
X128756584Y-109242487D01*
X128888525Y-109297139D01*
X129028594Y-109325000D01*
X129171406Y-109325000D01*
X129311475Y-109297139D01*
X129443416Y-109242487D01*
X129562161Y-109163144D01*
X129663144Y-109062161D01*
X129742487Y-108943416D01*
X129797139Y-108811475D01*
X129825000Y-108671406D01*
X129825000Y-108528594D01*
X129797139Y-108388525D01*
X129742487Y-108256584D01*
X129663144Y-108137839D01*
X129562161Y-108036856D01*
X129443416Y-107957513D01*
X129311475Y-107902861D01*
X129171406Y-107875000D01*
X129028594Y-107875000D01*
X128888525Y-107902861D01*
X128756584Y-107957513D01*
X128637839Y-108036856D01*
X128574695Y-108100000D01*
X128148332Y-108100000D01*
X128099076Y-108026283D01*
X127973717Y-107900924D01*
X127826310Y-107802430D01*
X127662520Y-107734586D01*
X127488642Y-107700000D01*
X127311358Y-107700000D01*
X127137480Y-107734586D01*
X126973690Y-107802430D01*
X126826283Y-107900924D01*
X126700924Y-108026283D01*
X126602430Y-108173690D01*
X126534586Y-108337480D01*
X126500000Y-108511358D01*
X119400000Y-108511358D01*
X119400000Y-105800000D01*
X126827666Y-105800000D01*
X126826283Y-105800924D01*
X126700924Y-105926283D01*
X126602430Y-106073690D01*
X126534586Y-106237480D01*
X126500000Y-106411358D01*
X126500000Y-106588642D01*
X126534586Y-106762520D01*
X126602430Y-106926310D01*
X126700924Y-107073717D01*
X126826283Y-107199076D01*
X126973690Y-107297570D01*
X127137480Y-107365414D01*
X127311358Y-107400000D01*
X127488642Y-107400000D01*
X127662520Y-107365414D01*
X127826310Y-107297570D01*
X127973717Y-107199076D01*
X128099076Y-107073717D01*
X128148332Y-107000000D01*
X130374695Y-107000000D01*
X130437839Y-107063144D01*
X130556584Y-107142487D01*
X130688525Y-107197139D01*
X130828594Y-107225000D01*
X130971406Y-107225000D01*
X131111475Y-107197139D01*
X131243416Y-107142487D01*
X131362161Y-107063144D01*
X131463144Y-106962161D01*
X131542487Y-106843416D01*
X131597139Y-106711475D01*
X131625000Y-106571406D01*
X131625000Y-106428594D01*
X131597139Y-106288525D01*
X131542487Y-106156584D01*
X131463144Y-106037839D01*
X131362161Y-105936856D01*
X131243416Y-105857513D01*
X131111475Y-105802861D01*
X131097092Y-105800000D01*
X150975440Y-105800000D01*
X151000000Y-105802419D01*
X151024560Y-105800000D01*
X151098017Y-105792765D01*
X151192267Y-105764175D01*
X151279129Y-105717746D01*
X151355264Y-105655264D01*
X151370928Y-105636177D01*
X151382105Y-105625000D01*
X151471406Y-105625000D01*
X151611475Y-105597139D01*
X151743416Y-105542487D01*
X151862161Y-105463144D01*
X151963144Y-105362161D01*
X152042487Y-105243416D01*
X152097139Y-105111475D01*
X152125000Y-104971406D01*
X152125000Y-104828594D01*
X152097139Y-104688525D01*
X152042487Y-104556584D01*
X151963144Y-104437839D01*
X151862161Y-104336856D01*
X151743416Y-104257513D01*
X151611475Y-104202861D01*
X151471406Y-104175000D01*
X151328594Y-104175000D01*
X151188525Y-104202861D01*
X151056584Y-104257513D01*
X150937839Y-104336856D01*
X150836856Y-104437839D01*
X150757513Y-104556584D01*
X150702861Y-104688525D01*
X150680688Y-104800000D01*
X119400000Y-104800000D01*
X119400000Y-88925000D01*
X136675001Y-88925000D01*
X136675000Y-99825000D01*
G37*
%TD.AperFunction*%
%TD*%
M02*
