%TF.GenerationSoftware,KiCad,Pcbnew,(6.0.0-0)*%
%TF.CreationDate,2022-01-28T12:00:07+01:00*%
%TF.ProjectId,s1-ecg-demo,73312d65-6367-42d6-9465-6d6f2e6b6963,2*%
%TF.SameCoordinates,Original*%
%TF.FileFunction,Soldermask,Bot*%
%TF.FilePolarity,Negative*%
%FSLAX46Y46*%
G04 Gerber Fmt 4.6, Leading zero omitted, Abs format (unit mm)*
G04 Created by KiCad (PCBNEW (6.0.0-0)) date 2022-01-28 12:00:07*
%MOMM*%
%LPD*%
G01*
G04 APERTURE LIST*
G04 Aperture macros list*
%AMRoundRect*
0 Rectangle with rounded corners*
0 $1 Rounding radius*
0 $2 $3 $4 $5 $6 $7 $8 $9 X,Y pos of 4 corners*
0 Add a 4 corners polygon primitive as box body*
4,1,4,$2,$3,$4,$5,$6,$7,$8,$9,$2,$3,0*
0 Add four circle primitives for the rounded corners*
1,1,$1+$1,$2,$3*
1,1,$1+$1,$4,$5*
1,1,$1+$1,$6,$7*
1,1,$1+$1,$8,$9*
0 Add four rect primitives between the rounded corners*
20,1,$1+$1,$2,$3,$4,$5,0*
20,1,$1+$1,$4,$5,$6,$7,0*
20,1,$1+$1,$6,$7,$8,$9,0*
20,1,$1+$1,$8,$9,$2,$3,0*%
G04 Aperture macros list end*
%ADD10C,1.900000*%
%ADD11C,0.100000*%
%ADD12C,1.090600*%
%ADD13O,1.258000X2.258000*%
%ADD14O,1.258000X2.558000*%
%ADD15O,0.950000X0.750000*%
%ADD16C,0.750000*%
%ADD17C,1.100000*%
%ADD18RoundRect,0.431000X-0.381000X-0.381000X0.381000X-0.381000X0.381000X0.381000X-0.381000X0.381000X0*%
%ADD19RoundRect,0.050000X-0.500000X-1.250000X0.500000X-1.250000X0.500000X1.250000X-0.500000X1.250000X0*%
%ADD20RoundRect,0.050000X0.500000X1.250000X-0.500000X1.250000X-0.500000X-1.250000X0.500000X-1.250000X0*%
G04 APERTURE END LIST*
D10*
X164100000Y-117100000D02*
G75*
G03*
X164100000Y-90100000I0J13500000D01*
G01*
D11*
X173300000Y-114600000D02*
X178200000Y-103600000D01*
X178200000Y-103600000D02*
X173300000Y-92700000D01*
X173300000Y-92700000D02*
X164100000Y-89200000D01*
X164100000Y-89200000D02*
X159100000Y-89200000D01*
X159100000Y-89200000D02*
X159150000Y-118000000D01*
X159150000Y-118000000D02*
X164250000Y-118000000D01*
X164250000Y-118000000D02*
X173300000Y-114600000D01*
G36*
X173300000Y-92700000D02*
G01*
X178200000Y-103600000D01*
X173300000Y-114600000D01*
X164250000Y-118000000D01*
X159150000Y-118000000D01*
X159100000Y-89200000D01*
X164100000Y-89200000D01*
X173300000Y-92700000D01*
G37*
X173300000Y-92700000D02*
X178200000Y-103600000D01*
X173300000Y-114600000D01*
X164250000Y-118000000D01*
X159150000Y-118000000D01*
X159100000Y-89200000D01*
X164100000Y-89200000D01*
X173300000Y-92700000D01*
D10*
X164100000Y-117100000D02*
G75*
G03*
X164100000Y-90100000I0J13500000D01*
G01*
D11*
X173300000Y-114600000D02*
X178200000Y-103600000D01*
X178200000Y-103600000D02*
X173300000Y-92700000D01*
X173300000Y-92700000D02*
X164100000Y-89200000D01*
X164100000Y-89200000D02*
X159100000Y-89200000D01*
X159100000Y-89200000D02*
X159150000Y-118000000D01*
X159150000Y-118000000D02*
X164250000Y-118000000D01*
X164250000Y-118000000D02*
X173300000Y-114600000D01*
G36*
X173300000Y-92700000D02*
G01*
X178200000Y-103600000D01*
X173300000Y-114600000D01*
X164250000Y-118000000D01*
X159150000Y-118000000D01*
X159100000Y-89200000D01*
X164100000Y-89200000D01*
X173300000Y-92700000D01*
G37*
X173300000Y-92700000D02*
X178200000Y-103600000D01*
X173300000Y-114600000D01*
X164250000Y-118000000D01*
X159150000Y-118000000D01*
X159100000Y-89200000D01*
X164100000Y-89200000D01*
X173300000Y-92700000D01*
D12*
%TO.C,J2*%
X148210000Y-94500000D03*
X153290000Y-95516000D03*
X153290000Y-93484000D03*
%TD*%
D13*
%TO.C,J6*%
X143419601Y-113170999D03*
D14*
X143420001Y-116996000D03*
D13*
X134779998Y-113170999D03*
D14*
X134779998Y-116996000D03*
D15*
X142099999Y-113554001D03*
D16*
X136100000Y-113554000D03*
%TD*%
D17*
%TO.C,TP1*%
X152100000Y-112800000D03*
%TD*%
%TO.C,TP5*%
X127400000Y-112800000D03*
%TD*%
%TO.C,TP4*%
X127400000Y-110700000D03*
%TD*%
%TO.C,TP3*%
X127400000Y-108600000D03*
%TD*%
%TO.C,TP2*%
X127400000Y-106500000D03*
%TD*%
D18*
%TO.C,J4*%
X159900000Y-103600000D03*
%TD*%
D19*
%TO.C,J5*%
X124990000Y-100200000D03*
X122450000Y-100200000D03*
%TD*%
D20*
%TO.C,J7*%
X137760000Y-102400000D03*
X140300000Y-102400000D03*
%TD*%
M02*
