%TF.GenerationSoftware,KiCad,Pcbnew,5.1.10-88a1d61d58~90~ubuntu20.04.1*%
%TF.CreationDate,2021-08-18T17:07:53+02:00*%
%TF.ProjectId,s1-ecg-demo,73312d65-6367-42d6-9465-6d6f2e6b6963,1*%
%TF.SameCoordinates,Original*%
%TF.FileFunction,Legend,Top*%
%TF.FilePolarity,Positive*%
%FSLAX46Y46*%
G04 Gerber Fmt 4.6, Leading zero omitted, Abs format (unit mm)*
G04 Created by KiCad (PCBNEW 5.1.10-88a1d61d58~90~ubuntu20.04.1) date 2021-08-18 17:07:53*
%MOMM*%
%LPD*%
G01*
G04 APERTURE LIST*
%ADD10C,0.300000*%
%ADD11C,0.275000*%
%ADD12C,0.120000*%
%ADD13C,0.010000*%
%ADD14C,0.050000*%
%ADD15C,0.100000*%
G04 APERTURE END LIST*
D10*
X130385714Y-104878571D02*
X130385714Y-103378571D01*
X130957142Y-103378571D01*
X131100000Y-103450000D01*
X131171428Y-103521428D01*
X131242857Y-103664285D01*
X131242857Y-103878571D01*
X131171428Y-104021428D01*
X131100000Y-104092857D01*
X130957142Y-104164285D01*
X130385714Y-104164285D01*
X132528571Y-103878571D02*
X132528571Y-104878571D01*
X131885714Y-103878571D02*
X131885714Y-104664285D01*
X131957142Y-104807142D01*
X132100000Y-104878571D01*
X132314285Y-104878571D01*
X132457142Y-104807142D01*
X132528571Y-104735714D01*
X133457142Y-104878571D02*
X133314285Y-104807142D01*
X133242857Y-104664285D01*
X133242857Y-103378571D01*
X133957142Y-104807142D02*
X134100000Y-104878571D01*
X134385714Y-104878571D01*
X134528571Y-104807142D01*
X134600000Y-104664285D01*
X134600000Y-104592857D01*
X134528571Y-104450000D01*
X134385714Y-104378571D01*
X134171428Y-104378571D01*
X134028571Y-104307142D01*
X133957142Y-104164285D01*
X133957142Y-104092857D01*
X134028571Y-103950000D01*
X134171428Y-103878571D01*
X134385714Y-103878571D01*
X134528571Y-103950000D01*
X135814285Y-104807142D02*
X135671428Y-104878571D01*
X135385714Y-104878571D01*
X135242857Y-104807142D01*
X135171428Y-104664285D01*
X135171428Y-104092857D01*
X135242857Y-103950000D01*
X135385714Y-103878571D01*
X135671428Y-103878571D01*
X135814285Y-103950000D01*
X135885714Y-104092857D01*
X135885714Y-104235714D01*
X135171428Y-104378571D01*
D11*
X122935535Y-91797619D02*
X122935535Y-90697619D01*
X122935535Y-91116666D02*
X123040297Y-91064285D01*
X123249821Y-91064285D01*
X123354583Y-91116666D01*
X123406964Y-91169047D01*
X123459345Y-91273809D01*
X123459345Y-91588095D01*
X123406964Y-91692857D01*
X123354583Y-91745238D01*
X123249821Y-91797619D01*
X123040297Y-91797619D01*
X122935535Y-91745238D01*
X124402202Y-91797619D02*
X124402202Y-91221428D01*
X124349821Y-91116666D01*
X124245059Y-91064285D01*
X124035535Y-91064285D01*
X123930773Y-91116666D01*
X124402202Y-91745238D02*
X124297440Y-91797619D01*
X124035535Y-91797619D01*
X123930773Y-91745238D01*
X123878392Y-91640476D01*
X123878392Y-91535714D01*
X123930773Y-91430952D01*
X124035535Y-91378571D01*
X124297440Y-91378571D01*
X124402202Y-91326190D01*
X124768869Y-91064285D02*
X125187916Y-91064285D01*
X124926011Y-90697619D02*
X124926011Y-91640476D01*
X124978392Y-91745238D01*
X125083154Y-91797619D01*
X125187916Y-91797619D01*
X125397440Y-91064285D02*
X125816488Y-91064285D01*
X125554583Y-90697619D02*
X125554583Y-91640476D01*
X125606964Y-91745238D01*
X125711726Y-91797619D01*
X125816488Y-91797619D01*
D10*
X122247857Y-91178571D02*
X122247857Y-89678571D01*
X132733571Y-91107142D02*
X132947857Y-91178571D01*
X133305000Y-91178571D01*
X133447857Y-91107142D01*
X133519285Y-91035714D01*
X133590714Y-90892857D01*
X133590714Y-90750000D01*
X133519285Y-90607142D01*
X133447857Y-90535714D01*
X133305000Y-90464285D01*
X133019285Y-90392857D01*
X132876428Y-90321428D01*
X132805000Y-90250000D01*
X132733571Y-90107142D01*
X132733571Y-89964285D01*
X132805000Y-89821428D01*
X132876428Y-89750000D01*
X133019285Y-89678571D01*
X133376428Y-89678571D01*
X133590714Y-89750000D01*
X135019285Y-91178571D02*
X134162142Y-91178571D01*
X134590714Y-91178571D02*
X134590714Y-89678571D01*
X134447857Y-89892857D01*
X134305000Y-90035714D01*
X134162142Y-90107142D01*
X144235714Y-95578571D02*
X144235714Y-94078571D01*
X144807142Y-94078571D01*
X144950000Y-94150000D01*
X145021428Y-94221428D01*
X145092857Y-94364285D01*
X145092857Y-94578571D01*
X145021428Y-94721428D01*
X144950000Y-94792857D01*
X144807142Y-94864285D01*
X144235714Y-94864285D01*
X145735714Y-95578571D02*
X145735714Y-94578571D01*
X145735714Y-94864285D02*
X145807142Y-94721428D01*
X145878571Y-94650000D01*
X146021428Y-94578571D01*
X146164285Y-94578571D01*
X146878571Y-95578571D02*
X146735714Y-95507142D01*
X146664285Y-95435714D01*
X146592857Y-95292857D01*
X146592857Y-94864285D01*
X146664285Y-94721428D01*
X146735714Y-94650000D01*
X146878571Y-94578571D01*
X147092857Y-94578571D01*
X147235714Y-94650000D01*
X147307142Y-94721428D01*
X147378571Y-94864285D01*
X147378571Y-95292857D01*
X147307142Y-95435714D01*
X147235714Y-95507142D01*
X147092857Y-95578571D01*
X146878571Y-95578571D01*
X148664285Y-94578571D02*
X148664285Y-95792857D01*
X148592857Y-95935714D01*
X148521428Y-96007142D01*
X148378571Y-96078571D01*
X148164285Y-96078571D01*
X148021428Y-96007142D01*
X148664285Y-95507142D02*
X148521428Y-95578571D01*
X148235714Y-95578571D01*
X148092857Y-95507142D01*
X148021428Y-95435714D01*
X147950000Y-95292857D01*
X147950000Y-94864285D01*
X148021428Y-94721428D01*
X148092857Y-94650000D01*
X148235714Y-94578571D01*
X148521428Y-94578571D01*
X148664285Y-94650000D01*
X149378571Y-95578571D02*
X149378571Y-94578571D01*
X149378571Y-94864285D02*
X149450000Y-94721428D01*
X149521428Y-94650000D01*
X149664285Y-94578571D01*
X149807142Y-94578571D01*
X150950000Y-95578571D02*
X150950000Y-94792857D01*
X150878571Y-94650000D01*
X150735714Y-94578571D01*
X150450000Y-94578571D01*
X150307142Y-94650000D01*
X150950000Y-95507142D02*
X150807142Y-95578571D01*
X150450000Y-95578571D01*
X150307142Y-95507142D01*
X150235714Y-95364285D01*
X150235714Y-95221428D01*
X150307142Y-95078571D01*
X150450000Y-95007142D01*
X150807142Y-95007142D01*
X150950000Y-94935714D01*
X151664285Y-95578571D02*
X151664285Y-94578571D01*
X151664285Y-94721428D02*
X151735714Y-94650000D01*
X151878571Y-94578571D01*
X152092857Y-94578571D01*
X152235714Y-94650000D01*
X152307142Y-94792857D01*
X152307142Y-95578571D01*
X152307142Y-94792857D02*
X152378571Y-94650000D01*
X152521428Y-94578571D01*
X152735714Y-94578571D01*
X152878571Y-94650000D01*
X152950000Y-94792857D01*
X152950000Y-95578571D01*
X153664285Y-95578571D02*
X153664285Y-94578571D01*
X153664285Y-94721428D02*
X153735714Y-94650000D01*
X153878571Y-94578571D01*
X154092857Y-94578571D01*
X154235714Y-94650000D01*
X154307142Y-94792857D01*
X154307142Y-95578571D01*
X154307142Y-94792857D02*
X154378571Y-94650000D01*
X154521428Y-94578571D01*
X154735714Y-94578571D01*
X154878571Y-94650000D01*
X154950000Y-94792857D01*
X154950000Y-95578571D01*
X156235714Y-95507142D02*
X156092857Y-95578571D01*
X155807142Y-95578571D01*
X155664285Y-95507142D01*
X155592857Y-95364285D01*
X155592857Y-94792857D01*
X155664285Y-94650000D01*
X155807142Y-94578571D01*
X156092857Y-94578571D01*
X156235714Y-94650000D01*
X156307142Y-94792857D01*
X156307142Y-94935714D01*
X155592857Y-95078571D01*
X156950000Y-95578571D02*
X156950000Y-94578571D01*
X156950000Y-94864285D02*
X157021428Y-94721428D01*
X157092857Y-94650000D01*
X157235714Y-94578571D01*
X157378571Y-94578571D01*
X147152142Y-110617857D02*
X147652142Y-110617857D01*
X147866428Y-111403571D02*
X147152142Y-111403571D01*
X147152142Y-109903571D01*
X147866428Y-109903571D01*
X149366428Y-111260714D02*
X149295000Y-111332142D01*
X149080714Y-111403571D01*
X148937857Y-111403571D01*
X148723571Y-111332142D01*
X148580714Y-111189285D01*
X148509285Y-111046428D01*
X148437857Y-110760714D01*
X148437857Y-110546428D01*
X148509285Y-110260714D01*
X148580714Y-110117857D01*
X148723571Y-109975000D01*
X148937857Y-109903571D01*
X149080714Y-109903571D01*
X149295000Y-109975000D01*
X149366428Y-110046428D01*
X150795000Y-109975000D02*
X150652142Y-109903571D01*
X150437857Y-109903571D01*
X150223571Y-109975000D01*
X150080714Y-110117857D01*
X150009285Y-110260714D01*
X149937857Y-110546428D01*
X149937857Y-110760714D01*
X150009285Y-111046428D01*
X150080714Y-111189285D01*
X150223571Y-111332142D01*
X150437857Y-111403571D01*
X150580714Y-111403571D01*
X150795000Y-111332142D01*
X150866428Y-111260714D01*
X150866428Y-110760714D01*
X150580714Y-110760714D01*
X146937857Y-112953571D02*
X147509285Y-112953571D01*
X147152142Y-113953571D02*
X147152142Y-112667857D01*
X147223571Y-112525000D01*
X147366428Y-112453571D01*
X147509285Y-112453571D01*
X148009285Y-113953571D02*
X148009285Y-112953571D01*
X148009285Y-113239285D02*
X148080714Y-113096428D01*
X148152142Y-113025000D01*
X148295000Y-112953571D01*
X148437857Y-112953571D01*
X149152142Y-113953571D02*
X149009285Y-113882142D01*
X148937857Y-113810714D01*
X148866428Y-113667857D01*
X148866428Y-113239285D01*
X148937857Y-113096428D01*
X149009285Y-113025000D01*
X149152142Y-112953571D01*
X149366428Y-112953571D01*
X149509285Y-113025000D01*
X149580714Y-113096428D01*
X149652142Y-113239285D01*
X149652142Y-113667857D01*
X149580714Y-113810714D01*
X149509285Y-113882142D01*
X149366428Y-113953571D01*
X149152142Y-113953571D01*
X150295000Y-112953571D02*
X150295000Y-113953571D01*
X150295000Y-113096428D02*
X150366428Y-113025000D01*
X150509285Y-112953571D01*
X150723571Y-112953571D01*
X150866428Y-113025000D01*
X150937857Y-113167857D01*
X150937857Y-113953571D01*
X151437857Y-112953571D02*
X152009285Y-112953571D01*
X151652142Y-112453571D02*
X151652142Y-113739285D01*
X151723571Y-113882142D01*
X151866428Y-113953571D01*
X152009285Y-113953571D01*
X153080714Y-113882142D02*
X152937857Y-113953571D01*
X152652142Y-113953571D01*
X152509285Y-113882142D01*
X152437857Y-113739285D01*
X152437857Y-113167857D01*
X152509285Y-113025000D01*
X152652142Y-112953571D01*
X152937857Y-112953571D01*
X153080714Y-113025000D01*
X153152142Y-113167857D01*
X153152142Y-113310714D01*
X152437857Y-113453571D01*
X153795000Y-112953571D02*
X153795000Y-113953571D01*
X153795000Y-113096428D02*
X153866428Y-113025000D01*
X154009285Y-112953571D01*
X154223571Y-112953571D01*
X154366428Y-113025000D01*
X154437857Y-113167857D01*
X154437857Y-113953571D01*
X155795000Y-113953571D02*
X155795000Y-112453571D01*
X155795000Y-113882142D02*
X155652142Y-113953571D01*
X155366428Y-113953571D01*
X155223571Y-113882142D01*
X155152142Y-113810714D01*
X155080714Y-113667857D01*
X155080714Y-113239285D01*
X155152142Y-113096428D01*
X155223571Y-113025000D01*
X155366428Y-112953571D01*
X155652142Y-112953571D01*
X155795000Y-113025000D01*
X124550000Y-115635714D02*
X124478571Y-115707142D01*
X124264285Y-115778571D01*
X124121428Y-115778571D01*
X123907142Y-115707142D01*
X123764285Y-115564285D01*
X123692857Y-115421428D01*
X123621428Y-115135714D01*
X123621428Y-114921428D01*
X123692857Y-114635714D01*
X123764285Y-114492857D01*
X123907142Y-114350000D01*
X124121428Y-114278571D01*
X124264285Y-114278571D01*
X124478571Y-114350000D01*
X124550000Y-114421428D01*
X125192857Y-115778571D02*
X125192857Y-114278571D01*
X125835714Y-115778571D02*
X125835714Y-114992857D01*
X125764285Y-114850000D01*
X125621428Y-114778571D01*
X125407142Y-114778571D01*
X125264285Y-114850000D01*
X125192857Y-114921428D01*
X127192857Y-115778571D02*
X127192857Y-114992857D01*
X127121428Y-114850000D01*
X126978571Y-114778571D01*
X126692857Y-114778571D01*
X126550000Y-114850000D01*
X127192857Y-115707142D02*
X127050000Y-115778571D01*
X126692857Y-115778571D01*
X126550000Y-115707142D01*
X126478571Y-115564285D01*
X126478571Y-115421428D01*
X126550000Y-115278571D01*
X126692857Y-115207142D01*
X127050000Y-115207142D01*
X127192857Y-115135714D01*
X127907142Y-115778571D02*
X127907142Y-114778571D01*
X127907142Y-115064285D02*
X127978571Y-114921428D01*
X128050000Y-114850000D01*
X128192857Y-114778571D01*
X128335714Y-114778571D01*
X129478571Y-114778571D02*
X129478571Y-115992857D01*
X129407142Y-116135714D01*
X129335714Y-116207142D01*
X129192857Y-116278571D01*
X128978571Y-116278571D01*
X128835714Y-116207142D01*
X129478571Y-115707142D02*
X129335714Y-115778571D01*
X129050000Y-115778571D01*
X128907142Y-115707142D01*
X128835714Y-115635714D01*
X128764285Y-115492857D01*
X128764285Y-115064285D01*
X128835714Y-114921428D01*
X128907142Y-114850000D01*
X129050000Y-114778571D01*
X129335714Y-114778571D01*
X129478571Y-114850000D01*
X130192857Y-115778571D02*
X130192857Y-114778571D01*
X130192857Y-114278571D02*
X130121428Y-114350000D01*
X130192857Y-114421428D01*
X130264285Y-114350000D01*
X130192857Y-114278571D01*
X130192857Y-114421428D01*
X130907142Y-114778571D02*
X130907142Y-115778571D01*
X130907142Y-114921428D02*
X130978571Y-114850000D01*
X131121428Y-114778571D01*
X131335714Y-114778571D01*
X131478571Y-114850000D01*
X131550000Y-114992857D01*
X131550000Y-115778571D01*
X132907142Y-114778571D02*
X132907142Y-115992857D01*
X132835714Y-116135714D01*
X132764285Y-116207142D01*
X132621428Y-116278571D01*
X132407142Y-116278571D01*
X132264285Y-116207142D01*
X132907142Y-115707142D02*
X132764285Y-115778571D01*
X132478571Y-115778571D01*
X132335714Y-115707142D01*
X132264285Y-115635714D01*
X132192857Y-115492857D01*
X132192857Y-115064285D01*
X132264285Y-114921428D01*
X132335714Y-114850000D01*
X132478571Y-114778571D01*
X132764285Y-114778571D01*
X132907142Y-114850000D01*
X153333571Y-103103571D02*
X152833571Y-102389285D01*
X152476428Y-103103571D02*
X152476428Y-101603571D01*
X153047857Y-101603571D01*
X153190714Y-101675000D01*
X153262142Y-101746428D01*
X153333571Y-101889285D01*
X153333571Y-102103571D01*
X153262142Y-102246428D01*
X153190714Y-102317857D01*
X153047857Y-102389285D01*
X152476428Y-102389285D01*
X153976428Y-103103571D02*
X153976428Y-102103571D01*
X153976428Y-101603571D02*
X153905000Y-101675000D01*
X153976428Y-101746428D01*
X154047857Y-101675000D01*
X153976428Y-101603571D01*
X153976428Y-101746428D01*
X155333571Y-102103571D02*
X155333571Y-103317857D01*
X155262142Y-103460714D01*
X155190714Y-103532142D01*
X155047857Y-103603571D01*
X154833571Y-103603571D01*
X154690714Y-103532142D01*
X155333571Y-103032142D02*
X155190714Y-103103571D01*
X154905000Y-103103571D01*
X154762142Y-103032142D01*
X154690714Y-102960714D01*
X154619285Y-102817857D01*
X154619285Y-102389285D01*
X154690714Y-102246428D01*
X154762142Y-102175000D01*
X154905000Y-102103571D01*
X155190714Y-102103571D01*
X155333571Y-102175000D01*
X156047857Y-103103571D02*
X156047857Y-101603571D01*
X156690714Y-103103571D02*
X156690714Y-102317857D01*
X156619285Y-102175000D01*
X156476428Y-102103571D01*
X156262142Y-102103571D01*
X156119285Y-102175000D01*
X156047857Y-102246428D01*
X157190714Y-102103571D02*
X157762142Y-102103571D01*
X157405000Y-101603571D02*
X157405000Y-102889285D01*
X157476428Y-103032142D01*
X157619285Y-103103571D01*
X157762142Y-103103571D01*
X154619285Y-105653571D02*
X154619285Y-104867857D01*
X154547857Y-104725000D01*
X154405000Y-104653571D01*
X154119285Y-104653571D01*
X153976428Y-104725000D01*
X154619285Y-105582142D02*
X154476428Y-105653571D01*
X154119285Y-105653571D01*
X153976428Y-105582142D01*
X153905000Y-105439285D01*
X153905000Y-105296428D01*
X153976428Y-105153571D01*
X154119285Y-105082142D01*
X154476428Y-105082142D01*
X154619285Y-105010714D01*
X155333571Y-105653571D02*
X155333571Y-104653571D01*
X155333571Y-104939285D02*
X155405000Y-104796428D01*
X155476428Y-104725000D01*
X155619285Y-104653571D01*
X155762142Y-104653571D01*
X156262142Y-105653571D02*
X156262142Y-104653571D01*
X156262142Y-104796428D02*
X156333571Y-104725000D01*
X156476428Y-104653571D01*
X156690714Y-104653571D01*
X156833571Y-104725000D01*
X156905000Y-104867857D01*
X156905000Y-105653571D01*
X156905000Y-104867857D02*
X156976428Y-104725000D01*
X157119285Y-104653571D01*
X157333571Y-104653571D01*
X157476428Y-104725000D01*
X157547857Y-104867857D01*
X157547857Y-105653571D01*
X121666428Y-103003571D02*
X120952142Y-103003571D01*
X120952142Y-101503571D01*
X122737857Y-102932142D02*
X122595000Y-103003571D01*
X122309285Y-103003571D01*
X122166428Y-102932142D01*
X122095000Y-102789285D01*
X122095000Y-102217857D01*
X122166428Y-102075000D01*
X122309285Y-102003571D01*
X122595000Y-102003571D01*
X122737857Y-102075000D01*
X122809285Y-102217857D01*
X122809285Y-102360714D01*
X122095000Y-102503571D01*
X123237857Y-102003571D02*
X123809285Y-102003571D01*
X123452142Y-103003571D02*
X123452142Y-101717857D01*
X123523571Y-101575000D01*
X123666428Y-101503571D01*
X123809285Y-101503571D01*
X124095000Y-102003571D02*
X124666428Y-102003571D01*
X124309285Y-101503571D02*
X124309285Y-102789285D01*
X124380714Y-102932142D01*
X124523571Y-103003571D01*
X124666428Y-103003571D01*
X121595000Y-105553571D02*
X121595000Y-104767857D01*
X121523571Y-104625000D01*
X121380714Y-104553571D01*
X121095000Y-104553571D01*
X120952142Y-104625000D01*
X121595000Y-105482142D02*
X121452142Y-105553571D01*
X121095000Y-105553571D01*
X120952142Y-105482142D01*
X120880714Y-105339285D01*
X120880714Y-105196428D01*
X120952142Y-105053571D01*
X121095000Y-104982142D01*
X121452142Y-104982142D01*
X121595000Y-104910714D01*
X122309285Y-105553571D02*
X122309285Y-104553571D01*
X122309285Y-104839285D02*
X122380714Y-104696428D01*
X122452142Y-104625000D01*
X122595000Y-104553571D01*
X122737857Y-104553571D01*
X123237857Y-105553571D02*
X123237857Y-104553571D01*
X123237857Y-104696428D02*
X123309285Y-104625000D01*
X123452142Y-104553571D01*
X123666428Y-104553571D01*
X123809285Y-104625000D01*
X123880714Y-104767857D01*
X123880714Y-105553571D01*
X123880714Y-104767857D02*
X123952142Y-104625000D01*
X124095000Y-104553571D01*
X124309285Y-104553571D01*
X124452142Y-104625000D01*
X124523571Y-104767857D01*
X124523571Y-105553571D01*
D12*
%TO.C,C8*%
X144660000Y-103427836D02*
X144660000Y-103212164D01*
X143940000Y-103427836D02*
X143940000Y-103212164D01*
%TO.C,LED4*%
X138395799Y-108035000D02*
X140680799Y-108035000D01*
X140680799Y-108035000D02*
X140680799Y-106565000D01*
X140680799Y-106565000D02*
X138395799Y-106565000D01*
D13*
%TO.C,FID3*%
G36*
X135326840Y-105871747D02*
G01*
X135364249Y-105873434D01*
X135402068Y-105876548D01*
X135437685Y-105880928D01*
X135464115Y-105885494D01*
X135530825Y-105903003D01*
X135592435Y-105927136D01*
X135648735Y-105957608D01*
X135699512Y-105994130D01*
X135744557Y-106036414D01*
X135783656Y-106084173D01*
X135816600Y-106137120D01*
X135843177Y-106194966D01*
X135863176Y-106257425D01*
X135876385Y-106324208D01*
X135882593Y-106395028D01*
X135882356Y-106454902D01*
X135877382Y-106511910D01*
X135867186Y-106566676D01*
X135851306Y-106620619D01*
X135829278Y-106675158D01*
X135800642Y-106731712D01*
X135781377Y-106765075D01*
X135760398Y-106800000D01*
X135312259Y-106800000D01*
X135244085Y-106663475D01*
X135228058Y-106631606D01*
X135212866Y-106601824D01*
X135199000Y-106575060D01*
X135186952Y-106552246D01*
X135177214Y-106534315D01*
X135170277Y-106522199D01*
X135166813Y-106517013D01*
X135150559Y-106503944D01*
X135130679Y-106494683D01*
X135110971Y-106490975D01*
X135110099Y-106490967D01*
X135092806Y-106493826D01*
X135074239Y-106501276D01*
X135057886Y-106511621D01*
X135048801Y-106520759D01*
X135046252Y-106526606D01*
X135041529Y-106539859D01*
X135034857Y-106559804D01*
X135026462Y-106585728D01*
X135016569Y-106616916D01*
X135005405Y-106652656D01*
X134993195Y-106692235D01*
X134980165Y-106734937D01*
X134966541Y-106780050D01*
X134962414Y-106793809D01*
X134948778Y-106839228D01*
X134935803Y-106882250D01*
X134923701Y-106922189D01*
X134912681Y-106958359D01*
X134902954Y-106990072D01*
X134894732Y-107016643D01*
X134888225Y-107037385D01*
X134883644Y-107051612D01*
X134881199Y-107058638D01*
X134880898Y-107059259D01*
X134879357Y-107055718D01*
X134875668Y-107044565D01*
X134869988Y-107026337D01*
X134862476Y-107001570D01*
X134853288Y-106970798D01*
X134842582Y-106934558D01*
X134830517Y-106893384D01*
X134817250Y-106847814D01*
X134802938Y-106798381D01*
X134787740Y-106745623D01*
X134771813Y-106690074D01*
X134759976Y-106648626D01*
X134743541Y-106591064D01*
X134727684Y-106535673D01*
X134712567Y-106483011D01*
X134698352Y-106433639D01*
X134685201Y-106388115D01*
X134673279Y-106346999D01*
X134662745Y-106310852D01*
X134653765Y-106280231D01*
X134646499Y-106255697D01*
X134641110Y-106237809D01*
X134637761Y-106227127D01*
X134636732Y-106224266D01*
X134623126Y-106205200D01*
X134605228Y-106191970D01*
X134584625Y-106184557D01*
X134562903Y-106182943D01*
X134541646Y-106187106D01*
X134522442Y-106197030D01*
X134506875Y-106212694D01*
X134499467Y-106225924D01*
X134497195Y-106232936D01*
X134493085Y-106247443D01*
X134487325Y-106268720D01*
X134480104Y-106296040D01*
X134471610Y-106328679D01*
X134462031Y-106365911D01*
X134451556Y-106407010D01*
X134440372Y-106451251D01*
X134428668Y-106497908D01*
X134422744Y-106521658D01*
X134353449Y-106800000D01*
X133839601Y-106800000D01*
X133818623Y-106765075D01*
X133786036Y-106706725D01*
X133760323Y-106651190D01*
X133741024Y-106597054D01*
X133727679Y-106542902D01*
X133719826Y-106487321D01*
X133717653Y-106454983D01*
X133718009Y-106381467D01*
X133725446Y-106311517D01*
X133739852Y-106245465D01*
X133761118Y-106183641D01*
X133789132Y-106126379D01*
X133823785Y-106074009D01*
X133857778Y-106034215D01*
X133903960Y-105991498D01*
X133954515Y-105955467D01*
X134009733Y-105925997D01*
X134069905Y-105902966D01*
X134135322Y-105886253D01*
X134206276Y-105875733D01*
X134239944Y-105872996D01*
X134300785Y-105871828D01*
X134358404Y-105876365D01*
X134413899Y-105886950D01*
X134468369Y-105903927D01*
X134522912Y-105927638D01*
X134578626Y-105958425D01*
X134636611Y-105996633D01*
X134637016Y-105996920D01*
X134691910Y-106037435D01*
X134739285Y-106076062D01*
X134771425Y-106105210D01*
X134800000Y-106132522D01*
X134828575Y-106105210D01*
X134867547Y-106070285D01*
X134912673Y-106033909D01*
X134962138Y-105997491D01*
X135003848Y-105969120D01*
X135065222Y-105933401D01*
X135128336Y-105905494D01*
X135192618Y-105885609D01*
X135257492Y-105873959D01*
X135263706Y-105873284D01*
X135292455Y-105871643D01*
X135326840Y-105871747D01*
G37*
X135326840Y-105871747D02*
X135364249Y-105873434D01*
X135402068Y-105876548D01*
X135437685Y-105880928D01*
X135464115Y-105885494D01*
X135530825Y-105903003D01*
X135592435Y-105927136D01*
X135648735Y-105957608D01*
X135699512Y-105994130D01*
X135744557Y-106036414D01*
X135783656Y-106084173D01*
X135816600Y-106137120D01*
X135843177Y-106194966D01*
X135863176Y-106257425D01*
X135876385Y-106324208D01*
X135882593Y-106395028D01*
X135882356Y-106454902D01*
X135877382Y-106511910D01*
X135867186Y-106566676D01*
X135851306Y-106620619D01*
X135829278Y-106675158D01*
X135800642Y-106731712D01*
X135781377Y-106765075D01*
X135760398Y-106800000D01*
X135312259Y-106800000D01*
X135244085Y-106663475D01*
X135228058Y-106631606D01*
X135212866Y-106601824D01*
X135199000Y-106575060D01*
X135186952Y-106552246D01*
X135177214Y-106534315D01*
X135170277Y-106522199D01*
X135166813Y-106517013D01*
X135150559Y-106503944D01*
X135130679Y-106494683D01*
X135110971Y-106490975D01*
X135110099Y-106490967D01*
X135092806Y-106493826D01*
X135074239Y-106501276D01*
X135057886Y-106511621D01*
X135048801Y-106520759D01*
X135046252Y-106526606D01*
X135041529Y-106539859D01*
X135034857Y-106559804D01*
X135026462Y-106585728D01*
X135016569Y-106616916D01*
X135005405Y-106652656D01*
X134993195Y-106692235D01*
X134980165Y-106734937D01*
X134966541Y-106780050D01*
X134962414Y-106793809D01*
X134948778Y-106839228D01*
X134935803Y-106882250D01*
X134923701Y-106922189D01*
X134912681Y-106958359D01*
X134902954Y-106990072D01*
X134894732Y-107016643D01*
X134888225Y-107037385D01*
X134883644Y-107051612D01*
X134881199Y-107058638D01*
X134880898Y-107059259D01*
X134879357Y-107055718D01*
X134875668Y-107044565D01*
X134869988Y-107026337D01*
X134862476Y-107001570D01*
X134853288Y-106970798D01*
X134842582Y-106934558D01*
X134830517Y-106893384D01*
X134817250Y-106847814D01*
X134802938Y-106798381D01*
X134787740Y-106745623D01*
X134771813Y-106690074D01*
X134759976Y-106648626D01*
X134743541Y-106591064D01*
X134727684Y-106535673D01*
X134712567Y-106483011D01*
X134698352Y-106433639D01*
X134685201Y-106388115D01*
X134673279Y-106346999D01*
X134662745Y-106310852D01*
X134653765Y-106280231D01*
X134646499Y-106255697D01*
X134641110Y-106237809D01*
X134637761Y-106227127D01*
X134636732Y-106224266D01*
X134623126Y-106205200D01*
X134605228Y-106191970D01*
X134584625Y-106184557D01*
X134562903Y-106182943D01*
X134541646Y-106187106D01*
X134522442Y-106197030D01*
X134506875Y-106212694D01*
X134499467Y-106225924D01*
X134497195Y-106232936D01*
X134493085Y-106247443D01*
X134487325Y-106268720D01*
X134480104Y-106296040D01*
X134471610Y-106328679D01*
X134462031Y-106365911D01*
X134451556Y-106407010D01*
X134440372Y-106451251D01*
X134428668Y-106497908D01*
X134422744Y-106521658D01*
X134353449Y-106800000D01*
X133839601Y-106800000D01*
X133818623Y-106765075D01*
X133786036Y-106706725D01*
X133760323Y-106651190D01*
X133741024Y-106597054D01*
X133727679Y-106542902D01*
X133719826Y-106487321D01*
X133717653Y-106454983D01*
X133718009Y-106381467D01*
X133725446Y-106311517D01*
X133739852Y-106245465D01*
X133761118Y-106183641D01*
X133789132Y-106126379D01*
X133823785Y-106074009D01*
X133857778Y-106034215D01*
X133903960Y-105991498D01*
X133954515Y-105955467D01*
X134009733Y-105925997D01*
X134069905Y-105902966D01*
X134135322Y-105886253D01*
X134206276Y-105875733D01*
X134239944Y-105872996D01*
X134300785Y-105871828D01*
X134358404Y-105876365D01*
X134413899Y-105886950D01*
X134468369Y-105903927D01*
X134522912Y-105927638D01*
X134578626Y-105958425D01*
X134636611Y-105996633D01*
X134637016Y-105996920D01*
X134691910Y-106037435D01*
X134739285Y-106076062D01*
X134771425Y-106105210D01*
X134800000Y-106132522D01*
X134828575Y-106105210D01*
X134867547Y-106070285D01*
X134912673Y-106033909D01*
X134962138Y-105997491D01*
X135003848Y-105969120D01*
X135065222Y-105933401D01*
X135128336Y-105905494D01*
X135192618Y-105885609D01*
X135257492Y-105873959D01*
X135263706Y-105873284D01*
X135292455Y-105871643D01*
X135326840Y-105871747D01*
G36*
X134572240Y-106568297D02*
G01*
X134576164Y-106578886D01*
X134582286Y-106597568D01*
X134590607Y-106624350D01*
X134601131Y-106659244D01*
X134613860Y-106702259D01*
X134628797Y-106753404D01*
X134645946Y-106812690D01*
X134665309Y-106880125D01*
X134686889Y-106955721D01*
X134689522Y-106964971D01*
X134708147Y-107030230D01*
X134725677Y-107091289D01*
X134741992Y-107147746D01*
X134756974Y-107199202D01*
X134770503Y-107245255D01*
X134782461Y-107285505D01*
X134792729Y-107319550D01*
X134801187Y-107346990D01*
X134807717Y-107367424D01*
X134812199Y-107380450D01*
X134814342Y-107385448D01*
X134829233Y-107400791D01*
X134849177Y-107411599D01*
X134871630Y-107417081D01*
X134894051Y-107416443D01*
X134904499Y-107413564D01*
X134917206Y-107406427D01*
X134930702Y-107395461D01*
X134941420Y-107383725D01*
X134944054Y-107379642D01*
X134945844Y-107374572D01*
X134949860Y-107362054D01*
X134955897Y-107342749D01*
X134963753Y-107317319D01*
X134973226Y-107286428D01*
X134984113Y-107250738D01*
X134996212Y-107210910D01*
X135009319Y-107167608D01*
X135023232Y-107121494D01*
X135034721Y-107083309D01*
X135049138Y-107035378D01*
X135062910Y-106989691D01*
X135075833Y-106946915D01*
X135087704Y-106907717D01*
X135098319Y-106872765D01*
X135107477Y-106842727D01*
X135114973Y-106818270D01*
X135120605Y-106800062D01*
X135124170Y-106788771D01*
X135125389Y-106785183D01*
X135127241Y-106783477D01*
X135130272Y-106785468D01*
X135134944Y-106791906D01*
X135141718Y-106803540D01*
X135151057Y-106821120D01*
X135163421Y-106845394D01*
X135167518Y-106853552D01*
X135182115Y-106882217D01*
X135193835Y-106904085D01*
X135203245Y-106920092D01*
X135210910Y-106931176D01*
X135217398Y-106938274D01*
X135219969Y-106940335D01*
X135233917Y-106950283D01*
X135431825Y-106951462D01*
X135471850Y-106951776D01*
X135509166Y-106952216D01*
X135542942Y-106952760D01*
X135572349Y-106953389D01*
X135596560Y-106954083D01*
X135614745Y-106954820D01*
X135626074Y-106955581D01*
X135629733Y-106956304D01*
X135626743Y-106959783D01*
X135618067Y-106968685D01*
X135604144Y-106982585D01*
X135585414Y-107001062D01*
X135562316Y-107023692D01*
X135535291Y-107050054D01*
X135504777Y-107079723D01*
X135471214Y-107112278D01*
X135435043Y-107147296D01*
X135396702Y-107184354D01*
X135356631Y-107223030D01*
X135315270Y-107262901D01*
X135273058Y-107303544D01*
X135230436Y-107344536D01*
X135187842Y-107385456D01*
X135145717Y-107425879D01*
X135104500Y-107465384D01*
X135064630Y-107503548D01*
X135026547Y-107539948D01*
X134990692Y-107574161D01*
X134957502Y-107605766D01*
X134927419Y-107634338D01*
X134900882Y-107659456D01*
X134878330Y-107680697D01*
X134860203Y-107697638D01*
X134846940Y-107709856D01*
X134838982Y-107716929D01*
X134836943Y-107718524D01*
X134813867Y-107727637D01*
X134790553Y-107728506D01*
X134776717Y-107724999D01*
X134766141Y-107721161D01*
X134759675Y-107718924D01*
X134758866Y-107718697D01*
X134755622Y-107715800D01*
X134746740Y-107707432D01*
X134732656Y-107694015D01*
X134713809Y-107675973D01*
X134690638Y-107653729D01*
X134663579Y-107627708D01*
X134633071Y-107598333D01*
X134599551Y-107566026D01*
X134563458Y-107531213D01*
X134525229Y-107494316D01*
X134485303Y-107455759D01*
X134444117Y-107415965D01*
X134402108Y-107375358D01*
X134359716Y-107334362D01*
X134317378Y-107293400D01*
X134275531Y-107252896D01*
X134234615Y-107213273D01*
X134195065Y-107174955D01*
X134157322Y-107138365D01*
X134121821Y-107103927D01*
X134089002Y-107072064D01*
X134059302Y-107043200D01*
X134033159Y-107017759D01*
X134011012Y-106996164D01*
X133993297Y-106978839D01*
X133980453Y-106966207D01*
X133972917Y-106958691D01*
X133971007Y-106956654D01*
X133974857Y-106955726D01*
X133986827Y-106954861D01*
X134006574Y-106954067D01*
X134033749Y-106953351D01*
X134068009Y-106952722D01*
X134109007Y-106952186D01*
X134156399Y-106951753D01*
X134206289Y-106951445D01*
X134442948Y-106950283D01*
X134458760Y-106938221D01*
X134469964Y-106927754D01*
X134478819Y-106916200D01*
X134480629Y-106912821D01*
X134482967Y-106905833D01*
X134487052Y-106891592D01*
X134492629Y-106871070D01*
X134499441Y-106845240D01*
X134507233Y-106815075D01*
X134515749Y-106781548D01*
X134524733Y-106745632D01*
X134526996Y-106736500D01*
X134535949Y-106700426D01*
X134544373Y-106666736D01*
X134552028Y-106636358D01*
X134558679Y-106610225D01*
X134564088Y-106589265D01*
X134568017Y-106574409D01*
X134570231Y-106566588D01*
X134570509Y-106565790D01*
X134572240Y-106568297D01*
G37*
X134572240Y-106568297D02*
X134576164Y-106578886D01*
X134582286Y-106597568D01*
X134590607Y-106624350D01*
X134601131Y-106659244D01*
X134613860Y-106702259D01*
X134628797Y-106753404D01*
X134645946Y-106812690D01*
X134665309Y-106880125D01*
X134686889Y-106955721D01*
X134689522Y-106964971D01*
X134708147Y-107030230D01*
X134725677Y-107091289D01*
X134741992Y-107147746D01*
X134756974Y-107199202D01*
X134770503Y-107245255D01*
X134782461Y-107285505D01*
X134792729Y-107319550D01*
X134801187Y-107346990D01*
X134807717Y-107367424D01*
X134812199Y-107380450D01*
X134814342Y-107385448D01*
X134829233Y-107400791D01*
X134849177Y-107411599D01*
X134871630Y-107417081D01*
X134894051Y-107416443D01*
X134904499Y-107413564D01*
X134917206Y-107406427D01*
X134930702Y-107395461D01*
X134941420Y-107383725D01*
X134944054Y-107379642D01*
X134945844Y-107374572D01*
X134949860Y-107362054D01*
X134955897Y-107342749D01*
X134963753Y-107317319D01*
X134973226Y-107286428D01*
X134984113Y-107250738D01*
X134996212Y-107210910D01*
X135009319Y-107167608D01*
X135023232Y-107121494D01*
X135034721Y-107083309D01*
X135049138Y-107035378D01*
X135062910Y-106989691D01*
X135075833Y-106946915D01*
X135087704Y-106907717D01*
X135098319Y-106872765D01*
X135107477Y-106842727D01*
X135114973Y-106818270D01*
X135120605Y-106800062D01*
X135124170Y-106788771D01*
X135125389Y-106785183D01*
X135127241Y-106783477D01*
X135130272Y-106785468D01*
X135134944Y-106791906D01*
X135141718Y-106803540D01*
X135151057Y-106821120D01*
X135163421Y-106845394D01*
X135167518Y-106853552D01*
X135182115Y-106882217D01*
X135193835Y-106904085D01*
X135203245Y-106920092D01*
X135210910Y-106931176D01*
X135217398Y-106938274D01*
X135219969Y-106940335D01*
X135233917Y-106950283D01*
X135431825Y-106951462D01*
X135471850Y-106951776D01*
X135509166Y-106952216D01*
X135542942Y-106952760D01*
X135572349Y-106953389D01*
X135596560Y-106954083D01*
X135614745Y-106954820D01*
X135626074Y-106955581D01*
X135629733Y-106956304D01*
X135626743Y-106959783D01*
X135618067Y-106968685D01*
X135604144Y-106982585D01*
X135585414Y-107001062D01*
X135562316Y-107023692D01*
X135535291Y-107050054D01*
X135504777Y-107079723D01*
X135471214Y-107112278D01*
X135435043Y-107147296D01*
X135396702Y-107184354D01*
X135356631Y-107223030D01*
X135315270Y-107262901D01*
X135273058Y-107303544D01*
X135230436Y-107344536D01*
X135187842Y-107385456D01*
X135145717Y-107425879D01*
X135104500Y-107465384D01*
X135064630Y-107503548D01*
X135026547Y-107539948D01*
X134990692Y-107574161D01*
X134957502Y-107605766D01*
X134927419Y-107634338D01*
X134900882Y-107659456D01*
X134878330Y-107680697D01*
X134860203Y-107697638D01*
X134846940Y-107709856D01*
X134838982Y-107716929D01*
X134836943Y-107718524D01*
X134813867Y-107727637D01*
X134790553Y-107728506D01*
X134776717Y-107724999D01*
X134766141Y-107721161D01*
X134759675Y-107718924D01*
X134758866Y-107718697D01*
X134755622Y-107715800D01*
X134746740Y-107707432D01*
X134732656Y-107694015D01*
X134713809Y-107675973D01*
X134690638Y-107653729D01*
X134663579Y-107627708D01*
X134633071Y-107598333D01*
X134599551Y-107566026D01*
X134563458Y-107531213D01*
X134525229Y-107494316D01*
X134485303Y-107455759D01*
X134444117Y-107415965D01*
X134402108Y-107375358D01*
X134359716Y-107334362D01*
X134317378Y-107293400D01*
X134275531Y-107252896D01*
X134234615Y-107213273D01*
X134195065Y-107174955D01*
X134157322Y-107138365D01*
X134121821Y-107103927D01*
X134089002Y-107072064D01*
X134059302Y-107043200D01*
X134033159Y-107017759D01*
X134011012Y-106996164D01*
X133993297Y-106978839D01*
X133980453Y-106966207D01*
X133972917Y-106958691D01*
X133971007Y-106956654D01*
X133974857Y-106955726D01*
X133986827Y-106954861D01*
X134006574Y-106954067D01*
X134033749Y-106953351D01*
X134068009Y-106952722D01*
X134109007Y-106952186D01*
X134156399Y-106951753D01*
X134206289Y-106951445D01*
X134442948Y-106950283D01*
X134458760Y-106938221D01*
X134469964Y-106927754D01*
X134478819Y-106916200D01*
X134480629Y-106912821D01*
X134482967Y-106905833D01*
X134487052Y-106891592D01*
X134492629Y-106871070D01*
X134499441Y-106845240D01*
X134507233Y-106815075D01*
X134515749Y-106781548D01*
X134524733Y-106745632D01*
X134526996Y-106736500D01*
X134535949Y-106700426D01*
X134544373Y-106666736D01*
X134552028Y-106636358D01*
X134558679Y-106610225D01*
X134564088Y-106589265D01*
X134568017Y-106574409D01*
X134570231Y-106566588D01*
X134570509Y-106565790D01*
X134572240Y-106568297D01*
D12*
%TO.C,LED7*%
X138395799Y-105035000D02*
X140680799Y-105035000D01*
X140680799Y-105035000D02*
X140680799Y-103565000D01*
X140680799Y-103565000D02*
X138395799Y-103565000D01*
%TO.C,LED6*%
X138395799Y-103535000D02*
X140680799Y-103535000D01*
X140680799Y-103535000D02*
X140680799Y-102065000D01*
X140680799Y-102065000D02*
X138395799Y-102065000D01*
%TO.C,LED5*%
X138395799Y-102035000D02*
X140680799Y-102035000D01*
X140680799Y-102035000D02*
X140680799Y-100565000D01*
X140680799Y-100565000D02*
X138395799Y-100565000D01*
%TO.C,LED3*%
X138395799Y-109535000D02*
X140680799Y-109535000D01*
X140680799Y-109535000D02*
X140680799Y-108065000D01*
X140680799Y-108065000D02*
X138395799Y-108065000D01*
%TO.C,LED2*%
X138395799Y-111035000D02*
X140680799Y-111035000D01*
X140680799Y-111035000D02*
X140680799Y-109565000D01*
X140680799Y-109565000D02*
X138395799Y-109565000D01*
%TO.C,LED1*%
X138395799Y-106535000D02*
X140680799Y-106535000D01*
X140680799Y-106535000D02*
X140680799Y-105065000D01*
X140680799Y-105065000D02*
X138395799Y-105065000D01*
%TO.C,C7*%
X145040000Y-101507836D02*
X145040000Y-101292164D01*
X145760000Y-101507836D02*
X145760000Y-101292164D01*
%TO.C,C6*%
X145040000Y-103407836D02*
X145040000Y-103192164D01*
X145760000Y-103407836D02*
X145760000Y-103192164D01*
%TO.C,C5*%
X147907836Y-104060000D02*
X147692164Y-104060000D01*
X147907836Y-103340000D02*
X147692164Y-103340000D01*
%TO.C,C4*%
X148007836Y-108860000D02*
X147792164Y-108860000D01*
X148007836Y-108140000D02*
X147792164Y-108140000D01*
%TO.C,C3*%
X149040000Y-108127836D02*
X149040000Y-107912164D01*
X149760000Y-108127836D02*
X149760000Y-107912164D01*
%TO.C,C2*%
X145512164Y-107240000D02*
X145727836Y-107240000D01*
X145512164Y-107960000D02*
X145727836Y-107960000D01*
%TO.C,C1*%
X149560000Y-102192164D02*
X149560000Y-102407836D01*
X148840000Y-102192164D02*
X148840000Y-102407836D01*
%TO.C,J5*%
X152605000Y-90730000D02*
X152605000Y-91365000D01*
X151970000Y-90730000D02*
X152605000Y-90730000D01*
D14*
%TO.C,MOD1*%
X137074201Y-99900000D02*
X141174201Y-99900000D01*
X137074201Y-99900000D02*
X137074201Y-92775000D01*
X141174201Y-99900000D02*
X141174201Y-92775000D01*
X141174201Y-92775000D02*
X142124201Y-92775000D01*
X137074201Y-92775000D02*
X136124201Y-92775000D01*
D15*
%TO.C,U1*%
X146130000Y-104390000D02*
G75*
G03*
X146130000Y-104390000I-50000J0D01*
G01*
D14*
X148210000Y-104420000D02*
X146110000Y-104420000D01*
X148210000Y-106180000D02*
X146110000Y-106180000D01*
X148210000Y-106180000D02*
X148210000Y-104420000D01*
X146110000Y-106180000D02*
X146110000Y-104420000D01*
%TO.C,MOD1*%
D15*
X138874201Y-96602380D02*
X138826581Y-96626190D01*
X138731343Y-96626190D01*
X138683724Y-96602380D01*
X138659915Y-96578571D01*
X138636105Y-96530952D01*
X138636105Y-96388095D01*
X138659915Y-96340476D01*
X138683724Y-96316666D01*
X138731343Y-96292857D01*
X138826581Y-96292857D01*
X138874201Y-96316666D01*
X139302772Y-96292857D02*
X139302772Y-96626190D01*
X139088486Y-96292857D02*
X139088486Y-96554761D01*
X139112296Y-96602380D01*
X139159915Y-96626190D01*
X139231343Y-96626190D01*
X139278962Y-96602380D01*
X139302772Y-96578571D01*
X139469439Y-96292857D02*
X139659915Y-96292857D01*
X139540867Y-96126190D02*
X139540867Y-96554761D01*
X139564677Y-96602380D01*
X139612296Y-96626190D01*
X139659915Y-96626190D01*
%TD*%
M02*
