%TF.GenerationSoftware,KiCad,Pcbnew,(5.1.9-0-10_14)*%
%TF.CreationDate,2021-10-13T12:34:54+02:00*%
%TF.ProjectId,s1-ecg-demo,73312d65-6367-42d6-9465-6d6f2e6b6963,2*%
%TF.SameCoordinates,Original*%
%TF.FileFunction,Legend,Top*%
%TF.FilePolarity,Positive*%
%FSLAX46Y46*%
G04 Gerber Fmt 4.6, Leading zero omitted, Abs format (unit mm)*
G04 Created by KiCad (PCBNEW (5.1.9-0-10_14)) date 2021-10-13 12:34:54*
%MOMM*%
%LPD*%
G01*
G04 APERTURE LIST*
%ADD10C,0.300000*%
%ADD11C,0.275000*%
%ADD12C,0.050000*%
%ADD13C,0.100000*%
%ADD14C,0.120000*%
%ADD15C,0.010000*%
G04 APERTURE END LIST*
D10*
X131335714Y-105128571D02*
X131335714Y-103628571D01*
X131907142Y-103628571D01*
X132050000Y-103700000D01*
X132121428Y-103771428D01*
X132192857Y-103914285D01*
X132192857Y-104128571D01*
X132121428Y-104271428D01*
X132050000Y-104342857D01*
X131907142Y-104414285D01*
X131335714Y-104414285D01*
X133478571Y-104128571D02*
X133478571Y-105128571D01*
X132835714Y-104128571D02*
X132835714Y-104914285D01*
X132907142Y-105057142D01*
X133050000Y-105128571D01*
X133264285Y-105128571D01*
X133407142Y-105057142D01*
X133478571Y-104985714D01*
X134407142Y-105128571D02*
X134264285Y-105057142D01*
X134192857Y-104914285D01*
X134192857Y-103628571D01*
X134907142Y-105057142D02*
X135050000Y-105128571D01*
X135335714Y-105128571D01*
X135478571Y-105057142D01*
X135550000Y-104914285D01*
X135550000Y-104842857D01*
X135478571Y-104700000D01*
X135335714Y-104628571D01*
X135121428Y-104628571D01*
X134978571Y-104557142D01*
X134907142Y-104414285D01*
X134907142Y-104342857D01*
X134978571Y-104200000D01*
X135121428Y-104128571D01*
X135335714Y-104128571D01*
X135478571Y-104200000D01*
X136764285Y-105057142D02*
X136621428Y-105128571D01*
X136335714Y-105128571D01*
X136192857Y-105057142D01*
X136121428Y-104914285D01*
X136121428Y-104342857D01*
X136192857Y-104200000D01*
X136335714Y-104128571D01*
X136621428Y-104128571D01*
X136764285Y-104200000D01*
X136835714Y-104342857D01*
X136835714Y-104485714D01*
X136121428Y-104628571D01*
D11*
X122585535Y-91797619D02*
X122585535Y-90697619D01*
X122585535Y-91116666D02*
X122690297Y-91064285D01*
X122899821Y-91064285D01*
X123004583Y-91116666D01*
X123056964Y-91169047D01*
X123109345Y-91273809D01*
X123109345Y-91588095D01*
X123056964Y-91692857D01*
X123004583Y-91745238D01*
X122899821Y-91797619D01*
X122690297Y-91797619D01*
X122585535Y-91745238D01*
X124052202Y-91797619D02*
X124052202Y-91221428D01*
X123999821Y-91116666D01*
X123895059Y-91064285D01*
X123685535Y-91064285D01*
X123580773Y-91116666D01*
X124052202Y-91745238D02*
X123947440Y-91797619D01*
X123685535Y-91797619D01*
X123580773Y-91745238D01*
X123528392Y-91640476D01*
X123528392Y-91535714D01*
X123580773Y-91430952D01*
X123685535Y-91378571D01*
X123947440Y-91378571D01*
X124052202Y-91326190D01*
X124418869Y-91064285D02*
X124837916Y-91064285D01*
X124576011Y-90697619D02*
X124576011Y-91640476D01*
X124628392Y-91745238D01*
X124733154Y-91797619D01*
X124837916Y-91797619D01*
X125047440Y-91064285D02*
X125466488Y-91064285D01*
X125204583Y-90697619D02*
X125204583Y-91640476D01*
X125256964Y-91745238D01*
X125361726Y-91797619D01*
X125466488Y-91797619D01*
D10*
X121897857Y-91178571D02*
X121897857Y-89678571D01*
X144080714Y-91107142D02*
X144295000Y-91178571D01*
X144652142Y-91178571D01*
X144795000Y-91107142D01*
X144866428Y-91035714D01*
X144937857Y-90892857D01*
X144937857Y-90750000D01*
X144866428Y-90607142D01*
X144795000Y-90535714D01*
X144652142Y-90464285D01*
X144366428Y-90392857D01*
X144223571Y-90321428D01*
X144152142Y-90250000D01*
X144080714Y-90107142D01*
X144080714Y-89964285D01*
X144152142Y-89821428D01*
X144223571Y-89750000D01*
X144366428Y-89678571D01*
X144723571Y-89678571D01*
X144937857Y-89750000D01*
X146366428Y-91178571D02*
X145509285Y-91178571D01*
X145937857Y-91178571D02*
X145937857Y-89678571D01*
X145795000Y-89892857D01*
X145652142Y-90035714D01*
X145509285Y-90107142D01*
X148152142Y-91178571D02*
X148152142Y-90178571D01*
X148152142Y-90321428D02*
X148223571Y-90250000D01*
X148366428Y-90178571D01*
X148580714Y-90178571D01*
X148723571Y-90250000D01*
X148795000Y-90392857D01*
X148795000Y-91178571D01*
X148795000Y-90392857D02*
X148866428Y-90250000D01*
X149009285Y-90178571D01*
X149223571Y-90178571D01*
X149366428Y-90250000D01*
X149437857Y-90392857D01*
X149437857Y-91178571D01*
X150366428Y-91178571D02*
X150223571Y-91107142D01*
X150152142Y-91035714D01*
X150080714Y-90892857D01*
X150080714Y-90464285D01*
X150152142Y-90321428D01*
X150223571Y-90250000D01*
X150366428Y-90178571D01*
X150580714Y-90178571D01*
X150723571Y-90250000D01*
X150795000Y-90321428D01*
X150866428Y-90464285D01*
X150866428Y-90892857D01*
X150795000Y-91035714D01*
X150723571Y-91107142D01*
X150580714Y-91178571D01*
X150366428Y-91178571D01*
X152152142Y-91178571D02*
X152152142Y-89678571D01*
X152152142Y-91107142D02*
X152009285Y-91178571D01*
X151723571Y-91178571D01*
X151580714Y-91107142D01*
X151509285Y-91035714D01*
X151437857Y-90892857D01*
X151437857Y-90464285D01*
X151509285Y-90321428D01*
X151580714Y-90250000D01*
X151723571Y-90178571D01*
X152009285Y-90178571D01*
X152152142Y-90250000D01*
X153509285Y-90178571D02*
X153509285Y-91178571D01*
X152866428Y-90178571D02*
X152866428Y-90964285D01*
X152937857Y-91107142D01*
X153080714Y-91178571D01*
X153295000Y-91178571D01*
X153437857Y-91107142D01*
X153509285Y-91035714D01*
X154437857Y-91178571D02*
X154295000Y-91107142D01*
X154223571Y-90964285D01*
X154223571Y-89678571D01*
X155580714Y-91107142D02*
X155437857Y-91178571D01*
X155152142Y-91178571D01*
X155009285Y-91107142D01*
X154937857Y-90964285D01*
X154937857Y-90392857D01*
X155009285Y-90250000D01*
X155152142Y-90178571D01*
X155437857Y-90178571D01*
X155580714Y-90250000D01*
X155652142Y-90392857D01*
X155652142Y-90535714D01*
X154937857Y-90678571D01*
X147828571Y-98128571D02*
X147828571Y-96628571D01*
X148185714Y-96628571D01*
X148400000Y-96700000D01*
X148542857Y-96842857D01*
X148614285Y-96985714D01*
X148685714Y-97271428D01*
X148685714Y-97485714D01*
X148614285Y-97771428D01*
X148542857Y-97914285D01*
X148400000Y-98057142D01*
X148185714Y-98128571D01*
X147828571Y-98128571D01*
X149900000Y-98057142D02*
X149757142Y-98128571D01*
X149471428Y-98128571D01*
X149328571Y-98057142D01*
X149257142Y-97914285D01*
X149257142Y-97342857D01*
X149328571Y-97200000D01*
X149471428Y-97128571D01*
X149757142Y-97128571D01*
X149900000Y-97200000D01*
X149971428Y-97342857D01*
X149971428Y-97485714D01*
X149257142Y-97628571D01*
X150614285Y-98128571D02*
X150614285Y-96628571D01*
X150614285Y-97200000D02*
X150757142Y-97128571D01*
X151042857Y-97128571D01*
X151185714Y-97200000D01*
X151257142Y-97271428D01*
X151328571Y-97414285D01*
X151328571Y-97842857D01*
X151257142Y-97985714D01*
X151185714Y-98057142D01*
X151042857Y-98128571D01*
X150757142Y-98128571D01*
X150614285Y-98057142D01*
X152614285Y-97128571D02*
X152614285Y-98128571D01*
X151971428Y-97128571D02*
X151971428Y-97914285D01*
X152042857Y-98057142D01*
X152185714Y-98128571D01*
X152400000Y-98128571D01*
X152542857Y-98057142D01*
X152614285Y-97985714D01*
X153971428Y-97128571D02*
X153971428Y-98342857D01*
X153900000Y-98485714D01*
X153828571Y-98557142D01*
X153685714Y-98628571D01*
X153471428Y-98628571D01*
X153328571Y-98557142D01*
X153971428Y-98057142D02*
X153828571Y-98128571D01*
X153542857Y-98128571D01*
X153400000Y-98057142D01*
X153328571Y-97985714D01*
X153257142Y-97842857D01*
X153257142Y-97414285D01*
X153328571Y-97271428D01*
X153400000Y-97200000D01*
X153542857Y-97128571D01*
X153828571Y-97128571D01*
X153971428Y-97200000D01*
X147152142Y-110617857D02*
X147652142Y-110617857D01*
X147866428Y-111403571D02*
X147152142Y-111403571D01*
X147152142Y-109903571D01*
X147866428Y-109903571D01*
X149366428Y-111260714D02*
X149295000Y-111332142D01*
X149080714Y-111403571D01*
X148937857Y-111403571D01*
X148723571Y-111332142D01*
X148580714Y-111189285D01*
X148509285Y-111046428D01*
X148437857Y-110760714D01*
X148437857Y-110546428D01*
X148509285Y-110260714D01*
X148580714Y-110117857D01*
X148723571Y-109975000D01*
X148937857Y-109903571D01*
X149080714Y-109903571D01*
X149295000Y-109975000D01*
X149366428Y-110046428D01*
X150795000Y-109975000D02*
X150652142Y-109903571D01*
X150437857Y-109903571D01*
X150223571Y-109975000D01*
X150080714Y-110117857D01*
X150009285Y-110260714D01*
X149937857Y-110546428D01*
X149937857Y-110760714D01*
X150009285Y-111046428D01*
X150080714Y-111189285D01*
X150223571Y-111332142D01*
X150437857Y-111403571D01*
X150580714Y-111403571D01*
X150795000Y-111332142D01*
X150866428Y-111260714D01*
X150866428Y-110760714D01*
X150580714Y-110760714D01*
X146937857Y-112953571D02*
X147509285Y-112953571D01*
X147152142Y-113953571D02*
X147152142Y-112667857D01*
X147223571Y-112525000D01*
X147366428Y-112453571D01*
X147509285Y-112453571D01*
X148009285Y-113953571D02*
X148009285Y-112953571D01*
X148009285Y-113239285D02*
X148080714Y-113096428D01*
X148152142Y-113025000D01*
X148295000Y-112953571D01*
X148437857Y-112953571D01*
X149152142Y-113953571D02*
X149009285Y-113882142D01*
X148937857Y-113810714D01*
X148866428Y-113667857D01*
X148866428Y-113239285D01*
X148937857Y-113096428D01*
X149009285Y-113025000D01*
X149152142Y-112953571D01*
X149366428Y-112953571D01*
X149509285Y-113025000D01*
X149580714Y-113096428D01*
X149652142Y-113239285D01*
X149652142Y-113667857D01*
X149580714Y-113810714D01*
X149509285Y-113882142D01*
X149366428Y-113953571D01*
X149152142Y-113953571D01*
X150295000Y-112953571D02*
X150295000Y-113953571D01*
X150295000Y-113096428D02*
X150366428Y-113025000D01*
X150509285Y-112953571D01*
X150723571Y-112953571D01*
X150866428Y-113025000D01*
X150937857Y-113167857D01*
X150937857Y-113953571D01*
X151437857Y-112953571D02*
X152009285Y-112953571D01*
X151652142Y-112453571D02*
X151652142Y-113739285D01*
X151723571Y-113882142D01*
X151866428Y-113953571D01*
X152009285Y-113953571D01*
X153080714Y-113882142D02*
X152937857Y-113953571D01*
X152652142Y-113953571D01*
X152509285Y-113882142D01*
X152437857Y-113739285D01*
X152437857Y-113167857D01*
X152509285Y-113025000D01*
X152652142Y-112953571D01*
X152937857Y-112953571D01*
X153080714Y-113025000D01*
X153152142Y-113167857D01*
X153152142Y-113310714D01*
X152437857Y-113453571D01*
X153795000Y-112953571D02*
X153795000Y-113953571D01*
X153795000Y-113096428D02*
X153866428Y-113025000D01*
X154009285Y-112953571D01*
X154223571Y-112953571D01*
X154366428Y-113025000D01*
X154437857Y-113167857D01*
X154437857Y-113953571D01*
X155795000Y-113953571D02*
X155795000Y-112453571D01*
X155795000Y-113882142D02*
X155652142Y-113953571D01*
X155366428Y-113953571D01*
X155223571Y-113882142D01*
X155152142Y-113810714D01*
X155080714Y-113667857D01*
X155080714Y-113239285D01*
X155152142Y-113096428D01*
X155223571Y-113025000D01*
X155366428Y-112953571D01*
X155652142Y-112953571D01*
X155795000Y-113025000D01*
X124550000Y-115635714D02*
X124478571Y-115707142D01*
X124264285Y-115778571D01*
X124121428Y-115778571D01*
X123907142Y-115707142D01*
X123764285Y-115564285D01*
X123692857Y-115421428D01*
X123621428Y-115135714D01*
X123621428Y-114921428D01*
X123692857Y-114635714D01*
X123764285Y-114492857D01*
X123907142Y-114350000D01*
X124121428Y-114278571D01*
X124264285Y-114278571D01*
X124478571Y-114350000D01*
X124550000Y-114421428D01*
X125192857Y-115778571D02*
X125192857Y-114278571D01*
X125835714Y-115778571D02*
X125835714Y-114992857D01*
X125764285Y-114850000D01*
X125621428Y-114778571D01*
X125407142Y-114778571D01*
X125264285Y-114850000D01*
X125192857Y-114921428D01*
X127192857Y-115778571D02*
X127192857Y-114992857D01*
X127121428Y-114850000D01*
X126978571Y-114778571D01*
X126692857Y-114778571D01*
X126550000Y-114850000D01*
X127192857Y-115707142D02*
X127050000Y-115778571D01*
X126692857Y-115778571D01*
X126550000Y-115707142D01*
X126478571Y-115564285D01*
X126478571Y-115421428D01*
X126550000Y-115278571D01*
X126692857Y-115207142D01*
X127050000Y-115207142D01*
X127192857Y-115135714D01*
X127907142Y-115778571D02*
X127907142Y-114778571D01*
X127907142Y-115064285D02*
X127978571Y-114921428D01*
X128050000Y-114850000D01*
X128192857Y-114778571D01*
X128335714Y-114778571D01*
X129478571Y-114778571D02*
X129478571Y-115992857D01*
X129407142Y-116135714D01*
X129335714Y-116207142D01*
X129192857Y-116278571D01*
X128978571Y-116278571D01*
X128835714Y-116207142D01*
X129478571Y-115707142D02*
X129335714Y-115778571D01*
X129050000Y-115778571D01*
X128907142Y-115707142D01*
X128835714Y-115635714D01*
X128764285Y-115492857D01*
X128764285Y-115064285D01*
X128835714Y-114921428D01*
X128907142Y-114850000D01*
X129050000Y-114778571D01*
X129335714Y-114778571D01*
X129478571Y-114850000D01*
X130192857Y-115778571D02*
X130192857Y-114778571D01*
X130192857Y-114278571D02*
X130121428Y-114350000D01*
X130192857Y-114421428D01*
X130264285Y-114350000D01*
X130192857Y-114278571D01*
X130192857Y-114421428D01*
X130907142Y-114778571D02*
X130907142Y-115778571D01*
X130907142Y-114921428D02*
X130978571Y-114850000D01*
X131121428Y-114778571D01*
X131335714Y-114778571D01*
X131478571Y-114850000D01*
X131550000Y-114992857D01*
X131550000Y-115778571D01*
X132907142Y-114778571D02*
X132907142Y-115992857D01*
X132835714Y-116135714D01*
X132764285Y-116207142D01*
X132621428Y-116278571D01*
X132407142Y-116278571D01*
X132264285Y-116207142D01*
X132907142Y-115707142D02*
X132764285Y-115778571D01*
X132478571Y-115778571D01*
X132335714Y-115707142D01*
X132264285Y-115635714D01*
X132192857Y-115492857D01*
X132192857Y-115064285D01*
X132264285Y-114921428D01*
X132335714Y-114850000D01*
X132478571Y-114778571D01*
X132764285Y-114778571D01*
X132907142Y-114850000D01*
X153358571Y-102953571D02*
X152858571Y-102239285D01*
X152501428Y-102953571D02*
X152501428Y-101453571D01*
X153072857Y-101453571D01*
X153215714Y-101525000D01*
X153287142Y-101596428D01*
X153358571Y-101739285D01*
X153358571Y-101953571D01*
X153287142Y-102096428D01*
X153215714Y-102167857D01*
X153072857Y-102239285D01*
X152501428Y-102239285D01*
X154001428Y-102953571D02*
X154001428Y-101953571D01*
X154001428Y-101453571D02*
X153930000Y-101525000D01*
X154001428Y-101596428D01*
X154072857Y-101525000D01*
X154001428Y-101453571D01*
X154001428Y-101596428D01*
X155358571Y-101953571D02*
X155358571Y-103167857D01*
X155287142Y-103310714D01*
X155215714Y-103382142D01*
X155072857Y-103453571D01*
X154858571Y-103453571D01*
X154715714Y-103382142D01*
X155358571Y-102882142D02*
X155215714Y-102953571D01*
X154930000Y-102953571D01*
X154787142Y-102882142D01*
X154715714Y-102810714D01*
X154644285Y-102667857D01*
X154644285Y-102239285D01*
X154715714Y-102096428D01*
X154787142Y-102025000D01*
X154930000Y-101953571D01*
X155215714Y-101953571D01*
X155358571Y-102025000D01*
X156072857Y-102953571D02*
X156072857Y-101453571D01*
X156715714Y-102953571D02*
X156715714Y-102167857D01*
X156644285Y-102025000D01*
X156501428Y-101953571D01*
X156287142Y-101953571D01*
X156144285Y-102025000D01*
X156072857Y-102096428D01*
X157215714Y-101953571D02*
X157787142Y-101953571D01*
X157430000Y-101453571D02*
X157430000Y-102739285D01*
X157501428Y-102882142D01*
X157644285Y-102953571D01*
X157787142Y-102953571D01*
X154644285Y-105503571D02*
X154644285Y-104717857D01*
X154572857Y-104575000D01*
X154430000Y-104503571D01*
X154144285Y-104503571D01*
X154001428Y-104575000D01*
X154644285Y-105432142D02*
X154501428Y-105503571D01*
X154144285Y-105503571D01*
X154001428Y-105432142D01*
X153930000Y-105289285D01*
X153930000Y-105146428D01*
X154001428Y-105003571D01*
X154144285Y-104932142D01*
X154501428Y-104932142D01*
X154644285Y-104860714D01*
X155358571Y-105503571D02*
X155358571Y-104503571D01*
X155358571Y-104789285D02*
X155430000Y-104646428D01*
X155501428Y-104575000D01*
X155644285Y-104503571D01*
X155787142Y-104503571D01*
X156287142Y-105503571D02*
X156287142Y-104503571D01*
X156287142Y-104646428D02*
X156358571Y-104575000D01*
X156501428Y-104503571D01*
X156715714Y-104503571D01*
X156858571Y-104575000D01*
X156930000Y-104717857D01*
X156930000Y-105503571D01*
X156930000Y-104717857D02*
X157001428Y-104575000D01*
X157144285Y-104503571D01*
X157358571Y-104503571D01*
X157501428Y-104575000D01*
X157572857Y-104717857D01*
X157572857Y-105503571D01*
X121641428Y-102953571D02*
X120927142Y-102953571D01*
X120927142Y-101453571D01*
X122712857Y-102882142D02*
X122570000Y-102953571D01*
X122284285Y-102953571D01*
X122141428Y-102882142D01*
X122070000Y-102739285D01*
X122070000Y-102167857D01*
X122141428Y-102025000D01*
X122284285Y-101953571D01*
X122570000Y-101953571D01*
X122712857Y-102025000D01*
X122784285Y-102167857D01*
X122784285Y-102310714D01*
X122070000Y-102453571D01*
X123212857Y-101953571D02*
X123784285Y-101953571D01*
X123427142Y-102953571D02*
X123427142Y-101667857D01*
X123498571Y-101525000D01*
X123641428Y-101453571D01*
X123784285Y-101453571D01*
X124070000Y-101953571D02*
X124641428Y-101953571D01*
X124284285Y-101453571D02*
X124284285Y-102739285D01*
X124355714Y-102882142D01*
X124498571Y-102953571D01*
X124641428Y-102953571D01*
X121570000Y-105503571D02*
X121570000Y-104717857D01*
X121498571Y-104575000D01*
X121355714Y-104503571D01*
X121070000Y-104503571D01*
X120927142Y-104575000D01*
X121570000Y-105432142D02*
X121427142Y-105503571D01*
X121070000Y-105503571D01*
X120927142Y-105432142D01*
X120855714Y-105289285D01*
X120855714Y-105146428D01*
X120927142Y-105003571D01*
X121070000Y-104932142D01*
X121427142Y-104932142D01*
X121570000Y-104860714D01*
X122284285Y-105503571D02*
X122284285Y-104503571D01*
X122284285Y-104789285D02*
X122355714Y-104646428D01*
X122427142Y-104575000D01*
X122570000Y-104503571D01*
X122712857Y-104503571D01*
X123212857Y-105503571D02*
X123212857Y-104503571D01*
X123212857Y-104646428D02*
X123284285Y-104575000D01*
X123427142Y-104503571D01*
X123641428Y-104503571D01*
X123784285Y-104575000D01*
X123855714Y-104717857D01*
X123855714Y-105503571D01*
X123855714Y-104717857D02*
X123927142Y-104575000D01*
X124070000Y-104503571D01*
X124284285Y-104503571D01*
X124427142Y-104575000D01*
X124498571Y-104717857D01*
X124498571Y-105503571D01*
D12*
%TO.C,U1*%
X146110000Y-106180000D02*
X146110000Y-104420000D01*
X148210000Y-106180000D02*
X148210000Y-104420000D01*
X148210000Y-106180000D02*
X146110000Y-106180000D01*
X148210000Y-104420000D02*
X146110000Y-104420000D01*
D13*
X146130000Y-104390000D02*
G75*
G03*
X146130000Y-104390000I-50000J0D01*
G01*
D14*
%TO.C,C6*%
X144660000Y-103427836D02*
X144660000Y-103212164D01*
X143940000Y-103427836D02*
X143940000Y-103212164D01*
%TO.C,LED4*%
X138395799Y-108035000D02*
X140680799Y-108035000D01*
X140680799Y-108035000D02*
X140680799Y-106565000D01*
X140680799Y-106565000D02*
X138395799Y-106565000D01*
D15*
%TO.C,FID3*%
G36*
X136276840Y-106121747D02*
G01*
X136314249Y-106123434D01*
X136352068Y-106126548D01*
X136387685Y-106130928D01*
X136414115Y-106135494D01*
X136480825Y-106153003D01*
X136542435Y-106177136D01*
X136598735Y-106207608D01*
X136649512Y-106244130D01*
X136694557Y-106286414D01*
X136733656Y-106334173D01*
X136766600Y-106387120D01*
X136793177Y-106444966D01*
X136813176Y-106507425D01*
X136826385Y-106574208D01*
X136832593Y-106645028D01*
X136832356Y-106704902D01*
X136827382Y-106761910D01*
X136817186Y-106816676D01*
X136801306Y-106870619D01*
X136779278Y-106925158D01*
X136750642Y-106981712D01*
X136731377Y-107015075D01*
X136710398Y-107050000D01*
X136262259Y-107050000D01*
X136194085Y-106913475D01*
X136178058Y-106881606D01*
X136162866Y-106851824D01*
X136149000Y-106825060D01*
X136136952Y-106802246D01*
X136127214Y-106784315D01*
X136120277Y-106772199D01*
X136116813Y-106767013D01*
X136100559Y-106753944D01*
X136080679Y-106744683D01*
X136060971Y-106740975D01*
X136060099Y-106740967D01*
X136042806Y-106743826D01*
X136024239Y-106751276D01*
X136007886Y-106761621D01*
X135998801Y-106770759D01*
X135996252Y-106776606D01*
X135991529Y-106789859D01*
X135984857Y-106809804D01*
X135976462Y-106835728D01*
X135966569Y-106866916D01*
X135955405Y-106902656D01*
X135943195Y-106942235D01*
X135930165Y-106984937D01*
X135916541Y-107030050D01*
X135912414Y-107043809D01*
X135898778Y-107089228D01*
X135885803Y-107132250D01*
X135873701Y-107172189D01*
X135862681Y-107208359D01*
X135852954Y-107240072D01*
X135844732Y-107266643D01*
X135838225Y-107287385D01*
X135833644Y-107301612D01*
X135831199Y-107308638D01*
X135830898Y-107309259D01*
X135829357Y-107305718D01*
X135825668Y-107294565D01*
X135819988Y-107276337D01*
X135812476Y-107251570D01*
X135803288Y-107220798D01*
X135792582Y-107184558D01*
X135780517Y-107143384D01*
X135767250Y-107097814D01*
X135752938Y-107048381D01*
X135737740Y-106995623D01*
X135721813Y-106940074D01*
X135709976Y-106898626D01*
X135693541Y-106841064D01*
X135677684Y-106785673D01*
X135662567Y-106733011D01*
X135648352Y-106683639D01*
X135635201Y-106638115D01*
X135623279Y-106596999D01*
X135612745Y-106560852D01*
X135603765Y-106530231D01*
X135596499Y-106505697D01*
X135591110Y-106487809D01*
X135587761Y-106477127D01*
X135586732Y-106474266D01*
X135573126Y-106455200D01*
X135555228Y-106441970D01*
X135534625Y-106434557D01*
X135512903Y-106432943D01*
X135491646Y-106437106D01*
X135472442Y-106447030D01*
X135456875Y-106462694D01*
X135449467Y-106475924D01*
X135447195Y-106482936D01*
X135443085Y-106497443D01*
X135437325Y-106518720D01*
X135430104Y-106546040D01*
X135421610Y-106578679D01*
X135412031Y-106615911D01*
X135401556Y-106657010D01*
X135390372Y-106701251D01*
X135378668Y-106747908D01*
X135372744Y-106771658D01*
X135303449Y-107050000D01*
X134789601Y-107050000D01*
X134768623Y-107015075D01*
X134736036Y-106956725D01*
X134710323Y-106901190D01*
X134691024Y-106847054D01*
X134677679Y-106792902D01*
X134669826Y-106737321D01*
X134667653Y-106704983D01*
X134668009Y-106631467D01*
X134675446Y-106561517D01*
X134689852Y-106495465D01*
X134711118Y-106433641D01*
X134739132Y-106376379D01*
X134773785Y-106324009D01*
X134807778Y-106284215D01*
X134853960Y-106241498D01*
X134904515Y-106205467D01*
X134959733Y-106175997D01*
X135019905Y-106152966D01*
X135085322Y-106136253D01*
X135156276Y-106125733D01*
X135189944Y-106122996D01*
X135250785Y-106121828D01*
X135308404Y-106126365D01*
X135363899Y-106136950D01*
X135418369Y-106153927D01*
X135472912Y-106177638D01*
X135528626Y-106208425D01*
X135586611Y-106246633D01*
X135587016Y-106246920D01*
X135641910Y-106287435D01*
X135689285Y-106326062D01*
X135721425Y-106355210D01*
X135750000Y-106382522D01*
X135778575Y-106355210D01*
X135817547Y-106320285D01*
X135862673Y-106283909D01*
X135912138Y-106247491D01*
X135953848Y-106219120D01*
X136015222Y-106183401D01*
X136078336Y-106155494D01*
X136142618Y-106135609D01*
X136207492Y-106123959D01*
X136213706Y-106123284D01*
X136242455Y-106121643D01*
X136276840Y-106121747D01*
G37*
X136276840Y-106121747D02*
X136314249Y-106123434D01*
X136352068Y-106126548D01*
X136387685Y-106130928D01*
X136414115Y-106135494D01*
X136480825Y-106153003D01*
X136542435Y-106177136D01*
X136598735Y-106207608D01*
X136649512Y-106244130D01*
X136694557Y-106286414D01*
X136733656Y-106334173D01*
X136766600Y-106387120D01*
X136793177Y-106444966D01*
X136813176Y-106507425D01*
X136826385Y-106574208D01*
X136832593Y-106645028D01*
X136832356Y-106704902D01*
X136827382Y-106761910D01*
X136817186Y-106816676D01*
X136801306Y-106870619D01*
X136779278Y-106925158D01*
X136750642Y-106981712D01*
X136731377Y-107015075D01*
X136710398Y-107050000D01*
X136262259Y-107050000D01*
X136194085Y-106913475D01*
X136178058Y-106881606D01*
X136162866Y-106851824D01*
X136149000Y-106825060D01*
X136136952Y-106802246D01*
X136127214Y-106784315D01*
X136120277Y-106772199D01*
X136116813Y-106767013D01*
X136100559Y-106753944D01*
X136080679Y-106744683D01*
X136060971Y-106740975D01*
X136060099Y-106740967D01*
X136042806Y-106743826D01*
X136024239Y-106751276D01*
X136007886Y-106761621D01*
X135998801Y-106770759D01*
X135996252Y-106776606D01*
X135991529Y-106789859D01*
X135984857Y-106809804D01*
X135976462Y-106835728D01*
X135966569Y-106866916D01*
X135955405Y-106902656D01*
X135943195Y-106942235D01*
X135930165Y-106984937D01*
X135916541Y-107030050D01*
X135912414Y-107043809D01*
X135898778Y-107089228D01*
X135885803Y-107132250D01*
X135873701Y-107172189D01*
X135862681Y-107208359D01*
X135852954Y-107240072D01*
X135844732Y-107266643D01*
X135838225Y-107287385D01*
X135833644Y-107301612D01*
X135831199Y-107308638D01*
X135830898Y-107309259D01*
X135829357Y-107305718D01*
X135825668Y-107294565D01*
X135819988Y-107276337D01*
X135812476Y-107251570D01*
X135803288Y-107220798D01*
X135792582Y-107184558D01*
X135780517Y-107143384D01*
X135767250Y-107097814D01*
X135752938Y-107048381D01*
X135737740Y-106995623D01*
X135721813Y-106940074D01*
X135709976Y-106898626D01*
X135693541Y-106841064D01*
X135677684Y-106785673D01*
X135662567Y-106733011D01*
X135648352Y-106683639D01*
X135635201Y-106638115D01*
X135623279Y-106596999D01*
X135612745Y-106560852D01*
X135603765Y-106530231D01*
X135596499Y-106505697D01*
X135591110Y-106487809D01*
X135587761Y-106477127D01*
X135586732Y-106474266D01*
X135573126Y-106455200D01*
X135555228Y-106441970D01*
X135534625Y-106434557D01*
X135512903Y-106432943D01*
X135491646Y-106437106D01*
X135472442Y-106447030D01*
X135456875Y-106462694D01*
X135449467Y-106475924D01*
X135447195Y-106482936D01*
X135443085Y-106497443D01*
X135437325Y-106518720D01*
X135430104Y-106546040D01*
X135421610Y-106578679D01*
X135412031Y-106615911D01*
X135401556Y-106657010D01*
X135390372Y-106701251D01*
X135378668Y-106747908D01*
X135372744Y-106771658D01*
X135303449Y-107050000D01*
X134789601Y-107050000D01*
X134768623Y-107015075D01*
X134736036Y-106956725D01*
X134710323Y-106901190D01*
X134691024Y-106847054D01*
X134677679Y-106792902D01*
X134669826Y-106737321D01*
X134667653Y-106704983D01*
X134668009Y-106631467D01*
X134675446Y-106561517D01*
X134689852Y-106495465D01*
X134711118Y-106433641D01*
X134739132Y-106376379D01*
X134773785Y-106324009D01*
X134807778Y-106284215D01*
X134853960Y-106241498D01*
X134904515Y-106205467D01*
X134959733Y-106175997D01*
X135019905Y-106152966D01*
X135085322Y-106136253D01*
X135156276Y-106125733D01*
X135189944Y-106122996D01*
X135250785Y-106121828D01*
X135308404Y-106126365D01*
X135363899Y-106136950D01*
X135418369Y-106153927D01*
X135472912Y-106177638D01*
X135528626Y-106208425D01*
X135586611Y-106246633D01*
X135587016Y-106246920D01*
X135641910Y-106287435D01*
X135689285Y-106326062D01*
X135721425Y-106355210D01*
X135750000Y-106382522D01*
X135778575Y-106355210D01*
X135817547Y-106320285D01*
X135862673Y-106283909D01*
X135912138Y-106247491D01*
X135953848Y-106219120D01*
X136015222Y-106183401D01*
X136078336Y-106155494D01*
X136142618Y-106135609D01*
X136207492Y-106123959D01*
X136213706Y-106123284D01*
X136242455Y-106121643D01*
X136276840Y-106121747D01*
G36*
X135522240Y-106818297D02*
G01*
X135526164Y-106828886D01*
X135532286Y-106847568D01*
X135540607Y-106874350D01*
X135551131Y-106909244D01*
X135563860Y-106952259D01*
X135578797Y-107003404D01*
X135595946Y-107062690D01*
X135615309Y-107130125D01*
X135636889Y-107205721D01*
X135639522Y-107214971D01*
X135658147Y-107280230D01*
X135675677Y-107341289D01*
X135691992Y-107397746D01*
X135706974Y-107449202D01*
X135720503Y-107495255D01*
X135732461Y-107535505D01*
X135742729Y-107569550D01*
X135751187Y-107596990D01*
X135757717Y-107617424D01*
X135762199Y-107630450D01*
X135764342Y-107635448D01*
X135779233Y-107650791D01*
X135799177Y-107661599D01*
X135821630Y-107667081D01*
X135844051Y-107666443D01*
X135854499Y-107663564D01*
X135867206Y-107656427D01*
X135880702Y-107645461D01*
X135891420Y-107633725D01*
X135894054Y-107629642D01*
X135895844Y-107624572D01*
X135899860Y-107612054D01*
X135905897Y-107592749D01*
X135913753Y-107567319D01*
X135923226Y-107536428D01*
X135934113Y-107500738D01*
X135946212Y-107460910D01*
X135959319Y-107417608D01*
X135973232Y-107371494D01*
X135984721Y-107333309D01*
X135999138Y-107285378D01*
X136012910Y-107239691D01*
X136025833Y-107196915D01*
X136037704Y-107157717D01*
X136048319Y-107122765D01*
X136057477Y-107092727D01*
X136064973Y-107068270D01*
X136070605Y-107050062D01*
X136074170Y-107038771D01*
X136075389Y-107035183D01*
X136077241Y-107033477D01*
X136080272Y-107035468D01*
X136084944Y-107041906D01*
X136091718Y-107053540D01*
X136101057Y-107071120D01*
X136113421Y-107095394D01*
X136117518Y-107103552D01*
X136132115Y-107132217D01*
X136143835Y-107154085D01*
X136153245Y-107170092D01*
X136160910Y-107181176D01*
X136167398Y-107188274D01*
X136169969Y-107190335D01*
X136183917Y-107200283D01*
X136381825Y-107201462D01*
X136421850Y-107201776D01*
X136459166Y-107202216D01*
X136492942Y-107202760D01*
X136522349Y-107203389D01*
X136546560Y-107204083D01*
X136564745Y-107204820D01*
X136576074Y-107205581D01*
X136579733Y-107206304D01*
X136576743Y-107209783D01*
X136568067Y-107218685D01*
X136554144Y-107232585D01*
X136535414Y-107251062D01*
X136512316Y-107273692D01*
X136485291Y-107300054D01*
X136454777Y-107329723D01*
X136421214Y-107362278D01*
X136385043Y-107397296D01*
X136346702Y-107434354D01*
X136306631Y-107473030D01*
X136265270Y-107512901D01*
X136223058Y-107553544D01*
X136180436Y-107594536D01*
X136137842Y-107635456D01*
X136095717Y-107675879D01*
X136054500Y-107715384D01*
X136014630Y-107753548D01*
X135976547Y-107789948D01*
X135940692Y-107824161D01*
X135907502Y-107855766D01*
X135877419Y-107884338D01*
X135850882Y-107909456D01*
X135828330Y-107930697D01*
X135810203Y-107947638D01*
X135796940Y-107959856D01*
X135788982Y-107966929D01*
X135786943Y-107968524D01*
X135763867Y-107977637D01*
X135740553Y-107978506D01*
X135726717Y-107974999D01*
X135716141Y-107971161D01*
X135709675Y-107968924D01*
X135708866Y-107968697D01*
X135705622Y-107965800D01*
X135696740Y-107957432D01*
X135682656Y-107944015D01*
X135663809Y-107925973D01*
X135640638Y-107903729D01*
X135613579Y-107877708D01*
X135583071Y-107848333D01*
X135549551Y-107816026D01*
X135513458Y-107781213D01*
X135475229Y-107744316D01*
X135435303Y-107705759D01*
X135394117Y-107665965D01*
X135352108Y-107625358D01*
X135309716Y-107584362D01*
X135267378Y-107543400D01*
X135225531Y-107502896D01*
X135184615Y-107463273D01*
X135145065Y-107424955D01*
X135107322Y-107388365D01*
X135071821Y-107353927D01*
X135039002Y-107322064D01*
X135009302Y-107293200D01*
X134983159Y-107267759D01*
X134961012Y-107246164D01*
X134943297Y-107228839D01*
X134930453Y-107216207D01*
X134922917Y-107208691D01*
X134921007Y-107206654D01*
X134924857Y-107205726D01*
X134936827Y-107204861D01*
X134956574Y-107204067D01*
X134983749Y-107203351D01*
X135018009Y-107202722D01*
X135059007Y-107202186D01*
X135106399Y-107201753D01*
X135156289Y-107201445D01*
X135392948Y-107200283D01*
X135408760Y-107188221D01*
X135419964Y-107177754D01*
X135428819Y-107166200D01*
X135430629Y-107162821D01*
X135432967Y-107155833D01*
X135437052Y-107141592D01*
X135442629Y-107121070D01*
X135449441Y-107095240D01*
X135457233Y-107065075D01*
X135465749Y-107031548D01*
X135474733Y-106995632D01*
X135476996Y-106986500D01*
X135485949Y-106950426D01*
X135494373Y-106916736D01*
X135502028Y-106886358D01*
X135508679Y-106860225D01*
X135514088Y-106839265D01*
X135518017Y-106824409D01*
X135520231Y-106816588D01*
X135520509Y-106815790D01*
X135522240Y-106818297D01*
G37*
X135522240Y-106818297D02*
X135526164Y-106828886D01*
X135532286Y-106847568D01*
X135540607Y-106874350D01*
X135551131Y-106909244D01*
X135563860Y-106952259D01*
X135578797Y-107003404D01*
X135595946Y-107062690D01*
X135615309Y-107130125D01*
X135636889Y-107205721D01*
X135639522Y-107214971D01*
X135658147Y-107280230D01*
X135675677Y-107341289D01*
X135691992Y-107397746D01*
X135706974Y-107449202D01*
X135720503Y-107495255D01*
X135732461Y-107535505D01*
X135742729Y-107569550D01*
X135751187Y-107596990D01*
X135757717Y-107617424D01*
X135762199Y-107630450D01*
X135764342Y-107635448D01*
X135779233Y-107650791D01*
X135799177Y-107661599D01*
X135821630Y-107667081D01*
X135844051Y-107666443D01*
X135854499Y-107663564D01*
X135867206Y-107656427D01*
X135880702Y-107645461D01*
X135891420Y-107633725D01*
X135894054Y-107629642D01*
X135895844Y-107624572D01*
X135899860Y-107612054D01*
X135905897Y-107592749D01*
X135913753Y-107567319D01*
X135923226Y-107536428D01*
X135934113Y-107500738D01*
X135946212Y-107460910D01*
X135959319Y-107417608D01*
X135973232Y-107371494D01*
X135984721Y-107333309D01*
X135999138Y-107285378D01*
X136012910Y-107239691D01*
X136025833Y-107196915D01*
X136037704Y-107157717D01*
X136048319Y-107122765D01*
X136057477Y-107092727D01*
X136064973Y-107068270D01*
X136070605Y-107050062D01*
X136074170Y-107038771D01*
X136075389Y-107035183D01*
X136077241Y-107033477D01*
X136080272Y-107035468D01*
X136084944Y-107041906D01*
X136091718Y-107053540D01*
X136101057Y-107071120D01*
X136113421Y-107095394D01*
X136117518Y-107103552D01*
X136132115Y-107132217D01*
X136143835Y-107154085D01*
X136153245Y-107170092D01*
X136160910Y-107181176D01*
X136167398Y-107188274D01*
X136169969Y-107190335D01*
X136183917Y-107200283D01*
X136381825Y-107201462D01*
X136421850Y-107201776D01*
X136459166Y-107202216D01*
X136492942Y-107202760D01*
X136522349Y-107203389D01*
X136546560Y-107204083D01*
X136564745Y-107204820D01*
X136576074Y-107205581D01*
X136579733Y-107206304D01*
X136576743Y-107209783D01*
X136568067Y-107218685D01*
X136554144Y-107232585D01*
X136535414Y-107251062D01*
X136512316Y-107273692D01*
X136485291Y-107300054D01*
X136454777Y-107329723D01*
X136421214Y-107362278D01*
X136385043Y-107397296D01*
X136346702Y-107434354D01*
X136306631Y-107473030D01*
X136265270Y-107512901D01*
X136223058Y-107553544D01*
X136180436Y-107594536D01*
X136137842Y-107635456D01*
X136095717Y-107675879D01*
X136054500Y-107715384D01*
X136014630Y-107753548D01*
X135976547Y-107789948D01*
X135940692Y-107824161D01*
X135907502Y-107855766D01*
X135877419Y-107884338D01*
X135850882Y-107909456D01*
X135828330Y-107930697D01*
X135810203Y-107947638D01*
X135796940Y-107959856D01*
X135788982Y-107966929D01*
X135786943Y-107968524D01*
X135763867Y-107977637D01*
X135740553Y-107978506D01*
X135726717Y-107974999D01*
X135716141Y-107971161D01*
X135709675Y-107968924D01*
X135708866Y-107968697D01*
X135705622Y-107965800D01*
X135696740Y-107957432D01*
X135682656Y-107944015D01*
X135663809Y-107925973D01*
X135640638Y-107903729D01*
X135613579Y-107877708D01*
X135583071Y-107848333D01*
X135549551Y-107816026D01*
X135513458Y-107781213D01*
X135475229Y-107744316D01*
X135435303Y-107705759D01*
X135394117Y-107665965D01*
X135352108Y-107625358D01*
X135309716Y-107584362D01*
X135267378Y-107543400D01*
X135225531Y-107502896D01*
X135184615Y-107463273D01*
X135145065Y-107424955D01*
X135107322Y-107388365D01*
X135071821Y-107353927D01*
X135039002Y-107322064D01*
X135009302Y-107293200D01*
X134983159Y-107267759D01*
X134961012Y-107246164D01*
X134943297Y-107228839D01*
X134930453Y-107216207D01*
X134922917Y-107208691D01*
X134921007Y-107206654D01*
X134924857Y-107205726D01*
X134936827Y-107204861D01*
X134956574Y-107204067D01*
X134983749Y-107203351D01*
X135018009Y-107202722D01*
X135059007Y-107202186D01*
X135106399Y-107201753D01*
X135156289Y-107201445D01*
X135392948Y-107200283D01*
X135408760Y-107188221D01*
X135419964Y-107177754D01*
X135428819Y-107166200D01*
X135430629Y-107162821D01*
X135432967Y-107155833D01*
X135437052Y-107141592D01*
X135442629Y-107121070D01*
X135449441Y-107095240D01*
X135457233Y-107065075D01*
X135465749Y-107031548D01*
X135474733Y-106995632D01*
X135476996Y-106986500D01*
X135485949Y-106950426D01*
X135494373Y-106916736D01*
X135502028Y-106886358D01*
X135508679Y-106860225D01*
X135514088Y-106839265D01*
X135518017Y-106824409D01*
X135520231Y-106816588D01*
X135520509Y-106815790D01*
X135522240Y-106818297D01*
D14*
%TO.C,LED7*%
X138395799Y-105035000D02*
X140680799Y-105035000D01*
X140680799Y-105035000D02*
X140680799Y-103565000D01*
X140680799Y-103565000D02*
X138395799Y-103565000D01*
%TO.C,LED6*%
X138395799Y-103535000D02*
X140680799Y-103535000D01*
X140680799Y-103535000D02*
X140680799Y-102065000D01*
X140680799Y-102065000D02*
X138395799Y-102065000D01*
%TO.C,LED5*%
X138395799Y-102035000D02*
X140680799Y-102035000D01*
X140680799Y-102035000D02*
X140680799Y-100565000D01*
X140680799Y-100565000D02*
X138395799Y-100565000D01*
%TO.C,LED3*%
X138395799Y-109535000D02*
X140680799Y-109535000D01*
X140680799Y-109535000D02*
X140680799Y-108065000D01*
X140680799Y-108065000D02*
X138395799Y-108065000D01*
%TO.C,LED2*%
X138395799Y-111035000D02*
X140680799Y-111035000D01*
X140680799Y-111035000D02*
X140680799Y-109565000D01*
X140680799Y-109565000D02*
X138395799Y-109565000D01*
%TO.C,LED1*%
X138395799Y-106535000D02*
X140680799Y-106535000D01*
X140680799Y-106535000D02*
X140680799Y-105065000D01*
X140680799Y-105065000D02*
X138395799Y-105065000D01*
%TO.C,C3*%
X145040000Y-101507836D02*
X145040000Y-101292164D01*
X145760000Y-101507836D02*
X145760000Y-101292164D01*
%TO.C,C5*%
X145040000Y-103407836D02*
X145040000Y-103192164D01*
X145760000Y-103407836D02*
X145760000Y-103192164D01*
%TO.C,C1*%
X147907836Y-104060000D02*
X147692164Y-104060000D01*
X147907836Y-103340000D02*
X147692164Y-103340000D01*
%TO.C,C7*%
X148007836Y-108860000D02*
X147792164Y-108860000D01*
X148007836Y-108140000D02*
X147792164Y-108140000D01*
%TO.C,C4*%
X149040000Y-108127836D02*
X149040000Y-107912164D01*
X149760000Y-108127836D02*
X149760000Y-107912164D01*
%TO.C,C8*%
X145512164Y-107240000D02*
X145727836Y-107240000D01*
X145512164Y-107960000D02*
X145727836Y-107960000D01*
%TO.C,C2*%
X149560000Y-102192164D02*
X149560000Y-102407836D01*
X148840000Y-102192164D02*
X148840000Y-102407836D01*
%TO.C,J2*%
X148845000Y-95770000D02*
X148845000Y-95135000D01*
X149480000Y-95770000D02*
X148845000Y-95770000D01*
D12*
%TO.C,MOD1*%
X137074201Y-99900000D02*
X141174201Y-99900000D01*
X137074201Y-99900000D02*
X137074201Y-92775000D01*
X141174201Y-99900000D02*
X141174201Y-92775000D01*
X141174201Y-92775000D02*
X142124201Y-92775000D01*
X137074201Y-92775000D02*
X136124201Y-92775000D01*
D13*
X138874201Y-96602380D02*
X138826581Y-96626190D01*
X138731343Y-96626190D01*
X138683724Y-96602380D01*
X138659915Y-96578571D01*
X138636105Y-96530952D01*
X138636105Y-96388095D01*
X138659915Y-96340476D01*
X138683724Y-96316666D01*
X138731343Y-96292857D01*
X138826581Y-96292857D01*
X138874201Y-96316666D01*
X139302772Y-96292857D02*
X139302772Y-96626190D01*
X139088486Y-96292857D02*
X139088486Y-96554761D01*
X139112296Y-96602380D01*
X139159915Y-96626190D01*
X139231343Y-96626190D01*
X139278962Y-96602380D01*
X139302772Y-96578571D01*
X139469439Y-96292857D02*
X139659915Y-96292857D01*
X139540867Y-96126190D02*
X139540867Y-96554761D01*
X139564677Y-96602380D01*
X139612296Y-96626190D01*
X139659915Y-96626190D01*
%TD*%
M02*
