%TF.GenerationSoftware,KiCad,Pcbnew,(6.0.0-0)*%
%TF.CreationDate,2022-01-28T12:00:07+01:00*%
%TF.ProjectId,s1-ecg-demo,73312d65-6367-42d6-9465-6d6f2e6b6963,2*%
%TF.SameCoordinates,Original*%
%TF.FileFunction,Legend,Top*%
%TF.FilePolarity,Positive*%
%FSLAX46Y46*%
G04 Gerber Fmt 4.6, Leading zero omitted, Abs format (unit mm)*
G04 Created by KiCad (PCBNEW (6.0.0-0)) date 2022-01-28 12:00:07*
%MOMM*%
%LPD*%
G01*
G04 APERTURE LIST*
%ADD10C,0.300000*%
%ADD11C,0.150000*%
%ADD12C,0.100000*%
%ADD13C,0.050000*%
%ADD14C,0.120000*%
%ADD15C,0.010000*%
G04 APERTURE END LIST*
D10*
X131335714Y-105128571D02*
X131335714Y-103628571D01*
X131907142Y-103628571D01*
X132050000Y-103700000D01*
X132121428Y-103771428D01*
X132192857Y-103914285D01*
X132192857Y-104128571D01*
X132121428Y-104271428D01*
X132050000Y-104342857D01*
X131907142Y-104414285D01*
X131335714Y-104414285D01*
X133478571Y-104128571D02*
X133478571Y-105128571D01*
X132835714Y-104128571D02*
X132835714Y-104914285D01*
X132907142Y-105057142D01*
X133050000Y-105128571D01*
X133264285Y-105128571D01*
X133407142Y-105057142D01*
X133478571Y-104985714D01*
X134407142Y-105128571D02*
X134264285Y-105057142D01*
X134192857Y-104914285D01*
X134192857Y-103628571D01*
X134907142Y-105057142D02*
X135050000Y-105128571D01*
X135335714Y-105128571D01*
X135478571Y-105057142D01*
X135550000Y-104914285D01*
X135550000Y-104842857D01*
X135478571Y-104700000D01*
X135335714Y-104628571D01*
X135121428Y-104628571D01*
X134978571Y-104557142D01*
X134907142Y-104414285D01*
X134907142Y-104342857D01*
X134978571Y-104200000D01*
X135121428Y-104128571D01*
X135335714Y-104128571D01*
X135478571Y-104200000D01*
X136764285Y-105057142D02*
X136621428Y-105128571D01*
X136335714Y-105128571D01*
X136192857Y-105057142D01*
X136121428Y-104914285D01*
X136121428Y-104342857D01*
X136192857Y-104200000D01*
X136335714Y-104128571D01*
X136621428Y-104128571D01*
X136764285Y-104200000D01*
X136835714Y-104342857D01*
X136835714Y-104485714D01*
X136121428Y-104628571D01*
X123680714Y-91207142D02*
X123895000Y-91278571D01*
X124252142Y-91278571D01*
X124395000Y-91207142D01*
X124466428Y-91135714D01*
X124537857Y-90992857D01*
X124537857Y-90850000D01*
X124466428Y-90707142D01*
X124395000Y-90635714D01*
X124252142Y-90564285D01*
X123966428Y-90492857D01*
X123823571Y-90421428D01*
X123752142Y-90350000D01*
X123680714Y-90207142D01*
X123680714Y-90064285D01*
X123752142Y-89921428D01*
X123823571Y-89850000D01*
X123966428Y-89778571D01*
X124323571Y-89778571D01*
X124537857Y-89850000D01*
X125966428Y-91278571D02*
X125109285Y-91278571D01*
X125537857Y-91278571D02*
X125537857Y-89778571D01*
X125395000Y-89992857D01*
X125252142Y-90135714D01*
X125109285Y-90207142D01*
X127752142Y-91278571D02*
X127752142Y-90278571D01*
X127752142Y-90421428D02*
X127823571Y-90350000D01*
X127966428Y-90278571D01*
X128180714Y-90278571D01*
X128323571Y-90350000D01*
X128395000Y-90492857D01*
X128395000Y-91278571D01*
X128395000Y-90492857D02*
X128466428Y-90350000D01*
X128609285Y-90278571D01*
X128823571Y-90278571D01*
X128966428Y-90350000D01*
X129037857Y-90492857D01*
X129037857Y-91278571D01*
X129966428Y-91278571D02*
X129823571Y-91207142D01*
X129752142Y-91135714D01*
X129680714Y-90992857D01*
X129680714Y-90564285D01*
X129752142Y-90421428D01*
X129823571Y-90350000D01*
X129966428Y-90278571D01*
X130180714Y-90278571D01*
X130323571Y-90350000D01*
X130395000Y-90421428D01*
X130466428Y-90564285D01*
X130466428Y-90992857D01*
X130395000Y-91135714D01*
X130323571Y-91207142D01*
X130180714Y-91278571D01*
X129966428Y-91278571D01*
X131752142Y-91278571D02*
X131752142Y-89778571D01*
X131752142Y-91207142D02*
X131609285Y-91278571D01*
X131323571Y-91278571D01*
X131180714Y-91207142D01*
X131109285Y-91135714D01*
X131037857Y-90992857D01*
X131037857Y-90564285D01*
X131109285Y-90421428D01*
X131180714Y-90350000D01*
X131323571Y-90278571D01*
X131609285Y-90278571D01*
X131752142Y-90350000D01*
X133109285Y-90278571D02*
X133109285Y-91278571D01*
X132466428Y-90278571D02*
X132466428Y-91064285D01*
X132537857Y-91207142D01*
X132680714Y-91278571D01*
X132895000Y-91278571D01*
X133037857Y-91207142D01*
X133109285Y-91135714D01*
X134037857Y-91278571D02*
X133895000Y-91207142D01*
X133823571Y-91064285D01*
X133823571Y-89778571D01*
X135180714Y-91207142D02*
X135037857Y-91278571D01*
X134752142Y-91278571D01*
X134609285Y-91207142D01*
X134537857Y-91064285D01*
X134537857Y-90492857D01*
X134609285Y-90350000D01*
X134752142Y-90278571D01*
X135037857Y-90278571D01*
X135180714Y-90350000D01*
X135252142Y-90492857D01*
X135252142Y-90635714D01*
X134537857Y-90778571D01*
X147728571Y-98128571D02*
X147728571Y-96628571D01*
X148085714Y-96628571D01*
X148300000Y-96700000D01*
X148442857Y-96842857D01*
X148514285Y-96985714D01*
X148585714Y-97271428D01*
X148585714Y-97485714D01*
X148514285Y-97771428D01*
X148442857Y-97914285D01*
X148300000Y-98057142D01*
X148085714Y-98128571D01*
X147728571Y-98128571D01*
X149800000Y-98057142D02*
X149657142Y-98128571D01*
X149371428Y-98128571D01*
X149228571Y-98057142D01*
X149157142Y-97914285D01*
X149157142Y-97342857D01*
X149228571Y-97200000D01*
X149371428Y-97128571D01*
X149657142Y-97128571D01*
X149800000Y-97200000D01*
X149871428Y-97342857D01*
X149871428Y-97485714D01*
X149157142Y-97628571D01*
X150514285Y-98128571D02*
X150514285Y-96628571D01*
X150514285Y-97200000D02*
X150657142Y-97128571D01*
X150942857Y-97128571D01*
X151085714Y-97200000D01*
X151157142Y-97271428D01*
X151228571Y-97414285D01*
X151228571Y-97842857D01*
X151157142Y-97985714D01*
X151085714Y-98057142D01*
X150942857Y-98128571D01*
X150657142Y-98128571D01*
X150514285Y-98057142D01*
X152514285Y-97128571D02*
X152514285Y-98128571D01*
X151871428Y-97128571D02*
X151871428Y-97914285D01*
X151942857Y-98057142D01*
X152085714Y-98128571D01*
X152300000Y-98128571D01*
X152442857Y-98057142D01*
X152514285Y-97985714D01*
X153871428Y-97128571D02*
X153871428Y-98342857D01*
X153800000Y-98485714D01*
X153728571Y-98557142D01*
X153585714Y-98628571D01*
X153371428Y-98628571D01*
X153228571Y-98557142D01*
X153871428Y-98057142D02*
X153728571Y-98128571D01*
X153442857Y-98128571D01*
X153300000Y-98057142D01*
X153228571Y-97985714D01*
X153157142Y-97842857D01*
X153157142Y-97414285D01*
X153228571Y-97271428D01*
X153300000Y-97200000D01*
X153442857Y-97128571D01*
X153728571Y-97128571D01*
X153871428Y-97200000D01*
X146852142Y-110985357D02*
X147352142Y-110985357D01*
X147566428Y-111771071D02*
X146852142Y-111771071D01*
X146852142Y-110271071D01*
X147566428Y-110271071D01*
X149066428Y-111628214D02*
X148995000Y-111699642D01*
X148780714Y-111771071D01*
X148637857Y-111771071D01*
X148423571Y-111699642D01*
X148280714Y-111556785D01*
X148209285Y-111413928D01*
X148137857Y-111128214D01*
X148137857Y-110913928D01*
X148209285Y-110628214D01*
X148280714Y-110485357D01*
X148423571Y-110342500D01*
X148637857Y-110271071D01*
X148780714Y-110271071D01*
X148995000Y-110342500D01*
X149066428Y-110413928D01*
X150495000Y-110342500D02*
X150352142Y-110271071D01*
X150137857Y-110271071D01*
X149923571Y-110342500D01*
X149780714Y-110485357D01*
X149709285Y-110628214D01*
X149637857Y-110913928D01*
X149637857Y-111128214D01*
X149709285Y-111413928D01*
X149780714Y-111556785D01*
X149923571Y-111699642D01*
X150137857Y-111771071D01*
X150280714Y-111771071D01*
X150495000Y-111699642D01*
X150566428Y-111628214D01*
X150566428Y-111128214D01*
X150280714Y-111128214D01*
X146637857Y-113186071D02*
X147209285Y-113186071D01*
X146852142Y-114186071D02*
X146852142Y-112900357D01*
X146923571Y-112757500D01*
X147066428Y-112686071D01*
X147209285Y-112686071D01*
X147709285Y-114186071D02*
X147709285Y-113186071D01*
X147709285Y-113471785D02*
X147780714Y-113328928D01*
X147852142Y-113257500D01*
X147995000Y-113186071D01*
X148137857Y-113186071D01*
X148852142Y-114186071D02*
X148709285Y-114114642D01*
X148637857Y-114043214D01*
X148566428Y-113900357D01*
X148566428Y-113471785D01*
X148637857Y-113328928D01*
X148709285Y-113257500D01*
X148852142Y-113186071D01*
X149066428Y-113186071D01*
X149209285Y-113257500D01*
X149280714Y-113328928D01*
X149352142Y-113471785D01*
X149352142Y-113900357D01*
X149280714Y-114043214D01*
X149209285Y-114114642D01*
X149066428Y-114186071D01*
X148852142Y-114186071D01*
X149995000Y-113186071D02*
X149995000Y-114186071D01*
X149995000Y-113328928D02*
X150066428Y-113257500D01*
X150209285Y-113186071D01*
X150423571Y-113186071D01*
X150566428Y-113257500D01*
X150637857Y-113400357D01*
X150637857Y-114186071D01*
X151137857Y-113186071D02*
X151709285Y-113186071D01*
X151352142Y-112686071D02*
X151352142Y-113971785D01*
X151423571Y-114114642D01*
X151566428Y-114186071D01*
X151709285Y-114186071D01*
X152780714Y-114114642D02*
X152637857Y-114186071D01*
X152352142Y-114186071D01*
X152209285Y-114114642D01*
X152137857Y-113971785D01*
X152137857Y-113400357D01*
X152209285Y-113257500D01*
X152352142Y-113186071D01*
X152637857Y-113186071D01*
X152780714Y-113257500D01*
X152852142Y-113400357D01*
X152852142Y-113543214D01*
X152137857Y-113686071D01*
X153495000Y-113186071D02*
X153495000Y-114186071D01*
X153495000Y-113328928D02*
X153566428Y-113257500D01*
X153709285Y-113186071D01*
X153923571Y-113186071D01*
X154066428Y-113257500D01*
X154137857Y-113400357D01*
X154137857Y-114186071D01*
X155495000Y-114186071D02*
X155495000Y-112686071D01*
X155495000Y-114114642D02*
X155352142Y-114186071D01*
X155066428Y-114186071D01*
X154923571Y-114114642D01*
X154852142Y-114043214D01*
X154780714Y-113900357D01*
X154780714Y-113471785D01*
X154852142Y-113328928D01*
X154923571Y-113257500D01*
X155066428Y-113186071D01*
X155352142Y-113186071D01*
X155495000Y-113257500D01*
X126333571Y-114828214D02*
X126262142Y-114899642D01*
X126047857Y-114971071D01*
X125905000Y-114971071D01*
X125690714Y-114899642D01*
X125547857Y-114756785D01*
X125476428Y-114613928D01*
X125405000Y-114328214D01*
X125405000Y-114113928D01*
X125476428Y-113828214D01*
X125547857Y-113685357D01*
X125690714Y-113542500D01*
X125905000Y-113471071D01*
X126047857Y-113471071D01*
X126262142Y-113542500D01*
X126333571Y-113613928D01*
X126976428Y-114971071D02*
X126976428Y-113471071D01*
X127619285Y-114971071D02*
X127619285Y-114185357D01*
X127547857Y-114042500D01*
X127405000Y-113971071D01*
X127190714Y-113971071D01*
X127047857Y-114042500D01*
X126976428Y-114113928D01*
X128976428Y-114971071D02*
X128976428Y-114185357D01*
X128905000Y-114042500D01*
X128762142Y-113971071D01*
X128476428Y-113971071D01*
X128333571Y-114042500D01*
X128976428Y-114899642D02*
X128833571Y-114971071D01*
X128476428Y-114971071D01*
X128333571Y-114899642D01*
X128262142Y-114756785D01*
X128262142Y-114613928D01*
X128333571Y-114471071D01*
X128476428Y-114399642D01*
X128833571Y-114399642D01*
X128976428Y-114328214D01*
X129690714Y-114971071D02*
X129690714Y-113971071D01*
X129690714Y-114256785D02*
X129762142Y-114113928D01*
X129833571Y-114042500D01*
X129976428Y-113971071D01*
X130119285Y-113971071D01*
X131262142Y-113971071D02*
X131262142Y-115185357D01*
X131190714Y-115328214D01*
X131119285Y-115399642D01*
X130976428Y-115471071D01*
X130762142Y-115471071D01*
X130619285Y-115399642D01*
X131262142Y-114899642D02*
X131119285Y-114971071D01*
X130833571Y-114971071D01*
X130690714Y-114899642D01*
X130619285Y-114828214D01*
X130547857Y-114685357D01*
X130547857Y-114256785D01*
X130619285Y-114113928D01*
X130690714Y-114042500D01*
X130833571Y-113971071D01*
X131119285Y-113971071D01*
X131262142Y-114042500D01*
X132547857Y-114899642D02*
X132405000Y-114971071D01*
X132119285Y-114971071D01*
X131976428Y-114899642D01*
X131905000Y-114756785D01*
X131905000Y-114185357D01*
X131976428Y-114042500D01*
X132119285Y-113971071D01*
X132405000Y-113971071D01*
X132547857Y-114042500D01*
X132619285Y-114185357D01*
X132619285Y-114328214D01*
X131905000Y-114471071D01*
X128762142Y-116386071D02*
X128762142Y-117886071D01*
X128762142Y-116457500D02*
X128905000Y-116386071D01*
X129190714Y-116386071D01*
X129333571Y-116457500D01*
X129405000Y-116528928D01*
X129476428Y-116671785D01*
X129476428Y-117100357D01*
X129405000Y-117243214D01*
X129333571Y-117314642D01*
X129190714Y-117386071D01*
X128905000Y-117386071D01*
X128762142Y-117314642D01*
X130333571Y-117386071D02*
X130190714Y-117314642D01*
X130119285Y-117243214D01*
X130047857Y-117100357D01*
X130047857Y-116671785D01*
X130119285Y-116528928D01*
X130190714Y-116457500D01*
X130333571Y-116386071D01*
X130547857Y-116386071D01*
X130690714Y-116457500D01*
X130762142Y-116528928D01*
X130833571Y-116671785D01*
X130833571Y-117100357D01*
X130762142Y-117243214D01*
X130690714Y-117314642D01*
X130547857Y-117386071D01*
X130333571Y-117386071D01*
X131476428Y-117386071D02*
X131476428Y-116386071D01*
X131476428Y-116671785D02*
X131547857Y-116528928D01*
X131619285Y-116457500D01*
X131762142Y-116386071D01*
X131905000Y-116386071D01*
X132190714Y-116386071D02*
X132762142Y-116386071D01*
X132405000Y-115886071D02*
X132405000Y-117171785D01*
X132476428Y-117314642D01*
X132619285Y-117386071D01*
X132762142Y-117386071D01*
X153358571Y-103021071D02*
X152858571Y-102306785D01*
X152501428Y-103021071D02*
X152501428Y-101521071D01*
X153072857Y-101521071D01*
X153215714Y-101592500D01*
X153287142Y-101663928D01*
X153358571Y-101806785D01*
X153358571Y-102021071D01*
X153287142Y-102163928D01*
X153215714Y-102235357D01*
X153072857Y-102306785D01*
X152501428Y-102306785D01*
X154001428Y-103021071D02*
X154001428Y-102021071D01*
X154001428Y-101521071D02*
X153930000Y-101592500D01*
X154001428Y-101663928D01*
X154072857Y-101592500D01*
X154001428Y-101521071D01*
X154001428Y-101663928D01*
X155358571Y-102021071D02*
X155358571Y-103235357D01*
X155287142Y-103378214D01*
X155215714Y-103449642D01*
X155072857Y-103521071D01*
X154858571Y-103521071D01*
X154715714Y-103449642D01*
X155358571Y-102949642D02*
X155215714Y-103021071D01*
X154930000Y-103021071D01*
X154787142Y-102949642D01*
X154715714Y-102878214D01*
X154644285Y-102735357D01*
X154644285Y-102306785D01*
X154715714Y-102163928D01*
X154787142Y-102092500D01*
X154930000Y-102021071D01*
X155215714Y-102021071D01*
X155358571Y-102092500D01*
X156072857Y-103021071D02*
X156072857Y-101521071D01*
X156715714Y-103021071D02*
X156715714Y-102235357D01*
X156644285Y-102092500D01*
X156501428Y-102021071D01*
X156287142Y-102021071D01*
X156144285Y-102092500D01*
X156072857Y-102163928D01*
X157215714Y-102021071D02*
X157787142Y-102021071D01*
X157430000Y-101521071D02*
X157430000Y-102806785D01*
X157501428Y-102949642D01*
X157644285Y-103021071D01*
X157787142Y-103021071D01*
X154644285Y-105436071D02*
X154644285Y-104650357D01*
X154572857Y-104507500D01*
X154430000Y-104436071D01*
X154144285Y-104436071D01*
X154001428Y-104507500D01*
X154644285Y-105364642D02*
X154501428Y-105436071D01*
X154144285Y-105436071D01*
X154001428Y-105364642D01*
X153930000Y-105221785D01*
X153930000Y-105078928D01*
X154001428Y-104936071D01*
X154144285Y-104864642D01*
X154501428Y-104864642D01*
X154644285Y-104793214D01*
X155358571Y-105436071D02*
X155358571Y-104436071D01*
X155358571Y-104721785D02*
X155430000Y-104578928D01*
X155501428Y-104507500D01*
X155644285Y-104436071D01*
X155787142Y-104436071D01*
X156287142Y-105436071D02*
X156287142Y-104436071D01*
X156287142Y-104578928D02*
X156358571Y-104507500D01*
X156501428Y-104436071D01*
X156715714Y-104436071D01*
X156858571Y-104507500D01*
X156930000Y-104650357D01*
X156930000Y-105436071D01*
X156930000Y-104650357D02*
X157001428Y-104507500D01*
X157144285Y-104436071D01*
X157358571Y-104436071D01*
X157501428Y-104507500D01*
X157572857Y-104650357D01*
X157572857Y-105436071D01*
X121641428Y-103021071D02*
X120927142Y-103021071D01*
X120927142Y-101521071D01*
X122712857Y-102949642D02*
X122570000Y-103021071D01*
X122284285Y-103021071D01*
X122141428Y-102949642D01*
X122070000Y-102806785D01*
X122070000Y-102235357D01*
X122141428Y-102092500D01*
X122284285Y-102021071D01*
X122570000Y-102021071D01*
X122712857Y-102092500D01*
X122784285Y-102235357D01*
X122784285Y-102378214D01*
X122070000Y-102521071D01*
X123212857Y-102021071D02*
X123784285Y-102021071D01*
X123427142Y-103021071D02*
X123427142Y-101735357D01*
X123498571Y-101592500D01*
X123641428Y-101521071D01*
X123784285Y-101521071D01*
X124070000Y-102021071D02*
X124641428Y-102021071D01*
X124284285Y-101521071D02*
X124284285Y-102806785D01*
X124355714Y-102949642D01*
X124498571Y-103021071D01*
X124641428Y-103021071D01*
X121570000Y-105436071D02*
X121570000Y-104650357D01*
X121498571Y-104507500D01*
X121355714Y-104436071D01*
X121070000Y-104436071D01*
X120927142Y-104507500D01*
X121570000Y-105364642D02*
X121427142Y-105436071D01*
X121070000Y-105436071D01*
X120927142Y-105364642D01*
X120855714Y-105221785D01*
X120855714Y-105078928D01*
X120927142Y-104936071D01*
X121070000Y-104864642D01*
X121427142Y-104864642D01*
X121570000Y-104793214D01*
X122284285Y-105436071D02*
X122284285Y-104436071D01*
X122284285Y-104721785D02*
X122355714Y-104578928D01*
X122427142Y-104507500D01*
X122570000Y-104436071D01*
X122712857Y-104436071D01*
X123212857Y-105436071D02*
X123212857Y-104436071D01*
X123212857Y-104578928D02*
X123284285Y-104507500D01*
X123427142Y-104436071D01*
X123641428Y-104436071D01*
X123784285Y-104507500D01*
X123855714Y-104650357D01*
X123855714Y-105436071D01*
X123855714Y-104650357D02*
X123927142Y-104507500D01*
X124070000Y-104436071D01*
X124284285Y-104436071D01*
X124427142Y-104507500D01*
X124498571Y-104650357D01*
X124498571Y-105436071D01*
D11*
%TO.C,U1*%
X141198095Y-101552380D02*
X141198095Y-102361904D01*
X141245714Y-102457142D01*
X141293333Y-102504761D01*
X141388571Y-102552380D01*
X141579047Y-102552380D01*
X141674285Y-102504761D01*
X141721904Y-102457142D01*
X141769523Y-102361904D01*
X141769523Y-101552380D01*
X142769523Y-102552380D02*
X142198095Y-102552380D01*
X142483809Y-102552380D02*
X142483809Y-101552380D01*
X142388571Y-101695238D01*
X142293333Y-101790476D01*
X142198095Y-101838095D01*
D12*
%TO.C,MOD1*%
X138874201Y-96602380D02*
X138826581Y-96626190D01*
X138731343Y-96626190D01*
X138683724Y-96602380D01*
X138659915Y-96578571D01*
X138636105Y-96530952D01*
X138636105Y-96388095D01*
X138659915Y-96340476D01*
X138683724Y-96316666D01*
X138731343Y-96292857D01*
X138826581Y-96292857D01*
X138874201Y-96316666D01*
X139302772Y-96292857D02*
X139302772Y-96626190D01*
X139088486Y-96292857D02*
X139088486Y-96554761D01*
X139112296Y-96602380D01*
X139159915Y-96626190D01*
X139231343Y-96626190D01*
X139278962Y-96602380D01*
X139302772Y-96578571D01*
X139469439Y-96292857D02*
X139659915Y-96292857D01*
X139540867Y-96126190D02*
X139540867Y-96554761D01*
X139564677Y-96602380D01*
X139612296Y-96626190D01*
X139659915Y-96626190D01*
%TO.C,U1*%
X146130000Y-104390000D02*
G75*
G03*
X146130000Y-104390000I-50000J0D01*
G01*
D13*
X148210000Y-104420000D02*
X146110000Y-104420000D01*
X148210000Y-106180000D02*
X146110000Y-106180000D01*
X148210000Y-106180000D02*
X148210000Y-104420000D01*
X146110000Y-106180000D02*
X146110000Y-104420000D01*
D14*
%TO.C,J2*%
X148845000Y-95770000D02*
X148845000Y-95135000D01*
X149480000Y-95770000D02*
X148845000Y-95770000D01*
%TO.C,C6*%
X144660000Y-103427836D02*
X144660000Y-103212164D01*
X143940000Y-103427836D02*
X143940000Y-103212164D01*
%TO.C,LED4*%
X138395799Y-108035000D02*
X140680799Y-108035000D01*
X140680799Y-108035000D02*
X140680799Y-106565000D01*
X140680799Y-106565000D02*
X138395799Y-106565000D01*
D15*
%TO.C,FID3*%
X136276840Y-106121747D02*
X136314249Y-106123434D01*
X136314249Y-106123434D02*
X136352068Y-106126548D01*
X136352068Y-106126548D02*
X136387685Y-106130928D01*
X136387685Y-106130928D02*
X136414115Y-106135494D01*
X136414115Y-106135494D02*
X136480825Y-106153003D01*
X136480825Y-106153003D02*
X136542435Y-106177136D01*
X136542435Y-106177136D02*
X136598735Y-106207608D01*
X136598735Y-106207608D02*
X136649512Y-106244130D01*
X136649512Y-106244130D02*
X136694557Y-106286414D01*
X136694557Y-106286414D02*
X136733656Y-106334173D01*
X136733656Y-106334173D02*
X136766600Y-106387120D01*
X136766600Y-106387120D02*
X136793177Y-106444966D01*
X136793177Y-106444966D02*
X136813176Y-106507425D01*
X136813176Y-106507425D02*
X136826385Y-106574208D01*
X136826385Y-106574208D02*
X136832593Y-106645028D01*
X136832593Y-106645028D02*
X136832356Y-106704902D01*
X136832356Y-106704902D02*
X136827382Y-106761910D01*
X136827382Y-106761910D02*
X136817186Y-106816676D01*
X136817186Y-106816676D02*
X136801306Y-106870619D01*
X136801306Y-106870619D02*
X136779278Y-106925158D01*
X136779278Y-106925158D02*
X136750642Y-106981712D01*
X136750642Y-106981712D02*
X136731377Y-107015075D01*
X136731377Y-107015075D02*
X136710398Y-107050000D01*
X136710398Y-107050000D02*
X136262259Y-107050000D01*
X136262259Y-107050000D02*
X136194085Y-106913475D01*
X136194085Y-106913475D02*
X136178058Y-106881606D01*
X136178058Y-106881606D02*
X136162866Y-106851824D01*
X136162866Y-106851824D02*
X136149000Y-106825060D01*
X136149000Y-106825060D02*
X136136952Y-106802246D01*
X136136952Y-106802246D02*
X136127214Y-106784315D01*
X136127214Y-106784315D02*
X136120277Y-106772199D01*
X136120277Y-106772199D02*
X136116813Y-106767013D01*
X136116813Y-106767013D02*
X136100559Y-106753944D01*
X136100559Y-106753944D02*
X136080679Y-106744683D01*
X136080679Y-106744683D02*
X136060971Y-106740975D01*
X136060971Y-106740975D02*
X136060099Y-106740967D01*
X136060099Y-106740967D02*
X136042806Y-106743826D01*
X136042806Y-106743826D02*
X136024239Y-106751276D01*
X136024239Y-106751276D02*
X136007886Y-106761621D01*
X136007886Y-106761621D02*
X135998801Y-106770759D01*
X135998801Y-106770759D02*
X135996252Y-106776606D01*
X135996252Y-106776606D02*
X135991529Y-106789859D01*
X135991529Y-106789859D02*
X135984857Y-106809804D01*
X135984857Y-106809804D02*
X135976462Y-106835728D01*
X135976462Y-106835728D02*
X135966569Y-106866916D01*
X135966569Y-106866916D02*
X135955405Y-106902656D01*
X135955405Y-106902656D02*
X135943195Y-106942235D01*
X135943195Y-106942235D02*
X135930165Y-106984937D01*
X135930165Y-106984937D02*
X135916541Y-107030050D01*
X135916541Y-107030050D02*
X135912414Y-107043809D01*
X135912414Y-107043809D02*
X135898778Y-107089228D01*
X135898778Y-107089228D02*
X135885803Y-107132250D01*
X135885803Y-107132250D02*
X135873701Y-107172189D01*
X135873701Y-107172189D02*
X135862681Y-107208359D01*
X135862681Y-107208359D02*
X135852954Y-107240072D01*
X135852954Y-107240072D02*
X135844732Y-107266643D01*
X135844732Y-107266643D02*
X135838225Y-107287385D01*
X135838225Y-107287385D02*
X135833644Y-107301612D01*
X135833644Y-107301612D02*
X135831199Y-107308638D01*
X135831199Y-107308638D02*
X135830898Y-107309259D01*
X135830898Y-107309259D02*
X135829357Y-107305718D01*
X135829357Y-107305718D02*
X135825668Y-107294565D01*
X135825668Y-107294565D02*
X135819988Y-107276337D01*
X135819988Y-107276337D02*
X135812476Y-107251570D01*
X135812476Y-107251570D02*
X135803288Y-107220798D01*
X135803288Y-107220798D02*
X135792582Y-107184558D01*
X135792582Y-107184558D02*
X135780517Y-107143384D01*
X135780517Y-107143384D02*
X135767250Y-107097814D01*
X135767250Y-107097814D02*
X135752938Y-107048381D01*
X135752938Y-107048381D02*
X135737740Y-106995623D01*
X135737740Y-106995623D02*
X135721813Y-106940074D01*
X135721813Y-106940074D02*
X135709976Y-106898626D01*
X135709976Y-106898626D02*
X135693541Y-106841064D01*
X135693541Y-106841064D02*
X135677684Y-106785673D01*
X135677684Y-106785673D02*
X135662567Y-106733011D01*
X135662567Y-106733011D02*
X135648352Y-106683639D01*
X135648352Y-106683639D02*
X135635201Y-106638115D01*
X135635201Y-106638115D02*
X135623279Y-106596999D01*
X135623279Y-106596999D02*
X135612745Y-106560852D01*
X135612745Y-106560852D02*
X135603765Y-106530231D01*
X135603765Y-106530231D02*
X135596499Y-106505697D01*
X135596499Y-106505697D02*
X135591110Y-106487809D01*
X135591110Y-106487809D02*
X135587761Y-106477127D01*
X135587761Y-106477127D02*
X135586732Y-106474266D01*
X135586732Y-106474266D02*
X135573126Y-106455200D01*
X135573126Y-106455200D02*
X135555228Y-106441970D01*
X135555228Y-106441970D02*
X135534625Y-106434557D01*
X135534625Y-106434557D02*
X135512903Y-106432943D01*
X135512903Y-106432943D02*
X135491646Y-106437106D01*
X135491646Y-106437106D02*
X135472442Y-106447030D01*
X135472442Y-106447030D02*
X135456875Y-106462694D01*
X135456875Y-106462694D02*
X135449467Y-106475924D01*
X135449467Y-106475924D02*
X135447195Y-106482936D01*
X135447195Y-106482936D02*
X135443085Y-106497443D01*
X135443085Y-106497443D02*
X135437325Y-106518720D01*
X135437325Y-106518720D02*
X135430104Y-106546040D01*
X135430104Y-106546040D02*
X135421610Y-106578679D01*
X135421610Y-106578679D02*
X135412031Y-106615911D01*
X135412031Y-106615911D02*
X135401556Y-106657010D01*
X135401556Y-106657010D02*
X135390372Y-106701251D01*
X135390372Y-106701251D02*
X135378668Y-106747908D01*
X135378668Y-106747908D02*
X135372744Y-106771658D01*
X135372744Y-106771658D02*
X135303449Y-107050000D01*
X135303449Y-107050000D02*
X134789601Y-107050000D01*
X134789601Y-107050000D02*
X134768623Y-107015075D01*
X134768623Y-107015075D02*
X134736036Y-106956725D01*
X134736036Y-106956725D02*
X134710323Y-106901190D01*
X134710323Y-106901190D02*
X134691024Y-106847054D01*
X134691024Y-106847054D02*
X134677679Y-106792902D01*
X134677679Y-106792902D02*
X134669826Y-106737321D01*
X134669826Y-106737321D02*
X134667653Y-106704983D01*
X134667653Y-106704983D02*
X134668009Y-106631467D01*
X134668009Y-106631467D02*
X134675446Y-106561517D01*
X134675446Y-106561517D02*
X134689852Y-106495465D01*
X134689852Y-106495465D02*
X134711118Y-106433641D01*
X134711118Y-106433641D02*
X134739132Y-106376379D01*
X134739132Y-106376379D02*
X134773785Y-106324009D01*
X134773785Y-106324009D02*
X134807778Y-106284215D01*
X134807778Y-106284215D02*
X134853960Y-106241498D01*
X134853960Y-106241498D02*
X134904515Y-106205467D01*
X134904515Y-106205467D02*
X134959733Y-106175997D01*
X134959733Y-106175997D02*
X135019905Y-106152966D01*
X135019905Y-106152966D02*
X135085322Y-106136253D01*
X135085322Y-106136253D02*
X135156276Y-106125733D01*
X135156276Y-106125733D02*
X135189944Y-106122996D01*
X135189944Y-106122996D02*
X135250785Y-106121828D01*
X135250785Y-106121828D02*
X135308404Y-106126365D01*
X135308404Y-106126365D02*
X135363899Y-106136950D01*
X135363899Y-106136950D02*
X135418369Y-106153927D01*
X135418369Y-106153927D02*
X135472912Y-106177638D01*
X135472912Y-106177638D02*
X135528626Y-106208425D01*
X135528626Y-106208425D02*
X135586611Y-106246633D01*
X135586611Y-106246633D02*
X135587016Y-106246920D01*
X135587016Y-106246920D02*
X135641910Y-106287435D01*
X135641910Y-106287435D02*
X135689285Y-106326062D01*
X135689285Y-106326062D02*
X135721425Y-106355210D01*
X135721425Y-106355210D02*
X135750000Y-106382522D01*
X135750000Y-106382522D02*
X135778575Y-106355210D01*
X135778575Y-106355210D02*
X135817547Y-106320285D01*
X135817547Y-106320285D02*
X135862673Y-106283909D01*
X135862673Y-106283909D02*
X135912138Y-106247491D01*
X135912138Y-106247491D02*
X135953848Y-106219120D01*
X135953848Y-106219120D02*
X136015222Y-106183401D01*
X136015222Y-106183401D02*
X136078336Y-106155494D01*
X136078336Y-106155494D02*
X136142618Y-106135609D01*
X136142618Y-106135609D02*
X136207492Y-106123959D01*
X136207492Y-106123959D02*
X136213706Y-106123284D01*
X136213706Y-106123284D02*
X136242455Y-106121643D01*
X136242455Y-106121643D02*
X136276840Y-106121747D01*
X136276840Y-106121747D02*
X136276840Y-106121747D01*
G36*
X136276840Y-106121747D02*
G01*
X136314249Y-106123434D01*
X136352068Y-106126548D01*
X136387685Y-106130928D01*
X136414115Y-106135494D01*
X136480825Y-106153003D01*
X136542435Y-106177136D01*
X136598735Y-106207608D01*
X136649512Y-106244130D01*
X136694557Y-106286414D01*
X136733656Y-106334173D01*
X136766600Y-106387120D01*
X136793177Y-106444966D01*
X136813176Y-106507425D01*
X136826385Y-106574208D01*
X136832593Y-106645028D01*
X136832356Y-106704902D01*
X136827382Y-106761910D01*
X136817186Y-106816676D01*
X136801306Y-106870619D01*
X136779278Y-106925158D01*
X136750642Y-106981712D01*
X136731377Y-107015075D01*
X136710398Y-107050000D01*
X136262259Y-107050000D01*
X136194085Y-106913475D01*
X136178058Y-106881606D01*
X136162866Y-106851824D01*
X136149000Y-106825060D01*
X136136952Y-106802246D01*
X136127214Y-106784315D01*
X136120277Y-106772199D01*
X136116813Y-106767013D01*
X136100559Y-106753944D01*
X136080679Y-106744683D01*
X136060971Y-106740975D01*
X136060099Y-106740967D01*
X136042806Y-106743826D01*
X136024239Y-106751276D01*
X136007886Y-106761621D01*
X135998801Y-106770759D01*
X135996252Y-106776606D01*
X135991529Y-106789859D01*
X135984857Y-106809804D01*
X135976462Y-106835728D01*
X135966569Y-106866916D01*
X135955405Y-106902656D01*
X135943195Y-106942235D01*
X135930165Y-106984937D01*
X135916541Y-107030050D01*
X135912414Y-107043809D01*
X135898778Y-107089228D01*
X135885803Y-107132250D01*
X135873701Y-107172189D01*
X135862681Y-107208359D01*
X135852954Y-107240072D01*
X135844732Y-107266643D01*
X135838225Y-107287385D01*
X135833644Y-107301612D01*
X135831199Y-107308638D01*
X135830898Y-107309259D01*
X135829357Y-107305718D01*
X135825668Y-107294565D01*
X135819988Y-107276337D01*
X135812476Y-107251570D01*
X135803288Y-107220798D01*
X135792582Y-107184558D01*
X135780517Y-107143384D01*
X135767250Y-107097814D01*
X135752938Y-107048381D01*
X135737740Y-106995623D01*
X135721813Y-106940074D01*
X135709976Y-106898626D01*
X135693541Y-106841064D01*
X135677684Y-106785673D01*
X135662567Y-106733011D01*
X135648352Y-106683639D01*
X135635201Y-106638115D01*
X135623279Y-106596999D01*
X135612745Y-106560852D01*
X135603765Y-106530231D01*
X135596499Y-106505697D01*
X135591110Y-106487809D01*
X135587761Y-106477127D01*
X135586732Y-106474266D01*
X135573126Y-106455200D01*
X135555228Y-106441970D01*
X135534625Y-106434557D01*
X135512903Y-106432943D01*
X135491646Y-106437106D01*
X135472442Y-106447030D01*
X135456875Y-106462694D01*
X135449467Y-106475924D01*
X135447195Y-106482936D01*
X135443085Y-106497443D01*
X135437325Y-106518720D01*
X135430104Y-106546040D01*
X135421610Y-106578679D01*
X135412031Y-106615911D01*
X135401556Y-106657010D01*
X135390372Y-106701251D01*
X135378668Y-106747908D01*
X135372744Y-106771658D01*
X135303449Y-107050000D01*
X134789601Y-107050000D01*
X134768623Y-107015075D01*
X134736036Y-106956725D01*
X134710323Y-106901190D01*
X134691024Y-106847054D01*
X134677679Y-106792902D01*
X134669826Y-106737321D01*
X134667653Y-106704983D01*
X134668009Y-106631467D01*
X134675446Y-106561517D01*
X134689852Y-106495465D01*
X134711118Y-106433641D01*
X134739132Y-106376379D01*
X134773785Y-106324009D01*
X134807778Y-106284215D01*
X134853960Y-106241498D01*
X134904515Y-106205467D01*
X134959733Y-106175997D01*
X135019905Y-106152966D01*
X135085322Y-106136253D01*
X135156276Y-106125733D01*
X135189944Y-106122996D01*
X135250785Y-106121828D01*
X135308404Y-106126365D01*
X135363899Y-106136950D01*
X135418369Y-106153927D01*
X135472912Y-106177638D01*
X135528626Y-106208425D01*
X135586611Y-106246633D01*
X135587016Y-106246920D01*
X135641910Y-106287435D01*
X135689285Y-106326062D01*
X135721425Y-106355210D01*
X135750000Y-106382522D01*
X135778575Y-106355210D01*
X135817547Y-106320285D01*
X135862673Y-106283909D01*
X135912138Y-106247491D01*
X135953848Y-106219120D01*
X136015222Y-106183401D01*
X136078336Y-106155494D01*
X136142618Y-106135609D01*
X136207492Y-106123959D01*
X136213706Y-106123284D01*
X136242455Y-106121643D01*
X136276840Y-106121747D01*
G37*
X136276840Y-106121747D02*
X136314249Y-106123434D01*
X136352068Y-106126548D01*
X136387685Y-106130928D01*
X136414115Y-106135494D01*
X136480825Y-106153003D01*
X136542435Y-106177136D01*
X136598735Y-106207608D01*
X136649512Y-106244130D01*
X136694557Y-106286414D01*
X136733656Y-106334173D01*
X136766600Y-106387120D01*
X136793177Y-106444966D01*
X136813176Y-106507425D01*
X136826385Y-106574208D01*
X136832593Y-106645028D01*
X136832356Y-106704902D01*
X136827382Y-106761910D01*
X136817186Y-106816676D01*
X136801306Y-106870619D01*
X136779278Y-106925158D01*
X136750642Y-106981712D01*
X136731377Y-107015075D01*
X136710398Y-107050000D01*
X136262259Y-107050000D01*
X136194085Y-106913475D01*
X136178058Y-106881606D01*
X136162866Y-106851824D01*
X136149000Y-106825060D01*
X136136952Y-106802246D01*
X136127214Y-106784315D01*
X136120277Y-106772199D01*
X136116813Y-106767013D01*
X136100559Y-106753944D01*
X136080679Y-106744683D01*
X136060971Y-106740975D01*
X136060099Y-106740967D01*
X136042806Y-106743826D01*
X136024239Y-106751276D01*
X136007886Y-106761621D01*
X135998801Y-106770759D01*
X135996252Y-106776606D01*
X135991529Y-106789859D01*
X135984857Y-106809804D01*
X135976462Y-106835728D01*
X135966569Y-106866916D01*
X135955405Y-106902656D01*
X135943195Y-106942235D01*
X135930165Y-106984937D01*
X135916541Y-107030050D01*
X135912414Y-107043809D01*
X135898778Y-107089228D01*
X135885803Y-107132250D01*
X135873701Y-107172189D01*
X135862681Y-107208359D01*
X135852954Y-107240072D01*
X135844732Y-107266643D01*
X135838225Y-107287385D01*
X135833644Y-107301612D01*
X135831199Y-107308638D01*
X135830898Y-107309259D01*
X135829357Y-107305718D01*
X135825668Y-107294565D01*
X135819988Y-107276337D01*
X135812476Y-107251570D01*
X135803288Y-107220798D01*
X135792582Y-107184558D01*
X135780517Y-107143384D01*
X135767250Y-107097814D01*
X135752938Y-107048381D01*
X135737740Y-106995623D01*
X135721813Y-106940074D01*
X135709976Y-106898626D01*
X135693541Y-106841064D01*
X135677684Y-106785673D01*
X135662567Y-106733011D01*
X135648352Y-106683639D01*
X135635201Y-106638115D01*
X135623279Y-106596999D01*
X135612745Y-106560852D01*
X135603765Y-106530231D01*
X135596499Y-106505697D01*
X135591110Y-106487809D01*
X135587761Y-106477127D01*
X135586732Y-106474266D01*
X135573126Y-106455200D01*
X135555228Y-106441970D01*
X135534625Y-106434557D01*
X135512903Y-106432943D01*
X135491646Y-106437106D01*
X135472442Y-106447030D01*
X135456875Y-106462694D01*
X135449467Y-106475924D01*
X135447195Y-106482936D01*
X135443085Y-106497443D01*
X135437325Y-106518720D01*
X135430104Y-106546040D01*
X135421610Y-106578679D01*
X135412031Y-106615911D01*
X135401556Y-106657010D01*
X135390372Y-106701251D01*
X135378668Y-106747908D01*
X135372744Y-106771658D01*
X135303449Y-107050000D01*
X134789601Y-107050000D01*
X134768623Y-107015075D01*
X134736036Y-106956725D01*
X134710323Y-106901190D01*
X134691024Y-106847054D01*
X134677679Y-106792902D01*
X134669826Y-106737321D01*
X134667653Y-106704983D01*
X134668009Y-106631467D01*
X134675446Y-106561517D01*
X134689852Y-106495465D01*
X134711118Y-106433641D01*
X134739132Y-106376379D01*
X134773785Y-106324009D01*
X134807778Y-106284215D01*
X134853960Y-106241498D01*
X134904515Y-106205467D01*
X134959733Y-106175997D01*
X135019905Y-106152966D01*
X135085322Y-106136253D01*
X135156276Y-106125733D01*
X135189944Y-106122996D01*
X135250785Y-106121828D01*
X135308404Y-106126365D01*
X135363899Y-106136950D01*
X135418369Y-106153927D01*
X135472912Y-106177638D01*
X135528626Y-106208425D01*
X135586611Y-106246633D01*
X135587016Y-106246920D01*
X135641910Y-106287435D01*
X135689285Y-106326062D01*
X135721425Y-106355210D01*
X135750000Y-106382522D01*
X135778575Y-106355210D01*
X135817547Y-106320285D01*
X135862673Y-106283909D01*
X135912138Y-106247491D01*
X135953848Y-106219120D01*
X136015222Y-106183401D01*
X136078336Y-106155494D01*
X136142618Y-106135609D01*
X136207492Y-106123959D01*
X136213706Y-106123284D01*
X136242455Y-106121643D01*
X136276840Y-106121747D01*
X135522240Y-106818297D02*
X135526164Y-106828886D01*
X135526164Y-106828886D02*
X135532286Y-106847568D01*
X135532286Y-106847568D02*
X135540607Y-106874350D01*
X135540607Y-106874350D02*
X135551131Y-106909244D01*
X135551131Y-106909244D02*
X135563860Y-106952259D01*
X135563860Y-106952259D02*
X135578797Y-107003404D01*
X135578797Y-107003404D02*
X135595946Y-107062690D01*
X135595946Y-107062690D02*
X135615309Y-107130125D01*
X135615309Y-107130125D02*
X135636889Y-107205721D01*
X135636889Y-107205721D02*
X135639522Y-107214971D01*
X135639522Y-107214971D02*
X135658147Y-107280230D01*
X135658147Y-107280230D02*
X135675677Y-107341289D01*
X135675677Y-107341289D02*
X135691992Y-107397746D01*
X135691992Y-107397746D02*
X135706974Y-107449202D01*
X135706974Y-107449202D02*
X135720503Y-107495255D01*
X135720503Y-107495255D02*
X135732461Y-107535505D01*
X135732461Y-107535505D02*
X135742729Y-107569550D01*
X135742729Y-107569550D02*
X135751187Y-107596990D01*
X135751187Y-107596990D02*
X135757717Y-107617424D01*
X135757717Y-107617424D02*
X135762199Y-107630450D01*
X135762199Y-107630450D02*
X135764342Y-107635448D01*
X135764342Y-107635448D02*
X135779233Y-107650791D01*
X135779233Y-107650791D02*
X135799177Y-107661599D01*
X135799177Y-107661599D02*
X135821630Y-107667081D01*
X135821630Y-107667081D02*
X135844051Y-107666443D01*
X135844051Y-107666443D02*
X135854499Y-107663564D01*
X135854499Y-107663564D02*
X135867206Y-107656427D01*
X135867206Y-107656427D02*
X135880702Y-107645461D01*
X135880702Y-107645461D02*
X135891420Y-107633725D01*
X135891420Y-107633725D02*
X135894054Y-107629642D01*
X135894054Y-107629642D02*
X135895844Y-107624572D01*
X135895844Y-107624572D02*
X135899860Y-107612054D01*
X135899860Y-107612054D02*
X135905897Y-107592749D01*
X135905897Y-107592749D02*
X135913753Y-107567319D01*
X135913753Y-107567319D02*
X135923226Y-107536428D01*
X135923226Y-107536428D02*
X135934113Y-107500738D01*
X135934113Y-107500738D02*
X135946212Y-107460910D01*
X135946212Y-107460910D02*
X135959319Y-107417608D01*
X135959319Y-107417608D02*
X135973232Y-107371494D01*
X135973232Y-107371494D02*
X135984721Y-107333309D01*
X135984721Y-107333309D02*
X135999138Y-107285378D01*
X135999138Y-107285378D02*
X136012910Y-107239691D01*
X136012910Y-107239691D02*
X136025833Y-107196915D01*
X136025833Y-107196915D02*
X136037704Y-107157717D01*
X136037704Y-107157717D02*
X136048319Y-107122765D01*
X136048319Y-107122765D02*
X136057477Y-107092727D01*
X136057477Y-107092727D02*
X136064973Y-107068270D01*
X136064973Y-107068270D02*
X136070605Y-107050062D01*
X136070605Y-107050062D02*
X136074170Y-107038771D01*
X136074170Y-107038771D02*
X136075389Y-107035183D01*
X136075389Y-107035183D02*
X136077241Y-107033477D01*
X136077241Y-107033477D02*
X136080272Y-107035468D01*
X136080272Y-107035468D02*
X136084944Y-107041906D01*
X136084944Y-107041906D02*
X136091718Y-107053540D01*
X136091718Y-107053540D02*
X136101057Y-107071120D01*
X136101057Y-107071120D02*
X136113421Y-107095394D01*
X136113421Y-107095394D02*
X136117518Y-107103552D01*
X136117518Y-107103552D02*
X136132115Y-107132217D01*
X136132115Y-107132217D02*
X136143835Y-107154085D01*
X136143835Y-107154085D02*
X136153245Y-107170092D01*
X136153245Y-107170092D02*
X136160910Y-107181176D01*
X136160910Y-107181176D02*
X136167398Y-107188274D01*
X136167398Y-107188274D02*
X136169969Y-107190335D01*
X136169969Y-107190335D02*
X136183917Y-107200283D01*
X136183917Y-107200283D02*
X136381825Y-107201462D01*
X136381825Y-107201462D02*
X136421850Y-107201776D01*
X136421850Y-107201776D02*
X136459166Y-107202216D01*
X136459166Y-107202216D02*
X136492942Y-107202760D01*
X136492942Y-107202760D02*
X136522349Y-107203389D01*
X136522349Y-107203389D02*
X136546560Y-107204083D01*
X136546560Y-107204083D02*
X136564745Y-107204820D01*
X136564745Y-107204820D02*
X136576074Y-107205581D01*
X136576074Y-107205581D02*
X136579733Y-107206304D01*
X136579733Y-107206304D02*
X136576743Y-107209783D01*
X136576743Y-107209783D02*
X136568067Y-107218685D01*
X136568067Y-107218685D02*
X136554144Y-107232585D01*
X136554144Y-107232585D02*
X136535414Y-107251062D01*
X136535414Y-107251062D02*
X136512316Y-107273692D01*
X136512316Y-107273692D02*
X136485291Y-107300054D01*
X136485291Y-107300054D02*
X136454777Y-107329723D01*
X136454777Y-107329723D02*
X136421214Y-107362278D01*
X136421214Y-107362278D02*
X136385043Y-107397296D01*
X136385043Y-107397296D02*
X136346702Y-107434354D01*
X136346702Y-107434354D02*
X136306631Y-107473030D01*
X136306631Y-107473030D02*
X136265270Y-107512901D01*
X136265270Y-107512901D02*
X136223058Y-107553544D01*
X136223058Y-107553544D02*
X136180436Y-107594536D01*
X136180436Y-107594536D02*
X136137842Y-107635456D01*
X136137842Y-107635456D02*
X136095717Y-107675879D01*
X136095717Y-107675879D02*
X136054500Y-107715384D01*
X136054500Y-107715384D02*
X136014630Y-107753548D01*
X136014630Y-107753548D02*
X135976547Y-107789948D01*
X135976547Y-107789948D02*
X135940692Y-107824161D01*
X135940692Y-107824161D02*
X135907502Y-107855766D01*
X135907502Y-107855766D02*
X135877419Y-107884338D01*
X135877419Y-107884338D02*
X135850882Y-107909456D01*
X135850882Y-107909456D02*
X135828330Y-107930697D01*
X135828330Y-107930697D02*
X135810203Y-107947638D01*
X135810203Y-107947638D02*
X135796940Y-107959856D01*
X135796940Y-107959856D02*
X135788982Y-107966929D01*
X135788982Y-107966929D02*
X135786943Y-107968524D01*
X135786943Y-107968524D02*
X135763867Y-107977637D01*
X135763867Y-107977637D02*
X135740553Y-107978506D01*
X135740553Y-107978506D02*
X135726717Y-107974999D01*
X135726717Y-107974999D02*
X135716141Y-107971161D01*
X135716141Y-107971161D02*
X135709675Y-107968924D01*
X135709675Y-107968924D02*
X135708866Y-107968697D01*
X135708866Y-107968697D02*
X135705622Y-107965800D01*
X135705622Y-107965800D02*
X135696740Y-107957432D01*
X135696740Y-107957432D02*
X135682656Y-107944015D01*
X135682656Y-107944015D02*
X135663809Y-107925973D01*
X135663809Y-107925973D02*
X135640638Y-107903729D01*
X135640638Y-107903729D02*
X135613579Y-107877708D01*
X135613579Y-107877708D02*
X135583071Y-107848333D01*
X135583071Y-107848333D02*
X135549551Y-107816026D01*
X135549551Y-107816026D02*
X135513458Y-107781213D01*
X135513458Y-107781213D02*
X135475229Y-107744316D01*
X135475229Y-107744316D02*
X135435303Y-107705759D01*
X135435303Y-107705759D02*
X135394117Y-107665965D01*
X135394117Y-107665965D02*
X135352108Y-107625358D01*
X135352108Y-107625358D02*
X135309716Y-107584362D01*
X135309716Y-107584362D02*
X135267378Y-107543400D01*
X135267378Y-107543400D02*
X135225531Y-107502896D01*
X135225531Y-107502896D02*
X135184615Y-107463273D01*
X135184615Y-107463273D02*
X135145065Y-107424955D01*
X135145065Y-107424955D02*
X135107322Y-107388365D01*
X135107322Y-107388365D02*
X135071821Y-107353927D01*
X135071821Y-107353927D02*
X135039002Y-107322064D01*
X135039002Y-107322064D02*
X135009302Y-107293200D01*
X135009302Y-107293200D02*
X134983159Y-107267759D01*
X134983159Y-107267759D02*
X134961012Y-107246164D01*
X134961012Y-107246164D02*
X134943297Y-107228839D01*
X134943297Y-107228839D02*
X134930453Y-107216207D01*
X134930453Y-107216207D02*
X134922917Y-107208691D01*
X134922917Y-107208691D02*
X134921007Y-107206654D01*
X134921007Y-107206654D02*
X134924857Y-107205726D01*
X134924857Y-107205726D02*
X134936827Y-107204861D01*
X134936827Y-107204861D02*
X134956574Y-107204067D01*
X134956574Y-107204067D02*
X134983749Y-107203351D01*
X134983749Y-107203351D02*
X135018009Y-107202722D01*
X135018009Y-107202722D02*
X135059007Y-107202186D01*
X135059007Y-107202186D02*
X135106399Y-107201753D01*
X135106399Y-107201753D02*
X135156289Y-107201445D01*
X135156289Y-107201445D02*
X135392948Y-107200283D01*
X135392948Y-107200283D02*
X135408760Y-107188221D01*
X135408760Y-107188221D02*
X135419964Y-107177754D01*
X135419964Y-107177754D02*
X135428819Y-107166200D01*
X135428819Y-107166200D02*
X135430629Y-107162821D01*
X135430629Y-107162821D02*
X135432967Y-107155833D01*
X135432967Y-107155833D02*
X135437052Y-107141592D01*
X135437052Y-107141592D02*
X135442629Y-107121070D01*
X135442629Y-107121070D02*
X135449441Y-107095240D01*
X135449441Y-107095240D02*
X135457233Y-107065075D01*
X135457233Y-107065075D02*
X135465749Y-107031548D01*
X135465749Y-107031548D02*
X135474733Y-106995632D01*
X135474733Y-106995632D02*
X135476996Y-106986500D01*
X135476996Y-106986500D02*
X135485949Y-106950426D01*
X135485949Y-106950426D02*
X135494373Y-106916736D01*
X135494373Y-106916736D02*
X135502028Y-106886358D01*
X135502028Y-106886358D02*
X135508679Y-106860225D01*
X135508679Y-106860225D02*
X135514088Y-106839265D01*
X135514088Y-106839265D02*
X135518017Y-106824409D01*
X135518017Y-106824409D02*
X135520231Y-106816588D01*
X135520231Y-106816588D02*
X135520509Y-106815790D01*
X135520509Y-106815790D02*
X135522240Y-106818297D01*
X135522240Y-106818297D02*
X135522240Y-106818297D01*
G36*
X135522240Y-106818297D02*
G01*
X135526164Y-106828886D01*
X135532286Y-106847568D01*
X135540607Y-106874350D01*
X135551131Y-106909244D01*
X135563860Y-106952259D01*
X135578797Y-107003404D01*
X135595946Y-107062690D01*
X135615309Y-107130125D01*
X135636889Y-107205721D01*
X135639522Y-107214971D01*
X135658147Y-107280230D01*
X135675677Y-107341289D01*
X135691992Y-107397746D01*
X135706974Y-107449202D01*
X135720503Y-107495255D01*
X135732461Y-107535505D01*
X135742729Y-107569550D01*
X135751187Y-107596990D01*
X135757717Y-107617424D01*
X135762199Y-107630450D01*
X135764342Y-107635448D01*
X135779233Y-107650791D01*
X135799177Y-107661599D01*
X135821630Y-107667081D01*
X135844051Y-107666443D01*
X135854499Y-107663564D01*
X135867206Y-107656427D01*
X135880702Y-107645461D01*
X135891420Y-107633725D01*
X135894054Y-107629642D01*
X135895844Y-107624572D01*
X135899860Y-107612054D01*
X135905897Y-107592749D01*
X135913753Y-107567319D01*
X135923226Y-107536428D01*
X135934113Y-107500738D01*
X135946212Y-107460910D01*
X135959319Y-107417608D01*
X135973232Y-107371494D01*
X135984721Y-107333309D01*
X135999138Y-107285378D01*
X136012910Y-107239691D01*
X136025833Y-107196915D01*
X136037704Y-107157717D01*
X136048319Y-107122765D01*
X136057477Y-107092727D01*
X136064973Y-107068270D01*
X136070605Y-107050062D01*
X136074170Y-107038771D01*
X136075389Y-107035183D01*
X136077241Y-107033477D01*
X136080272Y-107035468D01*
X136084944Y-107041906D01*
X136091718Y-107053540D01*
X136101057Y-107071120D01*
X136113421Y-107095394D01*
X136117518Y-107103552D01*
X136132115Y-107132217D01*
X136143835Y-107154085D01*
X136153245Y-107170092D01*
X136160910Y-107181176D01*
X136167398Y-107188274D01*
X136169969Y-107190335D01*
X136183917Y-107200283D01*
X136381825Y-107201462D01*
X136421850Y-107201776D01*
X136459166Y-107202216D01*
X136492942Y-107202760D01*
X136522349Y-107203389D01*
X136546560Y-107204083D01*
X136564745Y-107204820D01*
X136576074Y-107205581D01*
X136579733Y-107206304D01*
X136576743Y-107209783D01*
X136568067Y-107218685D01*
X136554144Y-107232585D01*
X136535414Y-107251062D01*
X136512316Y-107273692D01*
X136485291Y-107300054D01*
X136454777Y-107329723D01*
X136421214Y-107362278D01*
X136385043Y-107397296D01*
X136346702Y-107434354D01*
X136306631Y-107473030D01*
X136265270Y-107512901D01*
X136223058Y-107553544D01*
X136180436Y-107594536D01*
X136137842Y-107635456D01*
X136095717Y-107675879D01*
X136054500Y-107715384D01*
X136014630Y-107753548D01*
X135976547Y-107789948D01*
X135940692Y-107824161D01*
X135907502Y-107855766D01*
X135877419Y-107884338D01*
X135850882Y-107909456D01*
X135828330Y-107930697D01*
X135810203Y-107947638D01*
X135796940Y-107959856D01*
X135788982Y-107966929D01*
X135786943Y-107968524D01*
X135763867Y-107977637D01*
X135740553Y-107978506D01*
X135726717Y-107974999D01*
X135716141Y-107971161D01*
X135709675Y-107968924D01*
X135708866Y-107968697D01*
X135705622Y-107965800D01*
X135696740Y-107957432D01*
X135682656Y-107944015D01*
X135663809Y-107925973D01*
X135640638Y-107903729D01*
X135613579Y-107877708D01*
X135583071Y-107848333D01*
X135549551Y-107816026D01*
X135513458Y-107781213D01*
X135475229Y-107744316D01*
X135435303Y-107705759D01*
X135394117Y-107665965D01*
X135352108Y-107625358D01*
X135309716Y-107584362D01*
X135267378Y-107543400D01*
X135225531Y-107502896D01*
X135184615Y-107463273D01*
X135145065Y-107424955D01*
X135107322Y-107388365D01*
X135071821Y-107353927D01*
X135039002Y-107322064D01*
X135009302Y-107293200D01*
X134983159Y-107267759D01*
X134961012Y-107246164D01*
X134943297Y-107228839D01*
X134930453Y-107216207D01*
X134922917Y-107208691D01*
X134921007Y-107206654D01*
X134924857Y-107205726D01*
X134936827Y-107204861D01*
X134956574Y-107204067D01*
X134983749Y-107203351D01*
X135018009Y-107202722D01*
X135059007Y-107202186D01*
X135106399Y-107201753D01*
X135156289Y-107201445D01*
X135392948Y-107200283D01*
X135408760Y-107188221D01*
X135419964Y-107177754D01*
X135428819Y-107166200D01*
X135430629Y-107162821D01*
X135432967Y-107155833D01*
X135437052Y-107141592D01*
X135442629Y-107121070D01*
X135449441Y-107095240D01*
X135457233Y-107065075D01*
X135465749Y-107031548D01*
X135474733Y-106995632D01*
X135476996Y-106986500D01*
X135485949Y-106950426D01*
X135494373Y-106916736D01*
X135502028Y-106886358D01*
X135508679Y-106860225D01*
X135514088Y-106839265D01*
X135518017Y-106824409D01*
X135520231Y-106816588D01*
X135520509Y-106815790D01*
X135522240Y-106818297D01*
G37*
X135522240Y-106818297D02*
X135526164Y-106828886D01*
X135532286Y-106847568D01*
X135540607Y-106874350D01*
X135551131Y-106909244D01*
X135563860Y-106952259D01*
X135578797Y-107003404D01*
X135595946Y-107062690D01*
X135615309Y-107130125D01*
X135636889Y-107205721D01*
X135639522Y-107214971D01*
X135658147Y-107280230D01*
X135675677Y-107341289D01*
X135691992Y-107397746D01*
X135706974Y-107449202D01*
X135720503Y-107495255D01*
X135732461Y-107535505D01*
X135742729Y-107569550D01*
X135751187Y-107596990D01*
X135757717Y-107617424D01*
X135762199Y-107630450D01*
X135764342Y-107635448D01*
X135779233Y-107650791D01*
X135799177Y-107661599D01*
X135821630Y-107667081D01*
X135844051Y-107666443D01*
X135854499Y-107663564D01*
X135867206Y-107656427D01*
X135880702Y-107645461D01*
X135891420Y-107633725D01*
X135894054Y-107629642D01*
X135895844Y-107624572D01*
X135899860Y-107612054D01*
X135905897Y-107592749D01*
X135913753Y-107567319D01*
X135923226Y-107536428D01*
X135934113Y-107500738D01*
X135946212Y-107460910D01*
X135959319Y-107417608D01*
X135973232Y-107371494D01*
X135984721Y-107333309D01*
X135999138Y-107285378D01*
X136012910Y-107239691D01*
X136025833Y-107196915D01*
X136037704Y-107157717D01*
X136048319Y-107122765D01*
X136057477Y-107092727D01*
X136064973Y-107068270D01*
X136070605Y-107050062D01*
X136074170Y-107038771D01*
X136075389Y-107035183D01*
X136077241Y-107033477D01*
X136080272Y-107035468D01*
X136084944Y-107041906D01*
X136091718Y-107053540D01*
X136101057Y-107071120D01*
X136113421Y-107095394D01*
X136117518Y-107103552D01*
X136132115Y-107132217D01*
X136143835Y-107154085D01*
X136153245Y-107170092D01*
X136160910Y-107181176D01*
X136167398Y-107188274D01*
X136169969Y-107190335D01*
X136183917Y-107200283D01*
X136381825Y-107201462D01*
X136421850Y-107201776D01*
X136459166Y-107202216D01*
X136492942Y-107202760D01*
X136522349Y-107203389D01*
X136546560Y-107204083D01*
X136564745Y-107204820D01*
X136576074Y-107205581D01*
X136579733Y-107206304D01*
X136576743Y-107209783D01*
X136568067Y-107218685D01*
X136554144Y-107232585D01*
X136535414Y-107251062D01*
X136512316Y-107273692D01*
X136485291Y-107300054D01*
X136454777Y-107329723D01*
X136421214Y-107362278D01*
X136385043Y-107397296D01*
X136346702Y-107434354D01*
X136306631Y-107473030D01*
X136265270Y-107512901D01*
X136223058Y-107553544D01*
X136180436Y-107594536D01*
X136137842Y-107635456D01*
X136095717Y-107675879D01*
X136054500Y-107715384D01*
X136014630Y-107753548D01*
X135976547Y-107789948D01*
X135940692Y-107824161D01*
X135907502Y-107855766D01*
X135877419Y-107884338D01*
X135850882Y-107909456D01*
X135828330Y-107930697D01*
X135810203Y-107947638D01*
X135796940Y-107959856D01*
X135788982Y-107966929D01*
X135786943Y-107968524D01*
X135763867Y-107977637D01*
X135740553Y-107978506D01*
X135726717Y-107974999D01*
X135716141Y-107971161D01*
X135709675Y-107968924D01*
X135708866Y-107968697D01*
X135705622Y-107965800D01*
X135696740Y-107957432D01*
X135682656Y-107944015D01*
X135663809Y-107925973D01*
X135640638Y-107903729D01*
X135613579Y-107877708D01*
X135583071Y-107848333D01*
X135549551Y-107816026D01*
X135513458Y-107781213D01*
X135475229Y-107744316D01*
X135435303Y-107705759D01*
X135394117Y-107665965D01*
X135352108Y-107625358D01*
X135309716Y-107584362D01*
X135267378Y-107543400D01*
X135225531Y-107502896D01*
X135184615Y-107463273D01*
X135145065Y-107424955D01*
X135107322Y-107388365D01*
X135071821Y-107353927D01*
X135039002Y-107322064D01*
X135009302Y-107293200D01*
X134983159Y-107267759D01*
X134961012Y-107246164D01*
X134943297Y-107228839D01*
X134930453Y-107216207D01*
X134922917Y-107208691D01*
X134921007Y-107206654D01*
X134924857Y-107205726D01*
X134936827Y-107204861D01*
X134956574Y-107204067D01*
X134983749Y-107203351D01*
X135018009Y-107202722D01*
X135059007Y-107202186D01*
X135106399Y-107201753D01*
X135156289Y-107201445D01*
X135392948Y-107200283D01*
X135408760Y-107188221D01*
X135419964Y-107177754D01*
X135428819Y-107166200D01*
X135430629Y-107162821D01*
X135432967Y-107155833D01*
X135437052Y-107141592D01*
X135442629Y-107121070D01*
X135449441Y-107095240D01*
X135457233Y-107065075D01*
X135465749Y-107031548D01*
X135474733Y-106995632D01*
X135476996Y-106986500D01*
X135485949Y-106950426D01*
X135494373Y-106916736D01*
X135502028Y-106886358D01*
X135508679Y-106860225D01*
X135514088Y-106839265D01*
X135518017Y-106824409D01*
X135520231Y-106816588D01*
X135520509Y-106815790D01*
X135522240Y-106818297D01*
D14*
%TO.C,LED7*%
X138395799Y-105035000D02*
X140680799Y-105035000D01*
X140680799Y-105035000D02*
X140680799Y-103565000D01*
X140680799Y-103565000D02*
X138395799Y-103565000D01*
%TO.C,LED6*%
X138395799Y-103535000D02*
X140680799Y-103535000D01*
X140680799Y-103535000D02*
X140680799Y-102065000D01*
X140680799Y-102065000D02*
X138395799Y-102065000D01*
%TO.C,LED5*%
X138395799Y-102035000D02*
X140680799Y-102035000D01*
X140680799Y-102035000D02*
X140680799Y-100565000D01*
X140680799Y-100565000D02*
X138395799Y-100565000D01*
%TO.C,LED3*%
X138395799Y-109535000D02*
X140680799Y-109535000D01*
X140680799Y-109535000D02*
X140680799Y-108065000D01*
X140680799Y-108065000D02*
X138395799Y-108065000D01*
%TO.C,LED2*%
X138395799Y-111035000D02*
X140680799Y-111035000D01*
X140680799Y-111035000D02*
X140680799Y-109565000D01*
X140680799Y-109565000D02*
X138395799Y-109565000D01*
%TO.C,LED1*%
X138395799Y-106535000D02*
X140680799Y-106535000D01*
X140680799Y-106535000D02*
X140680799Y-105065000D01*
X140680799Y-105065000D02*
X138395799Y-105065000D01*
%TO.C,C3*%
X145040000Y-101507836D02*
X145040000Y-101292164D01*
X145760000Y-101507836D02*
X145760000Y-101292164D01*
%TO.C,C5*%
X145040000Y-103407836D02*
X145040000Y-103192164D01*
X145760000Y-103407836D02*
X145760000Y-103192164D01*
%TO.C,C1*%
X147907836Y-104060000D02*
X147692164Y-104060000D01*
X147907836Y-103340000D02*
X147692164Y-103340000D01*
%TO.C,C7*%
X148007836Y-108860000D02*
X147792164Y-108860000D01*
X148007836Y-108140000D02*
X147792164Y-108140000D01*
%TO.C,C4*%
X149040000Y-108127836D02*
X149040000Y-107912164D01*
X149760000Y-108127836D02*
X149760000Y-107912164D01*
%TO.C,C8*%
X145512164Y-107240000D02*
X145727836Y-107240000D01*
X145512164Y-107960000D02*
X145727836Y-107960000D01*
%TO.C,C2*%
X149560000Y-102192164D02*
X149560000Y-102407836D01*
X148840000Y-102192164D02*
X148840000Y-102407836D01*
D13*
%TO.C,MOD1*%
X137074201Y-92775000D02*
X136124201Y-92775000D01*
X141174201Y-92775000D02*
X142124201Y-92775000D01*
X141174201Y-99900000D02*
X141174201Y-92775000D01*
X137074201Y-99900000D02*
X137074201Y-92775000D01*
X137074201Y-99900000D02*
X141174201Y-99900000D01*
%TD*%
M02*
