M48
; DRILL file {KiCad 5.1.10-88a1d61d58~90~ubuntu20.04.1} date Tue Aug 17 16:45:00 2021
; FORMAT={-:-/ absolute / inch / decimal}
; #@! TF.CreationDate,2021-08-17T16:45:00+02:00
; #@! TF.GenerationSoftware,Kicad,Pcbnew,5.1.10-88a1d61d58~90~ubuntu20.04.1
; #@! TF.FileFunction,Plated,1,4,PTH
FMAT,2
INCH
T1C0.0118
T2C0.0236
%
G90
G05
T1
X4.6614Y-4.1299
X4.7362Y-3.6102
X4.7362Y-3.9252
X4.7362Y-4.2402
X4.7362Y-4.5551
X4.815Y-3.5157
X4.815Y-4.6339
X4.8937Y-3.7992
X4.937Y-3.7283
X4.9409Y-3.878
X4.9803Y-3.7992
X5.0827Y-4.2756
X5.0906Y-3.5157
X5.0906Y-4.6339
X5.1063Y-4.3583
X5.1299Y-4.4409
X5.1535Y-4.1929
X5.2953Y-3.9291
X5.315Y-3.6496
X5.3268Y-3.5157
X5.3543Y-4.3819
X5.4646Y-4.4724
X5.5591Y-3.9803
X5.563Y-4.0748
X5.563Y-4.1929
X5.563Y-4.311
X5.5984Y-4.3819
X5.6378Y-3.5157
X5.6378Y-3.6496
X5.6378Y-3.7559
X5.6378Y-3.8386
X5.7244Y-4.0866
X5.7362Y-4.122
X5.7992Y-3.9685
X5.7992Y-4.6339
X5.8819Y-3.5433
X5.9331Y-4.4134
X5.9606Y-4.1299
X5.9606Y-4.248
X6.0394Y-3.5433
X6.1063Y-3.5118
X6.1142Y-4.6339
X6.2126Y-4.2244
X6.2126Y-4.5472
X6.2165Y-3.622
X6.2165Y-3.9252
T2
G00X5.3063Y-4.4752
M15
G01X5.3063Y-4.4359
M16
G05
G00X5.3063Y-4.6317
M15
G01X5.3063Y-4.5806
M16
G05
G00X5.6464Y-4.4752
M15
G01X5.6464Y-4.4359
M16
G05
G00X5.6465Y-4.6317
M15
G01X5.6465Y-4.5806
M16
G05
T0
M30
