%TF.GenerationSoftware,KiCad,Pcbnew,5.1.10-88a1d61d58~90~ubuntu20.04.1*%
%TF.CreationDate,2021-08-18T11:13:03+02:00*%
%TF.ProjectId,s1-ecg-demo,73312d65-6367-42d6-9465-6d6f2e6b6963,1*%
%TF.SameCoordinates,Original*%
%TF.FileFunction,Copper,L1,Top*%
%TF.FilePolarity,Positive*%
%FSLAX46Y46*%
G04 Gerber Fmt 4.6, Leading zero omitted, Abs format (unit mm)*
G04 Created by KiCad (PCBNEW 5.1.10-88a1d61d58~90~ubuntu20.04.1) date 2021-08-18 11:13:03*
%MOMM*%
%LPD*%
G01*
G04 APERTURE LIST*
%TA.AperFunction,SMDPad,CuDef*%
%ADD10R,0.558800X1.092200*%
%TD*%
%TA.AperFunction,SMDPad,CuDef*%
%ADD11R,0.304800X1.041400*%
%TD*%
%TA.AperFunction,SMDPad,CuDef*%
%ADD12R,0.990600X2.006600*%
%TD*%
%TA.AperFunction,ComponentPad*%
%ADD13O,1.158000X2.458000*%
%TD*%
%TA.AperFunction,ComponentPad*%
%ADD14O,1.158000X2.158000*%
%TD*%
%TA.AperFunction,ConnectorPad*%
%ADD15C,0.787400*%
%TD*%
%TA.AperFunction,SMDPad,CuDef*%
%ADD16R,1.000000X0.480000*%
%TD*%
%TA.AperFunction,SMDPad,CuDef*%
%ADD17C,0.220000*%
%TD*%
%TA.AperFunction,SMDPad,CuDef*%
%ADD18C,0.500000*%
%TD*%
%TA.AperFunction,ViaPad*%
%ADD19C,0.650000*%
%TD*%
%TA.AperFunction,ViaPad*%
%ADD20C,0.200000*%
%TD*%
%TA.AperFunction,Conductor*%
%ADD21C,0.200000*%
%TD*%
%TA.AperFunction,Conductor*%
%ADD22C,0.350000*%
%TD*%
%TA.AperFunction,Conductor*%
%ADD23C,0.100000*%
%TD*%
G04 APERTURE END LIST*
%TO.P,C8,2*%
%TO.N,GND*%
%TA.AperFunction,SMDPad,CuDef*%
G36*
G01*
X144470000Y-103120000D02*
X144130000Y-103120000D01*
G75*
G02*
X143990000Y-102980000I0J140000D01*
G01*
X143990000Y-102700000D01*
G75*
G02*
X144130000Y-102560000I140000J0D01*
G01*
X144470000Y-102560000D01*
G75*
G02*
X144610000Y-102700000I0J-140000D01*
G01*
X144610000Y-102980000D01*
G75*
G02*
X144470000Y-103120000I-140000J0D01*
G01*
G37*
%TD.AperFunction*%
%TO.P,C8,1*%
%TO.N,+1V8*%
%TA.AperFunction,SMDPad,CuDef*%
G36*
G01*
X144470000Y-104080000D02*
X144130000Y-104080000D01*
G75*
G02*
X143990000Y-103940000I0J140000D01*
G01*
X143990000Y-103660000D01*
G75*
G02*
X144130000Y-103520000I140000J0D01*
G01*
X144470000Y-103520000D01*
G75*
G02*
X144610000Y-103660000I0J-140000D01*
G01*
X144610000Y-103940000D01*
G75*
G02*
X144470000Y-104080000I-140000J0D01*
G01*
G37*
%TD.AperFunction*%
%TD*%
D10*
%TO.P,J4,A1/B12*%
%TO.N,GND*%
X136000000Y-112500000D03*
%TO.P,J4,A4/B9*%
%TO.N,/VBUS*%
X136749999Y-112500000D03*
D11*
%TO.P,J4,A5*%
%TO.N,Net-(J4-PadA5)*%
X137350001Y-112500000D03*
%TO.P,J4,B8*%
%TO.N,N/C*%
X137850000Y-112500000D03*
%TO.P,J4,B7*%
X138349999Y-112500000D03*
%TO.P,J4,A6*%
X138850000Y-112500000D03*
%TO.P,J4,B6*%
X139349999Y-112500000D03*
%TO.P,J4,A7*%
X139850001Y-112500000D03*
%TO.P,J4,B5*%
%TO.N,Net-(J4-PadB5)*%
X140350000Y-112500000D03*
%TO.P,J4,A8*%
%TO.N,N/C*%
X140849999Y-112500000D03*
D10*
%TO.P,J4,A9/B4*%
%TO.N,/VBUS*%
X141450000Y-112500000D03*
%TO.P,J4,A12/B1*%
%TO.N,GND*%
X142199999Y-112500000D03*
D12*
%TO.P,J4,*%
%TO.N,*%
X137700000Y-116996000D03*
X140499999Y-116996000D03*
D13*
X134779998Y-116996000D03*
D14*
X134779998Y-113170999D03*
D13*
X143420001Y-116996000D03*
D14*
X143419601Y-113170999D03*
%TD*%
%TO.P,R22,2*%
%TO.N,Net-(J4-PadA5)*%
%TA.AperFunction,SMDPad,CuDef*%
G36*
G01*
X135770000Y-110400000D02*
X135770000Y-110200000D01*
G75*
G02*
X135870000Y-110100000I100000J0D01*
G01*
X136130000Y-110100000D01*
G75*
G02*
X136230000Y-110200000I0J-100000D01*
G01*
X136230000Y-110400000D01*
G75*
G02*
X136130000Y-110500000I-100000J0D01*
G01*
X135870000Y-110500000D01*
G75*
G02*
X135770000Y-110400000I0J100000D01*
G01*
G37*
%TD.AperFunction*%
%TO.P,R22,1*%
%TO.N,GND*%
%TA.AperFunction,SMDPad,CuDef*%
G36*
G01*
X135130000Y-110400000D02*
X135130000Y-110200000D01*
G75*
G02*
X135230000Y-110100000I100000J0D01*
G01*
X135490000Y-110100000D01*
G75*
G02*
X135590000Y-110200000I0J-100000D01*
G01*
X135590000Y-110400000D01*
G75*
G02*
X135490000Y-110500000I-100000J0D01*
G01*
X135230000Y-110500000D01*
G75*
G02*
X135130000Y-110400000I0J100000D01*
G01*
G37*
%TD.AperFunction*%
%TD*%
%TO.P,LED4,2*%
%TO.N,Net-(LED4-Pad2)*%
%TA.AperFunction,SMDPad,CuDef*%
G36*
G01*
X138845799Y-107043750D02*
X138845799Y-107556250D01*
G75*
G02*
X138627049Y-107775000I-218750J0D01*
G01*
X138189549Y-107775000D01*
G75*
G02*
X137970799Y-107556250I0J218750D01*
G01*
X137970799Y-107043750D01*
G75*
G02*
X138189549Y-106825000I218750J0D01*
G01*
X138627049Y-106825000D01*
G75*
G02*
X138845799Y-107043750I0J-218750D01*
G01*
G37*
%TD.AperFunction*%
%TO.P,LED4,1*%
%TO.N,GND*%
%TA.AperFunction,SMDPad,CuDef*%
G36*
G01*
X140420799Y-107043750D02*
X140420799Y-107556250D01*
G75*
G02*
X140202049Y-107775000I-218750J0D01*
G01*
X139764549Y-107775000D01*
G75*
G02*
X139545799Y-107556250I0J218750D01*
G01*
X139545799Y-107043750D01*
G75*
G02*
X139764549Y-106825000I218750J0D01*
G01*
X140202049Y-106825000D01*
G75*
G02*
X140420799Y-107043750I0J-218750D01*
G01*
G37*
%TD.AperFunction*%
%TD*%
%TO.P,R13,2*%
%TO.N,Net-(R13-Pad2)*%
%TA.AperFunction,SMDPad,CuDef*%
G36*
G01*
X148000000Y-107010000D02*
X147800000Y-107010000D01*
G75*
G02*
X147700000Y-106910000I0J100000D01*
G01*
X147700000Y-106650000D01*
G75*
G02*
X147800000Y-106550000I100000J0D01*
G01*
X148000000Y-106550000D01*
G75*
G02*
X148100000Y-106650000I0J-100000D01*
G01*
X148100000Y-106910000D01*
G75*
G02*
X148000000Y-107010000I-100000J0D01*
G01*
G37*
%TD.AperFunction*%
%TO.P,R13,1*%
%TO.N,Net-(C4-Pad1)*%
%TA.AperFunction,SMDPad,CuDef*%
G36*
G01*
X148000000Y-107650000D02*
X147800000Y-107650000D01*
G75*
G02*
X147700000Y-107550000I0J100000D01*
G01*
X147700000Y-107290000D01*
G75*
G02*
X147800000Y-107190000I100000J0D01*
G01*
X148000000Y-107190000D01*
G75*
G02*
X148100000Y-107290000I0J-100000D01*
G01*
X148100000Y-107550000D01*
G75*
G02*
X148000000Y-107650000I-100000J0D01*
G01*
G37*
%TD.AperFunction*%
%TD*%
%TO.P,R20,2*%
%TO.N,/LED7*%
%TA.AperFunction,SMDPad,CuDef*%
G36*
G01*
X134390000Y-96800000D02*
X134390000Y-96600000D01*
G75*
G02*
X134490000Y-96500000I100000J0D01*
G01*
X134750000Y-96500000D01*
G75*
G02*
X134850000Y-96600000I0J-100000D01*
G01*
X134850000Y-96800000D01*
G75*
G02*
X134750000Y-96900000I-100000J0D01*
G01*
X134490000Y-96900000D01*
G75*
G02*
X134390000Y-96800000I0J100000D01*
G01*
G37*
%TD.AperFunction*%
%TO.P,R20,1*%
%TO.N,Net-(LED7-Pad2)*%
%TA.AperFunction,SMDPad,CuDef*%
G36*
G01*
X133750000Y-96800000D02*
X133750000Y-96600000D01*
G75*
G02*
X133850000Y-96500000I100000J0D01*
G01*
X134110000Y-96500000D01*
G75*
G02*
X134210000Y-96600000I0J-100000D01*
G01*
X134210000Y-96800000D01*
G75*
G02*
X134110000Y-96900000I-100000J0D01*
G01*
X133850000Y-96900000D01*
G75*
G02*
X133750000Y-96800000I0J100000D01*
G01*
G37*
%TD.AperFunction*%
%TD*%
%TO.P,R17,2*%
%TO.N,/LED6*%
%TA.AperFunction,SMDPad,CuDef*%
G36*
G01*
X134390000Y-98200000D02*
X134390000Y-98000000D01*
G75*
G02*
X134490000Y-97900000I100000J0D01*
G01*
X134750000Y-97900000D01*
G75*
G02*
X134850000Y-98000000I0J-100000D01*
G01*
X134850000Y-98200000D01*
G75*
G02*
X134750000Y-98300000I-100000J0D01*
G01*
X134490000Y-98300000D01*
G75*
G02*
X134390000Y-98200000I0J100000D01*
G01*
G37*
%TD.AperFunction*%
%TO.P,R17,1*%
%TO.N,Net-(LED6-Pad2)*%
%TA.AperFunction,SMDPad,CuDef*%
G36*
G01*
X133750000Y-98200000D02*
X133750000Y-98000000D01*
G75*
G02*
X133850000Y-97900000I100000J0D01*
G01*
X134110000Y-97900000D01*
G75*
G02*
X134210000Y-98000000I0J-100000D01*
G01*
X134210000Y-98200000D01*
G75*
G02*
X134110000Y-98300000I-100000J0D01*
G01*
X133850000Y-98300000D01*
G75*
G02*
X133750000Y-98200000I0J100000D01*
G01*
G37*
%TD.AperFunction*%
%TD*%
%TO.P,R16,2*%
%TO.N,/LED5*%
%TA.AperFunction,SMDPad,CuDef*%
G36*
G01*
X134390000Y-98900000D02*
X134390000Y-98700000D01*
G75*
G02*
X134490000Y-98600000I100000J0D01*
G01*
X134750000Y-98600000D01*
G75*
G02*
X134850000Y-98700000I0J-100000D01*
G01*
X134850000Y-98900000D01*
G75*
G02*
X134750000Y-99000000I-100000J0D01*
G01*
X134490000Y-99000000D01*
G75*
G02*
X134390000Y-98900000I0J100000D01*
G01*
G37*
%TD.AperFunction*%
%TO.P,R16,1*%
%TO.N,Net-(LED5-Pad2)*%
%TA.AperFunction,SMDPad,CuDef*%
G36*
G01*
X133750000Y-98900000D02*
X133750000Y-98700000D01*
G75*
G02*
X133850000Y-98600000I100000J0D01*
G01*
X134110000Y-98600000D01*
G75*
G02*
X134210000Y-98700000I0J-100000D01*
G01*
X134210000Y-98900000D01*
G75*
G02*
X134110000Y-99000000I-100000J0D01*
G01*
X133850000Y-99000000D01*
G75*
G02*
X133750000Y-98900000I0J100000D01*
G01*
G37*
%TD.AperFunction*%
%TD*%
%TO.P,R15,2*%
%TO.N,/LED4*%
%TA.AperFunction,SMDPad,CuDef*%
G36*
G01*
X134390000Y-95400000D02*
X134390000Y-95200000D01*
G75*
G02*
X134490000Y-95100000I100000J0D01*
G01*
X134750000Y-95100000D01*
G75*
G02*
X134850000Y-95200000I0J-100000D01*
G01*
X134850000Y-95400000D01*
G75*
G02*
X134750000Y-95500000I-100000J0D01*
G01*
X134490000Y-95500000D01*
G75*
G02*
X134390000Y-95400000I0J100000D01*
G01*
G37*
%TD.AperFunction*%
%TO.P,R15,1*%
%TO.N,Net-(LED4-Pad2)*%
%TA.AperFunction,SMDPad,CuDef*%
G36*
G01*
X133750000Y-95400000D02*
X133750000Y-95200000D01*
G75*
G02*
X133850000Y-95100000I100000J0D01*
G01*
X134110000Y-95100000D01*
G75*
G02*
X134210000Y-95200000I0J-100000D01*
G01*
X134210000Y-95400000D01*
G75*
G02*
X134110000Y-95500000I-100000J0D01*
G01*
X133850000Y-95500000D01*
G75*
G02*
X133750000Y-95400000I0J100000D01*
G01*
G37*
%TD.AperFunction*%
%TD*%
%TO.P,R14,2*%
%TO.N,/LED3*%
%TA.AperFunction,SMDPad,CuDef*%
G36*
G01*
X134390000Y-94700000D02*
X134390000Y-94500000D01*
G75*
G02*
X134490000Y-94400000I100000J0D01*
G01*
X134750000Y-94400000D01*
G75*
G02*
X134850000Y-94500000I0J-100000D01*
G01*
X134850000Y-94700000D01*
G75*
G02*
X134750000Y-94800000I-100000J0D01*
G01*
X134490000Y-94800000D01*
G75*
G02*
X134390000Y-94700000I0J100000D01*
G01*
G37*
%TD.AperFunction*%
%TO.P,R14,1*%
%TO.N,Net-(LED3-Pad2)*%
%TA.AperFunction,SMDPad,CuDef*%
G36*
G01*
X133750000Y-94700000D02*
X133750000Y-94500000D01*
G75*
G02*
X133850000Y-94400000I100000J0D01*
G01*
X134110000Y-94400000D01*
G75*
G02*
X134210000Y-94500000I0J-100000D01*
G01*
X134210000Y-94700000D01*
G75*
G02*
X134110000Y-94800000I-100000J0D01*
G01*
X133850000Y-94800000D01*
G75*
G02*
X133750000Y-94700000I0J100000D01*
G01*
G37*
%TD.AperFunction*%
%TD*%
%TO.P,R6,2*%
%TO.N,/LED2*%
%TA.AperFunction,SMDPad,CuDef*%
G36*
G01*
X134390000Y-94000000D02*
X134390000Y-93800000D01*
G75*
G02*
X134490000Y-93700000I100000J0D01*
G01*
X134750000Y-93700000D01*
G75*
G02*
X134850000Y-93800000I0J-100000D01*
G01*
X134850000Y-94000000D01*
G75*
G02*
X134750000Y-94100000I-100000J0D01*
G01*
X134490000Y-94100000D01*
G75*
G02*
X134390000Y-94000000I0J100000D01*
G01*
G37*
%TD.AperFunction*%
%TO.P,R6,1*%
%TO.N,Net-(LED2-Pad2)*%
%TA.AperFunction,SMDPad,CuDef*%
G36*
G01*
X133750000Y-94000000D02*
X133750000Y-93800000D01*
G75*
G02*
X133850000Y-93700000I100000J0D01*
G01*
X134110000Y-93700000D01*
G75*
G02*
X134210000Y-93800000I0J-100000D01*
G01*
X134210000Y-94000000D01*
G75*
G02*
X134110000Y-94100000I-100000J0D01*
G01*
X133850000Y-94100000D01*
G75*
G02*
X133750000Y-94000000I0J100000D01*
G01*
G37*
%TD.AperFunction*%
%TD*%
%TO.P,R21,2*%
%TO.N,GND*%
%TA.AperFunction,SMDPad,CuDef*%
G36*
G01*
X146500000Y-101510000D02*
X146300000Y-101510000D01*
G75*
G02*
X146200000Y-101410000I0J100000D01*
G01*
X146200000Y-101150000D01*
G75*
G02*
X146300000Y-101050000I100000J0D01*
G01*
X146500000Y-101050000D01*
G75*
G02*
X146600000Y-101150000I0J-100000D01*
G01*
X146600000Y-101410000D01*
G75*
G02*
X146500000Y-101510000I-100000J0D01*
G01*
G37*
%TD.AperFunction*%
%TO.P,R21,1*%
%TO.N,Net-(C7-Pad1)*%
%TA.AperFunction,SMDPad,CuDef*%
G36*
G01*
X146500000Y-102150000D02*
X146300000Y-102150000D01*
G75*
G02*
X146200000Y-102050000I0J100000D01*
G01*
X146200000Y-101790000D01*
G75*
G02*
X146300000Y-101690000I100000J0D01*
G01*
X146500000Y-101690000D01*
G75*
G02*
X146600000Y-101790000I0J-100000D01*
G01*
X146600000Y-102050000D01*
G75*
G02*
X146500000Y-102150000I-100000J0D01*
G01*
G37*
%TD.AperFunction*%
%TD*%
%TO.P,R19,2*%
%TO.N,+1V8*%
%TA.AperFunction,SMDPad,CuDef*%
G36*
G01*
X146300000Y-103590000D02*
X146500000Y-103590000D01*
G75*
G02*
X146600000Y-103690000I0J-100000D01*
G01*
X146600000Y-103950000D01*
G75*
G02*
X146500000Y-104050000I-100000J0D01*
G01*
X146300000Y-104050000D01*
G75*
G02*
X146200000Y-103950000I0J100000D01*
G01*
X146200000Y-103690000D01*
G75*
G02*
X146300000Y-103590000I100000J0D01*
G01*
G37*
%TD.AperFunction*%
%TO.P,R19,1*%
%TO.N,Net-(C7-Pad1)*%
%TA.AperFunction,SMDPad,CuDef*%
G36*
G01*
X146300000Y-102950000D02*
X146500000Y-102950000D01*
G75*
G02*
X146600000Y-103050000I0J-100000D01*
G01*
X146600000Y-103310000D01*
G75*
G02*
X146500000Y-103410000I-100000J0D01*
G01*
X146300000Y-103410000D01*
G75*
G02*
X146200000Y-103310000I0J100000D01*
G01*
X146200000Y-103050000D01*
G75*
G02*
X146300000Y-102950000I100000J0D01*
G01*
G37*
%TD.AperFunction*%
%TD*%
%TO.P,R18,2*%
%TO.N,Net-(C1-Pad2)*%
%TA.AperFunction,SMDPad,CuDef*%
G36*
G01*
X147890000Y-102800000D02*
X147890000Y-102600000D01*
G75*
G02*
X147990000Y-102500000I100000J0D01*
G01*
X148250000Y-102500000D01*
G75*
G02*
X148350000Y-102600000I0J-100000D01*
G01*
X148350000Y-102800000D01*
G75*
G02*
X148250000Y-102900000I-100000J0D01*
G01*
X147990000Y-102900000D01*
G75*
G02*
X147890000Y-102800000I0J100000D01*
G01*
G37*
%TD.AperFunction*%
%TO.P,R18,1*%
%TO.N,Net-(C5-Pad2)*%
%TA.AperFunction,SMDPad,CuDef*%
G36*
G01*
X147250000Y-102800000D02*
X147250000Y-102600000D01*
G75*
G02*
X147350000Y-102500000I100000J0D01*
G01*
X147610000Y-102500000D01*
G75*
G02*
X147710000Y-102600000I0J-100000D01*
G01*
X147710000Y-102800000D01*
G75*
G02*
X147610000Y-102900000I-100000J0D01*
G01*
X147350000Y-102900000D01*
G75*
G02*
X147250000Y-102800000I0J100000D01*
G01*
G37*
%TD.AperFunction*%
%TD*%
%TO.P,R12,2*%
%TO.N,Net-(J2-Pad1)*%
%TA.AperFunction,SMDPad,CuDef*%
G36*
G01*
X149290000Y-105800000D02*
X149290000Y-105600000D01*
G75*
G02*
X149390000Y-105500000I100000J0D01*
G01*
X149650000Y-105500000D01*
G75*
G02*
X149750000Y-105600000I0J-100000D01*
G01*
X149750000Y-105800000D01*
G75*
G02*
X149650000Y-105900000I-100000J0D01*
G01*
X149390000Y-105900000D01*
G75*
G02*
X149290000Y-105800000I0J100000D01*
G01*
G37*
%TD.AperFunction*%
%TO.P,R12,1*%
%TO.N,Net-(R12-Pad1)*%
%TA.AperFunction,SMDPad,CuDef*%
G36*
G01*
X148650000Y-105800000D02*
X148650000Y-105600000D01*
G75*
G02*
X148750000Y-105500000I100000J0D01*
G01*
X149010000Y-105500000D01*
G75*
G02*
X149110000Y-105600000I0J-100000D01*
G01*
X149110000Y-105800000D01*
G75*
G02*
X149010000Y-105900000I-100000J0D01*
G01*
X148750000Y-105900000D01*
G75*
G02*
X148650000Y-105800000I0J100000D01*
G01*
G37*
%TD.AperFunction*%
%TD*%
%TO.P,R11,2*%
%TO.N,Net-(J1-Pad1)*%
%TA.AperFunction,SMDPad,CuDef*%
G36*
G01*
X149290000Y-104900000D02*
X149290000Y-104700000D01*
G75*
G02*
X149390000Y-104600000I100000J0D01*
G01*
X149650000Y-104600000D01*
G75*
G02*
X149750000Y-104700000I0J-100000D01*
G01*
X149750000Y-104900000D01*
G75*
G02*
X149650000Y-105000000I-100000J0D01*
G01*
X149390000Y-105000000D01*
G75*
G02*
X149290000Y-104900000I0J100000D01*
G01*
G37*
%TD.AperFunction*%
%TO.P,R11,1*%
%TO.N,Net-(R11-Pad1)*%
%TA.AperFunction,SMDPad,CuDef*%
G36*
G01*
X148650000Y-104900000D02*
X148650000Y-104700000D01*
G75*
G02*
X148750000Y-104600000I100000J0D01*
G01*
X149010000Y-104600000D01*
G75*
G02*
X149110000Y-104700000I0J-100000D01*
G01*
X149110000Y-104900000D01*
G75*
G02*
X149010000Y-105000000I-100000J0D01*
G01*
X148750000Y-105000000D01*
G75*
G02*
X148650000Y-104900000I0J100000D01*
G01*
G37*
%TD.AperFunction*%
%TD*%
%TO.P,R10,2*%
%TO.N,Net-(C2-Pad2)*%
%TA.AperFunction,SMDPad,CuDef*%
G36*
G01*
X146010000Y-108500000D02*
X146010000Y-108700000D01*
G75*
G02*
X145910000Y-108800000I-100000J0D01*
G01*
X145650000Y-108800000D01*
G75*
G02*
X145550000Y-108700000I0J100000D01*
G01*
X145550000Y-108500000D01*
G75*
G02*
X145650000Y-108400000I100000J0D01*
G01*
X145910000Y-108400000D01*
G75*
G02*
X146010000Y-108500000I0J-100000D01*
G01*
G37*
%TD.AperFunction*%
%TO.P,R10,1*%
%TO.N,Net-(C4-Pad2)*%
%TA.AperFunction,SMDPad,CuDef*%
G36*
G01*
X146650000Y-108500000D02*
X146650000Y-108700000D01*
G75*
G02*
X146550000Y-108800000I-100000J0D01*
G01*
X146290000Y-108800000D01*
G75*
G02*
X146190000Y-108700000I0J100000D01*
G01*
X146190000Y-108500000D01*
G75*
G02*
X146290000Y-108400000I100000J0D01*
G01*
X146550000Y-108400000D01*
G75*
G02*
X146650000Y-108500000I0J-100000D01*
G01*
G37*
%TD.AperFunction*%
%TD*%
%TO.P,R3,2*%
%TO.N,Net-(J3-Pad1)*%
%TA.AperFunction,SMDPad,CuDef*%
G36*
G01*
X150500000Y-108110000D02*
X150300000Y-108110000D01*
G75*
G02*
X150200000Y-108010000I0J100000D01*
G01*
X150200000Y-107750000D01*
G75*
G02*
X150300000Y-107650000I100000J0D01*
G01*
X150500000Y-107650000D01*
G75*
G02*
X150600000Y-107750000I0J-100000D01*
G01*
X150600000Y-108010000D01*
G75*
G02*
X150500000Y-108110000I-100000J0D01*
G01*
G37*
%TD.AperFunction*%
%TO.P,R3,1*%
%TO.N,Net-(C3-Pad1)*%
%TA.AperFunction,SMDPad,CuDef*%
G36*
G01*
X150500000Y-108750000D02*
X150300000Y-108750000D01*
G75*
G02*
X150200000Y-108650000I0J100000D01*
G01*
X150200000Y-108390000D01*
G75*
G02*
X150300000Y-108290000I100000J0D01*
G01*
X150500000Y-108290000D01*
G75*
G02*
X150600000Y-108390000I0J-100000D01*
G01*
X150600000Y-108650000D01*
G75*
G02*
X150500000Y-108750000I-100000J0D01*
G01*
G37*
%TD.AperFunction*%
%TD*%
%TO.P,R8,2*%
%TO.N,/ECG_OUT*%
%TA.AperFunction,SMDPad,CuDef*%
G36*
G01*
X145710000Y-106600000D02*
X145710000Y-106800000D01*
G75*
G02*
X145610000Y-106900000I-100000J0D01*
G01*
X145350000Y-106900000D01*
G75*
G02*
X145250000Y-106800000I0J100000D01*
G01*
X145250000Y-106600000D01*
G75*
G02*
X145350000Y-106500000I100000J0D01*
G01*
X145610000Y-106500000D01*
G75*
G02*
X145710000Y-106600000I0J-100000D01*
G01*
G37*
%TD.AperFunction*%
%TO.P,R8,1*%
%TO.N,Net-(R7-Pad2)*%
%TA.AperFunction,SMDPad,CuDef*%
G36*
G01*
X146350000Y-106600000D02*
X146350000Y-106800000D01*
G75*
G02*
X146250000Y-106900000I-100000J0D01*
G01*
X145990000Y-106900000D01*
G75*
G02*
X145890000Y-106800000I0J100000D01*
G01*
X145890000Y-106600000D01*
G75*
G02*
X145990000Y-106500000I100000J0D01*
G01*
X146250000Y-106500000D01*
G75*
G02*
X146350000Y-106600000I0J-100000D01*
G01*
G37*
%TD.AperFunction*%
%TD*%
%TO.P,R7,2*%
%TO.N,Net-(R7-Pad2)*%
%TA.AperFunction,SMDPad,CuDef*%
G36*
G01*
X147100000Y-107010000D02*
X146900000Y-107010000D01*
G75*
G02*
X146800000Y-106910000I0J100000D01*
G01*
X146800000Y-106650000D01*
G75*
G02*
X146900000Y-106550000I100000J0D01*
G01*
X147100000Y-106550000D01*
G75*
G02*
X147200000Y-106650000I0J-100000D01*
G01*
X147200000Y-106910000D01*
G75*
G02*
X147100000Y-107010000I-100000J0D01*
G01*
G37*
%TD.AperFunction*%
%TO.P,R7,1*%
%TO.N,Net-(C4-Pad1)*%
%TA.AperFunction,SMDPad,CuDef*%
G36*
G01*
X147100000Y-107650000D02*
X146900000Y-107650000D01*
G75*
G02*
X146800000Y-107550000I0J100000D01*
G01*
X146800000Y-107290000D01*
G75*
G02*
X146900000Y-107190000I100000J0D01*
G01*
X147100000Y-107190000D01*
G75*
G02*
X147200000Y-107290000I0J-100000D01*
G01*
X147200000Y-107550000D01*
G75*
G02*
X147100000Y-107650000I-100000J0D01*
G01*
G37*
%TD.AperFunction*%
%TD*%
%TO.P,R9,2*%
%TO.N,Net-(C3-Pad1)*%
%TA.AperFunction,SMDPad,CuDef*%
G36*
G01*
X150300000Y-105390000D02*
X150500000Y-105390000D01*
G75*
G02*
X150600000Y-105490000I0J-100000D01*
G01*
X150600000Y-105750000D01*
G75*
G02*
X150500000Y-105850000I-100000J0D01*
G01*
X150300000Y-105850000D01*
G75*
G02*
X150200000Y-105750000I0J100000D01*
G01*
X150200000Y-105490000D01*
G75*
G02*
X150300000Y-105390000I100000J0D01*
G01*
G37*
%TD.AperFunction*%
%TO.P,R9,1*%
%TO.N,Net-(J1-Pad1)*%
%TA.AperFunction,SMDPad,CuDef*%
G36*
G01*
X150300000Y-104750000D02*
X150500000Y-104750000D01*
G75*
G02*
X150600000Y-104850000I0J-100000D01*
G01*
X150600000Y-105110000D01*
G75*
G02*
X150500000Y-105210000I-100000J0D01*
G01*
X150300000Y-105210000D01*
G75*
G02*
X150200000Y-105110000I0J100000D01*
G01*
X150200000Y-104850000D01*
G75*
G02*
X150300000Y-104750000I100000J0D01*
G01*
G37*
%TD.AperFunction*%
%TD*%
%TO.P,R5,2*%
%TO.N,Net-(C3-Pad1)*%
%TA.AperFunction,SMDPad,CuDef*%
G36*
G01*
X149110000Y-106500000D02*
X149110000Y-106700000D01*
G75*
G02*
X149010000Y-106800000I-100000J0D01*
G01*
X148750000Y-106800000D01*
G75*
G02*
X148650000Y-106700000I0J100000D01*
G01*
X148650000Y-106500000D01*
G75*
G02*
X148750000Y-106400000I100000J0D01*
G01*
X149010000Y-106400000D01*
G75*
G02*
X149110000Y-106500000I0J-100000D01*
G01*
G37*
%TD.AperFunction*%
%TO.P,R5,1*%
%TO.N,Net-(J2-Pad1)*%
%TA.AperFunction,SMDPad,CuDef*%
G36*
G01*
X149750000Y-106500000D02*
X149750000Y-106700000D01*
G75*
G02*
X149650000Y-106800000I-100000J0D01*
G01*
X149390000Y-106800000D01*
G75*
G02*
X149290000Y-106700000I0J100000D01*
G01*
X149290000Y-106500000D01*
G75*
G02*
X149390000Y-106400000I100000J0D01*
G01*
X149650000Y-106400000D01*
G75*
G02*
X149750000Y-106500000I0J-100000D01*
G01*
G37*
%TD.AperFunction*%
%TD*%
%TO.P,R2,2*%
%TO.N,Net-(C2-Pad2)*%
%TA.AperFunction,SMDPad,CuDef*%
G36*
G01*
X147710000Y-101700000D02*
X147710000Y-101900000D01*
G75*
G02*
X147610000Y-102000000I-100000J0D01*
G01*
X147350000Y-102000000D01*
G75*
G02*
X147250000Y-101900000I0J100000D01*
G01*
X147250000Y-101700000D01*
G75*
G02*
X147350000Y-101600000I100000J0D01*
G01*
X147610000Y-101600000D01*
G75*
G02*
X147710000Y-101700000I0J-100000D01*
G01*
G37*
%TD.AperFunction*%
%TO.P,R2,1*%
%TO.N,Net-(C1-Pad1)*%
%TA.AperFunction,SMDPad,CuDef*%
G36*
G01*
X148350000Y-101700000D02*
X148350000Y-101900000D01*
G75*
G02*
X148250000Y-102000000I-100000J0D01*
G01*
X147990000Y-102000000D01*
G75*
G02*
X147890000Y-101900000I0J100000D01*
G01*
X147890000Y-101700000D01*
G75*
G02*
X147990000Y-101600000I100000J0D01*
G01*
X148250000Y-101600000D01*
G75*
G02*
X148350000Y-101700000I0J-100000D01*
G01*
G37*
%TD.AperFunction*%
%TD*%
%TO.P,R1,2*%
%TO.N,Net-(C4-Pad1)*%
%TA.AperFunction,SMDPad,CuDef*%
G36*
G01*
X149460000Y-103600000D02*
X149460000Y-103800000D01*
G75*
G02*
X149360000Y-103900000I-100000J0D01*
G01*
X149100000Y-103900000D01*
G75*
G02*
X149000000Y-103800000I0J100000D01*
G01*
X149000000Y-103600000D01*
G75*
G02*
X149100000Y-103500000I100000J0D01*
G01*
X149360000Y-103500000D01*
G75*
G02*
X149460000Y-103600000I0J-100000D01*
G01*
G37*
%TD.AperFunction*%
%TO.P,R1,1*%
%TO.N,Net-(C1-Pad1)*%
%TA.AperFunction,SMDPad,CuDef*%
G36*
G01*
X150100000Y-103600000D02*
X150100000Y-103800000D01*
G75*
G02*
X150000000Y-103900000I-100000J0D01*
G01*
X149740000Y-103900000D01*
G75*
G02*
X149640000Y-103800000I0J100000D01*
G01*
X149640000Y-103600000D01*
G75*
G02*
X149740000Y-103500000I100000J0D01*
G01*
X150000000Y-103500000D01*
G75*
G02*
X150100000Y-103600000I0J-100000D01*
G01*
G37*
%TD.AperFunction*%
%TD*%
%TO.P,R4,2*%
%TO.N,/LED1*%
%TA.AperFunction,SMDPad,CuDef*%
G36*
G01*
X134390000Y-96100000D02*
X134390000Y-95900000D01*
G75*
G02*
X134490000Y-95800000I100000J0D01*
G01*
X134750000Y-95800000D01*
G75*
G02*
X134850000Y-95900000I0J-100000D01*
G01*
X134850000Y-96100000D01*
G75*
G02*
X134750000Y-96200000I-100000J0D01*
G01*
X134490000Y-96200000D01*
G75*
G02*
X134390000Y-96100000I0J100000D01*
G01*
G37*
%TD.AperFunction*%
%TO.P,R4,1*%
%TO.N,Net-(LED1-Pad2)*%
%TA.AperFunction,SMDPad,CuDef*%
G36*
G01*
X133750000Y-96100000D02*
X133750000Y-95900000D01*
G75*
G02*
X133850000Y-95800000I100000J0D01*
G01*
X134110000Y-95800000D01*
G75*
G02*
X134210000Y-95900000I0J-100000D01*
G01*
X134210000Y-96100000D01*
G75*
G02*
X134110000Y-96200000I-100000J0D01*
G01*
X133850000Y-96200000D01*
G75*
G02*
X133750000Y-96100000I0J100000D01*
G01*
G37*
%TD.AperFunction*%
%TD*%
%TO.P,R23,2*%
%TO.N,Net-(J4-PadB5)*%
%TA.AperFunction,SMDPad,CuDef*%
G36*
G01*
X142430000Y-110200000D02*
X142430000Y-110400000D01*
G75*
G02*
X142330000Y-110500000I-100000J0D01*
G01*
X142070000Y-110500000D01*
G75*
G02*
X141970000Y-110400000I0J100000D01*
G01*
X141970000Y-110200000D01*
G75*
G02*
X142070000Y-110100000I100000J0D01*
G01*
X142330000Y-110100000D01*
G75*
G02*
X142430000Y-110200000I0J-100000D01*
G01*
G37*
%TD.AperFunction*%
%TO.P,R23,1*%
%TO.N,GND*%
%TA.AperFunction,SMDPad,CuDef*%
G36*
G01*
X143070000Y-110200000D02*
X143070000Y-110400000D01*
G75*
G02*
X142970000Y-110500000I-100000J0D01*
G01*
X142710000Y-110500000D01*
G75*
G02*
X142610000Y-110400000I0J100000D01*
G01*
X142610000Y-110200000D01*
G75*
G02*
X142710000Y-110100000I100000J0D01*
G01*
X142970000Y-110100000D01*
G75*
G02*
X143070000Y-110200000I0J-100000D01*
G01*
G37*
%TD.AperFunction*%
%TD*%
%TO.P,LED7,2*%
%TO.N,Net-(LED7-Pad2)*%
%TA.AperFunction,SMDPad,CuDef*%
G36*
G01*
X138845799Y-104043750D02*
X138845799Y-104556250D01*
G75*
G02*
X138627049Y-104775000I-218750J0D01*
G01*
X138189549Y-104775000D01*
G75*
G02*
X137970799Y-104556250I0J218750D01*
G01*
X137970799Y-104043750D01*
G75*
G02*
X138189549Y-103825000I218750J0D01*
G01*
X138627049Y-103825000D01*
G75*
G02*
X138845799Y-104043750I0J-218750D01*
G01*
G37*
%TD.AperFunction*%
%TO.P,LED7,1*%
%TO.N,GND*%
%TA.AperFunction,SMDPad,CuDef*%
G36*
G01*
X140420799Y-104043750D02*
X140420799Y-104556250D01*
G75*
G02*
X140202049Y-104775000I-218750J0D01*
G01*
X139764549Y-104775000D01*
G75*
G02*
X139545799Y-104556250I0J218750D01*
G01*
X139545799Y-104043750D01*
G75*
G02*
X139764549Y-103825000I218750J0D01*
G01*
X140202049Y-103825000D01*
G75*
G02*
X140420799Y-104043750I0J-218750D01*
G01*
G37*
%TD.AperFunction*%
%TD*%
%TO.P,LED6,2*%
%TO.N,Net-(LED6-Pad2)*%
%TA.AperFunction,SMDPad,CuDef*%
G36*
G01*
X138845799Y-102543750D02*
X138845799Y-103056250D01*
G75*
G02*
X138627049Y-103275000I-218750J0D01*
G01*
X138189549Y-103275000D01*
G75*
G02*
X137970799Y-103056250I0J218750D01*
G01*
X137970799Y-102543750D01*
G75*
G02*
X138189549Y-102325000I218750J0D01*
G01*
X138627049Y-102325000D01*
G75*
G02*
X138845799Y-102543750I0J-218750D01*
G01*
G37*
%TD.AperFunction*%
%TO.P,LED6,1*%
%TO.N,GND*%
%TA.AperFunction,SMDPad,CuDef*%
G36*
G01*
X140420799Y-102543750D02*
X140420799Y-103056250D01*
G75*
G02*
X140202049Y-103275000I-218750J0D01*
G01*
X139764549Y-103275000D01*
G75*
G02*
X139545799Y-103056250I0J218750D01*
G01*
X139545799Y-102543750D01*
G75*
G02*
X139764549Y-102325000I218750J0D01*
G01*
X140202049Y-102325000D01*
G75*
G02*
X140420799Y-102543750I0J-218750D01*
G01*
G37*
%TD.AperFunction*%
%TD*%
%TO.P,LED5,2*%
%TO.N,Net-(LED5-Pad2)*%
%TA.AperFunction,SMDPad,CuDef*%
G36*
G01*
X138845799Y-101043750D02*
X138845799Y-101556250D01*
G75*
G02*
X138627049Y-101775000I-218750J0D01*
G01*
X138189549Y-101775000D01*
G75*
G02*
X137970799Y-101556250I0J218750D01*
G01*
X137970799Y-101043750D01*
G75*
G02*
X138189549Y-100825000I218750J0D01*
G01*
X138627049Y-100825000D01*
G75*
G02*
X138845799Y-101043750I0J-218750D01*
G01*
G37*
%TD.AperFunction*%
%TO.P,LED5,1*%
%TO.N,GND*%
%TA.AperFunction,SMDPad,CuDef*%
G36*
G01*
X140420799Y-101043750D02*
X140420799Y-101556250D01*
G75*
G02*
X140202049Y-101775000I-218750J0D01*
G01*
X139764549Y-101775000D01*
G75*
G02*
X139545799Y-101556250I0J218750D01*
G01*
X139545799Y-101043750D01*
G75*
G02*
X139764549Y-100825000I218750J0D01*
G01*
X140202049Y-100825000D01*
G75*
G02*
X140420799Y-101043750I0J-218750D01*
G01*
G37*
%TD.AperFunction*%
%TD*%
%TO.P,LED3,2*%
%TO.N,Net-(LED3-Pad2)*%
%TA.AperFunction,SMDPad,CuDef*%
G36*
G01*
X138845799Y-108543750D02*
X138845799Y-109056250D01*
G75*
G02*
X138627049Y-109275000I-218750J0D01*
G01*
X138189549Y-109275000D01*
G75*
G02*
X137970799Y-109056250I0J218750D01*
G01*
X137970799Y-108543750D01*
G75*
G02*
X138189549Y-108325000I218750J0D01*
G01*
X138627049Y-108325000D01*
G75*
G02*
X138845799Y-108543750I0J-218750D01*
G01*
G37*
%TD.AperFunction*%
%TO.P,LED3,1*%
%TO.N,GND*%
%TA.AperFunction,SMDPad,CuDef*%
G36*
G01*
X140420799Y-108543750D02*
X140420799Y-109056250D01*
G75*
G02*
X140202049Y-109275000I-218750J0D01*
G01*
X139764549Y-109275000D01*
G75*
G02*
X139545799Y-109056250I0J218750D01*
G01*
X139545799Y-108543750D01*
G75*
G02*
X139764549Y-108325000I218750J0D01*
G01*
X140202049Y-108325000D01*
G75*
G02*
X140420799Y-108543750I0J-218750D01*
G01*
G37*
%TD.AperFunction*%
%TD*%
%TO.P,LED2,2*%
%TO.N,Net-(LED2-Pad2)*%
%TA.AperFunction,SMDPad,CuDef*%
G36*
G01*
X138845799Y-110043750D02*
X138845799Y-110556250D01*
G75*
G02*
X138627049Y-110775000I-218750J0D01*
G01*
X138189549Y-110775000D01*
G75*
G02*
X137970799Y-110556250I0J218750D01*
G01*
X137970799Y-110043750D01*
G75*
G02*
X138189549Y-109825000I218750J0D01*
G01*
X138627049Y-109825000D01*
G75*
G02*
X138845799Y-110043750I0J-218750D01*
G01*
G37*
%TD.AperFunction*%
%TO.P,LED2,1*%
%TO.N,GND*%
%TA.AperFunction,SMDPad,CuDef*%
G36*
G01*
X140420799Y-110043750D02*
X140420799Y-110556250D01*
G75*
G02*
X140202049Y-110775000I-218750J0D01*
G01*
X139764549Y-110775000D01*
G75*
G02*
X139545799Y-110556250I0J218750D01*
G01*
X139545799Y-110043750D01*
G75*
G02*
X139764549Y-109825000I218750J0D01*
G01*
X140202049Y-109825000D01*
G75*
G02*
X140420799Y-110043750I0J-218750D01*
G01*
G37*
%TD.AperFunction*%
%TD*%
%TO.P,LED1,2*%
%TO.N,Net-(LED1-Pad2)*%
%TA.AperFunction,SMDPad,CuDef*%
G36*
G01*
X138845799Y-105543750D02*
X138845799Y-106056250D01*
G75*
G02*
X138627049Y-106275000I-218750J0D01*
G01*
X138189549Y-106275000D01*
G75*
G02*
X137970799Y-106056250I0J218750D01*
G01*
X137970799Y-105543750D01*
G75*
G02*
X138189549Y-105325000I218750J0D01*
G01*
X138627049Y-105325000D01*
G75*
G02*
X138845799Y-105543750I0J-218750D01*
G01*
G37*
%TD.AperFunction*%
%TO.P,LED1,1*%
%TO.N,GND*%
%TA.AperFunction,SMDPad,CuDef*%
G36*
G01*
X140420799Y-105543750D02*
X140420799Y-106056250D01*
G75*
G02*
X140202049Y-106275000I-218750J0D01*
G01*
X139764549Y-106275000D01*
G75*
G02*
X139545799Y-106056250I0J218750D01*
G01*
X139545799Y-105543750D01*
G75*
G02*
X139764549Y-105325000I218750J0D01*
G01*
X140202049Y-105325000D01*
G75*
G02*
X140420799Y-105543750I0J-218750D01*
G01*
G37*
%TD.AperFunction*%
%TD*%
%TO.P,C7,2*%
%TO.N,GND*%
%TA.AperFunction,SMDPad,CuDef*%
G36*
G01*
X145570000Y-101200000D02*
X145230000Y-101200000D01*
G75*
G02*
X145090000Y-101060000I0J140000D01*
G01*
X145090000Y-100780000D01*
G75*
G02*
X145230000Y-100640000I140000J0D01*
G01*
X145570000Y-100640000D01*
G75*
G02*
X145710000Y-100780000I0J-140000D01*
G01*
X145710000Y-101060000D01*
G75*
G02*
X145570000Y-101200000I-140000J0D01*
G01*
G37*
%TD.AperFunction*%
%TO.P,C7,1*%
%TO.N,Net-(C7-Pad1)*%
%TA.AperFunction,SMDPad,CuDef*%
G36*
G01*
X145570000Y-102160000D02*
X145230000Y-102160000D01*
G75*
G02*
X145090000Y-102020000I0J140000D01*
G01*
X145090000Y-101740000D01*
G75*
G02*
X145230000Y-101600000I140000J0D01*
G01*
X145570000Y-101600000D01*
G75*
G02*
X145710000Y-101740000I0J-140000D01*
G01*
X145710000Y-102020000D01*
G75*
G02*
X145570000Y-102160000I-140000J0D01*
G01*
G37*
%TD.AperFunction*%
%TD*%
%TO.P,C6,2*%
%TO.N,GND*%
%TA.AperFunction,SMDPad,CuDef*%
G36*
G01*
X145570000Y-103100000D02*
X145230000Y-103100000D01*
G75*
G02*
X145090000Y-102960000I0J140000D01*
G01*
X145090000Y-102680000D01*
G75*
G02*
X145230000Y-102540000I140000J0D01*
G01*
X145570000Y-102540000D01*
G75*
G02*
X145710000Y-102680000I0J-140000D01*
G01*
X145710000Y-102960000D01*
G75*
G02*
X145570000Y-103100000I-140000J0D01*
G01*
G37*
%TD.AperFunction*%
%TO.P,C6,1*%
%TO.N,+1V8*%
%TA.AperFunction,SMDPad,CuDef*%
G36*
G01*
X145570000Y-104060000D02*
X145230000Y-104060000D01*
G75*
G02*
X145090000Y-103920000I0J140000D01*
G01*
X145090000Y-103640000D01*
G75*
G02*
X145230000Y-103500000I140000J0D01*
G01*
X145570000Y-103500000D01*
G75*
G02*
X145710000Y-103640000I0J-140000D01*
G01*
X145710000Y-103920000D01*
G75*
G02*
X145570000Y-104060000I-140000J0D01*
G01*
G37*
%TD.AperFunction*%
%TD*%
%TO.P,C5,2*%
%TO.N,Net-(C5-Pad2)*%
%TA.AperFunction,SMDPad,CuDef*%
G36*
G01*
X147600000Y-103530000D02*
X147600000Y-103870000D01*
G75*
G02*
X147460000Y-104010000I-140000J0D01*
G01*
X147180000Y-104010000D01*
G75*
G02*
X147040000Y-103870000I0J140000D01*
G01*
X147040000Y-103530000D01*
G75*
G02*
X147180000Y-103390000I140000J0D01*
G01*
X147460000Y-103390000D01*
G75*
G02*
X147600000Y-103530000I0J-140000D01*
G01*
G37*
%TD.AperFunction*%
%TO.P,C5,1*%
%TO.N,Net-(C5-Pad1)*%
%TA.AperFunction,SMDPad,CuDef*%
G36*
G01*
X148560000Y-103530000D02*
X148560000Y-103870000D01*
G75*
G02*
X148420000Y-104010000I-140000J0D01*
G01*
X148140000Y-104010000D01*
G75*
G02*
X148000000Y-103870000I0J140000D01*
G01*
X148000000Y-103530000D01*
G75*
G02*
X148140000Y-103390000I140000J0D01*
G01*
X148420000Y-103390000D01*
G75*
G02*
X148560000Y-103530000I0J-140000D01*
G01*
G37*
%TD.AperFunction*%
%TD*%
%TO.P,C4,2*%
%TO.N,Net-(C4-Pad2)*%
%TA.AperFunction,SMDPad,CuDef*%
G36*
G01*
X147700000Y-108330000D02*
X147700000Y-108670000D01*
G75*
G02*
X147560000Y-108810000I-140000J0D01*
G01*
X147280000Y-108810000D01*
G75*
G02*
X147140000Y-108670000I0J140000D01*
G01*
X147140000Y-108330000D01*
G75*
G02*
X147280000Y-108190000I140000J0D01*
G01*
X147560000Y-108190000D01*
G75*
G02*
X147700000Y-108330000I0J-140000D01*
G01*
G37*
%TD.AperFunction*%
%TO.P,C4,1*%
%TO.N,Net-(C4-Pad1)*%
%TA.AperFunction,SMDPad,CuDef*%
G36*
G01*
X148660000Y-108330000D02*
X148660000Y-108670000D01*
G75*
G02*
X148520000Y-108810000I-140000J0D01*
G01*
X148240000Y-108810000D01*
G75*
G02*
X148100000Y-108670000I0J140000D01*
G01*
X148100000Y-108330000D01*
G75*
G02*
X148240000Y-108190000I140000J0D01*
G01*
X148520000Y-108190000D01*
G75*
G02*
X148660000Y-108330000I0J-140000D01*
G01*
G37*
%TD.AperFunction*%
%TD*%
%TO.P,C3,2*%
%TO.N,Net-(C3-Pad2)*%
%TA.AperFunction,SMDPad,CuDef*%
G36*
G01*
X149570000Y-107820000D02*
X149230000Y-107820000D01*
G75*
G02*
X149090000Y-107680000I0J140000D01*
G01*
X149090000Y-107400000D01*
G75*
G02*
X149230000Y-107260000I140000J0D01*
G01*
X149570000Y-107260000D01*
G75*
G02*
X149710000Y-107400000I0J-140000D01*
G01*
X149710000Y-107680000D01*
G75*
G02*
X149570000Y-107820000I-140000J0D01*
G01*
G37*
%TD.AperFunction*%
%TO.P,C3,1*%
%TO.N,Net-(C3-Pad1)*%
%TA.AperFunction,SMDPad,CuDef*%
G36*
G01*
X149570000Y-108780000D02*
X149230000Y-108780000D01*
G75*
G02*
X149090000Y-108640000I0J140000D01*
G01*
X149090000Y-108360000D01*
G75*
G02*
X149230000Y-108220000I140000J0D01*
G01*
X149570000Y-108220000D01*
G75*
G02*
X149710000Y-108360000I0J-140000D01*
G01*
X149710000Y-108640000D01*
G75*
G02*
X149570000Y-108780000I-140000J0D01*
G01*
G37*
%TD.AperFunction*%
%TD*%
%TO.P,C2,2*%
%TO.N,Net-(C2-Pad2)*%
%TA.AperFunction,SMDPad,CuDef*%
G36*
G01*
X145820000Y-107770000D02*
X145820000Y-107430000D01*
G75*
G02*
X145960000Y-107290000I140000J0D01*
G01*
X146240000Y-107290000D01*
G75*
G02*
X146380000Y-107430000I0J-140000D01*
G01*
X146380000Y-107770000D01*
G75*
G02*
X146240000Y-107910000I-140000J0D01*
G01*
X145960000Y-107910000D01*
G75*
G02*
X145820000Y-107770000I0J140000D01*
G01*
G37*
%TD.AperFunction*%
%TO.P,C2,1*%
%TO.N,/ECG_OUT*%
%TA.AperFunction,SMDPad,CuDef*%
G36*
G01*
X144860000Y-107770000D02*
X144860000Y-107430000D01*
G75*
G02*
X145000000Y-107290000I140000J0D01*
G01*
X145280000Y-107290000D01*
G75*
G02*
X145420000Y-107430000I0J-140000D01*
G01*
X145420000Y-107770000D01*
G75*
G02*
X145280000Y-107910000I-140000J0D01*
G01*
X145000000Y-107910000D01*
G75*
G02*
X144860000Y-107770000I0J140000D01*
G01*
G37*
%TD.AperFunction*%
%TD*%
%TO.P,C1,2*%
%TO.N,Net-(C1-Pad2)*%
%TA.AperFunction,SMDPad,CuDef*%
G36*
G01*
X149030000Y-102500000D02*
X149370000Y-102500000D01*
G75*
G02*
X149510000Y-102640000I0J-140000D01*
G01*
X149510000Y-102920000D01*
G75*
G02*
X149370000Y-103060000I-140000J0D01*
G01*
X149030000Y-103060000D01*
G75*
G02*
X148890000Y-102920000I0J140000D01*
G01*
X148890000Y-102640000D01*
G75*
G02*
X149030000Y-102500000I140000J0D01*
G01*
G37*
%TD.AperFunction*%
%TO.P,C1,1*%
%TO.N,Net-(C1-Pad1)*%
%TA.AperFunction,SMDPad,CuDef*%
G36*
G01*
X149030000Y-101540000D02*
X149370000Y-101540000D01*
G75*
G02*
X149510000Y-101680000I0J-140000D01*
G01*
X149510000Y-101960000D01*
G75*
G02*
X149370000Y-102100000I-140000J0D01*
G01*
X149030000Y-102100000D01*
G75*
G02*
X148890000Y-101960000I0J140000D01*
G01*
X148890000Y-101680000D01*
G75*
G02*
X149030000Y-101540000I140000J0D01*
G01*
G37*
%TD.AperFunction*%
%TD*%
D15*
%TO.P,J5,6*%
%TO.N,N/C*%
X149430000Y-92635000D03*
%TO.P,J5,5*%
%TO.N,GND*%
X149430000Y-91365000D03*
%TO.P,J5,4*%
%TO.N,Net-(J5-Pad4)*%
X150700000Y-92635000D03*
%TO.P,J5,3*%
%TO.N,N/C*%
X150700000Y-91365000D03*
%TO.P,J5,2*%
%TO.N,Net-(J5-Pad2)*%
X151970000Y-92635000D03*
%TO.P,J5,1*%
%TO.N,+1V8*%
X151970000Y-91365000D03*
%TD*%
%TO.P,J1,1*%
%TO.N,Net-(J1-Pad1)*%
%TA.AperFunction,SMDPad,CuDef*%
G36*
G01*
X118081000Y-104362000D02*
X117319000Y-104362000D01*
G75*
G02*
X116938000Y-103981000I0J381000D01*
G01*
X116938000Y-103219000D01*
G75*
G02*
X117319000Y-102838000I381000J0D01*
G01*
X118081000Y-102838000D01*
G75*
G02*
X118462000Y-103219000I0J-381000D01*
G01*
X118462000Y-103981000D01*
G75*
G02*
X118081000Y-104362000I-381000J0D01*
G01*
G37*
%TD.AperFunction*%
%TD*%
%TO.P,J2,1*%
%TO.N,Net-(J2-Pad1)*%
%TA.AperFunction,SMDPad,CuDef*%
G36*
G01*
X159638000Y-103981000D02*
X159638000Y-103219000D01*
G75*
G02*
X160019000Y-102838000I381000J0D01*
G01*
X160781000Y-102838000D01*
G75*
G02*
X161162000Y-103219000I0J-381000D01*
G01*
X161162000Y-103981000D01*
G75*
G02*
X160781000Y-104362000I-381000J0D01*
G01*
X160019000Y-104362000D01*
G75*
G02*
X159638000Y-103981000I0J381000D01*
G01*
G37*
%TD.AperFunction*%
%TD*%
D16*
%TO.P,MOD1,20*%
%TO.N,GND*%
X142024201Y-93250000D03*
%TO.P,MOD1,2*%
%TO.N,/LED2*%
X136224201Y-93950000D03*
%TO.P,MOD1,1*%
%TO.N,GND*%
X136224201Y-93250000D03*
%TO.P,MOD1,3*%
%TO.N,/LED3*%
X136224201Y-94650000D03*
%TO.P,MOD1,4*%
%TO.N,/LED4*%
X136224201Y-95350000D03*
%TO.P,MOD1,5*%
%TO.N,/LED1*%
X136224201Y-96050000D03*
%TO.P,MOD1,6*%
%TO.N,/LED7*%
X136224201Y-96750000D03*
%TO.P,MOD1,7*%
%TO.N,/~SDN*%
X136224201Y-97450000D03*
%TO.P,MOD1,8*%
%TO.N,/LED6*%
X136224201Y-98150000D03*
%TO.P,MOD1,9*%
%TO.N,/LED5*%
X136224201Y-98850000D03*
%TO.P,MOD1,10*%
%TO.N,/VBUS*%
X136224201Y-99550000D03*
%TO.P,MOD1,11*%
%TO.N,/VBAT*%
X142024201Y-99550000D03*
%TO.P,MOD1,12*%
%TO.N,N/C*%
X142024201Y-98850000D03*
%TO.P,MOD1,13*%
X142024201Y-98150000D03*
%TO.P,MOD1,14*%
%TO.N,GND*%
X142024201Y-97450000D03*
%TO.P,MOD1,15*%
%TO.N,/LOD*%
X142024201Y-96750000D03*
%TO.P,MOD1,16*%
%TO.N,/ECG_OUT*%
X142024201Y-96050000D03*
%TO.P,MOD1,17*%
%TO.N,+1V8*%
X142024201Y-95350000D03*
%TO.P,MOD1,18*%
%TO.N,Net-(J5-Pad2)*%
X142024201Y-94650000D03*
%TO.P,MOD1,19*%
%TO.N,Net-(J5-Pad4)*%
X142024201Y-93950000D03*
%TD*%
D17*
%TO.P,U1,D5*%
%TO.N,Net-(C3-Pad1)*%
X148000000Y-105900000D03*
%TO.P,U1,D4*%
%TO.N,Net-(R13-Pad2)*%
X147600000Y-105900000D03*
%TO.P,U1,D3*%
%TO.N,Net-(C4-Pad2)*%
X147200000Y-105900000D03*
%TO.P,U1,D2*%
%TO.N,Net-(R7-Pad2)*%
X146800000Y-105900000D03*
%TO.P,U1,D1*%
%TO.N,/ECG_OUT*%
X146400000Y-105900000D03*
%TO.P,U1,C5*%
%TO.N,Net-(R12-Pad1)*%
X148000000Y-105500000D03*
%TO.P,U1,C4*%
%TO.N,Net-(C3-Pad2)*%
X147600000Y-105500000D03*
%TO.P,U1,C3*%
%TO.N,Net-(C4-Pad1)*%
X147200000Y-105500000D03*
%TO.P,U1,C2*%
%TO.N,+1V8*%
X146800000Y-105500000D03*
%TO.P,U1,C1*%
%TO.N,/LOD*%
X146400000Y-105500000D03*
%TO.P,U1,B5*%
%TO.N,Net-(R11-Pad1)*%
X148000000Y-105100000D03*
%TO.P,U1,B4*%
%TO.N,Net-(C1-Pad2)*%
X147600000Y-105100000D03*
%TO.P,U1,B3*%
%TO.N,+1V8*%
X147200000Y-105100000D03*
%TO.P,U1,B2*%
X146800000Y-105100000D03*
%TO.P,U1,B1*%
%TO.N,/~SDN*%
X146400000Y-105100000D03*
%TO.P,U1,A5*%
%TO.N,Net-(C5-Pad1)*%
X148000000Y-104700000D03*
%TO.P,U1,A4*%
%TO.N,Net-(C5-Pad2)*%
X147600000Y-104700000D03*
%TO.P,U1,A3*%
%TO.N,Net-(C7-Pad1)*%
X147200000Y-104700000D03*
%TO.P,U1,A2*%
%TO.N,+1V8*%
X146800000Y-104700000D03*
%TO.P,U1,A1*%
%TO.N,GND*%
X146400000Y-104700000D03*
%TD*%
D18*
%TO.P,FID5,*%
%TO.N,*%
X120100000Y-89300000D03*
%TD*%
%TO.P,FID4,*%
%TO.N,*%
X158200000Y-117900000D03*
%TD*%
D19*
%TO.N,GND*%
X144300000Y-102800000D03*
X145400000Y-102800000D03*
%TO.N,+1V8*%
X144300000Y-103800000D03*
D20*
%TO.N,Net-(C1-Pad2)*%
X148100000Y-102700000D03*
X147400036Y-104900000D03*
%TO.N,Net-(C2-Pad2)*%
X147500000Y-101800000D03*
X146099982Y-107600000D03*
D19*
%TO.N,/ECG_OUT*%
X150700000Y-112100000D03*
D20*
%TO.N,Net-(C3-Pad2)*%
X149400000Y-107500006D03*
X147600000Y-105500000D03*
%TO.N,Net-(C3-Pad1)*%
X148800000Y-106200000D03*
X150400000Y-105700000D03*
%TO.N,Net-(C4-Pad1)*%
X149300000Y-103700000D03*
X147200000Y-105499996D03*
X147900000Y-107399992D03*
X147000000Y-107400010D03*
D19*
%TO.N,GND*%
X122300000Y-89300000D03*
X129300000Y-89300000D03*
X135300000Y-89300000D03*
X143200000Y-97500000D03*
X136000000Y-111300000D03*
X145700000Y-104700000D03*
X135000000Y-92700000D03*
X143200000Y-92700000D03*
X143200000Y-89300000D03*
X149400000Y-90000000D03*
X147300000Y-100800000D03*
X125400000Y-94700000D03*
X126500000Y-96500000D03*
X124300000Y-96500000D03*
X125500000Y-98500000D03*
X141300000Y-109500000D03*
X141300000Y-106500000D03*
X141300000Y-103500000D03*
X120300000Y-91700000D03*
X120300000Y-107700000D03*
X122300000Y-117700000D03*
X120300000Y-115700000D03*
X120300000Y-99700000D03*
X129300000Y-117700000D03*
X155300000Y-117700000D03*
X147300000Y-117700000D03*
X155100000Y-89200000D03*
X157900000Y-92000000D03*
X157900000Y-99700000D03*
X157800000Y-107300000D03*
X157800000Y-115500000D03*
X142200000Y-111300000D03*
%TO.N,+1V8*%
X143200000Y-95399994D03*
X153399981Y-90000019D03*
X145399994Y-103800000D03*
%TO.N,/VBUS*%
X138800000Y-113600000D03*
X134500000Y-99800000D03*
%TO.N,Net-(J3-Pad1)*%
X151400000Y-107900000D03*
%TO.N,/VBAT*%
X141200000Y-101100008D03*
D20*
%TO.N,/LED2*%
X134600000Y-93900000D03*
D19*
X129100000Y-108600000D03*
D20*
%TO.N,/LED3*%
X134600000Y-94600000D03*
D19*
X129700000Y-110700000D03*
D20*
%TO.N,/LED4*%
X134600000Y-95300000D03*
D19*
X130300000Y-112800000D03*
D20*
%TO.N,/LED1*%
X134600000Y-96000000D03*
D19*
X130900000Y-106500000D03*
D20*
%TO.N,/~SDN*%
X135300000Y-97499998D03*
X146399988Y-105100000D03*
%TO.N,/LOD*%
X142300000Y-96700000D03*
X144699999Y-105000005D03*
D19*
%TO.N,Net-(J1-Pad1)*%
X118400000Y-104900000D03*
X151400000Y-104900000D03*
%TD*%
D21*
%TO.N,Net-(C1-Pad2)*%
X148120000Y-102700000D02*
X149200000Y-102700000D01*
X147600000Y-105100000D02*
X147400036Y-104900036D01*
X147400036Y-104900036D02*
X147400036Y-104900000D01*
%TO.N,Net-(C1-Pad1)*%
X148120000Y-101800000D02*
X149200000Y-101800000D01*
X149850000Y-101950000D02*
X149850000Y-103650000D01*
X149720000Y-101820000D02*
X149850000Y-101950000D01*
X149200000Y-101820000D02*
X149720000Y-101820000D01*
%TO.N,Net-(C2-Pad2)*%
X145780000Y-108600000D02*
X145780000Y-108519972D01*
X146199986Y-107700004D02*
X146099982Y-107600000D01*
X145780000Y-107919982D02*
X146099982Y-107600000D01*
X145780000Y-108600000D02*
X145780000Y-107919982D01*
%TO.N,/ECG_OUT*%
X145140000Y-107060000D02*
X145140000Y-107600000D01*
X145500000Y-106700000D02*
X145140000Y-107060000D01*
X145500000Y-106400000D02*
X145500000Y-106700000D01*
X146400000Y-105900000D02*
X146000000Y-105900000D01*
X145500000Y-106400000D02*
X146000000Y-105900000D01*
X147800000Y-112100000D02*
X150700000Y-112100000D01*
X145140000Y-109440000D02*
X147800000Y-112100000D01*
X145140000Y-107600000D02*
X145140000Y-109440000D01*
X144500000Y-105900000D02*
X146000000Y-105900000D01*
X143000000Y-104400000D02*
X144500000Y-105900000D01*
X143000000Y-101200000D02*
X143000000Y-104400000D01*
X144300000Y-99900000D02*
X143000000Y-101200000D01*
X144300000Y-96700000D02*
X144300000Y-99900000D01*
X143650000Y-96050000D02*
X144300000Y-96700000D01*
X142124201Y-96050000D02*
X143650000Y-96050000D01*
%TO.N,Net-(C3-Pad2)*%
X147600000Y-105500000D02*
X147600000Y-105499974D01*
X149400000Y-107500000D02*
X149400000Y-107500006D01*
%TO.N,Net-(C3-Pad1)*%
X148000000Y-105900000D02*
X148300000Y-106200000D01*
X148300000Y-106200000D02*
X148800000Y-106200000D01*
X148800000Y-106200000D02*
X148900000Y-106300000D01*
X148900000Y-106300000D02*
X148900000Y-106600000D01*
X149400000Y-108500000D02*
X150400000Y-108500000D01*
X148880000Y-106600000D02*
X148880000Y-107980000D01*
X148880000Y-107980000D02*
X149400000Y-108500000D01*
%TO.N,Net-(C4-Pad2)*%
X147200000Y-106132291D02*
X147400000Y-106332291D01*
X147200000Y-105900000D02*
X147200000Y-106132291D01*
X147400000Y-106332291D02*
X147400000Y-108500000D01*
X147400000Y-108500000D02*
X146900000Y-108500000D01*
X146900000Y-108500000D02*
X146800000Y-108600000D01*
X146800000Y-108600000D02*
X146400000Y-108600000D01*
%TO.N,Net-(C4-Pad1)*%
X148400000Y-107600000D02*
X148400000Y-108500000D01*
X148220000Y-107420000D02*
X148400000Y-107600000D01*
X147900000Y-107420000D02*
X148220000Y-107420000D01*
X147200000Y-105500000D02*
X147200000Y-105499996D01*
X149230000Y-103700000D02*
X149200000Y-103700000D01*
X147900000Y-107400000D02*
X147900000Y-107399992D01*
X147000000Y-107400000D02*
X147000000Y-107400010D01*
%TO.N,Net-(C5-Pad2)*%
X147300000Y-104400000D02*
X147300000Y-103700000D01*
X147600000Y-104700000D02*
X147300000Y-104400000D01*
X147320000Y-102880000D02*
X147500000Y-102700000D01*
X147320000Y-103700000D02*
X147320000Y-102880000D01*
%TO.N,Net-(C5-Pad1)*%
X148000000Y-104700000D02*
X148300000Y-104400000D01*
X148300000Y-104400000D02*
X148300000Y-103800000D01*
%TO.N,GND*%
X146400000Y-104700000D02*
X145700000Y-104700000D01*
D22*
X144300000Y-102800000D02*
X145400000Y-102800000D01*
D21*
%TO.N,+1V8*%
X146800000Y-104700000D02*
X146800000Y-105100000D01*
X147200000Y-105100000D02*
X146800000Y-105100000D01*
X146800000Y-105100000D02*
X146800000Y-105500000D01*
D22*
X146400000Y-103820000D02*
X145420000Y-103820000D01*
D21*
X146800000Y-104700000D02*
X146400000Y-104300000D01*
X146400000Y-104300000D02*
X146400000Y-104000000D01*
D22*
X142124201Y-95350000D02*
X142174195Y-95399994D01*
X142174195Y-95399994D02*
X143200000Y-95399994D01*
X152000000Y-91400000D02*
X153399981Y-90000019D01*
X145400000Y-103799994D02*
X145399994Y-103800000D01*
X145400000Y-103780000D02*
X145400000Y-103799994D01*
X144300000Y-103800000D02*
X145399994Y-103800000D01*
D21*
%TO.N,Net-(C7-Pad1)*%
X145400000Y-101880000D02*
X146380000Y-101880000D01*
X146800000Y-103500000D02*
X146500000Y-103200000D01*
X147200000Y-104700000D02*
X146800000Y-104300000D01*
X146800000Y-104300000D02*
X146800000Y-103500000D01*
X146400000Y-103180000D02*
X146400000Y-101900000D01*
D22*
%TO.N,/VBUS*%
X141450000Y-113300000D02*
X141450000Y-112550000D01*
X141150000Y-113600000D02*
X141450000Y-113300000D01*
X136953900Y-113600000D02*
X138800000Y-113600000D01*
X136749999Y-113396099D02*
X136953900Y-113600000D01*
X136749999Y-112500000D02*
X136749999Y-113396099D01*
X138800000Y-113600000D02*
X141150000Y-113600000D01*
X134800000Y-99500000D02*
X134500000Y-99800000D01*
X136100000Y-99500000D02*
X134800000Y-99500000D01*
D21*
%TO.N,Net-(J3-Pad1)*%
X151400000Y-107900000D02*
X150400000Y-107900000D01*
D22*
%TO.N,/VBAT*%
X142000000Y-99600000D02*
X142000000Y-100300008D01*
X142000000Y-100300008D02*
X141200000Y-101100008D01*
D21*
%TO.N,/LED2*%
X134620000Y-93900000D02*
X136200000Y-93900000D01*
X134650000Y-93950000D02*
X134600000Y-93900000D01*
X136124201Y-93950000D02*
X134650000Y-93950000D01*
%TO.N,/LED3*%
X134620000Y-94600000D02*
X136100000Y-94600000D01*
X136124201Y-94650000D02*
X134650000Y-94650000D01*
X134650000Y-94650000D02*
X134600000Y-94600000D01*
%TO.N,/LED4*%
X134620000Y-95300000D02*
X136100000Y-95300000D01*
X134650000Y-95350000D02*
X134600000Y-95300000D01*
X136124201Y-95350000D02*
X134650000Y-95350000D01*
%TO.N,/LED1*%
X134620000Y-96000000D02*
X136100000Y-96000000D01*
%TO.N,/LED7*%
X134620000Y-96700000D02*
X136200000Y-96700000D01*
%TO.N,/~SDN*%
X136200000Y-97500000D02*
X135300002Y-97500000D01*
X135300002Y-97500000D02*
X135300000Y-97499998D01*
%TO.N,/LED6*%
X134620000Y-98100000D02*
X136200000Y-98100000D01*
%TO.N,/LED5*%
X134620000Y-98800000D02*
X136200000Y-98800000D01*
%TO.N,/LOD*%
X146400000Y-105500000D02*
X145199994Y-105500000D01*
X145199994Y-105500000D02*
X144699999Y-105000005D01*
%TO.N,Net-(R12-Pad1)*%
X148000000Y-105500000D02*
X148300000Y-105500000D01*
X148300000Y-105500000D02*
X148500000Y-105700000D01*
X148500000Y-105700000D02*
X148900000Y-105700000D01*
%TO.N,Net-(LED1-Pad2)*%
X137000000Y-105800000D02*
X138400000Y-105800000D01*
X132839990Y-101639990D02*
X137000000Y-105800000D01*
X132839990Y-97140010D02*
X132839990Y-101639990D01*
X133980000Y-96000000D02*
X132839990Y-97140010D01*
%TO.N,Net-(LED2-Pad2)*%
X132059960Y-95820040D02*
X132059960Y-105059960D01*
X133980000Y-93900000D02*
X132059960Y-95820040D01*
X132059960Y-105059960D02*
X137300000Y-110300000D01*
X137300000Y-110300000D02*
X138400000Y-110300000D01*
%TO.N,Net-(LED3-Pad2)*%
X133980000Y-94600000D02*
X132319970Y-96260030D01*
X132319970Y-96260030D02*
X132319970Y-103619970D01*
X132319970Y-103619970D02*
X137500000Y-108800000D01*
X137500000Y-108800000D02*
X138400000Y-108800000D01*
%TO.N,Net-(LED4-Pad2)*%
X133980000Y-95300000D02*
X132579980Y-96700020D01*
X132579980Y-96700020D02*
X132579980Y-102479980D01*
X132579980Y-102479980D02*
X137400000Y-107300000D01*
X137400000Y-107300000D02*
X138332291Y-107300000D01*
%TO.N,Net-(LED5-Pad2)*%
X133980000Y-99997804D02*
X135282196Y-101300000D01*
X133980000Y-98800000D02*
X133980000Y-99997804D01*
X135282196Y-101300000D02*
X138400000Y-101300000D01*
%TO.N,Net-(LED6-Pad2)*%
X136100000Y-102700000D02*
X138300000Y-102700000D01*
X133400000Y-100000000D02*
X136100000Y-102700000D01*
X133400000Y-98680000D02*
X133400000Y-100000000D01*
X133980000Y-98100000D02*
X133400000Y-98680000D01*
%TO.N,Net-(LED7-Pad2)*%
X138400000Y-104300000D02*
X138500000Y-104400000D01*
X133100000Y-100900000D02*
X136500000Y-104300000D01*
X133100000Y-97580000D02*
X133100000Y-100900000D01*
X136500000Y-104300000D02*
X138400000Y-104300000D01*
X133980000Y-96700000D02*
X133100000Y-97580000D01*
%TO.N,Net-(J1-Pad1)*%
X149520000Y-104800000D02*
X149900000Y-104800000D01*
X149900000Y-104800000D02*
X150000000Y-104900000D01*
X150000000Y-104900000D02*
X150400000Y-104900000D01*
X118400000Y-103700000D02*
X118400000Y-103900000D01*
X151320000Y-104980000D02*
X151400000Y-104900000D01*
X150400000Y-104980000D02*
X151320000Y-104980000D01*
%TO.N,Net-(J2-Pad1)*%
X149520000Y-105700000D02*
X149520000Y-106580000D01*
X150120000Y-106300000D02*
X160000000Y-106300000D01*
X149520000Y-105700000D02*
X150120000Y-106300000D01*
%TO.N,Net-(J4-PadA5)*%
X137350001Y-112500000D02*
X137350001Y-110950001D01*
X137350001Y-110950001D02*
X136700000Y-110300000D01*
X136700000Y-110300000D02*
X136000000Y-110300000D01*
%TO.N,Net-(J4-PadB5)*%
X141500000Y-110300000D02*
X142200000Y-110300000D01*
X140350000Y-111450000D02*
X141500000Y-110300000D01*
X140350000Y-112500000D02*
X140350000Y-111450000D01*
D22*
%TO.N,Net-(J5-Pad4)*%
X149450000Y-93950000D02*
X150700000Y-92700000D01*
X142124201Y-93950000D02*
X149450000Y-93950000D01*
%TO.N,Net-(J5-Pad2)*%
X150050000Y-94650000D02*
X152000000Y-92700000D01*
X142124201Y-94650000D02*
X150050000Y-94650000D01*
D21*
%TO.N,Net-(R7-Pad2)*%
X146800000Y-105900000D02*
X146800000Y-106100000D01*
X146800000Y-106100000D02*
X147000000Y-106300000D01*
X147000000Y-106300000D02*
X147000000Y-106800000D01*
X146120000Y-106700000D02*
X146900000Y-106700000D01*
X146900000Y-106700000D02*
X147000000Y-106800000D01*
%TO.N,Net-(R11-Pad1)*%
X148000000Y-105100000D02*
X148200000Y-105100000D01*
X148200000Y-105100000D02*
X148500000Y-104800000D01*
X148500000Y-104800000D02*
X148900000Y-104800000D01*
%TO.N,Net-(R13-Pad2)*%
X147600000Y-105900000D02*
X147600000Y-106100000D01*
X147600000Y-106100000D02*
X147900000Y-106400000D01*
X147900000Y-106400000D02*
X147900000Y-106800000D01*
%TD*%
%TO.N,Net-(J1-Pad1)*%
X119200000Y-118275000D02*
X114112357Y-118275000D01*
X112594906Y-118186722D01*
X111104006Y-117944463D01*
X109645898Y-117550231D01*
X108236047Y-117008209D01*
X106889376Y-116324134D01*
X105620151Y-115505251D01*
X104441835Y-114560247D01*
X103366892Y-113499120D01*
X102406722Y-112333120D01*
X101571495Y-111074600D01*
X100870052Y-109736879D01*
X100309842Y-108334165D01*
X99896783Y-106881274D01*
X99635259Y-105393634D01*
X99528039Y-103886979D01*
X99576259Y-102377304D01*
X99779410Y-100880558D01*
X100135334Y-99412642D01*
X100640269Y-97989076D01*
X101288859Y-96624959D01*
X102074237Y-95334732D01*
X102988068Y-94132088D01*
X104020693Y-93029735D01*
X105161161Y-92039370D01*
X106397391Y-91171481D01*
X107716278Y-90435268D01*
X109103862Y-89838526D01*
X110545434Y-89387577D01*
X112025725Y-89087202D01*
X113534408Y-88940056D01*
X114304170Y-88925000D01*
X119200000Y-88925000D01*
X119200000Y-118275000D01*
%TA.AperFunction,Conductor*%
D23*
G36*
X119200000Y-118275000D02*
G01*
X114112357Y-118275000D01*
X112594906Y-118186722D01*
X111104006Y-117944463D01*
X109645898Y-117550231D01*
X108236047Y-117008209D01*
X106889376Y-116324134D01*
X105620151Y-115505251D01*
X104441835Y-114560247D01*
X103366892Y-113499120D01*
X102406722Y-112333120D01*
X101571495Y-111074600D01*
X100870052Y-109736879D01*
X100309842Y-108334165D01*
X99896783Y-106881274D01*
X99635259Y-105393634D01*
X99528039Y-103886979D01*
X99576259Y-102377304D01*
X99779410Y-100880558D01*
X100135334Y-99412642D01*
X100640269Y-97989076D01*
X101288859Y-96624959D01*
X102074237Y-95334732D01*
X102988068Y-94132088D01*
X104020693Y-93029735D01*
X105161161Y-92039370D01*
X106397391Y-91171481D01*
X107716278Y-90435268D01*
X109103862Y-89838526D01*
X110545434Y-89387577D01*
X112025725Y-89087202D01*
X113534408Y-88940056D01*
X114304170Y-88925000D01*
X119200000Y-88925000D01*
X119200000Y-118275000D01*
G37*
%TD.AperFunction*%
%TD*%
%TO.N,Net-(J2-Pad1)*%
X165810568Y-88963512D02*
X167306556Y-89206597D01*
X168769630Y-89602172D01*
X170184304Y-90146048D01*
X171535567Y-90832456D01*
X172809116Y-91654128D01*
X173991459Y-92602362D01*
X175070065Y-93667104D01*
X176033518Y-94837091D01*
X176871592Y-96099901D01*
X177575421Y-97442172D01*
X178137549Y-98849690D01*
X178552017Y-100307533D01*
X178814432Y-101800246D01*
X178922017Y-103312036D01*
X178873633Y-104826876D01*
X178669790Y-106328718D01*
X178312650Y-107801650D01*
X177805995Y-109230064D01*
X177155190Y-110598839D01*
X176367136Y-111893462D01*
X175450183Y-113100216D01*
X174414036Y-114206329D01*
X173269671Y-115200077D01*
X172029234Y-116070919D01*
X170705842Y-116809646D01*
X169313525Y-117408424D01*
X167867030Y-117860912D01*
X166381697Y-118162312D01*
X164868506Y-118309897D01*
X164096348Y-118325000D01*
X159050000Y-118325000D01*
X159050000Y-88875000D01*
X164289102Y-88875000D01*
X165810568Y-88963512D01*
%TA.AperFunction,Conductor*%
G36*
X165810568Y-88963512D02*
G01*
X167306556Y-89206597D01*
X168769630Y-89602172D01*
X170184304Y-90146048D01*
X171535567Y-90832456D01*
X172809116Y-91654128D01*
X173991459Y-92602362D01*
X175070065Y-93667104D01*
X176033518Y-94837091D01*
X176871592Y-96099901D01*
X177575421Y-97442172D01*
X178137549Y-98849690D01*
X178552017Y-100307533D01*
X178814432Y-101800246D01*
X178922017Y-103312036D01*
X178873633Y-104826876D01*
X178669790Y-106328718D01*
X178312650Y-107801650D01*
X177805995Y-109230064D01*
X177155190Y-110598839D01*
X176367136Y-111893462D01*
X175450183Y-113100216D01*
X174414036Y-114206329D01*
X173269671Y-115200077D01*
X172029234Y-116070919D01*
X170705842Y-116809646D01*
X169313525Y-117408424D01*
X167867030Y-117860912D01*
X166381697Y-118162312D01*
X164868506Y-118309897D01*
X164096348Y-118325000D01*
X159050000Y-118325000D01*
X159050000Y-88875000D01*
X164289102Y-88875000D01*
X165810568Y-88963512D01*
G37*
%TD.AperFunction*%
%TD*%
D21*
%TO.N,GND*%
X136675001Y-92608337D02*
X136374201Y-92610000D01*
X136274201Y-92710000D01*
X136274201Y-93200000D01*
X136294201Y-93200000D01*
X136294201Y-93300000D01*
X136274201Y-93300000D01*
X136274201Y-93308065D01*
X136174201Y-93308065D01*
X136174201Y-93300000D01*
X135424201Y-93300000D01*
X135324201Y-93400000D01*
X135049994Y-93400000D01*
X135028860Y-93382656D01*
X134942082Y-93336273D01*
X134847923Y-93307710D01*
X134750000Y-93298065D01*
X134490000Y-93298065D01*
X134392077Y-93307710D01*
X134300000Y-93335641D01*
X134207923Y-93307710D01*
X134110000Y-93298065D01*
X133850000Y-93298065D01*
X133752077Y-93307710D01*
X133657918Y-93336273D01*
X133571140Y-93382656D01*
X133495078Y-93445078D01*
X133432656Y-93521140D01*
X133386273Y-93607918D01*
X133357710Y-93702077D01*
X133348065Y-93800000D01*
X133348065Y-93824828D01*
X131723784Y-95449111D01*
X131704696Y-95464776D01*
X131642214Y-95540911D01*
X131595785Y-95627774D01*
X131579558Y-95681269D01*
X131567195Y-95722023D01*
X131557541Y-95820040D01*
X131559960Y-95844600D01*
X131559961Y-105035390D01*
X131557541Y-105059960D01*
X131567195Y-105157977D01*
X131590811Y-105235826D01*
X131595786Y-105252227D01*
X131642215Y-105339089D01*
X131704697Y-105415224D01*
X131723779Y-105430884D01*
X135990958Y-109698065D01*
X135870000Y-109698065D01*
X135772077Y-109707710D01*
X135723414Y-109722472D01*
X135668414Y-109705788D01*
X135590000Y-109698065D01*
X135510000Y-109700000D01*
X135410000Y-109800000D01*
X135410000Y-110000945D01*
X135406273Y-110007918D01*
X135377710Y-110102077D01*
X135368065Y-110200000D01*
X135368065Y-110400000D01*
X135377710Y-110497923D01*
X135406273Y-110592082D01*
X135410000Y-110599055D01*
X135410000Y-110800000D01*
X135510000Y-110900000D01*
X135590000Y-110901935D01*
X135668414Y-110894212D01*
X135723414Y-110877528D01*
X135772077Y-110892290D01*
X135870000Y-110901935D01*
X136130000Y-110901935D01*
X136227923Y-110892290D01*
X136322082Y-110863727D01*
X136408860Y-110817344D01*
X136429994Y-110800000D01*
X136492895Y-110800000D01*
X136850002Y-111157108D01*
X136850002Y-111551965D01*
X136470599Y-111551965D01*
X136392185Y-111559688D01*
X136375000Y-111564901D01*
X136357814Y-111559688D01*
X136279400Y-111551965D01*
X136150000Y-111553900D01*
X136050000Y-111653900D01*
X136050000Y-112450000D01*
X136068664Y-112450000D01*
X136068664Y-112550000D01*
X136050000Y-112550000D01*
X136050000Y-112570000D01*
X135950000Y-112570000D01*
X135950000Y-112550000D01*
X135930000Y-112550000D01*
X135930000Y-112450000D01*
X135950000Y-112450000D01*
X135950000Y-111653900D01*
X135850000Y-111553900D01*
X135720600Y-111551965D01*
X135642186Y-111559688D01*
X135566786Y-111582560D01*
X135497297Y-111619703D01*
X135436389Y-111669689D01*
X135386403Y-111730597D01*
X135349260Y-111800086D01*
X135331865Y-111857429D01*
X135326532Y-111853052D01*
X135156456Y-111762145D01*
X134971914Y-111706165D01*
X134779998Y-111687263D01*
X134588081Y-111706165D01*
X134403539Y-111762145D01*
X134233464Y-111853052D01*
X134084392Y-111975393D01*
X133962051Y-112124465D01*
X133871144Y-112294541D01*
X133815164Y-112479083D01*
X133800998Y-112622914D01*
X133800999Y-113719085D01*
X133815165Y-113862916D01*
X133871145Y-114047458D01*
X133962052Y-114217533D01*
X134084393Y-114366605D01*
X134233465Y-114488946D01*
X134403540Y-114579853D01*
X134588082Y-114635833D01*
X134779998Y-114654735D01*
X134971915Y-114635833D01*
X135156457Y-114579853D01*
X135326532Y-114488946D01*
X135475604Y-114366605D01*
X135597945Y-114217533D01*
X135647982Y-114123921D01*
X135756584Y-114196487D01*
X135888525Y-114251139D01*
X136028594Y-114279000D01*
X136171406Y-114279000D01*
X136311475Y-114251139D01*
X136443416Y-114196487D01*
X136562161Y-114117144D01*
X136614225Y-114065080D01*
X136632902Y-114080408D01*
X136732792Y-114133801D01*
X136841180Y-114166680D01*
X136925654Y-114175000D01*
X136925657Y-114175000D01*
X136953900Y-114177782D01*
X136982143Y-114175000D01*
X138355583Y-114175000D01*
X138456584Y-114242487D01*
X138588525Y-114297139D01*
X138728594Y-114325000D01*
X138871406Y-114325000D01*
X139011475Y-114297139D01*
X139143416Y-114242487D01*
X139244417Y-114175000D01*
X141121757Y-114175000D01*
X141150000Y-114177782D01*
X141178243Y-114175000D01*
X141178246Y-114175000D01*
X141262720Y-114166680D01*
X141371108Y-114133801D01*
X141470998Y-114080408D01*
X141484815Y-114069069D01*
X141484867Y-114069133D01*
X141595262Y-114159732D01*
X141721211Y-114227054D01*
X141857874Y-114268510D01*
X141964392Y-114279001D01*
X142235606Y-114279001D01*
X142342124Y-114268510D01*
X142478787Y-114227054D01*
X142578310Y-114173857D01*
X142601655Y-114217533D01*
X142723996Y-114366605D01*
X142873068Y-114488946D01*
X143043143Y-114579853D01*
X143227685Y-114635833D01*
X143419601Y-114654735D01*
X143611518Y-114635833D01*
X143796060Y-114579853D01*
X143966135Y-114488946D01*
X144115207Y-114366605D01*
X144237548Y-114217533D01*
X144328455Y-114047458D01*
X144384435Y-113862916D01*
X144398601Y-113719084D01*
X144398601Y-112622913D01*
X144384435Y-112479082D01*
X144328455Y-112294540D01*
X144237548Y-112124465D01*
X144115207Y-111975393D01*
X143966135Y-111853052D01*
X143796059Y-111762145D01*
X143611517Y-111706165D01*
X143419601Y-111687263D01*
X143227684Y-111706165D01*
X143043142Y-111762145D01*
X142873067Y-111853052D01*
X142868054Y-111857166D01*
X142850739Y-111800086D01*
X142813596Y-111730597D01*
X142763610Y-111669689D01*
X142702702Y-111619703D01*
X142633213Y-111582560D01*
X142557813Y-111559688D01*
X142479399Y-111551965D01*
X142349999Y-111553900D01*
X142249999Y-111653900D01*
X142249999Y-112450000D01*
X142269999Y-112450000D01*
X142269999Y-112550000D01*
X142249999Y-112550000D01*
X142249999Y-112570000D01*
X142149999Y-112570000D01*
X142149999Y-112550000D01*
X142131335Y-112550000D01*
X142131335Y-112450000D01*
X142149999Y-112450000D01*
X142149999Y-111653900D01*
X142049999Y-111553900D01*
X141920599Y-111551965D01*
X141842185Y-111559688D01*
X141825000Y-111564901D01*
X141807814Y-111559688D01*
X141729400Y-111551965D01*
X141170600Y-111551965D01*
X141092186Y-111559688D01*
X141026188Y-111579708D01*
X141002399Y-111577365D01*
X140929740Y-111577365D01*
X141707107Y-110800000D01*
X141770006Y-110800000D01*
X141791140Y-110817344D01*
X141877918Y-110863727D01*
X141972077Y-110892290D01*
X142070000Y-110901935D01*
X142330000Y-110901935D01*
X142427923Y-110892290D01*
X142476586Y-110877528D01*
X142531586Y-110894212D01*
X142610000Y-110901935D01*
X142690000Y-110900000D01*
X142790000Y-110800000D01*
X142790000Y-110599055D01*
X142793727Y-110592082D01*
X142822290Y-110497923D01*
X142831935Y-110400000D01*
X142831935Y-110350000D01*
X142890000Y-110350000D01*
X142890000Y-110800000D01*
X142990000Y-110900000D01*
X143070000Y-110901935D01*
X143148414Y-110894212D01*
X143223814Y-110871340D01*
X143293303Y-110834197D01*
X143354211Y-110784211D01*
X143404197Y-110723303D01*
X143441340Y-110653814D01*
X143464212Y-110578414D01*
X143471935Y-110500000D01*
X143470000Y-110450000D01*
X143370000Y-110350000D01*
X142890000Y-110350000D01*
X142831935Y-110350000D01*
X142831935Y-110200000D01*
X142822290Y-110102077D01*
X142793727Y-110007918D01*
X142790000Y-110000945D01*
X142790000Y-109800000D01*
X142890000Y-109800000D01*
X142890000Y-110250000D01*
X143370000Y-110250000D01*
X143470000Y-110150000D01*
X143471935Y-110100000D01*
X143464212Y-110021586D01*
X143441340Y-109946186D01*
X143404197Y-109876697D01*
X143354211Y-109815789D01*
X143293303Y-109765803D01*
X143223814Y-109728660D01*
X143148414Y-109705788D01*
X143070000Y-109698065D01*
X142990000Y-109700000D01*
X142890000Y-109800000D01*
X142790000Y-109800000D01*
X142690000Y-109700000D01*
X142610000Y-109698065D01*
X142531586Y-109705788D01*
X142476586Y-109722472D01*
X142427923Y-109707710D01*
X142330000Y-109698065D01*
X142070000Y-109698065D01*
X141972077Y-109707710D01*
X141877918Y-109736273D01*
X141791140Y-109782656D01*
X141770006Y-109800000D01*
X141524560Y-109800000D01*
X141500000Y-109797581D01*
X141475440Y-109800000D01*
X141401983Y-109807235D01*
X141307733Y-109835825D01*
X141220871Y-109882254D01*
X141144736Y-109944736D01*
X141129080Y-109963813D01*
X140820799Y-110272094D01*
X140820799Y-110249998D01*
X140720801Y-110249998D01*
X140820799Y-110150000D01*
X140822734Y-109825000D01*
X140815011Y-109746586D01*
X140792139Y-109671186D01*
X140754996Y-109601697D01*
X140712569Y-109550000D01*
X140754996Y-109498303D01*
X140792139Y-109428814D01*
X140815011Y-109353414D01*
X140822734Y-109275000D01*
X140820799Y-108950000D01*
X140720799Y-108850000D01*
X140033299Y-108850000D01*
X140033299Y-110250000D01*
X140053299Y-110250000D01*
X140053299Y-110350000D01*
X140033299Y-110350000D01*
X140033299Y-110370000D01*
X139933299Y-110370000D01*
X139933299Y-110350000D01*
X139913299Y-110350000D01*
X139913299Y-110250000D01*
X139933299Y-110250000D01*
X139933299Y-108850000D01*
X139913299Y-108850000D01*
X139913299Y-108750000D01*
X139933299Y-108750000D01*
X139933299Y-107350000D01*
X140033299Y-107350000D01*
X140033299Y-108750000D01*
X140720799Y-108750000D01*
X140820799Y-108650000D01*
X140822734Y-108325000D01*
X140815011Y-108246586D01*
X140792139Y-108171186D01*
X140754996Y-108101697D01*
X140712569Y-108050000D01*
X140754996Y-107998303D01*
X140792139Y-107928814D01*
X140815011Y-107853414D01*
X140822734Y-107775000D01*
X140820799Y-107450000D01*
X140720799Y-107350000D01*
X140033299Y-107350000D01*
X139933299Y-107350000D01*
X139913299Y-107350000D01*
X139913299Y-107250000D01*
X139933299Y-107250000D01*
X139933299Y-105850000D01*
X140033299Y-105850000D01*
X140033299Y-107250000D01*
X140720799Y-107250000D01*
X140820799Y-107150000D01*
X140822734Y-106825000D01*
X140815011Y-106746586D01*
X140792139Y-106671186D01*
X140754996Y-106601697D01*
X140712569Y-106550000D01*
X140754996Y-106498303D01*
X140792139Y-106428814D01*
X140815011Y-106353414D01*
X140822734Y-106275000D01*
X140820799Y-105950000D01*
X140720799Y-105850000D01*
X140033299Y-105850000D01*
X139933299Y-105850000D01*
X139913299Y-105850000D01*
X139913299Y-105750000D01*
X139933299Y-105750000D01*
X139933299Y-104350000D01*
X140033299Y-104350000D01*
X140033299Y-105750000D01*
X140720799Y-105750000D01*
X140820799Y-105650000D01*
X140822734Y-105325000D01*
X140815011Y-105246586D01*
X140792139Y-105171186D01*
X140754996Y-105101697D01*
X140712569Y-105050000D01*
X140754996Y-104998303D01*
X140792139Y-104928814D01*
X140815011Y-104853414D01*
X140822734Y-104775000D01*
X140820799Y-104450000D01*
X140720799Y-104350000D01*
X140033299Y-104350000D01*
X139933299Y-104350000D01*
X139913299Y-104350000D01*
X139913299Y-104250000D01*
X139933299Y-104250000D01*
X139933299Y-102850000D01*
X140033299Y-102850000D01*
X140033299Y-104250000D01*
X140720799Y-104250000D01*
X140820799Y-104150000D01*
X140822734Y-103825000D01*
X140815011Y-103746586D01*
X140792139Y-103671186D01*
X140754996Y-103601697D01*
X140712569Y-103550000D01*
X140754996Y-103498303D01*
X140792139Y-103428814D01*
X140815011Y-103353414D01*
X140822734Y-103275000D01*
X140820799Y-102950000D01*
X140720799Y-102850000D01*
X140033299Y-102850000D01*
X139933299Y-102850000D01*
X139913299Y-102850000D01*
X139913299Y-102750000D01*
X139933299Y-102750000D01*
X139933299Y-101350000D01*
X139913299Y-101350000D01*
X139913299Y-101250000D01*
X139933299Y-101250000D01*
X139933299Y-100525000D01*
X139833299Y-100425000D01*
X139545799Y-100423065D01*
X139467385Y-100430788D01*
X139391985Y-100453660D01*
X139322496Y-100490803D01*
X139261588Y-100540789D01*
X139211602Y-100601697D01*
X139174459Y-100671186D01*
X139157750Y-100726269D01*
X139143130Y-100698916D01*
X139065940Y-100604859D01*
X138971883Y-100527669D01*
X138864575Y-100470312D01*
X138748139Y-100434991D01*
X138627049Y-100423065D01*
X138189549Y-100423065D01*
X138068459Y-100434991D01*
X137952023Y-100470312D01*
X137844715Y-100527669D01*
X137750658Y-100604859D01*
X137673468Y-100698916D01*
X137619438Y-100800000D01*
X135489303Y-100800000D01*
X135007304Y-100318001D01*
X135063144Y-100262161D01*
X135142487Y-100143416D01*
X135170826Y-100075000D01*
X135440951Y-100075000D01*
X135500898Y-100124197D01*
X135570387Y-100161340D01*
X135645787Y-100184212D01*
X135724201Y-100191935D01*
X136724201Y-100191935D01*
X136784882Y-100185958D01*
X136789787Y-100191935D01*
X136798026Y-100201974D01*
X136862740Y-100255084D01*
X136936573Y-100294548D01*
X137016686Y-100318850D01*
X137100000Y-100327056D01*
X137120874Y-100325000D01*
X141161836Y-100325000D01*
X141107665Y-100379171D01*
X140988525Y-100402869D01*
X140856584Y-100457521D01*
X140737839Y-100536864D01*
X140718039Y-100556664D01*
X140705010Y-100540789D01*
X140644102Y-100490803D01*
X140574613Y-100453660D01*
X140499213Y-100430788D01*
X140420799Y-100423065D01*
X140133299Y-100425000D01*
X140033299Y-100525000D01*
X140033299Y-101250000D01*
X140053299Y-101250000D01*
X140053299Y-101350000D01*
X140033299Y-101350000D01*
X140033299Y-102750000D01*
X140720799Y-102750000D01*
X140820799Y-102650000D01*
X140822734Y-102325000D01*
X140815011Y-102246586D01*
X140792139Y-102171186D01*
X140754996Y-102101697D01*
X140712569Y-102050000D01*
X140754996Y-101998303D01*
X140792139Y-101928814D01*
X140815011Y-101853414D01*
X140822734Y-101775000D01*
X140822404Y-101719657D01*
X140856584Y-101742495D01*
X140988525Y-101797147D01*
X141128594Y-101825008D01*
X141271406Y-101825008D01*
X141411475Y-101797147D01*
X141543416Y-101742495D01*
X141662161Y-101663152D01*
X141763144Y-101562169D01*
X141842487Y-101443424D01*
X141897139Y-101311483D01*
X141920837Y-101192343D01*
X142386612Y-100726569D01*
X142408554Y-100708562D01*
X142458202Y-100648065D01*
X142480408Y-100621007D01*
X142533801Y-100521116D01*
X142566680Y-100412728D01*
X142575000Y-100328254D01*
X142575000Y-100328251D01*
X142577782Y-100300008D01*
X142575000Y-100271765D01*
X142575000Y-100186932D01*
X142602615Y-100184212D01*
X142678015Y-100161340D01*
X142747504Y-100124197D01*
X142808412Y-100074211D01*
X142858398Y-100013303D01*
X142895541Y-99943814D01*
X142918413Y-99868414D01*
X142926136Y-99790000D01*
X142926136Y-99310000D01*
X142918413Y-99231586D01*
X142908832Y-99200000D01*
X142918413Y-99168414D01*
X142926136Y-99090000D01*
X142926136Y-98610000D01*
X142918413Y-98531586D01*
X142908832Y-98500000D01*
X142918413Y-98468414D01*
X142926136Y-98390000D01*
X142926136Y-97910000D01*
X142918413Y-97831586D01*
X142908832Y-97800000D01*
X142918413Y-97768414D01*
X142926136Y-97690000D01*
X142924201Y-97600000D01*
X142824201Y-97500000D01*
X142074201Y-97500000D01*
X142074201Y-97508065D01*
X141974201Y-97508065D01*
X141974201Y-97500000D01*
X141954201Y-97500000D01*
X141954201Y-97400000D01*
X141974201Y-97400000D01*
X141974201Y-97391935D01*
X142074201Y-97391935D01*
X142074201Y-97400000D01*
X142824201Y-97400000D01*
X142924201Y-97300000D01*
X142926136Y-97210000D01*
X142918413Y-97131586D01*
X142908832Y-97100000D01*
X142918413Y-97068414D01*
X142926136Y-96990000D01*
X142926136Y-96550000D01*
X143442895Y-96550000D01*
X143800000Y-96907107D01*
X143800001Y-99692892D01*
X142663824Y-100829071D01*
X142644736Y-100844736D01*
X142582254Y-100920871D01*
X142535825Y-101007734D01*
X142529495Y-101028602D01*
X142507235Y-101101983D01*
X142497581Y-101200000D01*
X142500000Y-101224560D01*
X142500001Y-104375430D01*
X142497581Y-104400000D01*
X142507235Y-104498017D01*
X142529417Y-104571140D01*
X142535826Y-104592267D01*
X142582255Y-104679129D01*
X142644737Y-104755264D01*
X142663819Y-104770924D01*
X144129079Y-106236186D01*
X144144736Y-106255264D01*
X144220871Y-106317746D01*
X144307733Y-106364175D01*
X144401983Y-106392765D01*
X144475440Y-106400000D01*
X144475449Y-106400000D01*
X144499999Y-106402418D01*
X144524549Y-106400000D01*
X144890505Y-106400000D01*
X144886273Y-106407918D01*
X144857710Y-106502077D01*
X144848065Y-106600000D01*
X144848065Y-106644830D01*
X144803823Y-106689072D01*
X144784736Y-106704736D01*
X144722254Y-106780871D01*
X144675825Y-106867734D01*
X144665304Y-106902419D01*
X144647235Y-106961983D01*
X144640824Y-107027073D01*
X144616794Y-107046794D01*
X144549398Y-107128917D01*
X144499317Y-107222610D01*
X144468478Y-107324274D01*
X144458065Y-107430000D01*
X144458065Y-107770000D01*
X144468478Y-107875726D01*
X144499317Y-107977390D01*
X144549398Y-108071083D01*
X144616794Y-108153206D01*
X144640000Y-108172251D01*
X144640001Y-109415430D01*
X144637581Y-109440000D01*
X144647235Y-109538017D01*
X144666553Y-109601697D01*
X144675826Y-109632267D01*
X144722255Y-109719129D01*
X144784737Y-109795264D01*
X144803819Y-109810924D01*
X147429075Y-112436181D01*
X147444736Y-112455264D01*
X147520871Y-112517746D01*
X147607733Y-112564175D01*
X147701983Y-112592765D01*
X147775440Y-112600000D01*
X147775441Y-112600000D01*
X147799999Y-112602419D01*
X147824557Y-112600000D01*
X150174695Y-112600000D01*
X150237839Y-112663144D01*
X150356584Y-112742487D01*
X150488525Y-112797139D01*
X150628594Y-112825000D01*
X150771406Y-112825000D01*
X150911475Y-112797139D01*
X151043416Y-112742487D01*
X151162161Y-112663144D01*
X151263144Y-112562161D01*
X151342487Y-112443416D01*
X151397139Y-112311475D01*
X151425000Y-112171406D01*
X151425000Y-112028594D01*
X151397139Y-111888525D01*
X151342487Y-111756584D01*
X151263144Y-111637839D01*
X151162161Y-111536856D01*
X151043416Y-111457513D01*
X150911475Y-111402861D01*
X150771406Y-111375000D01*
X150628594Y-111375000D01*
X150488525Y-111402861D01*
X150356584Y-111457513D01*
X150237839Y-111536856D01*
X150174695Y-111600000D01*
X148007106Y-111600000D01*
X145640000Y-109232895D01*
X145640000Y-109200950D01*
X145650000Y-109201935D01*
X145910000Y-109201935D01*
X146007923Y-109192290D01*
X146100000Y-109164359D01*
X146192077Y-109192290D01*
X146290000Y-109201935D01*
X146550000Y-109201935D01*
X146647923Y-109192290D01*
X146742082Y-109163727D01*
X146828860Y-109117344D01*
X146853463Y-109097153D01*
X146898017Y-109092765D01*
X146932318Y-109082360D01*
X146978917Y-109120602D01*
X147072610Y-109170683D01*
X147174274Y-109201522D01*
X147280000Y-109211935D01*
X147560000Y-109211935D01*
X147665726Y-109201522D01*
X147767390Y-109170683D01*
X147861083Y-109120602D01*
X147900000Y-109088664D01*
X147938917Y-109120602D01*
X148032610Y-109170683D01*
X148134274Y-109201522D01*
X148240000Y-109211935D01*
X148520000Y-109211935D01*
X148625726Y-109201522D01*
X148727390Y-109170683D01*
X148821083Y-109120602D01*
X148893278Y-109061354D01*
X148928917Y-109090602D01*
X149022610Y-109140683D01*
X149124274Y-109171522D01*
X149230000Y-109181935D01*
X149570000Y-109181935D01*
X149675726Y-109171522D01*
X149777390Y-109140683D01*
X149871083Y-109090602D01*
X149953206Y-109023206D01*
X149958901Y-109016266D01*
X150021140Y-109067344D01*
X150107918Y-109113727D01*
X150202077Y-109142290D01*
X150300000Y-109151935D01*
X150500000Y-109151935D01*
X150597923Y-109142290D01*
X150692082Y-109113727D01*
X150778860Y-109067344D01*
X150854922Y-109004922D01*
X150917344Y-108928860D01*
X150963727Y-108842082D01*
X150992290Y-108747923D01*
X151001935Y-108650000D01*
X151001935Y-108505972D01*
X151056584Y-108542487D01*
X151188525Y-108597139D01*
X151328594Y-108625000D01*
X151471406Y-108625000D01*
X151611475Y-108597139D01*
X151743416Y-108542487D01*
X151862161Y-108463144D01*
X151963144Y-108362161D01*
X152042487Y-108243416D01*
X152097139Y-108111475D01*
X152125000Y-107971406D01*
X152125000Y-107828594D01*
X152097139Y-107688525D01*
X152042487Y-107556584D01*
X151963144Y-107437839D01*
X151862161Y-107336856D01*
X151743416Y-107257513D01*
X151611475Y-107202861D01*
X151471406Y-107175000D01*
X151328594Y-107175000D01*
X151188525Y-107202861D01*
X151056584Y-107257513D01*
X150937839Y-107336856D01*
X150874695Y-107400000D01*
X150858961Y-107400000D01*
X150854922Y-107395078D01*
X150778860Y-107332656D01*
X150692082Y-107286273D01*
X150597923Y-107257710D01*
X150500000Y-107248065D01*
X150300000Y-107248065D01*
X150202077Y-107257710D01*
X150107918Y-107286273D01*
X150100326Y-107290331D01*
X150070683Y-107192610D01*
X150020602Y-107098917D01*
X149992717Y-107064938D01*
X150004922Y-107054922D01*
X150067344Y-106978860D01*
X150113727Y-106892082D01*
X150141571Y-106800294D01*
X150144557Y-106800000D01*
X158600000Y-106800000D01*
X158600000Y-117385523D01*
X158507890Y-117323978D01*
X158389598Y-117274979D01*
X158264019Y-117250000D01*
X158135981Y-117250000D01*
X158010402Y-117274979D01*
X157892110Y-117323978D01*
X157785649Y-117395112D01*
X157695112Y-117485649D01*
X157623978Y-117592110D01*
X157574979Y-117710402D01*
X157550000Y-117835981D01*
X157550000Y-117964019D01*
X157574979Y-118089598D01*
X157623978Y-118207890D01*
X157668819Y-118275000D01*
X144170269Y-118275000D01*
X144237948Y-118192534D01*
X144328855Y-118022459D01*
X144384835Y-117837917D01*
X144399001Y-117694086D01*
X144399001Y-116297914D01*
X144384835Y-116154083D01*
X144328855Y-115969541D01*
X144237948Y-115799466D01*
X144115607Y-115650394D01*
X143966535Y-115528053D01*
X143796459Y-115437146D01*
X143611917Y-115381166D01*
X143420001Y-115362264D01*
X143228084Y-115381166D01*
X143043542Y-115437146D01*
X142873467Y-115528053D01*
X142724395Y-115650394D01*
X142602054Y-115799466D01*
X142511147Y-115969542D01*
X142455167Y-116154084D01*
X142441001Y-116297915D01*
X142441002Y-117694086D01*
X142455168Y-117837917D01*
X142511148Y-118022459D01*
X142602055Y-118192534D01*
X142669734Y-118275000D01*
X141286495Y-118275000D01*
X141329496Y-118222603D01*
X141366639Y-118153114D01*
X141389511Y-118077714D01*
X141397234Y-117999300D01*
X141397234Y-115992700D01*
X141389511Y-115914286D01*
X141366639Y-115838886D01*
X141329496Y-115769397D01*
X141279510Y-115708489D01*
X141218602Y-115658503D01*
X141149113Y-115621360D01*
X141073713Y-115598488D01*
X140995299Y-115590765D01*
X140004699Y-115590765D01*
X139926285Y-115598488D01*
X139850885Y-115621360D01*
X139781396Y-115658503D01*
X139720488Y-115708489D01*
X139670502Y-115769397D01*
X139633359Y-115838886D01*
X139610487Y-115914286D01*
X139602764Y-115992700D01*
X139602764Y-117999300D01*
X139610487Y-118077714D01*
X139633359Y-118153114D01*
X139670502Y-118222603D01*
X139713503Y-118275000D01*
X138486496Y-118275000D01*
X138529497Y-118222603D01*
X138566640Y-118153114D01*
X138589512Y-118077714D01*
X138597235Y-117999300D01*
X138597235Y-115992700D01*
X138589512Y-115914286D01*
X138566640Y-115838886D01*
X138529497Y-115769397D01*
X138479511Y-115708489D01*
X138418603Y-115658503D01*
X138349114Y-115621360D01*
X138273714Y-115598488D01*
X138195300Y-115590765D01*
X137204700Y-115590765D01*
X137126286Y-115598488D01*
X137050886Y-115621360D01*
X136981397Y-115658503D01*
X136920489Y-115708489D01*
X136870503Y-115769397D01*
X136833360Y-115838886D01*
X136810488Y-115914286D01*
X136802765Y-115992700D01*
X136802765Y-117999300D01*
X136810488Y-118077714D01*
X136833360Y-118153114D01*
X136870503Y-118222603D01*
X136913504Y-118275000D01*
X135530266Y-118275000D01*
X135597945Y-118192534D01*
X135688852Y-118022459D01*
X135744832Y-117837917D01*
X135758998Y-117694086D01*
X135758998Y-116297914D01*
X135744832Y-116154083D01*
X135688852Y-115969541D01*
X135597945Y-115799466D01*
X135475604Y-115650394D01*
X135326532Y-115528053D01*
X135156456Y-115437146D01*
X134971914Y-115381166D01*
X134779998Y-115362264D01*
X134588081Y-115381166D01*
X134403539Y-115437146D01*
X134233464Y-115528053D01*
X134084392Y-115650394D01*
X133962051Y-115799466D01*
X133871144Y-115969542D01*
X133815164Y-116154084D01*
X133800998Y-116297915D01*
X133800999Y-117694086D01*
X133815165Y-117837917D01*
X133871145Y-118022459D01*
X133962052Y-118192534D01*
X134029731Y-118275000D01*
X119700000Y-118275000D01*
X119700000Y-112728594D01*
X129575000Y-112728594D01*
X129575000Y-112871406D01*
X129602861Y-113011475D01*
X129657513Y-113143416D01*
X129736856Y-113262161D01*
X129837839Y-113363144D01*
X129956584Y-113442487D01*
X130088525Y-113497139D01*
X130228594Y-113525000D01*
X130371406Y-113525000D01*
X130511475Y-113497139D01*
X130643416Y-113442487D01*
X130762161Y-113363144D01*
X130863144Y-113262161D01*
X130942487Y-113143416D01*
X130997139Y-113011475D01*
X131025000Y-112871406D01*
X131025000Y-112728594D01*
X130997139Y-112588525D01*
X130942487Y-112456584D01*
X130863144Y-112337839D01*
X130762161Y-112236856D01*
X130643416Y-112157513D01*
X130511475Y-112102861D01*
X130371406Y-112075000D01*
X130228594Y-112075000D01*
X130088525Y-112102861D01*
X129956584Y-112157513D01*
X129837839Y-112236856D01*
X129736856Y-112337839D01*
X129657513Y-112456584D01*
X129602861Y-112588525D01*
X129575000Y-112728594D01*
X119700000Y-112728594D01*
X119700000Y-110628594D01*
X128975000Y-110628594D01*
X128975000Y-110771406D01*
X129002861Y-110911475D01*
X129057513Y-111043416D01*
X129136856Y-111162161D01*
X129237839Y-111263144D01*
X129356584Y-111342487D01*
X129488525Y-111397139D01*
X129628594Y-111425000D01*
X129771406Y-111425000D01*
X129911475Y-111397139D01*
X130043416Y-111342487D01*
X130162161Y-111263144D01*
X130263144Y-111162161D01*
X130342487Y-111043416D01*
X130397139Y-110911475D01*
X130425000Y-110771406D01*
X130425000Y-110628594D01*
X130399422Y-110500000D01*
X134728065Y-110500000D01*
X134735788Y-110578414D01*
X134758660Y-110653814D01*
X134795803Y-110723303D01*
X134845789Y-110784211D01*
X134906697Y-110834197D01*
X134976186Y-110871340D01*
X135051586Y-110894212D01*
X135130000Y-110901935D01*
X135210000Y-110900000D01*
X135310000Y-110800000D01*
X135310000Y-110350000D01*
X134830000Y-110350000D01*
X134730000Y-110450000D01*
X134728065Y-110500000D01*
X130399422Y-110500000D01*
X130397139Y-110488525D01*
X130342487Y-110356584D01*
X130263144Y-110237839D01*
X130162161Y-110136856D01*
X130107003Y-110100000D01*
X134728065Y-110100000D01*
X134730000Y-110150000D01*
X134830000Y-110250000D01*
X135310000Y-110250000D01*
X135310000Y-109800000D01*
X135210000Y-109700000D01*
X135130000Y-109698065D01*
X135051586Y-109705788D01*
X134976186Y-109728660D01*
X134906697Y-109765803D01*
X134845789Y-109815789D01*
X134795803Y-109876697D01*
X134758660Y-109946186D01*
X134735788Y-110021586D01*
X134728065Y-110100000D01*
X130107003Y-110100000D01*
X130043416Y-110057513D01*
X129911475Y-110002861D01*
X129771406Y-109975000D01*
X129628594Y-109975000D01*
X129488525Y-110002861D01*
X129356584Y-110057513D01*
X129237839Y-110136856D01*
X129136856Y-110237839D01*
X129057513Y-110356584D01*
X129002861Y-110488525D01*
X128975000Y-110628594D01*
X119700000Y-110628594D01*
X119700000Y-108528594D01*
X128375000Y-108528594D01*
X128375000Y-108671406D01*
X128402861Y-108811475D01*
X128457513Y-108943416D01*
X128536856Y-109062161D01*
X128637839Y-109163144D01*
X128756584Y-109242487D01*
X128888525Y-109297139D01*
X129028594Y-109325000D01*
X129171406Y-109325000D01*
X129311475Y-109297139D01*
X129443416Y-109242487D01*
X129562161Y-109163144D01*
X129663144Y-109062161D01*
X129742487Y-108943416D01*
X129797139Y-108811475D01*
X129825000Y-108671406D01*
X129825000Y-108528594D01*
X129797139Y-108388525D01*
X129742487Y-108256584D01*
X129663144Y-108137839D01*
X129562161Y-108036856D01*
X129443416Y-107957513D01*
X129311475Y-107902861D01*
X129171406Y-107875000D01*
X129028594Y-107875000D01*
X128888525Y-107902861D01*
X128756584Y-107957513D01*
X128637839Y-108036856D01*
X128536856Y-108137839D01*
X128457513Y-108256584D01*
X128402861Y-108388525D01*
X128375000Y-108528594D01*
X119700000Y-108528594D01*
X119700000Y-106428594D01*
X130175000Y-106428594D01*
X130175000Y-106571406D01*
X130202861Y-106711475D01*
X130257513Y-106843416D01*
X130336856Y-106962161D01*
X130437839Y-107063144D01*
X130556584Y-107142487D01*
X130688525Y-107197139D01*
X130828594Y-107225000D01*
X130971406Y-107225000D01*
X131111475Y-107197139D01*
X131243416Y-107142487D01*
X131362161Y-107063144D01*
X131463144Y-106962161D01*
X131542487Y-106843416D01*
X131597139Y-106711475D01*
X131625000Y-106571406D01*
X131625000Y-106428594D01*
X131597139Y-106288525D01*
X131542487Y-106156584D01*
X131463144Y-106037839D01*
X131362161Y-105936856D01*
X131243416Y-105857513D01*
X131111475Y-105802861D01*
X130971406Y-105775000D01*
X130828594Y-105775000D01*
X130688525Y-105802861D01*
X130556584Y-105857513D01*
X130437839Y-105936856D01*
X130336856Y-106037839D01*
X130257513Y-106156584D01*
X130202861Y-106288525D01*
X130175000Y-106428594D01*
X119700000Y-106428594D01*
X119700000Y-93010000D01*
X135322266Y-93010000D01*
X135324201Y-93100000D01*
X135424201Y-93200000D01*
X136174201Y-93200000D01*
X136174201Y-92710000D01*
X136074201Y-92610000D01*
X135724201Y-92608065D01*
X135645787Y-92615788D01*
X135570387Y-92638660D01*
X135500898Y-92675803D01*
X135439990Y-92725789D01*
X135390004Y-92786697D01*
X135352861Y-92856186D01*
X135329989Y-92931586D01*
X135322266Y-93010000D01*
X119700000Y-93010000D01*
X119700000Y-89814477D01*
X119792110Y-89876022D01*
X119910402Y-89925021D01*
X120035981Y-89950000D01*
X120164019Y-89950000D01*
X120289598Y-89925021D01*
X120407890Y-89876022D01*
X120514351Y-89804888D01*
X120604888Y-89714351D01*
X120676022Y-89607890D01*
X120725021Y-89489598D01*
X120750000Y-89364019D01*
X120750000Y-89235981D01*
X120725021Y-89110402D01*
X120676022Y-88992110D01*
X120631181Y-88925000D01*
X136675001Y-88925000D01*
X136675001Y-92608337D01*
%TA.AperFunction,Conductor*%
D23*
G36*
X136675001Y-92608337D02*
G01*
X136374201Y-92610000D01*
X136274201Y-92710000D01*
X136274201Y-93200000D01*
X136294201Y-93200000D01*
X136294201Y-93300000D01*
X136274201Y-93300000D01*
X136274201Y-93308065D01*
X136174201Y-93308065D01*
X136174201Y-93300000D01*
X135424201Y-93300000D01*
X135324201Y-93400000D01*
X135049994Y-93400000D01*
X135028860Y-93382656D01*
X134942082Y-93336273D01*
X134847923Y-93307710D01*
X134750000Y-93298065D01*
X134490000Y-93298065D01*
X134392077Y-93307710D01*
X134300000Y-93335641D01*
X134207923Y-93307710D01*
X134110000Y-93298065D01*
X133850000Y-93298065D01*
X133752077Y-93307710D01*
X133657918Y-93336273D01*
X133571140Y-93382656D01*
X133495078Y-93445078D01*
X133432656Y-93521140D01*
X133386273Y-93607918D01*
X133357710Y-93702077D01*
X133348065Y-93800000D01*
X133348065Y-93824828D01*
X131723784Y-95449111D01*
X131704696Y-95464776D01*
X131642214Y-95540911D01*
X131595785Y-95627774D01*
X131579558Y-95681269D01*
X131567195Y-95722023D01*
X131557541Y-95820040D01*
X131559960Y-95844600D01*
X131559961Y-105035390D01*
X131557541Y-105059960D01*
X131567195Y-105157977D01*
X131590811Y-105235826D01*
X131595786Y-105252227D01*
X131642215Y-105339089D01*
X131704697Y-105415224D01*
X131723779Y-105430884D01*
X135990958Y-109698065D01*
X135870000Y-109698065D01*
X135772077Y-109707710D01*
X135723414Y-109722472D01*
X135668414Y-109705788D01*
X135590000Y-109698065D01*
X135510000Y-109700000D01*
X135410000Y-109800000D01*
X135410000Y-110000945D01*
X135406273Y-110007918D01*
X135377710Y-110102077D01*
X135368065Y-110200000D01*
X135368065Y-110400000D01*
X135377710Y-110497923D01*
X135406273Y-110592082D01*
X135410000Y-110599055D01*
X135410000Y-110800000D01*
X135510000Y-110900000D01*
X135590000Y-110901935D01*
X135668414Y-110894212D01*
X135723414Y-110877528D01*
X135772077Y-110892290D01*
X135870000Y-110901935D01*
X136130000Y-110901935D01*
X136227923Y-110892290D01*
X136322082Y-110863727D01*
X136408860Y-110817344D01*
X136429994Y-110800000D01*
X136492895Y-110800000D01*
X136850002Y-111157108D01*
X136850002Y-111551965D01*
X136470599Y-111551965D01*
X136392185Y-111559688D01*
X136375000Y-111564901D01*
X136357814Y-111559688D01*
X136279400Y-111551965D01*
X136150000Y-111553900D01*
X136050000Y-111653900D01*
X136050000Y-112450000D01*
X136068664Y-112450000D01*
X136068664Y-112550000D01*
X136050000Y-112550000D01*
X136050000Y-112570000D01*
X135950000Y-112570000D01*
X135950000Y-112550000D01*
X135930000Y-112550000D01*
X135930000Y-112450000D01*
X135950000Y-112450000D01*
X135950000Y-111653900D01*
X135850000Y-111553900D01*
X135720600Y-111551965D01*
X135642186Y-111559688D01*
X135566786Y-111582560D01*
X135497297Y-111619703D01*
X135436389Y-111669689D01*
X135386403Y-111730597D01*
X135349260Y-111800086D01*
X135331865Y-111857429D01*
X135326532Y-111853052D01*
X135156456Y-111762145D01*
X134971914Y-111706165D01*
X134779998Y-111687263D01*
X134588081Y-111706165D01*
X134403539Y-111762145D01*
X134233464Y-111853052D01*
X134084392Y-111975393D01*
X133962051Y-112124465D01*
X133871144Y-112294541D01*
X133815164Y-112479083D01*
X133800998Y-112622914D01*
X133800999Y-113719085D01*
X133815165Y-113862916D01*
X133871145Y-114047458D01*
X133962052Y-114217533D01*
X134084393Y-114366605D01*
X134233465Y-114488946D01*
X134403540Y-114579853D01*
X134588082Y-114635833D01*
X134779998Y-114654735D01*
X134971915Y-114635833D01*
X135156457Y-114579853D01*
X135326532Y-114488946D01*
X135475604Y-114366605D01*
X135597945Y-114217533D01*
X135647982Y-114123921D01*
X135756584Y-114196487D01*
X135888525Y-114251139D01*
X136028594Y-114279000D01*
X136171406Y-114279000D01*
X136311475Y-114251139D01*
X136443416Y-114196487D01*
X136562161Y-114117144D01*
X136614225Y-114065080D01*
X136632902Y-114080408D01*
X136732792Y-114133801D01*
X136841180Y-114166680D01*
X136925654Y-114175000D01*
X136925657Y-114175000D01*
X136953900Y-114177782D01*
X136982143Y-114175000D01*
X138355583Y-114175000D01*
X138456584Y-114242487D01*
X138588525Y-114297139D01*
X138728594Y-114325000D01*
X138871406Y-114325000D01*
X139011475Y-114297139D01*
X139143416Y-114242487D01*
X139244417Y-114175000D01*
X141121757Y-114175000D01*
X141150000Y-114177782D01*
X141178243Y-114175000D01*
X141178246Y-114175000D01*
X141262720Y-114166680D01*
X141371108Y-114133801D01*
X141470998Y-114080408D01*
X141484815Y-114069069D01*
X141484867Y-114069133D01*
X141595262Y-114159732D01*
X141721211Y-114227054D01*
X141857874Y-114268510D01*
X141964392Y-114279001D01*
X142235606Y-114279001D01*
X142342124Y-114268510D01*
X142478787Y-114227054D01*
X142578310Y-114173857D01*
X142601655Y-114217533D01*
X142723996Y-114366605D01*
X142873068Y-114488946D01*
X143043143Y-114579853D01*
X143227685Y-114635833D01*
X143419601Y-114654735D01*
X143611518Y-114635833D01*
X143796060Y-114579853D01*
X143966135Y-114488946D01*
X144115207Y-114366605D01*
X144237548Y-114217533D01*
X144328455Y-114047458D01*
X144384435Y-113862916D01*
X144398601Y-113719084D01*
X144398601Y-112622913D01*
X144384435Y-112479082D01*
X144328455Y-112294540D01*
X144237548Y-112124465D01*
X144115207Y-111975393D01*
X143966135Y-111853052D01*
X143796059Y-111762145D01*
X143611517Y-111706165D01*
X143419601Y-111687263D01*
X143227684Y-111706165D01*
X143043142Y-111762145D01*
X142873067Y-111853052D01*
X142868054Y-111857166D01*
X142850739Y-111800086D01*
X142813596Y-111730597D01*
X142763610Y-111669689D01*
X142702702Y-111619703D01*
X142633213Y-111582560D01*
X142557813Y-111559688D01*
X142479399Y-111551965D01*
X142349999Y-111553900D01*
X142249999Y-111653900D01*
X142249999Y-112450000D01*
X142269999Y-112450000D01*
X142269999Y-112550000D01*
X142249999Y-112550000D01*
X142249999Y-112570000D01*
X142149999Y-112570000D01*
X142149999Y-112550000D01*
X142131335Y-112550000D01*
X142131335Y-112450000D01*
X142149999Y-112450000D01*
X142149999Y-111653900D01*
X142049999Y-111553900D01*
X141920599Y-111551965D01*
X141842185Y-111559688D01*
X141825000Y-111564901D01*
X141807814Y-111559688D01*
X141729400Y-111551965D01*
X141170600Y-111551965D01*
X141092186Y-111559688D01*
X141026188Y-111579708D01*
X141002399Y-111577365D01*
X140929740Y-111577365D01*
X141707107Y-110800000D01*
X141770006Y-110800000D01*
X141791140Y-110817344D01*
X141877918Y-110863727D01*
X141972077Y-110892290D01*
X142070000Y-110901935D01*
X142330000Y-110901935D01*
X142427923Y-110892290D01*
X142476586Y-110877528D01*
X142531586Y-110894212D01*
X142610000Y-110901935D01*
X142690000Y-110900000D01*
X142790000Y-110800000D01*
X142790000Y-110599055D01*
X142793727Y-110592082D01*
X142822290Y-110497923D01*
X142831935Y-110400000D01*
X142831935Y-110350000D01*
X142890000Y-110350000D01*
X142890000Y-110800000D01*
X142990000Y-110900000D01*
X143070000Y-110901935D01*
X143148414Y-110894212D01*
X143223814Y-110871340D01*
X143293303Y-110834197D01*
X143354211Y-110784211D01*
X143404197Y-110723303D01*
X143441340Y-110653814D01*
X143464212Y-110578414D01*
X143471935Y-110500000D01*
X143470000Y-110450000D01*
X143370000Y-110350000D01*
X142890000Y-110350000D01*
X142831935Y-110350000D01*
X142831935Y-110200000D01*
X142822290Y-110102077D01*
X142793727Y-110007918D01*
X142790000Y-110000945D01*
X142790000Y-109800000D01*
X142890000Y-109800000D01*
X142890000Y-110250000D01*
X143370000Y-110250000D01*
X143470000Y-110150000D01*
X143471935Y-110100000D01*
X143464212Y-110021586D01*
X143441340Y-109946186D01*
X143404197Y-109876697D01*
X143354211Y-109815789D01*
X143293303Y-109765803D01*
X143223814Y-109728660D01*
X143148414Y-109705788D01*
X143070000Y-109698065D01*
X142990000Y-109700000D01*
X142890000Y-109800000D01*
X142790000Y-109800000D01*
X142690000Y-109700000D01*
X142610000Y-109698065D01*
X142531586Y-109705788D01*
X142476586Y-109722472D01*
X142427923Y-109707710D01*
X142330000Y-109698065D01*
X142070000Y-109698065D01*
X141972077Y-109707710D01*
X141877918Y-109736273D01*
X141791140Y-109782656D01*
X141770006Y-109800000D01*
X141524560Y-109800000D01*
X141500000Y-109797581D01*
X141475440Y-109800000D01*
X141401983Y-109807235D01*
X141307733Y-109835825D01*
X141220871Y-109882254D01*
X141144736Y-109944736D01*
X141129080Y-109963813D01*
X140820799Y-110272094D01*
X140820799Y-110249998D01*
X140720801Y-110249998D01*
X140820799Y-110150000D01*
X140822734Y-109825000D01*
X140815011Y-109746586D01*
X140792139Y-109671186D01*
X140754996Y-109601697D01*
X140712569Y-109550000D01*
X140754996Y-109498303D01*
X140792139Y-109428814D01*
X140815011Y-109353414D01*
X140822734Y-109275000D01*
X140820799Y-108950000D01*
X140720799Y-108850000D01*
X140033299Y-108850000D01*
X140033299Y-110250000D01*
X140053299Y-110250000D01*
X140053299Y-110350000D01*
X140033299Y-110350000D01*
X140033299Y-110370000D01*
X139933299Y-110370000D01*
X139933299Y-110350000D01*
X139913299Y-110350000D01*
X139913299Y-110250000D01*
X139933299Y-110250000D01*
X139933299Y-108850000D01*
X139913299Y-108850000D01*
X139913299Y-108750000D01*
X139933299Y-108750000D01*
X139933299Y-107350000D01*
X140033299Y-107350000D01*
X140033299Y-108750000D01*
X140720799Y-108750000D01*
X140820799Y-108650000D01*
X140822734Y-108325000D01*
X140815011Y-108246586D01*
X140792139Y-108171186D01*
X140754996Y-108101697D01*
X140712569Y-108050000D01*
X140754996Y-107998303D01*
X140792139Y-107928814D01*
X140815011Y-107853414D01*
X140822734Y-107775000D01*
X140820799Y-107450000D01*
X140720799Y-107350000D01*
X140033299Y-107350000D01*
X139933299Y-107350000D01*
X139913299Y-107350000D01*
X139913299Y-107250000D01*
X139933299Y-107250000D01*
X139933299Y-105850000D01*
X140033299Y-105850000D01*
X140033299Y-107250000D01*
X140720799Y-107250000D01*
X140820799Y-107150000D01*
X140822734Y-106825000D01*
X140815011Y-106746586D01*
X140792139Y-106671186D01*
X140754996Y-106601697D01*
X140712569Y-106550000D01*
X140754996Y-106498303D01*
X140792139Y-106428814D01*
X140815011Y-106353414D01*
X140822734Y-106275000D01*
X140820799Y-105950000D01*
X140720799Y-105850000D01*
X140033299Y-105850000D01*
X139933299Y-105850000D01*
X139913299Y-105850000D01*
X139913299Y-105750000D01*
X139933299Y-105750000D01*
X139933299Y-104350000D01*
X140033299Y-104350000D01*
X140033299Y-105750000D01*
X140720799Y-105750000D01*
X140820799Y-105650000D01*
X140822734Y-105325000D01*
X140815011Y-105246586D01*
X140792139Y-105171186D01*
X140754996Y-105101697D01*
X140712569Y-105050000D01*
X140754996Y-104998303D01*
X140792139Y-104928814D01*
X140815011Y-104853414D01*
X140822734Y-104775000D01*
X140820799Y-104450000D01*
X140720799Y-104350000D01*
X140033299Y-104350000D01*
X139933299Y-104350000D01*
X139913299Y-104350000D01*
X139913299Y-104250000D01*
X139933299Y-104250000D01*
X139933299Y-102850000D01*
X140033299Y-102850000D01*
X140033299Y-104250000D01*
X140720799Y-104250000D01*
X140820799Y-104150000D01*
X140822734Y-103825000D01*
X140815011Y-103746586D01*
X140792139Y-103671186D01*
X140754996Y-103601697D01*
X140712569Y-103550000D01*
X140754996Y-103498303D01*
X140792139Y-103428814D01*
X140815011Y-103353414D01*
X140822734Y-103275000D01*
X140820799Y-102950000D01*
X140720799Y-102850000D01*
X140033299Y-102850000D01*
X139933299Y-102850000D01*
X139913299Y-102850000D01*
X139913299Y-102750000D01*
X139933299Y-102750000D01*
X139933299Y-101350000D01*
X139913299Y-101350000D01*
X139913299Y-101250000D01*
X139933299Y-101250000D01*
X139933299Y-100525000D01*
X139833299Y-100425000D01*
X139545799Y-100423065D01*
X139467385Y-100430788D01*
X139391985Y-100453660D01*
X139322496Y-100490803D01*
X139261588Y-100540789D01*
X139211602Y-100601697D01*
X139174459Y-100671186D01*
X139157750Y-100726269D01*
X139143130Y-100698916D01*
X139065940Y-100604859D01*
X138971883Y-100527669D01*
X138864575Y-100470312D01*
X138748139Y-100434991D01*
X138627049Y-100423065D01*
X138189549Y-100423065D01*
X138068459Y-100434991D01*
X137952023Y-100470312D01*
X137844715Y-100527669D01*
X137750658Y-100604859D01*
X137673468Y-100698916D01*
X137619438Y-100800000D01*
X135489303Y-100800000D01*
X135007304Y-100318001D01*
X135063144Y-100262161D01*
X135142487Y-100143416D01*
X135170826Y-100075000D01*
X135440951Y-100075000D01*
X135500898Y-100124197D01*
X135570387Y-100161340D01*
X135645787Y-100184212D01*
X135724201Y-100191935D01*
X136724201Y-100191935D01*
X136784882Y-100185958D01*
X136789787Y-100191935D01*
X136798026Y-100201974D01*
X136862740Y-100255084D01*
X136936573Y-100294548D01*
X137016686Y-100318850D01*
X137100000Y-100327056D01*
X137120874Y-100325000D01*
X141161836Y-100325000D01*
X141107665Y-100379171D01*
X140988525Y-100402869D01*
X140856584Y-100457521D01*
X140737839Y-100536864D01*
X140718039Y-100556664D01*
X140705010Y-100540789D01*
X140644102Y-100490803D01*
X140574613Y-100453660D01*
X140499213Y-100430788D01*
X140420799Y-100423065D01*
X140133299Y-100425000D01*
X140033299Y-100525000D01*
X140033299Y-101250000D01*
X140053299Y-101250000D01*
X140053299Y-101350000D01*
X140033299Y-101350000D01*
X140033299Y-102750000D01*
X140720799Y-102750000D01*
X140820799Y-102650000D01*
X140822734Y-102325000D01*
X140815011Y-102246586D01*
X140792139Y-102171186D01*
X140754996Y-102101697D01*
X140712569Y-102050000D01*
X140754996Y-101998303D01*
X140792139Y-101928814D01*
X140815011Y-101853414D01*
X140822734Y-101775000D01*
X140822404Y-101719657D01*
X140856584Y-101742495D01*
X140988525Y-101797147D01*
X141128594Y-101825008D01*
X141271406Y-101825008D01*
X141411475Y-101797147D01*
X141543416Y-101742495D01*
X141662161Y-101663152D01*
X141763144Y-101562169D01*
X141842487Y-101443424D01*
X141897139Y-101311483D01*
X141920837Y-101192343D01*
X142386612Y-100726569D01*
X142408554Y-100708562D01*
X142458202Y-100648065D01*
X142480408Y-100621007D01*
X142533801Y-100521116D01*
X142566680Y-100412728D01*
X142575000Y-100328254D01*
X142575000Y-100328251D01*
X142577782Y-100300008D01*
X142575000Y-100271765D01*
X142575000Y-100186932D01*
X142602615Y-100184212D01*
X142678015Y-100161340D01*
X142747504Y-100124197D01*
X142808412Y-100074211D01*
X142858398Y-100013303D01*
X142895541Y-99943814D01*
X142918413Y-99868414D01*
X142926136Y-99790000D01*
X142926136Y-99310000D01*
X142918413Y-99231586D01*
X142908832Y-99200000D01*
X142918413Y-99168414D01*
X142926136Y-99090000D01*
X142926136Y-98610000D01*
X142918413Y-98531586D01*
X142908832Y-98500000D01*
X142918413Y-98468414D01*
X142926136Y-98390000D01*
X142926136Y-97910000D01*
X142918413Y-97831586D01*
X142908832Y-97800000D01*
X142918413Y-97768414D01*
X142926136Y-97690000D01*
X142924201Y-97600000D01*
X142824201Y-97500000D01*
X142074201Y-97500000D01*
X142074201Y-97508065D01*
X141974201Y-97508065D01*
X141974201Y-97500000D01*
X141954201Y-97500000D01*
X141954201Y-97400000D01*
X141974201Y-97400000D01*
X141974201Y-97391935D01*
X142074201Y-97391935D01*
X142074201Y-97400000D01*
X142824201Y-97400000D01*
X142924201Y-97300000D01*
X142926136Y-97210000D01*
X142918413Y-97131586D01*
X142908832Y-97100000D01*
X142918413Y-97068414D01*
X142926136Y-96990000D01*
X142926136Y-96550000D01*
X143442895Y-96550000D01*
X143800000Y-96907107D01*
X143800001Y-99692892D01*
X142663824Y-100829071D01*
X142644736Y-100844736D01*
X142582254Y-100920871D01*
X142535825Y-101007734D01*
X142529495Y-101028602D01*
X142507235Y-101101983D01*
X142497581Y-101200000D01*
X142500000Y-101224560D01*
X142500001Y-104375430D01*
X142497581Y-104400000D01*
X142507235Y-104498017D01*
X142529417Y-104571140D01*
X142535826Y-104592267D01*
X142582255Y-104679129D01*
X142644737Y-104755264D01*
X142663819Y-104770924D01*
X144129079Y-106236186D01*
X144144736Y-106255264D01*
X144220871Y-106317746D01*
X144307733Y-106364175D01*
X144401983Y-106392765D01*
X144475440Y-106400000D01*
X144475449Y-106400000D01*
X144499999Y-106402418D01*
X144524549Y-106400000D01*
X144890505Y-106400000D01*
X144886273Y-106407918D01*
X144857710Y-106502077D01*
X144848065Y-106600000D01*
X144848065Y-106644830D01*
X144803823Y-106689072D01*
X144784736Y-106704736D01*
X144722254Y-106780871D01*
X144675825Y-106867734D01*
X144665304Y-106902419D01*
X144647235Y-106961983D01*
X144640824Y-107027073D01*
X144616794Y-107046794D01*
X144549398Y-107128917D01*
X144499317Y-107222610D01*
X144468478Y-107324274D01*
X144458065Y-107430000D01*
X144458065Y-107770000D01*
X144468478Y-107875726D01*
X144499317Y-107977390D01*
X144549398Y-108071083D01*
X144616794Y-108153206D01*
X144640000Y-108172251D01*
X144640001Y-109415430D01*
X144637581Y-109440000D01*
X144647235Y-109538017D01*
X144666553Y-109601697D01*
X144675826Y-109632267D01*
X144722255Y-109719129D01*
X144784737Y-109795264D01*
X144803819Y-109810924D01*
X147429075Y-112436181D01*
X147444736Y-112455264D01*
X147520871Y-112517746D01*
X147607733Y-112564175D01*
X147701983Y-112592765D01*
X147775440Y-112600000D01*
X147775441Y-112600000D01*
X147799999Y-112602419D01*
X147824557Y-112600000D01*
X150174695Y-112600000D01*
X150237839Y-112663144D01*
X150356584Y-112742487D01*
X150488525Y-112797139D01*
X150628594Y-112825000D01*
X150771406Y-112825000D01*
X150911475Y-112797139D01*
X151043416Y-112742487D01*
X151162161Y-112663144D01*
X151263144Y-112562161D01*
X151342487Y-112443416D01*
X151397139Y-112311475D01*
X151425000Y-112171406D01*
X151425000Y-112028594D01*
X151397139Y-111888525D01*
X151342487Y-111756584D01*
X151263144Y-111637839D01*
X151162161Y-111536856D01*
X151043416Y-111457513D01*
X150911475Y-111402861D01*
X150771406Y-111375000D01*
X150628594Y-111375000D01*
X150488525Y-111402861D01*
X150356584Y-111457513D01*
X150237839Y-111536856D01*
X150174695Y-111600000D01*
X148007106Y-111600000D01*
X145640000Y-109232895D01*
X145640000Y-109200950D01*
X145650000Y-109201935D01*
X145910000Y-109201935D01*
X146007923Y-109192290D01*
X146100000Y-109164359D01*
X146192077Y-109192290D01*
X146290000Y-109201935D01*
X146550000Y-109201935D01*
X146647923Y-109192290D01*
X146742082Y-109163727D01*
X146828860Y-109117344D01*
X146853463Y-109097153D01*
X146898017Y-109092765D01*
X146932318Y-109082360D01*
X146978917Y-109120602D01*
X147072610Y-109170683D01*
X147174274Y-109201522D01*
X147280000Y-109211935D01*
X147560000Y-109211935D01*
X147665726Y-109201522D01*
X147767390Y-109170683D01*
X147861083Y-109120602D01*
X147900000Y-109088664D01*
X147938917Y-109120602D01*
X148032610Y-109170683D01*
X148134274Y-109201522D01*
X148240000Y-109211935D01*
X148520000Y-109211935D01*
X148625726Y-109201522D01*
X148727390Y-109170683D01*
X148821083Y-109120602D01*
X148893278Y-109061354D01*
X148928917Y-109090602D01*
X149022610Y-109140683D01*
X149124274Y-109171522D01*
X149230000Y-109181935D01*
X149570000Y-109181935D01*
X149675726Y-109171522D01*
X149777390Y-109140683D01*
X149871083Y-109090602D01*
X149953206Y-109023206D01*
X149958901Y-109016266D01*
X150021140Y-109067344D01*
X150107918Y-109113727D01*
X150202077Y-109142290D01*
X150300000Y-109151935D01*
X150500000Y-109151935D01*
X150597923Y-109142290D01*
X150692082Y-109113727D01*
X150778860Y-109067344D01*
X150854922Y-109004922D01*
X150917344Y-108928860D01*
X150963727Y-108842082D01*
X150992290Y-108747923D01*
X151001935Y-108650000D01*
X151001935Y-108505972D01*
X151056584Y-108542487D01*
X151188525Y-108597139D01*
X151328594Y-108625000D01*
X151471406Y-108625000D01*
X151611475Y-108597139D01*
X151743416Y-108542487D01*
X151862161Y-108463144D01*
X151963144Y-108362161D01*
X152042487Y-108243416D01*
X152097139Y-108111475D01*
X152125000Y-107971406D01*
X152125000Y-107828594D01*
X152097139Y-107688525D01*
X152042487Y-107556584D01*
X151963144Y-107437839D01*
X151862161Y-107336856D01*
X151743416Y-107257513D01*
X151611475Y-107202861D01*
X151471406Y-107175000D01*
X151328594Y-107175000D01*
X151188525Y-107202861D01*
X151056584Y-107257513D01*
X150937839Y-107336856D01*
X150874695Y-107400000D01*
X150858961Y-107400000D01*
X150854922Y-107395078D01*
X150778860Y-107332656D01*
X150692082Y-107286273D01*
X150597923Y-107257710D01*
X150500000Y-107248065D01*
X150300000Y-107248065D01*
X150202077Y-107257710D01*
X150107918Y-107286273D01*
X150100326Y-107290331D01*
X150070683Y-107192610D01*
X150020602Y-107098917D01*
X149992717Y-107064938D01*
X150004922Y-107054922D01*
X150067344Y-106978860D01*
X150113727Y-106892082D01*
X150141571Y-106800294D01*
X150144557Y-106800000D01*
X158600000Y-106800000D01*
X158600000Y-117385523D01*
X158507890Y-117323978D01*
X158389598Y-117274979D01*
X158264019Y-117250000D01*
X158135981Y-117250000D01*
X158010402Y-117274979D01*
X157892110Y-117323978D01*
X157785649Y-117395112D01*
X157695112Y-117485649D01*
X157623978Y-117592110D01*
X157574979Y-117710402D01*
X157550000Y-117835981D01*
X157550000Y-117964019D01*
X157574979Y-118089598D01*
X157623978Y-118207890D01*
X157668819Y-118275000D01*
X144170269Y-118275000D01*
X144237948Y-118192534D01*
X144328855Y-118022459D01*
X144384835Y-117837917D01*
X144399001Y-117694086D01*
X144399001Y-116297914D01*
X144384835Y-116154083D01*
X144328855Y-115969541D01*
X144237948Y-115799466D01*
X144115607Y-115650394D01*
X143966535Y-115528053D01*
X143796459Y-115437146D01*
X143611917Y-115381166D01*
X143420001Y-115362264D01*
X143228084Y-115381166D01*
X143043542Y-115437146D01*
X142873467Y-115528053D01*
X142724395Y-115650394D01*
X142602054Y-115799466D01*
X142511147Y-115969542D01*
X142455167Y-116154084D01*
X142441001Y-116297915D01*
X142441002Y-117694086D01*
X142455168Y-117837917D01*
X142511148Y-118022459D01*
X142602055Y-118192534D01*
X142669734Y-118275000D01*
X141286495Y-118275000D01*
X141329496Y-118222603D01*
X141366639Y-118153114D01*
X141389511Y-118077714D01*
X141397234Y-117999300D01*
X141397234Y-115992700D01*
X141389511Y-115914286D01*
X141366639Y-115838886D01*
X141329496Y-115769397D01*
X141279510Y-115708489D01*
X141218602Y-115658503D01*
X141149113Y-115621360D01*
X141073713Y-115598488D01*
X140995299Y-115590765D01*
X140004699Y-115590765D01*
X139926285Y-115598488D01*
X139850885Y-115621360D01*
X139781396Y-115658503D01*
X139720488Y-115708489D01*
X139670502Y-115769397D01*
X139633359Y-115838886D01*
X139610487Y-115914286D01*
X139602764Y-115992700D01*
X139602764Y-117999300D01*
X139610487Y-118077714D01*
X139633359Y-118153114D01*
X139670502Y-118222603D01*
X139713503Y-118275000D01*
X138486496Y-118275000D01*
X138529497Y-118222603D01*
X138566640Y-118153114D01*
X138589512Y-118077714D01*
X138597235Y-117999300D01*
X138597235Y-115992700D01*
X138589512Y-115914286D01*
X138566640Y-115838886D01*
X138529497Y-115769397D01*
X138479511Y-115708489D01*
X138418603Y-115658503D01*
X138349114Y-115621360D01*
X138273714Y-115598488D01*
X138195300Y-115590765D01*
X137204700Y-115590765D01*
X137126286Y-115598488D01*
X137050886Y-115621360D01*
X136981397Y-115658503D01*
X136920489Y-115708489D01*
X136870503Y-115769397D01*
X136833360Y-115838886D01*
X136810488Y-115914286D01*
X136802765Y-115992700D01*
X136802765Y-117999300D01*
X136810488Y-118077714D01*
X136833360Y-118153114D01*
X136870503Y-118222603D01*
X136913504Y-118275000D01*
X135530266Y-118275000D01*
X135597945Y-118192534D01*
X135688852Y-118022459D01*
X135744832Y-117837917D01*
X135758998Y-117694086D01*
X135758998Y-116297914D01*
X135744832Y-116154083D01*
X135688852Y-115969541D01*
X135597945Y-115799466D01*
X135475604Y-115650394D01*
X135326532Y-115528053D01*
X135156456Y-115437146D01*
X134971914Y-115381166D01*
X134779998Y-115362264D01*
X134588081Y-115381166D01*
X134403539Y-115437146D01*
X134233464Y-115528053D01*
X134084392Y-115650394D01*
X133962051Y-115799466D01*
X133871144Y-115969542D01*
X133815164Y-116154084D01*
X133800998Y-116297915D01*
X133800999Y-117694086D01*
X133815165Y-117837917D01*
X133871145Y-118022459D01*
X133962052Y-118192534D01*
X134029731Y-118275000D01*
X119700000Y-118275000D01*
X119700000Y-112728594D01*
X129575000Y-112728594D01*
X129575000Y-112871406D01*
X129602861Y-113011475D01*
X129657513Y-113143416D01*
X129736856Y-113262161D01*
X129837839Y-113363144D01*
X129956584Y-113442487D01*
X130088525Y-113497139D01*
X130228594Y-113525000D01*
X130371406Y-113525000D01*
X130511475Y-113497139D01*
X130643416Y-113442487D01*
X130762161Y-113363144D01*
X130863144Y-113262161D01*
X130942487Y-113143416D01*
X130997139Y-113011475D01*
X131025000Y-112871406D01*
X131025000Y-112728594D01*
X130997139Y-112588525D01*
X130942487Y-112456584D01*
X130863144Y-112337839D01*
X130762161Y-112236856D01*
X130643416Y-112157513D01*
X130511475Y-112102861D01*
X130371406Y-112075000D01*
X130228594Y-112075000D01*
X130088525Y-112102861D01*
X129956584Y-112157513D01*
X129837839Y-112236856D01*
X129736856Y-112337839D01*
X129657513Y-112456584D01*
X129602861Y-112588525D01*
X129575000Y-112728594D01*
X119700000Y-112728594D01*
X119700000Y-110628594D01*
X128975000Y-110628594D01*
X128975000Y-110771406D01*
X129002861Y-110911475D01*
X129057513Y-111043416D01*
X129136856Y-111162161D01*
X129237839Y-111263144D01*
X129356584Y-111342487D01*
X129488525Y-111397139D01*
X129628594Y-111425000D01*
X129771406Y-111425000D01*
X129911475Y-111397139D01*
X130043416Y-111342487D01*
X130162161Y-111263144D01*
X130263144Y-111162161D01*
X130342487Y-111043416D01*
X130397139Y-110911475D01*
X130425000Y-110771406D01*
X130425000Y-110628594D01*
X130399422Y-110500000D01*
X134728065Y-110500000D01*
X134735788Y-110578414D01*
X134758660Y-110653814D01*
X134795803Y-110723303D01*
X134845789Y-110784211D01*
X134906697Y-110834197D01*
X134976186Y-110871340D01*
X135051586Y-110894212D01*
X135130000Y-110901935D01*
X135210000Y-110900000D01*
X135310000Y-110800000D01*
X135310000Y-110350000D01*
X134830000Y-110350000D01*
X134730000Y-110450000D01*
X134728065Y-110500000D01*
X130399422Y-110500000D01*
X130397139Y-110488525D01*
X130342487Y-110356584D01*
X130263144Y-110237839D01*
X130162161Y-110136856D01*
X130107003Y-110100000D01*
X134728065Y-110100000D01*
X134730000Y-110150000D01*
X134830000Y-110250000D01*
X135310000Y-110250000D01*
X135310000Y-109800000D01*
X135210000Y-109700000D01*
X135130000Y-109698065D01*
X135051586Y-109705788D01*
X134976186Y-109728660D01*
X134906697Y-109765803D01*
X134845789Y-109815789D01*
X134795803Y-109876697D01*
X134758660Y-109946186D01*
X134735788Y-110021586D01*
X134728065Y-110100000D01*
X130107003Y-110100000D01*
X130043416Y-110057513D01*
X129911475Y-110002861D01*
X129771406Y-109975000D01*
X129628594Y-109975000D01*
X129488525Y-110002861D01*
X129356584Y-110057513D01*
X129237839Y-110136856D01*
X129136856Y-110237839D01*
X129057513Y-110356584D01*
X129002861Y-110488525D01*
X128975000Y-110628594D01*
X119700000Y-110628594D01*
X119700000Y-108528594D01*
X128375000Y-108528594D01*
X128375000Y-108671406D01*
X128402861Y-108811475D01*
X128457513Y-108943416D01*
X128536856Y-109062161D01*
X128637839Y-109163144D01*
X128756584Y-109242487D01*
X128888525Y-109297139D01*
X129028594Y-109325000D01*
X129171406Y-109325000D01*
X129311475Y-109297139D01*
X129443416Y-109242487D01*
X129562161Y-109163144D01*
X129663144Y-109062161D01*
X129742487Y-108943416D01*
X129797139Y-108811475D01*
X129825000Y-108671406D01*
X129825000Y-108528594D01*
X129797139Y-108388525D01*
X129742487Y-108256584D01*
X129663144Y-108137839D01*
X129562161Y-108036856D01*
X129443416Y-107957513D01*
X129311475Y-107902861D01*
X129171406Y-107875000D01*
X129028594Y-107875000D01*
X128888525Y-107902861D01*
X128756584Y-107957513D01*
X128637839Y-108036856D01*
X128536856Y-108137839D01*
X128457513Y-108256584D01*
X128402861Y-108388525D01*
X128375000Y-108528594D01*
X119700000Y-108528594D01*
X119700000Y-106428594D01*
X130175000Y-106428594D01*
X130175000Y-106571406D01*
X130202861Y-106711475D01*
X130257513Y-106843416D01*
X130336856Y-106962161D01*
X130437839Y-107063144D01*
X130556584Y-107142487D01*
X130688525Y-107197139D01*
X130828594Y-107225000D01*
X130971406Y-107225000D01*
X131111475Y-107197139D01*
X131243416Y-107142487D01*
X131362161Y-107063144D01*
X131463144Y-106962161D01*
X131542487Y-106843416D01*
X131597139Y-106711475D01*
X131625000Y-106571406D01*
X131625000Y-106428594D01*
X131597139Y-106288525D01*
X131542487Y-106156584D01*
X131463144Y-106037839D01*
X131362161Y-105936856D01*
X131243416Y-105857513D01*
X131111475Y-105802861D01*
X130971406Y-105775000D01*
X130828594Y-105775000D01*
X130688525Y-105802861D01*
X130556584Y-105857513D01*
X130437839Y-105936856D01*
X130336856Y-106037839D01*
X130257513Y-106156584D01*
X130202861Y-106288525D01*
X130175000Y-106428594D01*
X119700000Y-106428594D01*
X119700000Y-93010000D01*
X135322266Y-93010000D01*
X135324201Y-93100000D01*
X135424201Y-93200000D01*
X136174201Y-93200000D01*
X136174201Y-92710000D01*
X136074201Y-92610000D01*
X135724201Y-92608065D01*
X135645787Y-92615788D01*
X135570387Y-92638660D01*
X135500898Y-92675803D01*
X135439990Y-92725789D01*
X135390004Y-92786697D01*
X135352861Y-92856186D01*
X135329989Y-92931586D01*
X135322266Y-93010000D01*
X119700000Y-93010000D01*
X119700000Y-89814477D01*
X119792110Y-89876022D01*
X119910402Y-89925021D01*
X120035981Y-89950000D01*
X120164019Y-89950000D01*
X120289598Y-89925021D01*
X120407890Y-89876022D01*
X120514351Y-89804888D01*
X120604888Y-89714351D01*
X120676022Y-89607890D01*
X120725021Y-89489598D01*
X120750000Y-89364019D01*
X120750000Y-89235981D01*
X120725021Y-89110402D01*
X120676022Y-88992110D01*
X120631181Y-88925000D01*
X136675001Y-88925000D01*
X136675001Y-92608337D01*
G37*
%TD.AperFunction*%
D21*
X158600000Y-105800000D02*
X150997010Y-105800000D01*
X151001935Y-105750000D01*
X151001935Y-105505972D01*
X151056584Y-105542487D01*
X151188525Y-105597139D01*
X151328594Y-105625000D01*
X151471406Y-105625000D01*
X151611475Y-105597139D01*
X151743416Y-105542487D01*
X151862161Y-105463144D01*
X151963144Y-105362161D01*
X152042487Y-105243416D01*
X152097139Y-105111475D01*
X152125000Y-104971406D01*
X152125000Y-104828594D01*
X152097139Y-104688525D01*
X152042487Y-104556584D01*
X151963144Y-104437839D01*
X151862161Y-104336856D01*
X151743416Y-104257513D01*
X151611475Y-104202861D01*
X151471406Y-104175000D01*
X151328594Y-104175000D01*
X151188525Y-104202861D01*
X151056584Y-104257513D01*
X150937839Y-104336856D01*
X150836856Y-104437839D01*
X150818553Y-104465231D01*
X150778860Y-104432656D01*
X150692082Y-104386273D01*
X150597923Y-104357710D01*
X150500000Y-104348065D01*
X150300000Y-104348065D01*
X150202077Y-104357710D01*
X150158144Y-104371037D01*
X150092267Y-104335825D01*
X149998017Y-104307235D01*
X149953463Y-104302847D01*
X149952352Y-104301935D01*
X150000000Y-104301935D01*
X150097923Y-104292290D01*
X150192082Y-104263727D01*
X150278860Y-104217344D01*
X150354922Y-104154922D01*
X150417344Y-104078860D01*
X150463727Y-103992082D01*
X150492290Y-103897923D01*
X150501935Y-103800000D01*
X150501935Y-103600000D01*
X150492290Y-103502077D01*
X150463727Y-103407918D01*
X150417344Y-103321140D01*
X150354922Y-103245078D01*
X150350000Y-103241039D01*
X150350000Y-101974560D01*
X150352419Y-101950000D01*
X150342765Y-101851983D01*
X150333063Y-101820000D01*
X150314175Y-101757733D01*
X150267746Y-101670871D01*
X150205264Y-101594736D01*
X150186180Y-101579074D01*
X150090928Y-101483823D01*
X150075264Y-101464736D01*
X149999129Y-101402254D01*
X149912267Y-101355825D01*
X149818017Y-101327235D01*
X149774686Y-101322967D01*
X149753206Y-101296794D01*
X149671083Y-101229398D01*
X149577390Y-101179317D01*
X149475726Y-101148478D01*
X149370000Y-101138065D01*
X149030000Y-101138065D01*
X148924274Y-101148478D01*
X148822610Y-101179317D01*
X148728917Y-101229398D01*
X148646794Y-101296794D01*
X148644163Y-101300000D01*
X148549994Y-101300000D01*
X148528860Y-101282656D01*
X148442082Y-101236273D01*
X148347923Y-101207710D01*
X148250000Y-101198065D01*
X147990000Y-101198065D01*
X147892077Y-101207710D01*
X147800000Y-101235641D01*
X147707923Y-101207710D01*
X147610000Y-101198065D01*
X147350000Y-101198065D01*
X147252077Y-101207710D01*
X147157918Y-101236273D01*
X147071140Y-101282656D01*
X146995078Y-101345078D01*
X146959018Y-101389018D01*
X146900000Y-101330000D01*
X146699055Y-101330000D01*
X146692082Y-101326273D01*
X146597923Y-101297710D01*
X146500000Y-101288065D01*
X146330000Y-101288065D01*
X146330000Y-101230000D01*
X146350000Y-101230000D01*
X146350000Y-100750000D01*
X146450000Y-100750000D01*
X146450000Y-101230000D01*
X146900000Y-101230000D01*
X147000000Y-101130000D01*
X147001935Y-101050000D01*
X146994212Y-100971586D01*
X146971340Y-100896186D01*
X146934197Y-100826697D01*
X146884211Y-100765789D01*
X146823303Y-100715803D01*
X146753814Y-100678660D01*
X146678414Y-100655788D01*
X146600000Y-100648065D01*
X146550000Y-100650000D01*
X146450000Y-100750000D01*
X146350000Y-100750000D01*
X146250000Y-100650000D01*
X146200000Y-100648065D01*
X146121586Y-100655788D01*
X146111655Y-100658800D01*
X146111935Y-100640000D01*
X146104212Y-100561586D01*
X146081340Y-100486186D01*
X146044197Y-100416697D01*
X145994211Y-100355789D01*
X145933303Y-100305803D01*
X145863814Y-100268660D01*
X145788414Y-100245788D01*
X145710000Y-100238065D01*
X145550000Y-100240000D01*
X145450000Y-100340000D01*
X145450000Y-100870000D01*
X145470000Y-100870000D01*
X145470000Y-100970000D01*
X145450000Y-100970000D01*
X145450000Y-100990000D01*
X145350000Y-100990000D01*
X145350000Y-100970000D01*
X144790000Y-100970000D01*
X144690000Y-101070000D01*
X144688065Y-101200000D01*
X144695788Y-101278414D01*
X144718660Y-101353814D01*
X144755803Y-101423303D01*
X144775146Y-101446872D01*
X144729317Y-101532610D01*
X144698478Y-101634274D01*
X144688065Y-101740000D01*
X144688065Y-102020000D01*
X144698478Y-102125726D01*
X144712882Y-102173210D01*
X144688414Y-102165788D01*
X144610000Y-102158065D01*
X144450000Y-102160000D01*
X144350000Y-102260000D01*
X144350000Y-102790000D01*
X144910000Y-102790000D01*
X144930000Y-102770000D01*
X145350000Y-102770000D01*
X145350000Y-102750000D01*
X145450000Y-102750000D01*
X145450000Y-102770000D01*
X145470000Y-102770000D01*
X145470000Y-102870000D01*
X145450000Y-102870000D01*
X145450000Y-102890000D01*
X145350000Y-102890000D01*
X145350000Y-102870000D01*
X144790000Y-102870000D01*
X144770000Y-102890000D01*
X144350000Y-102890000D01*
X144350000Y-102910000D01*
X144250000Y-102910000D01*
X144250000Y-102890000D01*
X143690000Y-102890000D01*
X143590000Y-102990000D01*
X143588065Y-103120000D01*
X143595788Y-103198414D01*
X143618660Y-103273814D01*
X143655803Y-103343303D01*
X143675146Y-103366872D01*
X143629317Y-103452610D01*
X143598478Y-103554274D01*
X143588065Y-103660000D01*
X143588065Y-103662911D01*
X143575000Y-103728594D01*
X143575000Y-103871406D01*
X143588065Y-103937089D01*
X143588065Y-103940000D01*
X143598478Y-104045726D01*
X143629317Y-104147390D01*
X143679398Y-104241083D01*
X143746794Y-104323206D01*
X143828917Y-104390602D01*
X143922610Y-104440683D01*
X144024274Y-104471522D01*
X144027431Y-104471833D01*
X144088525Y-104497139D01*
X144228594Y-104525000D01*
X144371406Y-104525000D01*
X144511475Y-104497139D01*
X144572569Y-104471833D01*
X144575726Y-104471522D01*
X144677390Y-104440683D01*
X144771083Y-104390602D01*
X144790094Y-104375000D01*
X144937145Y-104375000D01*
X145022610Y-104420683D01*
X145025057Y-104421425D01*
X145056578Y-104442487D01*
X145188519Y-104497139D01*
X145328588Y-104525000D01*
X145471400Y-104525000D01*
X145611469Y-104497139D01*
X145743410Y-104442487D01*
X145774921Y-104421432D01*
X145777390Y-104420683D01*
X145825439Y-104395000D01*
X145906938Y-104395000D01*
X145907235Y-104398017D01*
X145914111Y-104420683D01*
X145934411Y-104487605D01*
X145930508Y-104494573D01*
X145899453Y-104590113D01*
X145887633Y-104689876D01*
X145895502Y-104790029D01*
X145922759Y-104886721D01*
X145930240Y-104901407D01*
X145909599Y-104951238D01*
X145899900Y-105000000D01*
X145407100Y-105000000D01*
X145018730Y-104611630D01*
X144998196Y-104597910D01*
X144979127Y-104582260D01*
X144957372Y-104570631D01*
X144936838Y-104556911D01*
X144914024Y-104547461D01*
X144892266Y-104535831D01*
X144868654Y-104528668D01*
X144845844Y-104519220D01*
X144821631Y-104514404D01*
X144798016Y-104507240D01*
X144773457Y-104504821D01*
X144749245Y-104500005D01*
X144724559Y-104500005D01*
X144699999Y-104497586D01*
X144675439Y-104500005D01*
X144650753Y-104500005D01*
X144626541Y-104504821D01*
X144601982Y-104507240D01*
X144578367Y-104514404D01*
X144554154Y-104519220D01*
X144531344Y-104528668D01*
X144507732Y-104535831D01*
X144485974Y-104547461D01*
X144463160Y-104556911D01*
X144442626Y-104570631D01*
X144420871Y-104582260D01*
X144401802Y-104597910D01*
X144381268Y-104611630D01*
X144363807Y-104629091D01*
X144344736Y-104644742D01*
X144329085Y-104663813D01*
X144311624Y-104681274D01*
X144297904Y-104701808D01*
X144282254Y-104720877D01*
X144270625Y-104742632D01*
X144256905Y-104763166D01*
X144247455Y-104785980D01*
X144235825Y-104807738D01*
X144228662Y-104831350D01*
X144219214Y-104854160D01*
X144214398Y-104878373D01*
X144207667Y-104900561D01*
X143500000Y-104192895D01*
X143500000Y-102560000D01*
X143588065Y-102560000D01*
X143590000Y-102690000D01*
X143690000Y-102790000D01*
X144250000Y-102790000D01*
X144250000Y-102260000D01*
X144150000Y-102160000D01*
X143990000Y-102158065D01*
X143911586Y-102165788D01*
X143836186Y-102188660D01*
X143766697Y-102225803D01*
X143705789Y-102275789D01*
X143655803Y-102336697D01*
X143618660Y-102406186D01*
X143595788Y-102481586D01*
X143588065Y-102560000D01*
X143500000Y-102560000D01*
X143500000Y-101407105D01*
X144267106Y-100640000D01*
X144688065Y-100640000D01*
X144690000Y-100770000D01*
X144790000Y-100870000D01*
X145350000Y-100870000D01*
X145350000Y-100340000D01*
X145250000Y-100240000D01*
X145090000Y-100238065D01*
X145011586Y-100245788D01*
X144936186Y-100268660D01*
X144866697Y-100305803D01*
X144805789Y-100355789D01*
X144755803Y-100416697D01*
X144718660Y-100486186D01*
X144695788Y-100561586D01*
X144688065Y-100640000D01*
X144267106Y-100640000D01*
X144636187Y-100270920D01*
X144655264Y-100255264D01*
X144717746Y-100179129D01*
X144764175Y-100092267D01*
X144792765Y-99998017D01*
X144800000Y-99924560D01*
X144802419Y-99900000D01*
X144800000Y-99875440D01*
X144800000Y-96724560D01*
X144802419Y-96700000D01*
X144792765Y-96601983D01*
X144789825Y-96592290D01*
X144764175Y-96507733D01*
X144717746Y-96420871D01*
X144655264Y-96344736D01*
X144636186Y-96329080D01*
X144020929Y-95713824D01*
X144005264Y-95694736D01*
X143929129Y-95632254D01*
X143895889Y-95614487D01*
X143897139Y-95611469D01*
X143925000Y-95471400D01*
X143925000Y-95328588D01*
X143904395Y-95225000D01*
X150021757Y-95225000D01*
X150050000Y-95227782D01*
X150078243Y-95225000D01*
X150078246Y-95225000D01*
X150162720Y-95216680D01*
X150271108Y-95183801D01*
X150370998Y-95130408D01*
X150458554Y-95058554D01*
X150476565Y-95036607D01*
X152093486Y-93419686D01*
X152201514Y-93398198D01*
X152345958Y-93338367D01*
X152475954Y-93251507D01*
X152586507Y-93140954D01*
X152673367Y-93010958D01*
X152733198Y-92866514D01*
X152755739Y-92753196D01*
X152815916Y-92793405D01*
X152978851Y-92860894D01*
X153151821Y-92895300D01*
X153328179Y-92895300D01*
X153501149Y-92860894D01*
X153664084Y-92793405D01*
X153810720Y-92695425D01*
X153935425Y-92570720D01*
X154033405Y-92424084D01*
X154100894Y-92261149D01*
X154135300Y-92088179D01*
X154135300Y-91911821D01*
X154100894Y-91738851D01*
X154033405Y-91575916D01*
X153935425Y-91429280D01*
X153810720Y-91304575D01*
X153664084Y-91206595D01*
X153501149Y-91139106D01*
X153328179Y-91104700D01*
X153151821Y-91104700D01*
X153097709Y-91115464D01*
X153492317Y-90720856D01*
X153611456Y-90697158D01*
X153743397Y-90642506D01*
X153862142Y-90563163D01*
X153963125Y-90462180D01*
X154042468Y-90343435D01*
X154097120Y-90211494D01*
X154124981Y-90071425D01*
X154124981Y-89928613D01*
X154097120Y-89788544D01*
X154042468Y-89656603D01*
X153963125Y-89537858D01*
X153862142Y-89436875D01*
X153743397Y-89357532D01*
X153611456Y-89302880D01*
X153471387Y-89275019D01*
X153328575Y-89275019D01*
X153188506Y-89302880D01*
X153056565Y-89357532D01*
X152937820Y-89436875D01*
X152836837Y-89537858D01*
X152757494Y-89656603D01*
X152702842Y-89788544D01*
X152679144Y-89907683D01*
X152015528Y-90571300D01*
X151891827Y-90571300D01*
X151738486Y-90601802D01*
X151594042Y-90661633D01*
X151464046Y-90748493D01*
X151353493Y-90859046D01*
X151335000Y-90886723D01*
X151316507Y-90859046D01*
X151205954Y-90748493D01*
X151075958Y-90661633D01*
X150931514Y-90601802D01*
X150778173Y-90571300D01*
X150621827Y-90571300D01*
X150468486Y-90601802D01*
X150324042Y-90661633D01*
X150194046Y-90748493D01*
X150083493Y-90859046D01*
X150039537Y-90924831D01*
X149957322Y-90908389D01*
X149500711Y-91365000D01*
X149957322Y-91821611D01*
X150039537Y-91805169D01*
X150083493Y-91870954D01*
X150194046Y-91981507D01*
X150221723Y-92000000D01*
X150194046Y-92018493D01*
X150083493Y-92129046D01*
X150065000Y-92156723D01*
X150046507Y-92129046D01*
X149935954Y-92018493D01*
X149870169Y-91974537D01*
X149886611Y-91892322D01*
X149430000Y-91435711D01*
X148973389Y-91892322D01*
X148989831Y-91974537D01*
X148924046Y-92018493D01*
X148813493Y-92129046D01*
X148726633Y-92259042D01*
X148707556Y-92305097D01*
X148584084Y-92222595D01*
X148421149Y-92155106D01*
X148248179Y-92120700D01*
X148071821Y-92120700D01*
X147898851Y-92155106D01*
X147735916Y-92222595D01*
X147589280Y-92320575D01*
X147464575Y-92445280D01*
X147366595Y-92591916D01*
X147299106Y-92754851D01*
X147264700Y-92927821D01*
X147264700Y-93104179D01*
X147299106Y-93277149D01*
X147339637Y-93375000D01*
X142899201Y-93375000D01*
X142824201Y-93300000D01*
X142074201Y-93300000D01*
X142074201Y-93308065D01*
X141974201Y-93308065D01*
X141974201Y-93300000D01*
X141954201Y-93300000D01*
X141954201Y-93200000D01*
X141974201Y-93200000D01*
X141974201Y-92710000D01*
X142074201Y-92710000D01*
X142074201Y-93200000D01*
X142824201Y-93200000D01*
X142924201Y-93100000D01*
X142926136Y-93010000D01*
X142918413Y-92931586D01*
X142895541Y-92856186D01*
X142858398Y-92786697D01*
X142808412Y-92725789D01*
X142747504Y-92675803D01*
X142678015Y-92638660D01*
X142602615Y-92615788D01*
X142524201Y-92608065D01*
X142174201Y-92610000D01*
X142074201Y-92710000D01*
X141974201Y-92710000D01*
X141874201Y-92610000D01*
X141625000Y-92608622D01*
X141625000Y-90895821D01*
X147264700Y-90895821D01*
X147264700Y-91072179D01*
X147299106Y-91245149D01*
X147366595Y-91408084D01*
X147464575Y-91554720D01*
X147589280Y-91679425D01*
X147735916Y-91777405D01*
X147898851Y-91844894D01*
X148071821Y-91879300D01*
X148248179Y-91879300D01*
X148421149Y-91844894D01*
X148584084Y-91777405D01*
X148705332Y-91696389D01*
X148756656Y-91792409D01*
X148902678Y-91821611D01*
X149359289Y-91365000D01*
X149345147Y-91350858D01*
X149415858Y-91280147D01*
X149430000Y-91294289D01*
X149886611Y-90837678D01*
X149857409Y-90691656D01*
X149717834Y-90621211D01*
X149567198Y-90579349D01*
X149411289Y-90567679D01*
X149256098Y-90586649D01*
X149107592Y-90635532D01*
X149006997Y-90689301D01*
X148953405Y-90559916D01*
X148855425Y-90413280D01*
X148730720Y-90288575D01*
X148584084Y-90190595D01*
X148421149Y-90123106D01*
X148248179Y-90088700D01*
X148071821Y-90088700D01*
X147898851Y-90123106D01*
X147735916Y-90190595D01*
X147589280Y-90288575D01*
X147464575Y-90413280D01*
X147366595Y-90559916D01*
X147299106Y-90722851D01*
X147264700Y-90895821D01*
X141625000Y-90895821D01*
X141625000Y-88925000D01*
X158600000Y-88925000D01*
X158600000Y-105800000D01*
%TA.AperFunction,Conductor*%
D23*
G36*
X158600000Y-105800000D02*
G01*
X150997010Y-105800000D01*
X151001935Y-105750000D01*
X151001935Y-105505972D01*
X151056584Y-105542487D01*
X151188525Y-105597139D01*
X151328594Y-105625000D01*
X151471406Y-105625000D01*
X151611475Y-105597139D01*
X151743416Y-105542487D01*
X151862161Y-105463144D01*
X151963144Y-105362161D01*
X152042487Y-105243416D01*
X152097139Y-105111475D01*
X152125000Y-104971406D01*
X152125000Y-104828594D01*
X152097139Y-104688525D01*
X152042487Y-104556584D01*
X151963144Y-104437839D01*
X151862161Y-104336856D01*
X151743416Y-104257513D01*
X151611475Y-104202861D01*
X151471406Y-104175000D01*
X151328594Y-104175000D01*
X151188525Y-104202861D01*
X151056584Y-104257513D01*
X150937839Y-104336856D01*
X150836856Y-104437839D01*
X150818553Y-104465231D01*
X150778860Y-104432656D01*
X150692082Y-104386273D01*
X150597923Y-104357710D01*
X150500000Y-104348065D01*
X150300000Y-104348065D01*
X150202077Y-104357710D01*
X150158144Y-104371037D01*
X150092267Y-104335825D01*
X149998017Y-104307235D01*
X149953463Y-104302847D01*
X149952352Y-104301935D01*
X150000000Y-104301935D01*
X150097923Y-104292290D01*
X150192082Y-104263727D01*
X150278860Y-104217344D01*
X150354922Y-104154922D01*
X150417344Y-104078860D01*
X150463727Y-103992082D01*
X150492290Y-103897923D01*
X150501935Y-103800000D01*
X150501935Y-103600000D01*
X150492290Y-103502077D01*
X150463727Y-103407918D01*
X150417344Y-103321140D01*
X150354922Y-103245078D01*
X150350000Y-103241039D01*
X150350000Y-101974560D01*
X150352419Y-101950000D01*
X150342765Y-101851983D01*
X150333063Y-101820000D01*
X150314175Y-101757733D01*
X150267746Y-101670871D01*
X150205264Y-101594736D01*
X150186180Y-101579074D01*
X150090928Y-101483823D01*
X150075264Y-101464736D01*
X149999129Y-101402254D01*
X149912267Y-101355825D01*
X149818017Y-101327235D01*
X149774686Y-101322967D01*
X149753206Y-101296794D01*
X149671083Y-101229398D01*
X149577390Y-101179317D01*
X149475726Y-101148478D01*
X149370000Y-101138065D01*
X149030000Y-101138065D01*
X148924274Y-101148478D01*
X148822610Y-101179317D01*
X148728917Y-101229398D01*
X148646794Y-101296794D01*
X148644163Y-101300000D01*
X148549994Y-101300000D01*
X148528860Y-101282656D01*
X148442082Y-101236273D01*
X148347923Y-101207710D01*
X148250000Y-101198065D01*
X147990000Y-101198065D01*
X147892077Y-101207710D01*
X147800000Y-101235641D01*
X147707923Y-101207710D01*
X147610000Y-101198065D01*
X147350000Y-101198065D01*
X147252077Y-101207710D01*
X147157918Y-101236273D01*
X147071140Y-101282656D01*
X146995078Y-101345078D01*
X146959018Y-101389018D01*
X146900000Y-101330000D01*
X146699055Y-101330000D01*
X146692082Y-101326273D01*
X146597923Y-101297710D01*
X146500000Y-101288065D01*
X146330000Y-101288065D01*
X146330000Y-101230000D01*
X146350000Y-101230000D01*
X146350000Y-100750000D01*
X146450000Y-100750000D01*
X146450000Y-101230000D01*
X146900000Y-101230000D01*
X147000000Y-101130000D01*
X147001935Y-101050000D01*
X146994212Y-100971586D01*
X146971340Y-100896186D01*
X146934197Y-100826697D01*
X146884211Y-100765789D01*
X146823303Y-100715803D01*
X146753814Y-100678660D01*
X146678414Y-100655788D01*
X146600000Y-100648065D01*
X146550000Y-100650000D01*
X146450000Y-100750000D01*
X146350000Y-100750000D01*
X146250000Y-100650000D01*
X146200000Y-100648065D01*
X146121586Y-100655788D01*
X146111655Y-100658800D01*
X146111935Y-100640000D01*
X146104212Y-100561586D01*
X146081340Y-100486186D01*
X146044197Y-100416697D01*
X145994211Y-100355789D01*
X145933303Y-100305803D01*
X145863814Y-100268660D01*
X145788414Y-100245788D01*
X145710000Y-100238065D01*
X145550000Y-100240000D01*
X145450000Y-100340000D01*
X145450000Y-100870000D01*
X145470000Y-100870000D01*
X145470000Y-100970000D01*
X145450000Y-100970000D01*
X145450000Y-100990000D01*
X145350000Y-100990000D01*
X145350000Y-100970000D01*
X144790000Y-100970000D01*
X144690000Y-101070000D01*
X144688065Y-101200000D01*
X144695788Y-101278414D01*
X144718660Y-101353814D01*
X144755803Y-101423303D01*
X144775146Y-101446872D01*
X144729317Y-101532610D01*
X144698478Y-101634274D01*
X144688065Y-101740000D01*
X144688065Y-102020000D01*
X144698478Y-102125726D01*
X144712882Y-102173210D01*
X144688414Y-102165788D01*
X144610000Y-102158065D01*
X144450000Y-102160000D01*
X144350000Y-102260000D01*
X144350000Y-102790000D01*
X144910000Y-102790000D01*
X144930000Y-102770000D01*
X145350000Y-102770000D01*
X145350000Y-102750000D01*
X145450000Y-102750000D01*
X145450000Y-102770000D01*
X145470000Y-102770000D01*
X145470000Y-102870000D01*
X145450000Y-102870000D01*
X145450000Y-102890000D01*
X145350000Y-102890000D01*
X145350000Y-102870000D01*
X144790000Y-102870000D01*
X144770000Y-102890000D01*
X144350000Y-102890000D01*
X144350000Y-102910000D01*
X144250000Y-102910000D01*
X144250000Y-102890000D01*
X143690000Y-102890000D01*
X143590000Y-102990000D01*
X143588065Y-103120000D01*
X143595788Y-103198414D01*
X143618660Y-103273814D01*
X143655803Y-103343303D01*
X143675146Y-103366872D01*
X143629317Y-103452610D01*
X143598478Y-103554274D01*
X143588065Y-103660000D01*
X143588065Y-103662911D01*
X143575000Y-103728594D01*
X143575000Y-103871406D01*
X143588065Y-103937089D01*
X143588065Y-103940000D01*
X143598478Y-104045726D01*
X143629317Y-104147390D01*
X143679398Y-104241083D01*
X143746794Y-104323206D01*
X143828917Y-104390602D01*
X143922610Y-104440683D01*
X144024274Y-104471522D01*
X144027431Y-104471833D01*
X144088525Y-104497139D01*
X144228594Y-104525000D01*
X144371406Y-104525000D01*
X144511475Y-104497139D01*
X144572569Y-104471833D01*
X144575726Y-104471522D01*
X144677390Y-104440683D01*
X144771083Y-104390602D01*
X144790094Y-104375000D01*
X144937145Y-104375000D01*
X145022610Y-104420683D01*
X145025057Y-104421425D01*
X145056578Y-104442487D01*
X145188519Y-104497139D01*
X145328588Y-104525000D01*
X145471400Y-104525000D01*
X145611469Y-104497139D01*
X145743410Y-104442487D01*
X145774921Y-104421432D01*
X145777390Y-104420683D01*
X145825439Y-104395000D01*
X145906938Y-104395000D01*
X145907235Y-104398017D01*
X145914111Y-104420683D01*
X145934411Y-104487605D01*
X145930508Y-104494573D01*
X145899453Y-104590113D01*
X145887633Y-104689876D01*
X145895502Y-104790029D01*
X145922759Y-104886721D01*
X145930240Y-104901407D01*
X145909599Y-104951238D01*
X145899900Y-105000000D01*
X145407100Y-105000000D01*
X145018730Y-104611630D01*
X144998196Y-104597910D01*
X144979127Y-104582260D01*
X144957372Y-104570631D01*
X144936838Y-104556911D01*
X144914024Y-104547461D01*
X144892266Y-104535831D01*
X144868654Y-104528668D01*
X144845844Y-104519220D01*
X144821631Y-104514404D01*
X144798016Y-104507240D01*
X144773457Y-104504821D01*
X144749245Y-104500005D01*
X144724559Y-104500005D01*
X144699999Y-104497586D01*
X144675439Y-104500005D01*
X144650753Y-104500005D01*
X144626541Y-104504821D01*
X144601982Y-104507240D01*
X144578367Y-104514404D01*
X144554154Y-104519220D01*
X144531344Y-104528668D01*
X144507732Y-104535831D01*
X144485974Y-104547461D01*
X144463160Y-104556911D01*
X144442626Y-104570631D01*
X144420871Y-104582260D01*
X144401802Y-104597910D01*
X144381268Y-104611630D01*
X144363807Y-104629091D01*
X144344736Y-104644742D01*
X144329085Y-104663813D01*
X144311624Y-104681274D01*
X144297904Y-104701808D01*
X144282254Y-104720877D01*
X144270625Y-104742632D01*
X144256905Y-104763166D01*
X144247455Y-104785980D01*
X144235825Y-104807738D01*
X144228662Y-104831350D01*
X144219214Y-104854160D01*
X144214398Y-104878373D01*
X144207667Y-104900561D01*
X143500000Y-104192895D01*
X143500000Y-102560000D01*
X143588065Y-102560000D01*
X143590000Y-102690000D01*
X143690000Y-102790000D01*
X144250000Y-102790000D01*
X144250000Y-102260000D01*
X144150000Y-102160000D01*
X143990000Y-102158065D01*
X143911586Y-102165788D01*
X143836186Y-102188660D01*
X143766697Y-102225803D01*
X143705789Y-102275789D01*
X143655803Y-102336697D01*
X143618660Y-102406186D01*
X143595788Y-102481586D01*
X143588065Y-102560000D01*
X143500000Y-102560000D01*
X143500000Y-101407105D01*
X144267106Y-100640000D01*
X144688065Y-100640000D01*
X144690000Y-100770000D01*
X144790000Y-100870000D01*
X145350000Y-100870000D01*
X145350000Y-100340000D01*
X145250000Y-100240000D01*
X145090000Y-100238065D01*
X145011586Y-100245788D01*
X144936186Y-100268660D01*
X144866697Y-100305803D01*
X144805789Y-100355789D01*
X144755803Y-100416697D01*
X144718660Y-100486186D01*
X144695788Y-100561586D01*
X144688065Y-100640000D01*
X144267106Y-100640000D01*
X144636187Y-100270920D01*
X144655264Y-100255264D01*
X144717746Y-100179129D01*
X144764175Y-100092267D01*
X144792765Y-99998017D01*
X144800000Y-99924560D01*
X144802419Y-99900000D01*
X144800000Y-99875440D01*
X144800000Y-96724560D01*
X144802419Y-96700000D01*
X144792765Y-96601983D01*
X144789825Y-96592290D01*
X144764175Y-96507733D01*
X144717746Y-96420871D01*
X144655264Y-96344736D01*
X144636186Y-96329080D01*
X144020929Y-95713824D01*
X144005264Y-95694736D01*
X143929129Y-95632254D01*
X143895889Y-95614487D01*
X143897139Y-95611469D01*
X143925000Y-95471400D01*
X143925000Y-95328588D01*
X143904395Y-95225000D01*
X150021757Y-95225000D01*
X150050000Y-95227782D01*
X150078243Y-95225000D01*
X150078246Y-95225000D01*
X150162720Y-95216680D01*
X150271108Y-95183801D01*
X150370998Y-95130408D01*
X150458554Y-95058554D01*
X150476565Y-95036607D01*
X152093486Y-93419686D01*
X152201514Y-93398198D01*
X152345958Y-93338367D01*
X152475954Y-93251507D01*
X152586507Y-93140954D01*
X152673367Y-93010958D01*
X152733198Y-92866514D01*
X152755739Y-92753196D01*
X152815916Y-92793405D01*
X152978851Y-92860894D01*
X153151821Y-92895300D01*
X153328179Y-92895300D01*
X153501149Y-92860894D01*
X153664084Y-92793405D01*
X153810720Y-92695425D01*
X153935425Y-92570720D01*
X154033405Y-92424084D01*
X154100894Y-92261149D01*
X154135300Y-92088179D01*
X154135300Y-91911821D01*
X154100894Y-91738851D01*
X154033405Y-91575916D01*
X153935425Y-91429280D01*
X153810720Y-91304575D01*
X153664084Y-91206595D01*
X153501149Y-91139106D01*
X153328179Y-91104700D01*
X153151821Y-91104700D01*
X153097709Y-91115464D01*
X153492317Y-90720856D01*
X153611456Y-90697158D01*
X153743397Y-90642506D01*
X153862142Y-90563163D01*
X153963125Y-90462180D01*
X154042468Y-90343435D01*
X154097120Y-90211494D01*
X154124981Y-90071425D01*
X154124981Y-89928613D01*
X154097120Y-89788544D01*
X154042468Y-89656603D01*
X153963125Y-89537858D01*
X153862142Y-89436875D01*
X153743397Y-89357532D01*
X153611456Y-89302880D01*
X153471387Y-89275019D01*
X153328575Y-89275019D01*
X153188506Y-89302880D01*
X153056565Y-89357532D01*
X152937820Y-89436875D01*
X152836837Y-89537858D01*
X152757494Y-89656603D01*
X152702842Y-89788544D01*
X152679144Y-89907683D01*
X152015528Y-90571300D01*
X151891827Y-90571300D01*
X151738486Y-90601802D01*
X151594042Y-90661633D01*
X151464046Y-90748493D01*
X151353493Y-90859046D01*
X151335000Y-90886723D01*
X151316507Y-90859046D01*
X151205954Y-90748493D01*
X151075958Y-90661633D01*
X150931514Y-90601802D01*
X150778173Y-90571300D01*
X150621827Y-90571300D01*
X150468486Y-90601802D01*
X150324042Y-90661633D01*
X150194046Y-90748493D01*
X150083493Y-90859046D01*
X150039537Y-90924831D01*
X149957322Y-90908389D01*
X149500711Y-91365000D01*
X149957322Y-91821611D01*
X150039537Y-91805169D01*
X150083493Y-91870954D01*
X150194046Y-91981507D01*
X150221723Y-92000000D01*
X150194046Y-92018493D01*
X150083493Y-92129046D01*
X150065000Y-92156723D01*
X150046507Y-92129046D01*
X149935954Y-92018493D01*
X149870169Y-91974537D01*
X149886611Y-91892322D01*
X149430000Y-91435711D01*
X148973389Y-91892322D01*
X148989831Y-91974537D01*
X148924046Y-92018493D01*
X148813493Y-92129046D01*
X148726633Y-92259042D01*
X148707556Y-92305097D01*
X148584084Y-92222595D01*
X148421149Y-92155106D01*
X148248179Y-92120700D01*
X148071821Y-92120700D01*
X147898851Y-92155106D01*
X147735916Y-92222595D01*
X147589280Y-92320575D01*
X147464575Y-92445280D01*
X147366595Y-92591916D01*
X147299106Y-92754851D01*
X147264700Y-92927821D01*
X147264700Y-93104179D01*
X147299106Y-93277149D01*
X147339637Y-93375000D01*
X142899201Y-93375000D01*
X142824201Y-93300000D01*
X142074201Y-93300000D01*
X142074201Y-93308065D01*
X141974201Y-93308065D01*
X141974201Y-93300000D01*
X141954201Y-93300000D01*
X141954201Y-93200000D01*
X141974201Y-93200000D01*
X141974201Y-92710000D01*
X142074201Y-92710000D01*
X142074201Y-93200000D01*
X142824201Y-93200000D01*
X142924201Y-93100000D01*
X142926136Y-93010000D01*
X142918413Y-92931586D01*
X142895541Y-92856186D01*
X142858398Y-92786697D01*
X142808412Y-92725789D01*
X142747504Y-92675803D01*
X142678015Y-92638660D01*
X142602615Y-92615788D01*
X142524201Y-92608065D01*
X142174201Y-92610000D01*
X142074201Y-92710000D01*
X141974201Y-92710000D01*
X141874201Y-92610000D01*
X141625000Y-92608622D01*
X141625000Y-90895821D01*
X147264700Y-90895821D01*
X147264700Y-91072179D01*
X147299106Y-91245149D01*
X147366595Y-91408084D01*
X147464575Y-91554720D01*
X147589280Y-91679425D01*
X147735916Y-91777405D01*
X147898851Y-91844894D01*
X148071821Y-91879300D01*
X148248179Y-91879300D01*
X148421149Y-91844894D01*
X148584084Y-91777405D01*
X148705332Y-91696389D01*
X148756656Y-91792409D01*
X148902678Y-91821611D01*
X149359289Y-91365000D01*
X149345147Y-91350858D01*
X149415858Y-91280147D01*
X149430000Y-91294289D01*
X149886611Y-90837678D01*
X149857409Y-90691656D01*
X149717834Y-90621211D01*
X149567198Y-90579349D01*
X149411289Y-90567679D01*
X149256098Y-90586649D01*
X149107592Y-90635532D01*
X149006997Y-90689301D01*
X148953405Y-90559916D01*
X148855425Y-90413280D01*
X148730720Y-90288575D01*
X148584084Y-90190595D01*
X148421149Y-90123106D01*
X148248179Y-90088700D01*
X148071821Y-90088700D01*
X147898851Y-90123106D01*
X147735916Y-90190595D01*
X147589280Y-90288575D01*
X147464575Y-90413280D01*
X147366595Y-90559916D01*
X147299106Y-90722851D01*
X147264700Y-90895821D01*
X141625000Y-90895821D01*
X141625000Y-88925000D01*
X158600000Y-88925000D01*
X158600000Y-105800000D01*
G37*
%TD.AperFunction*%
%TD*%
M02*
