%TF.GenerationSoftware,KiCad,Pcbnew,(6.0.0-0)*%
%TF.CreationDate,2022-01-28T12:00:07+01:00*%
%TF.ProjectId,s1-ecg-demo,73312d65-6367-42d6-9465-6d6f2e6b6963,2*%
%TF.SameCoordinates,Original*%
%TF.FileFunction,Paste,Top*%
%TF.FilePolarity,Positive*%
%FSLAX46Y46*%
G04 Gerber Fmt 4.6, Leading zero omitted, Abs format (unit mm)*
G04 Created by KiCad (PCBNEW (6.0.0-0)) date 2022-01-28 12:00:07*
%MOMM*%
%LPD*%
G01*
G04 APERTURE LIST*
G04 Aperture macros list*
%AMRoundRect*
0 Rectangle with rounded corners*
0 $1 Rounding radius*
0 $2 $3 $4 $5 $6 $7 $8 $9 X,Y pos of 4 corners*
0 Add a 4 corners polygon primitive as box body*
4,1,4,$2,$3,$4,$5,$6,$7,$8,$9,$2,$3,0*
0 Add four circle primitives for the rounded corners*
1,1,$1+$1,$2,$3*
1,1,$1+$1,$4,$5*
1,1,$1+$1,$6,$7*
1,1,$1+$1,$8,$9*
0 Add four rect primitives between the rounded corners*
20,1,$1+$1,$2,$3,$4,$5,0*
20,1,$1+$1,$4,$5,$6,$7,0*
20,1,$1+$1,$6,$7,$8,$9,0*
20,1,$1+$1,$8,$9,$2,$3,0*%
G04 Aperture macros list end*
%ADD10C,0.176000*%
%ADD11RoundRect,0.079500X-0.079500X-0.100500X0.079500X-0.100500X0.079500X0.100500X-0.079500X0.100500X0*%
%ADD12RoundRect,0.140000X0.170000X-0.140000X0.170000X0.140000X-0.170000X0.140000X-0.170000X-0.140000X0*%
%ADD13R,0.990600X2.006600*%
%ADD14R,0.558800X1.092200*%
%ADD15R,0.304800X1.041400*%
%ADD16RoundRect,0.218750X0.218750X0.256250X-0.218750X0.256250X-0.218750X-0.256250X0.218750X-0.256250X0*%
%ADD17RoundRect,0.079500X0.100500X-0.079500X0.100500X0.079500X-0.100500X0.079500X-0.100500X-0.079500X0*%
%ADD18RoundRect,0.079500X-0.100500X0.079500X-0.100500X-0.079500X0.100500X-0.079500X0.100500X0.079500X0*%
%ADD19RoundRect,0.079500X0.079500X0.100500X-0.079500X0.100500X-0.079500X-0.100500X0.079500X-0.100500X0*%
%ADD20RoundRect,0.140000X0.140000X0.170000X-0.140000X0.170000X-0.140000X-0.170000X0.140000X-0.170000X0*%
%ADD21RoundRect,0.140000X-0.140000X-0.170000X0.140000X-0.170000X0.140000X0.170000X-0.140000X0.170000X0*%
%ADD22RoundRect,0.140000X-0.170000X0.140000X-0.170000X-0.140000X0.170000X-0.140000X0.170000X0.140000X0*%
%ADD23R,1.000000X0.480000*%
G04 APERTURE END LIST*
D10*
%TO.C,U1*%
X146400000Y-104700000D03*
X146800000Y-104700000D03*
X147200000Y-104700000D03*
X147600000Y-104700000D03*
X148000000Y-104700000D03*
X146400000Y-105100000D03*
X146800000Y-105100000D03*
X147200000Y-105100000D03*
X147600000Y-105100000D03*
X148000000Y-105100000D03*
X146400000Y-105500000D03*
X146800000Y-105500000D03*
X147200000Y-105500000D03*
X147600000Y-105500000D03*
X148000000Y-105500000D03*
X146400000Y-105900000D03*
X146800000Y-105900000D03*
X147200000Y-105900000D03*
X147600000Y-105900000D03*
X148000000Y-105900000D03*
%TD*%
D11*
%TO.C,R3*%
X133955000Y-97400000D03*
X134645000Y-97400000D03*
%TD*%
D12*
%TO.C,C6*%
X144300000Y-102840000D03*
X144300000Y-103800000D03*
%TD*%
D13*
%TO.C,J6*%
X140499999Y-116996000D03*
X137700000Y-116996000D03*
D14*
X142199999Y-112500000D03*
X141450000Y-112500000D03*
D15*
X140849999Y-112500000D03*
X140350000Y-112500000D03*
X139850001Y-112500000D03*
X139349999Y-112500000D03*
X138850000Y-112500000D03*
X138349999Y-112500000D03*
X137850000Y-112500000D03*
X137350001Y-112500000D03*
D14*
X136749999Y-112500000D03*
X136000000Y-112500000D03*
%TD*%
D11*
%TO.C,R15*%
X135335000Y-110300000D03*
X136025000Y-110300000D03*
%TD*%
D16*
%TO.C,LED4*%
X138408299Y-107300000D03*
X139983299Y-107300000D03*
%TD*%
D11*
%TO.C,R23*%
X133955000Y-96700000D03*
X134645000Y-96700000D03*
%TD*%
%TO.C,R22*%
X133955000Y-98100000D03*
X134645000Y-98100000D03*
%TD*%
%TO.C,R21*%
X133955000Y-98800000D03*
X134645000Y-98800000D03*
%TD*%
%TO.C,R20*%
X133955000Y-95300000D03*
X134645000Y-95300000D03*
%TD*%
%TO.C,R19*%
X133955000Y-94600000D03*
X134645000Y-94600000D03*
%TD*%
%TO.C,R18*%
X133955000Y-93900000D03*
X134645000Y-93900000D03*
%TD*%
D17*
%TO.C,R8*%
X146400000Y-101945000D03*
X146400000Y-101255000D03*
%TD*%
D18*
%TO.C,R5*%
X146400000Y-103155000D03*
X146400000Y-103845000D03*
%TD*%
D11*
%TO.C,R1*%
X147455000Y-102700000D03*
X148145000Y-102700000D03*
%TD*%
%TO.C,R4*%
X148855000Y-105700000D03*
X149545000Y-105700000D03*
%TD*%
%TO.C,R2*%
X148855000Y-104800000D03*
X149545000Y-104800000D03*
%TD*%
D19*
%TO.C,R11*%
X146445000Y-108600000D03*
X145755000Y-108600000D03*
%TD*%
D17*
%TO.C,R9*%
X150400000Y-108545000D03*
X150400000Y-107855000D03*
%TD*%
D19*
%TO.C,R14*%
X146145000Y-106700000D03*
X145455000Y-106700000D03*
%TD*%
D17*
%TO.C,R13*%
X147000000Y-107445000D03*
X147000000Y-106755000D03*
%TD*%
D18*
%TO.C,R7*%
X150400000Y-104955000D03*
X150400000Y-105645000D03*
%TD*%
D19*
%TO.C,R6*%
X149545000Y-106600000D03*
X148855000Y-106600000D03*
%TD*%
%TO.C,R10*%
X148145000Y-101800000D03*
X147455000Y-101800000D03*
%TD*%
D17*
%TO.C,R12*%
X148000000Y-107445000D03*
X148000000Y-106755000D03*
%TD*%
D11*
%TO.C,R17*%
X133955000Y-96000000D03*
X134645000Y-96000000D03*
%TD*%
D19*
%TO.C,R16*%
X142865000Y-110300000D03*
X142175000Y-110300000D03*
%TD*%
D16*
%TO.C,LED7*%
X138408299Y-104300000D03*
X139983299Y-104300000D03*
%TD*%
%TO.C,LED6*%
X138408299Y-102800000D03*
X139983299Y-102800000D03*
%TD*%
%TO.C,LED5*%
X138408299Y-101300000D03*
X139983299Y-101300000D03*
%TD*%
%TO.C,LED3*%
X138408299Y-108800000D03*
X139983299Y-108800000D03*
%TD*%
%TO.C,LED2*%
X138408299Y-110300000D03*
X139983299Y-110300000D03*
%TD*%
%TO.C,LED1*%
X138408299Y-105800000D03*
X139983299Y-105800000D03*
%TD*%
D12*
%TO.C,C3*%
X145400000Y-100920000D03*
X145400000Y-101880000D03*
%TD*%
%TO.C,C5*%
X145400000Y-102820000D03*
X145400000Y-103780000D03*
%TD*%
D20*
%TO.C,C1*%
X147320000Y-103700000D03*
X148280000Y-103700000D03*
%TD*%
%TO.C,C7*%
X147420000Y-108500000D03*
X148380000Y-108500000D03*
%TD*%
D12*
%TO.C,C4*%
X149400000Y-107540000D03*
X149400000Y-108500000D03*
%TD*%
D21*
%TO.C,C8*%
X146100000Y-107600000D03*
X145140000Y-107600000D03*
%TD*%
D22*
%TO.C,C2*%
X149200000Y-102780000D03*
X149200000Y-101820000D03*
%TD*%
D23*
%TO.C,MOD1*%
X142024201Y-93950000D03*
X142024201Y-94650000D03*
X142024201Y-95350000D03*
X142024201Y-96050000D03*
X142024201Y-96750000D03*
X142024201Y-97450000D03*
X142024201Y-98150000D03*
X142024201Y-98850000D03*
X142024201Y-99550000D03*
X136224201Y-99550000D03*
X136224201Y-98850000D03*
X136224201Y-98150000D03*
X136224201Y-97450000D03*
X136224201Y-96750000D03*
X136224201Y-96050000D03*
X136224201Y-95350000D03*
X136224201Y-94650000D03*
X136224201Y-93250000D03*
X136224201Y-93950000D03*
X142024201Y-93250000D03*
%TD*%
M02*
