*
%FSLAX26Y26*%
%MOIN*%
%ADD10C,0.029606*%
%ADD11C,0.041339*%
%ADD12C,0.025591*%
%ADD13C,0.080709*%
%ADD14C,0.017717*%
%IPPOS*%
%LNc4282tfc04a0.gbr_tmp*%
%LPD*%
G75*
G54D10*
X1404742Y473631D02*
Y512931D01*
Y317131D02*
Y368231D01*
X1744842Y473631D02*
Y512931D01*
X1744942Y317131D02*
Y368231D01*
G54D11*
X1933442Y1228331D03*
X2133442Y1268331D03*
Y1188331D03*
G54D12*
X1507894Y1027569D03*
X1645731Y1027531D03*
G54D10*
X1404742Y1741387D02*
Y1780687D01*
Y1584887D02*
Y1635987D01*
X1744842Y1741387D02*
Y1780687D01*
X1744942Y1584887D02*
Y1635987D01*
G54D11*
X1933442Y2496087D03*
X2133442Y2536087D03*
Y2456087D03*
G54D12*
X1507894Y2295325D03*
X1645731Y2295287D03*
G54D10*
X4641002Y473631D02*
Y512931D01*
Y317131D02*
Y368231D01*
X4981102Y473631D02*
Y512931D01*
X4981202Y317131D02*
Y368231D01*
G54D11*
X5169702Y1228331D03*
X5369702Y1268331D03*
Y1188331D03*
G54D12*
X4744154Y1027569D03*
X4881991Y1027531D03*
G54D10*
X4641002Y1741387D02*
Y1780687D01*
Y1584887D02*
Y1635987D01*
X4981102Y1741387D02*
Y1780687D01*
X4981202Y1584887D02*
Y1635987D01*
G54D11*
X5169702Y2496087D03*
X5369702Y2536087D03*
Y2456087D03*
G54D12*
X4744154Y2295325D03*
X4881991Y2295287D03*
G54D13*
X196850Y2909528D03*
X6078819D03*
X196850Y98425D03*
X6196929D03*
G54D14*
X933088Y1464579D03*
X960647D03*
X988206D03*
X1015765D03*
X1043324D03*
X2116159D03*
X2143718D03*
X2171277D03*
X2198836D03*
X2226395D03*
X933088Y2732335D03*
X960647D03*
X988206D03*
X1015765D03*
X1043324D03*
X2116159D03*
X2143718D03*
X2171277D03*
X2198836D03*
X2226395D03*
X4169348Y1464579D03*
X4196907D03*
X4224466D03*
X4252025D03*
X4279584D03*
X5352419D03*
X5379978D03*
X5407537D03*
X5435096D03*
X5462655D03*
X4169348Y2732335D03*
X4196907D03*
X4224466D03*
X4252025D03*
X4279584D03*
X5352419D03*
X5379978D03*
X5407537D03*
X5435096D03*
X5462655D03*
X933088Y275603D03*
X960647D03*
X988206D03*
X1015765D03*
X1043324D03*
X2116159D03*
X2143718D03*
X2171277D03*
X2198836D03*
X2226395D03*
X933088Y1543359D03*
X960647D03*
X988206D03*
X1015765D03*
X1043324D03*
X2116159D03*
X2143718D03*
X2171277D03*
X2198836D03*
X2226395D03*
X4169348Y275603D03*
X4196907D03*
X4224466D03*
X4252025D03*
X4279584D03*
X5352419D03*
X5379978D03*
X5407537D03*
X5435096D03*
X5462655D03*
X4169348Y1543359D03*
X4196907D03*
X4224466D03*
X4252025D03*
X4279584D03*
X5352419D03*
X5379978D03*
X5407537D03*
X5435096D03*
X5462655D03*
M02*
